<svg xmlns:xlink="http://www.w3.org/1999/xlink" aria-labelledby="adeLogo" class="header-logo-image logo-ade" viewBox="0 0 860.24 199.69" x="0" xml:space="preserve" xmlns="http://www.w3.org/2000/svg" y="0" width="860.24"  height="199.69" ><text id="adeLogo">Airdrie Echo</text><style>.st0{fill:#322561}.st1{fill:#010101}</style><path class="st0" d="M700.23 196.58h30.9v-79.54c0-10.22 2.39-13.33 7.84-13.33 4.57 0 6.96 3.11 6.96 11.11v81.76h30.9v-90.21c0-19.33-9.79-27.55-23.28-27.55-11.1 0-19.8 7.78-23.28 16.44h-.44V37.94h-29.59v158.64zm-39.38-45.77v15.11c0 5.55-2.83 8.89-7.4 8.89s-7.4-3.33-7.4-8.89v-53.33c0-5.55 2.83-8.89 7.4-8.89s7.4 3.33 7.4 8.89v12.89h28.29v-14.89c0-22.22-13.71-31.77-37.21-31.77-24.15 0-36.78 11.55-36.78 31.77v57.32c0 20.44 12.62 31.77 36.78 31.77 23.5 0 37.21-9.33 37.21-31.77V150.8h-28.29zm-119.9 45.77h65.28V167.7h-33.51v-39.55h31.99V99.26h-31.99V66.82h33.51V37.94h-65.28v158.64zm-102.71-71.54V114.6c0-7.33 3.26-10.89 8.27-10.89 5 0 8.27 3.55 8.27 10.89v10.44h-16.54zm44.83 21.77v-29.55c0-26.22-9.57-38.44-37.86-38.44s-37.86 12.22-37.86 38.44v51.33c0 20.44 11.53 31.1 37.86 31.1s37.86-10.66 37.86-31.1v-10.22h-28.29v6.22c0 7.55-3.27 10.22-8.27 10.22-4.79 0-8.27-2.67-8.27-10.22v-17.77h44.83zM392.98 37.94h-28.29v30.22h28.29V37.94zm-29.59 158.64h30.9V81.93h-30.9v114.65zm-62.89 0h30.9v-57.55c0-13.78 8.27-21.11 18.71-21.11 1.96 0 3.92.22 5.88.67h.43V80.15c-11.97 1.78-17.19 5.33-25.68 24.44h-.44V81.93h-29.8v114.65zm-59.62-83.1c0-6.89 2.18-9.77 6.53-9.77 3.92 0 8.27 3.11 8.27 9.77v51.55c0 6.67-4.35 9.78-8.27 9.78-4.35 0-6.53-2.89-6.53-9.78v-51.55zm16.1 83.1h29.6V37.94h-30.9v55.99h-.43c-2.18-8-10.01-15.11-22.85-15.11-13.06 0-22.41 9.55-22.41 25.11v70.66c0 15.55 9.36 25.11 22.41 25.11 12.19 0 21.33-7.78 24.59-18.89v15.77zm-109.23 0h30.9v-57.55c0-13.78 8.27-21.11 18.71-21.11 1.96 0 3.92.22 5.88.67h.44V80.15c-11.97 1.78-17.19 5.33-25.68 24.44h-.43V81.93h-29.81v114.65zM131.86 37.94h-28.29v30.22h28.29V37.94zm-29.59 158.64h30.9V81.93h-30.9v114.65zM47.66 64.6h.44l6.75 75.1H39.6l8.06-75.1zM33.08 196.58l3.27-27.99h21.98l3.7 27.99h32.86L68.55 37.94H26.33L0 196.58h33.08zM831.91 169.04c0 6.05-3 8.57-7.39 8.57s-7.38-2.52-7.38-8.57v-61.17c0-6.22 2.99-8.74 7.38-8.74s7.39 2.52 7.39 8.74v61.17zm-43.11 4.04c0 18.15 12.17 25.55 35.72 25.55 23.55 0 35.72-7.39 35.72-25.55v-69.24c0-18.32-12.17-25.54-35.72-25.54-23.54 0-35.72 7.23-35.72 25.54v69.24z" fill="#322561"></path><path class="st1" d="M8.57 4.55H1.95V1.49h16.11v3.06h-6.65v24.83H8.57V4.55zM20.39 0h2.84v12.5h.06c.45-1.03 1.16-1.94 2.03-2.57.84-.62 1.84-1.04 2.91-1.04 2.1 0 5.46 1.66 5.46 8.57v11.92h-2.84v-11.5c0-3.23-.94-5.96-3.62-5.96-1.84 0-3.29 1.65-3.81 3.64-.16.5-.19 1.03-.19 1.74v12.08h-2.84V0zM39.9 20.03c.06 4.92 2.52 6.95 5.36 6.95 2.03 0 3.26-.46 4.33-1.03l.48 2.61c-1 .58-2.71 1.24-5.2 1.24-4.81 0-7.68-4.06-7.68-10.1s2.78-10.8 7.33-10.8c5.1 0 6.46 5.75 6.46 9.43 0 .75-.06 1.32-.1 1.7H39.9zm8.33-2.61c.03-2.32-.74-5.92-3.94-5.92-2.87 0-4.13 3.39-4.36 5.92h8.3z" fill="#010101"></path></svg>