<svg xmlns="http://www.w3.org/2000/svg" xmlns:xlink= "http://www.w3.org/1999/xlink" aria-labelledby="fpLogoHeader" style="fill:#2e4ebf;" class="header-logo-image logo-fp" role="img" viewBox="179 274 342 43" width="342" height="43"> <title id="fpLogoHeader">Financial Post</title> <path d="M202.6 275v9.8h-.7c-.4-2.7-2.8-8.1-4.5-8.5-.9-.2-1.9-.2-3-.2h-4.2v18.5h3c2.1 0 3-1.1 3.4-1.9.5-.9 1.2-4.3 1.3-5.9h.8v16.8h-.8c-.1-1.7-.9-5.4-1.3-6.2-.5-.8-1.4-1.9-3.4-1.9h-3v16.3c0 1.3.4 1.4 1.4 2 .8.5 3.3 1.5 4.4 1.8v.6h-15.8v-.6c.9-.2 3.5-1.3 4.4-1.8.9-.5 1.4-.7 1.4-2v-32.5c0-1.3-.4-1.5-1.4-2-.8-.4-3.4-1.5-4.4-1.7v-.6h22.4zM209.1 277.4c-.8-.4-3.4-1.5-4.4-1.7v-.7h15.8v.6c-.8.2-3.6 1.3-4.4 1.7-.9.5-1.4.7-1.4 2v32.5c0 1.3.5 1.4 1.4 2 .8.5 3.4 1.5 4.4 1.8v.6h-15.8v-.6c.8-.2 3.5-1.3 4.4-1.8.9-.5 1.4-.7 1.4-2v-32.5c0-1.3-.5-1.5-1.4-1.9zM246.6 278c-1 1-1.2 3.6-1.2 7.6v31h-1.1l-15.4-32.8V305c0 5 .2 6.8.7 7.7.5.9 3.6 2.5 5.2 3v.6h-13v-.6c1.3-.4 4.5-2 5.1-2.9.5-.8.7-2.7.7-7.4v-21.5c0-2.5-.4-4.2-1.1-5.2-.8-1.1-3.1-2.4-5.1-3v-.7h8.1l14.7 31.7V286c0-4.3-.4-7.1-1.2-7.9-1.3-1.3-3.6-2.2-4.9-2.5v-.6h13.1v.6c-1.3.3-3.3 1-4.6 2.4zM264.3 316.2v-.7c1.3-.3 5.1-1.7 5.1-2.8 0-.4-.1-1.3-.2-1.8l-1.8-8h-10.2c-.7 2.8-.9 3.5-1.3 5.3-.2 1.3-.4 2.2-.4 3.7 0 1.7 3.9 3.4 4.9 3.6v.7H248v-.7c.7-.1 3.2-1.5 3.9-2.1.8-.8 1.8-2.2 2.4-4.3 2.7-10.4 5.9-23.2 8.6-34.7h1.9c3.9 15.5 7.6 30.9 9 36.5.4 1.7.6 1.8 1.9 2.8.7.5 2.6 1.6 3.6 1.9v.7h-15zm-2-34.7l-4.8 20.1h9.6l-4.8-20.1zM304.3 278c-1 1-1.2 3.6-1.2 7.6v31H302l-15.4-32.8V305c0 5 .2 6.8.7 7.7.5.9 3.6 2.5 5.2 3v.6h-13v-.6c1.3-.4 4.5-2 5.1-2.9.5-.8.7-2.7.7-7.4v-21.5c0-2.5-.4-4.2-1.1-5.2-.8-1.1-3.1-2.4-5.1-3v-.7h8.1l14.7 31.7V286c0-4.3-.4-7.1-1.2-7.9-1.3-1.3-3.6-2.2-4.9-2.5v-.6h13.1v.6c-1.3.3-3.3 1-4.6 2.4zM321.3 317.2c-7.8 0-11.9-8.1-11.9-21.1 0-13.9 5.2-22.1 11.9-22.1 2.8 0 4.7 2 5.4 3.7l1.7-3.4h.8l.1 14.9h-1c-1.3-7.8-3.1-14.2-7.1-14.2-5.1 0-7 7.8-7 20.6 0 12.1 1.5 19.4 7.5 19.4 4.2 0 6.6-4.3 7.8-10l1.1.3c-1 6.4-3.8 11.9-9.3 11.9zM337.3 277.4c-.8-.4-3.4-1.5-4.4-1.7v-.7h15.8v.6c-.8.2-3.6 1.3-4.4 1.7-.9.5-1.4.7-1.4 2v32.5c0 1.3.5 1.4 1.4 2 .8.5 3.4 1.5 4.4 1.8v.6h-15.8v-.6c.8-.2 3.5-1.3 4.4-1.8.9-.5 1.4-.7 1.4-2v-32.5c-.1-1.3-.5-1.5-1.4-1.9zM365.7 316.2v-.7c1.3-.3 5.1-1.7 5.1-2.8 0-.4-.1-1.3-.2-1.8l-1.8-8h-10.2c-.7 2.8-.9 3.5-1.3 5.3-.2 1.3-.4 2.2-.4 3.7 0 1.7 3.9 3.4 4.9 3.6v.7h-12.5v-.7c.7-.1 3.2-1.5 3.9-2.1.8-.8 1.8-2.2 2.4-4.3 2.7-10.4 5.9-23.2 8.6-34.7h1.9c3.9 15.5 7.6 30.9 9 36.5.4 1.7.6 1.8 1.9 2.8.7.5 2.6 1.6 3.6 1.9v.7h-14.9zm-2-34.7l-4.8 20.1h9.6l-4.8-20.1zM386.4 277.4c-.7-.3-3.7-1.4-4.8-1.6v-.8h16.5v.7c-.8.2-4 1.3-4.8 1.6-1 .4-1.4.7-1.4 2v30.3c0 5.4.2 5.5 4.3 5.5 5.4 0 5.8-.2 6.6-1.7 1-1.7 3-6.8 3.6-8.9h.7l-.5 11.6h-25.1v-.6c.8-.2 4-1.3 4.8-1.6 1-.4 1.4-.7 1.4-2v-32.6c0-1.3-.4-1.5-1.3-1.9zM445.4 285.7c0 8.2-5.9 11.6-11.8 11.6h-3.4v14.5c0 1.3.4 1.4 1.4 2 .8.5 3.3 1.5 4.4 1.8v.6h-15.8v-.6c.9-.2 3.5-1.3 4.4-1.8.9-.5 1.4-.7 1.4-2v-32.5c0-1.3-.4-1.5-1.4-2-.8-.4-3.4-1.5-4.4-1.7v-.6h14.4c6.8 0 10.8 4.5 10.8 10.7zm-12.8-9.6h-2.4v20.1h2.4c5.5 0 8-4.8 8-9.9-.1-5.1-1.9-10.2-8-10.2zM467.8 312.5c-1.8 2.9-4.3 4.6-8.1 4.6-3.3 0-6-1.8-7.8-4.5-2.4-3.7-3.8-10-3.8-16.6 0-6.6 1.3-12.8 3.6-16.6 2-3.3 4.6-5.4 8.2-5.4 3.4 0 6 1.7 8.2 5.4 2.1 3.5 3.5 10 3.5 15.9 0 6.3-1.1 13-3.8 17.2zm-7.9-37.5c-5.2 0-6.9 7-6.9 20.7 0 13.5 1.4 20.4 6.9 20.4 5.2 0 6.8-7.2 6.8-20.7 0-13.4-1.6-20.4-6.8-20.4zM485.5 317c-3.3 0-5.5-1.8-6.6-3.3l-1.7 2.5h-.8l-.4-13.5h.7c1.9 9.1 4.8 13.3 8.7 13.3 3.3 0 5.3-2.9 5.3-7.6 0-3.1-2.1-6.4-3.9-8.4-1.7-1.8-3.6-3.5-5.1-5-2.7-2.6-5.7-6.4-5.7-11.8 0-6.4 4.3-9 8.5-9 2 0 4.2 1 5.7 3l1.7-2.2h.6v12.3h-.5c-1.7-7.2-3.4-12.1-7.3-12.1-2.8 0-4.9 2.4-4.9 6.6 0 3.3 1.6 6.1 3.5 7.9 1.6 1.6 3.6 3.4 5 4.9 3 3 6.6 6.3 6.6 12.2 0 7.4-4.7 10.2-9.4 10.2zM520.3 285.8h-.7c-2.3-9.2-2.4-9.3-5.4-9.6-.7-.1-1.5-.1-2.8-.1h-1v35.8c0 1.3.4 1.4 1.4 2 .8.4 3.4 1.5 4.4 1.8v.6h-15.8v-.6c.8-.2 3.4-1.2 4.4-1.8.9-.5 1.4-.7 1.4-2v-35.8h-.9c-1.3 0-2.1.1-2.8.1-3 .3-3.1.4-5.4 9.6h-.7V275h23.9v10.8z"></path></svg>