<svg xmlns="http://www.w3.org/2000/svg" xmlns:xlink= "http://www.w3.org/1999/xlink" aria-labelledby="wsunLogo" style="fill:#D2232A;" class="header-logo-image logo-wsun" role="img" viewBox="0 0 447 56" width="447" height="56"> <title id="wsunLogo">Winnipeg Sun</title><path d="m330.81 17.93h-1.03c-0.09-0.54-0.14-0.83-0.15-0.89-0.15-0.89-0.3-1.93-0.89-2.67s-1.18-1.33-3.11-1.33c-1.04 0-2.07 0.29-2.67 0.89-0.74 0.59-1.03 1.18-1.03 1.92 0.14 1.34 0 1.48 1.48 2.52 1.48 0.89 4.44 2.22 9.48 4.3 5.33 2.22 8.89 4.44 10.96 7.11 2.22 2.66 2.96 5.63 2.96 8.74 0 4-1.33 8.29-4.59 11.55s-8.59 5.34-16.29 5.34c-8.3 0-13.78-2.52-17.04-6.08-3.26-3.55-4.45-7.85-4.45-11.4v-2.82h16.6v1.19c0 2.66 0.89 4 1.77 4.89 0.89 0.74 2.23 1.03 2.82 1.03 2.81 0 4.3-2.07 4.3-3.7 0-1.48-0.3-1.78-1.78-2.82-1.48-0.89-4.3-1.92-8.59-3.7-1.93-0.74-5.63-2.07-8.75-4.44-3.11-2.37-5.92-6.08-5.92-11.26 0-5.19 2.81-9.49 6.81-12.15 4-2.67 9.19-4.15 14.08-4.15 5.78 0 12.15 1.93 16.15 6.22 3.55 4 3.85 7.85 4 10.82v1.18h-15.12"></path><path d="m364.89 2.07h1.18v31.26c0 1.63 0.15 3.86 0.89 5.48 0.89 1.63 2.08 2.82 5.19 2.82 3.26 0 4.29-1.04 5.04-2.67 0.74-1.48 0.74-3.85 0.74-5.77v-31.12h16.29v31.26c0 8.6-2.22 12.74-5.92 16.15-3.71 3.56-9.04 5.78-16.15 5.78-4.15 0-11.71-0.89-16.59-5.63-4.75-4.59-5.93-8.74-5.78-16.15v-31.41h15.11"></path><path d="m413.04 26.22l0.29 28h-15.7v-51.11-1.04h13.93l19.55 28.89-0.59-28.89h15.7v52.15h-13.92l-19.26-28z"></path><path d="m37.48 54.81l-7.7-32.14-7.71 32.14h-9.77l-12.3-52.14h10.67l6.96 33.33 7.85-33.33h9.04l7.7 33.33 6.97-33.33h10.37l-12.45 52.14h-9.63z"></path><path d="m63.41 2.52h10.07v52h-10.07v-52z"></path><path d="m90.52 24.59v29.93h-9.93v-52h9.34l16 28.89v-28.89h9.92v52h-8.74l-16.59-29.93z"></path><path d="m132.44 24.59v29.93h-9.92v-52h9.33l16 28.89v-28.89h9.93v52h-8.74l-16.6-29.93z"></path><path d="m164.89 2.52h10.07v52h-10.07v-52z"></path><path d="m198.02 2.6l1.04 0.1 1.02 0.15 0.98 0.18 0.95 0.23 0.93 0.26 0.89 0.31 0.86 0.34 0.82 0.39 0.8 0.42 0.76 0.47 0.72 0.5 0.69 0.54 0.65 0.58 0.61 0.62 0.58 0.66 0.54 0.7 0.5 0.73 0.46 0.77 0.42 0.81 0.38 0.85 0.33 0.88 0.3 0.92 0.25 0.96 0.2 0.99 0.16 1.03 0.12 1.07 0.07 1.1 0.02 1.14v0.14l-0.02 1.17-0.08 1.13-0.13 1.09-0.17 1.05-0.22 1.02-0.27 0.98-0.32 0.93-0.36 0.9-0.4 0.87-0.44 0.82-0.48 0.78-0.52 0.75-0.56 0.7-0.6 0.67-0.63 0.63-0.66 0.58-0.7 0.55-0.73 0.51-0.76 0.47-0.79 0.43-0.82 0.38-0.84 0.35-0.87 0.31-0.89 0.27-0.92 0.22-0.94 0.19-0.96 0.14-0.98 0.11-1 0.06-1.01 0.02h-4v16h-10.07v-52h13.92l1.1 0.02 1.07 0.06zm-6.02 26.73h4.15l1.37-0.09 1.27-0.29 1.14-0.47 1.03-0.64 0.89-0.82 0.75-0.98 0.6-1.14 0.44-1.29 0.27-1.44 0.09-1.58h-0.15l-0.09-1.68-0.25-1.5-0.43-1.32-0.57-1.13-0.73-0.96-0.87-0.78-1.01-0.6-1.13-0.43-1.25-0.25-1.37-0.09h-4.15v17.48z"></path><path d="m218.07 2.52h28.6v9.33h-18.52v11.85h16.29v9.34h-16.29v12.15h18.81v9.33h-28.89v-52z"></path><path d="m250.52 29.04v-1.04c0-15.85 9.18-26.07 21.78-26.07 5.77 0 9.48 1.48 13.03 4-0.32 0.91-2.93 8.26-3.26 9.18-3.11-2.37-5.77-3.7-9.77-3.7-6.67 0-11.41 6.22-11.41 16.29v1.49c0 11.85 5.18 16.59 11.26 16.59 2.07 0 3.85-0.45 5.33-1.48v-10.67h-7.7v-8.89h17.18v25.33c-4.15 2.97-8.89 5.04-15.11 5.04-12.29 0-21.33-9.18-21.33-26.07z"></path></svg>