<svg xmlns="http://www.w3.org/2000/svg" xmlns:xlink= "http://www.w3.org/1999/xlink" aria-labelledby="canadaLogo" class="header-logo-image logo-canada" role="img" viewBox="0 0 196 34"> <title id="canadaLogo">Canada.com</title> <path d="m150.99 21.985c-1.04 0-1.884-0.843-1.884-1.884s0.844-1.884 1.884-1.884c1.041 0 1.884 0.843 1.884 1.884s-0.843 1.884-1.884 1.884m0-4.919c-1.676 0-3.035 1.358-3.035 3.035s1.359 3.035 3.035 3.035c1.677 0 3.035-1.358 3.035-3.035s-1.358-3.035-3.035-3.035"></path> <path d="m50.776 10.56l-3.291 1.811c-0.617-0.648-1.23-1.096-1.834-1.347s-1.312-0.377-2.123-0.377c-1.479 0-2.676 0.441-3.589 1.323s-1.369 2.012-1.369 3.39c0 1.341 0.439 2.434 1.319 3.282s2.034 1.272 3.465 1.272c1.769 0 3.146-0.603 4.131-1.81l3.117 2.135c-1.688 2.197-4.073 3.295-7.152 3.295-2.772 0-4.941-0.821-6.509-2.461-1.569-1.641-2.353-3.563-2.353-5.763 0-1.525 0.381-2.93 1.144-4.214 0.762-1.283 1.826-2.293 3.192-3.026 1.366-0.734 2.894-1.101 4.583-1.101 1.564 0 2.969 0.312 4.213 0.935 1.246 0.622 2.264 1.508 3.056 2.656"></path> <path d="m60.777 10.618c-1.222 0-2.236 0.432-3.045 1.295-0.809 0.865-1.212 1.973-1.212 3.324 0 1.36 0.411 2.481 1.234 3.359s1.835 1.318 3.038 1.318c1.241 0 2.27-0.433 3.088-1.297 0.818-0.863 1.226-1.995 1.226-3.395 0-1.371-0.408-2.48-1.226-3.331-0.818-0.849-1.852-1.273-3.103-1.273zm4.155-3.244h3.953v15.754h-3.953v-1.665c-0.771 0.734-1.545 1.262-2.32 1.586-0.777 0.323-1.617 0.484-2.524 0.484-2.035 0-3.794-0.789-5.279-2.367s-2.227-3.54-2.227-5.886c0-2.433 0.718-4.426 2.155-5.98 1.436-1.554 3.182-2.331 5.235-2.331 0.945 0 1.832 0.178 2.661 0.536 0.829 0.356 1.595 0.892 2.299 1.607v-1.738z"></path> <path d="m72.882 7.374h3.953v1.615c0.897-0.756 1.709-1.281 2.437-1.577 0.727-0.296 1.472-0.443 2.233-0.443 1.563 0 2.888 0.546 3.977 1.636 0.916 0.927 1.373 2.297 1.373 4.113v10.41h-3.91v-6.899c0-1.879-0.084-3.128-0.252-3.746-0.168-0.617-0.462-1.087-0.881-1.409-0.42-0.324-0.937-0.485-1.553-0.485-0.8 0-1.485 0.267-2.059 0.803-0.572 0.535-0.969 1.275-1.191 2.219-0.115 0.492-0.174 1.558-0.174 3.197v6.32h-3.953v-15.754z"></path> <path d="m97.567 10.618c-1.222 0-2.237 0.432-3.045 1.295-0.809 0.865-1.213 1.973-1.213 3.324 0 1.36 0.412 2.481 1.235 3.359 0.822 0.878 1.835 1.318 3.037 1.318 1.242 0 2.271-0.433 3.089-1.297 0.817-0.863 1.226-1.995 1.226-3.395 0-1.371-0.409-2.48-1.226-3.331-0.818-0.849-1.853-1.273-3.103-1.273zm4.155-3.243h3.952v15.753h-3.952v-1.665c-0.77 0.734-1.545 1.262-2.321 1.586-0.776 0.323-1.617 0.484-2.523 0.484-2.035 0-3.795-0.789-5.28-2.367-1.484-1.578-2.226-3.54-2.226-5.886 0-2.433 0.717-4.426 2.154-5.98s3.182-2.331 5.236-2.331c0.945 0 1.831 0.178 2.66 0.536 0.831 0.356 1.596 0.892 2.3 1.607v-1.737z"></path> <path d="m116.56 10.618c-1.222 0-2.236 0.432-3.045 1.296s-1.212 1.972-1.212 3.323c0 1.36 0.411 2.481 1.234 3.359 0.822 0.878 1.835 1.318 3.038 1.318 1.241 0 2.27-0.433 3.087-1.297 0.818-0.863 1.227-1.995 1.227-3.395 0-1.371-0.409-2.48-1.227-3.331-0.817-0.849-1.851-1.273-3.102-1.273zm4.155-9.325h3.953v21.835h-3.953v-1.665c-0.77 0.734-1.545 1.262-2.321 1.586-0.776 0.323-1.617 0.484-2.523 0.484-2.035 0-3.794-0.789-5.28-2.367-1.484-1.578-2.226-3.54-2.226-5.886 0-2.433 0.717-4.426 2.154-5.98s3.183-2.331 5.236-2.331c0.945 0 1.832 0.178 2.66 0.536 0.831 0.356 1.596 0.892 2.3 1.607v-7.819z"></path> <path d="m135.56 10.618c-1.221 0-2.236 0.432-3.045 1.296-0.808 0.864-1.211 1.972-1.211 3.323 0 1.36 0.41 2.481 1.233 3.359 0.822 0.878 1.835 1.318 3.038 1.318 1.241 0 2.27-0.433 3.089-1.297 0.817-0.863 1.226-1.995 1.226-3.395 0-1.371-0.409-2.48-1.226-3.331-0.819-0.849-1.853-1.273-3.104-1.273zm4.156-3.243h3.952v15.753h-3.952v-1.665c-0.772 0.734-1.546 1.262-2.322 1.586-0.775 0.323-1.617 0.484-2.523 0.484-2.034 0-3.794-0.789-5.279-2.367s-2.227-3.54-2.227-5.886c0-2.433 0.718-4.426 2.154-5.98 1.437-1.554 3.183-2.331 5.236-2.331 0.946 0 1.832 0.178 2.661 0.536 0.829 0.356 1.596 0.892 2.3 1.607v-1.737z"></path> <path d="m167.47 15.398l-1.973 1.085c-0.371-0.389-0.736-0.657-1.099-0.808-0.363-0.15-0.786-0.225-1.274-0.225-0.886 0-1.603 0.264-2.151 0.793-0.547 0.528-0.82 1.206-0.82 2.032 0 0.804 0.263 1.459 0.791 1.968 0.526 0.509 1.219 0.762 2.076 0.762 1.06 0 1.887-0.362 2.477-1.085l1.869 1.28c-1.013 1.316-2.442 1.975-4.289 1.975-1.66 0-2.961-0.492-3.901-1.475-0.94-0.985-1.411-2.136-1.411-3.455 0-0.914 0.229-1.756 0.686-2.527 0.457-0.769 1.095-1.374 1.914-1.813 0.819-0.441 1.735-0.66 2.748-0.66 0.937 0 1.779 0.187 2.526 0.559 0.746 0.374 1.356 0.905 1.831 1.594"></path> <path d="m174.08 15.476c-0.737 0-1.35 0.256-1.839 0.768-0.491 0.511-0.735 1.168-0.735 1.965 0 0.822 0.241 1.489 0.726 1.997 0.484 0.509 1.097 0.764 1.839 0.764 0.741 0 1.36-0.258 1.852-0.772 0.492-0.516 0.739-1.178 0.739-1.989 0-0.809-0.242-1.467-0.726-1.974-0.484-0.506-1.103-0.759-1.856-0.759m-0.04-2.231c0.893 0 1.729 0.222 2.514 0.669 0.783 0.445 1.395 1.049 1.836 1.813 0.439 0.764 0.659 1.589 0.659 2.474 0 0.891-0.221 1.725-0.664 2.5s-1.046 1.381-1.81 1.819c-0.764 0.436-1.605 0.655-2.525 0.655-1.356 0-2.51-0.481-3.469-1.445-0.957-0.964-1.436-2.134-1.436-3.512 0-1.474 0.541-2.705 1.623-3.688 0.95-0.858 2.04-1.285 3.272-1.285"></path> <path d="m0.9678 0.4873h2.369v1.085c0.405-0.445 0.856-0.778 1.351-0.998s1.035-0.33 1.62-0.33c0.591 0 1.124 0.144 1.597 0.433 0.476 0.29 0.858 0.713 1.148 1.268 0.377-0.555 0.838-0.978 1.386-1.268 0.547-0.289 1.145-0.433 1.794-0.433 0.671 0 1.262 0.156 1.771 0.469 0.509 0.312 0.876 0.72 1.099 1.223 0.223 0.504 0.335 1.322 0.335 2.457v5.538h-2.387v-4.792c0-1.07-0.134-1.795-0.399-2.173-0.267-0.379-0.666-0.569-1.198-0.569-0.406 0-0.768 0.115-1.09 0.347-0.321 0.231-0.56 0.551-0.716 0.959s-0.235 1.063-0.235 1.966v4.262h-2.386v-4.574c0-0.846-0.063-1.457-0.187-1.836-0.126-0.38-0.312-0.661-0.561-0.846-0.249-0.186-0.552-0.278-0.907-0.278-0.392 0-0.752 0.116-1.074 0.352-0.321 0.233-0.561 0.562-0.722 0.984-0.159 0.423-0.239 1.088-0.239 1.997v4.201h-2.369v-9.444z" transform="translate(180 13)"></path> <path d="m30.152 15.285c0 3.557-1.252 6.82-3.339 9.376-1.483 1.816-3.389 3.274-5.566 4.225h0.012l-10.724 4.541v-4.096c-2.625-0.894-4.92-2.501-6.652-4.593l2.508-2.036c2.129 2.56 5.337 4.188 8.926 4.188 3.625 0 6.86-1.662 8.989-4.264 1.635-2 2.617-4.556 2.617-7.341 0-2.725-0.94-5.229-2.512-7.21l2.507-2.035c2.024 2.536 3.234 5.749 3.234 9.245"></path> <path d="m17.772 17.321c-0.58 0.703-1.459 1.15-2.441 1.15-1.749 0-3.167-1.417-3.167-3.166s1.418-3.166 3.167-3.166c1.02 0 1.927 0.483 2.506 1.232l1.642-1.289c-0.962-1.236-2.462-2.031-4.148-2.031-2.902 0-5.254 2.353-5.254 5.254 0 2.902 2.352 5.254 5.254 5.254 1.637 0 3.099-0.749 4.063-1.924l-1.622-1.314z" fill="#050707"></path> <path d="m15.317 0.4502c-4.66 0-8.818 2.15-11.538 5.512-2.062 2.548-3.297 5.791-3.297 9.323 0 3.593 1.277 6.887 3.401 9.453l2.508-2.036c-1.673-2.011-2.679-4.597-2.679-7.417 0-2.761 0.964-5.295 2.574-7.287 2.128-2.634 5.383-4.318 9.031-4.318 3.685 0 6.968 1.717 9.094 4.395l2.507-2.035c-2.718-3.406-6.905-5.59-11.601-5.59" fill="#FFCC05"></path> <path d="m6.9961 15.285c0-1.976 0.689-3.79 1.84-5.218l-2.55-2.069c-1.609 1.992-2.574 4.526-2.574 7.287 0 2.82 1.007 5.406 2.68 7.417l2.55-2.069c-1.215-1.447-1.946-3.312-1.946-5.348" fill="#F16622"></path> <path d="m15.317 23.606c-2.56 0-4.849-1.156-6.375-2.974l-2.551 2.07c2.129 2.559 5.337 4.188 8.926 4.188 3.625 0 6.86-1.662 8.989-4.264l-2.55-2.071c-1.526 1.863-3.843 3.051-6.439 3.051" fill="#EE3C24"></path> <path d="m15.317 3.6807c-3.648 0-6.903 1.684-9.031 4.317l2.55 2.07c1.525-1.893 3.862-3.104 6.481-3.104 2.655 0 5.021 1.244 6.544 3.181l2.55-2.069c-2.126-2.678-5.409-4.395-9.094-4.395" fill="#CB1C68"></path> <path d="m23.639 15.285c0 2-0.706 3.836-1.882 5.271l2.55 2.07c1.635-2 2.616-4.556 2.616-7.341 0-2.725-0.939-5.229-2.512-7.21l-2.549 2.069c1.113 1.416 1.777 3.202 1.777 5.141" fill="#EC248F"></path> <path d="m15.317 20.525c-1.594 0-3.021-0.712-3.982-1.835l-2.393 1.942c1.526 1.818 3.815 2.974 6.375 2.974 2.596 0 4.913-1.188 6.439-3.051l-2.392-1.941c-0.961 1.167-2.417 1.911-4.047 1.911" fill="#0098CC"></path> <path d="m20.558 15.285c0 1.265-0.447 2.424-1.193 3.329l2.392 1.942c1.176-1.435 1.882-3.271 1.882-5.271 0-1.939-0.664-3.725-1.777-5.141l-2.394 1.944c0.684 0.884 1.09 1.993 1.09 3.197" fill="#0D9948"></path> <path d="m15.287 10.139c1.689 0 3.223 0.709 4.182 1.95l2.392-1.944c-1.523-1.937-3.888-3.181-6.544-3.181-2.619 0-4.956 1.211-6.481 3.104l2.485 1.997c0.961-1.197 2.312-1.926 3.966-1.926" fill="#50B748"></path> <path d="m8.9424 20.633l2.393-1.942c-0.785-0.916-1.258-2.106-1.258-3.406 0-1.239 0.524-2.323 1.244-3.22l-2.485-1.997c-1.151 1.427-1.84 3.242-1.84 5.217 0 2.036 0.731 3.902 1.946 5.348" fill="#33C5F3"></path> <path d="m15.268 0.4307c-4.499 0-8.706 2.01-11.54 5.513-2.127 2.628-3.298 5.939-3.298 9.325 0 3.446 1.209 6.804 3.402 9.454 1.757 2.122 4.057 3.711 6.654 4.595l0.145 0.05v3.984l10.182-4.312 0.386-0.168c2.153-0.94 4.078-2.402 5.568-4.226 2.153-2.637 3.34-5.967 3.34-9.377 0-3.399-1.119-6.596-3.235-9.248-2.835-3.553-7.065-5.59-11.604-5.59zm-5.067 33.569v-4.326c-2.612-0.919-4.926-2.533-6.7-4.677-2.257-2.727-3.501-6.182-3.501-9.728 0-3.484 1.205-6.892 3.393-9.596 2.917-3.604 7.245-5.673 11.875-5.673 4.671 0 9.022 2.098 11.94 5.752 2.177 2.73 3.329 6.02 3.329 9.517 0 3.509-1.221 6.935-3.437 9.649-1.314 1.611-2.96 2.946-4.8 3.905l0.144-5e-3 -12.243 5.182z" fill="#050505"></path></svg>