<svg xmlns:xlink="http://www.w3.org/1999/xlink" aria-labelledby="bviLogo" class="header-logo-image logo-bvi" role="img" viewBox="0 0 678.2 72.67" x="0" xmlns="http://www.w3.org/2000/svg" y="0" width="678.2"  height="72.67" > <text id="bviLogo">Belleville Intelligencer</text><style>.st0{fill:#427c98}</style><path d="M45.68 25.84c-1-4.7-2.01-7.61-3.26-9.21-1.51-1.88-3.35-2.44-8.78-2.44h-4.52v45.02c0 7.8.75 8.55 8.37 9.21v3.01h-26.1v-3.01c7.2-.66 8.03-1.41 8.03-9.21V14.18h-3.76c-6.86 0-8.45.85-9.62 2.63-1.25 1.6-2.18 4.61-3.18 9.12H0c.33-6.39.84-13.07 1-17.95h1.92c1.25 2.16 2.34 2.35 4.69 2.35h33.47c2.18 0 3.18-.56 4.6-2.35h1.92c0 4.04.42 11.84.84 17.67l-2.76.19zM101.01 20.22c-5.84.58-6.35 1-6.35 8.05v32.45c0 6.97.59 7.47 6.35 8.05v2.66H79.44v-2.66c5.98-.58 6.57-1.08 6.57-8.05V44.87H64.07v15.85c0 6.97.59 7.47 6.28 8.05v2.66H49.23v-2.66c5.61-.58 6.28-1.08 6.28-8.05V28.27c0-7.05-.67-7.55-6.5-8.05v-2.74h21.13v2.74c-5.47.5-6.06 1-6.06 8.05v12.61h21.94V28.27c0-7.05-.52-7.47-6.13-8.05v-2.74h21.13v2.74zM141.64 57.9c-.44 3.32-1.92 11.04-2.59 13.53h-36.93v-2.66c6.43-.58 7.09-1.16 7.09-8.13V28.35c0-7.3-.67-7.64-6.06-8.13v-2.74h34.05c.07 1.66.44 7.47.74 12.28l-2.51.41c-.66-3.15-1.55-5.56-2.73-7.14s-3.18-2.16-7.76-2.16h-4.28c-2.59 0-2.81.17-2.81 2.82V41.7h5.69c6.35 0 7.09-.5 8.05-6.22h2.51v16.43h-2.51c-.96-5.97-1.7-6.31-8.05-6.31h-5.69v14.77c0 3.98.37 5.89 1.77 6.81 1.33.83 3.92.91 6.94.91 4.51 0 6.94-.58 8.64-2.74 1.4-1.74 2.73-4.48 3.99-7.97l2.45.52zM154.72 71.43v-3.01c6.44-.66 7.2-1.22 7.2-9.21V22.64c0-7.99-.75-8.65-7.2-9.21v-3.1h24.01v3.1c-6.44.56-7.11 1.22-7.11 9.21V59.2c0 7.9.67 8.55 7.11 9.21v3.01h-24.01zM231.14 20.14c-3.99.25-5.61 1.41-5.98 5.15-.3 2.49-.59 6.39-.59 13.86v33.11h-3.1L190.44 30.1h-.15v19.5c0 7.39.3 11.12.52 13.61.37 3.9 1.77 5.23 7.09 5.56v2.66h-17.88v-2.66c4.14-.33 5.91-1.58 6.28-5.31.22-2.74.59-6.47.59-13.86V31.92c0-5.64-.07-6.81-1.48-8.71-1.48-2.08-3.03-2.74-6.35-3.07v-2.66h12.71l29.18 38.26h.22v-16.6c0-7.47-.37-11.37-.52-13.78-.44-3.57-1.99-4.9-7.31-5.23v-2.66h17.8v2.67zM271.25 31.17c-.89-4.15-1.77-6.72-2.88-8.13-1.33-1.66-2.95-2.16-7.76-2.16h-3.99v39.75c0 6.89.66 7.55 7.39 8.13v2.66h-23.05v-2.66c6.35-.58 7.09-1.25 7.09-8.13V20.88h-3.32c-6.06 0-7.46.75-8.49 2.32-1.11 1.41-1.92 4.07-2.81 8.05h-2.51c.3-5.64.74-11.54.89-15.85h1.7c1.11 1.91 2.07 2.08 4.14 2.08h29.55c1.92 0 2.81-.5 4.06-2.08h1.7c0 3.57.37 10.46.74 15.6l-2.45.17zM313.43 57.9c-.44 3.32-1.92 11.04-2.59 13.53h-36.93v-2.66c6.43-.58 7.09-1.16 7.09-8.13V28.35c0-7.3-.67-7.64-6.06-8.13v-2.74H309c.07 1.66.44 7.47.74 12.28l-2.51.41c-.66-3.15-1.55-5.56-2.73-7.14s-3.18-2.16-7.76-2.16h-4.28c-2.59 0-2.81.17-2.81 2.82V41.7h5.69c6.35 0 7.09-.5 8.05-6.22h2.51v16.43h-2.51c-.96-5.97-1.7-6.31-8.05-6.31h-5.69v14.77c0 3.98.37 5.89 1.77 6.81 1.33.83 3.92.91 6.94.91 4.51 0 6.94-.58 8.64-2.74 1.4-1.74 2.73-4.48 3.99-7.97l2.44.52z"></path><path d="M350.73 57.73c-.59 3.24-2.07 11.37-2.73 13.69h-35.01v-2.66c6.28-.58 7.02-1.16 7.02-8.22V28.27c0-7.05-.66-7.55-6.43-8.05v-2.74h21.35v2.74c-5.69.5-6.35 1-6.35 8.05v32.62c0 4.07.3 5.64 1.77 6.39 1.33.66 3.47.83 6.06.83 3.55 0 6.13-.5 7.83-2.74 1.4-1.66 2.73-4.32 3.99-8.3l2.5.66z"></path><path d="M387.44 57.73c-.59 3.24-2.07 11.37-2.73 13.69H349.7v-2.66c6.28-.58 7.02-1.16 7.02-8.22V28.27c0-7.05-.66-7.55-6.43-8.05v-2.74h21.35v2.74c-5.69.5-6.35 1-6.35 8.05v32.62c0 4.07.29 5.64 1.77 6.39 1.33.66 3.47.83 6.06.83 3.55 0 6.13-.5 7.83-2.74 1.4-1.66 2.73-4.32 3.99-8.3l2.5.66z"></path><path d="M387.07 71.43v-2.66c5.69-.58 6.35-1.08 6.35-8.13V28.35c0-7.05-.66-7.64-6.35-8.13v-2.74h21.2v2.74c-5.69.5-6.28 1.08-6.28 8.13v32.28c0 6.97.59 7.55 6.28 8.13v2.66h-21.2z"></path><g><path d="M457.99 48.6c-3.91.75-4.36 1.16-4.36 6.39v6.81c0 2.99.07 5.64.52 7.8-4.51 1.25-10.86 3.07-16.77 3.07-16.84 0-27.77-11.12-27.77-27.64 0-19.09 13.74-28.8 28.88-28.8 6.06 0 11.74 1.74 14.33 2.32.22 2.9.59 7.3 1.18 13.53l-2.51.5c-1.85-9.54-7.39-13.03-14.33-13.03-9.75 0-17.65 9.13-17.65 24.15 0 12.28 5.76 25.73 18.61 25.73 1.92 0 3.77-.42 5.02-1.16 1.18-.83 1.92-2.07 1.92-4.9v-7.63c0-5.81-.44-6.39-7.98-7.14v-2.66h20.9v2.66zM497.66 57.9c-.44 3.32-1.92 11.04-2.58 13.53h-36.94v-2.66c6.43-.58 7.09-1.16 7.09-8.13V28.35c0-7.3-.66-7.64-6.06-8.13v-2.74h34.05c.07 1.66.44 7.47.74 12.28l-2.51.41c-.66-3.15-1.55-5.56-2.73-7.14s-3.18-2.16-7.76-2.16h-4.29c-2.58 0-2.81.17-2.81 2.82V41.7h5.69c6.35 0 7.09-.5 8.05-6.22h2.51v16.43h-2.51c-.96-5.97-1.7-6.31-8.05-6.31h-5.69v14.77c0 3.98.37 5.89 1.77 6.81 1.33.83 3.91.91 6.94.91 4.51 0 6.94-.58 8.64-2.74 1.4-1.74 2.73-4.48 3.99-7.97l2.46.52z"></path><path d="M548.41 20.14c-3.99.25-5.61 1.41-5.98 5.15-.3 2.49-.59 6.39-.59 13.86v33.11h-3.1L507.71 30.1h-.15v19.5c0 7.39.3 11.12.52 13.61.37 3.9 1.77 5.23 7.09 5.56v2.66h-17.88v-2.66c4.14-.33 5.91-1.58 6.28-5.31.22-2.74.59-6.47.59-13.86V31.92c0-5.64-.07-6.81-1.48-8.71-1.48-2.08-3.03-2.74-6.35-3.07v-2.66h12.71l29.18 38.26h.22v-16.6c0-7.47-.37-11.37-.52-13.78-.44-3.57-2-4.9-7.31-5.23v-2.66h17.8v2.67z"></path></g><g><path d="M593.62 57.4c-1.03 3.98-2.88 10.29-4.14 13.11-1.99.5-8.57 2.16-13.74 2.16-19.13 0-27.33-14.36-27.33-27.47 0-17.26 11.75-28.96 29.03-28.96 5.98 0 11.3 1.74 13.29 2.24.59 4.56 1.11 8.3 1.62 13.2l-2.58.58c-2.22-9.46-7.46-12.62-13.96-12.62-11.3 0-17.43 11.45-17.43 23.9 0 15.27 7.54 25.56 18.02 25.56 6.72 0 11.01-4.48 14.77-12.78l2.45 1.08z"></path><path d="M632.77 57.9c-.44 3.32-1.92 11.04-2.59 13.53h-36.93v-2.66c6.43-.58 7.09-1.16 7.09-8.13V28.35c0-7.3-.67-7.64-6.06-8.13v-2.74h34.05c.07 1.66.44 7.47.74 12.28l-2.51.41c-.67-3.15-1.55-5.56-2.73-7.14s-3.18-2.16-7.76-2.16h-4.28c-2.59 0-2.81.17-2.81 2.82V41.7h5.69c6.35 0 7.09-.5 8.05-6.22h2.51v16.43h-2.51c-.96-5.97-1.7-6.31-8.05-6.31h-5.69v14.77c0 3.98.37 5.89 1.77 6.81 1.33.83 3.92.91 6.94.91 4.51 0 6.95-.58 8.64-2.74 1.4-1.74 2.73-4.48 3.99-7.97l2.45.52zM677.76 72.17c-.59 0-1.48-.08-2.29-.08-7.98-.42-10.93-2.57-14.04-7.88-2.14-3.65-4.43-8.38-6.57-12.62-1.18-2.49-2.51-3.49-5.39-3.49h-1.7v12.53c0 6.8.67 7.55 6.35 8.13v2.66h-21.27v-2.66c5.69-.58 6.5-1.25 6.5-8.13V28.19c0-6.81-.66-7.47-6.21-7.97v-2.74h19.87c6.06 0 9.75.83 12.71 2.99 2.96 2.24 4.95 5.89 4.95 11.04 0 7.22-4.21 11.29-9.31 13.69 1.18 2.57 3.99 8.13 6.21 11.87 2.66 4.57 4.21 7.05 5.84 8.88 1.7 2.16 3.1 3.15 4.8 3.73l-.45 2.49zM650.2 45.03c3.4 0 5.83-.66 7.53-2.24 2.59-2.41 3.69-5.73 3.69-10.04 0-8.88-4.73-12.2-9.46-12.2-1.92 0-3.03.41-3.54.83-.52.5-.67 1.41-.67 3.32v20.33h2.45z"></path></g><g><path class="st0" d="M56.02 5.42c1.96.25 3.27 1.1 3.27 2.81 0 1.21-.63 2.14-1.59 2.7-.86.52-2.17.77-3.57.77h-4.3v-.63c1.3-.13 1.46-.25 1.46-1.78V2.41c0-1.53-.15-1.66-1.35-1.78V0h4.94c1.3 0 2.15.18 2.79.63.63.43 1 1.15 1 2.05 0 1.71-1.42 2.41-2.64 2.66v.08zm-2.12-.25c1.62 0 2.35-.68 2.35-2.18 0-1.62-.91-2.23-1.83-2.23-.37 0-.66.11-.76.22-.12.13-.15.4-.15.77v3.42h.39zm-.38 4.08c0 1.33.34 1.71 1.24 1.69.95-.02 2.01-.76 2.01-2.52 0-1.67-.98-2.54-2.91-2.54h-.34v3.37zM69.3 8.71c-.1.81-.46 2.45-.59 2.99h-8.63v-.63c1.44-.13 1.61-.23 1.61-1.76V2.39c0-1.57-.17-1.66-1.37-1.76V0h7.97l.17 2.7-.61.09c-.17-.63-.39-1.22-.69-1.55-.29-.32-.74-.45-1.69-.45h-.81c-.63 0-.69.04-.69.63v3.82h1.13c1.42 0 1.64-.09 1.88-1.35h.61v3.64h-.61c-.24-1.3-.44-1.37-1.88-1.37h-1.13v3.12c0 .85.07 1.3.41 1.48.3.14.88.18 1.52.18.86 0 1.47-.13 1.88-.58.32-.4.63-.97.95-1.76l.57.11z" fill="#427C98"></path></g><g><path class="st0" d="M78.39 8.66c-.14.76-.49 2.56-.63 3.04h-8.24v-.63c1.47-.13 1.64-.25 1.64-1.76v-6.9c0-1.55-.17-1.66-1.46-1.78V0h5.18v.63c-1.3.13-1.46.23-1.46 1.78v7.02c0 .85.07 1.17.42 1.33.29.13.74.16 1.27.16.71 0 1.32-.13 1.73-.61.32-.38.63-.96.95-1.86l.6.21zM87.39 8.66c-.14.76-.49 2.56-.63 3.04h-8.24v-.63c1.47-.13 1.64-.25 1.64-1.76v-6.9c0-1.55-.17-1.66-1.45-1.78V0h5.18v.63c-1.3.13-1.46.23-1.46 1.78v7.02c0 .85.07 1.17.42 1.33.29.13.74.16 1.27.16.71 0 1.32-.13 1.73-.61.32-.38.63-.96.95-1.86l.59.21zM96.78 8.71c-.1.81-.46 2.45-.59 2.99h-8.63v-.63c1.44-.13 1.61-.23 1.61-1.76V2.39C89.17.82 89 .73 87.8.63V0h7.97l.17 2.7-.61.09c-.17-.63-.39-1.22-.69-1.55-.29-.32-.74-.45-1.69-.45h-.81c-.63 0-.69.04-.69.63v3.82h1.13c1.42 0 1.64-.09 1.88-1.35h.61v3.64h-.61c-.24-1.3-.44-1.37-1.88-1.37h-1.13v3.12c0 .85.07 1.3.41 1.48.3.14.88.18 1.52.18.86 0 1.47-.13 1.88-.58.32-.4.63-.97.95-1.76l.57.11zM108.49.65c-1.08.13-1.4.36-2.08 2.07-.56 1.39-2.1 5.47-3.42 9.18h-.85a447.26 447.26 0 00-3.45-9.49c-.51-1.4-.8-1.66-1.83-1.76V0h5.04v.65c-1.23.2-1.23.4-.98 1.17.49 1.44 1.83 5.08 2.44 6.79h.05c.93-2.63 1.66-4.7 2.13-6.27.37-1.26.37-1.51-1.02-1.69V0h3.96v.65zM108.94 11.7v-.63c1.25-.13 1.4-.25 1.4-1.76v-6.9c0-1.53-.15-1.66-1.4-1.78V0h5.08v.63c-1.25.13-1.4.25-1.4 1.78v6.9c0 1.51.15 1.64 1.4 1.76v.63h-5.08zM123.65 8.66c-.14.76-.49 2.56-.63 3.04h-8.24v-.63c1.47-.13 1.64-.25 1.64-1.76v-6.9c0-1.55-.17-1.66-1.46-1.78V0h5.18v.63c-1.3.13-1.46.23-1.46 1.78v7.02c0 .85.07 1.17.42 1.33.29.13.74.16 1.27.16.71 0 1.32-.13 1.73-.61.32-.38.63-.96.95-1.86l.6.21zM132.63 8.66c-.14.76-.49 2.56-.63 3.04h-8.24v-.63c1.47-.13 1.64-.25 1.64-1.76v-6.9c0-1.55-.17-1.66-1.46-1.78V0h5.18v.63c-1.3.13-1.46.23-1.46 1.78v7.02c0 .85.07 1.17.42 1.33.29.13.74.16 1.27.16.71 0 1.32-.13 1.73-.61.32-.38.63-.96.95-1.86l.6.21zM142.01 8.71c-.1.81-.46 2.45-.59 2.99h-8.63v-.63c1.44-.13 1.61-.23 1.61-1.76V2.39c0-1.57-.17-1.66-1.37-1.76V0H141l.17 2.7-.61.09c-.17-.63-.39-1.22-.69-1.55-.29-.32-.74-.45-1.69-.45h-.81c-.63 0-.69.04-.69.63v3.82h1.13c1.42 0 1.64-.09 1.88-1.35h.61v3.64h-.61c-.24-1.3-.44-1.37-1.88-1.37h-1.13v3.12c0 .85.07 1.3.41 1.48.3.14.88.18 1.52.18.86 0 1.47-.13 1.88-.58.32-.4.63-.97.95-1.76l.57.11z" fill="#427C98"></path></g></svg>