<svg xmlns:xlink="http://www.w3.org/1999/xlink" aria-labelledby="brxLogo" class="header-logo-image logo-brx" version="1.1" viewBox="0 0 563.84 72.66" x="0" xml:space="preserve" xmlns="http://www.w3.org/2000/svg" y="0" width="563.84"  height="72.66" ><text id="brxLogo">Brantford Expositor</text><style>.st0{fill:#427b97}</style><path d="M46.19 25.82c-1.02-4.7-2.03-7.61-3.3-9.21-1.52-1.88-3.38-2.44-8.88-2.44h-4.57v45.02c0 7.8.76 8.55 8.46 9.21v3.01H11.5V68.4c7.28-.66 8.12-1.41 8.12-9.21V14.17h-3.81c-6.94 0-8.54.85-9.73 2.63-1.27 1.6-2.2 4.61-3.21 9.12H0c.34-6.39.85-13.06 1.02-17.95h1.95c1.27 2.16 2.37 2.35 4.74 2.35h33.84c2.2 0 3.21-.56 4.65-2.35h1.95c0 4.04.42 11.84.85 17.67l-2.81.18zM104.69 20.2c-5.9.58-6.42 1-6.42 8.05V60.7c0 6.97.6 7.47 6.42 8.05v2.66H82.87v-2.66c6.05-.58 6.65-1.08 6.65-8.05V44.85H67.33V60.7c0 6.97.6 7.47 6.35 8.05v2.66H52.32v-2.66c5.68-.58 6.35-1.08 6.35-8.05V28.25c0-7.05-.67-7.55-6.57-8.05v-2.74h21.37v2.74c-5.53.5-6.13 1-6.13 8.05v12.61h22.19V28.25c0-7.05-.52-7.47-6.2-8.05v-2.74h21.37v2.74zM148.01 57.88c-.45 3.32-1.94 11.04-2.61 13.53h-37.35v-2.66c6.5-.58 7.17-1.16 7.17-8.13V28.34c0-7.3-.67-7.64-6.13-8.13v-2.74h34.44c.08 1.66.45 7.47.75 12.28l-2.54.42c-.67-3.15-1.57-5.56-2.76-7.14-1.2-1.58-3.21-2.16-7.84-2.16h-4.33c-2.61 0-2.84.17-2.84 2.82V41.7h5.75c6.42 0 7.17-.5 8.14-6.22h2.54v16.43h-2.54c-.97-5.98-1.72-6.31-8.14-6.31h-5.75v14.77c0 3.98.37 5.89 1.79 6.81 1.34.83 3.96.91 7.02.91 4.56 0 7.02-.58 8.74-2.74 1.42-1.74 2.76-4.48 4.03-7.97l2.46.5zM210.04 56.09c-.51 3.76-2.2 12.5-2.96 15.32h-42.3V68.4c7.36-.66 8.12-1.32 8.12-9.21V22.63c0-8.27-.76-8.65-6.94-9.21v-3.1h39c.08 1.88.51 8.46.85 13.91l-2.88.47c-.76-3.57-1.78-6.3-3.13-8.08-1.35-1.79-3.64-2.44-8.88-2.44h-4.91c-2.96 0-3.21.19-3.21 3.2v20.4h6.51c7.28 0 8.12-.56 9.22-7.05h2.88v18.61h-2.88c-1.1-6.77-1.95-7.14-9.22-7.14h-6.51v16.73c0 4.51.42 6.67 2.03 7.71 1.52.94 4.48 1.03 7.95 1.03 5.16 0 7.95-.66 9.9-3.1 1.61-1.97 3.13-5.08 4.57-9.02l2.79.54zM238.15 71.41v-2.66c4.86-.91 4.78-1.91 3.44-4.65-1.12-2.16-3.44-6.39-8.59-15.85-3.59 5.98-6.65 11.45-8.52 15.35-1.79 3.57-1.27 4.23 3.73 5.15v2.66h-18.15v-2.66c4.18-.5 6.72-1.74 8.89-4.65 2.39-3.32 7.1-10.29 12.18-18.92-3.66-6.72-6.95-12.61-10.38-18.67-2.54-4.48-4.18-5.73-9.34-6.31v-2.74h21.07v2.74c-4.33.83-4.26 1.74-3.29 3.73 1.72 3.4 4.26 7.88 7.4 13.44 2.62-4.07 5.08-8.47 6.95-12.28 1.57-3.24 1.34-4.07-3.59-4.9v-2.74h17.71v2.74c-5.08.66-6.87 1.58-10.01 5.89-2.24 3.07-5.15 7.55-9.26 14.19 4.26 7.47 8.07 14.36 12.18 21.25 3.21 5.56 4.86 6.64 10.01 7.22v2.66h-22.43zM281.92 17.47c5.68 0 9.94.91 12.92 3.32 3.29 2.57 5.23 6.64 5.23 12.03 0 11.04-7.32 16.1-15.02 17.18-1.12.17-2.32.17-3.14.08l-5.3-1.41V60.7c0 6.97.67 7.47 7.17 8.05v2.66h-22.11v-2.66c5.75-.58 6.43-1.16 6.43-8.13V28.34c0-7.14-.67-7.64-5.98-8.13v-2.74h19.8zm-5.3 28.13c.97.41 2.69.83 4.56.83 3.51 0 9.49-2.41 9.49-13.36 0-9.21-4.93-12.53-10.01-12.53-1.64 0-2.84.42-3.29.83-.52.5-.75 1.41-.75 3.07V45.6zM354.76 43.86c0 17.84-11.51 28.8-25.48 28.8-14.42 0-24.88-12.03-24.88-27.97 0-14.44 9.26-28.47 25.77-28.47 13.31 0 24.59 11.12 24.59 27.64zm-40.27-1c0 14.69 6.35 26.47 16.29 26.47 7.55 0 13.9-7.72 13.9-23.24 0-16.85-6.8-26.56-15.91-26.56-7.78.01-14.28 8.56-14.28 23.33zM386.2 30.66c-1.49-5.23-4.03-11.2-10.23-11.2-4.71 0-7.62 3.82-7.62 8.46 0 5.15 3.06 7.88 9.41 11.37 7.1 3.98 13.07 8.3 13.07 16.93 0 9.21-7.02 16.43-17.63 16.43-2.84 0-5.38-.5-7.4-1.25-2.02-.66-3.36-1.25-4.26-1.74-.67-1.99-1.64-8.96-2.17-13.61l2.54-.83c1.34 5.23 5.38 14.19 12.7 14.19 5.01 0 8.07-3.65 8.07-9.21 0-5.31-3.59-8.38-9.19-11.62-6.65-3.82-12.77-8.22-12.77-16.68 0-8.63 6.2-15.69 16.44-15.69 4.33 0 8.14 1.41 10.08 2.07.3 3.07.75 6.56 1.34 11.79l-2.38.59zM393.52 71.41v-2.66c5.75-.58 6.42-1.08 6.42-8.13V28.34c0-7.05-.67-7.64-6.42-8.13v-2.74h21.44v2.74c-5.75.5-6.35 1.08-6.35 8.13v32.28c0 6.97.6 7.55 6.35 8.13v2.66h-21.44zM459.34 31.16c-.9-4.15-1.79-6.72-2.91-8.13-1.35-1.66-2.99-2.16-7.84-2.16h-4.03v39.75c0 6.89.67 7.55 7.47 8.13v2.66h-23.31v-2.66c6.42-.58 7.17-1.25 7.17-8.13V20.87h-3.36c-6.13 0-7.55.75-8.59 2.32-1.12 1.41-1.94 4.07-2.84 8.05h-2.54c.3-5.64.75-11.54.9-15.85h1.72c1.12 1.91 2.09 2.07 4.18 2.07h29.88c1.94 0 2.84-.5 4.11-2.07h1.72c0 3.57.37 10.46.75 15.6l-2.48.17z"></path><g><path d="M514.39 43.86c0 17.84-11.51 28.8-25.48 28.8-14.42 0-24.88-12.03-24.88-27.97 0-14.44 9.26-28.47 25.77-28.47 13.31 0 24.59 11.12 24.59 27.64zm-40.27-1c0 14.69 6.35 26.47 16.29 26.47 7.55 0 13.9-7.72 13.9-23.24 0-16.85-6.8-26.56-15.91-26.56-7.78.01-14.28 8.56-14.28 23.33zM563.39 72.16c-.6 0-1.49-.08-2.32-.08-8.07-.42-11.06-2.57-14.2-7.88-2.17-3.65-4.48-8.38-6.65-12.62-1.2-2.49-2.54-3.49-5.45-3.49h-1.72v12.53c0 6.81.67 7.55 6.42 8.13v2.66h-21.52v-2.66c5.75-.58 6.57-1.25 6.57-8.13V28.17c0-6.81-.67-7.47-6.28-7.97v-2.74h20.1c6.12 0 9.86.83 12.85 2.99 2.99 2.24 5 5.89 5 11.04 0 7.22-4.26 11.29-9.41 13.69 1.2 2.57 4.03 8.13 6.28 11.87 2.69 4.56 4.26 7.05 5.9 8.88 1.72 2.16 3.14 3.15 4.86 3.73l-.43 2.5zm-27.86-27.14c3.44 0 5.9-.66 7.62-2.24 2.61-2.41 3.73-5.73 3.73-10.04 0-8.88-4.78-12.2-9.56-12.2-1.94 0-3.06.42-3.59.83-.52.5-.67 1.41-.67 3.32v20.33h2.47z"></path></g><g><path class="st0" d="M59.72 6.26c2 .27 3.33 1.17 3.33 2.99 0 1.29-.64 2.28-1.62 2.88-.88.56-2.21.83-3.65.83H53.4v-.67c1.33-.13 1.49-.27 1.49-1.9V3.05c0-1.63-.16-1.77-1.38-1.9V.48h5.04c1.33 0 2.19.19 2.85.67.64.46 1.02 1.23 1.02 2.19 0 1.82-1.45 2.57-2.7 2.84v.08zm-2.16-.27c1.66 0 2.4-.73 2.4-2.32 0-1.73-.93-2.38-1.87-2.38-.38 0-.67.12-.78.23-.12.13-.16.42-.16.83V6h.41zm-.39 4.36c0 1.42.34 1.82 1.26 1.8.97-.02 2.06-.81 2.06-2.69 0-1.79-1-2.71-2.97-2.71h-.34v3.6zM74.54 13.13c-.1 0-.31-.02-.52-.02-2.18-.11-2.85-.65-3.54-1.86-.45-.79-.92-1.82-1.42-2.82-.28-.59-.59-.83-1.14-.84h-.32v2.8c0 1.57.17 1.77 1.47 1.9v.67h-5.22v-.67c1.3-.13 1.49-.33 1.49-1.9V3.01c0-1.54-.16-1.73-1.42-1.86V.48h4.85c1.5 0 2.38.19 3.08.73.69.5 1.17 1.36 1.17 2.55 0 1.69-1 2.59-2.16 3.13.24.56.9 1.84 1.4 2.73.62 1.06.98 1.67 1.33 2.07.38.44.66.67 1.05.83l-.1.61zm-6.49-6.3c.73 0 1.31-.13 1.69-.52.59-.54.83-1.31.83-2.28 0-2.03-1.07-2.78-2.04-2.78-.43 0-.67.08-.78.19-.12.12-.16.31-.16.71v4.68h.46z" fill="#427B97"></path></g><g><path class="st0" d="M81.18 12.96v-.67c1.02-.17 1.11-.4.83-1.25-.17-.58-.43-1.38-.69-2.17H78c-.19.6-.42 1.29-.62 2.05-.24.92-.21 1.19 1.05 1.36v.67h-3.87l.02-.67c1.14-.15 1.35-.36 1.92-1.98L80.04.43l.88-.25c1.11 3.36 2.18 6.7 3.3 10 .59 1.69.81 1.94 1.9 2.09v.67h-4.94zM79.71 3.7h-.05c-.48 1.4-.92 2.78-1.36 4.15h2.69L79.71 3.7zM98.46 1.15c-.93.06-1.3.31-1.38 1.19-.05.6-.16 1.5-.16 3.19v7.62h-.83L88.9 3.59h-.05v4.32c0 1.69.09 2.53.14 3.11.09.84.38 1.21 1.66 1.27v.67h-4.23v-.67c.97-.08 1.36-.38 1.43-1.21.07-.63.17-1.48.17-3.17V3.9c0-1.25-.04-1.61-.36-2.05-.31-.46-.71-.61-1.43-.69V.48h3.2l6.6 8.43h.07V5.53c0-1.69-.1-2.59-.14-3.15-.09-.83-.45-1.15-1.71-1.23V.48h4.21v.67zM108.25 3.76c-.21-1-.45-1.63-.76-1.98-.29-.35-.74-.46-1.75-.46h-.79v9.08c0 1.63.17 1.75 1.69 1.88v.67h-5.63v-.67c1.45-.13 1.62-.25 1.62-1.88V1.32h-.59c-1.42 0-1.73.21-1.99.52-.28.33-.5.98-.73 1.94h-.62c.07-1.4.17-2.8.21-3.78h.41c.28.44.5.48.98.48h6.94c.47 0 .71-.12 1-.48h.41c.02.81.1 2.5.19 3.72l-.59.04zM117.25 3.53c-.19-.73-.4-1.29-.69-1.65-.36-.42-.83-.56-1.8-.56h-.86c-.6 0-.67.04-.67.67v4.24h1.4c1.55 0 1.71-.17 1.92-1.4h.62v3.82h-.62c-.19-1.31-.36-1.46-1.92-1.46h-1.4v3.03c0 1.8.14 1.92 1.64 2.05v.67h-5.39v-.67c1.26-.13 1.43-.25 1.43-2.05V3.15c0-1.73-.17-1.86-1.43-1.98V.48h8.19c.02.33.1 1.8.19 2.92l-.61.13zM130.38 6.58c0 4.15-2.68 6.66-5.92 6.66-3.46 0-5.86-2.82-5.86-6.51 0-3.3 2.11-6.55 6.06-6.55 3.15.01 5.72 2.6 5.72 6.4zm-9.14-.21c0 3.28 1.31 6.07 3.52 6.07 1.64 0 2.97-1.79 2.97-5.32 0-3.82-1.4-6.12-3.38-6.12-1.74 0-3.11 2.05-3.11 5.37z" fill="#427B97"></path></g><g><path class="st0" d="M141.59 13.13c-.1 0-.31-.02-.52-.02-2.18-.11-2.85-.65-3.54-1.86-.45-.79-.92-1.82-1.42-2.82-.28-.59-.59-.83-1.14-.84h-.33v2.8c0 1.57.17 1.77 1.47 1.9v.67h-5.22v-.67c1.29-.13 1.49-.33 1.49-1.9V3.01c0-1.54-.16-1.73-1.42-1.86V.48h4.85c1.5 0 2.38.19 3.07.73.69.5 1.17 1.36 1.17 2.55 0 1.69-1 2.59-2.16 3.13.24.56.9 1.84 1.4 2.73.62 1.06.98 1.67 1.33 2.07.38.44.66.67 1.05.83l-.08.61zm-6.49-6.3c.73 0 1.31-.13 1.69-.52.59-.54.83-1.31.83-2.28 0-2.03-1.07-2.78-2.04-2.78-.43 0-.67.08-.78.19-.12.12-.16.31-.16.71v4.68h.46zM147.09.48c2.16 0 3.83.48 4.96 1.67.85.9 1.52 2.27 1.52 4.07 0 2.34-.85 4.01-2.16 5.14-1.28 1.08-3.08 1.59-5.23 1.59h-4.44v-.67c1.36-.13 1.54-.27 1.54-1.9V3.05c0-1.65-.16-1.77-1.38-1.9V.48h5.19zm-1.51 9.79c0 1.38.26 1.86 1.47 1.86 2.31 0 3.9-2.11 3.9-5.53 0-1.82-.5-3.28-1.28-4.15-.73-.79-1.64-1.19-2.82-1.19-.62 0-.98.15-1.09.27-.16.17-.19.5-.19 1.06v7.68z" fill="#427B97"></path></g></svg>