<svg xmlns:xlink="http://www.w3.org/1999/xlink" aria-labelledby="csfLogo" class="header-logo-image logo-csf" role="img" viewBox="0 0 741.4 75.23" x="0" xmlns="http://www.w3.org/2000/svg" y="0" width="741.4"  height="75.23" > <text id="csfLogo">Cornwall Standard-Freeholder</text><style>.st0{fill:#277f9c}.st1{fill:#ed1c24}</style><path d="M27.67 27.67c-1.54-5.92-4.16-12.69-10.56-12.69-4.86 0-7.86 4.32-7.86 9.59 0 5.83 3.16 8.93 9.71 12.88 7.32 4.51 13.49 9.4 13.49 19.17 0 10.43-7.25 18.61-18.19 18.61-2.93 0-5.55-.56-7.63-1.41-2.08-.75-3.47-1.41-4.39-1.97C1.54 69.59.54 61.7 0 56.43l2.62-.94c1.39 5.92 5.55 16.07 13.1 16.07 5.16 0 8.33-4.14 8.33-10.43 0-6.02-3.7-9.49-9.48-13.16-6.86-4.32-13.18-9.3-13.18-18.89 0-9.78 6.4-17.76 16.96-17.76 4.47 0 8.4 1.6 10.41 2.35.31 3.48.77 7.43 1.39 13.35l-2.48.65zM69.39 33.57c-.82-4.15-1.63-6.72-2.65-8.13-1.23-1.66-2.72-2.16-7.15-2.16h-3.67v39.75c0 6.89.61 7.55 6.81 8.13v2.66H41.49v-2.66c5.85-.58 6.53-1.24 6.53-8.13V23.28h-3.06c-5.58 0-6.87.75-7.83 2.32-1.02 1.41-1.77 4.07-2.59 8.05h-2.31c.27-5.64.68-11.54.82-15.85h1.57c1.02 1.91 1.91 2.07 3.81 2.07h27.22c1.77 0 2.59-.5 3.74-2.07h1.57c0 3.57.34 10.46.68 15.6l-2.25.17zM91.64 73.82v-2.66c4.08-.75 4.49-1.66 3.54-5.15-.75-2.74-1.91-6.64-3.13-10.62H78.51c-.88 3.07-1.84 6.22-2.65 9.54-1.16 4.48-.82 5.48 4.15 6.22v2.66H64.97v-2.66c4.42-.75 5.31-1.49 7.62-8.63l13.95-42.91 2.99-1c4.36 14.44 8.64 29.38 13.07 43.65 2.25 7.3 3.13 8.22 7.49 8.88v2.66H91.64zm-6.12-41.58h-.2c-1.97 6.39-3.81 12.86-5.72 19.09h11.3l-5.38-19.09z"></path><path d="M156.3 22.53c-3.68.25-5.17 1.41-5.51 5.15-.27 2.49-.54 6.39-.54 13.86v33.11h-2.86L118.8 32.49h-.14v19.5c0 7.39.27 11.12.48 13.61.34 3.9 1.63 5.23 6.53 5.56v2.66H109.2v-2.66c3.81-.33 5.44-1.58 5.78-5.31.2-2.74.54-6.47.54-13.86V34.32c0-5.64-.07-6.81-1.36-8.71-1.36-2.07-2.79-2.74-5.85-3.07v-2.66h11.71l26.88 38.26h.2v-16.6c0-7.47-.34-11.37-.48-13.78-.41-3.57-1.84-4.9-6.74-5.23v-2.66h16.4v2.66z"></path><path d="M176.17 19.88c8.57 0 15.11 2.16 19.4 7.14 3.4 3.9 5.92 9.88 5.92 17.76 0 10.04-3.27 17.35-8.44 22.16-5.04 4.73-12.05 6.89-20.48 6.89h-17.01v-2.66c5.58-.58 6.19-1.08 6.19-8.13V30.75c0-7.14-.61-7.64-5.58-8.13v-2.74h20zm-6.46 42.57c0 6.06 1.5 7.97 6.26 7.97 10.41 0 16.6-9.96 16.6-24.15 0-8.22-2.25-14.86-6.19-18.67-2.93-3.07-6.6-4.56-11.23-4.56-2.65 0-4.15.58-4.7 1.16-.54.66-.75 1.91-.75 4.65v33.6zM225.04 73.82v-2.66c4.08-.75 4.49-1.66 3.54-5.15-.75-2.74-1.91-6.64-3.13-10.62h-13.54c-.88 3.07-1.84 6.22-2.65 9.54-1.16 4.48-.82 5.48 4.15 6.22v2.66h-15.04v-2.66c4.42-.75 5.31-1.49 7.62-8.63l13.95-42.91 2.99-1c4.36 14.44 8.64 29.38 13.07 43.65 2.25 7.3 3.13 8.22 7.49 8.88v2.66h-18.45zm-6.13-41.58h-.2c-1.97 6.39-3.81 12.86-5.72 19.09h11.3l-5.38-19.09z"></path><path d="M284.32 74.57c-.54 0-1.36-.08-2.11-.08-7.35-.41-10.07-2.57-12.93-7.88-1.97-3.65-4.08-8.38-6.06-12.61-1.09-2.49-2.31-3.49-4.97-3.49h-1.57v12.53c0 6.81.61 7.55 5.85 8.13v2.66h-19.6v-2.66c5.24-.58 5.99-1.24 5.99-8.13V30.58c0-6.81-.61-7.47-5.72-7.97v-2.74h18.31c5.58 0 8.98.83 11.71 2.99 2.72 2.24 4.56 5.89 4.56 11.04 0 7.22-3.88 11.29-8.57 13.69 1.09 2.57 3.68 8.13 5.72 11.87 2.45 4.57 3.88 7.05 5.38 8.88 1.57 2.16 2.86 3.15 4.42 3.73l-.41 2.5zm-25.39-27.14c3.13 0 5.38-.66 6.94-2.24 2.38-2.41 3.4-5.73 3.4-10.04 0-8.88-4.36-12.2-8.71-12.2-1.77 0-2.79.42-3.27.83-.48.5-.61 1.41-.61 3.32v20.33h2.25z"></path><path d="M303.04 19.88c8.57 0 15.11 2.16 19.4 7.14 3.4 3.9 5.92 9.88 5.92 17.76 0 10.04-3.27 17.35-8.44 22.16-5.04 4.73-12.05 6.89-20.48 6.89h-17.01v-2.66c5.58-.58 6.19-1.08 6.19-8.13V30.75c0-7.14-.61-7.64-5.58-8.13v-2.74h20zm-6.47 42.57c0 6.06 1.5 7.97 6.26 7.97 10.41 0 16.61-9.96 16.61-24.15 0-8.22-2.25-14.86-6.19-18.67-2.93-3.07-6.6-4.56-11.23-4.56-2.65 0-4.15.58-4.7 1.16-.54.66-.75 1.91-.75 4.65v33.6zM346.66 57.64H330.4l.95-5.48h16.33l-1.02 5.48z"></path><g><path d="M378.12 27.39c-.77-3.67-1.54-6.02-2.78-7.9-1.46-2.26-3.39-2.91-8.33-2.91h-4.55c-2.54 0-2.85.19-2.85 3.2v21.24h6.94c6.86 0 7.48-.85 8.4-6.86h2.54v18.52h-2.54c-.85-6.39-1.54-7.33-8.4-7.33h-6.94v15.7c0 8.55.69 9.12 7.48 9.78v3.01h-22.97v-3.01c5.86-.66 6.55-1.22 6.55-9.78V25.32c0-8.37-.69-8.93-6.4-9.49v-3.1h35.54c.08 2.26.46 9.02.85 14.19l-2.54.47z"></path></g><g><path d="M422.2 74.57c-.54 0-1.36-.08-2.11-.08-7.35-.41-10.07-2.57-12.93-7.88-1.97-3.65-4.08-8.38-6.06-12.61-1.09-2.49-2.31-3.49-4.97-3.49h-1.56v12.53c0 6.81.61 7.55 5.85 8.13v2.66h-19.6v-2.66c5.24-.58 5.99-1.24 5.99-8.13V30.58c0-6.81-.61-7.47-5.72-7.97v-2.74h18.31c5.58 0 8.98.83 11.71 2.99 2.72 2.24 4.56 5.89 4.56 11.04 0 7.22-3.88 11.29-8.58 13.69 1.09 2.57 3.67 8.13 5.72 11.87 2.45 4.57 3.88 7.05 5.38 8.88 1.57 2.16 2.86 3.15 4.42 3.73l-.41 2.5zm-25.38-27.14c3.13 0 5.38-.66 6.94-2.24 2.38-2.41 3.4-5.73 3.4-10.04 0-8.88-4.36-12.2-8.71-12.2-1.77 0-2.79.42-3.27.83-.48.5-.61 1.41-.61 3.32v20.33h2.25z"></path><path d="M456.37 60.29c-.41 3.32-1.77 11.04-2.38 13.53h-34.03v-2.66c5.92-.58 6.53-1.16 6.53-8.13V30.75c0-7.3-.61-7.64-5.58-8.13v-2.74h31.37c.07 1.66.41 7.47.68 12.28l-2.31.42c-.61-3.15-1.43-5.56-2.52-7.14s-2.93-2.16-7.15-2.16h-3.95c-2.38 0-2.59.17-2.59 2.82v18.01h5.24c5.85 0 6.53-.5 7.42-6.22h2.31v16.43h-2.31c-.88-5.98-1.57-6.31-7.42-6.31h-5.24v14.77c0 3.98.34 5.89 1.63 6.81 1.23.83 3.61.91 6.4.91 4.15 0 6.4-.58 7.96-2.74 1.29-1.74 2.52-4.48 3.67-7.97l2.27.5z"></path><path d="M491.42 60.29c-.41 3.32-1.77 11.04-2.38 13.53h-34.03v-2.66c5.92-.58 6.53-1.16 6.53-8.13V30.75c0-7.3-.61-7.64-5.58-8.13v-2.74h31.37c.07 1.66.41 7.47.68 12.28l-2.31.42c-.61-3.15-1.43-5.56-2.52-7.14s-2.93-2.16-7.15-2.16h-3.95c-2.38 0-2.59.17-2.59 2.82v18.01h5.24c5.85 0 6.53-.5 7.42-6.22h2.31v16.43h-2.31c-.88-5.98-1.57-6.31-7.42-6.31h-5.24v14.77c0 3.98.34 5.89 1.63 6.81 1.22.83 3.61.91 6.4.91 4.15 0 6.4-.58 7.96-2.74 1.29-1.74 2.52-4.48 3.67-7.97l2.27.5z"></path><path d="M538.58 22.61c-5.38.58-5.85 1-5.85 8.05v32.45c0 6.97.54 7.47 5.85 8.05v2.66h-19.87v-2.66c5.51-.58 6.06-1.08 6.06-8.05V47.26h-20.21v15.85c0 6.97.54 7.47 5.78 8.05v2.66h-19.46v-2.66c5.17-.58 5.78-1.08 5.78-8.05V30.66c0-7.05-.61-7.55-5.99-8.05v-2.74h19.46v2.74c-5.04.5-5.58 1-5.58 8.05v12.62h20.21V30.66c0-7.05-.48-7.47-5.65-8.05v-2.74h19.46v2.74zM584.93 46.27c0 17.84-10.48 28.8-23.21 28.8-13.13 0-22.66-12.03-22.66-27.97 0-14.44 8.44-28.47 23.48-28.47 12.12 0 22.39 11.12 22.39 27.64zm-36.68-1c0 14.69 5.79 26.47 14.84 26.47 6.87 0 12.66-7.72 12.66-23.24 0-16.85-6.19-26.56-14.5-26.56-7.08.01-13 8.56-13 23.33zM619.64 60.13c-.54 3.24-1.91 11.37-2.52 13.69h-32.26v-2.66c5.78-.58 6.46-1.16 6.46-8.22V30.66c0-7.05-.61-7.55-5.92-8.05v-2.74h19.67v2.74c-5.24.5-5.85 1-5.85 8.05v32.62c0 4.07.27 5.64 1.63 6.39 1.22.66 3.2.83 5.58.83 3.27 0 5.65-.5 7.21-2.74 1.29-1.66 2.52-4.32 3.67-8.3l2.33.67z"></path><path d="M638.7 19.88c8.58 0 15.11 2.16 19.4 7.14 3.4 3.9 5.92 9.88 5.92 17.76 0 10.04-3.27 17.35-8.44 22.16-5.04 4.73-12.05 6.89-20.48 6.89h-17.01v-2.66c5.58-.58 6.19-1.08 6.19-8.13V30.75c0-7.14-.61-7.64-5.58-8.13v-2.74h20zm-6.47 42.57c0 6.06 1.5 7.97 6.26 7.97 10.41 0 16.61-9.96 16.61-24.15 0-8.22-2.25-14.86-6.19-18.67-2.93-3.07-6.6-4.56-11.23-4.56-2.65 0-4.15.58-4.7 1.16-.55.66-.75 1.91-.75 4.65v33.6zM700.36 60.29c-.41 3.32-1.77 11.04-2.38 13.53h-34.03v-2.66c5.92-.58 6.53-1.16 6.53-8.13V30.75c0-7.3-.61-7.64-5.58-8.13v-2.74h31.37c.07 1.66.41 7.47.68 12.28l-2.31.42c-.61-3.15-1.43-5.56-2.52-7.14s-2.93-2.16-7.15-2.16h-3.95c-2.38 0-2.59.17-2.59 2.82v18.01h5.24c5.85 0 6.53-.5 7.42-6.22h2.31v16.43h-2.31c-.88-5.98-1.57-6.31-7.42-6.31h-5.24v14.77c0 3.98.34 5.89 1.63 6.81 1.23.83 3.61.91 6.4.91 4.15 0 6.4-.58 7.96-2.74 1.29-1.74 2.52-4.48 3.67-7.97l2.27.5z"></path><path d="M740.99 74.57c-.54 0-1.36-.08-2.11-.08-7.35-.41-10.07-2.57-12.93-7.88-1.97-3.65-4.08-8.38-6.06-12.61-1.09-2.49-2.31-3.49-4.97-3.49h-1.56v12.53c0 6.81.61 7.55 5.85 8.13v2.66h-19.6v-2.66c5.24-.58 5.99-1.24 5.99-8.13V30.58c0-6.81-.61-7.47-5.72-7.97v-2.74h18.31c5.58 0 8.98.83 11.71 2.99 2.72 2.24 4.56 5.89 4.56 11.04 0 7.22-3.88 11.29-8.58 13.69 1.09 2.57 3.67 8.13 5.72 11.87 2.45 4.57 3.88 7.05 5.38 8.88 1.57 2.16 2.86 3.15 4.42 3.73l-.41 2.5zm-25.38-27.14c3.13 0 5.38-.66 6.94-2.24 2.38-2.41 3.4-5.73 3.4-10.04 0-8.88-4.36-12.2-8.71-12.2-1.77 0-2.79.42-3.27.83-.48.5-.61 1.41-.61 3.32v20.33h2.25z"></path></g><g><path class="st0" d="M69.05 9.5c-.23.92-.7 2.38-1.01 3.05-.47.11-2.13.5-3.36.5-4.8 0-6.81-3.32-6.81-6.37 0-3.93 2.85-6.68 7.17-6.68 1.46 0 2.8.4 3.29.52.16 1.06.29 1.94.42 3.15l-.68.13c-.6-2.28-1.99-2.96-3.38-2.96-2.62 0-4.06 2.63-4.06 5.45 0 3.53 1.79 5.85 4.24 5.85 1.5 0 2.62-1.02 3.54-2.96l.64.32zM82.58 6.39c0 4.15-2.8 6.66-6.19 6.66-3.61 0-6.12-2.82-6.12-6.51 0-3.3 2.2-6.55 6.34-6.55 3.28.01 5.97 2.6 5.97 6.4zm-9.55-.21c0 3.28 1.37 6.07 3.68 6.07 1.71 0 3.1-1.79 3.1-5.32 0-3.82-1.46-6.12-3.54-6.12-1.81 0-3.24 2.05-3.24 5.37zM94.92 12.94c-.11 0-.33-.02-.54-.02-2.27-.11-2.98-.65-3.7-1.86-.47-.79-.96-1.82-1.48-2.82-.29-.59-.61-.83-1.19-.84h-.34v2.8c0 1.57.18 1.77 1.53 1.9v.67h-5.45v-.67c1.35-.13 1.55-.33 1.55-1.9V2.82c0-1.54-.16-1.73-1.48-1.86V.29h5.07c1.57 0 2.49.19 3.21.73.72.5 1.23 1.36 1.23 2.55 0 1.69-1.05 2.59-2.26 3.13.25.56.94 1.84 1.46 2.73.65 1.06 1.03 1.67 1.39 2.07.4.44.69.67 1.1.83l-.1.61zm-6.78-6.3c.76 0 1.37-.13 1.77-.52.61-.54.87-1.31.87-2.28 0-2.03-1.12-2.78-2.13-2.78-.45 0-.7.08-.81.19-.13.12-.16.31-.16.71v4.68h.46zM108.08.96c-.97.06-1.35.31-1.44 1.19-.05.6-.16 1.5-.16 3.19v7.62h-.87L98.1 3.4h-.05v4.32c0 1.69.09 2.53.14 3.11.09.84.4 1.21 1.73 1.27v.67H95.5v-.67c1.01-.08 1.43-.38 1.5-1.21.07-.63.18-1.48.18-3.17V3.7c0-1.25-.04-1.61-.38-2.05-.33-.46-.74-.61-1.5-.69V.29h3.34l6.9 8.43h.07V5.34c0-1.69-.11-2.59-.14-3.15-.09-.83-.47-1.15-1.79-1.23V.29h4.4v.67zM125.85.96c-1.19.21-1.5.46-1.99 2.07-.42 1.23-1.48 4.57-3 9.94h-.94c-.97-2.86-1.93-5.61-2.94-8.52h-.04c-.94 2.9-1.86 5.76-2.71 8.52h-.96c-.97-3.46-1.88-6.68-2.89-10.08-.43-1.5-.74-1.77-1.8-1.94V.29h5.34v.67c-1.37.17-1.39.44-1.14 1.42.6 2.25 1.21 4.47 1.84 6.6h.04c.85-2.73 1.75-5.62 2.6-8.58h.87c1.01 2.92 2.04 5.85 3.03 8.66h.04c.7-2.36 1.44-5.36 1.7-6.47.25-1.15.16-1.48-1.3-1.63V.29h4.24v.67zM130.97 12.77v-.67c1.07-.17 1.16-.4.87-1.25-.18-.58-.45-1.38-.72-2.17h-3.47c-.2.6-.43 1.29-.65 2.05-.25.92-.22 1.19 1.1 1.36v.67h-4.04l.02-.67c1.19-.15 1.41-.36 2-1.98l3.7-9.87.92-.24c1.16 3.36 2.27 6.7 3.45 10 .61 1.69.85 1.94 1.99 2.09v.67h-5.17zm-1.53-9.26h-.05c-.51 1.4-.96 2.78-1.43 4.15h2.82l-1.34-4.15zM146.37 9.52c-.14.81-.52 2.73-.67 3.24h-8.79v-.67c1.57-.13 1.75-.27 1.75-1.88V2.86c0-1.65-.18-1.77-1.55-1.9V.29h5.52v.67c-1.39.13-1.55.25-1.55 1.9v7.49c0 .9.07 1.25.45 1.42.31.13.79.17 1.35.17.76 0 1.41-.13 1.84-.65.34-.4.67-1.02 1.01-1.98l.64.21zM156.31 9.52c-.14.81-.52 2.73-.67 3.24h-8.79v-.67c1.57-.13 1.75-.27 1.75-1.88V2.86c0-1.65-.18-1.77-1.55-1.9V.29h5.52v.67c-1.39.13-1.55.25-1.55 1.9v7.49c0 .9.07 1.25.45 1.42.31.13.79.17 1.35.17.76 0 1.41-.13 1.84-.65.34-.4.67-1.02 1.01-1.98l.64.21z" fill="#277F9C"></path></g><path class="st1" d="M43.58 12.86l.14-.96-3.57.44.32-1.32-3.61-3 .9-.49-.59-2.45 2.19.44.39-1.11 2.06 1.95-.56-4.18 1.34.55 1.4-2.56 1.49 2.62 1.3-.65-.58 4.24 2.05-1.99.4 1.17 2.2-.5-.69 2.54.92.44-3.75 3.02.52 1.22-3.48-.42.13 1zM32.96.17h2.93v12.56h-2.93zM52.46.17h2.93v12.56h-2.93z" fill="#ED1C24"></path></svg>