<svg xmlns:xlink="http://www.w3.org/1999/xlink" aria-labelledby="cnrLogo" class="header-logo-image logo-cnr header-logo-image--size-md" role="img" viewBox="0 0 415.59 116.29" x="0" xml:space="preserve" xmlns="http://www.w3.org/2000/svg" y="0" width="415.59"  height="116.29" > <text id="cnrLogo">Clinton News Record</text> <style>.st0{fill:#004b8c}</style><path d="M.04 11.46C.04 4.05 2.64 0 6.56 0c3.41 0 5.01 2.91 5.65 7.02l-1.93.42c-.57-3.36-1.6-5.13-3.78-5.13-2.81 0-4.39 3.42-4.39 9.12 0 6 1.58 9.33 4.44 9.33 2.15 0 3.31-1.68 3.95-5.4l1.9.39c-.72 4.26-2.49 7.26-5.88 7.26-3.98 0-6.48-3.93-6.48-11.55zM15.08.42h2v22.2h-2V.42zm5.43.6h2.02v2.61h-2.02V1.02zm0 5.76h2v15.84h-2V6.78zm5.31 0h2v2.19c.86-1.17 2.42-2.52 4.12-2.52 2.1 0 3.21 1.53 3.21 4.41v11.76h-1.98V11.37c0-1.89-.52-2.79-1.85-2.79-1.26 0-2.62 1.17-3.51 2.28v11.76h-2V6.78zM39 19.05V8.79h-1.93V6.78H39V1.14h1.98v5.64h2.86v2.01h-2.86v9.72c0 1.62.35 2.34 1.73 2.34.4 0 .86-.09 1.11-.21v1.95c-.3.12-.99.21-1.56.21-2.37 0-3.26-1.02-3.26-3.75zm6.61-4.35c0-5.46 2.25-8.25 5.16-8.25 2.89 0 5.13 2.79 5.13 8.25 0 5.43-2.25 8.25-5.13 8.25s-5.16-2.82-5.16-8.25zm8.3 0c0-3.42-.96-6.15-3.14-6.15-2.1 0-3.16 2.46-3.16 6.15 0 3.45.91 6.21 3.16 6.21 2.08 0 3.14-2.46 3.14-6.21zm4.54-7.92h2v2.19c.86-1.17 2.42-2.52 4.12-2.52 2.1 0 3.21 1.53 3.21 4.41v11.76H65.8V11.37c0-1.89-.52-2.79-1.85-2.79-1.26 0-2.62 1.17-3.51 2.28v11.76h-2V6.78z"></path><path class="st0" d="M0 33.9h16.38l3.48 14.85c1.91 8.03 4.04 17.27 5.5 25.52h.22c-.56-9.02-.79-17.05-.79-24.42V33.9h15.15v81.4H25.58l-4.15-14.19c-2.58-8.69-5.27-16.61-6.84-25.52h-.22c.67 6.27.79 19.14.79 24.75v14.96H0V33.9zm41.96 52.03c0-20.02 6.62-30.25 19.3-30.25 16.94 0 18.4 15.95 18.4 29.7v6.27H58.01c0 7.26.79 11.44 3.37 11.44 2.13 0 2.92-1.65 3.14-7.81l15.26.44c-1.46 12.1-5.95 20.35-18.51 20.35-12.58 0-19.31-10.34-19.31-30.14zm21.99-4.18c-.11-10.34-.45-12.54-2.69-12.54-2.02 0-3.25 2.53-3.25 12.54h5.94zm14.81-25.3h16.38l1.91 23.87c.22 3.19.22 6.05.45 12.21h.22c.45-5.83.79-9.02 1.23-12.21l3.7-23.87h8.86l3.7 23.87c.45 3.19.9 7.26 1.23 12.21h.22c.11-5.17.22-9.02.45-12.21l1.91-23.87h15.26l-7.85 59.18H110.5l-3.93-27.94h-.22l-3.93 27.94h-15.8l-7.86-59.18zm54.08 40.81l14.36-1.76c.79 6.16 2.58 8.47 4.15 8.47 1.35 0 2.47-.44 2.47-2.53 0-3.63-3.7-5.06-7.97-8.47-5.5-4.4-11.89-10.23-11.89-20.9 0-13.09 10.21-16.83 16.72-16.83 10.88 0 17.39 4.51 18.62 17.93l-14.14 2.2c-.56-6.16-1.46-7.15-3.59-7.15-1.01 0-1.91.77-1.91 2.31 0 3.74 3.37 6.05 7.4 9.13 5.72 4.51 12.68 9.13 12.68 19.58 0 10.23-6.51 17.05-18.06 17.05-14.35 0-17.6-8.14-18.84-19.03zM189.38 33.9h18.74c12.01 0 21.88 7.7 21.88 27.17 0 10.34-2.8 17.49-6.96 21.12l8.19 33.11h-17.28l-6.17-27.17h-1.23v27.17h-17.17V33.9zM208 75.48c2.36 0 4.38-2.42 4.38-14.19 0-11.11-2.02-12.43-4.49-12.43h-1.35v26.62H208z" fill="#004B8C"></path><path class="st0" d="M230.1 85.93c0-20.02 6.62-30.25 19.3-30.25 16.94 0 18.4 15.95 18.4 29.7v6.27h-21.65c0 7.26.79 11.44 3.37 11.44 2.13 0 2.92-1.65 3.14-7.81l15.26.44c-1.46 12.1-5.95 20.35-18.51 20.35-12.58 0-19.31-10.34-19.31-30.14zm21.99-4.18c-.11-10.34-.45-12.54-2.69-12.54-2.02 0-3.25 2.53-3.25 12.54h5.94z" fill="#004B8C"></path><g><path class="st0" d="M268.61 85.93c0-20.02 6.73-30.25 19.41-30.25 12.57 0 17.5 8.58 18.51 23.1l-16.04.77c-.22-6.93-.22-10.12-2.47-10.12-2.02 0-2.92 1.54-2.92 16.39 0 14.19.79 17.16 2.92 17.16s2.69-2.86 2.69-11.44l15.82.44c-.56 14.96-5.95 24.09-18.51 24.09-12.56 0-19.41-10.34-19.41-30.14zm38.15 0c0-20.02 6.73-30.25 19.41-30.25 12.57 0 19.41 10.23 19.41 30.25 0 19.8-6.84 30.14-19.41 30.14s-19.41-10.34-19.41-30.14zm22.21-.11c0-14.08-.56-16.39-2.81-16.39-2.02 0-2.92 1.21-2.92 16.39 0 14.19.79 17.16 2.92 17.16 2.14 0 2.81-1.76 2.81-17.16zm18.63-29.37h16.49v9.24h.11c1.91-5.5 5.5-10.01 9.99-10.01 1.01 0 1.91.22 1.91.22v15.73h-1.57c-4.82 0-8.08.55-10.43 1.87v41.8h-16.5V56.45zm28.39 29.48c0-22.22 4.82-30.25 12.34-30.25 4.26 0 7.74 2.86 9.76 7.26V33.9h16.49V101c0 7.04.22 11.33 1.01 14.3h-16.83c-.34-2.09-.67-6.38-.67-6.38-1.57 2.97-5.05 6.93-9.87 6.93-7.52 0-12.23-7.7-12.23-29.92zm22.1 14.52V71.3c-.67-.33-1.35-.77-2.69-.77-1.8 0-2.47 1.1-2.47 15.29 0 13.97.56 15.51 2.58 15.51 1.34 0 2.02-.44 2.58-.88z" fill="#004B8C"></path></g></svg>