<svg xmlns:xlink="http://www.w3.org/1999/xlink" aria-labelledby="cctLogo" class="header-logo-image logo-cct" viewBox="0 0 1143.99 202.68" x="0" xml:space="preserve" xmlns="http://www.w3.org/2000/svg" y="0" width="1143.99"  height="202.68" > <text id="cctLogo">Cochrane Times</text> <style type="text/css"> .st0 { fill: #204180; } .st1 { fill: #00B4E2; } </style> <path class="st0" d="M64.35,164.45c0,5.71-2.55,10.78-7.64,15.23c-5.86,5.15-13.43,7.72-22.72,7.72 c-9.93,0-17.95-2.15-24.06-6.47C3.31,176.21,0,169.6,0,161.11V67c0-9.32,2.42-16.2,7.26-20.66c5.6-5.15,14.51-7.72,26.73-7.72 c10.57,0,18.46,2.58,23.68,7.72c4.45,4.45,6.68,10.51,6.68,18.15V91H37.81V61.8c0-1.26-0.33-2.17-1-2.73 c-0.67-0.56-1.73-0.84-3.2-0.84c-1.46,0-2.56,0.28-3.3,0.84c-0.73,0.56-1.1,1.47-1.1,2.72V163.6c0,1.12,0.43,1.99,1.3,2.62 c0.87,0.63,1.9,0.94,3.1,0.94c1.47,0,2.53-0.31,3.2-0.94c0.67-0.63,1-1.5,1-2.62V127.3h26.54V164.45z" fill="#204180"></path> <path class="st0" d="M132.9,163.41c0,8.9-3.06,15.3-9.17,19.2c-4.96,3.2-12.16,4.8-21.58,4.8c-9.55,0-16.93-1.74-22.15-5.22 c-6.24-4.17-9.36-10.78-9.36-19.82V91.62c0-8.9,3.12-15.44,9.36-19.62c5.35-3.62,12.73-5.43,22.15-5.43 c8.66,0,15.95,2.05,21.86,6.16c5.92,4.1,8.88,10.05,8.88,17.84V163.41z M106.36,163V90.77c0-1.94-0.38-3.4-1.15-4.37 c-0.76-0.97-1.91-1.46-3.44-1.46c-1.27,0-2.36,0.49-3.25,1.46c-0.89,0.97-1.34,2.43-1.34,4.37V163c0,1.94,0.38,3.43,1.15,4.47 c0.76,1.04,1.91,1.56,3.44,1.56c1.53,0,2.67-0.52,3.44-1.56C105.98,166.44,106.36,164.95,106.36,163z" fill="#204180"></path> <path class="st0" d="M199.93,163.41c0,8.9-3.06,15.3-9.17,19.2c-4.96,3.2-12.16,4.8-21.58,4.8c-9.55,0-16.93-1.74-22.15-5.22 c-6.24-4.17-9.36-10.78-9.36-19.82V91.62c0-8.9,3.12-15.44,9.36-19.62c5.35-3.62,12.73-5.43,22.15-5.43 c9.17,0,16.29,1.6,21.39,4.8c6.24,3.9,9.36,10.3,9.36,19.2v29.21h-26.54V90.79c0-1.95-0.38-3.41-1.15-4.38 c-0.76-0.97-1.91-1.46-3.44-1.46c-1.27,0-2.36,0.49-3.25,1.46c-0.89,0.97-1.34,2.43-1.34,4.37V163c0,1.94,0.38,3.43,1.15,4.47 c0.76,1.04,1.91,1.56,3.44,1.56c1.53,0,2.67-0.52,3.44-1.55c0.76-1.04,1.15-2.52,1.15-4.46v-28.41h26.54V163.41z" fill="#204180"></path> <path class="st0" d="M267.91,185.73h-26.54V90.37c0-3.62-1.53-5.43-4.58-5.43c-1.53,0-2.67,0.42-3.44,1.25 c-0.76,0.83-1.15,2.16-1.15,3.96v95.57h-26.54V39.66h26.54v31.3c1.65-1.53,3.85-2.64,6.59-3.34c2.74-0.69,6.02-1.04,9.83-1.04 c5.6,0,10.22,1.6,13.84,4.8c3.63,3.2,5.44,7.09,5.44,11.69V185.73z" fill="#204180"></path> <path class="st0" d="M336.65,116.46h-26.54V90.61c0-3.64-1.53-5.46-4.58-5.46c-1.53,0-2.67,0.42-3.44,1.26 c-0.76,0.84-1.15,2.16-1.15,3.97v95.35H274.4V67.42h26.54v3.91c1.53-1.38,3.72-2.51,6.59-3.4c2.86-0.89,6.14-1.34,9.83-1.34 c5.6,0,10.22,1.64,13.84,4.9c3.63,3.27,5.44,7.27,5.44,12V116.46z" fill="#204180"></path> <path class="st0" d="M404.63,185.73h-23.49v-4.59c-1.27,2.64-3.22,4.35-5.82,5.11c-2.61,0.76-6.33,1.15-11.17,1.15 c-7.89,0-13.5-1.53-16.8-4.59c-3.31-3.06-4.97-7.72-4.97-13.98v-23.79c0-9.46,5.95-17.32,17.85-23.58 c11.9-6.26,17.85-10.64,17.85-13.15V90.79c0-1.95-0.38-3.41-1.12-4.38c-0.75-0.97-1.87-1.46-3.37-1.46 c-1.25,0-2.31,0.49-3.18,1.46c-0.87,0.98-1.31,2.44-1.31,4.38v23.37h-25.78V90.58c0-8.76,3.25-15.16,9.74-19.2 c5.22-3.2,12.54-4.8,21.96-4.8c9.42,0,16.48,1.74,21.2,5.22c5.6,4.04,8.4,10.64,8.4,19.82V185.73z M378.08,163.62v-30.47 c-3.57,0.97-5.99,2.16-7.26,3.55c-1.27,1.39-1.91,3.2-1.91,5.43v21.49c0,1.81,0.41,3.17,1.24,4.07c0.83,0.91,2.01,1.36,3.53,1.36 c1.27,0,2.32-0.45,3.15-1.36C377.67,166.78,378.08,165.42,378.08,163.62z" fill="#204180"></path> <path class="st0" d="M473.37,185.73h-26.54V90.59c0-3.62-1.53-5.44-4.58-5.44c-1.53,0-2.67,0.44-3.44,1.3 c-0.76,0.87-1.15,2.24-1.15,4.12v95.16h-26.54V67.42h26.54v3.96c1.53-1.39,3.72-2.54,6.59-3.44c2.86-0.9,6.14-1.36,9.83-1.36 c5.6,0,10.22,1.64,13.84,4.9c3.63,3.27,5.44,7.27,5.44,12V185.73z" fill="#204180"></path> <path class="st0" d="M541.16,163.41c0,8.76-3.18,15.16-9.55,19.2c-5.09,3.2-12.35,4.8-21.77,4.8c-9.42,0-16.68-1.74-21.77-5.22 c-6.11-4.17-9.17-10.78-9.17-19.82V91.62c0-8.9,2.99-15.44,8.98-19.62c5.22-3.62,12.54-5.43,21.96-5.43 c9.29,0,16.55,1.6,21.77,4.8c6.36,3.9,9.55,10.3,9.55,19.2v45.07h-35.71v27.38c0,1.94,0.38,3.42,1.15,4.46 c0.76,1.04,1.91,1.55,3.44,1.55c1.53,0,2.67-0.51,3.44-1.55c0.76-1.04,1.15-2.52,1.15-4.46v-23.62h26.54V163.41z M514.61,117.71 V90.75c0-1.94-0.38-3.39-1.15-4.36c-0.76-0.97-1.91-1.45-3.44-1.45c-1.27,0-2.36,0.49-3.25,1.45c-0.89,0.97-1.34,2.42-1.34,4.36 v26.96H514.61z" fill="#204180"></path> <path class="st0" d="M642.55,58.44h-16.42v127.29h-29.22V58.44h-16.42V39.66h62.06V58.44z" fill="#204180"></path> <path class="st0" d="M674.63,60.95h-26.54V39.87h26.54V60.95z M674.63,185.73h-26.54V67.42h26.54V185.73z" fill="#204180"></path> <path class="st0" d="M777.55,185.73h-26.54V91.01c0-3.62-1.53-5.44-4.58-5.44c-1.53,0-2.67,0.42-3.44,1.25 c-0.76,0.84-1.15,2.16-1.15,3.97v94.94H715.3V90.8c0-3.62-1.53-5.44-4.58-5.44c-1.53,0-2.67,0.42-3.44,1.26 c-0.76,0.84-1.15,2.16-1.15,3.97v95.15h-26.54V67.42h26.54v4.12c1.53-1.38,3.79-2.54,6.78-3.51c2.99-0.96,6.21-1.44,9.64-1.44 c4.96,0,8.46,0.69,10.5,2.06c2.42,2.34,4.52,4.34,6.3,5.99c1.15-1.51,3.66-3.23,7.54-5.16c3.88-1.93,7.73-2.89,11.55-2.89 c5.47,0,10.03,1.71,13.65,5.11c3.63,3.41,5.44,7.41,5.44,12V185.73z" fill="#204180"></path> <path class="st0" d="M846.11,163.41c0,8.76-3.18,15.16-9.55,19.2c-5.09,3.2-12.35,4.8-21.77,4.8c-9.42,0-16.68-1.74-21.77-5.22 c-6.11-4.17-9.17-10.78-9.17-19.82V91.62c0-8.9,2.99-15.44,8.98-19.62c5.22-3.62,12.54-5.43,21.96-5.43 c9.29,0,16.55,1.6,21.77,4.8c6.36,3.9,9.55,10.3,9.55,19.2v45.07H810.4v27.38c0,1.94,0.38,3.42,1.15,4.46 c0.76,1.04,1.91,1.55,3.44,1.55s2.67-0.51,3.44-1.55c0.76-1.04,1.15-2.52,1.15-4.46v-23.62h26.54V163.41z M819.56,117.71V90.75 c0-1.94-0.38-3.39-1.15-4.36c-0.76-0.97-1.91-1.45-3.44-1.45c-1.27,0-2.36,0.49-3.25,1.45c-0.89,0.97-1.34,2.42-1.34,4.36v26.96 H819.56z" fill="#204180"></path> <path class="st0" d="M914.28,162.36c0,8.9-3.12,15.44-9.36,19.62c-5.35,3.62-12.73,5.42-22.15,5.42c-9.17,0-16.3-1.6-21.39-4.8 c-6.24-3.89-9.36-10.29-9.36-19.2v-25.25h26.54v24.87c0,1.94,0.39,3.42,1.17,4.46c0.78,1.04,1.89,1.55,3.32,1.55 c1.43,0,2.5-0.52,3.22-1.55c0.72-1.04,1.07-2.52,1.07-4.45v-9.12c0-8.02-1.78-13.2-5.35-15.55c-4.84-2.78-9.36-5.43-13.56-7.93 c-6.24-3.76-10.44-7.13-12.6-10.12c-2.17-2.99-3.25-7.27-3.25-12.83V91.62c0-8.9,2.99-15.44,8.97-19.62 c5.22-3.62,12.54-5.43,21.96-5.43c9.17,0,16.23,1.6,21.2,4.8c5.98,3.9,8.97,10.3,8.97,19.2v23.37h-26.16V90.79 c0-1.81-0.43-3.23-1.28-4.28c-0.85-1.04-1.83-1.57-2.92-1.57c-1.22,0-2.26,0.49-3.11,1.46c-0.85,0.98-1.28,2.44-1.28,4.38v11.06 c0,4.87,1.84,8.63,5.54,11.27l10.31,6.05c7.51,4.31,12.16,7.44,13.94,9.39c3.69,3.9,5.54,9.25,5.54,16.07V162.36z" fill="#204180"></path> <path class="st0" d="M86.7,18.94h-4.1v24.8h-7.29v-24.8h-4.1v-3.66H86.7V18.94z" fill="#204180"></path> <path class="st0" d="M103.58,43.74h-6.63V25.16c0-0.7-0.38-1.06-1.14-1.06c-0.38,0-0.67,0.08-0.86,0.24 c-0.19,0.16-0.29,0.42-0.29,0.77v18.62h-6.63V15.28h6.63v6.1c0.41-0.3,0.96-0.51,1.65-0.65c0.68-0.14,1.5-0.2,2.46-0.2 c1.4,0,2.55,0.31,3.46,0.94c0.91,0.62,1.36,1.38,1.36,2.28V43.74z" fill="#204180"></path> <path class="st0" d="M120.64,39.39c0,1.71-0.79,2.95-2.38,3.74c-1.27,0.62-3.08,0.94-5.43,0.94c-2.35,0-4.16-0.34-5.43-1.02 c-1.53-0.81-2.29-2.1-2.29-3.86V25.4c0-1.73,0.75-3.01,2.24-3.82c1.3-0.7,3.13-1.06,5.48-1.06c2.32,0,4.13,0.31,5.43,0.94 c1.59,0.76,2.38,2.01,2.38,3.74v8.78h-8.91v5.33c0,0.38,0.1,0.67,0.29,0.87c0.19,0.2,0.48,0.3,0.86,0.3c0.38,0,0.67-0.1,0.86-0.3 c0.19-0.2,0.29-0.49,0.29-0.87v-4.6h6.63V39.39z M114.02,30.48v-5.25c0-0.38-0.1-0.66-0.29-0.85c-0.19-0.19-0.48-0.28-0.86-0.28 c-0.32,0-0.59,0.09-0.81,0.28c-0.22,0.19-0.33,0.47-0.33,0.85v5.25H114.02z" fill="#204180"></path> <path class="st1" d="M1141.65,198.26c-4-2-5-1.33-9.33-2c-4.33-0.67-4.67-1.67-5.67-2.67s-1,2-3.33,1s-0.67-2-2.67-2.33 c-2-0.33-2.33-0.67-3.67-1c-1.33-0.33-2.33-5.67-2.67-11c-0.33-5.33-2.33-25.67-4.33-30.67s-3.67-15.67,0-18 c3.67-2.33,2.33-8,1.33-12s-1.33-19.33-9.33-25c-8-5.67-17.67-12-17.67-12s-4.33-10-8-15.67c-3.67-5.67-4-10.67-0.67-14 c3.33-3.33,3.67-7.67,3-11.67c-0.67-4-3.67-16.67-6.67-16.67s-11.67,0.67-7.33-3c0,0,8-1.5,7.33-6.17c-0.67-4.67-4-6.33-6.83-7.83 s-5.67-6-8.17-6.67c-2.5-0.67-7.5-2.83-9.83,3.17c0,0-0.17,0.67-1.83,0.67s-9.33,4-6.5,8.33s4.83,3.83,7.17,5.83s-1.33,3.67,3,4.33 c4.33,0.67,0,3.67-2.33,5c-2.33,1.33-6.67,7.67-9,12.33c-2.33,4.67-5,15.33-6,18.67c-1,3.33-8,8.67-11.67,2h-18 c0,0-7.67-6.67-9.67-9c-2-2.33-5.33-5.67-4.67,3l-5,2.67c0,0-8.67-3-9.33-5s-6.33,9,3.33,13.67c0,0-2.67,5-3.33,6.33 c-0.67,1.33-4,4.67,1,10c0,0,0,13.33-1,14.67c-1,1.33-5,2.67,0.33,9c0,0,2.33,2.33,1.67,5.67c-0.67,3.33-0.67,6,3.33,10 s11.33,10,21,0c0,0,3.33,4,16,5.67c0,0,2.67,0.67,0,5.33c-2.67,4.67-5,4.67-3.33,7.33c1.67,2.67,3.33,6.33,7.33,6.67 c4,0.33,7.67,0.67,8.33,5c0.67,4.33,0.17,7.42,1.92,12.42s4.5,16.75,4,23.75c0,0-3,5.75-6.5,7c-3.5,1.25-17.75,3.75-20.75,6.5h38 c0,0-10.25-0.5-7-4.25s6.5-6.25,6.5-3.75s1,0.75,4.75-0.25s6,2,0,2.5s0,2.75,2.25,2.25s1.75,2.25-2.25,4h5.25c0,0,4.25-2.25,4-4 c0,0,2.25,2.25,0.25,4.25h14c0,0-2.5-1.5-3.75-3s-1,0-4-1.5s-3.75-2.5-3.75-3.75s-0.5-1.25-2.5-1.75s-1.25-2.75,2.75-2.25 s5,2,7.75,3.5s1-0.75,2.75-1s5.75,0,1.75,3.5c0,0-0.5,1.5,1.5,1.25s8.25,0,5.5,1.75s-2.5,2.75-5.25,3l19.5,0.17c0,0,1-2.33,3-1.67 c2,0.67,2,0.67,2,0.67s3.67-4,5.33-2.33c1.67,1.67,3,3.33,3,3.33h14c0,0,2.67-5,4.33-0.33h17 C1143.31,202.26,1145.65,200.26,1141.65,198.26z M979.9,118.68c0,0-2-2,0.5-4.5s2.75-0.5,4.5,0.5s10.5,4.5,10.75,5.75 S990.15,131.93,979.9,118.68z M999.15,118.43c0,0-6.25-4.75-10.75-8.75c0,0-3-1.25,0.25-4.25s12-11,14.5-11.5s4.5,4.25,2.75,7.75 c-1.75,3.5-3,3.75-3.5,9.75C1002.4,111.43,999.9,115.68,999.15,118.43z M1012.65,124.18c-2.75-0.75-5.5-3.75-7.75-2.75 c0,0-4.25,0.25-1.5-5s1.75-10.5,4.5-9s2.5,6,5.25,8.5S1015.4,124.93,1012.65,124.18z M1034.9,66.68c-3.5,1.75-5.25,0-2.75-3.25 c0,0,1.75-2.25,4-2S1038.4,64.93,1034.9,66.68z M1047.98,186.26c0.33,4-5.33,3.67-5.33,3.67s-0.67-10.33-1.33-14 c-0.67-3.67-0.67-10.33-0.67-14c0-3.67-1-10.33-1.67-15.33s-0.67-12.33-0.67-12.33l7.33,7c0,0,0,5-0.33,7s1.67,13.33,2.67,17 C1048.98,168.93,1047.65,182.26,1047.98,186.26z M1071.31,170.93c-1.33,4.33-1.67,16.67-4.33,19c0,0-3.67-3-11.33-2 c0,0-1.67-11.33,0-12c1.67-0.67,0.67-1.67,0-7c-0.67-5.33,1.33-14.67,2-20.33c0.67-5.67,1.67-8,5.33,1 S1072.65,166.6,1071.31,170.93z M1079.98,166.76c-1.67-7.16-6.31-12.16-2.32-16.49c3.99-4.33,6.65-4.36,7.99-6.68 c1.33-2.32,4.67-6.68,7.67,0c3,6.68,8.33,16.02,9,18.52c0.67,2.5-0.67,6.5,5.33,16.83c0,0,1.67,9,1.67,11s-7,0.33-8.67-1.67 c-1.67-2-8-3.33-8.5-1c-0.5,2.33-2.5,0.67-4.5-0.33s-6.78,2.51-12.67,0c0,0,0-6.33,2-8.33 C1076.98,178.6,1081.65,173.92,1079.98,166.76z M1112.9,195.68c0,0-4,0.25-5,2.75c0,0-2.25,0.5-3-1.5s-3.25-0.25-5,1.25 s-1.25,0.75-3.25-0.25s0-0.75-3.25,0.25s-4.25,2.25-4.25,2.25s-6.75-0.25-5.25-1s5.25-1.5,5.25-1.5s-1.25-1.25-5.5-2.25 s-1.5-2.25-3.25-2s-1.5-1.42-5.75-2.08c0,0-3.5-0.67-1.33-2.67c0,0,1.83-0.17,3,1c1.17,1.17,1.33,2.5,4.33,2.25s5.5-1,5.5,0 s0.25-1.5,2.25,2.75c0,0,2.5,2.5,4,1.75s1.5-2.5,4.75-3s2.5-3.25,5.5-1s3.5,2.25,5.25,2s2.75-2-0.75-2.5 C1107.15,192.18,1117.65,192.43,1112.9,195.68z" fill="#00B4E2"></path></svg>