<svg xmlns:xlink="http://www.w3.org/1999/xlink" aria-labelledby="clkLogo" class="header-logo-image logo-clk" role="img" viewBox="0 0 447.05 115.65" x="0" xmlns="http://www.w3.org/2000/svg" y="0" width="447.05"  height="115.65" > <text id="clkLogo">Cold Lake Sun</text><style>.st0{fill:#004b8c}</style><path d="M5.72 2.31H1.01V0h11.5v2.31H7.8V22.2H5.72V2.31zM14.76 0h2v8.55c.86-1.17 2.42-2.52 4.12-2.52 2.1 0 3.21 1.53 3.21 4.41V22.2h-1.98V10.95c0-1.89-.52-2.79-1.85-2.79-1.26 0-2.62 1.17-3.51 2.28V22.2h-2V0zM26.53 14.28c0-5.7 2.42-8.25 5.04-8.25 2.89 0 4.64 2.82 4.64 8.16v.6h-7.7c.07 3.72 1.26 5.7 3.14 5.7 1.53 0 2.35-1.05 3.09-2.76l1.38 1.05c-.91 2.28-2.49 3.75-4.57 3.75-2.84 0-5.02-2.73-5.02-8.25zm7.78-1.32c-.12-2.88-.99-4.86-2.77-4.86-1.46 0-2.79 1.47-3.01 4.86h5.78z"></path><path class="st0" d="M0 74.18c0-30.36 6.73-41.47 21.43-41.47 14.59 0 20.2 6.49 20.2 33.44l-16.72.66c0-15.51-.79-18.15-3.48-18.15-3.48 0-3.37 6.16-3.37 25.52 0 20.02.11 26.07 3.48 26.07 2.92 0 3.59-1.87 3.81-17.49l16.72.66c-.79 17.27-2.92 32.23-20.64 32.23C6.73 115.65 0 104.54 0 74.18zM42.52 85.51c0-20.02 6.73-30.25 19.41-30.25 12.57 0 19.41 10.23 19.41 30.25 0 19.8-6.84 30.14-19.41 30.14-12.56 0-19.41-10.34-19.41-30.14zm22.22-.11c0-14.08-.56-16.39-2.81-16.39-2.02 0-2.92 1.21-2.92 16.39 0 14.19.79 17.16 2.92 17.16s2.81-1.76 2.81-17.16zM84.04 33.48h16.49v81.4H84.04v-81.4zM103.45 85.51c0-22.22 4.82-30.25 12.34-30.25 4.26 0 7.74 2.86 9.76 7.26V33.48h16.49v67.1c0 7.04.22 11.33 1.01 14.3h-16.83c-.34-2.09-.67-6.38-.67-6.38-1.57 2.97-5.05 6.93-9.87 6.93-7.52 0-12.23-7.7-12.23-29.92zm22.1 14.52V70.88c-.67-.33-1.35-.77-2.69-.77-1.8 0-2.47 1.1-2.47 15.29 0 13.97.56 15.51 2.58 15.51 1.35 0 2.02-.44 2.58-.88zM161 33.48h17.73v66.99h13.8v14.41H161v-81.4zM192.75 99.48c0-12.54 7.18-19.8 20.98-23.21v-3.63c0-3.74-.34-4.4-1.91-4.4-1.46 0-2.02.88-2.69 5.06l-14.59-1.76c2.69-13.31 9.76-16.28 19.19-16.28 11 0 15.71 4.95 15.71 16.72v28.6c0 7.04.22 11.33.9 14.3h-15.82c-.56-1.54-.79-3.08-.79-6.93-2.02 4.29-4.82 7.37-9.99 7.37-5.94 0-10.99-3.96-10.99-15.84zm20.99.66V87.16c-4.04 2.09-5.16 5.61-5.16 10.01 0 2.31.79 3.85 2.47 3.85.89 0 2.01-.44 2.69-.88z" fill="#004B8C"></path><g><path class="st0" d="M234.5 33.48h15.48v46.2c1.12-6.16 2.36-11.44 3.03-14.08l2.47-9.57h14.25l-7.63 21.89 8.98 36.96h-15.71l-3.81-21.67-1.57 6.27v15.4H234.5v-81.4z" fill="#004B8C"></path><path class="st0" d="M269.05 85.51c0-20.02 6.62-30.25 19.3-30.25 16.94 0 18.4 15.95 18.4 29.7v6.27H285.1c0 7.26.79 11.44 3.37 11.44 2.13 0 2.92-1.65 3.14-7.81l15.26.44c-1.46 12.1-5.95 20.35-18.51 20.35-12.57 0-19.31-10.34-19.31-30.14zm21.99-4.18c-.11-10.34-.45-12.54-2.69-12.54-2.02 0-3.25 2.53-3.25 12.54h5.94z" fill="#004B8C"></path></g><g><path class="st0" d="M323.78 88.15l16.38-1.1c.79 11.66 1.46 14.3 4.94 14.3 2.36 0 3.59-1.87 3.59-5.61 0-6.16-4.94-10.23-10.43-15.84-6.28-6.49-13.24-13.42-13.24-25.96 0-12.98 6.51-21.23 19.63-21.23 15.6 0 20.08 9.13 20.64 26.07L348.8 60.1c-.34-12.1-1.57-12.54-3.81-12.54-1.91 0-2.58 1.98-2.58 4.51 0 7.48 4.6 11.44 9.87 16.5 6.51 6.38 13.8 12.54 13.8 26.18 0 13.53-7.29 20.9-21.09 20.9-18.07 0-20.42-11.88-21.21-27.5zM367.76 104.1V56.03h16.49v42.35c0 1.87.45 2.64 1.46 2.64 1.12 0 2.58-.22 3.25-.55V56.03h16.49v58.85h-16.49v-6.16c-2.47 3.3-8.08 6.93-12.45 6.93-5.49 0-8.75-1.76-8.75-11.55z" fill="#004B8C"></path></g><g><path class="st0" d="M409.35 56.03h16.49v6.16c2.47-3.3 8.08-6.93 12.45-6.93 5.5 0 8.75 1.76 8.75 11.55v48.07h-16.49V72.97c0-1.87-.45-2.64-1.46-2.64-1.12 0-2.58.77-3.25 1.1v43.45h-16.49V56.03z" fill="#004B8C"></path></g></svg>