<svg xmlns:xlink="http://www.w3.org/1999/xlink" aria-labelledby="edxLogo" class="header-logo-image logo-edx header-logo-image--size-md" role="img" viewBox="0 0 301.45 115.65" x="0" xml:space="preserve" xmlns="http://www.w3.org/2000/svg" y="0" width="301.45"  height="115.65" > <text id="edxLogo">Edmonton Examiner</text> <style>.st0{fill:#e01e2b}</style><path class="st0" d="M0 33.48h32.09v14.96H17.73v16.28h10.21v13.86H17.73v21.89h14.59v14.41H0v-81.4z" fill="#E01E2B"></path><path class="st0" d="M43.53 85.29L33.21 56.03h16.16l3.59 11.77 3.7-11.77H69.9L59.58 83.31l11.22 31.57H54.64l-4.49-13.53-4.71 13.53H32.2l11.33-29.59z" fill="#E01E2B"></path><path class="st0" d="M69.06 99.48c0-12.54 7.18-19.8 20.98-23.21v-3.63c0-3.74-.34-4.4-1.91-4.4-1.46 0-2.02.88-2.69 5.06l-14.59-1.76c2.69-13.31 9.76-16.28 19.19-16.28 11 0 15.71 4.95 15.71 16.72v28.6c0 7.04.22 11.33.9 14.3H90.83c-.56-1.54-.79-3.08-.79-6.93-2.02 4.29-4.82 7.37-9.99 7.37-5.94 0-10.99-3.96-10.99-15.84zm20.98.66V87.16c-4.04 2.09-5.16 5.61-5.16 10.01 0 2.31.79 3.85 2.47 3.85.9 0 2.02-.44 2.69-.88zm19.52-44.11h16.49v6.16c2.47-3.3 8.08-6.93 12.45-6.93 4.49 0 7.52 1.21 8.41 7.04 2.92-3.63 8.75-7.04 12.79-7.04 5.5 0 8.75 1.76 8.75 11.55v48.07h-16.49V72.97c0-1.87-.45-2.64-1.46-2.64s-2.47.66-3.25 1.1v43.45h-16.49V72.97c0-1.87-.45-2.64-1.46-2.64-1.12 0-2.58.77-3.25 1.1v43.45h-16.49V56.03zm62.72-20.35H189v15.51h-16.72V35.68zm.12 20.35h16.49v58.85H172.4V56.03zm20.53 0h16.49v6.16c2.47-3.3 8.08-6.93 12.46-6.93 5.5 0 8.75 1.76 8.75 11.55v48.07h-16.49V72.97c0-1.87-.45-2.64-1.46-2.64-1.12 0-2.58.77-3.25 1.1v43.45h-16.49V56.03zm39.94 29.48c0-20.02 6.62-30.25 19.3-30.25 16.94 0 18.4 15.95 18.4 29.7v6.27h-21.65c0 7.26.79 11.44 3.37 11.44 2.13 0 2.92-1.65 3.14-7.81l15.26.44c-1.46 12.1-5.95 20.35-18.51 20.35-12.58 0-19.31-10.34-19.31-30.14zm21.99-4.18c-.11-10.34-.45-12.54-2.69-12.54-2.02 0-3.25 2.53-3.25 12.54h5.94zM272.95 56.03h16.49v9.24h.11c1.91-5.5 5.5-10.01 9.99-10.01 1.01 0 1.91.22 1.91.22v15.73h-1.57c-4.82 0-8.08.55-10.43 1.87v41.8h-16.49V56.03z" fill="#E01E2B"></path><path d="M.79 0h9.33v2.31H2.86v7.02h5.31v2.28H2.86v8.31h7.68v2.28H.79V0zM11.89 14.28c0-5.73 1.98-8.25 4.52-8.25 1.51 0 2.64.9 3.51 2.22V0h1.98v18.3c0 1.92.07 3.09.32 3.9h-2.05c-.15-.51-.25-1.53-.25-2.07-.84 1.2-1.95 2.31-3.6 2.31-2.56 0-4.43-2.43-4.43-8.16zm8.02 3.99v-7.95c-.94-1.35-1.95-2.19-3.09-2.19-1.75 0-2.94 1.86-2.94 6.21 0 4.23 1.21 6.09 2.96 6.09 1.17 0 2.26-1.02 3.07-2.16zm5.11-11.91h2v2.19c.94-1.23 2.37-2.52 3.97-2.52 1.78 0 2.64.9 2.96 2.52.99-1.29 2.39-2.52 4.07-2.52 2.1 0 3.16 1.53 3.16 4.41V22.2H39.2V10.95c0-1.89-.49-2.79-1.83-2.79-1.21 0-2.35 1.02-3.28 2.13V22.2h-2V10.95c0-1.89-.4-2.79-1.75-2.79-1.11 0-2.25.93-3.33 2.25V22.2h-2V6.36zm18.61 7.92c0-5.46 2.25-8.25 5.16-8.25 2.89 0 5.13 2.79 5.13 8.25 0 5.43-2.25 8.25-5.13 8.25s-5.16-2.82-5.16-8.25zm8.3 0c0-3.42-.96-6.15-3.14-6.15-2.1 0-3.16 2.46-3.16 6.15 0 3.45.91 6.21 3.16 6.21 2.08 0 3.14-2.46 3.14-6.21zm4.54-7.92h2v2.19c.86-1.17 2.42-2.52 4.12-2.52 2.1 0 3.21 1.53 3.21 4.41V22.2h-1.98V10.95c0-1.89-.52-2.79-1.85-2.79-1.26 0-2.62 1.17-3.51 2.28V22.2h-2V6.36zm13.18 12.27V8.37h-1.93V6.36h1.93V.72h1.98v5.64h2.86v2.01h-2.86v9.72c0 1.62.35 2.34 1.73 2.34.4 0 .86-.09 1.11-.21v1.95c-.3.12-.99.21-1.56.21-2.37 0-3.26-1.02-3.26-3.75zm6.62-4.35c0-5.46 2.25-8.25 5.16-8.25 2.89 0 5.13 2.79 5.13 8.25 0 5.43-2.25 8.25-5.13 8.25-2.89 0-5.16-2.82-5.16-8.25zm8.29 0c0-3.42-.96-6.15-3.14-6.15-2.1 0-3.16 2.46-3.16 6.15 0 3.45.91 6.21 3.16 6.21 2.08 0 3.14-2.46 3.14-6.21zm4.55-7.92h2v2.19c.86-1.17 2.42-2.52 4.12-2.52 2.1 0 3.21 1.53 3.21 4.41V22.2h-1.98V10.95c0-1.89-.52-2.79-1.85-2.79-1.26 0-2.62 1.17-3.51 2.28V22.2h-2V6.36z"></path></svg>