<svg xmlns:xlink="http://www.w3.org/1999/xlink" aria-labelledby="lsaLogo" class="header-logo-image logo-lsa header-logo-image--size-md" role="img" viewBox="0 0 443.92 94.63" x="0" xml:space="preserve" xmlns="http://www.w3.org/2000/svg" y="0" width="443.92"  height="94.63" > <text id="lsaLogo">Exeter Lakeshore Times Advance</text> <style>.st0{fill:#010101}.st1{fill:#204180}</style><path class="st0" d="M1.75 0h8.21v2.03H3.58v6.18h4.67v2.01H3.58v7.31h6.76v2.01H1.75V0zm12.91 12.25L11.55 5.6h1.83l2.33 5.04L17.9 5.6h1.69l-3.11 6.6 3.45 7.34H18.1l-2.61-5.75-2.61 5.75H11.2l3.46-7.29zm5.8.31c0-5.02 2.13-7.26 4.43-7.26 2.54 0 4.08 2.48 4.08 7.18v.53H22.2c.06 3.27 1.11 5.02 2.76 5.02 1.35 0 2.06-.92 2.72-2.43l1.22.92c-.8 2.01-2.19 3.3-4.02 3.3-2.51 0-4.42-2.4-4.42-7.26zm6.84-1.16c-.11-2.53-.87-4.28-2.43-4.28-1.28 0-2.46 1.29-2.65 4.28h5.08zm4.61 4.99V7.36h-1.69V5.6h1.69V.63h1.74V5.6h2.52v1.77h-2.52v8.55c0 1.43.3 2.06 1.52 2.06.35 0 .76-.08.98-.18v1.72c-.26.11-.87.18-1.37.18-2.09-.01-2.87-.91-2.87-3.31zm5.62-3.83c0-5.02 2.13-7.26 4.43-7.26 2.54 0 4.08 2.48 4.08 7.18v.53h-6.78c.07 3.27 1.11 5.02 2.76 5.02 1.35 0 2.06-.92 2.72-2.43l1.22.92c-.8 2.01-2.19 3.3-4.02 3.3-2.5 0-4.41-2.4-4.41-7.26zm6.85-1.16c-.11-2.53-.87-4.28-2.43-4.28-1.28 0-2.46 1.29-2.65 4.28h5.08zm3.91-5.8h1.76V8h.04c.65-1.4 1.85-2.69 3.63-2.69h.24l-.11 2.01s-.33-.03-.41-.03c-1.5 0-2.72 1.19-3.39 2.85v9.4h-1.76V5.6zM60.36 0h1.83v17.53h6.37v2.01h-8.19V0zm9.65 16.23c0-2.77 1.93-4.8 6.41-5.89V9.5c0-1.58-.56-2.32-1.72-2.32-1.39 0-2.52.84-3.39 1.87l-.98-1.29c1.2-1.45 2.72-2.46 4.54-2.46 2.24 0 3.26 1.5 3.26 4.2v6.6c0 1.69.07 2.72.28 3.43h-1.76c-.13-.55-.24-1-.24-1.8-.93 1.24-2.19 1.98-3.67 1.98-1.71.01-2.73-1.28-2.73-3.48zm6.41-.07v-4.28c-3.54.92-4.69 2.4-4.69 4.06 0 1.4.61 2.03 1.61 2.03 1.19.01 2.27-.76 3.08-1.81zM80.85 0h1.74v12.78c.24-.53.98-1.72 1.59-2.75L86.8 5.6h1.8l-3.11 5.09 3.5 8.84h-1.8l-2.78-7.1-1.83 2.93v4.17h-1.74V0zm8.97 12.56c0-5.02 2.13-7.26 4.43-7.26 2.54 0 4.08 2.48 4.08 7.18v.53h-6.78c.07 3.27 1.11 5.02 2.76 5.02 1.35 0 2.06-.92 2.72-2.43l1.22.92c-.8 2.01-2.19 3.3-4.02 3.3-2.5 0-4.41-2.4-4.41-7.26zm6.85-1.16c-.11-2.53-.87-4.28-2.43-4.28-1.28 0-2.46 1.29-2.65 4.28h5.08zm2.8 5.57l1.2-1.06c.76 1.4 1.89 2.17 3.11 2.17 1.46 0 2.28-.77 2.28-2.06 0-3.43-5.98-2.03-5.98-6.97 0-2.22 1.5-3.75 3.63-3.75 1.69 0 2.96.98 3.78 2.51l-1.17 1.11c-.59-1.08-1.46-1.85-2.63-1.85-1.3 0-1.91.79-1.91 1.87 0 3.46 5.93 1.9 5.93 6.97 0 2.43-1.76 3.91-3.96 3.91-1.98 0-3.39-1.1-4.28-2.85zM109.85 0h1.76v7.52c.76-1.03 2.13-2.22 3.63-2.22 1.85 0 2.82 1.35 2.82 3.88v10.35h-1.74v-9.9c0-1.66-.46-2.45-1.63-2.45-1.11 0-2.3 1.03-3.09 2.01v10.35h-1.76V0zm10.36 12.56c0-4.8 1.98-7.26 4.54-7.26 2.54 0 4.52 2.46 4.52 7.26 0 4.78-1.98 7.26-4.52 7.26s-4.54-2.48-4.54-7.26zm7.3 0c0-3.01-.85-5.41-2.76-5.41-1.85 0-2.78 2.16-2.78 5.41 0 3.04.8 5.46 2.78 5.46 1.83.01 2.76-2.16 2.76-5.46zm4-6.96h1.76V8h.04c.65-1.4 1.85-2.69 3.63-2.69h.24l-.11 2.01s-.33-.03-.41-.03c-1.5 0-2.72 1.19-3.39 2.85v9.4h-1.76V5.6zM137.94 12.56c0-5.02 2.13-7.26 4.43-7.26 2.54 0 4.08 2.48 4.08 7.18v.53h-6.78c.06 3.27 1.11 5.02 2.76 5.02 1.35 0 2.06-.92 2.72-2.43l1.22.92c-.8 2.01-2.19 3.3-4.02 3.3-2.5 0-4.41-2.4-4.41-7.26zm6.84-1.16c-.11-2.53-.87-4.28-2.43-4.28-1.28 0-2.46 1.29-2.65 4.28h5.08z" fill="#010101"></path><path class="st1" d="M8.46 38.29H0v-12.5h31.43v12.5h-8.46V93.8H8.46V38.29zM35.2 27.63h13.69v12.96H35.2V27.63zm.09 17.01H48.8V93.8H35.29V44.64zM55.05 44.64h13.51v5.15c2.02-2.76 6.62-5.79 10.2-5.79 3.68 0 6.16 1.01 6.89 5.88C88.04 46.85 92.82 44 96.13 44c4.5 0 7.17 1.47 7.17 9.65V93.8H89.79V58.79c0-1.56-.37-2.21-1.19-2.21-.83 0-2.02.55-2.67.92v36.3H72.42V58.79c0-1.56-.37-2.21-1.19-2.21-.92 0-2.11.64-2.67.92v36.3H55.05V44.64zm53.13 24.63c0-16.73 5.42-25.27 15.81-25.27 13.88 0 15.07 13.33 15.07 24.81v5.24h-17.74c0 6.07.64 9.56 2.76 9.56 1.75 0 2.39-1.38 2.57-6.53l12.5.37c-1.19 10.11-4.87 17-15.16 17-10.3 0-15.81-8.64-15.81-25.18zm18.01-3.5c-.09-8.64-.37-10.48-2.21-10.48-1.65 0-2.67 2.11-2.67 10.48h4.88zm16.18 12.96l11.76-1.47c.64 5.15 2.11 7.08 3.4 7.08 1.1 0 2.02-.37 2.02-2.11 0-3.03-3.03-4.23-6.53-7.08-4.5-3.68-9.74-8.55-9.74-17.46 0-10.94 8.36-14.06 13.69-14.06 8.92 0 14.25 3.77 15.26 14.98l-11.58 1.84c-.46-5.15-1.19-5.97-2.94-5.97-.83 0-1.56.64-1.56 1.93 0 3.12 2.76 5.05 6.07 7.63 4.69 3.77 10.39 7.63 10.39 16.36 0 8.55-5.33 14.25-14.8 14.25-11.77-.02-14.43-6.82-15.44-15.92zM176.38 59.98h21.05v11.76h-21.05V59.98zm33.72-34.46h15.16L236.2 93.8h-14.61l-1.38-12.68h-6.25l-1.29 12.68h-13.6l11.03-68.28zm9.47 45.95c-.55-5.42-1.19-12.13-1.65-16.54-.28-2.3-.46-4.5-.64-6.62h-.18c-.18 2.11-.46 4.32-.64 6.62-.46 4.5-1.1 11.12-1.75 16.54h4.86zM237.95 69.27c0-18.57 3.95-25.27 10.11-25.27 3.49 0 6.34 2.39 8 6.07V25.79h13.51v56.06c0 5.88.18 9.47.83 11.95h-13.79c-.28-1.75-.55-5.33-.55-5.33-1.29 2.48-4.14 5.79-8.09 5.79-6.16 0-10.02-6.43-10.02-24.99zm18.11 12.13V57.04c-.55-.28-1.1-.64-2.21-.64-1.47 0-2.02.92-2.02 12.77 0 11.67.46 12.96 2.11 12.96 1.11 0 1.66-.37 2.12-.73zm17.1-36.76h13.42l1.65 18.38c.55 5.05.92 9.1 1.47 14.71h.18c.55-5.61 1.01-9.65 1.47-14.8l1.56-18.29h12.5l-7.63 49.44h-16.91l-7.71-49.44zM306.8 80.94c0-10.48 5.88-16.54 17.19-19.39v-3.03c0-3.12-.28-3.68-1.56-3.68-1.19 0-1.65.74-2.21 4.23l-11.95-1.47c2.21-11.12 8-13.6 15.71-13.6 9.01 0 12.87 4.14 12.87 13.97v23.89c0 5.88.18 9.47.73 11.95h-12.96c-.46-1.29-.64-2.57-.64-5.79-1.65 3.58-3.95 6.16-8.18 6.16-4.87-.01-9-3.32-9-13.24zm17.18.55V70.64c-3.31 1.75-4.23 4.69-4.23 8.36 0 1.93.64 3.22 2.02 3.22.74 0 1.66-.36 2.21-.73zm18.94-36.85h13.51v5.15c2.02-2.76 6.62-5.79 10.2-5.79 4.5 0 7.17 1.47 7.17 9.65V93.8h-13.51V58.79c0-1.56-.37-2.21-1.19-2.21-.92 0-2.11.64-2.67.92v36.3h-13.51V44.64zM378.58 69.27c0-16.73 5.51-25.27 15.9-25.27 10.29 0 14.34 7.17 15.16 19.3l-13.14.64c-.18-5.79-.18-8.46-2.02-8.46-1.65 0-2.39 1.29-2.39 13.69 0 11.86.64 14.34 2.39 14.34s2.21-2.39 2.21-9.56l12.96.37c-.46 12.5-4.87 20.13-15.16 20.13-10.31 0-15.91-8.64-15.91-25.18zm34.37 0c0-16.73 5.42-25.27 15.81-25.27 13.88 0 15.07 13.33 15.07 24.81v5.24h-17.74c0 6.07.64 9.56 2.76 9.56 1.75 0 2.39-1.38 2.57-6.53l12.5.37c-1.2 10.11-4.87 17-15.16 17s-15.81-8.64-15.81-25.18zm18.01-3.5c-.09-8.64-.37-10.48-2.21-10.48-1.65 0-2.67 2.11-2.67 10.48h4.88z" fill="#204180"></path></svg>