<svg xmlns:xlink="http://www.w3.org/1999/xlink" aria-labelledby="fvpLogo" class="header-logo-image logo-fvp" role="img" viewBox="0 0 399.8 74.34" x="0" xmlns="http://www.w3.org/2000/svg" y="0" width="399.8"  height="74.34" > <text id="fvpLogo">Fairview Post</text><style>.st0{fill:#26366d}</style><path class="st0" d="M27.21 9.34H14.46v19.84h11.43v9.03H14.46V73.5H0V0h27.21v9.34zM60.48 73.5H48.85v-2.31c-.63 1.33-1.59 2.19-2.88 2.57-1.29.38-3.13.58-5.53.58-3.91 0-6.68-.77-8.32-2.31-1.64-1.54-2.46-3.89-2.46-7.04V53.03c0-4.76 2.94-8.72 8.84-11.87 5.89-3.15 8.84-5.36 8.84-6.62v-8.82c0-.98-.19-1.71-.56-2.2-.37-.49-.93-.73-1.67-.73-.62 0-1.14.25-1.57.73-.43.49-.65 1.23-.65 2.2v11.76H30.14V25.62c0-4.41 1.61-7.63 4.82-9.66 2.58-1.61 6.2-2.41 10.87-2.41 4.66 0 8.16.88 10.49 2.62 2.77 2.03 4.16 5.36 4.16 9.97V73.5zM47.34 62.37V47.04c-1.76.49-2.96 1.09-3.59 1.79-.63.7-.95 1.61-.95 2.73v10.82c0 .91.2 1.59.61 2.05.41.46.99.68 1.75.68.63 0 1.15-.23 1.56-.68.42-.47.62-1.15.62-2.06zM76.82 10.71H63.69V.1h13.13v10.61zm0 62.79H63.69V13.96h13.13V73.5zM110.27 38.64H97.14v-13c0-1.83-.76-2.75-2.27-2.75-.76 0-1.32.21-1.7.63-.38.42-.57 1.09-.57 2V73.5H79.47V13.96H92.6v1.97c.76-.69 1.84-1.26 3.26-1.71 1.42-.45 3.04-.68 4.87-.68 2.77 0 5.06.82 6.85 2.47 1.8 1.65 2.69 3.66 2.69 6.04v16.59zM147.03 13.96l-9.67 59.54h-15.92l-9.66-59.54h13.13l4.68 35.17 4.39-35.17h13.05zM161.96 10.71h-13.13V.1h13.13v10.61zm0 62.79h-13.13V13.96h13.13V73.5zM195.22 62.26c0 4.41-1.58 7.63-4.72 9.66-2.52 1.61-6.11 2.42-10.77 2.42-4.66 0-8.25-.87-10.77-2.62-3.02-2.1-4.54-5.42-4.54-9.97v-35.6c0-4.48 1.48-7.77 4.44-9.87 2.58-1.82 6.2-2.73 10.87-2.73 4.6 0 8.19.81 10.77 2.41 3.15 1.96 4.72 5.18 4.72 9.66V48.3h-17.67v13.77c0 .97.19 1.72.57 2.24.38.52.94.78 1.7.78s1.32-.26 1.7-.78c.38-.52.57-1.27.57-2.24V50.19h13.13v12.07zm-13.13-22.99V25.71c0-.97-.19-1.71-.57-2.19-.38-.49-.95-.73-1.7-.73-.63 0-1.17.24-1.61.73-.44.49-.66 1.22-.66 2.19v13.56h4.54zM252.77 13.96l-9.19 59.54H229.1l-4.06-24.36-3.78 24.36h-15.14l-9.19-59.54h12.76l4.49 32.34 4.06-32.34h13.23l4.06 32.34 4.49-32.34h12.75zM304.65 33.39c0 4.48-.95 7.58-2.85 9.29-1.9 1.72-3.43 2.8-4.61 3.25-1.17.46-5.05.61-11.63.47v27.1h-14.08V0h14.17c6.24 0 10.49.49 12.76 1.47 4.16 1.75 6.24 5.6 6.24 11.55v20.37zm-14.08-1.29V14.31c0-1.76-.59-2.93-1.77-3.49-.66-.28-1.74-.42-3.24-.42v25.62c1.64 0 2.68-.1 3.14-.32 1.24-.57 1.87-1.77 1.87-3.6zM338.1 62.26c0 4.48-1.51 7.7-4.54 9.66-2.46 1.61-6.02 2.42-10.68 2.42-4.72 0-8.38-.87-10.96-2.62-3.09-2.1-4.63-5.42-4.63-9.97v-35.6c0-4.48 1.54-7.77 4.63-9.87 2.65-1.82 6.3-2.73 10.96-2.73 4.28 0 7.89 1.03 10.82 3.1 2.93 2.07 4.39 5.06 4.39 8.98v36.63zm-13.14-.2V25.72c0-.98-.19-1.71-.57-2.2-.38-.49-.95-.73-1.7-.73-.63 0-1.17.24-1.61.73-.44.49-.66 1.22-.66 2.2v36.34c0 .98.19 1.73.57 2.25.38.52.95.79 1.7.79.76 0 1.32-.26 1.7-.79.38-.52.57-1.27.57-2.25zM371.27 61.74c0 4.48-1.54 7.77-4.63 9.87-2.65 1.82-6.3 2.73-10.96 2.73-4.54 0-8.06-.81-10.58-2.42-3.09-1.96-4.63-5.18-4.63-9.66v-12.7h13.13v12.51c0 .97.19 1.72.58 2.24.39.52.93.78 1.64.78.71 0 1.24-.26 1.59-.78.35-.52.53-1.27.53-2.24v-4.59c0-4.03-.88-6.64-2.65-7.82-2.39-1.4-4.63-2.73-6.71-3.99-3.09-1.89-5.17-3.59-6.24-5.09-1.07-1.5-1.61-3.66-1.61-6.46v-7.98c0-4.48 1.48-7.77 4.44-9.87 2.58-1.82 6.21-2.73 10.87-2.73 4.54 0 8.03.81 10.49 2.41 2.96 1.96 4.44 5.18 4.44 9.66v11.76h-12.95V25.72c0-.91-.21-1.63-.63-2.15-.42-.52-.9-.79-1.45-.79-.6 0-1.12.25-1.54.73-.42.49-.63 1.23-.63 2.2v5.57c0 2.45.91 4.34 2.74 5.67l5.1 3.04c3.72 2.17 6.02 3.75 6.9 4.72 1.83 1.96 2.74 4.66 2.74 8.09v8.94zM399.8 73.5h-8.31c-5.67 0-9.15-.85-10.44-2.57-1.29-1.71-1.94-5.64-1.94-11.79V22.89h-5.86v-8.92h5.86V2h13.13v11.97h7.09v8.92h-7.09v36.23c0 1.75.54 2.98 1.61 3.67.76.49 1.92.74 3.5.74h2.46v9.97z" fill="#26366D"></path></svg>