<svg xmlns:xlink="http://www.w3.org/1999/xlink" aria-labelledby="fsrLogo" class="header-logo-image logo-fsr header-logo-image--size-md" role="img" viewBox="0 0 362.22 116.07" x="0" xml:space="preserve" xmlns="http://www.w3.org/2000/svg" y="0" width="362.22"  height="116.07" > <text id="fsrLogo">Fort Saskatchewan Record</text> <style>.st0{fill:#004b8c}</style><path class="st0" d="M10.32 48.86H0V33.9h38.37v14.96H28.05v66.44H10.32V48.86zM39.27 33.9h16.49v28.71c2.47-3.3 8.08-6.93 12.45-6.93 5.5 0 8.75 1.76 8.75 11.55v48.07H60.47V73.39c0-1.87-.45-2.64-1.46-2.64-1.12 0-2.58.77-3.25 1.1v43.45H39.27V33.9zm39.96 52.03c0-20.02 6.62-30.25 19.3-30.25 16.94 0 18.4 15.95 18.4 29.7v6.27H95.28c0 7.26.79 11.44 3.37 11.44 2.13 0 2.92-1.65 3.14-7.81l15.26.44c-1.46 12.1-5.95 20.35-18.51 20.35-12.57 0-19.31-10.34-19.31-30.14zm21.99-4.18c-.11-10.34-.45-12.54-2.69-12.54-2.02 0-3.25 2.53-3.25 12.54h5.94zm34.79-47.85h18.74c12.01 0 21.88 7.7 21.88 27.17 0 10.34-2.81 17.49-6.96 21.12l8.19 33.11h-17.28l-6.17-27.17h-1.23v27.17h-17.17V33.9zm18.62 41.58c2.36 0 4.38-2.42 4.38-14.19 0-11.11-2.02-12.43-4.49-12.43h-1.35v26.62h1.46z" fill="#004B8C"></path><path class="st0" d="M176.73 85.93c0-20.02 6.62-30.25 19.3-30.25 16.94 0 18.4 15.95 18.4 29.7v6.27h-21.65c0 7.26.79 11.44 3.37 11.44 2.13 0 2.92-1.65 3.14-7.81l15.26.44c-1.46 12.1-5.95 20.35-18.51 20.35-12.58 0-19.31-10.34-19.31-30.14zm21.99-4.18c-.11-10.34-.45-12.54-2.69-12.54-2.02 0-3.25 2.53-3.25 12.54h5.94zm16.52 4.18c0-20.02 6.73-30.25 19.41-30.25 12.57 0 17.5 8.58 18.51 23.1l-16.04.77c-.22-6.93-.22-10.12-2.47-10.12-2.02 0-2.92 1.54-2.92 16.39 0 14.19.79 17.16 2.92 17.16s2.69-2.86 2.69-11.44l15.82.44c-.56 14.96-5.95 24.09-18.51 24.09-12.56 0-19.41-10.34-19.41-30.14zm38.15 0c0-20.02 6.73-30.25 19.41-30.25 12.57 0 19.41 10.23 19.41 30.25 0 19.8-6.84 30.14-19.41 30.14s-19.41-10.34-19.41-30.14zm22.21-.11c0-14.08-.56-16.39-2.81-16.39-2.02 0-2.92 1.21-2.92 16.39 0 14.19.79 17.16 2.92 17.16 2.14 0 2.81-1.76 2.81-17.16zm18.63-29.37h16.49v9.24h.11c1.91-5.5 5.5-10.01 9.99-10.01 1.01 0 1.91.22 1.91.22v15.73h-1.57c-4.83 0-8.08.55-10.43 1.87v41.8h-16.49V56.45zm28.39 29.48c0-22.22 4.82-30.25 12.34-30.25 4.26 0 7.74 2.86 9.76 7.26V33.9h16.49V101c0 7.04.22 11.33 1.01 14.3h-16.83c-.34-2.09-.67-6.38-.67-6.38-1.57 2.97-5.05 6.93-9.87 6.93-7.52 0-12.23-7.7-12.23-29.92zm22.1 14.52V71.3c-.67-.33-1.35-.77-2.69-.77-1.79 0-2.47 1.1-2.47 15.29 0 13.97.56 15.51 2.58 15.51 1.34 0 2.02-.44 2.58-.88z" fill="#004B8C"></path><path d="M3.48.42h9.21v2.31H5.55V9.9h5.21v2.28H5.55v10.44H3.48V.42zm9.33 14.28c0-5.46 2.25-8.25 5.16-8.25 2.89 0 5.14 2.79 5.14 8.25 0 5.43-2.25 8.25-5.14 8.25-2.89 0-5.16-2.82-5.16-8.25zm8.29 0c0-3.42-.96-6.15-3.14-6.15-2.1 0-3.16 2.46-3.16 6.15 0 3.45.91 6.21 3.16 6.21 2.08 0 3.14-2.46 3.14-6.21zM25.64 6.78h2v2.73h.05c.74-1.59 2.1-3.06 4.12-3.06h.27l-.12 2.28s-.37-.03-.47-.03c-1.7 0-3.09 1.35-3.85 3.24v10.68h-2V6.78zm9.31 12.27V8.79h-1.93V6.78h1.93V1.14h1.98v5.64h2.86v2.01h-2.86v9.72c0 1.62.35 2.34 1.73 2.34.4 0 .86-.09 1.11-.21v1.95c-.3.12-.99.21-1.56.21-2.37 0-3.26-1.02-3.26-3.75zm11.38-1.32l1.78-.99c.84 2.37 2.2 4.02 4.3 4.02 2.15 0 3.43-1.41 3.43-3.57 0-2.58-1.8-3.69-3.75-4.83-2.32-1.35-4.94-2.76-4.94-6.84C47.15 2.28 49.3 0 52.11 0c2.89 0 4.57 2.13 5.46 4.68l-1.78 1.05c-.67-1.86-1.73-3.51-3.7-3.51-1.73 0-2.89 1.32-2.89 3.21 0 2.58 1.78 3.69 3.68 4.83 2.35 1.35 4.99 2.79 4.99 6.87 0 3.24-2.1 5.85-5.46 5.85-3.04 0-4.95-2.04-6.08-5.25zm13.58 1.14c0-3.15 2.2-5.46 7.28-6.69v-.96c0-1.8-.64-2.64-1.95-2.64-1.58 0-2.86.96-3.85 2.13l-1.11-1.47c1.36-1.65 3.09-2.79 5.16-2.79 2.54 0 3.7 1.71 3.7 4.77v7.5c0 1.92.07 3.09.32 3.9h-2c-.15-.63-.27-1.14-.27-2.04-1.06 1.41-2.49 2.25-4.17 2.25-1.95 0-3.11-1.47-3.11-3.96zm7.28-.09v-4.86c-4.02 1.05-5.33 2.73-5.33 4.62 0 1.59.69 2.31 1.83 2.31 1.35 0 2.59-.87 3.5-2.07zm3.95.93l1.36-1.2c.86 1.59 2.15 2.46 3.53 2.46 1.65 0 2.59-.87 2.59-2.34 0-3.9-6.79-2.31-6.79-7.92 0-2.52 1.7-4.26 4.12-4.26 1.93 0 3.36 1.11 4.3 2.85l-1.33 1.26c-.67-1.23-1.65-2.1-2.99-2.1-1.48 0-2.17.9-2.17 2.13 0 3.93 6.74 2.16 6.74 7.92 0 2.76-2 4.44-4.49 4.44-2.26 0-3.86-1.26-4.87-3.24zM82.96.42h1.98v14.52c.27-.6 1.11-1.95 1.8-3.12l2.99-5.04h2.05l-3.53 5.79 3.98 10.05h-2.05l-3.16-8.07-2.07 3.33v4.74h-1.98V.42zM93.19 18.87c0-3.15 2.2-5.46 7.28-6.69v-.96c0-1.8-.64-2.64-1.95-2.64-1.58 0-2.86.96-3.85 2.13l-1.11-1.47c1.36-1.65 3.09-2.79 5.16-2.79 2.54 0 3.7 1.71 3.7 4.77v7.5c0 1.92.07 3.09.32 3.9h-2c-.15-.63-.27-1.14-.27-2.04-1.06 1.41-2.49 2.25-4.17 2.25-1.95 0-3.11-1.47-3.11-3.96zm7.29-.09v-4.86c-4.02 1.05-5.33 2.73-5.33 4.62 0 1.59.69 2.31 1.83 2.31 1.35 0 2.58-.87 3.5-2.07zm5.82.27V8.79h-1.93V6.78h1.93V1.14h1.98v5.64h2.86v2.01h-2.86v9.72c0 1.62.35 2.34 1.73 2.34.4 0 .86-.09 1.11-.21v1.95c-.3.12-.99.21-1.56.21-2.37 0-3.26-1.02-3.26-3.75zm6.62-4.35c0-5.7 2.37-8.25 5.09-8.25 2.64 0 3.75 2.16 4.37 4.71l-1.83.6c-.47-1.98-1.14-3.21-2.59-3.21-1.65 0-3.04 1.83-3.04 6.15 0 3.84 1.11 6.21 3.04 6.21 1.38 0 2.25-1.02 2.74-3.27l1.75.57c-.72 2.97-2.2 4.74-4.57 4.74-2.74 0-4.96-2.82-4.96-8.25zM124.79.42h2v8.55c.86-1.17 2.42-2.52 4.12-2.52 2.1 0 3.21 1.53 3.21 4.41v11.76h-1.98V11.37c0-1.89-.52-2.79-1.85-2.79-1.26 0-2.62 1.17-3.51 2.28v11.76h-2V.42zm11.78 14.28c0-5.7 2.42-8.25 5.04-8.25 2.89 0 4.64 2.82 4.64 8.16v.6h-7.7c.07 3.72 1.26 5.7 3.14 5.7 1.53 0 2.35-1.05 3.09-2.76l1.38 1.05c-.91 2.28-2.49 3.75-4.57 3.75-2.85 0-5.02-2.73-5.02-8.25zm7.77-1.32c-.12-2.88-.99-4.86-2.77-4.86-1.46 0-2.79 1.47-3.01 4.86h5.78zM147.14 6.78h1.93l1.6 7.95c.32 1.56.49 2.55.81 4.41h.05c.27-1.83.47-2.88.79-4.5l1.43-7.86h1.75l1.46 7.8c.32 1.62.57 2.88.81 4.59h.05c.27-1.74.52-2.97.84-4.59l1.53-7.8h1.75l-3.31 15.9h-1.75l-2.3-12.09h-.05l-2.35 12.09h-1.73l-3.31-15.9zm15.8 12.09c0-3.15 2.2-5.46 7.28-6.69v-.96c0-1.8-.64-2.64-1.95-2.64-1.58 0-2.86.96-3.85 2.13l-1.11-1.47c1.36-1.65 3.09-2.79 5.16-2.79 2.54 0 3.7 1.71 3.7 4.77v7.5c0 1.92.07 3.09.32 3.9h-2c-.15-.63-.27-1.14-.27-2.04-1.06 1.41-2.49 2.25-4.17 2.25-1.95 0-3.11-1.47-3.11-3.96zm7.28-.09v-4.86c-4.02 1.05-5.33 2.73-5.33 4.62 0 1.59.69 2.31 1.83 2.31 1.35 0 2.59-.87 3.5-2.07zM175.26 6.78h2v2.19c.86-1.17 2.42-2.52 4.12-2.52 2.1 0 3.21 1.53 3.21 4.41v11.76h-1.97V11.37c0-1.89-.52-2.79-1.85-2.79-1.26 0-2.62 1.17-3.51 2.28v11.76h-2V6.78z"></path></svg>