<svg xmlns:xlink="http://www.w3.org/1999/xlink" aria-labelledby="gqrLogo" class="header-logo-image logo-gqr" role="img" viewBox="0 0 698.46 119.21" x="0" xmlns="http://www.w3.org/2000/svg" y="0" width="698.46"  height="119.21" > <text id="gqrLogo">Gananoque Reporter</text><style>.st0{fill:#004b8c}</style><path class="st0" d="M39.12 105.52h-8.31l-2.25-4.22c-1.87 1.67-3.41 2.82-4.6 3.42-2.17 1.14-4.64 1.71-7.41 1.71-4.27 0-7.79-1.03-10.55-3.08-3.29-2.43-4.94-5.97-4.94-10.61V40.59c0-5.1 1.35-8.86 4.04-11.3 3.14-2.81 8.31-4.22 15.5-4.22 6.29 0 11.04 1.41 14.26 4.22 2.84 2.51 4.27 5.82 4.27 9.93v14.84H23.52V37.75c0-.69-.21-1.19-.63-1.49-.42-.31-1.09-.46-2.01-.46-.84 0-1.49.15-1.95.46-.46.31-.69.8-.69 1.49v55.67c0 .61.25 1.09.75 1.43.5.34 1.13.52 1.89.52.69 0 1.3-.16 1.84-.48.54-.32.8-.84.8-1.57V78.25h-3.71v-12.1h19.31v39.37zM79.32 105.52H65.51v-2.51c-.75 1.45-1.89 2.38-3.42 2.8-1.54.42-3.72.63-6.57.63-4.64 0-7.94-.84-9.88-2.51-1.95-1.67-2.92-4.22-2.92-7.65V83.27c0-5.17 3.5-9.47 10.5-12.89s10.5-5.82 10.5-7.19V53.6c0-1.06-.22-1.86-.66-2.4-.44-.53-1.1-.8-1.98-.8-.73 0-1.36.27-1.87.8s-.77 1.33-.77 2.4v12.78H43.28v-12.9c0-4.79 1.91-8.29 5.73-10.5 3.07-1.75 7.37-2.62 12.91-2.62s9.69.95 12.46 2.85c3.29 2.21 4.94 5.82 4.94 10.84v51.47zm-15.61-12.1V76.76c-2.1.53-3.52 1.18-4.27 1.94-.75.76-1.12 1.75-1.12 2.97v11.75c0 .99.24 1.73.73 2.23s1.18.74 2.08.74c.75 0 1.37-.25 1.85-.74.49-.49.73-1.24.73-2.23zM119.74 105.52h-15.61V53.49c0-1.98-.9-2.97-2.7-2.97-.9 0-1.57.24-2.02.71-.45.47-.67 1.23-.67 2.25v52.04h-15.6v-64.7h15.61v2.17c.9-.76 2.19-1.39 3.87-1.88 1.68-.49 3.61-.74 5.78-.74 3.29 0 6.01.9 8.14 2.68 2.13 1.79 3.2 3.98 3.2 6.56v55.91zM159.83 105.52h-13.81v-2.51c-.75 1.45-1.89 2.38-3.42 2.8-1.54.42-3.72.63-6.57.63-4.64 0-7.94-.84-9.88-2.51-1.95-1.67-2.92-4.22-2.92-7.65V83.27c0-5.17 3.5-9.47 10.5-12.89s10.5-5.82 10.5-7.19V53.6c0-1.06-.22-1.86-.66-2.4-.44-.53-1.1-.8-1.98-.8-.73 0-1.36.27-1.87.8s-.77 1.33-.77 2.4v12.78h-15.16v-12.9c0-4.79 1.91-8.29 5.73-10.5 3.07-1.75 7.37-2.62 12.91-2.62s9.69.95 12.46 2.85c3.29 2.21 4.94 5.82 4.94 10.84v51.47zm-15.61-12.1V76.76c-2.1.53-3.52 1.18-4.27 1.94-.75.76-1.12 1.75-1.12 2.97v11.75c0 .99.24 1.73.73 2.23s1.18.74 2.08.74c.75 0 1.37-.25 1.85-.74.49-.49.73-1.24.73-2.23zM200.25 105.52h-15.61V53.49c0-1.98-.9-2.97-2.7-2.97-.9 0-1.57.24-2.02.71-.45.47-.67 1.23-.67 2.25v52.04h-15.61v-64.7h15.61v2.17c.9-.76 2.19-1.39 3.87-1.88 1.68-.49 3.61-.74 5.78-.74 3.29 0 6.01.9 8.14 2.68 2.13 1.79 3.2 3.98 3.2 6.56v55.91zM240.23 93.31c0 4.87-1.8 8.37-5.39 10.5-2.92 1.75-7.15 2.62-12.69 2.62-5.61 0-9.96-.95-13.02-2.85-3.67-2.28-5.5-5.89-5.5-10.84V54.05c0-4.87 1.83-8.45 5.5-10.73 3.14-1.98 7.48-2.97 13.02-2.97 5.09 0 9.38 1.12 12.86 3.37 3.48 2.25 5.22 5.5 5.22 9.76v39.83zm-15.61-.22v-39.5c0-1.06-.22-1.86-.67-2.39-.45-.53-1.12-.8-2.02-.8-.75 0-1.39.27-1.91.8s-.79 1.33-.79 2.39v39.5c0 1.06.22 1.88.67 2.45.45.57 1.12.85 2.02.85.9 0 1.57-.28 2.02-.85.45-.57.68-1.39.68-2.45zM279.64 119.21h-15.61v-15.18c-.97.76-2.27 1.35-3.87 1.77-1.61.42-3.54.63-5.78.63-3.29 0-6.01-.88-8.14-2.62-2.13-1.75-3.2-3.88-3.2-6.39V50.97c0-2.66 1.16-5.02 3.48-7.08 2.69-2.36 6.33-3.54 10.89-3.54 2.92 0 5.28.57 7.07 1.71l2.02 1.37 1.35-2.62h11.79v78.4zm-15.61-25.67V53.37c0-.99-.22-1.73-.67-2.22-.45-.49-1.12-.74-2.02-.74-1.8 0-2.7.99-2.7 2.97v40.05c0 1.98.9 2.97 2.7 2.97.9 0 1.57-.25 2.02-.74.44-.5.67-1.21.67-2.12zM319.61 105.52H304v-2.2c-.82.85-2.08 1.58-3.76 2.19-1.68.61-3.65.92-5.89.92-3.29 0-6.01-.88-8.14-2.62-2.13-1.75-3.2-3.88-3.2-6.39v-56.6h15.61v52.5c0 1.98.9 2.96 2.7 2.96.9 0 1.57-.25 2.02-.74.45-.49.67-1.19.67-2.11V40.82h15.61v64.7zM359.58 93.31c0 4.79-1.87 8.29-5.61 10.5-3 1.75-7.26 2.62-12.8 2.62-5.54 0-9.81-.95-12.8-2.85-3.59-2.28-5.39-5.89-5.39-10.84V54.05c0-4.87 1.76-8.45 5.28-10.73 3.07-1.98 7.37-2.97 12.91-2.97 5.46 0 9.73.88 12.8 2.62 3.74 2.13 5.61 5.63 5.61 10.5v24.65h-21V93.1c0 1.06.22 1.87.67 2.44.45.57 1.12.85 2.02.85.9 0 1.57-.28 2.02-.85.45-.57.67-1.38.67-2.44V80.19h15.61v13.12zm-15.61-24.99V53.58c0-1.06-.22-1.85-.67-2.38-.45-.53-1.12-.79-2.02-.79-.75 0-1.39.27-1.91.79-.52.53-.79 1.32-.79 2.38v14.74h5.39zM425.83 105.52h-17.18c-.97-1.14-1.65-2.83-2.02-5.08-.38-2.24-.56-5.42-.56-9.53V71.29c0-1.98-.49-3.18-1.46-3.59-.97-.42-2.32-.63-4.04-.63v38.46h-17.18V25.64h21.33c5.69 0 10.12 1.29 13.31 3.86 3.18 2.57 4.77 5.98 4.77 10.22v9.54c0 2.65-.41 4.69-1.23 6.13-1.49 2.65-4.61 4.77-9.37 6.36 4.38 1.14 7.4 2.93 9.03 5.37 1.04 1.6 1.56 3.81 1.56 6.63V91c.15 2.82.3 4.95.45 6.4.53 4.5 1.39 7.21 2.59 8.12zm-19.76-52.47V40c0-1.97-.49-3.16-1.46-3.58-.97-.42-2.32-.62-4.04-.62v21.45c1.79 0 2.96-.11 3.51-.34 1.32-.61 1.99-1.89 1.99-3.86zM464.68 93.31c0 4.79-1.87 8.29-5.62 10.5-2.99 1.75-7.26 2.62-12.8 2.62-5.54 0-9.81-.95-12.8-2.85-3.59-2.28-5.39-5.89-5.39-10.84V54.05c0-4.87 1.76-8.45 5.28-10.73 3.07-1.98 7.37-2.97 12.91-2.97 5.46 0 9.73.88 12.8 2.62 3.74 2.13 5.62 5.63 5.62 10.5v24.65h-21V93.1c0 1.06.22 1.87.67 2.44.45.57 1.12.85 2.02.85.9 0 1.57-.28 2.02-.85.45-.57.67-1.38.67-2.44V80.19h15.61v13.12zm-15.61-24.99V53.58c0-1.06-.22-1.85-.67-2.38-.45-.53-1.12-.79-2.02-.79-.75 0-1.39.27-1.91.79-.52.53-.79 1.32-.79 2.38v14.74h5.39zM504.77 97.42c0 2.51-1.05 4.64-3.14 6.39-2.1 1.75-4.83 2.62-8.2 2.62-2.1 0-4.01-.23-5.73-.68-1.72-.46-3.03-1.03-3.93-1.71v15.18h-15.61v-78.4h11.79l1.35 2.62c1.05-.84 1.98-1.44 2.81-1.83 1.65-.84 3.74-1.25 6.29-1.25 4.49 0 8.08 1.18 10.78 3.54 2.39 2.05 3.59 4.41 3.59 7.08v46.44zm-15.61-4V53.37c0-1.98-.9-2.97-2.69-2.97-.9 0-1.57.25-2.02.74-.45.5-.67 1.24-.67 2.22v40.17c0 .91.24 1.62.73 2.11.48.5 1.14.74 1.96.74 1.79.01 2.69-.98 2.69-2.96zM544.85 93.31c0 4.87-1.8 8.37-5.39 10.5-2.92 1.75-7.15 2.62-12.69 2.62-5.61 0-9.96-.95-13.03-2.85-3.67-2.28-5.5-5.89-5.5-10.84V54.05c0-4.87 1.83-8.45 5.5-10.73 3.14-1.98 7.48-2.97 13.03-2.97 5.09 0 9.38 1.12 12.86 3.37 3.48 2.25 5.22 5.5 5.22 9.76v39.83zm-15.61-.22v-39.5c0-1.06-.22-1.86-.67-2.39-.45-.53-1.12-.8-2.02-.8-.75 0-1.39.27-1.91.8-.53.53-.79 1.33-.79 2.39v39.5c0 1.06.22 1.88.67 2.45.45.57 1.12.85 2.02.85.9 0 1.57-.28 2.02-.85.46-.57.68-1.39.68-2.45zM584.49 67.63h-15.61V53.5c0-1.99-.9-2.99-2.7-2.99-.9 0-1.57.23-2.02.69-.45.46-.67 1.18-.67 2.17v52.15h-15.61v-64.7h15.61v2.14c.9-.75 2.19-1.37 3.88-1.86 1.68-.49 3.61-.73 5.78-.73 3.29 0 6.01.9 8.14 2.68 2.13 1.79 3.2 3.98 3.2 6.56v18.02zM618.4 105.52h-9.88c-6.74 0-10.87-.93-12.41-2.79-1.54-1.86-2.3-6.13-2.3-12.81v-39.4h-6.96v-9.7h6.96V27.81h15.61v13.01h8.42v9.7h-8.42v39.37c0 1.9.64 3.23 1.91 3.99.9.53 2.28.8 4.15.8h2.92v10.84zM658.15 93.31c0 4.79-1.87 8.29-5.62 10.5-2.99 1.75-7.26 2.62-12.8 2.62-5.54 0-9.81-.95-12.8-2.85-3.59-2.28-5.39-5.89-5.39-10.84V54.05c0-4.87 1.76-8.45 5.28-10.73 3.07-1.98 7.37-2.97 12.91-2.97 5.46 0 9.73.88 12.8 2.62 3.74 2.13 5.62 5.63 5.62 10.5v24.65h-21V93.1c0 1.06.22 1.87.67 2.44.45.57 1.12.85 2.02.85.9 0 1.57-.28 2.02-.85.45-.57.67-1.38.67-2.44V80.19h15.61v13.12zm-15.61-24.99V53.58c0-1.06-.22-1.85-.67-2.38-.45-.53-1.12-.79-2.02-.79-.75 0-1.39.27-1.91.79-.52.53-.79 1.32-.79 2.38v14.74h5.39zM698.46 67.63h-15.61V53.5c0-1.99-.9-2.99-2.69-2.99-.9 0-1.57.23-2.02.69-.45.46-.67 1.18-.67 2.17v52.15h-15.61v-64.7h15.61v2.14c.9-.75 2.19-1.37 3.87-1.86 1.69-.49 3.61-.73 5.78-.73 3.29 0 6.01.9 8.14 2.68 2.13 1.79 3.2 3.98 3.2 6.56v18.02z" fill="#004B8C"></path><g><path d="M7.26 18.39H4.87V2.01H0V0h12.15v2.01H7.26v16.38zM13.87 0h2.28v6.16h.05c.6-1.13 2.2-1.93 3.51-1.93 3.75 0 3.75 2.76 3.75 4.38v9.79h-2.28V8.86c0-1.06-.08-2.78-2.15-2.78-1.22 0-2.88.77-2.88 2.78v9.53h-2.28V0zM28.36 11.75c0 2.11 0 5.31 2.8 5.31 2.18 0 2.47-2.16 2.47-3.19h2.28c0 1.47-.92 4.89-4.89 4.89-3.56 0-5.06-2.34-5.06-7.08 0-3.45.71-7.44 5.19-7.44 4.46 0 4.87 3.68 4.87 6.65v.88h-7.66zm5.28-1.7V9.3c0-1.55-.52-3.37-2.53-3.37-2.39 0-2.66 2.78-2.66 3.61v.52h5.19z"></path></g></svg>