<svg xmlns:xlink="http://www.w3.org/1999/xlink" aria-labelledby="kdmLogo" class="header-logo-image logo-kdm" viewBox="0 0 440.36 115.87" x="0" xml:space="preserve" xmlns="http://www.w3.org/2000/svg" y="0" width="440.36"  height="115.87" ><text id="kdmLogo">Kenora Miner</text><style>.st0{fill:#004b8c}</style><path d="M.79 0h2.07v11.64c.3-.63 1.16-2.16 1.9-3.42L9.5 0h2.2L6.64 8.61l5.88 13.59h-2.2L5.35 10.74l-2.49 4.14v7.32H.79V0zm12.6 14.28c0-5.7 2.42-8.25 5.04-8.25 2.89 0 4.64 2.82 4.64 8.16v.6h-7.7c.07 3.72 1.26 5.7 3.14 5.7 1.53 0 2.35-1.05 3.09-2.76l1.38 1.05c-.91 2.28-2.49 3.75-4.57 3.75-2.84 0-5.02-2.73-5.02-8.25zm7.78-1.32c-.12-2.88-.99-4.86-2.77-4.86-1.46 0-2.79 1.47-3.01 4.86h5.78zm4.44-6.6h2v2.19c.86-1.17 2.42-2.52 4.12-2.52 2.1 0 3.21 1.53 3.21 4.41V22.2h-1.97V10.95c0-1.89-.52-2.79-1.85-2.79-1.26 0-2.62 1.17-3.51 2.28V22.2h-2V6.36zm11.78 7.92c0-5.46 2.25-8.25 5.16-8.25 2.89 0 5.14 2.79 5.14 8.25 0 5.43-2.25 8.25-5.14 8.25-2.89 0-5.16-2.82-5.16-8.25zm8.29 0c0-3.42-.96-6.15-3.14-6.15-2.1 0-3.16 2.46-3.16 6.15 0 3.45.91 6.21 3.16 6.21 2.08 0 3.14-2.46 3.14-6.21zm4.55-7.92h2v2.73h.05c.74-1.59 2.1-3.06 4.12-3.06h.27l-.12 2.28s-.37-.03-.47-.03c-1.7 0-3.09 1.35-3.85 3.24V22.2h-2V6.36zm7.19 12.09c0-3.15 2.2-5.46 7.28-6.69v-.96c0-1.8-.64-2.64-1.95-2.64-1.58 0-2.86.96-3.85 2.13l-1.11-1.47c1.36-1.65 3.09-2.79 5.16-2.79 2.54 0 3.7 1.71 3.7 4.77v7.5c0 1.92.07 3.09.32 3.9h-2c-.15-.63-.27-1.14-.27-2.04-1.06 1.41-2.49 2.25-4.17 2.25-1.95 0-3.11-1.47-3.11-3.96zm7.29-.09V13.5c-4.02 1.05-5.33 2.73-5.33 4.62 0 1.59.69 2.31 1.83 2.31 1.35 0 2.58-.87 3.5-2.07zM74.95 0h4.02c5.06 0 7.75 3.27 7.75 11.07 0 7.8-2.77 11.13-7.75 11.13h-4.02V0zm4.3 19.95c3.68 0 5.41-2.64 5.41-8.88 0-6.09-1.73-8.76-5.43-8.76h-2.2v17.64h2.22zm9.5-1.5c0-3.15 2.2-5.46 7.28-6.69v-.96c0-1.8-.64-2.64-1.95-2.64-1.58 0-2.86.96-3.85 2.13l-1.11-1.47c1.36-1.65 3.09-2.79 5.16-2.79 2.54 0 3.7 1.71 3.7 4.77v7.5c0 1.92.07 3.09.32 3.9h-2c-.15-.63-.27-1.14-.27-2.04-1.06 1.41-2.49 2.25-4.17 2.25-1.95 0-3.11-1.47-3.11-3.96zm7.28-.09V13.5c-4.02 1.05-5.33 2.73-5.33 4.62 0 1.59.69 2.31 1.83 2.31 1.35 0 2.59-.87 3.5-2.07zM101.19.6h2.02v2.61h-2.02V.6zm0 5.76h2V22.2h-2V6.36zM106.62 0h2v22.2h-2V0zm3.88 27.87l.39-1.92c.32.09.94.24 1.58.24 1.14 0 1.58-.78 2.02-2.46l.37-1.38-4.07-15.99h2.05l1.98 8.28c.42 1.74.72 3.09 1.06 4.77h.05c.37-1.74.69-3.15 1.11-4.95l1.93-8.1h1.9l-4.49 17.58c-.77 2.91-1.6 4.29-3.85 4.29-.87 0-1.66-.21-2.03-.36z"></path><path class="st0" d="M0 33.48h20.87l4.71 43.34h.11l4.71-43.34h20.76v81.4h-16.6V86.06c0-6.49.11-13.64.11-18.26h-.22c-.56 6.93-1.12 13.31-1.8 18.15l-4.04 28.93H20.2l-4.04-28.93c-.67-4.84-1.01-8.91-1.79-17.93h-.22c.11 2.42.11 10.89.11 18.04v28.82H0v-81.4zm55.31 2.2h16.72v15.51H55.31V35.68zm.12 20.35h16.49v58.85H55.43V56.03zm20.3 0h16.49v6.16c2.47-3.3 8.08-6.93 12.45-6.93 5.5 0 8.75 1.76 8.75 11.55v48.07H96.94V72.97c0-1.87-.45-2.64-1.46-2.64-1.12 0-2.58.77-3.25 1.1v43.45h-16.5V56.03zm39.72 29.48c0-20.02 6.62-30.25 19.3-30.25 16.94 0 18.4 15.95 18.4 29.7v6.27H131.5c0 7.26.79 11.44 3.37 11.44 2.13 0 2.92-1.65 3.14-7.81l15.26.44c-1.46 12.1-5.95 20.35-18.51 20.35-12.58 0-19.31-10.34-19.31-30.14zm21.99-4.18c-.11-10.34-.45-12.54-2.69-12.54-2.02 0-3.25 2.53-3.25 12.54h5.94zM155.83 56.03h16.49v9.24h.11c1.91-5.5 5.5-10.01 9.99-10.01 1.01 0 1.91.22 1.91.22v15.73h-1.57c-4.82 0-8.08.55-10.43 1.87v41.8h-16.49V56.03zm43.99 39.6c0-10.67 5.61-18.48 11.67-23.76-3.03-6.82-4.82-11.99-4.82-19.03 0-16.06 11.67-20.24 19.07-20.24 12.68 0 16.94 7.48 16.94 17.27 0 11.44-7.52 18.81-14.36 24.2.56 1.1 1.01 1.98 1.68 3.08 1.79 3.08 3.81 6.05 5.83 8.58.79-4.07 1.23-8.8 1.57-14.19h13.8c-.67 9.13-2.02 17.71-4.49 24.86 1.91 1.43 3.7 2.53 5.27 3.08v15.73c-4.71-.44-9.31-2.42-13.69-5.39-4.15 3.74-9.54 5.83-16.72 5.83-13.79 0-21.75-7.59-21.75-20.02zm28.61 5.39c-3.14-3.52-6.06-7.59-8.64-11.77-.56-.88-1.57-2.42-1.91-3.52-1.01 2.31-1.68 5.83-1.68 8.8 0 3.41 1.68 7.92 7.29 7.92 1.91 0 3.48-.55 4.94-1.43zm.11-49.94c0-3.3-1.23-4.73-3.03-4.73-2.36 0-3.7 2.31-3.7 5.83 0 3.85.79 7.7 1.91 11.11 2.91-3.52 4.82-8.47 4.82-12.21zM270.61 33.48h16.38l3.48 14.85c1.91 8.03 4.04 17.27 5.5 25.52h.22c-.56-9.02-.79-17.05-.79-24.42V33.48h15.15v81.4h-14.36l-4.15-14.19c-2.58-8.69-5.27-16.61-6.84-25.52h-.22c.67 6.27.79 19.14.79 24.75v14.96h-15.15v-81.4zm41.96 52.03c0-20.02 6.62-30.25 19.3-30.25 16.94 0 18.4 15.95 18.4 29.7v6.27h-21.65c0 7.26.79 11.44 3.37 11.44 2.13 0 2.92-1.65 3.14-7.81l15.26.44c-1.46 12.1-5.95 20.35-18.51 20.35-12.58 0-19.31-10.34-19.31-30.14zm21.99-4.18c-.11-10.34-.45-12.54-2.69-12.54-2.02 0-3.25 2.53-3.25 12.54h5.94zm14.81-25.3h16.38l1.91 23.87c.22 3.19.22 6.05.45 12.21h.22c.45-5.83.79-9.02 1.23-12.21l3.7-23.87h8.86l3.7 23.87c.45 3.19.9 7.26 1.23 12.21h.22c.11-5.17.22-9.02.45-12.21l1.91-23.87h15.26l-7.85 59.18h-15.93l-3.93-27.94h-.22l-3.93 27.94h-15.82l-7.84-59.18zm54.08 40.81l14.36-1.76c.79 6.16 2.58 8.47 4.15 8.47 1.35 0 2.47-.44 2.47-2.53 0-3.63-3.7-5.06-7.97-8.47-5.5-4.4-11.89-10.23-11.89-20.9 0-13.09 10.21-16.83 16.72-16.83 10.88 0 17.39 4.51 18.62 17.93l-14.14 2.2c-.56-6.16-1.46-7.15-3.59-7.15-1.01 0-1.91.77-1.91 2.31 0 3.74 3.37 6.05 7.41 9.13 5.72 4.51 12.68 9.13 12.68 19.58 0 10.23-6.51 17.05-18.06 17.05-14.36 0-17.62-8.14-18.85-19.03z" fill="#004B8C"></path></svg>