<svg xmlns:xlink="http://www.w3.org/1999/xlink" aria-labelledby="ldrLogo" class="header-logo-image logo-ldr header-logo-image--size-md" role="img" viewBox="0 0 329.28 136.87" x="0" xml:space="preserve" xmlns="http://www.w3.org/2000/svg" y="0" width="329.28"  height="136.87" > <text id="ldrLogo">Leduc Representative</text> <style>.st0{fill:#004b8c}</style><path class="st0" d="M.46 33.47h17.73v66.99h13.8v14.41H.46v-81.4zM31.98 85.5c0-20.02 6.62-30.25 19.3-30.25 16.94 0 18.4 15.95 18.4 29.7v6.27H48.03c0 7.26.79 11.44 3.37 11.44 2.13 0 2.92-1.65 3.14-7.81l15.26.44c-1.46 12.1-5.95 20.35-18.51 20.35-12.57 0-19.31-10.34-19.31-30.14zm21.99-4.18c-.11-10.34-.45-12.54-2.69-12.54-2.02 0-3.25 2.53-3.25 12.54h5.94zm16.61 4.18c0-22.22 4.82-30.25 12.34-30.25 4.26 0 7.74 2.86 9.76 7.26V33.47h16.49v67.1c0 7.04.22 11.33 1.01 14.3H93.36c-.34-2.09-.67-6.38-.67-6.38-1.57 2.97-5.05 6.93-9.87 6.93-7.53 0-12.24-7.7-12.24-29.92zm22.1 14.52V70.87c-.67-.33-1.35-.77-2.69-.77-1.8 0-2.47 1.1-2.47 15.29 0 13.97.56 15.51 2.58 15.51 1.35 0 2.02-.44 2.58-.88zm19.97 4.07V56.02h16.49v42.35c0 1.87.45 2.64 1.46 2.64 1.12 0 2.58-.22 3.25-.55V56.02h16.49v58.85h-16.49v-6.16c-2.47 3.3-8.08 6.93-12.45 6.93-5.49 0-8.75-1.76-8.75-11.55zm40.43-18.59c0-20.02 6.73-30.25 19.41-30.25 12.57 0 17.5 8.58 18.51 23.1l-16.04.77c-.22-6.93-.22-10.12-2.47-10.12-2.02 0-2.92 1.54-2.92 16.39 0 14.19.79 17.16 2.92 17.16s2.69-2.86 2.69-11.44l15.82.44c-.56 14.96-5.95 24.09-18.51 24.09-12.56 0-19.41-10.34-19.41-30.14zM209.75 33.47h18.74c12.01 0 21.88 7.7 21.88 27.17 0 10.34-2.8 17.49-6.96 21.12l8.19 33.11h-17.28l-6.17-27.17h-1.23v27.17h-17.17v-81.4zm18.62 41.58c2.36 0 4.38-2.42 4.38-14.19 0-11.11-2.02-12.43-4.49-12.43h-1.35v26.62h1.46z" fill="#004B8C"></path><path class="st0" d="M250.47 85.5c0-20.02 6.62-30.25 19.3-30.25 16.94 0 18.4 15.95 18.4 29.7v6.27h-21.65c0 7.26.79 11.44 3.37 11.44 2.13 0 2.92-1.65 3.14-7.81l15.26.44c-1.46 12.1-5.95 20.35-18.51 20.35-12.57 0-19.31-10.34-19.31-30.14zm21.99-4.18c-.11-10.34-.45-12.54-2.69-12.54-2.02 0-3.25 2.53-3.25 12.54h5.94zM290.68 56.02h16.49v6.16c1.57-2.97 5.05-6.93 9.87-6.93 7.52 0 12.23 7.92 12.23 30.14s-4.82 30.03-12.34 30.03c-4.26 0-7.74-2.86-9.76-7.26v28.71h-16.49V56.02zm21.66 29.48c0-13.97-.56-15.18-2.58-15.18-1.12 0-2.02.44-2.58.88v29.26c.67.33 1.35.66 2.69.66 1.79 0 2.47-1.43 2.47-15.62z" fill="#004B8C"></path><g><path d="M4.72 2.31H0V0h11.5v2.31H6.79V22.2H4.72V2.31zM13.75 0h2v8.55c.86-1.17 2.42-2.52 4.12-2.52 2.1 0 3.21 1.53 3.21 4.41V22.2H21.1V10.95c0-1.89-.52-2.79-1.85-2.79-1.26 0-2.62 1.17-3.51 2.28V22.2h-2V0zm11.77 14.28c0-5.7 2.42-8.25 5.04-8.25 2.89 0 4.64 2.82 4.64 8.16v.6h-7.7c.07 3.72 1.26 5.7 3.14 5.7 1.53 0 2.35-1.05 3.09-2.76l1.38 1.05c-.91 2.28-2.49 3.75-4.57 3.75-2.84 0-5.02-2.73-5.02-8.25zm7.78-1.32c-.12-2.88-.99-4.86-2.77-4.86-1.46 0-2.79 1.47-3.01 4.86h5.78z"></path></g></svg>