<svg xmlns:xlink="http://www.w3.org/1999/xlink" aria-labelledby="bmnLogo" class="header-logo-image logo-bmn header-logo-image--size-md" role="img" viewBox="0 0 520.19 115.86" x="0" xml:space="preserve" xmlns="http://www.w3.org/2000/svg" y="0" width="520.19"  height="115.86" > <text id="bmnLogo">La Nouvelle Beaumont News</text> <style>.st0{fill:#004b8c}</style><path d="M.79 0h2.07v19.92h7.23v2.28H.79V0zm10.96 18.45c0-3.15 2.2-5.46 7.28-6.69v-.96c0-1.8-.64-2.64-1.95-2.64-1.58 0-2.86.96-3.85 2.13l-1.11-1.47c1.36-1.65 3.09-2.79 5.16-2.79 2.54 0 3.7 1.71 3.7 4.77v7.5c0 1.92.07 3.09.32 3.9h-2c-.15-.63-.27-1.14-.27-2.04-1.06 1.41-2.49 2.25-4.17 2.25-1.95 0-3.11-1.47-3.11-3.96zm7.28-.09V13.5c-4.02 1.05-5.33 2.73-5.33 4.62 0 1.59.69 2.31 1.83 2.31 1.35 0 2.58-.87 3.5-2.07zM29.27 0h2.42l5.73 13.59c.64 1.5 1.01 2.4 1.6 3.93h.05V0h1.9v22.2h-1.9L32.95 7.89c-.69-1.62-1.04-2.43-1.73-4.2h-.05V22.2h-1.9V0zm14.57 14.28c0-5.46 2.25-8.25 5.16-8.25 2.89 0 5.14 2.79 5.14 8.25 0 5.43-2.25 8.25-5.14 8.25-2.89 0-5.16-2.82-5.16-8.25zm8.29 0c0-3.42-.96-6.15-3.14-6.15-2.1 0-3.16 2.46-3.16 6.15 0 3.45.91 6.21 3.16 6.21 2.08 0 3.14-2.46 3.14-6.21zm4.44 3.84V6.36h1.98v11.31c0 1.86.52 2.76 1.93 2.76 1.23 0 2.37-.96 3.43-2.28V6.36h2V22.2h-2v-2.19c-.99 1.32-2.4 2.52-4.12 2.52-2.1 0-3.22-1.53-3.22-4.41zM67.93 6.36h2l2.12 9 .94 4.26h.05c.35-1.77.59-2.85.91-4.26l2.1-9h1.88l-3.95 15.9h-2.1l-3.95-15.9zM78.83 14.28c0-5.7 2.42-8.25 5.04-8.25 2.89 0 4.64 2.82 4.64 8.16v.6h-7.7c.07 3.72 1.26 5.7 3.14 5.7 1.53 0 2.35-1.05 3.09-2.76l1.38 1.05c-.91 2.28-2.49 3.75-4.57 3.75-2.85 0-5.02-2.73-5.02-8.25zm7.78-1.32c-.12-2.88-.99-4.86-2.77-4.86-1.46 0-2.79 1.47-3.01 4.86h5.78zM91.18 0h2v22.2h-2V0zm5.43 0h2v22.2h-2V0zm4.69 14.28c0-5.7 2.42-8.25 5.04-8.25 2.89 0 4.64 2.82 4.64 8.16v.6h-7.7c.07 3.72 1.26 5.7 3.14 5.7 1.53 0 2.35-1.05 3.09-2.76l1.38 1.05c-.91 2.28-2.49 3.75-4.57 3.75-2.85 0-5.02-2.73-5.02-8.25zm7.77-1.32c-.12-2.88-.99-4.86-2.77-4.86-1.46 0-2.79 1.47-3.01 4.86h5.78z"></path><path class="st0" d="M0 33.47h18.18c11.22 0 21.21 4.73 21.21 20.57 0 12.98-4.26 16.94-9.54 18.81v.22c6.17 1.87 11.22 6.05 11.22 19.8 0 16.94-10.1 22-21.54 22H0v-81.4zm18.4 33.77c1.91 0 3.93-.99 3.93-9.79 0-8.69-1.91-9.35-3.93-9.35h-1.23v19.14h1.23zm.34 34.65c2.92 0 4.82-2.86 4.82-11.44 0-9.46-2.24-11.66-5.16-11.66h-1.23v23.1h1.57zM41.96 85.5c0-20.02 6.62-30.25 19.3-30.25 16.94 0 18.4 15.95 18.4 29.7v6.27H58.01c0 7.26.79 11.44 3.37 11.44 2.13 0 2.92-1.65 3.14-7.81l15.26.44c-1.46 12.1-5.95 20.35-18.51 20.35-12.58 0-19.31-10.34-19.31-30.14zm21.99-4.18c-.11-10.34-.45-12.54-2.69-12.54-2.02 0-3.25 2.53-3.25 12.54h5.94zm16.38 18.15c0-12.54 7.18-19.8 20.98-23.21v-3.63c0-3.74-.34-4.4-1.91-4.4-1.46 0-2.02.88-2.69 5.06l-14.59-1.76c2.69-13.31 9.76-16.28 19.19-16.28 11 0 15.71 4.95 15.71 16.72v28.6c0 7.04.22 11.33.9 14.3H102.1c-.56-1.54-.79-3.08-.79-6.93-2.02 4.29-4.82 7.37-9.99 7.37-5.94 0-10.99-3.96-10.99-15.84zm20.98.66V87.15c-4.04 2.09-5.16 5.61-5.16 10.01 0 2.31.79 3.85 2.47 3.85.9 0 2.02-.44 2.69-.88zm19.3 3.96V56.02h16.49v42.35c0 1.87.45 2.64 1.46 2.64 1.12 0 2.58-.22 3.25-.55V56.02h16.49v58.85h-16.49v-6.16c-2.47 3.3-8.08 6.93-12.45 6.93-5.49 0-8.75-1.76-8.75-11.55zm41.4-48.07h16.49v6.16c2.47-3.3 8.08-6.93 12.45-6.93 4.49 0 7.52 1.21 8.42 7.04 2.92-3.63 8.75-7.04 12.79-7.04 5.5 0 8.75 1.76 8.75 11.55v48.07h-16.49V72.96c0-1.87-.45-2.64-1.46-2.64s-2.47.66-3.25 1.1v43.45h-16.49V72.96c0-1.87-.45-2.64-1.46-2.64-1.12 0-2.58.77-3.25 1.1v43.45h-16.49V56.02zm61.04 29.48c0-20.02 6.73-30.25 19.41-30.25 12.57 0 19.41 10.23 19.41 30.25 0 19.8-6.84 30.14-19.41 30.14s-19.41-10.34-19.41-30.14zm22.21-.11c0-14.08-.56-16.39-2.81-16.39-2.02 0-2.92 1.21-2.92 16.39 0 14.19.79 17.16 2.92 17.16 2.14 0 2.81-1.76 2.81-17.16zm18.85-29.37h16.49v6.16c2.47-3.3 8.08-6.93 12.45-6.93 5.5 0 8.75 1.76 8.75 11.55v48.07h-16.49V72.96c0-1.87-.45-2.64-1.46-2.64-1.12 0-2.58.77-3.25 1.1v43.45h-16.49V56.02zM307.03 103.98V68.45h-4.49V56.02h4.49V36.11h16.38v19.91h7.52v12.43h-7.52v29.48c0 5.39 1.12 5.72 3.93 5.72 1.57 0 2.8-.22 3.59-.44v11.55c-1.01.33-4.49.66-9.2.66-8.53 0-14.7-1.98-14.7-11.44zm43.19-70.51h16.38l3.48 14.85c1.91 8.03 4.04 17.27 5.5 25.52h.22c-.56-9.02-.79-17.05-.79-24.42V33.47h15.15v81.4H375.8l-4.15-14.19c-2.58-8.69-5.27-16.61-6.84-25.52h-.22c.67 6.27.79 19.14.79 24.75v14.96h-15.15v-81.4zM392.54 85.5c0-20.02 6.62-30.25 19.3-30.25 16.94 0 18.4 15.95 18.4 29.7v6.27h-21.65c0 7.26.79 11.44 3.37 11.44 2.13 0 2.92-1.65 3.14-7.81l15.26.44c-1.46 12.1-5.95 20.35-18.51 20.35-12.58 0-19.31-10.34-19.31-30.14zm21.99-4.18c-.11-10.34-.45-12.54-2.69-12.54-2.02 0-3.25 2.53-3.25 12.54h5.94zm14.81-25.3h16.38l1.91 23.87c.22 3.19.22 6.05.45 12.21h.22c.45-5.83.79-9.02 1.23-12.21l3.7-23.87h8.86l3.7 23.87c.45 3.19.9 7.26 1.23 12.21h.22c.11-5.17.22-9.02.45-12.21l1.91-23.87h15.26l-7.85 59.18h-15.93l-3.93-27.94h-.22L453 115.2h-15.8l-7.86-59.18zM483.28 96.83l14.36-1.76c.79 6.16 2.58 8.47 4.15 8.47 1.35 0 2.47-.44 2.47-2.53 0-3.63-3.7-5.06-7.97-8.47-5.5-4.4-11.89-10.23-11.89-20.9 0-13.09 10.21-16.83 16.72-16.83 10.88 0 17.39 4.51 18.62 17.93l-14.14 2.2c-.56-6.16-1.46-7.15-3.59-7.15-1.01 0-1.91.77-1.91 2.31 0 3.74 3.37 6.05 7.41 9.13 5.72 4.51 12.68 9.13 12.68 19.58 0 10.23-6.51 17.05-18.06 17.05-14.37 0-17.62-8.14-18.85-19.03z" fill="#004B8C"></path></svg>