<svg xmlns:xlink="http://www.w3.org/1999/xlink" aria-labelledby="mfjLogo" class="header-logo-image logo-mfj" role="img" viewBox="0 0 476 95.7" xml:space="preserve" xmlns="http://www.w3.org/2000/svg" width="476"  height="95.7" > <text id="mfjLogo">Melfort Journal</text><path d="M52.4 89.2h-13V48l-7.5 41.3h-10L13.1 48v41.3H1.7V15.7h18.8l6.6 38.1L33 15.7h19.4v73.5zM87.2 78c0 4.4-1.6 7.6-4.7 9.7-2.5 1.6-6.1 2.4-10.8 2.4-4.7 0-8.3-.9-10.8-2.6-3-2.1-4.5-5.4-4.5-10V41.9c0-4.5 1.5-7.8 4.4-9.9 2.6-1.8 6.2-2.7 10.9-2.7 4.6 0 8.2.8 10.8 2.4 3.1 2 4.7 5.2 4.7 9.7V64H69.5v13.8c0 1 .2 1.7.6 2.2.4.5.9.8 1.7.8.8 0 1.3-.3 1.7-.8.4-.5.6-1.3.6-2.2V65.9h13.1V78zM74.1 55V41.5c0-1-.2-1.7-.6-2.2-.4-.5-.9-.7-1.7-.7-.6 0-1.2.2-1.6.7-.4.5-.7 1.2-.7 2.2V55h4.6zM104.3 89.2H91.2V15.7h13.1v73.5zM132.9 38.6h-7.6v50.6h-13.1V38.6h-4.4v-8.9h4.4c0-6.2.6-9.9 1.7-11.3 1.4-1.7 4.9-2.6 10.7-2.6h8.3v8.1c-2.2 0-3.7.1-4.3.2-2.1.4-3.2 1.3-3.2 2.7v3h7.6v8.8zM166.4 78c0 4.5-1.5 7.7-4.5 9.7-2.5 1.6-6 2.4-10.7 2.4-4.7 0-8.4-.9-11-2.6-3.1-2.1-4.6-5.4-4.6-10V41.9c0-4.5 1.5-7.8 4.6-9.9 2.6-1.8 6.3-2.7 11-2.7 4.3 0 7.9 1 10.8 3.1 2.9 2.1 4.4 5.1 4.4 9V78zm-13.1-.2V41.5c0-1-.2-1.7-.6-2.2-.4-.5-.9-.7-1.7-.7-.6 0-1.2.2-1.6.7-.4.5-.7 1.2-.7 2.2v36.3c0 1 .2 1.7.6 2.3.4.5.9.8 1.7.8.8 0 1.3-.3 1.7-.8.4-.6.6-1.3.6-2.3zM200.7 54.4h-13.1v-13c0-1.8-.8-2.7-2.3-2.7-.8 0-1.3.2-1.7.6-.4.4-.6 1.1-.6 2v48h-13.1V29.7H183v2c.8-.7 1.8-1.3 3.3-1.7 1.4-.4 3-.7 4.9-.7 2.8 0 5.1.8 6.9 2.5 1.8 1.6 2.7 3.7 2.7 6v16.6zM230.2 89.2h-8.3c-5.7 0-9.2-.9-10.4-2.6-1.3-1.7-1.9-5.6-1.9-11.8V38.6h-5.9v-8.9h5.9v-12h13.1v12h7.1v8.9h-7.1v36.2c0 1.8.5 3 1.6 3.7.8.5 1.9.7 3.5.7h2.5v10zM283 76.9c0 4.3-1.5 7.6-4.5 9.9-3 2.2-7 3.4-11.9 3.4-4.6 0-8.3-1.3-11.2-3.9-2.5-2.2-3.8-4.8-3.8-7.7V59.8h12.9v18.3c0 .6.2 1 .6 1.3.4.3.9.5 1.5.5.7 0 1.2-.2 1.5-.5.3-.3.5-.8.5-1.3V16H283v60.9zM317.7 78c0 4.5-1.5 7.7-4.5 9.7-2.5 1.6-6 2.4-10.7 2.4-4.7 0-8.4-.9-11-2.6-3.1-2.1-4.6-5.4-4.6-10V41.9c0-4.5 1.5-7.8 4.6-9.9 2.6-1.8 6.3-2.7 11-2.7 4.3 0 7.9 1 10.8 3.1 2.9 2.1 4.4 5.1 4.4 9V78zm-13.1-.2V41.5c0-1-.2-1.7-.6-2.2-.4-.5-.9-.7-1.7-.7-.6 0-1.2.2-1.6.7-.4.5-.7 1.2-.7 2.2v36.3c0 1 .2 1.7.6 2.3.4.5.9.8 1.7.8.8 0 1.3-.3 1.7-.8.4-.6.6-1.3.6-2.3zM351.8 89.2h-13.1v-2c-.7.8-1.7 1.4-3.2 2-1.4.6-3.1.8-5 .8-2.8 0-5.1-.8-6.9-2.4-1.8-1.6-2.7-3.6-2.7-5.9v-52H334V78c0 1.8.8 2.7 2.3 2.7.8 0 1.3-.2 1.7-.7.4-.5.6-1.1.6-1.9V29.7h13.1v59.5zM386.6 54.4h-13.1v-13c0-1.8-.8-2.7-2.3-2.7-.8 0-1.3.2-1.7.6-.4.4-.6 1.1-.6 2v48h-13.1V29.7h13.1v2c.8-.7 1.8-1.3 3.3-1.7 1.4-.4 3-.7 4.9-.7 2.8 0 5.1.8 6.9 2.5 1.8 1.6 2.7 3.7 2.7 6v16.6zM421.1 89.2H408V41.4c0-1.8-.8-2.7-2.3-2.7-.8 0-1.3.2-1.7.7-.4.4-.6 1.1-.6 2.1v47.9h-13.1V29.7h13.1v2c.8-.7 1.8-1.3 3.3-1.7 1.4-.5 3-.7 4.9-.7 2.8 0 5.1.8 6.9 2.5 1.8 1.6 2.7 3.7 2.7 6v51.4zM455.7 89.2h-11.6v-2.3c-.6 1.3-1.6 2.2-2.9 2.6-1.3.4-3.1.6-5.5.6-3.9 0-6.7-.8-8.3-2.3-1.6-1.5-2.5-3.9-2.5-7v-12c0-4.8 2.9-8.7 8.8-11.9 5.9-3.2 8.8-5.4 8.8-6.6v-8.8c0-1-.2-1.7-.6-2.2-.4-.5-.9-.7-1.7-.7-.6 0-1.1.2-1.6.7-.4.5-.6 1.2-.6 2.2v11.8h-12.8V41.4c0-4.4 1.6-7.6 4.8-9.7 2.6-1.6 6.2-2.4 10.9-2.4s8.2.9 10.5 2.6c2.8 2 4.2 5.4 4.2 10v47.3zm-13.1-11.1V62.8c-1.8.5-3 1.1-3.6 1.8-.6.7-.9 1.6-.9 2.7v10.8c0 .9.2 1.6.6 2 .4.5 1 .7 1.7.7.6 0 1.1-.2 1.6-.7.4-.4.6-1.1.6-2zM473 89.2h-13.1V15.7H473v73.5z" fill="#004B8C"></path></svg>