<svg xmlns:xlink="http://www.w3.org/1999/xlink" aria-labelledby="nbnLogo" class="header-logo-image logo-nbn" viewBox="0 0 740.2 66.22" xmlns="http://www.w3.org/2000/svg" width="740.2"  height="66.22" ><text id="nbnLogo">North Bay Nugget</text><path d="M64.05 3.2c-4.91.3-6.9 1.7-7.36 6.19-.36 3-.73 7.69-.73 16.67v39.83h-3.82L13.99 15.18h-.18v23.46c0 8.89.36 13.38.64 16.37.45 4.69 2.18 6.29 8.72 6.69v3.2H1.18v-3.2c5.09-.4 7.27-1.9 7.72-6.39.27-3.29.73-7.79.73-16.67V17.37c0-6.79-.09-8.19-1.82-10.48C6 4.39 4.09 3.59 0 3.2V0h15.63l35.89 46.03h.27V26.06c0-8.99-.45-13.68-.64-16.57-.55-4.3-2.45-5.9-8.99-6.29V0h21.89v3.2z"></path><path d="M113.35 35.6c0 18.97-12.37 30.62-27.38 30.62-15.5 0-26.74-12.79-26.74-29.74 0-15.35 9.96-30.27 27.7-30.27 14.3 0 26.42 11.83 26.42 29.39zm-43.27-1.06c0 15.62 6.83 28.15 17.5 28.15 8.11 0 14.93-8.21 14.93-24.71 0-17.91-7.31-28.24-17.1-28.24-8.35 0-15.33 9.09-15.33 24.8zM163.62 65.69c-.64 0-1.61-.09-2.49-.09-8.67-.44-11.88-2.74-15.26-8.38-2.33-3.88-4.82-8.91-7.15-13.41-1.29-2.65-2.73-3.71-5.86-3.71h-1.85v13.32c0 7.24.72 8.03 6.91 8.65v2.82H114.8v-2.82c6.18-.62 7.07-1.32 7.07-8.65v-34.5c0-7.24-.72-7.94-6.74-8.47V7.54h21.6c6.58 0 10.6.88 13.81 3.18 3.21 2.38 5.38 6.27 5.38 11.74 0 7.68-4.58 12-10.12 14.56 1.29 2.74 4.34 8.65 6.74 12.62 2.89 4.85 4.58 7.5 6.34 9.44 1.85 2.29 3.37 3.35 5.22 3.97l-.48 2.64zm-29.95-28.86c3.69 0 6.34-.71 8.19-2.38 2.81-2.56 4.01-6.09 4.01-10.68 0-9.44-5.14-12.97-10.28-12.97-2.09 0-3.29.44-3.85.88-.56.53-.72 1.5-.72 3.53v21.62h2.65zM203.2 22.1c-.96-4.41-1.93-7.15-3.13-8.65-1.45-1.76-3.21-2.29-8.43-2.29h-4.34v42.27c0 7.32.72 8.03 8.03 8.65v2.82h-25.05v-2.82c6.9-.62 7.71-1.32 7.71-8.65V11.16h-3.61c-6.58 0-8.11.79-9.23 2.47-1.21 1.5-2.09 4.32-3.05 8.56h-2.73c.32-6 .8-12.27.96-16.85h1.85c1.2 2.03 2.25 2.21 4.5 2.21h32.12c2.09 0 3.05-.53 4.42-2.21h1.85c0 3.79.4 11.12.8 16.59l-2.67.17zM263.34 10.45c-6.34.62-6.91 1.06-6.91 8.56v34.5c0 7.41.64 7.94 6.91 8.56v2.82H239.9v-2.82c6.5-.62 7.15-1.15 7.15-8.56V36.66H223.2v16.85c0 7.41.64 7.94 6.83 8.56v2.82h-22.96v-2.82c6.1-.62 6.83-1.15 6.83-8.56v-34.5c0-7.5-.72-8.03-7.07-8.56V7.54h22.96v2.91c-5.94.53-6.58 1.06-6.58 8.56v13.41h23.85V19.01c0-7.5-.56-7.94-6.66-8.56V7.54h22.96v2.91zM311.38 30.05c9.99 1.4 16.99 5.99 16.99 15.67 0 6.69-3.27 11.88-8.54 14.98-4.63 2.9-11.27 4.19-18.72 4.19h-21.99V61.6c7.27-.6 8-1.3 8-9.68V12.98c0-8.39-.64-9.09-7.36-9.68V0h25.35c6.91 0 11.27 1.1 14.54 3.5 3.27 2.3 5.27 6.49 5.27 11.28 0 9.58-7.45 13.48-13.54 14.88v.39zm-10.9-1.4c9.18 0 13.17-3.99 13.17-12.28 0-8.19-4.36-12.58-10.63-12.58-2.09 0-3.82.6-4.45 1.2-.73.6-1 2-1 4.49v19.17h2.91zm-2.91 23.07c0 7.29 1.82 9.38 7 9.29 5.91-.1 11.99-4.19 11.99-14.28 0-9.58-5.72-14.28-16.26-14.28h-2.73v19.27zM355.19 64.9v-2.82c4.82-.79 5.3-1.76 4.18-5.47-.88-2.91-2.25-7.06-3.69-11.3H339.7c-1.04 3.26-2.17 6.62-3.13 10.15-1.36 4.77-.96 5.82 4.9 6.62v2.82h-17.74v-2.82c5.22-.79 6.26-1.59 8.99-9.18l16.46-45.62 3.53-1.06c5.14 15.35 10.2 31.24 15.42 46.42 2.65 7.76 3.69 8.74 8.83 9.44v2.82h-21.77zm-7.22-44.21h-.24c-2.33 6.79-4.5 13.68-6.75 20.29h13.33l-6.34-20.29zM418.95 10.45c-5.3.62-6.66 1.94-9.63 7.24-3.21 5.65-5.54 9.88-9.39 18-1.12 2.29-1.45 3.35-1.45 5.91v11.56c0 7.77.64 8.3 7.87 8.91v2.82h-24.81v-2.82c6.91-.53 7.63-1.15 7.63-8.91v-10.5c0-2.03-.32-2.91-1.29-5.03-2.41-5.03-5.38-10.85-9.96-19.77-3.13-5.91-4.26-6.79-8.83-7.41V7.54h21.52v2.91c-5.38.79-5.3 1.85-3.85 4.94 3.05 6.44 6.5 13.24 9.8 19.77 2.57-5.3 6.74-13.68 8.75-19.06 1.53-3.88 1.36-4.94-4.66-5.65V7.54h18.31v2.91z"></path><g><path d="M495.14 3.2c-4.91.3-6.91 1.7-7.36 6.19-.36 3-.73 7.69-.73 16.67v39.83h-3.82l-38.16-50.72h-.18v23.46c0 8.89.36 13.38.64 16.37.45 4.69 2.18 6.29 8.72 6.69v3.2h-21.99v-3.2c5.09-.4 7.27-1.9 7.72-6.39.27-3.29.73-7.79.73-16.67V17.37c0-6.79-.09-8.19-1.82-10.48-1.82-2.5-3.72-3.29-7.81-3.69V0h15.63l35.89 46.03h.27V26.06c0-8.99-.45-13.68-.64-16.57-.54-4.29-2.45-5.89-8.99-6.29V0h21.9v3.2z"></path></g><g><path d="M544.77 10.45c-4.58.26-6.5 1.85-6.91 5.21-.32 2.56-.56 6-.56 12.97v8.74c0 9.71-1.36 17.21-5.94 22.5-3.69 4.24-9.15 6.35-14.69 6.35-5.06 0-9.96-1.24-13.73-4.41-4.58-3.97-6.83-10.5-6.83-20.83V19.72c0-8.21-.72-8.65-6.82-9.27V7.54h22.96v2.91c-6.02.53-6.74 1.06-6.74 9.27v19.5c0 13.59 4.58 21.44 13.73 21.44 10.28 0 14.29-8.91 14.29-23.65v-8.38c0-6.88-.4-10.41-.72-13.15-.48-3.18-2.25-4.68-7.79-5.03V7.54h19.75v2.91zM597.76 40.63c-4.26.79-4.74 1.24-4.74 6.79v7.24c0 3.18.08 6 .56 8.3-4.9 1.32-11.8 3.26-18.23 3.26-18.31 0-30.19-11.82-30.19-29.38 0-20.3 14.93-30.62 31.39-30.62 6.58 0 12.77 1.85 15.58 2.47.24 3.09.64 7.76 1.28 14.38l-2.73.53c-2.01-10.15-8.03-13.85-15.58-13.85-10.6 0-19.19 9.71-19.19 25.68 0 13.06 6.26 27.35 20.23 27.35 2.09 0 4.09-.44 5.46-1.24 1.28-.88 2.09-2.21 2.09-5.21v-8.12c0-6.18-.48-6.79-8.67-7.59V37.8h22.72v2.83zM651.88 40.63c-4.26.79-4.74 1.24-4.74 6.79v7.24c0 3.18.08 6 .56 8.3-4.9 1.32-11.8 3.26-18.23 3.26-18.31 0-30.19-11.82-30.19-29.38 0-20.3 14.93-30.62 31.39-30.62 6.58 0 12.77 1.85 15.58 2.47.24 3.09.64 7.76 1.28 14.38l-2.73.53c-2.01-10.15-8.03-13.85-15.58-13.85-10.6 0-19.19 9.71-19.19 25.68 0 13.06 6.26 27.35 20.23 27.35 2.09 0 4.09-.44 5.46-1.24 1.28-.88 2.09-2.21 2.09-5.21v-8.12c0-6.18-.48-6.79-8.67-7.59V37.8h22.72v2.83zM695 50.51c-.48 3.53-2.09 11.74-2.81 14.38h-40.15v-2.82c6.99-.62 7.71-1.24 7.71-8.65V19.1c0-7.76-.72-8.12-6.58-8.65V7.54h37.01c.08 1.76.48 7.94.8 13.06l-2.73.44c-.72-3.35-1.69-5.91-2.97-7.59-1.28-1.68-3.45-2.29-8.43-2.29h-4.66c-2.81 0-3.05.18-3.05 3V33.3h6.18c6.91 0 7.71-.53 8.75-6.62h2.73v17.47h-2.73c-1.04-6.35-1.85-6.71-8.75-6.71h-6.18v15.71c0 4.24.4 6.26 1.93 7.24 1.45.88 4.25.97 7.55.97 4.9 0 7.55-.62 9.39-2.91 1.53-1.85 2.97-4.77 4.34-8.47l2.65.53z"></path></g><g><path d="M737.55 22.1c-.96-4.41-1.93-7.15-3.13-8.65-1.45-1.76-3.21-2.29-8.43-2.29h-4.34v42.27c0 7.32.72 8.03 8.03 8.65v2.82h-25.05v-2.82c6.91-.62 7.71-1.32 7.71-8.65V11.16h-3.61c-6.58 0-8.11.79-9.23 2.47-1.2 1.5-2.09 4.32-3.05 8.56h-2.73c.32-6 .8-12.27.96-16.85h1.85c1.2 2.03 2.25 2.21 4.5 2.21h32.12c2.09 0 3.05-.53 4.42-2.21h1.85c0 3.79.4 11.12.8 16.59l-2.67.17z"></path></g></svg>