<svg xmlns:xlink="http://www.w3.org/1999/xlink" aria-labelledby="npjLogo" class="header-logo-image logo-npj" role="img" viewBox="0 0 487.3 95.7" xml:space="preserve" xmlns="http://www.w3.org/2000/svg" width="487.3"  height="95.7" > <text id="npjLogo">Nipawin Journal</text><path d="M43.3 79.3H28.4l-9.9-39.2v39.2H6.3V5.8h16.5l8.3 33.5V5.8h12.1v73.5zM60.6 16.5H47.4V5.9h13.1v10.6zm0 62.8H47.4V19.7h13.1v59.6zM94.8 71.8c0 2.3-.9 4.3-2.6 5.9-1.8 1.6-4.1 2.4-6.9 2.4-1.8 0-3.4-.2-4.8-.6-1.5-.4-2.6-.9-3.3-1.6v14H64V19.7h9.9l1.1 2.4c.9-.8 1.7-1.3 2.4-1.7 1.4-.8 3.1-1.2 5.3-1.2 3.8 0 6.8 1.1 9.1 3.3 2 1.9 3 4.1 3 6.5v42.8zm-13.2-3.7V31.3c0-1.8-.8-2.7-2.3-2.7-.8 0-1.3.2-1.7.7-.4.5-.6 1.1-.6 2v37c0 .8.2 1.5.6 1.9.4.5 1 .7 1.7.7 1.6 0 2.3-.9 2.3-2.8zM129.6 79.3H118V77c-.6 1.3-1.6 2.2-2.9 2.6-1.3.4-3.1.6-5.5.6-3.9 0-6.7-.8-8.3-2.3-1.6-1.5-2.5-3.9-2.5-7v-12c0-4.8 2.9-8.7 8.8-11.9 5.9-3.2 8.8-5.4 8.8-6.6v-8.8c0-1-.2-1.7-.6-2.2-.4-.5-.9-.7-1.7-.7-.6 0-1.1.2-1.6.7-.4.5-.6 1.2-.6 2.2v11.8H99.2v-12c0-4.4 1.6-7.6 4.8-9.7 2.6-1.6 6.2-2.4 10.9-2.4s8.2.9 10.5 2.6c2.8 2 4.2 5.4 4.2 10v47.4zm-13.2-11.2V52.8c-1.8.5-3 1.1-3.6 1.8-.6.7-.9 1.6-.9 2.7v10.8c0 .9.2 1.6.6 2 .4.5 1 .7 1.7.7.6 0 1.1-.2 1.6-.7.4-.4.6-1 .6-2zM188.2 19.7L179 79.3h-14.5l-4.1-24.4-3.8 24.4h-15.1l-9.2-59.5h12.8l4.5 32.3 4.1-32.3h13.2l4.1 32.3 4.5-32.3h12.7zM204.2 16.5h-13.1V5.9h13.1v10.6zm0 62.8h-13.1V19.7h13.1v59.6zM238.5 79.3h-13.1V31.4c0-1.8-.8-2.7-2.3-2.7-.8 0-1.3.2-1.7.7s-.6 1.1-.6 2.1v47.9h-13.1V19.7h13.1v2c.8-.7 1.8-1.3 3.3-1.7 1.4-.5 3-.7 4.9-.7 2.8 0 5.1.8 6.9 2.5 1.8 1.6 2.7 3.7 2.7 6v51.5zM291.4 66.9c0 4.3-1.5 7.6-4.5 9.9-3 2.2-7 3.4-11.9 3.4-4.6 0-8.3-1.3-11.2-3.9-2.5-2.2-3.8-4.8-3.8-7.7V49.9h12.9v18.3c0 .6.2 1 .6 1.3.4.3.9.5 1.5.5.7 0 1.2-.2 1.5-.5.3-.3.5-.8.5-1.3V6h14.5v60.9zM326.1 68c0 4.5-1.5 7.7-4.5 9.7-2.5 1.6-6 2.4-10.7 2.4-4.7 0-8.4-.9-11-2.6-3.1-2.1-4.6-5.4-4.6-10V31.9c0-4.5 1.5-7.8 4.6-9.9 2.6-1.8 6.3-2.7 11-2.7 4.3 0 7.9 1 10.8 3.1 2.9 2.1 4.4 5.1 4.4 9V68zm-13.1-.2V31.5c0-1-.2-1.7-.6-2.2-.4-.5-.9-.7-1.7-.7-.6 0-1.2.2-1.6.7-.4.5-.7 1.2-.7 2.2v36.3c0 1 .2 1.7.6 2.3.4.5.9.8 1.7.8.8 0 1.3-.3 1.7-.8.4-.5.6-1.3.6-2.3zM360.2 79.3h-13.1v-2c-.7.8-1.7 1.4-3.2 2-1.4.6-3.1.8-5 .8-2.8 0-5.1-.8-6.9-2.4-1.8-1.6-2.7-3.6-2.7-5.9V19.7h13.1V68c0 1.8.8 2.7 2.3 2.7.8 0 1.3-.2 1.7-.7.4-.5.6-1.1.6-1.9V19.7h13.1v59.6zM395 44.4h-13.1v-13c0-1.8-.8-2.7-2.3-2.7-.8 0-1.3.2-1.7.6-.4.4-.6 1.1-.6 2v48h-13.1V19.7h13.1v2c.8-.7 1.8-1.3 3.3-1.7 1.4-.4 3-.7 4.9-.7 2.8 0 5.1.8 6.9 2.5 1.8 1.6 2.7 3.7 2.7 6v16.6zM429.5 79.3h-13.1V31.4c0-1.8-.8-2.7-2.3-2.7-.8 0-1.3.2-1.7.7-.4.4-.6 1.1-.6 2.1v47.9h-13.1V19.7h13.1v2c.8-.7 1.8-1.3 3.3-1.7 1.4-.5 3-.7 4.9-.7 2.8 0 5.1.8 6.9 2.5 1.8 1.6 2.7 3.7 2.7 6v51.5zM464.2 79.3h-11.6V77c-.6 1.3-1.6 2.2-2.9 2.6-1.3.4-3.1.6-5.5.6-3.9 0-6.7-.8-8.3-2.3-1.6-1.5-2.5-3.9-2.5-7v-12c0-4.8 2.9-8.7 8.8-11.9 5.9-3.2 8.8-5.4 8.8-6.6v-8.8c0-1-.2-1.7-.6-2.2-.4-.5-.9-.7-1.7-.7-.6 0-1.1.2-1.6.7-.4.5-.6 1.2-.6 2.2v11.8h-12.8v-12c0-4.4 1.6-7.6 4.8-9.7 2.6-1.6 6.2-2.4 10.9-2.4s8.2.9 10.5 2.6c2.8 2 4.2 5.4 4.2 10v47.4zM451 68.1V52.8c-1.8.5-3 1.1-3.6 1.8-.6.7-.9 1.6-.9 2.7v10.8c0 .9.2 1.6.6 2 .4.5 1 .7 1.7.7.6 0 1.1-.2 1.6-.7.4-.4.6-1 .6-2zM481.4 79.3h-13.1V5.8h13.1v73.5z" fill="#004B8C"></path></svg>