<svg xmlns:xlink="http://www.w3.org/1999/xlink" aria-labelledby="owsLogo" class="header-logo-image logo-ows" version="1.1" viewBox="0 0 527.89 71.31" x="0" xml:space="preserve" xmlns="http://www.w3.org/2000/svg" y="0" width="527.89"  height="71.31" ><text id="owsLogo">Owen Sound Sun Times</text><style>.st0{fill:#427c98}</style><path d="M45.68 24.31c-1-4.7-2.01-7.61-3.26-9.21-1.51-1.88-3.35-2.44-8.78-2.44h-4.52v45.02c0 7.8.75 8.55 8.37 9.21v3.01h-26.1v-3.01c7.2-.66 8.03-1.41 8.03-9.21V12.66h-3.76c-6.86 0-8.45.85-9.62 2.63-1.25 1.6-2.18 4.61-3.18 9.12H0c.33-6.39.84-13.07 1-17.95h1.92C4.18 8.61 5.27 8.8 7.61 8.8h33.47c2.18 0 3.18-.56 4.6-2.35h1.92c0 4.04.42 11.84.84 17.67l-2.76.19zM102.68 18.69c-5.84.58-6.35 1-6.35 8.05v32.45c0 6.97.59 7.47 6.35 8.05v2.66H81.11v-2.66c5.98-.58 6.57-1.08 6.57-8.05V43.34H65.75v15.85c0 6.97.59 7.47 6.28 8.05v2.66H50.9v-2.66c5.61-.58 6.28-1.08 6.28-8.05V26.74c0-7.05-.67-7.55-6.5-8.05v-2.74h21.13v2.74c-5.47.5-6.06 1-6.06 8.05v12.62h21.94V26.74c0-7.05-.52-7.47-6.13-8.05v-2.74h21.13v2.74zM144.79 56.37c-.44 3.32-1.92 11.04-2.59 13.53h-36.93v-2.66c6.43-.58 7.09-1.16 7.09-8.13V26.83c0-7.3-.67-7.64-6.06-8.13v-2.74h34.05c.07 1.66.44 7.47.74 12.28l-2.51.42c-.66-3.15-1.55-5.56-2.73-7.14s-3.18-2.16-7.76-2.16h-4.28c-2.59 0-2.81.17-2.81 2.82v18.01h5.69c6.35 0 7.09-.5 8.05-6.22h2.51V50.4h-2.51c-.96-5.98-1.7-6.31-8.05-6.31H121v14.77c0 3.98.37 5.89 1.77 6.81 1.33.83 3.92.91 6.94.91 4.51 0 6.94-.58 8.64-2.74 1.4-1.74 2.73-4.48 3.99-7.97l2.45.5zM190.94 23.75c-1.67-5.92-4.52-12.69-11.46-12.69-5.27 0-8.53 4.32-8.53 9.59 0 5.83 3.43 8.93 10.54 12.88 7.95 4.51 14.64 9.4 14.64 19.17 0 10.43-7.86 18.61-19.74 18.61-3.18 0-6.02-.56-8.28-1.41-2.26-.75-3.77-1.41-4.77-1.97-.75-2.26-1.84-10.15-2.43-15.41l2.84-.94c1.51 5.92 6.02 16.07 14.22 16.07 5.61 0 9.04-4.14 9.04-10.43 0-6.02-4.02-9.49-10.29-13.16-7.45-4.32-14.31-9.31-14.31-18.89 0-9.78 6.94-17.76 18.41-17.76 4.85 0 9.12 1.6 11.29 2.35.33 3.48.84 7.43 1.51 13.35l-2.68.64zM249.72 18.69c-4.21.25-5.98 1.74-6.35 4.9-.3 2.41-.52 5.64-.52 12.2V44c0 9.13-1.26 16.18-5.47 21.16-3.4 3.98-8.42 5.98-13.52 5.98-4.65 0-9.16-1.16-12.63-4.15-4.21-3.73-6.28-9.88-6.28-19.59v-20c0-7.72-.66-8.13-6.28-8.71v-2.74h21.13v2.74c-5.54.5-6.21 1-6.21 8.71v18.34c0 12.78 4.21 20.17 12.63 20.17 9.46 0 13.15-8.38 13.15-22.24v-7.88c0-6.47-.37-9.79-.66-12.37-.44-2.99-2.07-4.4-7.17-4.73v-2.74h18.17v2.74z"></path><path d="M301.65 18.61c-3.99.25-5.61 1.41-5.98 5.15-.29 2.49-.59 6.39-.59 13.86v33.11h-3.1l-31.02-42.16h-.15v19.5c0 7.39.29 11.12.52 13.61.37 3.9 1.77 5.23 7.09 5.56v2.66h-17.88v-2.66c4.14-.33 5.91-1.58 6.28-5.31.22-2.74.59-6.47.59-13.86V30.39c0-5.64-.07-6.81-1.48-8.71-1.48-2.07-3.03-2.74-6.35-3.07v-2.66h12.7l29.18 38.26h.22v-16.6c0-7.47-.37-11.37-.52-13.78-.44-3.57-1.99-4.9-7.31-5.23v-2.66h17.8v2.67zM362.89 24.31c-1-4.7-2.01-7.61-3.26-9.21-1.51-1.88-3.35-2.44-8.78-2.44h-4.52v45.02c0 7.8.75 8.55 8.37 9.21v3.01h-26.1v-3.01c7.2-.66 8.03-1.41 8.03-9.21V12.66h-3.77c-6.86 0-8.45.85-9.62 2.63-1.25 1.6-2.17 4.61-3.18 9.12h-2.84c.33-6.39.84-13.07 1-17.95h1.92c1.25 2.16 2.34 2.35 4.69 2.35h33.47c2.17 0 3.18-.56 4.6-2.35h1.92c0 4.04.42 11.84.84 17.67l-2.77.18zM368.04 69.9v-2.66c5.69-.58 6.35-1.08 6.35-8.13V26.83c0-7.05-.66-7.64-6.35-8.13v-2.74h21.2v2.74c-5.69.5-6.28 1.08-6.28 8.13v32.28c0 6.97.59 7.55 6.28 8.13v2.66h-21.2zM432.53 69.9v-2.66c5.76-.66 6.06-1.25 6.06-9.3l-.22-32.62h-.3l-16.92 43.99h-1.92l-15.59-43.07h-.22l-.96 22.41c-.29 6.89-.29 10.62-.07 13.53.22 3.82 1.77 4.48 6.72 4.98v2.74h-17.58v-2.74c4.21-.42 5.61-1.74 6.06-4.81.44-2.74.96-6.81 1.55-15.52l1.11-16.68c.67-9.96.15-10.79-6.35-11.45v-2.74h14.18l15.14 38.18 15.44-38.18h14.04v2.74c-6.13.66-6.5 1.08-6.35 8.63l.74 30.62c.15 8.05.44 8.63 6.5 9.3v2.66h-21.06zM495.02 56.37c-.44 3.32-1.92 11.04-2.58 13.53H455.5v-2.66c6.43-.58 7.09-1.16 7.09-8.13V26.83c0-7.3-.67-7.64-6.06-8.13v-2.74h34.05c.07 1.66.44 7.47.74 12.28l-2.51.42c-.67-3.15-1.55-5.56-2.73-7.14s-3.18-2.16-7.76-2.16h-4.28c-2.58 0-2.81.17-2.81 2.82v18.01h5.69c6.35 0 7.09-.5 8.05-6.22h2.51V50.4h-2.51c-.96-5.98-1.7-6.31-8.05-6.31h-5.69v14.77c0 3.98.37 5.89 1.77 6.81 1.33.83 3.92.91 6.94.91 4.51 0 6.94-.58 8.64-2.74 1.4-1.74 2.73-4.48 3.99-7.97l2.45.5zM523.31 29.15c-1.48-5.23-3.99-11.2-10.12-11.2-4.65 0-7.53 3.82-7.53 8.46 0 5.15 3.03 7.88 9.31 11.37 7.02 3.98 12.93 8.3 12.93 16.93 0 9.21-6.94 16.43-17.43 16.43-2.81 0-5.32-.5-7.31-1.25-1.99-.66-3.32-1.25-4.21-1.74-.67-1.99-1.63-8.96-2.14-13.61l2.51-.83c1.33 5.23 5.32 14.19 12.56 14.19 4.95 0 7.98-3.65 7.98-9.21 0-5.31-3.55-8.38-9.09-11.62-6.57-3.82-12.63-8.22-12.63-16.68 0-8.63 6.13-15.69 16.25-15.69 4.29 0 8.05 1.41 9.97 2.07.3 3.07.74 6.56 1.33 11.79l-2.38.59z"></path><g><path class="st0" d="M65.95 6c0 3.89-2.54 6.25-5.62 6.25-3.27 0-5.55-2.65-5.55-6.1 0-3.1 2-6.14 5.75-6.14C63.51 0 65.95 2.43 65.95 6zm-8.66-.2c0 3.08 1.24 5.69 3.34 5.69 1.56 0 2.82-1.67 2.82-4.99 0-3.58-1.33-5.74-3.21-5.74-1.66 0-2.95 1.92-2.95 5.04zM81.93.9c-1.08.2-1.36.43-1.8 1.94-.38 1.15-1.34 4.29-2.72 9.33h-.85c-.88-2.68-1.75-5.26-2.67-7.99h-.03c-.85 2.72-1.69 5.4-2.46 7.99h-.87c-.88-3.24-1.7-6.27-2.62-9.45-.39-1.4-.67-1.66-1.64-1.82V.27h4.85V.9c-1.24.16-1.26.41-1.03 1.33.54 2.11 1.1 4.19 1.67 6.19h.03c.77-2.56 1.59-5.28 2.36-8.05h.79c.92 2.74 1.85 5.49 2.75 8.12h.03c.64-2.21 1.31-5.02 1.54-6.07.23-1.08.15-1.39-1.18-1.53V.27h3.85V.9z" fill="#427C98"></path></g><g><path class="st0" d="M91.11 8.98c-.1.81-.44 2.45-.57 2.99h-8.35v-.63c1.39-.13 1.56-.23 1.56-1.76V2.67c0-1.57-.16-1.66-1.33-1.76V.27h7.71c.02.32.1 1.58.16 2.7l-.59.09c-.16-.63-.38-1.22-.67-1.55-.28-.32-.72-.45-1.64-.45h-.79c-.61 0-.67.04-.67.63v3.82h1.1c1.38 0 1.59-.09 1.82-1.35h.59V7.8h-.59c-.23-1.3-.43-1.37-1.82-1.37h-1.1v3.12c0 .85.07 1.3.39 1.48.29.14.85.18 1.47.18.83 0 1.42-.13 1.82-.58.31-.4.61-.97.92-1.76l.58.11zM102.8.9c-.88.05-1.23.29-1.31 1.12-.05.56-.15 1.4-.15 2.99v7.15h-.79l-6.81-8.97h-.04v4.05c0 1.58.08 2.38.13 2.92.08.79.36 1.13 1.57 1.19v.63h-4.01v-.63c.92-.07 1.29-.36 1.36-1.13.07-.59.16-1.39.16-2.97V3.48c0-1.17-.03-1.51-.34-1.93-.29-.43-.67-.58-1.36-.65V.27h3.03l6.25 7.9h.07V5.01c0-1.58-.1-2.43-.13-2.95-.08-.77-.43-1.08-1.62-1.15V.27h4V.9zM112.68 3.21c-.34-1.13-.95-2.47-2.29-2.47-.92 0-1.59.76-1.59 1.78 0 .99.59 1.57 2.03 2.36 1.72.92 2.9 1.93 2.9 3.71 0 2.05-1.59 3.65-3.98 3.65-.59 0-1.16-.09-1.65-.25-.46-.14-.77-.29-1-.4-.15-.45-.36-1.96-.48-3.06l.57-.2c.33 1.15 1.29 3.17 2.87 3.17 1 0 1.64-.76 1.64-1.89 0-1.06-.72-1.73-1.95-2.45-1.69-.94-2.85-1.91-2.85-3.64 0-1.98 1.42-3.53 3.75-3.53 1.05 0 1.98.36 2.28.49.07.67.18 1.46.31 2.57l-.56.16zM125.82 6c0 3.89-2.54 6.25-5.62 6.25-3.27 0-5.55-2.65-5.55-6.1 0-3.1 2-6.14 5.75-6.14 2.98-.01 5.42 2.42 5.42 5.99zm-8.66-.2c0 3.08 1.24 5.69 3.34 5.69 1.56 0 2.82-1.67 2.82-4.99 0-3.58-1.33-5.74-3.21-5.74-1.66 0-2.95 1.92-2.95 5.04z" fill="#427C98"></path></g><g><path class="st0" d="M137.82.9c-.9.05-1.31.43-1.39 1.06-.08.56-.15 1.22-.15 2.5v1.96c0 1.91-.26 3.42-1.18 4.5-.75.86-1.87 1.31-3.03 1.31-1.08 0-2.11-.25-2.9-.94-.93-.79-1.36-2.12-1.36-4.23V2.84c0-1.69-.16-1.82-1.38-1.94V.27h4.93V.9c-1.19.13-1.36.25-1.36 1.94v3.91c0 2.7.88 4.27 2.65 4.27 1.95 0 2.8-1.62 2.8-4.63V4.47c0-1.28-.08-1.96-.16-2.5-.08-.63-.48-.99-1.59-1.06V.27h4.11V.9zM149.45.9c-.88.05-1.23.29-1.31 1.12-.04.55-.14 1.4-.14 2.99v7.15h-.79l-6.81-8.97h-.05v4.05c0 1.58.08 2.38.13 2.92.08.79.36 1.13 1.57 1.19v.63h-4.01v-.63c.92-.07 1.29-.36 1.36-1.13.07-.59.16-1.39.16-2.97V3.48c0-1.17-.03-1.51-.34-1.93-.29-.43-.67-.58-1.36-.65V.27h3.03l6.25 7.9h.07V5.01c0-1.58-.1-2.43-.13-2.95-.08-.77-.43-1.08-1.62-1.15V.27h4V.9zM155.01.27c2.05 0 3.63.45 4.7 1.57.8.85 1.44 2.12 1.44 3.82 0 2.2-.8 3.76-2.05 4.83-1.21 1.01-2.91 1.49-4.96 1.49h-4.21v-.63c1.29-.13 1.46-.25 1.46-1.78V2.68c0-1.55-.15-1.66-1.31-1.78V.27h4.93zm-1.43 9.18c0 1.3.25 1.75 1.39 1.75 2.19 0 3.7-1.98 3.7-5.19 0-1.71-.48-3.08-1.21-3.89-.69-.74-1.56-1.12-2.67-1.12-.59 0-.93.14-1.03.25-.15.16-.18.47-.18.99v7.21z" fill="#427C98"></path></g></svg>