<svg xmlns:xlink="http://www.w3.org/1999/xlink" aria-labelledby="pceLogo" class="header-logo-image logo-pce" role="img" viewBox="0 0 722.76 128.34" x="0" xmlns="http://www.w3.org/2000/svg" y="0" width="722.76"  height="128.34" > <text id="pceLogo">Pincher Creek Echo</text><style>.st0{fill:#808285}</style><path d="M43 75.26c0 5.81-1.23 9.82-3.69 12.05-2.46 2.22-4.45 3.63-5.97 4.22-1.52.59-6.55.8-15.08.61v35.12H0V31.97h18.38c8.09 0 13.6.64 16.54 1.91C40.3 36.14 43 41.14 43 48.85v26.41zm-18.25-1.68V50.52c0-2.29-.76-3.8-2.29-4.53-.85-.37-2.25-.55-4.2-.55v33.22c2.12 0 3.48-.14 4.07-.41 1.61-.73 2.42-2.29 2.42-4.67zM63.46 45.85H46.43V32.11h17.03v13.74zm0 81.41H46.43V50.07h17.03v77.19zM106.7 127.26H89.67V65.19c0-2.36-.98-3.55-2.94-3.55-.98 0-1.71.28-2.2.85-.49.57-.73 1.46-.73 2.69v62.07H66.76V50.07h17.03v2.59c.98-.91 2.39-1.65 4.23-2.25 1.84-.59 3.94-.88 6.31-.88 3.59 0 6.55 1.07 8.88 3.2 2.33 2.13 3.49 4.74 3.49 7.83v66.7zM150.19 112.69c0 5.81-1.96 9.98-5.88 12.52-3.18 2.09-7.8 3.13-13.84 3.13-6.13 0-10.86-1.13-14.21-3.4-4-2.72-6-7.03-6-12.93V65.86c0-5.81 2-10.07 6-12.8 3.43-2.36 8.17-3.54 14.21-3.54 5.88 0 10.45 1.04 13.72 3.13 4 2.54 6 6.72 6 12.52v19.06h-17.03V65.32c0-1.27-.24-2.22-.73-2.86-.49-.63-1.23-.95-2.2-.95-.82 0-1.51.32-2.08.95-.57.63-.86 1.59-.86 2.85v47.12c0 1.27.24 2.24.73 2.92.49.68 1.23 1.02 2.21 1.02s1.72-.34 2.2-1.01c.49-.68.73-1.65.73-2.91V93.9h17.03v18.79zM193.8 127.26h-17.03V65.05c0-2.36-.98-3.54-2.94-3.54-.98 0-1.72.27-2.21.82-.49.54-.73 1.41-.73 2.59v62.34h-17.03V31.97h17.03v20.42c1.06-1 2.47-1.72 4.23-2.18 1.76-.45 3.86-.68 6.31-.68 3.59 0 6.55 1.04 8.88 3.13 2.33 2.09 3.49 4.63 3.49 7.62v66.98zM237.65 112.69c0 5.72-2.04 9.89-6.12 12.52-3.27 2.09-7.92 3.13-13.97 3.13-6.05 0-10.7-1.13-13.97-3.4-3.92-2.72-5.88-7.03-5.88-12.93V65.86c0-5.81 1.92-10.07 5.76-12.8 3.35-2.36 8.04-3.54 14.09-3.54 5.96 0 10.62 1.04 13.97 3.13 4.08 2.54 6.12 6.72 6.12 12.52v29.4h-22.91v17.86c0 1.26.24 2.23.73 2.91.49.68 1.23 1.01 2.2 1.01.98 0 1.72-.33 2.21-1.01.49-.68.73-1.64.73-2.91V97.04h17.03v15.65zm-17.03-29.81V65.3c0-1.26-.24-2.21-.73-2.84-.49-.63-1.23-.95-2.21-.95-.82 0-1.51.32-2.08.95-.57.63-.86 1.58-.86 2.84v17.58h5.88zM281.63 82.06H264.6V65.21c0-2.37-.98-3.56-2.94-3.56-.98 0-1.72.27-2.21.82-.49.55-.74 1.41-.74 2.59v62.2h-17.03V50.07h17.03v2.55c.98-.9 2.39-1.64 4.23-2.22 1.84-.58 3.94-.88 6.31-.88 3.59 0 6.55 1.07 8.88 3.2 2.33 2.13 3.49 4.74 3.49 7.83v21.51zM348.27 113.37c0 3.72-1.64 7.03-4.9 9.94-3.76 3.36-8.62 5.04-14.58 5.04-6.37 0-11.52-1.41-15.44-4.22-4.25-3.08-6.37-7.4-6.37-12.93V49.8c0-6.08 1.55-10.57 4.65-13.48 3.59-3.36 9.31-5.04 17.15-5.04 6.78 0 11.84 1.68 15.19 5.04 2.86 2.91 4.29 6.85 4.29 11.84v17.29h-17.03V46.41c0-.82-.21-1.41-.64-1.78-.43-.37-1.11-.55-2.05-.55-.94 0-1.64.18-2.12.55-.47.37-.7.96-.7 1.78v66.41c0 .73.28 1.3.83 1.71.55.41 1.22.62 1.99.62.94 0 1.62-.2 2.05-.62.43-.41.64-.98.64-1.71V89.14h17.03v24.23zM392.37 82.06h-17.03V65.21c0-2.37-.98-3.56-2.94-3.56-.98 0-1.72.27-2.21.82-.49.55-.73 1.41-.73 2.59v62.2h-17.03V50.07h17.03v2.55c.98-.9 2.39-1.64 4.23-2.22 1.84-.58 3.94-.88 6.31-.88 3.59 0 6.55 1.07 8.88 3.2 2.33 2.13 3.49 4.74 3.49 7.83v21.51zM435.74 112.69c0 5.72-2.04 9.89-6.12 12.52-3.27 2.09-7.92 3.13-13.97 3.13-6.04 0-10.7-1.13-13.96-3.4-3.92-2.72-5.88-7.03-5.88-12.93V65.86c0-5.81 1.92-10.07 5.76-12.8 3.35-2.36 8.04-3.54 14.09-3.54 5.96 0 10.62 1.04 13.97 3.13 4.08 2.54 6.12 6.72 6.12 12.52v29.4h-22.91v17.86c0 1.26.24 2.23.73 2.91.49.68 1.23 1.01 2.21 1.01s1.71-.33 2.2-1.01c.49-.68.73-1.64.73-2.91V97.04h17.03v15.65zm-17.03-29.81V65.3c0-1.26-.24-2.21-.73-2.84-.49-.63-1.23-.95-2.2-.95-.82 0-1.51.32-2.08.95-.57.63-.86 1.58-.86 2.84v17.58h5.87zM479.47 112.69c0 5.72-2.04 9.89-6.12 12.52-3.27 2.09-7.92 3.13-13.97 3.13-6.04 0-10.7-1.13-13.96-3.4-3.92-2.72-5.88-7.03-5.88-12.93V65.86c0-5.81 1.92-10.07 5.76-12.8 3.35-2.36 8.04-3.54 14.09-3.54 5.96 0 10.62 1.04 13.97 3.13 4.08 2.54 6.12 6.72 6.12 12.52v29.4h-22.91v17.86c0 1.26.24 2.23.73 2.91.49.68 1.23 1.01 2.21 1.01s1.71-.33 2.2-1.01c.49-.68.74-1.64.74-2.91V97.04h17.03v15.65zm-17.03-29.81V65.3c0-1.26-.25-2.21-.74-2.84-.49-.63-1.22-.95-2.2-.95-.82 0-1.51.32-2.08.95-.57.63-.86 1.58-.86 2.84v17.58h5.88zM530.8 127.26h-19.97L500.3 99.35v27.91h-17.03V31.97h17.03v42.88l8.82-24.77h17.52l-12.25 33.84 16.41 43.34zM592.3 127.26h-36.87V31.97h36.63v12.11h-17.89v25.73h16.17v11.71h-16.17v33.62h18.13v12.12zM635.17 112.69c0 5.81-1.96 9.98-5.88 12.52-3.19 2.09-7.8 3.13-13.84 3.13-6.13 0-10.86-1.13-14.21-3.4-4-2.72-6-7.03-6-12.93V65.86c0-5.81 2-10.07 6-12.8 3.43-2.36 8.17-3.54 14.21-3.54 5.88 0 10.45 1.04 13.72 3.13 4 2.54 6 6.72 6 12.52v19.06h-17.03V65.32c0-1.27-.24-2.22-.73-2.86-.49-.63-1.23-.95-2.21-.95-.82 0-1.51.32-2.08.95-.57.63-.86 1.59-.86 2.85v47.12c0 1.27.25 2.24.74 2.92.49.68 1.22 1.02 2.21 1.02.98 0 1.71-.34 2.21-1.01.49-.68.73-1.65.73-2.91V93.9h17.03v18.79zM678.78 127.26h-17.03V65.05c0-2.36-.98-3.54-2.94-3.54-.98 0-1.71.27-2.21.82-.49.54-.73 1.41-.73 2.59v62.34h-17.03V31.97h17.03v20.42c1.06-1 2.47-1.72 4.23-2.18 1.75-.45 3.86-.68 6.31-.68 3.59 0 6.55 1.04 8.88 3.13 2.33 2.09 3.49 4.63 3.49 7.62v66.98zM722.76 112.69c0 5.81-1.96 9.98-5.88 12.52-3.18 2.09-7.8 3.13-13.84 3.13-6.12 0-10.86-1.13-14.21-3.4-4-2.72-6-7.03-6-12.93V65.86c0-5.81 2-10.07 6-12.8 3.43-2.36 8.17-3.54 14.21-3.54 5.55 0 10.23 1.34 14.03 4.02 3.8 2.68 5.7 6.56 5.7 11.64v47.51zm-17.03-.26V65.31c0-1.27-.24-2.22-.73-2.85-.49-.63-1.23-.95-2.2-.95-.82 0-1.51.32-2.08.95-.57.63-.86 1.59-.86 2.85v47.12c0 1.27.24 2.24.73 2.92.49.68 1.23 1.02 2.21 1.02s1.71-.34 2.2-1.02c.49-.68.73-1.65.73-2.92z"></path><g><path class="st0" d="M84.63 4.59h-7.04V1.5h17.13v3.09h-7.07v25.03h-3.02V4.59zM96.89 0h3.02v12.6h.07c.48-1.04 1.24-1.96 2.16-2.59.89-.62 1.96-1.04 3.09-1.04 2.23 0 5.8 1.67 5.8 8.64v12.02h-3.02v-11.6c0-3.25-1-6.01-3.85-6.01-1.96 0-3.5 1.67-4.05 3.67-.17.5-.21 1.04-.21 1.75v12.18h-3.02V0zM117.28 20.19c.07 4.96 2.68 7.01 5.7 7.01 2.16 0 3.47-.46 4.6-1.04l.52 2.63c-1.06.58-2.88 1.25-5.53 1.25-5.12 0-8.17-4.09-8.17-10.18s2.95-10.89 7.79-10.89c5.43 0 6.87 5.8 6.87 9.51 0 .75-.07 1.33-.1 1.71h-11.68zm8.86-2.62c.03-2.34-.79-5.97-4.19-5.97-3.06 0-4.4 3.42-4.64 5.97h8.83z" fill="#808285"></path></g></svg>