<svg xmlns:xlink="http://www.w3.org/1999/xlink" aria-labelledby="pemLogo" class="header-logo-image logo-pem" role="img" viewBox="0 0 494.65 134.26" xmlns="http://www.w3.org/2000/svg" width="494.65"  height="134.26" > <text id="pemLogo">Pembroke Observer</text><style>.st0{fill:#010101}.st1{fill:#427c98}</style><g id="Layer_1"><path class="st0" d="M80.73 60.54c0 28.93-18.45 46.69-40.84 46.69C16.77 107.23 0 87.72 0 61.88c0-23.41 14.85-46.15 41.32-46.15 21.32 0 39.41 18.03 39.41 44.81zm-64.56-1.62c0 23.82 10.18 42.92 26.11 42.92 12.1 0 22.28-12.51 22.28-37.68 0-27.32-10.9-43.06-25.51-43.06-12.46.01-22.88 13.87-22.88 37.82zM121.16 63.71c11.64 1.67 19.79 7.13 19.79 18.67 0 7.97-3.81 14.15-9.95 17.84-5.4 3.45-13.13 4.99-21.81 4.99H83.58v-3.92c8.47-.71 9.31-1.55 9.31-11.54V43.38c0-9.99-.74-10.82-8.57-11.54v-3.92h29.53c8.05 0 13.13 1.31 16.94 4.16 3.81 2.73 6.14 7.73 6.14 13.44 0 11.42-8.68 16.05-15.77 17.72v.47zm-12.7-1.67c10.69 0 15.35-4.76 15.35-14.63 0-9.75-5.08-14.98-12.39-14.98-2.44 0-4.45.71-5.19 1.43-.85.71-1.16 2.38-1.16 5.35v22.83h3.39zm-3.39 27.47c0 8.68 2.12 11.18 8.15 11.06 6.88-.12 13.97-4.99 13.97-17 0-11.42-6.67-17-18.95-17h-3.18v22.94zM182.33 46.82c-2.12-7.49-5.72-16.05-14.5-16.05-6.67 0-10.8 5.47-10.8 12.13 0 7.37 4.34 11.3 13.34 16.29 10.06 5.71 18.52 11.89 18.52 24.26 0 13.2-9.95 23.54-24.98 23.54-4.02 0-7.62-.71-10.48-1.78-2.86-.95-4.76-1.78-6.03-2.5-.95-2.85-2.33-12.84-3.07-19.5l3.6-1.19c1.91 7.49 7.62 20.33 18 20.33 7.09 0 11.43-5.23 11.43-13.2 0-7.61-5.08-12.01-13.02-16.65-9.42-5.47-18.1-11.77-18.1-23.9 0-12.37 8.79-22.48 23.29-22.48 6.14 0 11.54 2.02 14.29 2.97.42 4.4 1.06 9.39 1.91 16.89l-3.4.84z" fill="#010101"></path><path class="st0" d="M244.15 85.83c-.64 4.76-2.75 15.82-3.7 19.38h-52.93v-3.81c9.21-.83 10.16-1.67 10.16-11.65V43.49c0-10.46-.95-10.94-8.68-11.65v-3.92h48.8c.11 2.38.64 10.7 1.06 17.6l-3.6.59c-.95-4.52-2.22-7.97-3.92-10.23-1.69-2.26-4.55-3.09-11.11-3.09h-6.14c-3.7 0-4.02.24-4.02 4.04v25.81h8.15c9.1 0 10.16-.71 11.54-8.92h3.6v23.55h-3.6c-1.38-8.56-2.44-9.04-11.54-9.04h-8.15V89.4c0 5.71.53 8.44 2.54 9.75 1.91 1.19 5.61 1.31 9.95 1.31 6.46 0 9.95-.83 12.39-3.92 2.01-2.5 3.92-6.42 5.72-11.42l3.48.71zM308.5 106.28c-.85 0-2.12-.12-3.28-.12-11.43-.59-15.67-3.69-20.11-11.3-3.07-5.23-6.35-12.01-9.42-18.08-1.69-3.57-3.6-5-7.73-5h-2.44v17.96c0 9.75.95 10.82 9.1 11.65v3.81h-30.49v-3.81c8.15-.83 9.31-1.78 9.31-11.65v-46.5c0-9.75-.95-10.7-8.89-11.42V27.9h28.47c8.68 0 13.97 1.19 18.21 4.28 4.23 3.21 7.09 8.44 7.09 15.82 0 10.35-6.03 16.17-13.34 19.62 1.69 3.69 5.72 11.65 8.89 17 3.81 6.54 6.03 10.11 8.36 12.72 2.43 3.09 4.45 4.52 6.88 5.35l-.61 3.59zM269.01 67.4c4.87 0 8.36-.95 10.8-3.21 3.7-3.45 5.29-8.21 5.29-14.39 0-12.72-6.78-17.48-13.55-17.48-2.75 0-4.34.59-5.08 1.19-.74.71-.95 2.02-.95 4.76V67.4h3.49zM373.48 31.84c-6.99.95-8.79 2.26-12.91 13.32-3.28 8.68-13.44 36.75-21.59 61.36h-4.55c-7.2-21.76-16.72-49.35-21.7-63.5-3.17-9.04-4.87-10.47-11.33-11.18v-3.92h29.53v3.92c-7.73 1.19-7.83 2.38-6.14 7.49 2.96 9.16 11.01 32.82 16.09 47.33h.21c5.72-16.41 11.43-33.53 14.5-44.47 2.33-7.73 2.01-9.16-6.56-10.35v-3.92h24.45v3.92z" fill="#010101"></path><path class="st0" d="M428.31 85.83c-.63 4.76-2.75 15.82-3.7 19.38h-52.93v-3.81c9.21-.83 10.16-1.67 10.16-11.65V43.49c0-10.46-.95-10.94-8.68-11.65v-3.92h48.8c.11 2.38.64 10.7 1.06 17.6l-3.6.59c-.95-4.52-2.22-7.97-3.92-10.23-1.69-2.26-4.55-3.09-11.11-3.09h-6.14c-3.7 0-4.02.24-4.02 4.04v25.81h8.15c9.1 0 10.16-.71 11.54-8.92h3.6v23.55h-3.6c-1.38-8.56-2.44-9.04-11.54-9.04h-8.15V89.4c0 5.71.53 8.44 2.54 9.75 1.91 1.19 5.61 1.31 9.95 1.31 6.46 0 9.95-.83 12.38-3.92 2.01-2.5 3.92-6.42 5.72-11.42l3.49.71z" fill="#010101"></path><path class="st0" d="M492.13 106.28c-.85 0-2.12-.12-3.28-.12-11.43-.59-15.67-3.69-20.11-11.3-3.07-5.23-6.35-12.01-9.42-18.08-1.69-3.57-3.6-5-7.73-5h-2.43v17.96c0 9.75.95 10.82 9.1 11.65v3.81h-30.49v-3.81c8.15-.83 9.32-1.78 9.32-11.65v-46.5c0-9.75-.95-10.7-8.89-11.42V27.9h28.48c8.68 0 13.97 1.19 18.21 4.28 4.23 3.21 7.09 8.44 7.09 15.82 0 10.35-6.03 16.17-13.34 19.62 1.69 3.69 5.72 11.65 8.89 17 3.81 6.54 6.03 10.11 8.36 12.72 2.43 3.09 4.45 4.52 6.88 5.35l-.64 3.59zM452.64 67.4c4.87 0 8.36-.95 10.8-3.21 3.7-3.45 5.29-8.21 5.29-14.39 0-12.72-6.77-17.48-13.55-17.48-2.75 0-4.34.59-5.08 1.19-.74.71-.95 2.02-.95 4.76V67.4h3.49z" fill="#010101"></path><g><path class="st1" d="M91.01.39c1.92 0 3.31.29 4.26 1.01 1.14.83 1.8 2.12 1.8 3.8 0 3.47-2.41 5.04-4.96 5.38-.36.05-.75.05-1.02.05l-1.65-.41v3.54c0 2.2.22 2.38 2.31 2.56v.88h-7.57v-.88c1.82-.18 2.04-.36 2.04-2.56V3.85c0-2.2-.22-2.35-1.9-2.56v-.9h6.69zm-1.58 8.79c.29.13.8.26 1.31.26.9 0 2.85-.67 2.85-4.16 0-2.92-1.56-3.88-3.04-3.88-.46 0-.75.13-.9.26-.15.16-.22.41-.22.8v6.72zM111.61 12.91c-.15 1.16-.66 3.52-.85 4.29h-12.4v-.91c2.07-.18 2.31-.34 2.31-2.53V3.83c0-2.25-.24-2.38-1.97-2.53V.39h11.46c.02.47.15 2.28.24 3.88l-.88.13c-.24-.91-.56-1.76-1-2.22-.41-.47-1.07-.65-2.43-.65h-1.17c-.9 0-1 .05-1 .91v5.48h1.63c2.04 0 2.36-.13 2.7-1.94h.88v5.22h-.88c-.34-1.86-.63-1.97-2.7-1.97h-1.63v4.48c0 1.22.1 1.86.58 2.12.44.21 1.26.26 2.19.26 1.24 0 2.12-.18 2.7-.83.46-.57.9-1.4 1.36-2.53l.86.18zM125.57 17.2v-.91c1.83-.21 1.97-.39 1.95-2.77l-.05-9.96h-.12l-5.38 13.45h-.68l-4.96-13.19h-.1l-.29 6.75c-.1 2.15-.1 3.36 0 4.16.1 1.16.58 1.4 2.19 1.55v.91h-5.84v-.91c1.36-.13 1.82-.59 1.97-1.5.15-.83.34-2.17.51-4.89l.39-5.1c.2-2.95.03-3.31-2.07-3.52V.39h5.04l4.7 11.33L127.6.39h4.89v.91c-1.95.21-2.04.41-2 2.56l.22 9.67c.05 2.38.17 2.56 2.07 2.77v.91h-7.21zM143.2 8.17c2.82.36 4.7 1.58 4.7 4.03 0 1.73-.9 3.08-2.29 3.88-1.24.75-3.11 1.11-5.13 1.11h-6.18v-.91c1.87-.18 2.09-.36 2.09-2.56V3.85c0-2.2-.22-2.38-1.95-2.56v-.9h7.1c1.87 0 3.09.26 4.02.91.9.62 1.43 1.66 1.43 2.95 0 2.46-2.04 3.47-3.8 3.83v.09zm-3.04-.36c2.34 0 3.38-.98 3.38-3.13 0-2.33-1.31-3.21-2.63-3.21-.54 0-.95.16-1.09.31-.17.18-.22.57-.22 1.11V7.8h.56zm-.56 5.87c0 1.91.49 2.46 1.78 2.43 1.36-.03 2.89-1.09 2.89-3.62 0-2.41-1.41-3.65-4.18-3.65h-.49v4.84zM164.85 17.43c-.15 0-.44-.03-.73-.03-3.06-.16-4.01-.88-4.99-2.51-.63-1.06-1.29-2.46-2-3.8-.39-.8-.83-1.11-1.61-1.14h-.46v3.78c0 2.12.24 2.38 2.07 2.56v.91h-7.35v-.91c1.82-.18 2.09-.44 2.09-2.56V3.8c0-2.07-.22-2.33-2-2.51v-.9h6.84c2.12 0 3.36.26 4.33.98.97.67 1.65 1.84 1.65 3.44 0 2.28-1.41 3.49-3.04 4.21.34.75 1.27 2.48 1.97 3.67.88 1.42 1.39 2.25 1.87 2.79.54.59.92.91 1.48 1.11l-.12.84zm-9.15-8.48c1.02 0 1.85-.18 2.38-.7.83-.72 1.17-1.76 1.17-3.08 0-2.74-1.51-3.75-2.87-3.75-.61 0-.95.1-1.09.26-.17.15-.22.41-.22.96v6.31h.63zM182.21 8.61c0 5.59-3.77 8.98-8.34 8.98-4.87 0-8.25-3.8-8.25-8.77 0-4.45 2.97-8.82 8.54-8.82 4.43 0 8.05 3.49 8.05 8.61zm-12.87-.28c0 4.42 1.85 8.17 4.96 8.17 2.31 0 4.18-2.41 4.18-7.16 0-5.15-1.97-8.25-4.77-8.25-2.44 0-4.37 2.76-4.37 7.24zM195.34 17.2c-1.05-1.53-3.07-4.55-4.79-7.22-.51-.8-.83-.96-1.19-.9v4.65c0 2.2.22 2.38 2.09 2.56v.91h-7.28v-.91c1.75-.18 2-.36 2-2.56V3.85c0-2.2-.22-2.38-2.04-2.56v-.9h7.15v.91c-1.73.18-1.92.36-1.92 2.56v4.4c.51-.16 1.12-.57 1.85-1.37 1.63-1.73 2.6-3.03 3.41-4.16.58-.83.54-1.19-.61-1.35l-.44-.08V.39h6.33v.91c-1.51.15-2.51.49-3.84 1.81-1.44 1.4-2.46 2.64-3.55 3.85 1.56 2.46 3.36 5.07 5.11 7.42 1 1.32 1.65 1.76 2.63 1.91v.91h-4.91zM214.21 12.91c-.14 1.16-.66 3.52-.85 4.29h-12.41v-.91c2.07-.18 2.31-.34 2.31-2.53V3.83c0-2.25-.24-2.38-1.97-2.53V.39h11.46c.02.47.15 2.28.24 3.88l-.88.13c-.24-.91-.56-1.76-1-2.22-.41-.47-1.07-.65-2.43-.65h-1.17c-.9 0-1 .05-1 .91v5.48h1.63c2.04 0 2.36-.13 2.7-1.94h.88v5.22h-.88c-.34-1.86-.63-1.97-2.7-1.97h-1.63v4.48c0 1.22.1 1.86.58 2.12.44.21 1.27.26 2.19.26 1.24 0 2.12-.18 2.7-.83.46-.57.9-1.4 1.36-2.53l.87.18z" fill="#427C98"></path></g><g><path class="st1" d="M424.19 123.74c-1.51.18-2.02.52-2.89 1.73-.68.91-1.29 1.89-2.04 3.03 1.56 1.61 3.06 3.6 4.21 5.43l-.15.31c-2.41 0-3.87-.59-4.18-.93-.32-.34-1.02-1.21-1.92-2.15-1.51 2.1-3.07 3.08-4.7 3.08-3.31 0-5.08-2.59-5.08-4.81 0-2.17 1.24-3.1 3.41-4.71-.98-1.01-1.63-2.15-1.63-3.67 0-2.3 2.02-4.32 4.43-4.32 2.43 0 4.13 1.6 4.13 3.75 0 .91-.39 1.55-1.05 2.12-.49.46-1.17.98-1.95 1.53.7.64 2.09 1.94 3.79 3.62.41-.67.8-1.4 1.19-2.22.49-1.16.32-1.53-1.34-1.79v-.88h5.77v.88zm-7.61 6.64c-1.8-1.94-3.04-3.08-5.11-4.99-.66.75-1.02 1.83-1.02 2.84 0 2.48 1.6 3.65 3.24 3.65 1.09.01 2.26-.69 2.89-1.5zm-4.82-10.37c0 1.27.66 2.15 2.31 3.52.63-.57 1.22-1.6 1.22-3.18 0-1.34-.63-2.64-1.87-2.64-.95 0-1.66 1.09-1.66 2.3zM445.94 117.97c-1.31.08-1.83.41-1.95 1.6-.07.8-.22 2.02-.22 4.29v10.27h-1.17l-10.12-12.88h-.07v5.82c0 2.28.12 3.42.2 4.19.12 1.14.53 1.63 2.33 1.71v.91h-5.96v-.91c1.36-.1 1.92-.52 2.02-1.63.1-.85.24-1.99.24-4.27v-5.4c0-1.68-.05-2.17-.51-2.77-.44-.62-1-.83-2.02-.93v-.91h4.5l9.29 11.35h.1v-4.55c0-2.28-.15-3.49-.2-4.24-.12-1.11-.63-1.55-2.41-1.66v-.91h5.94v.92zM459.85 129.58c-.15 1.16-.66 3.52-.85 4.29h-12.41v-.91c2.07-.18 2.31-.34 2.31-2.54v-9.93c0-2.25-.24-2.38-1.97-2.53v-.91h11.46c.02.46.15 2.28.24 3.88l-.87.13c-.24-.91-.56-1.76-1-2.23-.41-.46-1.07-.65-2.43-.65h-1.17c-.9 0-1 .05-1 .91v5.48h1.63c2.04 0 2.36-.13 2.7-1.94h.87v5.22h-.87c-.34-1.86-.63-1.96-2.7-1.96h-1.63v4.47c0 1.22.1 1.86.58 2.12.44.21 1.26.26 2.19.26 1.24 0 2.12-.18 2.7-.83.46-.57.9-1.4 1.36-2.53l.86.2zM483.29 117.97c-1.61.29-2.02.62-2.68 2.79-.56 1.66-2 6.16-4.04 13.4h-1.26c-1.31-3.85-2.6-7.55-3.96-11.48h-.05c-1.26 3.9-2.51 7.76-3.65 11.48h-1.29c-1.31-4.66-2.53-9-3.89-13.58-.58-2.02-1-2.38-2.43-2.61v-.91h7.2v.91c-1.85.23-1.87.59-1.53 1.91.8 3.03 1.63 6.03 2.48 8.9h.05c1.14-3.67 2.36-7.58 3.5-11.56h1.17c1.36 3.93 2.75 7.89 4.09 11.66h.05c.95-3.18 1.95-7.22 2.29-8.71.34-1.55.22-1.99-1.75-2.2v-.91h5.72v.91zM493.09 121.28c-.51-1.63-1.41-3.54-3.41-3.54-1.36 0-2.36 1.09-2.36 2.56 0 1.42.87 2.25 3.02 3.39 2.55 1.32 4.31 2.77 4.31 5.33 0 2.95-2.36 5.25-5.91 5.25-.88 0-1.73-.13-2.46-.36-.68-.21-1.14-.42-1.49-.57-.22-.65-.53-2.82-.7-4.4l.85-.29c.49 1.66 1.92 4.55 4.26 4.55 1.48 0 2.43-1.08 2.43-2.71 0-1.53-1.07-2.48-2.89-3.52-2.51-1.34-4.23-2.74-4.23-5.22 0-2.84 2.12-5.07 5.57-5.07 1.56 0 2.94.52 3.38.7.1.96.27 2.09.46 3.7l-.83.2z" fill="#427C98"></path></g></g></svg>