<svg xmlns:xlink="http://www.w3.org/1999/xlink" aria-labelledby="ssmLogo" class="header-logo-image logo-ssm" viewBox="0 0 863.75 92.92" x="0" xml:space="preserve" xmlns="http://www.w3.org/2000/svg" y="0" width="863.75"  height="92.92" ><text id="ssmLogo">Sault This Week</text><style>.st0{fill:#010101}</style><path class="st0" d="M44.48 24.78C42 16.29 37.79 6.6 27.51 6.6c-7.81 0-12.64 6.19-12.64 13.74 0 8.35 5.08 12.79 15.61 18.45 11.77 6.46 21.68 13.47 21.68 27.47 0 14.95-11.65 26.66-29.24 26.66-4.71 0-8.92-.81-12.27-2.02-3.35-1.08-5.58-2.02-7.06-2.83C2.48 84.84.87 73.53 0 65.99l4.21-1.35c2.23 8.48 8.92 23.03 21.06 23.03 8.3 0 13.38-5.92 13.38-14.95 0-8.62-5.95-13.6-15.24-18.85C12.39 47.67 2.23 40.53 2.23 26.8c0-14.01 10.28-25.45 27.26-25.45 7.19 0 13.5 2.29 16.73 3.37.5 4.98 1.24 10.64 2.23 19.12l-3.97.94z" fill="#010101"></path><path class="st0" d="M87.74 90.9v-3.81c6.57-1.07 7.23-2.38 5.69-7.38-1.2-3.93-3.07-9.52-5.04-15.24H66.61c-1.42 4.4-2.96 8.93-4.27 13.69-1.86 6.43-1.31 7.86 6.68 8.93v3.81h-24.2v-3.81c7.12-1.07 8.54-2.14 12.26-12.38l22.45-61.53 4.82-1.43c7.01 20.71 13.91 42.13 21.02 62.61 3.61 10.47 5.04 11.78 12.04 12.74v3.81H87.74zm-9.85-59.63h-.33c-3.18 9.16-6.13 18.45-9.2 27.37h18.18l-8.65-27.37zM186.4 17.46c-6.24.36-8.87 2.5-9.42 7.02-.44 3.45-.77 8.09-.77 17.5v11.78c0 13.09-1.86 23.21-8.1 30.35-5.04 5.71-12.48 8.57-20.04 8.57-6.9 0-13.58-1.67-18.72-5.95-6.24-5.36-9.31-14.16-9.31-28.09V29.96c0-11.07-.99-11.66-9.31-12.5v-3.93h31.31v3.93c-8.21.71-9.2 1.43-9.2 12.5v26.3c0 18.33 6.24 28.92 18.72 28.92 14.02 0 19.49-12.02 19.49-31.9v-11.3c0-9.28-.55-14.04-.98-17.73-.66-4.28-3.07-6.31-10.62-6.78v-3.93h26.94v3.92z" fill="#010101"></path><path class="st0" d="M241.14 71.26c-.88 4.64-3.07 16.31-4.05 19.64h-51.9v-3.81c9.31-.83 10.4-1.67 10.4-11.78v-46.3c0-10.12-.99-10.83-9.53-11.54v-3.93h31.64v3.93c-8.43.71-9.42 1.43-9.42 11.54v46.78c0 5.83.44 8.09 2.63 9.16 1.97.95 5.15 1.19 8.98 1.19 5.26 0 9.09-.71 11.61-3.93 2.08-2.38 4.05-6.19 5.91-11.9l3.73.95zM292.38 33.17c-1.31-5.95-2.63-9.64-4.27-11.66-1.97-2.38-4.38-3.09-11.5-3.09h-5.91v57.01c0 9.88.98 10.83 10.95 11.66v3.81h-34.16v-3.81c9.42-.83 10.51-1.79 10.51-11.66V18.41h-4.93c-8.98 0-11.06 1.07-12.59 3.33-1.64 2.02-2.85 5.83-4.16 11.55h-3.72c.44-8.09 1.1-16.54 1.31-22.73h2.52c1.64 2.74 3.07 2.98 6.13 2.98h43.8c2.85 0 4.16-.71 6.02-2.98h2.52c0 5.12.55 15 1.1 22.38l-3.62.23zM379.71 25.59c-1.49-6.73-2.97-10.91-4.83-13.2-2.23-2.69-4.96-3.5-13.01-3.5h-6.69v64.5c0 11.18 1.11 12.25 12.39 13.2v4.31h-38.66v-4.31c10.66-.94 11.89-2.02 11.89-13.2V8.89h-5.57c-10.16 0-12.51 1.21-14.25 3.77-1.86 2.29-3.22 6.6-4.71 13.06h-4.21C312.55 16.56 313.3 7 313.54 0h2.85c1.86 3.1 3.47 3.37 6.94 3.37h49.56c3.22 0 4.71-.81 6.81-3.37h2.85c0 5.79.62 16.97 1.24 25.32l-4.08.27zM465.43 17.46c-8.65.83-9.42 1.43-9.42 11.54v46.54c0 10 .88 10.71 9.42 11.55v3.81h-31.97v-3.81c8.87-.83 9.75-1.55 9.75-11.55V52.81h-32.52v22.73c0 10 .88 10.71 9.31 11.55v3.81h-31.31v-3.81c8.32-.83 9.31-1.55 9.31-11.55V29.01c0-10.12-.99-10.83-9.64-11.54v-3.93h31.32v3.93c-8.1.71-8.98 1.43-8.98 11.54V47.1h32.52V29.01c0-10.12-.77-10.71-9.09-11.54v-3.93h31.31v3.92zM468.17 90.9v-3.81c8.43-.83 9.42-1.55 9.42-11.66v-46.3c0-10.12-.99-10.95-9.42-11.66v-3.93h31.42v3.93c-8.43.71-9.31 1.55-9.31 11.66v46.3c0 10 .88 10.83 9.31 11.66v3.81h-31.42zM541.97 32.46c-2.19-7.5-5.91-16.07-15-16.07-6.9 0-11.17 5.48-11.17 12.14 0 7.38 4.49 11.31 13.8 16.31 10.4 5.71 19.16 11.9 19.16 24.28 0 13.21-10.29 23.57-25.84 23.57-4.16 0-7.88-.71-10.84-1.79-2.96-.95-4.93-1.79-6.24-2.5-.99-2.86-2.41-12.85-3.17-19.52l3.72-1.19c1.97 7.5 7.88 20.35 18.61 20.35 7.34 0 11.83-5.24 11.83-13.21 0-7.62-5.26-12.02-13.47-16.66-9.75-5.47-18.72-11.78-18.72-23.92 0-12.38 9.09-22.5 24.09-22.5 6.35 0 11.93 2.02 14.78 2.98.44 4.4 1.09 9.4 1.97 16.9l-3.51.83z" fill="#010101"></path><g><path class="st0" d="M685.17 7.81c-8.3 1.35-10.04 2.83-13.5 14.01-2.85 8.75-10.16 32.86-20.44 70.56h-5.58c-6.81-20.74-14-42.29-20.81-62.48h-.25c-6.57 21.55-13.01 42.15-19.08 62.48h-5.58c-6.69-24.24-13.13-47.27-19.95-71.24-3.1-10.64-5.08-12.25-12.51-13.33V3.37h34.32v4.44c-9.29 1.21-9.42 2.69-7.68 9.7 4.34 16.56 8.8 33.13 13.51 49.56h.25c6.2-20.47 12.64-41.48 18.59-62.75h5.2c6.94 21.14 14 42.15 21.06 63.02h.25c4.95-16.97 10.65-39.86 12.51-48.34 1.74-8.08 1.24-10.1-8.67-11.18V3.37h28.37v4.44z" fill="#010101"></path></g><g><path class="st0" d="M734.55 71.5c-.66 4.76-2.85 15.83-3.83 19.4h-54.75v-3.81c9.53-.83 10.51-1.67 10.51-11.66v-46.3c0-10.47-.99-10.95-8.98-11.66v-3.93h50.48c.11 2.38.66 10.71 1.09 17.61l-3.72.6c-.99-4.52-2.3-7.97-4.05-10.24-1.75-2.26-4.71-3.09-11.5-3.09h-6.35c-3.83 0-4.16.24-4.16 4.05V48.3h8.43c9.41 0 10.51-.71 11.93-8.93h3.72v23.57h-3.72c-1.42-8.57-2.52-9.04-11.93-9.04h-8.43v21.19c0 5.71.55 8.45 2.63 9.76 1.97 1.19 5.8 1.31 10.29 1.31 6.68 0 10.29-.83 12.81-3.93 2.08-2.5 4.05-6.43 5.91-11.43l3.62.7z" fill="#010101"></path><path class="st0" d="M792.25 71.5c-.66 4.76-2.85 15.83-3.83 19.4h-54.75v-3.81c9.53-.83 10.51-1.67 10.51-11.66v-46.3c0-10.47-.99-10.95-8.98-11.66v-3.93h50.48c.11 2.38.66 10.71 1.09 17.61l-3.72.6c-.99-4.52-2.3-7.97-4.05-10.24-1.75-2.26-4.71-3.09-11.5-3.09h-6.35c-3.83 0-4.16.24-4.16 4.05V48.3h8.43c9.42 0 10.51-.71 11.93-8.93h3.72v23.57h-3.72c-1.42-8.57-2.52-9.04-11.93-9.04H757v21.19c0 5.71.55 8.45 2.63 9.76 1.97 1.19 5.8 1.31 10.29 1.31 6.68 0 10.29-.83 12.81-3.93 2.08-2.5 4.05-6.43 5.91-11.43l3.61.7zM843.61 90.9c-6.13-8.21-15.11-21.31-23.65-33.8-2.41-3.45-3.83-4.05-5.58-3.81v21.9c0 10.24 1.09 11.07 9.64 11.9v3.81h-31.1v-3.81c7.99-.83 9.09-1.67 9.09-11.9V29.36c0-10.47-.99-11.19-9.42-11.9v-3.93h30.77v3.93c-7.99.71-8.98 1.55-8.98 11.9v20.35c2.41-.71 4.93-2.5 8.1-5.95 6.9-7.38 12.37-14.16 16.42-19.88 2.85-3.93 2.74-5.48-2.41-6.19l-2.08-.24v-3.93H862v3.93c-7.23.71-11.06 2.02-17.52 8.45-5.58 5.71-11.39 12.38-17.08 18.81 7.34 11.42 16.97 24.4 23.87 33.56 5.04 6.43 7.77 8.09 12.48 8.81v3.81h-20.14z" fill="#010101"></path></g></svg>