<svg xmlns:xlink="http://www.w3.org/1999/xlink" aria-labelledby="sadLogo" class="header-logo-image logo-sad" version="1.1" viewBox="0 0 424.94 137.3" x="0" xml:space="preserve" xmlns="http://www.w3.org/2000/svg" y="0" width="424.94"  height="137.3" ><text id="sadLogo">Strathroy Age Dispatch</text><style>.st0{fill:#004b8c}</style><path d="M3.31 17.73l1.78-.99c.84 2.37 2.2 4.02 4.3 4.02 2.15 0 3.43-1.41 3.43-3.57 0-2.58-1.8-3.69-3.75-4.83-2.32-1.35-4.94-2.76-4.94-6.84C4.13 2.28 6.28 0 9.09 0c2.89 0 4.57 2.13 5.46 4.68l-1.78 1.05c-.67-1.86-1.73-3.51-3.7-3.51-1.73 0-2.89 1.32-2.89 3.21 0 2.58 1.78 3.69 3.68 4.83 2.35 1.35 4.99 2.79 4.99 6.87 0 3.24-2.1 5.85-5.46 5.85-3.04 0-4.94-2.04-6.08-5.25zM18.37 19.05V8.79h-1.93V6.78h1.93V1.14h1.98v5.64h2.86v2.01h-2.86v9.72c0 1.62.35 2.34 1.73 2.34.4 0 .86-.09 1.11-.21v1.95c-.3.12-.99.21-1.56.21-2.37 0-3.26-1.02-3.26-3.75zM25.6 6.78h2v2.73h.05c.74-1.59 2.1-3.06 4.12-3.06h.27l-.12 2.28s-.37-.03-.47-.03c-1.7 0-3.09 1.35-3.85 3.24v10.68h-2V6.78zM32.79 18.87c0-3.15 2.2-5.46 7.28-6.69v-.96c0-1.8-.64-2.64-1.95-2.64-1.58 0-2.86.96-3.85 2.13l-1.11-1.47c1.36-1.65 3.09-2.79 5.16-2.79 2.54 0 3.7 1.71 3.7 4.77v7.5c0 1.92.07 3.09.32 3.9h-2c-.15-.63-.27-1.14-.27-2.04-1.06 1.41-2.49 2.25-4.17 2.25-1.95 0-3.11-1.47-3.11-3.96zm7.29-.09v-4.86c-4.02 1.05-5.33 2.73-5.33 4.62 0 1.59.69 2.31 1.83 2.31 1.35 0 2.58-.87 3.5-2.07zM45.9 19.05V8.79h-1.93V6.78h1.93V1.14h1.98v5.64h2.86v2.01h-2.86v9.72c0 1.62.35 2.34 1.73 2.34.4 0 .86-.09 1.11-.21v1.95c-.3.12-.99.21-1.56.21-2.37 0-3.26-1.02-3.26-3.75zM53.14.42h2v8.55c.86-1.17 2.41-2.52 4.12-2.52 2.1 0 3.21 1.53 3.21 4.41v11.76h-1.98V11.37c0-1.89-.52-2.79-1.85-2.79-1.26 0-2.62 1.17-3.51 2.28v11.76h-2V.42zM65.53 6.78h2v2.73h.05c.74-1.59 2.1-3.06 4.12-3.06h.27l-.12 2.28s-.37-.03-.47-.03c-1.7 0-3.09 1.35-3.85 3.24v10.68h-2V6.78z"></path><g><path d="M72.85 14.7c0-5.46 2.25-8.25 5.16-8.25 2.89 0 5.13 2.79 5.13 8.25 0 5.43-2.25 8.25-5.13 8.25-2.89 0-5.16-2.82-5.16-8.25zm8.3 0c0-3.42-.96-6.15-3.14-6.15-2.1 0-3.16 2.46-3.16 6.15 0 3.45.91 6.21 3.16 6.21 2.08 0 3.14-2.46 3.14-6.21zM83.74 28.29l.39-1.92c.32.09.94.24 1.58.24 1.14 0 1.58-.78 2.02-2.46l.37-1.38-4.06-15.99h2.05l1.98 8.28c.42 1.74.72 3.09 1.06 4.77h.05c.37-1.74.69-3.15 1.11-4.95l1.93-8.1h1.9l-4.49 17.58c-.77 2.91-1.6 4.29-3.85 4.29-.88 0-1.67-.21-2.04-.36z"></path></g><g><path class="st0" d="M13.46 33.57h18.51l13.35 81.73H27.49l-1.68-15.18h-7.63L16.6 115.3H0l13.46-81.73zm11.56 55c-.67-6.49-1.46-14.52-2.02-19.8-.34-2.75-.56-5.39-.79-7.92h-.22c-.22 2.53-.56 5.17-.79 7.92-.56 5.39-1.35 13.31-2.13 19.8h5.95z" fill="#004B8C"></path><path class="st0" d="M42.63 125.75c0-4.95 3.81-9.57 8.19-11.55-4.82-1.76-6.17-5.5-6.17-9.13 0-2.97 2.02-7.37 6.17-10.45-4.26-3.63-6.51-9.46-6.51-17.27 0-15.29 8.53-21.67 18.4-21.67 4.82 0 9.09 1.43 12.34 4.51 2.36-2.97 6.17-5.39 8.53-5.94v16.72h-3.03c.34 1.98.56 3.96.56 6.38 0 15.73-8.53 21.34-18.4 21.34-1.57 0-3.03-.11-4.38-.44-.34.44-.45.88-.45 1.32 0 1.32.45 1.98 2.8 2.31l5.61.77c12.9 1.76 16.72 6.05 16.72 16.61 0 10.34-8.75 18.04-22.22 18.04-13.22 0-18.16-5.39-18.16-11.55zm25.14-4.4c0-3.19-1.01-5.28-5.39-5.72l-2.36-.22c-1.68 2.42-2.24 4.95-2.24 6.93 0 3.74 1.91 5.61 4.71 5.61 3.48 0 5.28-2.2 5.28-6.6zm-2.47-44c0-8.25-.45-9.46-2.58-9.46s-2.58 1.65-2.58 9.46.56 9.68 2.58 9.68 2.58-1.87 2.58-9.68z" fill="#004B8C"></path><path class="st0" d="M83.47 85.93c0-20.02 6.62-30.25 19.3-30.25 16.94 0 18.4 15.95 18.4 29.7v6.27H99.52c0 7.26.79 11.44 3.37 11.44 2.13 0 2.92-1.65 3.14-7.81l15.26.44c-1.46 12.1-5.95 20.35-18.51 20.35-12.57 0-19.31-10.34-19.31-30.14zm21.99-4.18c-.11-10.34-.45-12.54-2.69-12.54-2.02 0-3.25 2.53-3.25 12.54h5.94zM138.22 33.9h16.04c16.72 0 27.04 4.4 27.04 40.7 0 36.08-10.66 40.7-27.04 40.7h-16.04V33.9zm18.97 66.99c5.61 0 6.06-4.95 6.06-26.29 0-21.89-.45-25.74-6.17-25.74h-1.12v52.03h1.23zM184 36.1h16.72v15.51H184V36.1zm.11 20.35h16.49v58.85h-16.49V56.45zM202.51 97.26l14.36-1.76c.79 6.16 2.58 8.47 4.15 8.47 1.35 0 2.47-.44 2.47-2.53 0-3.63-3.7-5.06-7.97-8.47-5.5-4.4-11.89-10.23-11.89-20.9 0-13.09 10.21-16.83 16.72-16.83 10.88 0 17.39 4.51 18.62 17.93l-14.14 2.2c-.56-6.16-1.46-7.15-3.59-7.15-1.01 0-1.91.77-1.91 2.31 0 3.74 3.37 6.05 7.41 9.13 5.72 4.51 12.68 9.13 12.68 19.58 0 10.23-6.51 17.05-18.06 17.05-14.36 0-17.61-8.14-18.85-19.03zM242.01 56.45h16.49v6.16c1.57-2.97 5.05-6.93 9.87-6.93 7.52 0 12.23 7.92 12.23 30.14s-4.82 30.03-12.34 30.03c-4.26 0-7.74-2.86-9.76-7.26v28.71h-16.49V56.45zm21.65 29.48c0-13.97-.56-15.18-2.58-15.18-1.12 0-2.02.44-2.58.88v29.26c.67.33 1.35.66 2.69.66 1.8 0 2.47-1.43 2.47-15.62zM281.5 99.9c0-12.54 7.18-19.8 20.98-23.21v-3.63c0-3.74-.34-4.4-1.91-4.4-1.46 0-2.02.88-2.69 5.06l-14.59-1.76c2.69-13.31 9.76-16.28 19.19-16.28 11 0 15.71 4.95 15.71 16.72V101c0 7.04.22 11.33.9 14.3h-15.82c-.56-1.54-.79-3.08-.79-6.93-2.02 4.29-4.82 7.37-9.99 7.37-5.94 0-10.99-3.96-10.99-15.84zm20.98.66V87.58c-4.04 2.09-5.16 5.61-5.16 10.01 0 2.31.79 3.85 2.47 3.85.9 0 2.02-.44 2.69-.88zM324.02 104.41V68.88h-4.49V56.45h4.49V36.54h16.38v19.91h7.52v12.43h-7.52v29.48c0 5.39 1.12 5.72 3.93 5.72 1.57 0 2.8-.22 3.59-.44v11.55c-1.01.33-4.49.66-9.2.66-8.53 0-14.7-1.98-14.7-11.44z" fill="#004B8C"></path></g><g><path class="st0" d="M347.3 85.93c0-20.02 6.73-30.25 19.41-30.25 12.57 0 17.5 8.58 18.51 23.1l-16.04.77c-.22-6.93-.22-10.12-2.47-10.12-2.02 0-2.92 1.54-2.92 16.39 0 14.19.79 17.16 2.92 17.16s2.69-2.86 2.69-11.44l15.82.44c-.56 14.96-5.95 24.09-18.51 24.09-12.56 0-19.41-10.34-19.41-30.14zM387.25 33.9h16.49v28.71c2.47-3.3 8.08-6.93 12.45-6.93 5.5 0 8.75 1.76 8.75 11.55v48.07h-16.49V73.39c0-1.87-.45-2.64-1.46-2.64-1.12 0-2.58.77-3.25 1.1v43.45h-16.49V33.9z" fill="#004B8C"></path></g></svg>