<svg xmlns:xlink="http://www.w3.org/1999/xlink" aria-labelledby="srfLogo" class="header-logo-image logo-srf" role="img" viewBox="0 0 585.46 57.05" xmlns="http://www.w3.org/2000/svg" width="585.46"  height="57.05" > <text id="srfLogo">Simcoe Reformer</text> <path d="M28.01 14.52C26.53 9.23 23.88 3.19 17.4 3.19c-4.99 0-8.04 3.86-8.04 8.56 0 5.2 3.2 7.97 9.83 11.58 7.41 3.94 13.66 8.39 13.66 17.12 0 9.31-7.33 16.61-18.41 16.61-2.97 0-5.62-.5-7.73-1.17-2.11-.75-3.51-1.34-4.45-1.85C1.56 52.02.55 44.97 0 40.27l2.65-.84c1.41 5.29 5.62 14.35 13.27 14.35 5.23 0 8.43-3.69 8.43-9.31 0-5.37-3.75-8.47-9.6-11.83C7.8 28.86 1.4 24.42 1.4 15.86 1.4 7.05 7.88 0 18.65 0c4.45 0 8.51 1.34 10.46 2.1.31 3.02.78 6.54 1.48 11.83l-2.58.59zm5.43 41.27v-2.37c5.31-.52 5.93-.96 5.93-7.26V17.27c0-6.3-.62-6.74-5.93-7.26V7.64h19.78v2.37c-5.31.52-5.86.96-5.86 7.26v28.89c0 6.3.55 6.74 5.86 7.26v2.37H33.44z"></path><path d="M91.53 55.79v-2.37c5.31-.59 5.65-1.11 5.58-8.3l-.14-29.11h-.35L80.85 55.28h-1.72L64.59 16.83h-.28l-.9 20c-.28 6.15-.28 9.48-.07 12.08.21 3.41 1.65 4 6.27 4.45v2.44h-16.4v-2.44c3.93-.37 5.24-1.56 5.72-4.3.41-2.44.9-6.07 1.38-13.85l1.03-14.89c.62-8.89.14-9.7-5.86-10.3V7.64h13.16l14.12 34.08 14.4-34.08h13.09v2.37c-5.72.59-6 1.04-5.86 7.7l.62 27.41c.21 7.19.48 7.7 6.06 8.3v2.37H91.53zm61.94-12.52c-.9 3.56-2.69 9.19-3.86 11.71-1.86.44-7.99 1.93-12.75 1.93-17.92 0-25.5-12.82-25.5-24.6 0-15.33 10.96-25.78 27.01-25.78 5.58 0 10.54 1.56 12.4 2 .62 4.07 1.1 7.41 1.52 11.78l-2.34.52c-2.07-8.44-6.96-11.26-13.09-11.26-10.54 0-16.26 10.22-16.26 21.26 0 13.7 7.1 22.89 16.88 22.89 6.2 0 10.27-4 13.71-11.41l2.28.96zm47.2-12.07c0 16-10.61 25.71-23.43 25.71-13.3 0-23.01-10.67-23.01-24.89 0-12.96 8.54-25.41 23.84-25.41 12.26-.01 22.6 9.92 22.6 24.59zm-37.14-.89c0 13.11 5.86 23.63 15.02 23.63 6.96 0 12.82-6.89 12.82-20.67 0-15.11-6.27-23.71-14.68-23.71-7.17.01-13.16 7.56-13.16 20.75zm73.93 13.41c-.41 3.04-1.79 9.85-2.41 12.07H200.6v-2.37c5.99-.52 6.62-1.04 6.62-7.26V17.35c0-6.52-.62-6.89-5.72-7.33V7.64h31.83c.07 1.48.41 6.59.69 10.96l-2.34.37c-.62-2.82-1.45-4.96-2.55-6.37-1.1-1.48-2.96-2-7.24-2h-4.07c-2.41 0-2.62.15-2.62 2.52v16.22h5.31c6.06 0 6.75-.45 7.65-5.63h2.27v14.67h-2.27c-.9-5.26-1.65-5.63-7.58-5.63h-5.38v13.19c0 3.56.35 5.33 1.65 6.07 1.31.74 3.72.81 6.61.81 4.2 0 6.41-.52 7.99-2.44 1.31-1.56 2.55-4 3.72-7.11l2.29.45zM295.5 56.55c-.62 0-1.48-.08-2.42-.08-8.43-.42-11.47-2.6-14.83-7.97-2.26-3.69-4.6-8.47-6.87-12.75-1.33-2.43-2.65-3.52-5.77-3.52h-1.79V44.9c0 6.96.7 7.63 6.71 8.22v2.68h-22.4v-2.68c6.01-.59 6.79-1.26 6.79-8.22V12.08c0-6.88-.7-7.55-6.48-8.14V1.26h20.91c6.48 0 10.38.75 13.42 3.02 3.12 2.27 5.23 5.96 5.23 11.16 0 7.3-4.37 11.49-9.83 13.93 1.25 2.6 4.29 8.14 6.63 12 2.73 4.53 4.37 7.05 6.09 8.98 1.79 2.1 3.28 3.1 5.07 3.69l-.46 2.51zm-29.03-27.44c3.51 0 6.09-.59 7.96-2.26 2.73-2.43 3.9-5.79 3.9-10.15 0-9.06-5.07-12.33-9.99-12.33-2.11 0-3.28.34-3.82.84-.55.5-.7 1.43-.7 3.36v20.56h2.65z"></path><path d="M329.7 43.72c-.41 3.04-1.79 9.85-2.41 12.07h-34.45v-2.37c6-.52 6.62-1.04 6.62-7.26V17.35c0-6.52-.62-6.89-5.72-7.33V7.64h31.84c.07 1.48.41 6.59.69 10.96l-2.34.37c-.62-2.82-1.45-4.96-2.55-6.37-1.1-1.48-2.96-2-7.24-2h-4.07c-2.41 0-2.62.15-2.62 2.52v16.22h5.31c6.06 0 6.75-.45 7.65-5.63h2.27v14.67h-2.27c-.9-5.26-1.65-5.63-7.58-5.63h-5.37v13.19c0 3.56.34 5.33 1.65 6.07 1.31.74 3.72.81 6.62.81 4.2 0 6.41-.52 7.99-2.44 1.31-1.56 2.55-4 3.72-7.11l2.26.45z"></path><path d="M359.6 19.12c-.69-2.82-1.31-4.74-2.41-6.15-1.31-1.78-3.03-2.37-7.44-2.37h-4.07c-2.27 0-2.55.15-2.55 2.52v16.82h6.2c6.13 0 6.68-.67 7.51-5.41h2.27v14.52h-2.27c-.76-4.96-1.38-5.7-7.51-5.7h-6.2v12.37c0 6.74.55 7.19 6.69 7.7v2.37h-20.47v-2.37c5.17-.52 5.79-.96 5.79-7.7V17.57c0-6.59-.62-7.04-5.72-7.48V7.64h31.77c0 1.78.34 7.04.69 11.11l-2.28.37zm49.82 12.08c0 16-10.61 25.71-23.43 25.71-13.3 0-23.01-10.67-23.01-24.89 0-12.96 8.54-25.41 23.84-25.41 12.26-.01 22.6 9.92 22.6 24.59zm-37.15-.89c0 13.11 5.86 23.63 15.02 23.63 6.96 0 12.82-6.89 12.82-20.67 0-15.11-6.27-23.71-14.68-23.71-7.16.01-13.16 7.56-13.16 20.75zm79.59 26.15c-.55 0-1.31-.07-2.14-.07-7.44-.37-10.13-2.3-13.09-7.04-2-3.26-4.07-7.48-6.06-11.26-1.17-2.15-2.34-3.11-5.1-3.11h-1.58v11.19c0 6.15.62 6.74 5.93 7.26v2.37h-19.78v-2.37c5.31-.52 6-1.11 6-7.26V17.2c0-6.07-.62-6.67-5.72-7.19V7.64h18.47c5.72 0 9.17.67 11.85 2.67 2.76 2 4.62 5.26 4.62 9.85 0 6.44-3.86 10.15-8.68 12.3 1.1 2.3 3.79 7.18 5.86 10.59 2.41 4 3.86 6.22 5.37 7.93 1.59 1.85 2.89 2.74 4.48 3.26l-.43 2.22zm-25.63-24.22c3.1 0 5.37-.52 7.03-2 2.41-2.15 3.45-5.11 3.45-8.96 0-8-4.48-10.89-8.82-10.89-1.86 0-2.89.3-3.38.74-.48.44-.62 1.26-.62 2.96v18.15h2.34z"></path><path d="M487.62 55.79v-2.37c5.31-.59 5.65-1.11 5.58-8.3l-.14-29.11h-.34l-15.78 39.26h-1.72l-14.54-38.45h-.27l-.9 20c-.28 6.15-.28 9.48-.07 12.08.21 3.41 1.65 4 6.27 4.45v2.44h-16.4v-2.44c3.93-.37 5.24-1.56 5.72-4.3.41-2.44.9-6.07 1.38-13.85l1.03-14.89c.62-8.89.14-9.7-5.86-10.3V7.64h13.16l14.13 34.08 14.4-34.08h13.09v2.37c-5.72.59-6 1.04-5.86 7.7l.62 27.41c.21 7.19.48 7.7 6.06 8.3v2.37h-19.56z"></path><path d="M543.77 43.72c-.41 3.04-1.79 9.85-2.41 12.07h-34.45v-2.37c5.99-.52 6.62-1.04 6.62-7.26V17.35c0-6.52-.62-6.89-5.72-7.33V7.64h31.83c.07 1.48.41 6.59.69 10.96l-2.34.37c-.62-2.82-1.45-4.96-2.55-6.37-1.1-1.48-2.96-2-7.24-2h-4.07c-2.41 0-2.62.15-2.62 2.52v16.22h5.31c6.06 0 6.75-.45 7.65-5.63h2.27v14.67h-2.27c-.9-5.26-1.65-5.63-7.58-5.63h-5.38v13.19c0 3.56.34 5.33 1.65 6.07 1.31.74 3.72.81 6.62.81 4.2 0 6.41-.52 7.99-2.44 1.31-1.56 2.55-4 3.72-7.11l2.28.45z"></path><path d="M585.04 56.46c-.55 0-1.31-.07-2.14-.07-7.44-.37-10.13-2.3-13.09-7.04-2-3.26-4.07-7.48-6.06-11.26-1.17-2.15-2.34-3.11-5.1-3.11h-1.58v11.19c0 6.15.62 6.74 5.93 7.26v2.37h-19.78v-2.37c5.3-.52 5.99-1.11 5.99-7.26V17.2c0-6.07-.62-6.67-5.72-7.19V7.64h18.47c5.72 0 9.17.67 11.85 2.67 2.75 2 4.62 5.26 4.62 9.85 0 6.44-3.86 10.15-8.68 12.3 1.1 2.3 3.79 7.18 5.86 10.59 2.41 4 3.86 6.22 5.37 7.93 1.59 1.85 2.89 2.74 4.48 3.26l-.42 2.22zm-25.63-24.22c3.1 0 5.37-.52 7.03-2 2.41-2.15 3.44-5.11 3.44-8.96 0-8-4.48-10.89-8.82-10.89-1.86 0-2.89.3-3.38.74-.48.44-.62 1.26-.62 2.96v18.15h2.35z"></path></svg>