<svg xmlns:xlink="http://www.w3.org/1999/xlink" aria-labelledby="shxLogo" class="header-logo-image logo-shx header-logo-image--size-md" role="img" viewBox="0 0 518.64 137.44" x="0" xml:space="preserve" xmlns="http://www.w3.org/2000/svg" y="0" width="518.64"  height="137.44" > <text id="shxLogo">Seaforth Huron Expositor</text> <style>.st0{fill:#004b8c}</style><path class="st0" d="M.81 34.04h17.73v31.35h6.06V34.04h17.73v81.4H24.59V79.25h-6.06v36.19H.81v-81.4zm45.55 70.62V56.59h16.49v42.35c0 1.87.45 2.64 1.46 2.64 1.12 0 2.58-.22 3.25-.55V56.59h16.49v58.85H67.57v-6.16c-2.47 3.3-8.08 6.93-12.45 6.93-5.51 0-8.76-1.76-8.76-11.55zm41.51-48.07h16.49v9.24h.11c1.91-5.5 5.5-10.01 9.99-10.01 1.01 0 1.91.22 1.91.22v15.73h-1.57c-4.82 0-8.08.55-10.43 1.87v41.8h-16.5V56.59zm28.5 29.48c0-20.02 6.73-30.25 19.41-30.25 12.57 0 19.41 10.23 19.41 30.25 0 19.8-6.84 30.14-19.41 30.14-12.56 0-19.41-10.34-19.41-30.14zm22.22-.11c0-14.08-.56-16.39-2.81-16.39-2.02 0-2.92 1.21-2.92 16.39 0 14.19.79 17.16 2.92 17.16s2.81-1.76 2.81-17.16zm18.96-29.37h16.49v6.16c2.47-3.3 8.08-6.93 12.45-6.93 5.5 0 8.75 1.76 8.75 11.55v48.07h-16.49V73.53c0-1.87-.45-2.64-1.46-2.64-1.12 0-2.58.77-3.25 1.1v43.45h-16.49V56.59zm56.32-22.55h32.09V49H231.6v16.28h10.21v13.86H231.6v21.89h14.59v14.41h-32.31v-81.4z" fill="#004B8C"></path><path class="st0" d="M256.62 85.85L246.3 56.59h16.16l3.59 11.77 3.7-11.77h13.24l-10.32 27.28 11.22 31.57h-16.16l-4.49-13.53-4.71 13.53h-13.24l11.33-29.59zm28.05-29.26h16.49v6.16c1.57-2.97 5.05-6.93 9.87-6.93 7.52 0 12.23 7.92 12.23 30.14s-4.82 30.03-12.34 30.03c-4.26 0-7.74-2.86-9.76-7.26v28.71h-16.49V56.59zm21.65 29.48c0-13.97-.56-15.18-2.58-15.18-1.12 0-2.02.44-2.58.88v29.26c.67.33 1.35.66 2.69.66 1.8 0 2.47-1.43 2.47-15.62zm18.07 0c0-20.02 6.73-30.25 19.41-30.25 12.57 0 19.41 10.23 19.41 30.25 0 19.8-6.84 30.14-19.41 30.14s-19.41-10.34-19.41-30.14zm22.21-.11c0-14.08-.56-16.39-2.81-16.39-2.02 0-2.92 1.21-2.92 16.39 0 14.19.79 17.16 2.92 17.16 2.14 0 2.81-1.76 2.81-17.16zm16.94 11.44l14.36-1.76c.79 6.16 2.58 8.47 4.15 8.47 1.35 0 2.47-.44 2.47-2.53 0-3.63-3.7-5.06-7.97-8.47-5.5-4.4-11.89-10.23-11.89-20.9 0-13.09 10.21-16.83 16.72-16.83 10.88 0 17.39 4.51 18.62 17.93l-14.14 2.2c-.56-6.16-1.46-7.15-3.59-7.15-1.01 0-1.91.77-1.91 2.31 0 3.74 3.37 6.05 7.41 9.13 5.72 4.51 12.68 9.13 12.68 19.58 0 10.23-6.51 17.05-18.06 17.05-14.36 0-17.61-8.14-18.85-19.03zm39.72-61.16h16.72v15.51h-16.72V36.24zm.11 20.35h16.49v58.85h-16.49V56.59zM425.71 104.55V69.02h-4.49V56.59h4.49V36.68h16.38v19.91h7.52v12.43h-7.52V98.5c0 5.39 1.12 5.72 3.93 5.72 1.57 0 2.8-.22 3.59-.44v11.55c-1.01.33-4.49.66-9.2.66-8.53 0-14.7-1.98-14.7-11.44z" fill="#004B8C"></path><path class="st0" d="M449.16 86.07c0-20.02 6.73-30.25 19.41-30.25 12.57 0 19.41 10.23 19.41 30.25 0 19.8-6.84 30.14-19.41 30.14s-19.41-10.34-19.41-30.14zm22.21-.11c0-14.08-.56-16.39-2.8-16.39-2.02 0-2.92 1.21-2.92 16.39 0 14.19.79 17.16 2.92 17.16s2.8-1.76 2.8-17.16zM490.14 56.59h16.49v9.24h.11c1.91-5.5 5.5-10.01 9.99-10.01 1.01 0 1.91.22 1.91.22v15.73h-1.57c-4.82 0-8.08.55-10.43 1.87v41.8h-16.49V56.59z" fill="#004B8C"></path><path d="M0 17.73l1.78-.99c.84 2.37 2.2 4.02 4.3 4.02 2.15 0 3.43-1.41 3.43-3.57 0-2.58-1.8-3.69-3.75-4.83C3.43 11.01.81 9.6.81 5.52.81 2.28 2.96 0 5.78 0c2.89 0 4.57 2.13 5.46 4.68L9.46 5.73c-.67-1.86-1.73-3.51-3.7-3.51-1.73 0-2.89 1.32-2.89 3.21 0 2.58 1.78 3.69 3.68 4.83 2.35 1.35 4.99 2.79 4.99 6.87 0 3.24-2.1 5.85-5.46 5.85-3.04 0-4.94-2.04-6.08-5.25zm13.45-3.03c0-5.7 2.42-8.25 5.04-8.25 2.89 0 4.64 2.82 4.64 8.16v.6h-7.7c.07 3.72 1.26 5.7 3.14 5.7 1.53 0 2.35-1.05 3.09-2.76l1.38 1.05c-.91 2.28-2.49 3.75-4.57 3.75-2.84 0-5.02-2.73-5.02-8.25zm7.78-1.32c-.12-2.88-.99-4.86-2.77-4.86-1.46 0-2.79 1.47-3.01 4.86h5.78zm3.55 5.49c0-3.15 2.2-5.46 7.28-6.69v-.96c0-1.8-.64-2.64-1.95-2.64-1.58 0-2.86.96-3.85 2.13l-1.11-1.47c1.36-1.65 3.09-2.79 5.16-2.79 2.54 0 3.7 1.71 3.7 4.77v7.5c0 1.92.07 3.09.32 3.9h-2c-.15-.63-.27-1.14-.27-2.04-1.06 1.41-2.49 2.25-4.17 2.25-1.95 0-3.11-1.47-3.11-3.96zm7.29-.09v-4.86c-4.02 1.05-5.33 2.73-5.33 4.62 0 1.59.69 2.31 1.83 2.31 1.35 0 2.58-.87 3.5-2.07zm5.67-9.99h-1.9V6.78h1.9v-2.4c0-2.61 1.14-3.99 3.56-3.99.22 0 .91.03.96.06v2.01c-.05 0-.67-.03-.74-.03-1.04 0-1.8.48-1.8 2.01v2.34h2.44v2.01h-2.44v13.83h-1.98V8.79zm5.68 5.91c0-5.46 2.25-8.25 5.16-8.25 2.89 0 5.14 2.79 5.14 8.25 0 5.43-2.25 8.25-5.14 8.25-2.89 0-5.16-2.82-5.16-8.25zm8.3 0c0-3.42-.96-6.15-3.14-6.15-2.1 0-3.16 2.46-3.16 6.15 0 3.45.91 6.21 3.16 6.21 2.08 0 3.14-2.46 3.14-6.21zm4.34-7.92h2v2.73h.05c.74-1.59 2.1-3.06 4.12-3.06h.27l-.12 2.28s-.37-.03-.47-.03c-1.7 0-3.09 1.35-3.85 3.24v10.68h-2V6.78zm9.11 12.27V8.79h-1.93V6.78h1.93V1.14h1.98v5.64h2.86v2.01h-2.86v9.72c0 1.62.35 2.34 1.73 2.34.39 0 .86-.09 1.11-.21v1.95c-.3.12-.99.21-1.56.21-2.37 0-3.26-1.02-3.26-3.75z"></path><g><path d="M72.84.42h2v8.55c.86-1.17 2.42-2.52 4.12-2.52 2.1 0 3.21 1.53 3.21 4.41v11.76H80.2V11.37c0-1.89-.52-2.79-1.85-2.79-1.26 0-2.62 1.17-3.51 2.28v11.76h-2V.42z"></path></g></svg>