<svg xmlns:xlink="http://www.w3.org/1999/xlink" aria-labelledby="stjLogo" class="header-logo-image logo-stj" version="1.1" viewBox="0 0 559.49 90.28" x="0" xml:space="preserve" xmlns="http://www.w3.org/2000/svg" y="0" width="559.49"  height="90.28" ><text id="stjLogo">St. Thomas Times-Journal</text><style>.st0{fill:#427c98}</style><path d="M47.22 29.28c-1.04-4.7-2.08-7.61-3.37-9.21-1.56-1.88-3.46-2.44-9.08-2.44H30.1v45.02c0 7.8.78 8.55 8.65 9.21v3.01H11.76v-3.01c7.44-.66 8.3-1.41 8.3-9.21V17.63h-3.89c-7.09 0-8.74.85-9.95 2.63-1.3 1.6-2.25 4.61-3.29 9.12H0c.35-6.39.87-13.06 1.04-17.95h1.99c1.3 2.16 2.42 2.35 4.84 2.35h34.59c2.25 0 3.29-.56 4.76-2.35h1.99c0 4.04.43 11.84.86 17.67l-2.85.18zM51.68 74.87v-2.66c5.88-.58 6.57-1.08 6.57-8.13V31.8c0-7.05-.69-7.64-6.57-8.13v-2.74h21.91v2.74c-5.88.5-6.49 1.08-6.49 8.13v32.28c0 6.97.61 7.55 6.49 8.13v2.66H51.68zM117.57 74.87v-2.66c5.96-.66 6.26-1.25 6.26-9.29l-.23-32.62h-.31L105.8 74.29h-1.99L87.72 31.22h-.23l-.99 22.41c-.31 6.89-.31 10.62-.08 13.53.23 3.82 1.83 4.48 6.95 4.98v2.74H75.19v-2.74c4.35-.42 5.8-1.74 6.26-4.81.46-2.74.99-6.81 1.6-15.52l1.15-16.68c.69-9.96.15-10.79-6.57-11.45v-2.74H92.3l15.65 38.18 15.96-38.18h14.51v2.74c-6.34.66-6.72 1.08-6.57 8.63l.76 30.62c.15 8.05.46 8.63 6.72 9.29v2.66h-21.76zM181.41 61.34c-.46 3.32-1.99 11.04-2.67 13.53h-38.18v-2.66c6.64-.58 7.33-1.16 7.33-8.13V31.8c0-7.3-.69-7.64-6.26-8.13v-2.74h35.2c.08 1.66.46 7.47.76 12.28l-2.6.42c-.69-3.15-1.6-5.56-2.83-7.14-1.22-1.58-3.28-2.16-8.02-2.16h-4.43c-2.67 0-2.9.17-2.9 2.82v18.01h5.88c6.57 0 7.33-.5 8.32-6.22h2.6v16.43h-2.6c-.99-5.98-1.76-6.31-8.32-6.31h-5.88v14.77c0 3.98.38 5.89 1.83 6.81 1.37.83 4.05.91 7.18.91 4.66 0 7.18-.58 8.93-2.74 1.45-1.74 2.83-4.48 4.12-7.97l2.54.5zM209.89 34.12c-1.53-5.23-4.12-11.2-10.46-11.2-4.81 0-7.79 3.82-7.79 8.46 0 5.15 3.13 7.88 9.62 11.37 7.25 3.98 13.36 8.3 13.36 16.93 0 9.21-7.18 16.43-18.02 16.43-2.9 0-5.5-.5-7.56-1.25-2.06-.66-3.44-1.25-4.35-1.74-.69-1.99-1.68-8.96-2.21-13.61l2.6-.83c1.37 5.23 5.5 14.19 12.98 14.19 5.12 0 8.25-3.65 8.25-9.21 0-5.31-3.66-8.38-9.39-11.62-6.8-3.82-13.06-8.22-13.06-16.68 0-8.63 6.34-15.69 16.8-15.69 4.43 0 8.32 1.41 10.31 2.07.3 3.07.76 6.56 1.37 11.79l-2.45.59zM236.08 58.69h-18.25l1.07-5.48h18.33l-1.15 5.48zM265.49 16.88c-6.23.56-7.01 1.22-7.01 9.21v32.43c0 11.37-1.21 19.46-8.3 26.04-3.29 3.1-6.66 4.79-9.6 5.73l-1.21-3.2c4.67-2.35 7.26-6.02 8.13-11.75.78-4.98.95-10.81.95-18.14V26.09c0-7.99-.78-8.65-7.52-9.21v-3.1h24.56v3.1zM319.11 47.32c0 17.84-11.76 28.8-26.04 28.8-14.74 0-25.43-12.03-25.43-27.97 0-14.44 9.47-28.47 26.34-28.47 13.6 0 25.13 11.12 25.13 27.64zm-41.16-1c0 14.69 6.49 26.47 16.65 26.47 7.71 0 14.2-7.72 14.2-23.24 0-16.85-6.95-26.56-16.26-26.56-7.95.01-14.59 8.56-14.59 23.33zM373.63 23.66c-4.35.25-6.18 1.74-6.57 4.9-.31 2.41-.53 5.64-.53 12.2v8.22c0 9.13-1.3 16.18-5.65 21.16-3.51 3.98-8.7 5.98-13.97 5.98-4.81 0-9.47-1.16-13.06-4.15-4.35-3.73-6.49-9.88-6.49-19.59v-20c0-7.72-.69-8.13-6.49-8.71v-2.74h21.84v2.74c-5.73.5-6.41 1-6.41 8.71v18.34c0 12.78 4.35 20.17 13.06 20.17 9.77 0 13.59-8.38 13.59-22.24v-7.88c0-6.47-.38-9.79-.69-12.37-.46-2.99-2.14-4.4-7.41-4.73v-2.74h18.78v2.73zM420.44 75.62c-.61 0-1.53-.08-2.37-.08-8.25-.42-11.3-2.57-14.51-7.88-2.21-3.65-4.58-8.38-6.79-12.62-1.22-2.49-2.6-3.49-5.57-3.49h-1.76v12.53c0 6.81.69 7.55 6.57 8.13v2.66h-21.99v-2.66c5.88-.58 6.72-1.25 6.72-8.13V31.63c0-6.81-.69-7.47-6.41-7.97v-2.74h20.54c6.26 0 10.08.83 13.13 2.99 3.05 2.24 5.12 5.89 5.12 11.04 0 7.22-4.35 11.29-9.62 13.69 1.22 2.57 4.12 8.13 6.41 11.87 2.75 4.56 4.35 7.05 6.03 8.88 1.76 2.16 3.21 3.15 4.96 3.73l-.46 2.5zm-28.48-27.14c3.51 0 6.03-.66 7.79-2.24 2.67-2.41 3.82-5.73 3.82-10.04 0-8.88-4.89-12.2-9.77-12.2-1.99 0-3.13.42-3.67.83-.53.5-.69 1.41-.69 3.32v20.33h2.52z"></path><path d="M472.74 23.58c-4.12.25-5.8 1.41-6.18 5.15-.31 2.49-.61 6.39-.61 13.86V75.7h-3.21l-32.07-42.16h-.15v19.5c0 7.39.3 11.12.53 13.61.38 3.9 1.83 5.23 7.33 5.56v2.66H419.9v-2.66c4.28-.33 6.11-1.58 6.49-5.31.23-2.74.61-6.47.61-13.86V35.37c0-5.64-.08-6.81-1.53-8.71-1.53-2.07-3.13-2.74-6.57-3.07v-2.66h13.13l30.16 38.26h.23v-16.6c0-7.47-.38-11.37-.53-13.78-.46-3.57-2.06-4.9-7.56-5.23v-2.66h18.4v2.66z"></path><g><path d="M499.16 74.87v-2.66c4.58-.75 5.04-1.66 3.97-5.15-.84-2.74-2.14-6.64-3.51-10.62h-15.19c-.99 3.07-2.06 6.22-2.98 9.54-1.3 4.48-.92 5.48 4.66 6.22v2.66h-16.87V72.2c4.96-.75 5.96-1.49 8.55-8.63l15.65-42.91 3.36-1c4.89 14.44 9.7 29.38 14.66 43.65 2.52 7.3 3.51 8.22 8.4 8.88v2.66h-20.7zm-6.87-41.58h-.23c-2.21 6.39-4.28 12.86-6.41 19.09h12.67l-6.03-19.09zM559.49 61.18c-.61 3.24-2.14 11.37-2.83 13.69h-36.19v-2.66c6.49-.58 7.25-1.16 7.25-8.22V31.71c0-7.05-.69-7.55-6.64-8.05v-2.74h22.07v2.74c-5.88.5-6.57 1-6.57 8.05v32.62c0 4.07.31 5.64 1.83 6.39 1.38.66 3.59.83 6.26.83 3.67 0 6.34-.5 8.09-2.74 1.45-1.66 2.83-4.32 4.12-8.3l2.61.67z"></path></g><g><path class="st0" d="M62.91 3.61C62.53 2.4 61.86.98 60.38.98c-1.01 0-1.75.81-1.75 1.9 0 1.06.65 1.67 2.24 2.51 1.9.98 3.19 2.05 3.19 3.95 0 2.19-1.75 3.9-4.39 3.9-.65 0-1.28-.1-1.82-.27-.51-.15-.85-.31-1.1-.42-.16-.48-.4-2.09-.52-3.26l.63-.21c.36 1.23 1.43 3.38 3.16 3.38 1.1 0 1.81-.81 1.81-2.02 0-1.13-.79-1.84-2.15-2.61-1.86-1-3.14-2.04-3.14-3.88 0-2.11 1.57-3.76 4.13-3.76 1.16 0 2.18.38 2.51.52.07.71.2 1.55.34 2.74l-.61.16zM75.13 3.76c-.22-1-.47-1.63-.79-1.98-.31-.35-.78-.46-1.82-.46h-.83v9.08c0 1.63.18 1.75 1.77 1.88v.67h-5.88v-.67c1.52-.13 1.7-.25 1.7-1.88V1.32h-.61c-1.48 0-1.81.21-2.08.52-.29.33-.52.98-.76 1.94h-.65c.07-1.4.18-2.8.22-3.78h.43c.29.44.52.48 1.03.48h7.26c.49 0 .74-.12 1.05-.48h.43c.02.81.11 2.5.2 3.72l-.67.04z" fill="#427C98"></path></g><g><path class="st0" d="M75.74 11.73c0-.84.58-1.46 1.32-1.46.78 0 1.35.61 1.35 1.46 0 .86-.58 1.46-1.35 1.46-.74 0-1.32-.6-1.32-1.46zM93.91 3.76c-.22-1-.47-1.63-.79-1.98-.31-.35-.78-.46-1.82-.46h-.83v9.08c0 1.63.18 1.75 1.77 1.88v.67h-5.88v-.67c1.52-.13 1.7-.25 1.7-1.88V1.32h-.61c-1.48 0-1.81.21-2.08.52-.29.33-.52.98-.76 1.94h-.65c.07-1.4.18-2.8.22-3.78h.43c.29.44.52.48 1.03.48h7.26c.49 0 .74-.12 1.05-.48h.43c.02.81.11 2.5.2 3.72l-.67.04z" fill="#427C98"></path></g><g><path class="st0" d="M108.67 1.15c-1.41.13-1.52.25-1.52 1.88v7.39c0 1.61.14 1.73 1.52 1.86v.67h-5.51v-.67c1.44-.13 1.57-.27 1.57-1.88V6.83H99.8v3.57c0 1.63.14 1.75 1.48 1.88v.67H95.9v-.67c1.32-.13 1.48-.25 1.48-1.88V3.03c0-1.63-.16-1.75-1.55-1.88V.48h5.42v.67c-1.3.13-1.44.25-1.44 1.88v2.82h4.93V3.03c0-1.63-.14-1.75-1.48-1.88V.48h5.42v.67zM122.4 6.58c0 4.15-2.8 6.66-6.19 6.66-3.61 0-6.12-2.82-6.12-6.51 0-3.3 2.2-6.55 6.34-6.55 3.28.01 5.97 2.6 5.97 6.4zm-9.55-.21c0 3.28 1.37 6.07 3.68 6.07 1.71 0 3.1-1.79 3.1-5.32 0-3.82-1.46-6.12-3.54-6.12-1.81 0-3.24 2.05-3.24 5.37z" fill="#427C98"></path></g><g><path class="st0" d="M133.21 12.96v-.67c1.35-.15 1.46-.29 1.44-2.05l-.04-7.39h-.09l-3.99 9.98h-.51l-3.68-9.79h-.07l-.22 5.01c-.07 1.59-.07 2.5 0 3.09.07.86.43 1.04 1.62 1.15v.67h-4.33v-.67c1.01-.1 1.35-.44 1.46-1.11.11-.61.25-1.61.38-3.63l.29-3.78c.14-2.19.02-2.46-1.53-2.61V.48h3.74l3.48 8.41L134.7.48h3.63v.67c-1.44.15-1.52.31-1.48 1.9l.16 7.18c.04 1.77.13 1.9 1.53 2.05v.67h-5.33zM146.47 12.96v-.67c1.07-.17 1.16-.4.87-1.25-.18-.58-.45-1.38-.72-2.17h-3.47c-.2.6-.43 1.29-.65 2.05-.25.92-.22 1.19 1.1 1.36v.67h-4.04l.02-.67c1.19-.15 1.41-.36 2-1.98l3.7-9.87.92-.25c1.16 3.36 2.27 6.7 3.45 10 .61 1.69.85 1.94 1.99 2.09v.67h-5.17zm-1.53-9.26h-.05c-.51 1.4-.96 2.78-1.43 4.15h2.82l-1.34-4.15z" fill="#427C98"></path></g><g><path class="st0" d="M159.28 3.61c-.38-1.21-1.05-2.63-2.53-2.63-1.01 0-1.75.81-1.75 1.9 0 1.06.65 1.67 2.24 2.51 1.9.98 3.19 2.05 3.19 3.95 0 2.19-1.75 3.9-4.39 3.9-.65 0-1.28-.1-1.82-.27-.51-.15-.85-.31-1.1-.42-.16-.48-.4-2.09-.52-3.26l.63-.21c.36 1.23 1.43 3.38 3.16 3.38 1.1 0 1.81-.81 1.81-2.02 0-1.13-.79-1.84-2.15-2.61-1.86-1-3.14-2.04-3.14-3.88 0-2.11 1.57-3.76 4.13-3.76 1.16 0 2.18.38 2.51.52.07.71.2 1.55.34 2.74l-.61.16z" fill="#427C98"></path></g></svg>