<svg xmlns:xlink="http://www.w3.org/1999/xlink" aria-labelledby="sgxLogo" class="header-logo-image logo-sgx header-logo-image--size-md" role="img" viewBox="0 0 301.9 116.07" x="0" xml:space="preserve" xmlns="http://www.w3.org/2000/svg" y="0" width="301.9"  height="116.07" > <text id="sgxLogo">Spruce Grove Examiner</text> <style>.st0{fill:#004b8c}</style><path class="st0" d="M.45 33.9h32.09v14.96H18.18v16.28h10.21V79H18.18v21.89h14.59v14.41H.45V33.9z" fill="#004B8C"></path><path class="st0" d="M43.98 85.71L33.66 56.45h16.16l3.59 11.77 3.7-11.77h13.24L60.03 83.73l11.22 31.57H55.09l-4.49-13.53-4.71 13.53H32.65l11.33-29.59z" fill="#004B8C"></path><path class="st0" d="M69.51 99.9c0-12.54 7.18-19.8 20.98-23.21v-3.63c0-3.74-.34-4.4-1.91-4.4-1.46 0-2.02.88-2.69 5.06L71.3 71.96c2.7-13.31 9.77-16.28 19.19-16.28 11 0 15.71 4.95 15.71 16.72V101c0 7.04.22 11.33.9 14.3H91.28c-.56-1.54-.79-3.08-.79-6.93-2.02 4.29-4.82 7.37-9.99 7.37-5.94 0-10.99-3.96-10.99-15.84zm20.98.66V87.58c-4.04 2.09-5.16 5.61-5.16 10.01 0 2.31.79 3.85 2.47 3.85.9 0 2.02-.44 2.69-.88zm19.52-44.11h16.49v6.16c2.47-3.3 8.08-6.93 12.45-6.93 4.49 0 7.52 1.21 8.42 7.04 2.92-3.63 8.75-7.04 12.79-7.04 5.5 0 8.75 1.76 8.75 11.55v48.07h-16.49V73.39c0-1.87-.45-2.64-1.46-2.64s-2.47.66-3.25 1.1v43.45h-16.49V73.39c0-1.87-.45-2.64-1.46-2.64-1.12 0-2.58.77-3.25 1.1v43.45h-16.49V56.45zm62.72-20.35h16.72v15.51h-16.72V36.1zm.12 20.35h16.49v58.85h-16.49V56.45zm20.53 0h16.49v6.16c2.47-3.3 8.08-6.93 12.46-6.93 5.5 0 8.75 1.76 8.75 11.55v48.07h-16.49V73.39c0-1.87-.45-2.64-1.46-2.64-1.12 0-2.58.77-3.25 1.1v43.45h-16.49V56.45zm39.94 29.48c0-20.02 6.62-30.25 19.3-30.25 16.94 0 18.4 15.95 18.4 29.7v6.27h-21.65c0 7.26.79 11.44 3.37 11.44 2.13 0 2.92-1.65 3.14-7.81l15.26.44c-1.46 12.1-5.95 20.35-18.51 20.35-12.58 0-19.31-10.34-19.31-30.14zm21.99-4.18c-.11-10.34-.45-12.54-2.69-12.54-2.02 0-3.25 2.53-3.25 12.54h5.94zM273.4 56.45h16.49v9.24h.11c1.91-5.5 5.5-10.01 9.99-10.01 1.01 0 1.91.22 1.91.22v15.73h-1.57c-4.82 0-8.08.55-10.43 1.87v41.8h-16.5V56.45z" fill="#004B8C"></path><path d="M4.72 2.73H0V.42h11.5v2.31H6.79v19.89H4.72V2.73zM13.75.42h2v8.55c.86-1.17 2.42-2.52 4.12-2.52 2.1 0 3.21 1.53 3.21 4.41v11.76H21.1V11.37c0-1.89-.52-2.79-1.85-2.79-1.26 0-2.62 1.17-3.51 2.28v11.76h-2V.42zM25.52 14.7c0-5.7 2.42-8.25 5.04-8.25 2.89 0 4.64 2.82 4.64 8.16v.6h-7.7c.07 3.72 1.26 5.7 3.14 5.7 1.53 0 2.35-1.05 3.09-2.76l1.38 1.05c-.91 2.28-2.49 3.75-4.57 3.75-2.84 0-5.02-2.73-5.02-8.25zm7.78-1.32c-.12-2.88-.99-4.86-2.77-4.86-1.46 0-2.79 1.47-3.01 4.86h5.78zm8.91-1.92C42.21 4.26 44.66 0 48.73 0c3.26 0 4.91 2.67 5.63 7.02l-1.88.45c-.62-3.48-1.7-5.16-3.8-5.16-2.67 0-4.39 3.09-4.39 9.09 0 6.27 1.65 9.36 4.49 9.36 2.42 0 3.83-2.22 3.9-6.6H49.2V12h5.33v10.62h-1.65v-3.03h-.02c-.59 1.68-2 3.42-4.3 3.42-4.05 0-6.35-4.2-6.35-11.55zm15.53-4.68h2v2.73h.05c.74-1.59 2.1-3.06 4.12-3.06h.27l-.12 2.28s-.37-.03-.47-.03c-1.7 0-3.09 1.35-3.85 3.24v10.68h-2V6.78zM65.07 14.7c0-5.46 2.25-8.25 5.16-8.25 2.89 0 5.13 2.79 5.13 8.25 0 5.43-2.25 8.25-5.13 8.25-2.89 0-5.16-2.82-5.16-8.25zm8.3 0c0-3.42-.96-6.15-3.14-6.15-2.1 0-3.16 2.46-3.16 6.15 0 3.45.91 6.21 3.16 6.21 2.07 0 3.14-2.46 3.14-6.21zm2.86-7.92h2l2.12 9 .94 4.26h.05c.35-1.77.59-2.85.91-4.26l2.1-9h1.88l-3.95 15.9h-2.1l-3.95-15.9zm10.86 7.92c0-5.7 2.42-8.25 5.04-8.25 2.89 0 4.64 2.82 4.64 8.16v.6h-7.7c.07 3.72 1.26 5.7 3.14 5.7 1.53 0 2.35-1.05 3.09-2.76l1.38 1.05c-.91 2.28-2.49 3.75-4.57 3.75-2.85 0-5.02-2.73-5.02-8.25zm7.78-1.32c-.12-2.88-.99-4.86-2.77-4.86-1.46 0-2.79 1.47-3.01 4.86h5.78z"></path></svg>