<svg xmlns:xlink="http://www.w3.org/1999/xlink" aria-labelledby="napLogo" class="header-logo-image logo-nap" role="img" viewBox="0 0 480.96 136.88" x="0" xmlns="http://www.w3.org/2000/svg" y="0" width="480.96"  height="136.88" > <text id="napLogo">The Napanee Guide</text><style>.st0{fill:#004b8c}</style><path d="M4.72 2.31H0V0h11.5v2.31H6.79V22.2H4.72V2.31zM13.75 0h2v8.55c.86-1.17 2.42-2.52 4.12-2.52 2.1 0 3.21 1.53 3.21 4.41V22.2H21.1V10.95c0-1.89-.52-2.79-1.85-2.79-1.26 0-2.62 1.17-3.51 2.28V22.2h-2V0zM25.52 14.28c0-5.7 2.42-8.25 5.04-8.25 2.89 0 4.64 2.82 4.64 8.16v.6h-7.7c.07 3.72 1.26 5.7 3.14 5.7 1.53 0 2.35-1.05 3.09-2.76l1.38 1.05c-.91 2.28-2.49 3.75-4.57 3.75-2.84 0-5.02-2.73-5.02-8.25zm7.78-1.32c-.12-2.88-.99-4.86-2.77-4.86-1.46 0-2.79 1.47-3.01 4.86h5.78z"></path><path class="st0" d="M.45 33.48h16.38l3.48 14.85c1.91 8.03 4.04 17.27 5.5 25.52h.22c-.56-9.02-.79-17.05-.79-24.42V33.48h15.15v81.4H26.03l-4.15-14.19C19.3 92 16.61 84.08 15.03 75.17h-.22c.67 6.27.79 19.14.79 24.75v14.96H.45v-81.4zM42.52 99.48c0-12.54 7.18-19.8 20.98-23.21v-3.63c0-3.74-.34-4.4-1.91-4.4-1.46 0-2.02.88-2.69 5.06l-14.59-1.76C47 58.23 54.07 55.26 63.5 55.26c11 0 15.71 4.95 15.71 16.72v28.6c0 7.04.22 11.33.9 14.3H64.29c-.56-1.54-.79-3.08-.79-6.93-2.02 4.29-4.82 7.37-9.99 7.37-5.94 0-10.99-3.96-10.99-15.84zm20.98.66V87.16c-4.04 2.09-5.16 5.61-5.16 10.01 0 2.31.79 3.85 2.47 3.85.9 0 2.02-.44 2.69-.88zM82.58 56.03h16.49v6.16c1.57-2.97 5.05-6.93 9.87-6.93 7.52 0 12.23 7.92 12.23 30.14s-4.82 30.03-12.34 30.03c-4.26 0-7.74-2.86-9.76-7.26v28.71H82.58V56.03zm21.65 29.48c0-13.97-.56-15.18-2.58-15.18-1.12 0-2.02.44-2.58.88v29.26c.67.33 1.35.66 2.69.66 1.8 0 2.47-1.43 2.47-15.62zM121.74 99.48c0-12.54 7.18-19.8 20.98-23.21v-3.63c0-3.74-.34-4.4-1.91-4.4-1.46 0-2.02.88-2.69 5.06l-14.59-1.76c2.69-13.31 9.76-16.28 19.19-16.28 11 0 15.71 4.95 15.71 16.72v28.6c0 7.04.22 11.33.9 14.3H143.5c-.56-1.54-.79-3.08-.79-6.93-2.02 4.29-4.82 7.37-9.99 7.37-5.93 0-10.98-3.96-10.98-15.84zm20.98.66V87.16c-4.04 2.09-5.16 5.61-5.16 10.01 0 2.31.79 3.85 2.47 3.85.89 0 2.01-.44 2.69-.88zM161.79 56.03h16.49v6.16c2.47-3.3 8.08-6.93 12.45-6.93 5.5 0 8.75 1.76 8.75 11.55v48.07H183V72.97c0-1.87-.45-2.64-1.46-2.64-1.12 0-2.58.77-3.25 1.1v43.45H161.8V56.03zM201.29 85.51c0-20.02 6.62-30.25 19.3-30.25 16.94 0 18.4 15.95 18.4 29.7v6.27h-21.65c0 7.26.79 11.44 3.37 11.44 2.13 0 2.92-1.65 3.14-7.81l15.26.44c-1.46 12.1-5.95 20.35-18.51 20.35-12.58 0-19.31-10.34-19.31-30.14zm21.99-4.18c-.11-10.34-.45-12.54-2.69-12.54-2.02 0-3.25 2.53-3.25 12.54h5.94z" fill="#004B8C"></path><g><path class="st0" d="M240.89 85.51c0-20.02 6.62-30.25 19.3-30.25 16.94 0 18.4 15.95 18.4 29.7v6.27h-21.65c0 7.26.79 11.44 3.37 11.44 2.13 0 2.92-1.65 3.14-7.81l15.26.44c-1.46 12.1-5.95 20.35-18.51 20.35-12.58 0-19.31-10.34-19.31-30.14zm21.99-4.18c-.11-10.34-.45-12.54-2.69-12.54-2.02 0-3.25 2.53-3.25 12.54h5.94zM295.08 74.18c0-29.81 6.73-41.47 21.43-41.47 14.58 0 18.62 9.9 19.75 33.44l-16.27.66c0-15.4-.79-18.15-3.48-18.15-3.48 0-3.59 6.82-3.59 25.52s-.34 26.4 4.49 26.4c3.59 0 4.26-3.3 4.6-13.09h-5.39V74.18h20.31v40.7h-9.54l-.34-9.46h-.11c-1.12 5.5-6.06 10.01-13.24 10.01-13.69 0-18.62-11.44-18.62-41.25zM340.63 104.1V56.03h16.49v42.35c0 1.87.45 2.64 1.46 2.64 1.12 0 2.58-.22 3.25-.55V56.03h16.49v58.85h-16.49v-6.16c-2.47 3.3-8.08 6.93-12.45 6.93-5.5 0-8.75-1.76-8.75-11.55zM382.59 35.68h16.72v15.51h-16.72V35.68zm.11 20.35h16.49v58.85H382.7V56.03zM402.34 85.51c0-22.22 4.82-30.25 12.34-30.25 4.26 0 7.74 2.86 9.76 7.26V33.48h16.49v67.1c0 7.04.22 11.33 1.01 14.3h-16.83c-.34-2.09-.67-6.38-.67-6.38-1.57 2.97-5.05 6.93-9.87 6.93-7.52 0-12.23-7.7-12.23-29.92zm22.1 14.52V70.88c-.67-.33-1.35-.77-2.69-.77-1.79 0-2.47 1.1-2.47 15.29 0 13.97.56 15.51 2.58 15.51 1.35 0 2.02-.44 2.58-.88z" fill="#004B8C"></path></g><g><path class="st0" d="M443.15 85.51c0-20.02 6.62-30.25 19.3-30.25 16.94 0 18.4 15.95 18.4 29.7v6.27H459.2c0 7.26.79 11.44 3.37 11.44 2.13 0 2.92-1.65 3.14-7.81l15.26.44c-1.46 12.1-5.95 20.35-18.51 20.35-12.58 0-19.31-10.34-19.31-30.14zm21.99-4.18c-.11-10.34-.45-12.54-2.69-12.54-2.02 0-3.25 2.53-3.25 12.54h5.94z" fill="#004B8C"></path></g></svg>