<svg xmlns:xlink="http://www.w3.org/1999/xlink" aria-labelledby="wsrLogo" class="header-logo-image logo-wsr" version="1.1" viewBox="0 0 657.41 76.7" x="0" xml:space="preserve" xmlns="http://www.w3.org/2000/svg" y="0" width="657.41"  height="76.7" ><text id="wsrLogo">The Woodstock Sentinel Review</text><style>.st0{fill:#427c98}</style><path d="M33.04 28.33c-1.84-6.02-4.97-12.91-12.61-12.91-5.8 0-9.39 4.4-9.39 9.75 0 5.93 3.77 9.08 11.6 13.1 8.74 4.59 16.1 9.56 16.1 19.5 0 10.61-8.65 18.93-21.72 18.93-3.5 0-6.63-.57-9.11-1.43-2.48-.76-4.14-1.43-5.25-2.01C1.84 70.97.64 62.94 0 57.58l3.13-.96c1.66 6.02 6.63 16.35 15.64 16.35 6.17 0 9.94-4.21 9.94-10.61 0-6.12-4.42-9.66-11.32-13.38-8.19-4.4-15.73-9.46-15.73-19.21 0-9.94 7.64-18.07 20.25-18.07 5.34 0 10.03 1.62 12.42 2.39.37 3.54.92 7.55 1.66 13.58l-2.95.66zM82.02 61.51c-.49 3.38-2.11 11.23-2.84 13.76H38.55v-2.7c7.07-.59 7.8-1.18 7.8-8.27V31.46c0-7.43-.73-7.77-6.66-8.27V20.4h37.46c.08 1.69.49 7.6.81 12.49l-2.76.42c-.73-3.21-1.71-5.66-3.01-7.26-1.3-1.6-3.49-2.19-8.53-2.19h-4.71c-2.84 0-3.09.17-3.09 2.87v18.32h6.26c6.99 0 7.8-.51 8.86-6.33h2.76v16.71h-2.76c-1.06-6.08-1.87-6.41-8.86-6.41h-6.26v15.03c0 4.05.41 5.99 1.95 6.92 1.46.84 4.31.93 7.64.93 4.96 0 7.64-.59 9.51-2.79 1.54-1.77 3.01-4.56 4.39-8.1l2.67.5z"></path><path d="M137.04 23.1c-4.39.25-6.18 1.43-6.58 5.23-.32 2.53-.65 6.5-.65 14.1v33.68h-3.41L92.26 33.23h-.16v19.84c0 7.51.33 11.31.57 13.84.41 3.97 1.95 5.32 7.8 5.66v2.7H80.8v-2.7c4.55-.34 6.5-1.6 6.91-5.4.24-2.79.65-6.58.65-14.1V35.09c0-5.74-.08-6.92-1.63-8.86-1.63-2.11-3.33-2.79-6.99-3.12v-2.7h13.98l32.1 38.91h.24V42.43c0-7.6-.41-11.56-.57-14.01-.49-3.63-2.19-4.98-8.05-5.32v-2.7h19.59v2.7z"></path><path d="M180.35 34.33c-.98-4.22-1.95-6.84-3.17-8.27-1.46-1.69-3.25-2.19-8.53-2.19h-4.39V64.3c0 7.01.73 7.68 8.13 8.27v2.7h-25.36v-2.7c6.99-.59 7.8-1.27 7.8-8.27V23.86h-3.66c-6.66 0-8.21.76-9.35 2.36-1.22 1.44-2.11 4.14-3.09 8.19h-2.76c.33-5.74.81-11.73.98-16.12h1.87c1.22 1.94 2.28 2.11 4.55 2.11h32.51c2.11 0 3.09-.51 4.47-2.11h1.87c0 3.63.41 10.64.81 15.87l-2.68.17zM183.35 75.27v-2.7c6.26-.59 6.99-1.1 6.99-8.27V31.46c0-7.17-.73-7.77-6.99-8.27V20.4h23.32v2.79c-6.26.51-6.91 1.1-6.91 8.27V64.3c0 7.09.65 7.68 6.91 8.27v2.7h-23.32z"></path><path d="M263.73 23.1c-4.39.25-6.18 1.43-6.58 5.23-.32 2.53-.65 6.5-.65 14.1v33.68h-3.41l-34.13-42.88h-.16v19.84c0 7.51.33 11.31.57 13.84.41 3.97 1.95 5.32 7.8 5.66v2.7H207.5v-2.7c4.55-.34 6.5-1.6 6.91-5.4.24-2.79.65-6.58.65-14.1V35.09c0-5.74-.08-6.92-1.63-8.86-1.63-2.11-3.33-2.79-6.99-3.12v-2.7h13.98l32.1 38.91h.24V42.43c0-7.6-.41-11.56-.57-14.01-.49-3.63-2.19-4.98-8.05-5.32v-2.7h19.59v2.7zM306.14 61.51c-.49 3.38-2.11 11.23-2.84 13.76h-40.63v-2.7c7.07-.59 7.8-1.18 7.8-8.27V31.46c0-7.43-.73-7.77-6.66-8.27V20.4h37.46c.08 1.69.49 7.6.81 12.49l-2.76.42c-.73-3.21-1.71-5.66-3.01-7.26-1.3-1.6-3.49-2.19-8.53-2.19h-4.71c-2.84 0-3.09.17-3.09 2.87v18.32h6.26c6.99 0 7.8-.51 8.86-6.33h2.76v16.71h-2.76c-1.06-6.08-1.87-6.41-8.86-6.41h-6.26v15.03c0 4.05.41 5.99 1.95 6.92 1.46.84 4.31.93 7.64.93 4.96 0 7.64-.59 9.51-2.79 1.54-1.77 3.01-4.56 4.39-8.1l2.67.5z"></path><path d="M346.37 61.34c-.65 3.29-2.28 11.56-3.01 13.93h-38.52v-2.7c6.91-.59 7.72-1.18 7.72-8.36V31.38c0-7.17-.73-7.68-7.07-8.19V20.4h23.49v2.79c-6.26.51-6.99 1.01-6.99 8.19v33.17c0 4.14.33 5.74 1.95 6.5 1.46.68 3.82.84 6.66.84 3.9 0 6.75-.51 8.61-2.79 1.54-1.69 3.01-4.39 4.39-8.44l2.77.68z"></path><path d="M364.49 58.81h-19.42l1.14-5.57h19.5l-1.22 5.57zM423.83 76.13c-.74 0-1.84-.1-2.85-.1-9.94-.48-13.62-2.96-17.49-9.08-2.67-4.21-5.52-9.66-8.19-14.53-1.47-2.87-3.13-4.01-6.72-4.01h-2.12v14.43c0 7.84.83 8.7 7.91 9.37v3.06h-26.5v-3.06c7.09-.67 8.1-1.43 8.1-9.37V25.46c0-7.84-.83-8.6-7.73-9.18v-3.16h24.75c7.55 0 12.15.96 15.83 3.44 3.68 2.58 6.17 6.79 6.17 12.71 0 8.32-5.25 13-11.59 15.77 1.47 2.96 4.97 9.37 7.73 13.67 3.31 5.26 5.25 8.13 7.27 10.23 2.12 2.49 3.87 3.63 5.98 4.3l-.55 2.89zm-34.32-31.26c4.23 0 7.27-.76 9.39-2.58 3.22-2.77 4.6-6.6 4.6-11.57 0-10.23-5.89-14.05-11.78-14.05-2.39 0-3.77.48-4.42.96-.64.57-.83 1.62-.83 3.82v23.42h3.04z"></path><path d="M464.17 61.51c-.49 3.38-2.11 11.23-2.84 13.76H420.7v-2.7c7.07-.59 7.8-1.18 7.8-8.27V31.46c0-7.43-.73-7.77-6.66-8.27V20.4h37.46c.08 1.69.49 7.6.81 12.49l-2.76.42c-.73-3.21-1.71-5.66-3.01-7.26-1.3-1.6-3.49-2.19-8.53-2.19h-4.71c-2.84 0-3.09.17-3.09 2.87v18.32h6.26c6.99 0 7.8-.51 8.86-6.33h2.76v16.71h-2.76c-1.06-6.08-1.87-6.41-8.86-6.41H438v15.03c0 4.05.41 5.99 1.95 6.92 1.46.84 4.31.93 7.64.93 4.96 0 7.64-.59 9.51-2.79 1.54-1.77 3.01-4.56 4.39-8.1l2.68.5zM516.83 23.19c-5.36.68-6.75 1.6-9.91 9.45-2.52 6.16-10.32 26.08-16.58 43.56h-3.49c-5.53-15.45-12.84-35.03-16.66-45.08-2.44-6.42-3.74-7.43-8.7-7.93V20.4h22.67v2.79c-5.93.84-6.01 1.69-4.71 5.32 2.28 6.5 8.45 23.3 12.35 33.6h.16c4.39-11.65 8.78-23.8 11.13-31.57 1.79-5.49 1.54-6.5-5.04-7.34v-2.8h18.77v2.79z"></path><g><path d="M515.85 75.27v-2.7c6.26-.59 6.99-1.1 6.99-8.27V31.46c0-7.17-.73-7.77-6.99-8.27V20.4h23.32v2.79c-6.26.51-6.91 1.1-6.91 8.27V64.3c0 7.09.65 7.68 6.91 8.27v2.7h-23.32zM583.22 61.51c-.49 3.38-2.11 11.23-2.84 13.76h-40.63v-2.7c7.07-.59 7.8-1.18 7.8-8.27V31.46c0-7.43-.73-7.77-6.66-8.27V20.4h37.46c.08 1.69.49 7.6.81 12.49l-2.76.42c-.73-3.21-1.71-5.66-3.01-7.26-1.3-1.6-3.49-2.19-8.53-2.19h-4.71c-2.84 0-3.09.17-3.09 2.87v18.32h6.26c6.99 0 7.8-.51 8.86-6.33h2.76v16.71h-2.76c-1.06-6.08-1.87-6.41-8.86-6.41h-6.26v15.03c0 4.05.41 5.99 1.95 6.92 1.46.84 4.31.93 7.64.93 4.96 0 7.64-.59 9.51-2.79 1.54-1.77 3.01-4.56 4.39-8.1l2.67.5z"></path></g><g><path d="M657.41 23.19c-5.45.84-6.58 1.77-8.86 8.78-1.87 5.49-6.66 20.6-13.41 44.23h-3.66c-4.47-13-9.18-26.5-13.65-39.17h-.16c-4.31 13.51-8.53 26.42-12.52 39.17h-3.66c-4.39-15.19-8.61-29.63-13.08-44.65-2.03-6.67-3.33-7.68-8.21-8.36V20.4h22.51v2.79c-6.1.76-6.18 1.69-5.04 6.08 2.84 10.38 5.77 20.76 8.86 31.06h.16c4.06-12.83 8.29-26 12.19-39.34h3.41c4.55 13.25 9.18 26.42 13.82 39.5h.16c3.25-10.64 6.99-24.99 8.21-30.3 1.14-5.07.81-6.33-5.69-7.01V20.4h18.61v2.79z"></path></g><g><path class="st0" d="M59.12 1.17c-1.25.21-1.58.47-2.09 2.11-.44 1.25-1.56 4.64-3.15 10.11h-.99c-1.03-2.91-2.03-5.7-3.1-8.67h-.04c-.99 2.95-1.96 5.85-2.85 8.67h-1.01c-1.03-3.51-1.98-6.79-3.04-10.25-.46-1.52-.78-1.79-1.9-1.97V.49h5.62v.68c-1.44.18-1.46.45-1.2 1.44.63 2.28 1.27 4.55 1.94 6.71h.04c.89-2.77 1.84-5.72 2.74-8.72H51c1.06 2.97 2.15 5.95 3.19 8.8h.04c.74-2.4 1.52-5.44 1.79-6.58.27-1.17.17-1.5-1.37-1.66V.49h4.46v.68zM72.35 6.69c0 4.22-2.94 6.77-6.52 6.77-3.8 0-6.44-2.87-6.44-6.62 0-3.36 2.32-6.65 6.67-6.65 3.46.01 6.29 2.64 6.29 6.5zm-10.04-.21c0 3.34 1.44 6.17 3.88 6.17 1.8 0 3.27-1.82 3.27-5.41 0-3.88-1.54-6.23-3.72-6.23-1.93 0-3.43 2.09-3.43 5.47z" fill="#427C98"></path></g><g><path class="st0" d="M87.23 6.69c0 4.22-2.94 6.77-6.52 6.77-3.8 0-6.44-2.87-6.44-6.62 0-3.36 2.32-6.65 6.67-6.65 3.46.01 6.29 2.64 6.29 6.5zm-10.05-.21c0 3.34 1.44 6.17 3.88 6.17 1.8 0 3.27-1.82 3.27-5.41 0-3.88-1.54-6.23-3.72-6.23-1.93 0-3.43 2.09-3.43 5.47zM94.29.49c2.37 0 4.22.49 5.45 1.7.93.92 1.67 2.3 1.67 4.14 0 2.38-.93 4.08-2.37 5.23-1.41 1.09-3.38 1.62-5.76 1.62H88.4v-.68c1.5-.14 1.69-.27 1.69-1.93V3.1c0-1.68-.17-1.79-1.52-1.93V.49h5.72zm-1.65 9.95c0 1.41.29 1.89 1.61 1.89 2.55 0 4.29-2.15 4.29-5.62 0-1.85-.55-3.34-1.41-4.21-.8-.8-1.8-1.21-3.1-1.21-.68 0-1.08.16-1.2.27-.17.17-.21.51-.21 1.07v7.81z" fill="#427C98"></path></g><g><path class="st0" d="M109.98 3.67c-.4-1.23-1.1-2.67-2.66-2.67-1.06 0-1.84.82-1.84 1.93 0 1.07.68 1.7 2.36 2.56 2 1 3.36 2.09 3.36 4.02 0 2.22-1.84 3.96-4.62 3.96-.68 0-1.35-.1-1.92-.27-.53-.16-.89-.31-1.16-.43-.17-.49-.42-2.13-.55-3.32l.67-.21c.38 1.25 1.5 3.44 3.32 3.44 1.16 0 1.9-.82 1.9-2.05 0-1.15-.84-1.87-2.26-2.65-1.96-1.01-3.31-2.07-3.31-3.94 0-2.15 1.65-3.83 4.35-3.83 1.22 0 2.3.39 2.64.53.08.72.21 1.58.36 2.79l-.64.14zM122.67 3.83c-.23-1.01-.49-1.66-.84-2.01-.32-.35-.82-.47-1.92-.47h-.87v9.23c0 1.66.19 1.78 1.86 1.91v.68h-6.19v-.68c1.6-.14 1.79-.25 1.79-1.91V1.35h-.65c-1.56 0-1.9.21-2.18.53-.3.33-.55 1-.8 1.97h-.68c.08-1.42.19-2.85.23-3.84h.46c.3.45.55.49 1.08.49h7.64c.51 0 .78-.12 1.1-.49h.46c.02.82.11 2.54.21 3.79l-.7.03z" fill="#427C98"></path></g><g><path class="st0" d="M137.15 6.69c0 4.22-2.94 6.77-6.52 6.77-3.8 0-6.44-2.87-6.44-6.62 0-3.36 2.32-6.65 6.67-6.65 3.46.01 6.29 2.64 6.29 6.5zm-10.05-.21c0 3.34 1.44 6.17 3.88 6.17 1.8 0 3.27-1.82 3.27-5.41 0-3.88-1.54-6.23-3.72-6.23-1.93 0-3.43 2.09-3.43 5.47zM150.83 9.86c-.25.94-.74 2.42-1.06 3.1-.49.12-2.24.51-3.53.51-5.05 0-7.16-3.38-7.16-6.48 0-4 3-6.79 7.54-6.79 1.54 0 2.94.41 3.46.53.17 1.07.3 1.97.44 3.2l-.7.14c-.63-2.32-2.09-3.01-3.55-3.01-2.75 0-4.27 2.67-4.27 5.54 0 3.59 1.88 5.95 4.46 5.95 1.58 0 2.75-1.03 3.72-3.01l.65.32z" fill="#427C98"></path></g><g><path class="st0" d="M160.59 13.17c-.82-1.15-2.39-3.43-3.74-5.44-.4-.61-.65-.72-.93-.68v3.51c0 1.66.17 1.8 1.63 1.93v.68h-5.68v-.68c1.37-.14 1.56-.27 1.56-1.93V3.1c0-1.66-.17-1.79-1.6-1.93V.49h5.58v.68c-1.35.14-1.5.27-1.5 1.93v3.32c.4-.12.87-.43 1.44-1.04 1.27-1.31 2.03-2.28 2.66-3.14.46-.62.42-.9-.48-1.01l-.34-.06V.49h4.94v.68c-1.18.12-1.96.37-3 1.37-1.12 1.05-1.92 1.99-2.77 2.91 1.22 1.85 2.62 3.83 3.99 5.6.78 1 1.29 1.33 2.05 1.44v.68h-3.81z" fill="#427C98"></path></g></svg>