<svg xmlns:xlink="http://www.w3.org/1999/xlink" aria-labelledby="sbhLogo" class="header-logo-image logo-sbh" version="1.1" viewBox="0 0 722.32 75.26" x="0" xml:space="preserve" xmlns="http://www.w3.org/2000/svg" y="0" width="722.32"  height="75.26" ><text id="sbhLogo">The Stratford Beacon Herald</text><style>.st0{fill:#427b97}</style><path d="M47.36 28.24c-.41-5.83-.82-13.63-.82-17.67h-1.88c-1.39 1.79-2.37 2.35-4.5 2.35H7.44c-2.29 0-3.35-.19-4.58-2.35H.98C.82 15.45.33 22.13 0 28.52h2.78c.98-4.51 1.88-7.52 3.11-9.12 1.15-1.79 2.7-2.63 9.41-2.63h3.68v45.02c0 7.8-.82 8.55-7.85 9.21v3.01h25.52V71c-7.44-.66-8.18-1.41-8.18-9.21V16.77h4.42c5.32 0 7.12.56 8.59 2.44 1.23 1.6 2.21 4.51 3.19 9.21l2.69-.18zM137.54 59.99c-1.23 3.49-2.53 6.22-3.9 7.97-1.66 2.16-4.04 2.74-8.45 2.74-2.96 0-5.49-.08-6.79-.91-1.37-.91-1.73-2.82-1.73-6.81V48.2h5.56c6.21 0 6.93.33 7.87 6.31h2.46V38.08h-2.46c-.94 5.73-1.66 6.22-7.87 6.22h-5.56V26.29c0-2.66.22-2.82 2.74-2.82h4.19c4.48 0 6.43.58 7.58 2.16 1.16 1.58 2.02 3.98 2.67 7.14l2.46-.41c-.29-4.81-.65-10.62-.72-12.28H102.3v2.74c5.27.5 5.92.83 5.92 8.13v32.28c0 6.97-.65 7.55-6.93 8.13v2.66h36.1c.65-2.49 2.09-10.21 2.53-13.53l-2.38-.5zM99.55 20.07H78.9v2.74c5.49.58 5.99 1 5.99 8.05v12.61H63.45V30.86c0-7.05.58-7.55 5.92-8.05v-2.74H48.72v2.74c5.7.5 6.35 1 6.35 8.05v32.45c0 6.97-.65 7.47-6.14 8.05v2.66h20.65v-2.66c-5.56-.58-6.14-1.08-6.14-8.05V47.46H84.9v15.85c0 6.97-.58 7.47-6.43 8.05v2.66h21.08v-2.66c-5.63-.58-6.21-1.08-6.21-8.05V30.86c0-7.05.51-7.47 6.21-8.05v-2.74zM170.58 43.46h2.45c9.49 0 14.64 4.42 14.64 13.44 0 9.49-5.48 13.35-10.8 13.44-4.66.09-6.3-1.88-6.3-8.74V43.46zm0-3.57V21.85c0-2.35.25-3.67.9-4.23.57-.56 2.13-1.13 4.01-1.13 5.64 0 9.57 4.14 9.57 11.84 0 7.8-3.6 11.56-11.86 11.56h-2.62zm12.43.94c5.48-1.32 12.19-4.98 12.19-14 0-4.51-1.8-8.46-4.74-10.62-2.94-2.26-6.87-3.29-13.09-3.29h-22.82v3.1c6.05.56 6.63 1.22 6.63 9.12V61.8c0 7.9-.65 8.55-7.2 9.12v3.1h19.79c6.71 0 12.68-1.22 16.85-3.95 4.74-2.91 7.69-7.8 7.69-14.1 0-9.12-6.3-13.44-15.29-14.76v-.38zM266.05 51.52h-11.99c2.02-6.22 3.97-12.7 6.07-19.09h.22l5.7 19.09zm20.36 22.49v-2.66c-4.62-.66-5.56-1.58-7.94-8.88-4.69-14.27-9.24-29.21-13.86-43.65l-3.18 1-14.8 42.91c-2.46 7.14-3.39 7.88-8.09 8.63v2.66h15.96v-2.66c-5.27-.75-5.63-1.74-4.4-6.22.87-3.32 1.88-6.47 2.82-9.54h14.37c1.3 3.98 2.53 7.88 3.32 10.62 1.01 3.49.58 4.4-3.75 5.15v2.66h19.55zm-49.75-14.02c-1.23 3.49-2.53 6.22-3.9 7.97-1.66 2.16-4.04 2.74-8.45 2.74-2.96 0-5.49-.08-6.79-.91-1.37-.91-1.73-2.82-1.73-6.81V48.2h5.56c6.21 0 6.93.33 7.87 6.31h2.46V38.08h-2.46c-.94 5.73-1.66 6.22-7.87 6.22h-5.56V26.29c0-2.66.22-2.82 2.74-2.82h4.19c4.48 0 6.43.58 7.58 2.16 1.16 1.58 2.02 3.98 2.67 7.14l2.45-.41c-.29-4.81-.65-10.62-.72-12.28h-33.29v2.74c5.27.5 5.92.83 5.92 8.13v32.28c0 6.97-.65 7.55-6.93 8.13v2.66h36.1c.65-2.49 2.09-10.21 2.53-13.53l-2.37-.5zM355.66 22.14c8.81 0 15.38 9.71 15.38 26.56 0 15.52-6.14 23.24-13.43 23.24-9.6 0-15.74-11.78-15.74-26.47 0-14.77 6.28-23.32 13.72-23.32h.07zm1.38-3.23c-15.96 0-24.91 13.94-24.91 28.38 0 15.93 10.11 27.97 24.04 27.97 13.5 0 24.62-10.95 24.62-28.8 0-16.52-10.9-27.55-23.68-27.55h-.07zm-29.47 40c-3.68 8.3-7.87 12.78-14.44 12.78-10.25 0-17.62-10.29-17.62-25.56 0-12.45 5.99-23.9 17.04-23.9 6.35 0 11.48 3.15 13.65 12.61l2.53-.58c-.5-4.9-1.01-8.63-1.59-13.2-1.95-.5-7.15-2.24-13-2.24-16.9 0-28.38 11.7-28.38 28.96 0 13.11 8.01 27.47 26.72 27.47 5.05 0 11.48-1.66 13.43-2.16 1.23-2.82 3.03-9.13 4.04-13.03l-2.38-1.15zM432.28 20.07h-17.4v2.66c5.2.33 6.71 1.66 7.15 5.23.14 2.41.5 6.31.5 13.78v16.6h-.22l-28.52-38.26h-12.42v2.66c3.25.33 4.77 1 6.21 3.07 1.37 1.91 1.44 3.07 1.44 8.71V52.2c0 7.39-.36 11.12-.58 13.86-.36 3.73-2.09 4.98-6.14 5.31v2.66h17.47v-2.66c-5.2-.33-6.57-1.66-6.93-5.56-.22-2.49-.5-6.22-.5-13.61V32.7h.14l30.33 42.16h3.03V41.73c0-7.47.29-11.37.58-13.86.36-3.73 1.95-4.9 5.85-5.15v-2.65zM504.36 12.92h-23.39v3.1c6.22.66 6.79 1.13 6.79 9.12v14.29h-24.29V25.14c0-7.99.65-8.55 6.71-9.12v-3.1h-23.39v3.1c6.46.56 7.2 1.13 7.2 9.12v36.75c0 7.9-.74 8.46-6.95 9.12v3.01h23.39v-3.01c-6.3-.66-6.95-1.22-6.95-9.12V43.93h24.29v17.95c0 7.9-.65 8.46-7.28 9.12v3.01h23.88V71c-6.38-.66-7.03-1.22-7.03-9.12V25.14c0-7.99.57-8.46 7.03-9.12v-3.1zM559.99 47.62V27.29c0-1.91.14-2.82.65-3.32.5-.41 1.59-.83 3.47-.83 4.62 0 9.24 3.32 9.24 12.2 0 4.32-1.08 7.64-3.61 10.04-1.66 1.58-4.04 2.24-7.37 2.24h-2.38zm29.75 24.65c-1.66-.58-3.03-1.58-4.69-3.73-1.59-1.83-3.1-4.31-5.7-8.88-2.17-3.73-4.91-9.29-6.06-11.87 4.98-2.41 9.1-6.47 9.1-13.69 0-5.15-1.95-8.8-4.84-11.04-2.89-2.16-6.5-2.99-12.42-2.99H545.7v2.74c5.41.5 6.06 1.16 6.06 7.97v32.45c0 6.89-.79 7.55-6.35 8.13v2.66h20.79v-2.66c-5.56-.58-6.21-1.33-6.21-8.13V50.69h1.66c2.82 0 4.12 1 5.27 3.49 2.09 4.23 4.33 8.96 6.43 12.62 3.03 5.31 5.92 7.47 13.72 7.88.79 0 1.66.08 2.24.08l.43-2.49zM542.3 59.99c-1.23 3.49-2.53 6.22-3.9 7.97-1.66 2.16-4.04 2.74-8.45 2.74-2.96 0-5.49-.08-6.79-.91-1.37-.91-1.73-2.82-1.73-6.81V48.2h5.56c6.21 0 6.93.33 7.87 6.31h2.46V38.08h-2.46c-.94 5.73-1.66 6.22-7.87 6.22h-5.56V26.29c0-2.66.22-2.82 2.74-2.82h4.19c4.48 0 6.43.58 7.58 2.16 1.16 1.58 2.02 3.98 2.67 7.14l2.46-.41c-.29-4.81-.65-10.62-.72-12.28h-33.29v2.74c5.27.5 5.92.83 5.92 8.13v32.28c0 6.97-.65 7.55-6.93 8.13v2.66h36.1c.65-2.49 2.09-10.21 2.53-13.53l-2.38-.5z"></path><path d="M688.6 29.03c0-2.74.22-3.98.79-4.65.58-.58 2.17-1.16 4.98-1.16 4.91 0 8.81 1.49 11.91 4.56 4.19 3.82 6.57 10.46 6.57 18.67 0 14.19-6.57 24.15-17.62 24.15-5.05 0-6.64-1.91-6.64-7.97v-33.6zm-14.37-8.96v2.74c5.27.5 5.92 1 5.92 8.13v32.28c0 7.05-.65 7.55-6.57 8.13v2.66h18.05c8.95 0 16.39-2.16 21.73-6.89 5.49-4.81 8.95-12.12 8.95-22.16 0-7.88-2.67-13.86-6.28-17.76-4.55-4.98-11.48-7.14-20.58-7.14h-21.22zm-2.96 39.58c-1.23 3.98-2.53 6.64-3.9 8.3-1.66 2.24-4.19 2.74-7.65 2.74-2.53 0-4.62-.17-5.92-.83-1.44-.75-1.73-2.32-1.73-6.39V30.86c0-7.05.65-7.55 6.21-8.05v-2.74H637.4v2.74c5.63.5 6.28 1 6.28 8.05v32.28c0 7.05-.72 7.64-6.86 8.22v2.66h34.23c.65-2.32 2.09-10.46 2.67-13.69l-2.45-.68zm-55.32-8.13h-11.99c2.02-6.22 3.97-12.7 6.07-19.09h.22l5.7 19.09zm20.37 22.49v-2.66c-4.62-.66-5.56-1.58-7.94-8.88-4.69-14.27-9.24-29.21-13.86-43.65l-3.18 1-14.8 42.91c-2.46 7.14-3.39 7.88-8.09 8.63v2.66h15.96v-2.66c-5.27-.75-5.63-1.74-4.4-6.22.87-3.32 1.88-6.47 2.82-9.54h14.37c1.3 3.98 2.53 7.88 3.32 10.62 1.01 3.49.58 4.4-3.75 5.15v2.66h19.55z"></path><g><path class="st0" d="M68.73 3.72C68.64 2.5 68.55.81 68.54 0h-.44c-.31.37-.56.48-1.05.48H59.8c-.51 0-.74-.04-1.03-.48h-.43c-.04.98-.14 2.38-.22 3.78h.65c.23-.96.47-1.61.76-1.94.27-.31.6-.52 2.08-.52h.61v9.08c0 1.63-.18 1.75-1.7 1.88v.67h5.88v-.67c-1.59-.13-1.77-.25-1.77-1.88V1.32h.83c1.05 0 1.52.12 1.82.46.32.35.58.98.79 1.98l.66-.04zm-11.17-.26c-.14-1.19-.27-2.03-.34-2.75-.33-.13-1.35-.52-2.51-.52-2.56 0-4.13 1.65-4.13 3.76 0 1.84 1.28 2.88 3.14 3.88 1.35.77 2.15 1.48 2.15 2.61 0 1.21-.7 2.02-1.8 2.02-1.73 0-2.8-2.15-3.16-3.38l-.63.21c.13 1.17.36 2.78.52 3.26.25.12.6.27 1.1.42.54.17 1.17.27 1.82.27 2.63 0 4.39-1.71 4.39-3.9 0-1.9-1.3-2.98-3.19-3.95-1.59-.84-2.24-1.46-2.24-2.51 0-1.09.74-1.9 1.75-1.9 1.48 0 2.15 1.42 2.53 2.63l.6-.15zM86.47 7.85h-2.82c.47-1.36.92-2.75 1.43-4.15h.05l1.34 4.15zm5.36 5.11v-.67c-1.14-.15-1.37-.4-1.99-2.09-1.17-3.3-2.29-6.64-3.45-10l-.92.25-3.7 9.87c-.6 1.61-.81 1.82-2 1.98l-.02.67h4.04v-.67c-1.32-.17-1.35-.44-1.1-1.36.22-.77.45-1.46.65-2.05h3.47c.27.79.54 1.59.72 2.17.29.84.2 1.08-.87 1.25v.67h5.17zm-19-6.13V2.15c0-.4.04-.6.16-.71.11-.12.36-.19.81-.19 1.01 0 2.13.75 2.13 2.78 0 .98-.25 1.75-.87 2.28-.4.38-1.01.52-1.77.52h-.46zm7.36 5.69c-.42-.15-.7-.38-1.1-.83-.36-.4-.74-1.02-1.39-2.07-.52-.88-1.21-2.17-1.46-2.73 1.21-.54 2.26-1.44 2.26-3.13 0-1.19-.51-2.05-1.23-2.55-.72-.54-1.64-.73-3.21-.73h-5.07v.67c1.32.13 1.48.33 1.48 1.86v7.37c0 1.57-.2 1.77-1.55 1.9v.67h5.45v-.67c-1.35-.13-1.53-.33-1.53-1.9v-2.8h.34c.58.02.9.25 1.19.84.52 1 1.01 2.03 1.48 2.82.72 1.21 1.43 1.75 3.7 1.86.22 0 .43.02.54.02l.1-.6zM116.48 1c2.08 0 3.54 2.3 3.54 6.12 0 3.53-1.39 5.32-3.1 5.32-2.31 0-3.68-2.78-3.68-6.07 0-3.32 1.43-5.37 3.23-5.37h.01zm.32-.79c-4.13 0-6.34 3.23-6.34 6.53 0 3.69 2.51 6.51 6.12 6.51 3.39 0 6.19-2.51 6.19-6.66 0-3.8-2.69-6.37-5.96-6.37h-.01zm-6.73 3.19c-.09-1.11-.18-2.59-.2-2.92h-8.56v.69c1.32.12 1.5.25 1.5 1.98v7.08c0 1.8-.18 1.92-1.5 2.05v.67h5.63v-.67c-1.57-.13-1.71-.25-1.71-2.05V7.2h1.46c1.62 0 1.8.15 2 1.46h.65V4.84h-.65c-.22 1.23-.38 1.4-2 1.4h-1.46V2c0-.63.07-.67.7-.67h.9c1.01 0 1.5.13 1.88.56.31.36.52.92.72 1.65l.64-.14zm-9 .32c-.09-1.23-.18-2.92-.2-3.72h-.43c-.31.37-.56.48-1.05.48h-7.26c-.5 0-.74-.04-1.03-.48h-.43c-.04.98-.14 2.38-.22 3.78h.65c.23-.96.47-1.61.76-1.94.27-.31.6-.52 2.08-.52h.61v9.08c0 1.63-.18 1.75-1.7 1.88v.67h5.88v-.67c-1.59-.13-1.77-.25-1.77-1.88V1.32h.83c1.05 0 1.52.12 1.82.46.33.35.58.98.79 1.98l.67-.04zM137.98 2.59c0-.56.04-.88.2-1.06.11-.12.49-.27 1.14-.27 1.23 0 2.18.4 2.94 1.19.81.86 1.34 2.32 1.34 4.15 0 3.42-1.66 5.53-4.08 5.53-1.26 0-1.53-.48-1.53-1.86V2.59zM134.12.48v.67c1.28.13 1.44.25 1.44 1.9v7.33c0 1.63-.18 1.77-1.61 1.9v.67h4.64c2.26 0 4.13-.52 5.47-1.59 1.37-1.13 2.26-2.8 2.26-5.14 0-1.8-.7-3.17-1.59-4.07-1.17-1.19-2.92-1.67-5.18-1.67h-5.43zm-7.18 6.35V2.15c0-.4.04-.6.16-.71.11-.12.36-.19.81-.19 1.01 0 2.13.75 2.13 2.78 0 .98-.25 1.75-.87 2.28-.4.38-1.01.52-1.77.52h-.46zm7.37 5.69c-.42-.15-.7-.38-1.1-.83-.36-.4-.74-1.02-1.39-2.07-.52-.88-1.21-2.17-1.46-2.73 1.21-.54 2.26-1.44 2.26-3.13 0-1.19-.5-2.05-1.23-2.55-.72-.54-1.64-.73-3.21-.73h-5.07v.67c1.32.13 1.48.33 1.48 1.86v7.37c0 1.57-.2 1.77-1.55 1.9v.67h5.45v-.67c-1.35-.13-1.53-.33-1.53-1.9v-2.8h.34c.58.02.9.25 1.19.84.52 1 1.01 2.03 1.48 2.82.72 1.21 1.43 1.75 3.7 1.86.22 0 .43.02.54.02l.1-.6z" fill="#427B97"></path></g></svg>