<svg xmlns:xlink="http://www.w3.org/1999/xlink" aria-labelledby="prsLogo" class="header-logo-image logo-prs" version="1.1" viewBox="0 0 323.05 115.87" x="0" xml:space="preserve" xmlns="http://www.w3.org/2000/svg" y="0" width="323.05"  height="115.87" ><text id="prsLogo">The Paris Star</text><style>.st0{fill:#004b8c}</style><path d="M4.72 2.31H0V0h11.5v2.31H6.79V22.2H4.72V2.31zM13.75 0h2v8.55c.86-1.17 2.42-2.52 4.12-2.52 2.1 0 3.21 1.53 3.21 4.41V22.2H21.1V10.95c0-1.89-.52-2.79-1.85-2.79-1.26 0-2.62 1.17-3.51 2.28V22.2h-2V0zM25.52 14.28c0-5.7 2.42-8.25 5.04-8.25 2.89 0 4.64 2.82 4.64 8.16v.6h-7.7c.07 3.72 1.26 5.7 3.14 5.7 1.53 0 2.35-1.05 3.09-2.76l1.38 1.05c-.91 2.28-2.49 3.75-4.57 3.75-2.84 0-5.02-2.73-5.02-8.25zm7.78-1.32c-.12-2.88-.99-4.86-2.77-4.86-1.46 0-2.79 1.47-3.01 4.86h5.78z"></path><path class="st0" d="M.45 33.48h18.51c10.77 0 22.21 3.74 22.21 27.72 0 27.17-12.23 28.82-22.66 28.82h-.67v24.86H.45v-81.4zm18.29 42.13c2.69 0 5.16-.55 5.16-14.19 0-12.76-2.47-12.98-5.27-12.98h-.79v27.17h.9zM40.73 99.48c0-12.54 7.18-19.8 20.98-23.21v-3.63c0-3.74-.34-4.4-1.91-4.4-1.46 0-2.02.88-2.69 5.06l-14.59-1.76c2.69-13.31 9.76-16.28 19.19-16.28 11 0 15.71 4.95 15.71 16.72v28.6c0 7.04.22 11.33.9 14.3H62.49c-.56-1.54-.79-3.08-.79-6.93-2.02 4.29-4.82 7.37-9.99 7.37-5.93 0-10.98-3.96-10.98-15.84zm20.98.66V87.16c-4.04 2.09-5.16 5.61-5.16 10.01 0 2.31.79 3.85 2.47 3.85.89 0 2.02-.44 2.69-.88z" fill="#004B8C"></path><g><path class="st0" d="M81.21 56.03H97.7v9.24h.11c1.91-5.5 5.5-10.01 9.99-10.01 1.01 0 1.91.22 1.91.22v15.73h-1.57c-4.82 0-8.08.55-10.43 1.87v41.8h-16.5V56.03zM110.39 35.68h16.72v15.51h-16.72V35.68zm.11 20.35h16.49v58.85H110.5V56.03z" fill="#004B8C"></path></g><g><path class="st0" d="M128.66 96.84l14.36-1.76c.79 6.16 2.58 8.47 4.15 8.47 1.35 0 2.47-.44 2.47-2.53 0-3.63-3.7-5.06-7.97-8.47-5.5-4.4-11.89-10.23-11.89-20.9 0-13.09 10.21-16.83 16.72-16.83 10.88 0 17.39 4.51 18.62 17.93l-14.14 2.2c-.56-6.16-1.46-7.15-3.59-7.15-1.01 0-1.91.77-1.91 2.31 0 3.74 3.37 6.05 7.4 9.13 5.72 4.51 12.68 9.13 12.68 19.58 0 10.23-6.51 17.05-18.06 17.05-14.36 0-17.61-8.14-18.84-19.03zM181.84 88.15l16.38-1.1c.79 11.66 1.46 14.3 4.94 14.3 2.36 0 3.59-1.87 3.59-5.61 0-6.16-4.94-10.23-10.43-15.84-6.28-6.49-13.24-13.42-13.24-25.96 0-12.98 6.51-21.23 19.63-21.23 15.6 0 20.08 9.13 20.64 26.07l-16.49 1.32c-.34-12.1-1.57-12.54-3.82-12.54-1.91 0-2.58 1.98-2.58 4.51 0 7.48 4.6 11.44 9.87 16.5 6.51 6.38 13.8 12.54 13.8 26.18 0 13.53-7.29 20.9-21.09 20.9-18.06 0-20.42-11.88-21.2-27.5zM229.07 103.99V68.46h-4.49V56.03h4.49V36.12h16.38v19.91h7.52v12.43h-7.52v29.48c0 5.39 1.12 5.72 3.93 5.72 1.57 0 2.8-.22 3.59-.44v11.55c-1.01.33-4.49.66-9.2.66-8.53 0-14.7-1.98-14.7-11.44z" fill="#004B8C"></path></g><g><path class="st0" d="M254.05 99.48c0-12.54 7.18-19.8 20.98-23.21v-3.63c0-3.74-.34-4.4-1.91-4.4-1.46 0-2.02.88-2.69 5.06l-14.59-1.76c2.69-13.31 9.76-16.28 19.19-16.28 11 0 15.71 4.95 15.71 16.72v28.6c0 7.04.22 11.33.9 14.3h-15.82c-.56-1.54-.79-3.08-.79-6.93-2.02 4.29-4.83 7.37-9.99 7.37-5.94 0-10.99-3.96-10.99-15.84zm20.98.66V87.16c-4.04 2.09-5.16 5.61-5.16 10.01 0 2.31.79 3.85 2.47 3.85.89 0 2.02-.44 2.69-.88zM294.55 56.03h16.49v9.24h.11c1.91-5.5 5.5-10.01 9.99-10.01 1.01 0 1.91.22 1.91.22v15.73h-1.57c-4.82 0-8.08.55-10.43 1.87v41.8h-16.49V56.03z" fill="#004B8C"></path></g></svg>