<svg xmlns:xlink="http://www.w3.org/1999/xlink" aria-labelledby="pcsLogo" class="header-logo-image logo-pcs" role="img" viewBox="0 0 611.33 136.87" x="0" xmlns="http://www.w3.org/2000/svg" y="0" width="611.33"  height="136.87" > <text id="pcsLogo">The Peace Country Sun</text><style>.st0{fill:#004b8c}</style><path class="st0" d="M.46 33.47h18.51c10.77 0 22.21 3.74 22.21 27.72 0 27.17-12.23 28.82-22.66 28.82h-.67v24.86H.46v-81.4zM18.75 75.6c2.69 0 5.16-.55 5.16-14.19 0-12.76-2.47-12.98-5.27-12.98h-.79V75.6h.9zM41.41 85.5c0-20.02 6.62-30.25 19.3-30.25 16.94 0 18.4 15.95 18.4 29.7v6.27H57.45c0 7.26.79 11.44 3.37 11.44 2.13 0 2.92-1.65 3.14-7.81l15.26.44c-1.46 12.1-5.95 20.35-18.51 20.35-12.57 0-19.3-10.34-19.3-30.14zm21.99-4.18c-.11-10.34-.45-12.54-2.69-12.54-2.02 0-3.25 2.53-3.25 12.54h5.94z" fill="#004B8C"></path><path class="st0" d="M79.11 99.47c0-12.54 7.18-19.8 20.98-23.21v-3.63c0-3.74-.34-4.4-1.91-4.4-1.46 0-2.02.88-2.69 5.06L80.9 71.53c2.69-13.31 9.76-16.28 19.19-16.28 11 0 15.71 4.95 15.71 16.72v28.6c0 7.04.22 11.33.9 14.3h-15.82c-.56-1.54-.79-3.08-.79-6.93-2.02 4.29-4.82 7.37-9.99 7.37-5.94 0-10.99-3.96-10.99-15.84zm20.98.66V87.15c-4.04 2.09-5.16 5.61-5.16 10.01 0 2.31.79 3.85 2.47 3.85.89 0 2.02-.44 2.69-.88zM117.37 85.5c0-20.02 6.73-30.25 19.41-30.25 12.57 0 17.5 8.58 18.51 23.1l-16.04.77c-.22-6.93-.22-10.12-2.47-10.12-2.02 0-2.92 1.54-2.92 16.39 0 14.19.79 17.16 2.92 17.16s2.69-2.86 2.69-11.44l15.82.44c-.56 14.96-5.95 24.09-18.51 24.09-12.57 0-19.41-10.34-19.41-30.14zM156.08 85.5c0-20.02 6.62-30.25 19.3-30.25 16.94 0 18.4 15.95 18.4 29.7v6.27h-21.65c0 7.26.79 11.44 3.37 11.44 2.13 0 2.92-1.65 3.14-7.81l15.26.44c-1.46 12.1-5.95 20.35-18.51 20.35-12.57 0-19.31-10.34-19.31-30.14zm21.99-4.18c-.11-10.34-.45-12.54-2.69-12.54-2.02 0-3.25 2.53-3.25 12.54h5.94zM210.27 74.17c0-30.36 6.73-41.47 21.43-41.47 14.59 0 20.2 6.49 20.2 33.44l-16.72.66c0-15.51-.79-18.15-3.48-18.15-3.48 0-3.37 6.16-3.37 25.52 0 20.02.11 26.07 3.48 26.07 2.92 0 3.59-1.87 3.81-17.49l16.72.66c-.79 17.27-2.92 32.23-20.64 32.23-14.7 0-21.43-11.11-21.43-41.47zM253.02 85.5c0-20.02 6.73-30.25 19.41-30.25 12.57 0 19.41 10.23 19.41 30.25 0 19.8-6.84 30.14-19.41 30.14s-19.41-10.34-19.41-30.14zm22.22-.11c0-14.08-.56-16.39-2.81-16.39-2.02 0-2.92 1.21-2.92 16.39 0 14.19.79 17.16 2.92 17.16s2.81-1.76 2.81-17.16zM294.42 104.09V56.02h16.49v42.35c0 1.87.45 2.64 1.46 2.64 1.12 0 2.58-.22 3.25-.55V56.02h16.49v58.85h-16.49v-6.16c-2.47 3.3-8.08 6.93-12.45 6.93-5.49 0-8.75-1.76-8.75-11.55zM336.27 56.02h16.49v6.16c2.47-3.3 8.08-6.93 12.45-6.93 5.5 0 8.75 1.76 8.75 11.55v48.07h-16.49V72.96c0-1.87-.45-2.64-1.46-2.64-1.12 0-2.58.77-3.25 1.1v43.45h-16.49V56.02z" fill="#004B8C"></path><g><path class="st0" d="M379.46 103.98V68.45h-4.49V56.02h4.49V36.11h16.38v19.91h7.52v12.43h-7.52v29.48c0 5.39 1.12 5.72 3.93 5.72 1.57 0 2.8-.22 3.59-.44v11.55c-1.01.33-4.49.66-9.2.66-8.53 0-14.7-1.98-14.7-11.44zM405.37 56.02h16.49v9.24h.11c1.91-5.5 5.5-10.01 9.99-10.01 1.01 0 1.91.22 1.91.22V71.2h-1.57c-4.82 0-8.08.55-10.43 1.87v41.8h-16.49V56.02z" fill="#004B8C"></path></g><g><path class="st0" d="M431.86 135.88l2.36-13.53c1.46.22 2.69.33 3.7.33 4.26 0 5.95-.66 6.51-3.63l.34-1.65-11.78-61.38h17.84l1.79 24.97c.34 3.85.45 8.03.79 13.53h.22c.34-5.5.67-9.79 1.01-13.42l2.58-25.08h16.16l-12.57 62.81c-2.24 11.11-6.84 18.04-18.85 18.04-4.04 0-7.86-.33-10.1-.99z" fill="#004B8C"></path></g><g><path class="st0" d="M488.06 88.14l16.38-1.1c.79 11.66 1.46 14.3 4.94 14.3 2.36 0 3.59-1.87 3.59-5.61 0-6.16-4.94-10.23-10.43-15.84-6.28-6.49-13.24-13.42-13.24-25.96 0-12.98 6.51-21.23 19.63-21.23 15.6 0 20.08 9.13 20.64 26.07l-16.49 1.32c-.34-12.1-1.57-12.54-3.81-12.54-1.91 0-2.58 1.98-2.58 4.51 0 7.48 4.6 11.44 9.87 16.5 6.51 6.38 13.8 12.54 13.8 26.18 0 13.53-7.29 20.9-21.09 20.9-18.07 0-20.42-11.88-21.21-27.5zM532.04 104.09V56.02h16.49v42.35c0 1.87.45 2.64 1.46 2.64 1.12 0 2.58-.22 3.25-.55V56.02h16.49v58.85h-16.49v-6.16c-2.47 3.3-8.08 6.93-12.45 6.93-5.49 0-8.75-1.76-8.75-11.55z" fill="#004B8C"></path></g><g><path class="st0" d="M573.63 56.02h16.49v6.16c2.47-3.3 8.08-6.93 12.45-6.93 5.5 0 8.75 1.76 8.75 11.55v48.07h-16.49V72.96c0-1.87-.45-2.64-1.46-2.64-1.12 0-2.58.77-3.25 1.1v43.45h-16.49V56.02z" fill="#004B8C"></path></g><g><path d="M4.72 2.31H0V0h11.5v2.31H6.79V22.2H4.72V2.31zM13.75 0h2v8.55c.86-1.17 2.42-2.52 4.12-2.52 2.1 0 3.21 1.53 3.21 4.41V22.2H21.1V10.95c0-1.89-.52-2.79-1.85-2.79-1.26 0-2.62 1.17-3.51 2.28V22.2h-2V0zM25.52 14.28c0-5.7 2.42-8.25 5.04-8.25 2.89 0 4.64 2.82 4.64 8.16v.6h-7.7c.07 3.72 1.26 5.7 3.14 5.7 1.53 0 2.35-1.05 3.09-2.76l1.38 1.05c-.91 2.28-2.49 3.75-4.57 3.75-2.84 0-5.02-2.73-5.02-8.25zm7.78-1.32c-.12-2.88-.99-4.86-2.77-4.86-1.46 0-2.79 1.47-3.01 4.86h5.78z"></path></g></svg>