<svg xmlns:xlink="http://www.w3.org/1999/xlink" aria-labelledby="ppgLogo" class="header-logo-image logo-ppg" viewBox="0 0 458.44 112.2" xmlns="http://www.w3.org/2000/svg" width="458.44"  height="112.2" ><text id="ppgLogo">The Graphic Leader</text><path d="M446.58 96.29c4.8 0 8.13-1.07 11.87-3.08V75.02c-2.8 1.87-5.6 3.08-8.27 3.08-5.33 0-8.8-4.81-8.8-17.12v-4.55c0-12.3 3.47-16.98 8.67-16.98 3.07 0 5.33.94 8.27 2.67V23.4c-3.47-1.47-6.53-2.27-11.6-2.27-14.13 0-24.53 12.04-24.53 34.9v5.08c-.01 23.01 9.32 35.18 24.39 35.18m-49-1.47h19.07V22.6h-19.07v72.22zm-.14-77.84h19.33V0h-19.33v16.98zm-52.72 77.84h19.07V44.4c0-3.88 1.87-6.15 4.4-6.15s4.13 2.27 4.13 6.15v50.42h19.06v-55.5c0-10.83-4.67-18.19-14.13-18.19-6.8 0-10.67 4.55-13.46 9.76V0h-19.07v94.82zm-29.67-16.05c-3.47 0-5.2-5.35-5.2-16.45v-7.36c0-11.1 1.73-16.32 5.2-16.32 3.46 0 5.07 5.22 5.07 16.32v7.36c0 11.1-1.6 16.45-5.07 16.45m-24.13 33.43h19.06V86.39c2.93 5.08 6.4 9.9 13.2 9.9 8.67 0 16-7.62 16-34.1v-6.95c0-26.61-7.33-34.1-16-34.1-6.8 0-10.27 4.95-13.2 9.9V22.6h-19.06v89.6zm-29.26-30.62c-2.53 0-4.4-2.14-4.4-7.89v-2.54c0-5.75 1.87-8.29 4.67-8.29 1.2 0 3.2.67 4.27 1.2v11.23c-.01 4.28-2.28 6.29-4.54 6.29m-7.61 14.44c5.33 0 9.07-2.81 12-8.16v6.95h19.07v-47.2c0-17.12-8.53-26.08-24.27-26.08-7.33 0-12.4 1.2-17.47 3.34v17.92c3.6-1.87 8.67-3.61 13.07-3.61 6.4 0 9.6 3.34 9.6 10.16v2.81c-3.07-1.6-6-2.54-9.73-2.54-9.73 0-16.67 6.55-16.67 22.87v2.27c.01 13.65 6.27 21.27 14.4 21.27m-46.86-1.2h19.07V59.51c0-10.03 3.6-14.84 11.07-14.84h.4v-23c-5.87-.4-9.33 3.74-11.47 10.83v-9.9h-19.07v72.22zm-26.06.93c7.33 0 13.6-2.14 19.73-5.08V40.12h-24.93V57.5h7.2v20.06c-.53.13-.93.27-1.6.27-5.6 0-11.73-4.95-11.73-26.75v-6.15c0-18.05 5.73-25.81 14.53-25.81 4.67 0 9.07 1.74 13.47 4.55V3.61c-4-2.01-8.67-3.34-14.93-3.34-18.93 0-33.07 15.38-33.07 45.2v5.08c-.01 31.43 13.86 45.2 31.33 45.2" fill="#096AB3"></path><path d="M118.39 53.63c.13-12.3 2.27-15.91 5.2-15.91 3.33 0 4.93 4.41 4.93 15.91h-10.13zm7.87 42.66c6.93 0 12.8-2.01 18.27-5.48l-1.2-17.12c-4.8 3.21-9.2 5.22-14.13 5.22-5.6 0-9.6-3.08-10.67-11.9h27.73v-9.63c0-23.81-8.8-36.38-22.53-36.38-13.6 0-24 12.57-24 35.71v4.15c0 23.39 11.2 35.43 26.53 35.43m-77.79-1.47h19.07V44.4c0-3.88 1.87-6.15 4.4-6.15s4.13 2.27 4.13 6.15v50.42h19.07v-55.5c0-10.83-4.67-18.19-14.13-18.19-6.8 0-10.67 4.55-13.47 9.76V0H48.47v94.82zm-36.2 0h19.6V19.93H44V1.2H0v18.72h12.27v74.9z" fill="#173B66"></path></svg>