<svg xmlns:xlink="http://www.w3.org/1999/xlink" aria-labelledby="vmsLogo" class="header-logo-image logo-vms" role="img" viewBox="0 0 524.21 73.16" x="0" xmlns="http://www.w3.org/2000/svg" y="0" width="524.21"  height="73.16" > <text id="vmsLogo">Vermilion Standard</text><style>.st0{fill:#004b8c}</style><path class="st0" d="M36.32.51l-8.41 71.83H8.41L0 .51h13.29l4.86 50.18L23.01.51h13.31zM67.01 61.36c0 4.31-1.49 7.46-4.46 9.44-2.38 1.57-5.77 2.36-10.17 2.36s-7.79-.85-10.17-2.56c-2.86-2.05-4.28-5.3-4.28-9.75V26.06c0-4.38 1.4-7.59 4.19-9.65 2.44-1.78 5.86-2.67 10.26-2.67 4.34 0 7.73.79 10.17 2.36 2.97 1.92 4.46 5.06 4.46 9.44V47.7H50.33v13.46c0 .95.18 1.68.54 2.19.36.51.89.76 1.61.76.71 0 1.25-.25 1.61-.76.36-.51.54-1.24.54-2.19v-11.6h12.4v11.8zm-12.4-22.47V25.64c0-.95-.18-1.67-.54-2.14-.36-.47-.89-.71-1.61-.71-.6 0-1.1.24-1.52.71-.42.48-.62 1.19-.62 2.14v13.25h4.29zM99.04 38.28h-12.4V25.57c0-1.79-.71-2.69-2.14-2.69-.71 0-1.25.21-1.61.62-.36.41-.54 1.06-.54 1.95v46.89h-12.4V14.16h12.4v1.92c.71-.68 1.74-1.23 3.08-1.67 1.34-.44 2.87-.66 4.6-.66 2.62 0 4.77.8 6.47 2.41 1.7 1.61 2.54 3.58 2.54 5.9v16.22zM147.32 72.34h-12.4V25.76c0-1.78-.71-2.67-2.14-2.67-.71 0-1.25.21-1.61.62-.36.41-.54 1.06-.54 1.95v46.68h-12.4V25.66c0-1.78-.71-2.67-2.14-2.67-.71 0-1.25.21-1.61.62-.36.41-.54 1.06-.54 1.95v46.79h-12.4V14.16h12.4v2.03c.71-.68 1.77-1.25 3.17-1.73 1.4-.47 2.9-.71 4.51-.71 2.32 0 3.96.34 4.91 1.01 1.13 1.15 2.11 2.13 2.94 2.94.54-.74 1.71-1.59 3.52-2.54s3.61-1.42 5.4-1.42c2.56 0 4.68.84 6.38 2.51 1.7 1.68 2.54 3.64 2.54 5.9v50.19zM162.75 10.98h-12.4V.62h12.4v10.36zm0 61.36h-12.4V14.16h12.4v58.18zM177.56 72.34h-12.4V.51h12.4v71.83zM192.91 10.98h-12.4V.62h12.4v10.36zm0 61.36h-12.4V14.16h12.4v58.18zM224.41 61.36c0 4.38-1.43 7.53-4.28 9.44-2.32 1.57-5.68 2.36-10.08 2.36-4.46 0-7.91-.85-10.35-2.56-2.91-2.05-4.37-5.3-4.37-9.75V26.06c0-4.38 1.46-7.59 4.37-9.65 2.5-1.78 5.95-2.67 10.35-2.67 4.04 0 7.45 1.01 10.22 3.03 2.77 2.02 4.15 4.94 4.15 8.77v35.82zM212 61.17V25.65c0-.96-.18-1.67-.54-2.15-.36-.48-.89-.72-1.61-.72-.6 0-1.1.24-1.52.72-.42.48-.62 1.2-.62 2.15v35.52c0 .96.18 1.69.54 2.2.36.51.89.77 1.61.77.71 0 1.25-.25 1.61-.77.36-.52.53-1.25.53-2.2zM255.81 72.34h-12.4V25.56c0-1.78-.71-2.67-2.14-2.67-.71 0-1.25.22-1.61.64-.36.43-.54 1.1-.54 2.03v46.79h-12.4V14.16h12.4v1.95c.71-.68 1.74-1.25 3.08-1.69 1.34-.44 2.87-.67 4.6-.67 2.62 0 4.77.8 6.47 2.41 1.7 1.61 2.54 3.58 2.54 5.9v50.28zM305.6 58.8c0 4.72-1.07 8.21-3.21 10.47-2.5 2.6-6.72 3.9-12.67 3.9-5.65 0-9.79-1.54-12.4-4.62-1.96-2.26-2.94-5.06-2.94-8.41V43.71h12.4v16.61c0 .76.26 1.36.79 1.81.52.45 1.15.67 1.89.67.86 0 1.51-.2 1.94-.62.43-.41.65-1.03.65-1.86v-8.55c0-1.99-.39-3.57-1.17-4.74-2.09-2.47-4.33-5.19-6.73-8.14-3.95-4.79-6.16-7.53-6.64-8.21-2.09-3.08-3.14-5.95-3.14-8.62v-8.11c0-4.58 1.13-7.97 3.39-10.16 2.62-2.53 6.78-3.8 12.49-3.8 4.94 0 8.62 1.27 11.07 3.8 2.08 2.19 3.12 5.17 3.12 8.93v12.42h-12.4V11.82c0-.69-.2-1.22-.61-1.6-.4-.38-.91-.57-1.53-.57-.74 0-1.3.17-1.67.52-.37.34-.56.9-.56 1.65v6.71c0 2.34.9 4.62 2.69 6.82 2.51 2.94 4.87 5.71 7.08 8.31 2.87 3.42 4.72 5.81 5.56 7.18 1.73 2.81 2.6 5.75 2.6 8.83v9.13zM332.91 72.34h-7.85c-5.35 0-8.64-.84-9.86-2.51-1.22-1.67-1.83-5.51-1.83-11.52V22.88h-5.53v-8.72h5.53V2.46h12.4v11.7h6.69v8.72h-6.69v35.4c0 1.71.5 2.91 1.52 3.59.71.48 1.81.72 3.3.72h2.32v9.75zM364.67 72.34H353.7v-2.26c-.6 1.3-1.5 2.14-2.72 2.51-1.22.38-2.96.56-5.22.56-3.69 0-6.31-.75-7.85-2.26-1.55-1.5-2.32-3.8-2.32-6.87v-11.7c0-4.65 2.78-8.52 8.34-11.59 5.56-3.08 8.34-5.23 8.34-6.47v-8.62c0-.96-.18-1.67-.52-2.15-.35-.48-.88-.72-1.57-.72-.58 0-1.08.24-1.49.72-.41.48-.61 1.2-.61 2.15v11.49h-12.05V25.55c0-4.31 1.52-7.46 4.55-9.44 2.44-1.57 5.86-2.36 10.26-2.36 4.4 0 7.7.86 9.9 2.56 2.62 1.98 3.93 5.23 3.93 9.75v46.28zm-12.4-10.87V46.48c-1.67.48-2.8 1.06-3.39 1.74-.6.68-.89 1.57-.89 2.67v10.57c0 .89.19 1.56.58 2 .39.45.94.67 1.65.67.59 0 1.08-.22 1.47-.67.38-.44.58-1.1.58-1.99zM396.79 72.34h-12.4V25.56c0-1.78-.71-2.67-2.14-2.67-.71 0-1.25.22-1.61.64-.36.43-.54 1.1-.54 2.03v46.79h-12.4V14.16h12.4v1.95c.71-.68 1.74-1.25 3.08-1.69 1.34-.44 2.87-.67 4.59-.67 2.62 0 4.77.8 6.47 2.41 1.7 1.61 2.54 3.58 2.54 5.9v50.28zM428.47 72.34h-9.37l-1.07-1.95c-1.19 1.03-1.9 1.61-2.14 1.75-1.25.68-2.94 1.03-5.08 1.03-3.63 0-6.44-.96-8.43-2.87-1.99-1.91-2.99-4.14-2.99-6.67V21.86c0-2.26.83-4.17 2.5-5.75 1.67-1.57 3.84-2.36 6.51-2.36 1.67 0 3.18.21 4.55.61 1.37.41 2.41.92 3.12 1.54V.51h12.4v71.83zm-12.4-10.87V25.35c0-.82-.19-1.45-.58-1.9-.39-.44-.91-.67-1.56-.67-1.43 0-2.14.89-2.14 2.67v36.02c0 .89.18 1.56.54 2 .36.45.89.67 1.61.67.71 0 1.25-.22 1.61-.67.34-.45.52-1.11.52-2zM460.41 72.34h-10.97v-2.26c-.59 1.3-1.5 2.14-2.72 2.51-1.22.38-2.96.56-5.22.56-3.69 0-6.31-.75-7.85-2.26-1.55-1.5-2.32-3.8-2.32-6.87v-11.7c0-4.65 2.78-8.52 8.34-11.59 5.56-3.08 8.34-5.23 8.34-6.47v-8.62c0-.96-.18-1.67-.52-2.15-.35-.48-.87-.72-1.57-.72-.58 0-1.08.24-1.49.72-.41.48-.61 1.2-.61 2.15v11.49h-12.05V25.55c0-4.31 1.52-7.46 4.55-9.44 2.44-1.57 5.86-2.36 10.26-2.36 4.4 0 7.7.86 9.9 2.56 2.62 1.98 3.93 5.23 3.93 9.75v46.28zm-12.4-10.87V46.48c-1.67.48-2.8 1.06-3.39 1.74-.6.68-.89 1.57-.89 2.67v10.57c0 .89.19 1.56.58 2 .39.45.94.67 1.65.67.59 0 1.08-.22 1.47-.67.39-.44.58-1.1.58-1.99zM492.62 38.28h-12.4V25.57c0-1.79-.71-2.69-2.14-2.69-.71 0-1.25.21-1.61.62-.36.41-.54 1.06-.54 1.95v46.89h-12.4V14.16h12.4v1.92c.71-.68 1.74-1.23 3.08-1.67 1.34-.44 2.87-.66 4.6-.66 2.62 0 4.77.8 6.47 2.41 1.7 1.61 2.54 3.58 2.54 5.9v16.22zM524.21 72.34h-9.37l-1.07-1.95c-1.19 1.03-1.9 1.61-2.14 1.75-1.25.68-2.95 1.03-5.09 1.03-3.63 0-6.44-.96-8.43-2.87-1.99-1.91-2.99-4.14-2.99-6.67V21.86c0-2.26.83-4.17 2.5-5.75 1.67-1.57 3.84-2.36 6.51-2.36 1.66 0 3.18.21 4.55.61 1.37.41 2.41.92 3.12 1.54V.51h12.4v71.83zm-12.4-10.87V25.35c0-.82-.19-1.45-.58-1.9-.39-.44-.91-.67-1.56-.67-1.43 0-2.14.89-2.14 2.67v36.02c0 .89.18 1.56.54 2 .36.45.89.67 1.61.67.71 0 1.25-.22 1.61-.67.34-.45.52-1.11.52-2z" fill="#004B8C"></path></svg>