<svg xmlns:xlink="http://www.w3.org/1999/xlink" aria-labelledby="wcnLogo" class="header-logo-image logo-wcn" version="1.1" viewBox="0 0 442.24 115.87" x="0" xml:space="preserve" xmlns="http://www.w3.org/2000/svg" y="0" width="442.24"  height="115.87" ><text id="wcnLogo">Wallaceburg Courier Press</text><style>.st0{fill:#004b8c}</style><path d="M5.72 2.31H1.01V0h11.5v2.31H7.8V22.2H5.72V2.31zM14.76 0h2v8.55c.86-1.17 2.42-2.52 4.12-2.52 2.1 0 3.21 1.53 3.21 4.41V22.2h-1.98V10.95c0-1.89-.52-2.79-1.85-2.79-1.26 0-2.62 1.17-3.51 2.28V22.2h-2V0zM26.53 14.28c0-5.7 2.42-8.25 5.04-8.25 2.89 0 4.64 2.82 4.64 8.16v.6h-7.7c.07 3.72 1.26 5.7 3.14 5.7 1.53 0 2.35-1.05 3.09-2.76l1.38 1.05c-.91 2.28-2.49 3.75-4.57 3.75-2.84 0-5.02-2.73-5.02-8.25zm7.78-1.32c-.12-2.88-.99-4.86-2.77-4.86-1.46 0-2.79 1.47-3.01 4.86h5.78z"></path><path class="st0" d="M0 74.18c0-30.36 6.73-41.47 21.43-41.47 14.59 0 20.2 6.49 20.2 33.44l-16.72.66c0-15.51-.79-18.15-3.48-18.15-3.48 0-3.37 6.16-3.37 25.52 0 20.02.11 26.07 3.48 26.07 2.92 0 3.59-1.87 3.81-17.49l16.72.66c-.79 17.27-2.92 32.23-20.64 32.23C6.73 115.65 0 104.54 0 74.18zM42.52 85.51c0-20.02 6.73-30.25 19.41-30.25 12.57 0 19.41 10.23 19.41 30.25 0 19.8-6.84 30.14-19.41 30.14-12.56 0-19.41-10.34-19.41-30.14zm22.22-.11c0-14.08-.56-16.39-2.81-16.39-2.02 0-2.92 1.21-2.92 16.39 0 14.19.79 17.16 2.92 17.16s2.81-1.76 2.81-17.16zM83.7 104.1V56.03h16.49v42.35c0 1.87.45 2.64 1.46 2.64 1.12 0 2.58-.22 3.25-.55V56.03h16.49v58.85H104.9v-6.16c-2.47 3.3-8.08 6.93-12.45 6.93-5.5 0-8.75-1.76-8.75-11.55zM125.33 56.03h16.49v9.24h.11c1.91-5.5 5.5-10.01 9.99-10.01 1.01 0 1.91.22 1.91.22v15.73h-1.57c-4.82 0-8.08.55-10.43 1.87v41.8h-16.49V56.03zM155.51 35.68h16.72v15.51h-16.72V35.68zm.11 20.35h16.49v58.85h-16.49V56.03zM174.8 85.51c0-20.02 6.62-30.25 19.3-30.25 16.94 0 18.4 15.95 18.4 29.7v6.27h-21.65c0 7.26.79 11.44 3.37 11.44 2.13 0 2.92-1.65 3.14-7.81l15.26.44c-1.46 12.1-5.95 20.35-18.51 20.35-12.57 0-19.31-10.34-19.31-30.14zm22-4.18c-.11-10.34-.45-12.54-2.69-12.54-2.02 0-3.25 2.53-3.25 12.54h5.94zM214.97 56.03h16.49v9.24h.11c1.91-5.5 5.5-10.01 9.99-10.01 1.01 0 1.91.22 1.91.22v15.73h-1.57c-4.82 0-8.08.55-10.43 1.87v41.8h-16.49V56.03z" fill="#004B8C"></path><g><path class="st0" d="M259.85 33.48h18.51c10.77 0 22.21 3.74 22.21 27.72 0 27.17-12.23 28.82-22.66 28.82h-.67v24.86h-17.39v-81.4zm18.29 42.13c2.69 0 5.16-.55 5.16-14.19 0-12.76-2.47-12.98-5.27-12.98h-.79v27.17h.9zM302.48 56.03h16.49v9.24h.11c1.91-5.5 5.5-10.01 9.99-10.01 1.01 0 1.91.22 1.91.22v15.73h-1.57c-4.82 0-8.08.55-10.43 1.87v41.8h-16.49V56.03zM330.42 85.51c0-20.02 6.62-30.25 19.3-30.25 16.94 0 18.4 15.95 18.4 29.7v6.27h-21.65c0 7.26.79 11.44 3.37 11.44 2.13 0 2.92-1.65 3.14-7.81l15.26.44c-1.46 12.1-5.95 20.35-18.51 20.35-12.58 0-19.31-10.34-19.31-30.14zm21.99-4.18c-.11-10.34-.45-12.54-2.69-12.54-2.02 0-3.25 2.53-3.25 12.54h5.94z" fill="#004B8C"></path><path class="st0" d="M367.9 96.84l14.36-1.76c.79 6.16 2.58 8.47 4.15 8.47 1.35 0 2.47-.44 2.47-2.53 0-3.63-3.7-5.06-7.97-8.47-5.5-4.4-11.89-10.23-11.89-20.9 0-13.09 10.21-16.83 16.72-16.83 10.88 0 17.39 4.51 18.62 17.93l-14.14 2.2c-.56-6.16-1.46-7.15-3.59-7.15-1.01 0-1.91.77-1.91 2.31 0 3.74 3.37 6.05 7.41 9.13 5.72 4.51 12.68 9.13 12.68 19.58 0 10.23-6.51 17.05-18.06 17.05-14.37 0-17.62-8.14-18.85-19.03z" fill="#004B8C"></path></g><g><path class="st0" d="M405.33 96.84l14.36-1.76c.79 6.16 2.58 8.47 4.15 8.47 1.35 0 2.47-.44 2.47-2.53 0-3.63-3.7-5.06-7.97-8.47-5.5-4.4-11.89-10.23-11.89-20.9 0-13.09 10.21-16.83 16.72-16.83 10.88 0 17.39 4.51 18.62 17.93l-14.14 2.2c-.56-6.16-1.46-7.15-3.59-7.15-1.01 0-1.91.77-1.91 2.31 0 3.74 3.37 6.05 7.41 9.13 5.72 4.51 12.68 9.13 12.68 19.58 0 10.23-6.51 17.05-18.06 17.05-14.36 0-17.62-8.14-18.85-19.03z" fill="#004B8C"></path></g></svg>