<svg xmlns:xlink="http://www.w3.org/1999/xlink" aria-labelledby="wttLogo" class="header-logo-image logo-wtt" viewBox="0 0 584.7 115.86" x="0" xml:space="preserve" xmlns="http://www.w3.org/2000/svg" y="0" width="584.7"  height="115.86" ><text id="wttLogo">Wetaskiwin Times</text><style>.st0{fill:#004b8c}</style><path class="st0" d="M0 33.47h17.28l2.24 33.22c.34 5.28.67 10.89.9 17.49 0 0 .45-6.38.11 0l1.57-17.49 3.81-33.22h12l2.92 32.89c.67 6.93 1.01 10.89 1.35 17.82h.11c.34-7.15.56-10.78 1.01-17.71l2.13-33h15.93l-10.1 81.73H35.01l-4.26-45.1h-.22l-4.26 45.1H9.99L0 33.47zM58.57 85.5c0-20.02 6.62-30.25 19.3-30.25 16.94 0 18.4 15.95 18.4 29.7v6.27H74.61c0 7.26.79 11.44 3.37 11.44 2.13 0 2.92-1.65 3.14-7.81l15.26.44c-1.46 12.1-5.95 20.35-18.51 20.35-12.57 0-19.3-10.34-19.3-30.14zm21.99-4.18c-.11-10.34-.45-12.54-2.69-12.54-2.02 0-3.25 2.53-3.25 12.54h5.94z" fill="#004B8C"></path><path class="st0" d="M100.21 103.98V68.45h-4.49V56.02h4.49V36.11h16.38v19.91h7.52v12.43h-7.52v29.48c0 5.39 1.12 5.72 3.93 5.72 1.57 0 2.8-.22 3.59-.44v11.55c-1.01.33-4.49.66-9.2.66-8.53 0-14.7-1.98-14.7-11.44zM124.67 99.47c0-12.54 7.18-19.8 20.98-23.21v-3.63c0-3.74-.34-4.4-1.91-4.4-1.46 0-2.02.88-2.69 5.06l-14.59-1.76c2.69-13.31 9.76-16.28 19.19-16.28 11 0 15.71 4.95 15.71 16.72v28.6c0 7.04.22 11.33.9 14.3h-15.82c-.56-1.54-.79-3.08-.79-6.93-2.02 4.29-4.82 7.37-9.99 7.37-5.94 0-10.99-3.96-10.99-15.84zm20.98.66V87.15c-4.04 2.09-5.16 5.61-5.16 10.01 0 2.31.79 3.85 2.47 3.85.9 0 2.02-.44 2.69-.88zM162.71 96.83l14.36-1.76c.79 6.16 2.58 8.47 4.15 8.47 1.35 0 2.47-.44 2.47-2.53 0-3.63-3.7-5.06-7.97-8.47-5.5-4.4-11.89-10.23-11.89-20.9 0-13.09 10.21-16.83 16.72-16.83 10.88 0 17.39 4.51 18.62 17.93l-14.14 2.2c-.56-6.16-1.46-7.15-3.59-7.15-1.01 0-1.91.77-1.91 2.31 0 3.74 3.37 6.05 7.4 9.13 5.72 4.51 12.68 9.13 12.68 19.58 0 10.23-6.51 17.05-18.06 17.05-14.36 0-17.61-8.14-18.84-19.03zM201.86 33.47h15.48v46.2c1.12-6.16 2.36-11.44 3.03-14.08l2.47-9.57h14.25l-7.63 21.89 8.98 36.96h-15.71l-3.82-21.67-1.57 6.27v15.4h-15.48v-81.4zM238.89 35.67h16.72v15.51h-16.72V35.67zm.11 20.35h16.49v58.85H239V56.02zM256.5 56.02h16.38l1.91 23.87c.22 3.19.22 6.05.45 12.21h.22c.45-5.83.79-9.02 1.23-12.21l3.7-23.87h8.86l3.7 23.87c.45 3.19.9 7.26 1.23 12.21h.22c.11-5.17.22-9.02.45-12.21l1.91-23.87h15.26l-7.85 59.18h-15.93l-3.93-27.94h-.22l-3.93 27.94h-15.82l-7.84-59.18zM312.94 35.67h16.72v15.51h-16.72V35.67zm.11 20.35h16.49v58.85h-16.49V56.02zM333.13 56.02h16.49v6.16c2.47-3.3 8.08-6.93 12.46-6.93 5.5 0 8.75 1.76 8.75 11.55v48.07h-16.49V72.96c0-1.87-.45-2.64-1.46-2.64-1.12 0-2.58.77-3.25 1.1v43.45h-16.49V56.02z" fill="#004B8C"></path><g><path class="st0" d="M399.03 48.43h-10.32V33.47h38.37v14.96h-10.32v66.44h-17.73V48.43zM428.32 35.67h16.72v15.51h-16.72V35.67zm.11 20.35h16.49v58.85h-16.49V56.02zM448.62 56.02h16.49v6.16c2.47-3.3 8.08-6.93 12.45-6.93 4.49 0 7.52 1.21 8.42 7.04 2.92-3.63 8.75-7.04 12.79-7.04 5.5 0 8.75 1.76 8.75 11.55v48.07h-16.49V72.96c0-1.87-.45-2.64-1.46-2.64s-2.47.66-3.25 1.1v43.45h-16.49V72.96c0-1.87-.45-2.64-1.46-2.64-1.12 0-2.58.77-3.25 1.1v43.45h-16.49V56.02zM509.43 85.5c0-20.02 6.62-30.25 19.3-30.25 16.94 0 18.4 15.95 18.4 29.7v6.27h-21.65c0 7.26.79 11.44 3.37 11.44 2.13 0 2.92-1.65 3.14-7.81l15.26.44c-1.46 12.1-5.95 20.35-18.51 20.35s-19.31-10.34-19.31-30.14zm22-4.18c-.11-10.34-.45-12.54-2.69-12.54-2.02 0-3.25 2.53-3.25 12.54h5.94z" fill="#004B8C"></path></g><g><path class="st0" d="M547.79 96.83l14.36-1.76c.79 6.16 2.58 8.47 4.15 8.47 1.35 0 2.47-.44 2.47-2.53 0-3.63-3.7-5.06-7.96-8.47-5.5-4.4-11.89-10.23-11.89-20.9 0-13.09 10.21-16.83 16.72-16.83 10.88 0 17.39 4.51 18.62 17.93l-14.14 2.2c-.56-6.16-1.46-7.15-3.59-7.15-1.01 0-1.91.77-1.91 2.31 0 3.74 3.37 6.05 7.4 9.13 5.72 4.51 12.68 9.13 12.68 19.58 0 10.23-6.51 17.05-18.06 17.05-14.36 0-17.62-8.14-18.85-19.03z" fill="#004B8C"></path></g><g><path d="M7.18 2.31H2.47V0h11.5v2.31H9.26V22.2H7.18V2.31zM16.22 0h2v8.55c.86-1.17 2.42-2.52 4.12-2.52 2.1 0 3.21 1.53 3.21 4.41V22.2h-1.98V10.95c0-1.89-.52-2.79-1.85-2.79-1.26 0-2.62 1.17-3.51 2.28V22.2h-2V0zM27.99 14.28c0-5.7 2.42-8.25 5.04-8.25 2.89 0 4.64 2.82 4.64 8.16v.6h-7.7c.07 3.72 1.26 5.7 3.14 5.7 1.53 0 2.35-1.05 3.09-2.76l1.38 1.05c-.91 2.28-2.49 3.75-4.57 3.75-2.84 0-5.02-2.73-5.02-8.25zm7.78-1.32c-.12-2.88-.99-4.86-2.77-4.86-1.46 0-2.79 1.47-3.01 4.86h5.78z"></path></g></svg>