<svg xmlns="http://www.w3.org/2000/svg" xmlns:xlink= "http://www.w3.org/1999/xlink" aria-labelledby="osunLogo" style="fill:#D2232A;" class="header-logo-image logo-osun" role="img" viewBox="0 0 393 56" width="393" height="56"> <title id="osunLogo">Ottawa Sun</title> <path d="M277.19 17.93L276.15 17.93C276.06 17.39 276.01 17.1 276 17.04C275.85 16.15 275.7 15.11 275.11 14.37C274.52 13.63 273.93 13.04 272 13.04C270.96 13.04 269.93 13.33 269.33 13.93C268.59 14.52 268.3 15.11 268.3 15.85C268.44 17.19 268.3 17.33 269.78 18.37C271.26 19.26 274.22 20.59 279.26 22.67C284.59 24.89 288.15 27.11 290.22 29.78C292.44 32.44 293.19 35.41 293.19 38.52C293.19 42.52 291.85 46.81 288.59 50.07C285.33 53.33 280 55.41 272.3 55.41C272.3 55.41 272.3 55.41 272.3 55.41C264 55.41 258.52 52.89 255.26 49.33C252 45.78 250.81 41.48 250.81 37.93C250.81 37.74 250.81 36.8 250.81 35.11L267.41 35.11C267.41 35.82 267.41 36.22 267.41 36.3C267.41 38.96 268.3 40.3 269.19 41.19C270.07 41.93 271.41 42.22 272 42.22C274.81 42.22 276.3 40.15 276.3 38.52C276.3 37.04 276 36.74 274.52 35.7C273.04 34.81 270.22 33.78 265.93 32C264 31.26 260.3 29.93 257.19 27.56C254.07 25.19 251.26 21.48 251.26 16.3C251.26 11.11 254.07 6.81 258.07 4.15C262.07 1.48 267.26 0 272.15 0C277.93 0 284.3 1.93 288.3 6.22C291.85 10.22 292.15 14.07 292.3 17.04C292.3 17.12 292.3 17.51 292.3 18.22L277.19 18.22"></path> <path d="M311.26 2.07L312.44 2.07C312.44 20.83 312.44 31.25 312.44 33.33C312.44 34.96 312.59 37.19 313.33 38.81C314.22 40.44 315.41 41.63 318.52 41.63C321.78 41.63 322.81 40.59 323.56 38.96C324.3 37.48 324.3 35.11 324.3 33.19C324.3 31.11 324.3 20.74 324.3 2.07L340.59 2.07C340.59 20.83 340.59 31.25 340.59 33.33C340.59 41.93 338.37 46.07 334.67 49.48C330.96 53.04 325.63 55.26 318.52 55.26C318.52 55.26 318.52 55.26 318.52 55.26C314.37 55.26 306.81 54.37 301.93 49.63C297.19 45.04 296 40.89 296.15 33.48C296.15 31.39 296.15 20.92 296.15 2.07L311.26 2.07"></path> <path d="M359.41 26.22L359.7 54.22L344 54.22L344 3.11L344 2.07L357.93 2.07L377.48 30.96L376.89 2.07L392.59 2.07L392.59 54.22L378.67 54.22L359.41 26.22Z"></path> <path d="M178.07 55.11L170.22 22.37L162.37 55.26L152.44 55.26L139.85 2.07L150.67 2.07L157.78 36L165.78 1.93L174.96 1.93L182.81 36L189.93 2.07L200.44 2.07L187.85 55.11L178.07 55.11Z"></path> <path d="M97.33 55.11L86.96 55.11L86.96 11.7L76.15 11.7L76.15 2.07L108.15 2.07L108.15 11.7L97.33 11.7L97.33 55.11Z"></path> <path d="M61.63 55.11L51.26 55.11L51.26 11.7L40.44 11.7L40.44 2.07L72.44 2.07L72.44 11.7L61.63 11.7L61.63 55.11Z"></path> <path d="M22.19 2.36L23.33 2.54L24.43 2.78L25.51 3.09L26.56 3.46L27.58 3.9L28.57 4.4L29.52 4.97L30.44 5.6L31.32 6.29L32.17 7.04L32.97 7.85L33.74 8.71L34.47 9.64L35.16 10.61L35.8 11.65L36.4 12.74L36.95 13.88L37.46 15.07L37.92 16.32L38.32 17.61L38.68 18.96L38.99 20.35L39.24 21.79L39.44 23.28L39.59 24.81L39.67 26.38L39.7 28L39.7 29.48L39.67 31.1L39.59 32.68L39.45 34.21L39.25 35.69L39 37.13L38.7 38.52L38.34 39.87L37.94 41.16L37.49 42.41L36.99 43.6L36.44 44.74L35.84 45.83L35.21 46.87L34.52 47.85L33.8 48.77L33.03 49.64L32.23 50.44L31.38 51.19L30.5 51.88L29.58 52.51L28.63 53.08L27.64 53.58L26.62 54.02L25.56 54.39L24.48 54.7L23.36 54.95L22.22 55.12L21.05 55.22L19.85 55.26L18.67 55.22L17.51 55.12L16.38 54.95L15.27 54.7L14.19 54.39L13.14 54.02L12.12 53.58L11.14 53.08L10.19 52.51L9.27 51.88L8.38 51.19L7.54 50.44L6.73 49.64L5.96 48.77L5.23 47.85L4.55 46.87L3.9 45.83L3.31 44.74L2.75 43.6L2.25 42.41L1.79 41.16L1.38 39.87L1.02 38.52L0.71 37.13L0.46 35.69L0.26 34.21L0.12 32.68L0.03 31.1L0 29.48L0 28L0.03 26.38L0.12 24.81L0.26 23.28L0.46 21.79L0.71 20.35L1.02 18.96L1.38 17.61L1.79 16.32L2.25 15.07L2.75 13.88L3.31 12.74L3.9 11.65L4.55 10.61L5.23 9.64L5.96 8.71L6.73 7.85L7.54 7.04L8.38 6.29L9.27 5.6L10.19 4.97L11.14 4.4L12.12 3.9L13.14 3.46L14.19 3.09L15.27 2.78L16.38 2.54L17.51 2.36L18.67 2.26L19.85 2.22L21.04 2.26L22.19 2.36ZM17.79 11.48L16.9 11.75L16.05 12.13L15.25 12.63L14.5 13.24L13.8 13.96L13.15 14.8L12.57 15.75L12.04 16.82L11.57 18.01L11.17 19.32L10.83 20.75L10.57 22.31L10.38 23.98L10.26 25.78L10.22 27.7L10.22 29.19L10.26 31.11L10.38 32.91L10.57 34.6L10.83 36.16L11.17 37.6L11.57 38.92L12.04 40.12L12.57 41.21L13.15 42.17L13.8 43.02L14.5 43.76L15.25 44.38L16.05 44.88L16.9 45.28L17.79 45.56L18.73 45.72L19.7 45.78L20.68 45.72L21.61 45.56L22.51 45.29L23.36 44.9L24.16 44.41L24.91 43.8L25.61 43.08L26.25 42.24L26.84 41.29L27.37 40.21L27.84 39.02L28.24 37.71L28.57 36.28L28.84 34.73L29.03 33.06L29.15 31.26L29.19 29.33L29.19 27.85L29.33 27.85L29.29 25.93L29.17 24.12L28.97 22.44L28.7 20.88L28.36 19.44L27.94 18.12L27.46 16.92L26.92 15.83L26.32 14.86L25.66 14.01L24.95 13.28L24.19 12.66L23.38 12.15L22.52 11.76L21.62 11.48L20.68 11.31L19.7 11.26L18.73 11.31L17.79 11.48Z"></path> <path d="M135.56 55.11L132.44 44L117.78 44L114.67 55.11L104.44 55.11L120.3 1.93L130.52 1.93L146.22 55.11L135.56 55.11ZM129.78 34.81L125.04 17.48L120.3 34.81L129.78 34.81Z"></path> <path d="M225.78 55.11L222.67 44L208 44L204.89 55.11L194.67 55.11L210.52 1.93L220.74 1.93L236.44 55.11L225.78 55.11ZM220 34.81L215.26 17.48L210.52 34.81L220 34.81Z"></path></svg>