<svg xmlns="http://www.w3.org/2000/svg" xmlns:xlink= "http://www.w3.org/1999/xlink" aria-labelledby="canoeLogo" class="header-logo-image logo-canoe" role="img" viewBox="206 213 238 61"> <title id="canoeLogo">Canoe.com</title> <path d="m359.37 213.42l-3.96 49.69h-79.47v9.77l-64.23-9.56-4.84-43.46 152.5-6.44z" fill="#c62026"></path> <g fill="#fff"> <path d="m231.16 249.18c-3.52 0-4.77-1.61-4.77-6.17v-5.87c0-4.54 1.29-6.23 4.77-6.23 2.43 0 5.83 1.16 7.64 1.85 0.06 0.03 0.37 0.15 0.92 0.36l1.06-6.21c-0.35-0.15-0.55-0.24-0.59-0.25-3.32-1.44-6.37-2.18-9.03-2.18-8.21 0-12.38 4.25-12.38 12.61v5.93c0 8.41 4.17 12.67 12.38 12.67 2.61 0 5.57-0.73 9.03-2.24 0.04-0.02 0.24-0.1 0.59-0.25l-1.06-6.22-0.92 0.34c-3.47 1.24-6.02 1.86-7.64 1.86z"></path> <path d="m256.42 224.54l0.8 0.09 0.77 0.12 0.73 0.16 0.69 0.19 0.66 0.22 0.62 0.27 0.58 0.29 0.55 0.33 0.51 0.37 0.47 0.4 0.43 0.43 0.4 0.47 0.36 0.5 0.32 0.54 0.28 0.57 0.25 0.6 0.2 0.64 0.17 0.68 0.14 0.7 0.09 0.75 0.06 0.77 0.02 0.81-0.02 12.8 1.7 7.79h-7.25l-0.09-0.42-0.05-0.21-0.03-0.11-0.05-0.25-0.06-0.25-0.06-0.27-0.06-0.26-0.05-0.25-0.06-0.24-0.02-0.11-0.26 0.23-0.27 0.22-0.27 0.21-0.28 0.21-0.29 0.2-0.3 0.19-0.3 0.18-0.31 0.17-0.32 0.17-0.32 0.15-0.33 0.15-0.33 0.13-0.34 0.13-0.35 0.11-0.35 0.11-0.35 0.1-0.36 0.08-0.36 0.08-0.36 0.06-0.37 0.05-0.37 0.04-0.37 0.03-0.38 0.02-0.38 0.01-0.53-0.02-0.55-0.04-0.54-0.07-0.55-0.1-0.54-0.13-0.53-0.17-0.53-0.19-0.52-0.23-0.51-0.27-0.49-0.3-0.48-0.33-0.46-0.38-0.43-0.41-0.41-0.45-0.38-0.5-0.35-0.53-0.32-0.57-0.29-0.62-0.25-0.66-0.21-0.71-0.16-0.75-0.12-0.8-0.08-0.85-0.02-0.9 0.01-0.85 0.06-0.81 0.09-0.78 0.13-0.74 0.16-0.7 0.21-0.66 0.24-0.63 0.27-0.58 0.32-0.55 0.35-0.52 0.4-0.47 0.43-0.44 0.47-0.4 0.51-0.37 0.55-0.33 0.58-0.3 0.63-0.26 0.67-0.22 0.71-0.19 0.75-0.16 0.79-0.12 0.83-0.08 0.87-0.05 0.92-0.02h4.63v-0.45-0.42l-0.02-0.4-0.02-0.37-0.03-0.34-0.04-0.32-0.05-0.29-0.07-0.28-0.09-0.25-0.1-0.22-0.12-0.21-0.15-0.19-0.17-0.17-0.2-0.15-0.22-0.13-0.25-0.12-0.29-0.09-0.32-0.09-0.35-0.06-0.39-0.06-0.42-0.04-0.47-0.03-0.51-0.01-0.55-0.01h-0.26l-0.26 0.01-0.28 0.02-0.28 0.01-0.29 0.03-0.3 0.03-0.29 0.03-0.3 0.03-0.29 0.04-0.3 0.04-0.29 0.04-0.29 0.04-0.28 0.04-0.27 0.04-0.27 0.05-0.26 0.04-0.24 0.04-0.23 0.04-0.22 0.04-0.2 0.04-0.18 0.03-0.17 0.04-0.14 0.02-0.13 0.03-0.83 0.17-0.96-6.07 0.75-0.17 0.24-0.06 0.27-0.05 0.29-0.06 0.31-0.06 0.32-0.05 0.34-0.06 0.35-0.06 0.37-0.05 0.37-0.06 0.39-0.05 0.39-0.06 0.4-0.05 0.4-0.04 0.41-0.05 0.41-0.04 0.41-0.04 0.4-0.04 0.41-0.03 0.4-0.03 0.39-0.03 0.39-0.01 0.37-0.02 0.37-0.01h0.35l0.88 0.02 0.85 0.05zm-4.33 16.74l-1.18 0.5-0.7 0.85-0.34 1.22-0.09 1.6 0.05 1.38 0.22 1.03 0.5 0.71 0.89 0.41 1.37 0.14 1.33-0.21 1.19-0.55 1.03-0.81 0.85-0.98 0.62-1.08v-4.37h-3.99l-1.75 0.16z"></path> <path d="m296.53 249.53v-13.24c0-7.95-3.36-11.81-10.25-11.81-3.34 0-6.17 0.99-8.48 2.85-1.02-1.92-2.87-2.32-4.85-2.32-0.27 0.02-1.66 0.13-4.16 0.33l0.04 0.74v5.52l1.04-0.13c0.84-0.09 1.31-0.15 1.4-0.16 0.74 0 1.01 0 1.01 1.16v22.55h7.6v-21.64c1.16-1.41 3.31-2.41 5.36-2.41 2.68 0 3.68 1.46 3.68 5.38v13.18c0 2.73 0.65 4.83 0.68 4.92 0.02 0.04 0.08 0.23 0.18 0.57h7.68l-0.33-1.06c-0.4-1.31-0.6-2.79-0.6-4.43z"></path> <path d="m314.32 224.62l1.17 0.19 1.09 0.27 1.01 0.35 0.93 0.42 0.86 0.51 0.79 0.57 0.71 0.66 0.63 0.74 0.56 0.81 0.48 0.9 0.41 0.97 0.33 1.05 0.26 1.14 0.18 1.21 0.11 1.29 0.04 1.38v5.93l-0.04 1.36-0.11 1.28-0.19 1.21-0.27 1.14-0.33 1.05-0.42 0.98-0.49 0.9-0.56 0.82-0.64 0.75-0.71 0.66-0.79 0.59-0.86 0.51-0.93 0.43-1.01 0.36-1.09 0.27-1.15 0.2-1.23 0.12-1.3 0.04-1.32-0.04-1.23-0.11-1.16-0.2-1.09-0.27-1.01-0.35-0.93-0.42-0.85-0.51-0.78-0.58-0.71-0.66-0.63-0.74-0.55-0.82-0.48-0.9-0.41-0.98-0.33-1.06-0.25-1.13-0.19-1.22-0.11-1.3-0.03-1.38v-5.93l0.03-1.38 0.11-1.29 0.19-1.21 0.25-1.14 0.33-1.05 0.41-0.97 0.48-0.9 0.55-0.81 0.63-0.74 0.71-0.66 0.78-0.57 0.85-0.51 0.93-0.42 1.01-0.35 1.09-0.27 1.16-0.19 1.23-0.11 1.32-0.04 1.32 0.04 1.24 0.11zm-3.93 6.59l-0.61 0.38-0.55 0.54-0.49 0.68-0.44 0.84-0.39 0.99-0.33 1.14-0.28 1.3v5.86l0.05 1.44 0.13 1.23 0.24 1.02 0.35 0.83 0.46 0.66 0.6 0.48 0.73 0.33 0.87 0.19 1.04 0.06 1.03-0.06 0.88-0.19 0.74-0.34 0.6-0.49 0.47-0.66 0.36-0.83 0.24-1.02 0.14-1.22 0.05-1.43v-5.86l-0.05-1.43-0.13-1.21-0.24-1.01-0.35-0.82-0.48-0.65-0.6-0.48-0.74-0.33-0.88-0.18-1.04-0.06-0.72 0.07-0.66 0.23z"></path> <path d="m341.04 224.54l0.82 0.1 0.8 0.12 0.76 0.17 0.72 0.2 0.7 0.23 0.66 0.26 0.63 0.3 0.59 0.33 0.56 0.36 0.52 0.4 0.48 0.42 0.45 0.45 0.4 0.49 0.37 0.51 0.33 0.53 0.28 0.57 0.24 0.59 0.21 0.62 0.15 0.64 0.12 0.67 0.07 0.7 0.02 0.71-0.03 0.92-0.09 0.86-0.14 0.79-0.19 0.74-0.25 0.69-0.28 0.63-0.34 0.58-0.37 0.53-0.41 0.49-0.44 0.44-0.48 0.4-0.5 0.37-0.53 0.32-0.56 0.29-0.57 0.26-0.6 0.22-0.61 0.2-0.62 0.18-0.63 0.14-0.63 0.13-0.64 0.11-0.64 0.09-0.64 0.07-0.63 0.06-0.32 0.03-0.16 0.01-0.2 0.02-0.21 0.02-0.24 0.02-0.26 0.02-0.28 0.02-0.28 0.03-0.3 0.02-0.3 0.03-0.3 0.02-0.31 0.03-0.3 0.02-0.29 0.03-0.29 0.02-0.27 0.03-0.26 0.02-0.24 0.02-0.22 0.02-0.19 0.01-0.16 0.02 0.01 0.47 0.03 0.44 0.05 0.42 0.05 0.39 0.07 0.38 0.08 0.35 0.1 0.32 0.11 0.31 0.12 0.28 0.14 0.26 0.16 0.25 0.17 0.22 0.19 0.2 0.2 0.18 0.22 0.16 0.24 0.15 0.26 0.12 0.27 0.11 0.3 0.09 0.31 0.07 0.33 0.05 0.36 0.04 0.37 0.03h0.39 0.3 0.31l0.32-0.01 0.33-0.01 0.34-0.01 0.35-0.01 0.36-0.02 0.36-0.02 0.38-0.02 0.39-0.03 0.39-0.03 0.41-0.03 0.41-0.03 0.43-0.04 0.43-0.04 0.44-0.04 0.46-0.04 0.46-0.05 0.47-0.05 0.48-0.05 0.49-0.06 0.5-0.06 0.51-0.06 0.52-0.06 0.9-0.18 0.53 5.96-0.68 0.16-0.44 0.1-0.45 0.1-0.45 0.09-0.46 0.09-0.45 0.09-0.47 0.08-0.46 0.08-0.47 0.08-0.46 0.07-0.47 0.07-0.46 0.07-0.46 0.06-0.46 0.05-0.46 0.05-0.45 0.05-0.44 0.04-0.44 0.04-0.43 0.03-0.43 0.03-0.42 0.03-0.4 0.02-0.4 0.01-0.38 0.01h-0.38l-1-0.02-0.96-0.07-0.92-0.11-0.87-0.15-0.83-0.19-0.78-0.24-0.74-0.28-0.7-0.33-0.66-0.37-0.61-0.42-0.57-0.46-0.53-0.5-0.48-0.55-0.44-0.59-0.4-0.64-0.36-0.68-0.31-0.73-0.27-0.77-0.23-0.81-0.19-0.86-0.15-0.91-0.1-0.95-0.07-1-0.02-1.04v-5.93l0.03-1.03 0.06-0.98 0.11-0.94 0.15-0.89 0.19-0.85 0.23-0.81 0.28-0.77 0.32-0.72 0.37-0.68 0.4-0.63 0.45-0.59 0.49-0.55 0.53-0.51 0.58-0.46 0.61-0.42 0.66-0.37 0.7-0.33 0.75-0.29 0.78-0.24 0.83-0.2 0.87-0.15 0.91-0.11 0.96-0.07 0.99-0.02 0.88 0.02 0.85 0.05zm-4.82 7.23l-0.89 1.17-0.5 1.74-0.16 2.4v1.03l1.04-0.1 1.18-0.1 1.1-0.09 0.82-0.08 0.32-0.02 1.98-0.33 1.26-0.58 0.7-0.77 0.31-0.94 0.06-1.05-0.08-0.96-0.32-0.85-0.69-0.7-1.18-0.46-1.79-0.17-1.83 0.2-1.33 0.66z"></path> </g> <g> <path d="m365.11 255.18c-1.85 0-3.36-1.51-3.36-3.37 0-1.87 1.51-3.37 3.36-3.37 1.87 0 3.38 1.51 3.38 3.37s-1.51 3.37-3.38 3.37z"></path> <path d="m371.11 245.59v-4.93c0-7.87 4.54-9.79 9.74-9.79 2.68 0 5.37 0.93 7.33 1.75-0.06 0.39-0.54 3.45-0.6 3.83-2.02-0.77-4.76-1.53-6.73-1.53-3.5 0-4.65 1.92-4.65 5.8v4.87c0 3.89 1.15 5.75 4.65 5.75 1.97 0 4.71-0.77 6.73-1.53 0.06 0.38 0.54 3.44 0.6 3.83-1.96 0.81-4.64 1.79-7.33 1.79-5.2 0-9.74-1.97-9.74-9.84z"></path> <path d="m402.22 231l1.03 0.18 0.97 0.26 0.92 0.36 0.85 0.46 0.78 0.57 0.7 0.69 0.61 0.82 0.52 0.96 0.42 1.1 0.3 1.26 0.19 1.42 0.07 1.58v4.93l-0.07 1.59-0.19 1.42-0.3 1.25-0.42 1.11-0.52 0.96-0.61 0.83-0.7 0.69-0.78 0.58-0.86 0.47-0.91 0.36-0.98 0.27-1.02 0.18-1.06 0.1-1.1 0.03-1.1-0.03-1.06-0.1-1.02-0.18-0.97-0.27-0.91-0.36-0.85-0.47-0.77-0.58-0.7-0.69-0.61-0.83-0.51-0.96-0.41-1.11-0.3-1.25-0.19-1.42-0.07-1.59v-4.93l0.07-1.58 0.19-1.42 0.3-1.26 0.41-1.1 0.51-0.96 0.61-0.82 0.7-0.69 0.77-0.57 0.85-0.46 0.91-0.36 0.97-0.26 1.02-0.18 1.06-0.1 1.1-0.03 1.1 0.03 1.06 0.1zm-4.41 4.33l-0.77 0.49-0.57 0.66-0.38 0.83-0.25 0.98-0.12 1.12-0.04 1.25v4.87l0.04 1.26 0.12 1.13 0.25 0.99 0.38 0.84 0.57 0.67 0.77 0.5 0.99 0.31 1.26 0.11 1.26-0.11 1-0.31 0.78-0.49 0.57-0.68 0.4-0.84 0.25-0.99 0.13-1.13 0.04-1.26v-4.87l-0.22-1.34-0.32-1.17-0.41-0.99-0.51-0.8-0.6-0.63-0.7-0.45-0.79-0.27-0.88-0.09-1.26 0.1-0.99 0.31z"></path> <path d="m437.97 240.01c0-3.12-0.28-5.04-3.07-5.04-1.75 0-3.06 0.82-4.21 2.19v17.72h-5.09v-14.88c0-3.12-0.28-5.03-3.07-5.03-1.75 0-3 0.82-4.21 2.24v17.67h-5.04v-17.89l-1.2-5.58h4.6c0.26 1.18 0.41 1.83 0.44 1.97 1.59-1.59 3.72-2.52 6.29-2.52 2.63 0 4.65 0.71 5.86 2.74 1.59-1.75 3.99-2.74 6.68-2.74 4.7 0 7.11 2.3 7.11 9.14v14.88h-5.09v-14.87z"></path> </g></svg>