<svg xmlns="http://www.w3.org/2000/svg" xmlns:xlink= "http://www.w3.org/1999/xlink" aria-labelledby="pgpLogo" class="header-logo-image logo-pgp" fill="none" height="32" viewBox="0 0 319 32" width="319" ><title id="pgpLogo">Prince George Post</title><g fill="#0594b9"><path d="m18.5999 8.79993c0 5.79997-4.2 8.09997-8.3 8.09997h-2.4v10.2c0 .9.3 1 1 1.4.6.3 2.3 1.1001 3.1 1.2001v.3999h-11.099998v-.3999c.599998-.1 2.500008-.9001 3.100008-1.2001s1-.5 1-1.4v-22.89995c0-.9-.3-1.10002-1-1.40002-.6-.3-2.40001-1.09998-3.100008-1.19998v-.4h10.099998c4.8.1 7.6 3.19998 7.6 7.59998zm-8.99999-6.79999h-1.70001v14.09996h1.70001c3.89999 0 5.59999-3.4 5.59999-6.99995 0-3.5-1.3-7.10001-5.59999-7.10001z"></path><path d="m37.2999 8.29993c0 4.59997-3.0001 6.09997-5.6001 6.99997v.1c1.6.3 3.8 1.5 4.3 4.6.3 2.1.5001 4.5.8001 6.4.3 1.7.8 1.8001 1.3 1.8001.6 0 1.3999-1.1001 1.3999-3.9001v-.5999h.7v.5999c0 3.9-.7999 6.2-2.8999 6.3-2.3.1-3.3001-2-3.8001-7.2-.3-3.3-.4999-7.6-3.8999-7.6h-2v11.3c0 .9.3 1 1 1.4.6.3 2.2999 1.1001 3.0999 1.2001v.3999h-11.0999v-.3999c.6-.1 2.4999-.9001 3.0999-1.2001s1-.5 1-1.4v-22.89995c0-.9-.3-1.10002-1-1.40002-.6-.3-2.3999-1.09998-3.0999-1.19998v-.4h10c3.1.1 6.7 2.49998 6.7 7.09998zm-9.7-6.29999v13.09996h2c2.2 0 4.2999-1.5999 4.2999-6.39995 0-4.8-2.2-6.6-4.7-6.6h-1.5999z"></path><path d="m44.6 2.90005c-.6-.3-2.4-1.09998-3.1-1.19998v-.40002h11.1v.40002c-.6.1-2.5.89998-3.1 1.19998-.6.4-1 .5-1 1.4v22.90005c0 .9.3 1 1 1.4.6.3 2.4 1.0999 3.1 1.1999v.4001h-11.1v-.4001c.6-.1 2.5-.8999 3.1-1.1999s1-.5 1-1.4v-22.90005c0-.9-.4-1.1-1-1.4z"></path><path d="m71.0999 3.40005c-.7.7-.8 2.50002-.8 5.30002v21.80003h-.8l-10.9-23.00004v14.79994c0 3.5.1 4.8001.5 5.4001s2.5 1.6999 3.7 2.0999v.4001h-9.1v-.4001c.9-.3 3.2-1.4 3.6-2 .3-.6.5-1.8999.5-5.1999v-15.10004c0-1.7-.3-3.00001-.8-3.60001-.6-.8-2.2-1.7-3.6-2.1v-.4h5.7l10.3 22.30005v-14.70004c0-3.1-.3-5.00001-.8-5.60001-.9-.9-2.5-1.49998-3.4-1.69998v-.40002h9.2v.40002c-.9.2-2.3.69998-3.3 1.69998z"></path><path d="m84.4 30.9c-5.5 0-8.4-5.7-8.4-14.8 0-9.80002 3.7-15.500024 8.4-15.500024 2 0 3.3 1.400004 3.8 2.600004l1.2-2.400023h.6l.1 10.500043h-.7c-.9-5.50004-2.2-10.00004-5-10.00004-3.6 0-4.9 5.5-4.9 14.50004 0 8.5 1.1 13.6 5.3 13.6 3 0 4.7-3.1 5.5-7l.8.2c-.9 4.4-2.9 8.3-6.7 8.3z"></path><path d="m108.3 7.80005h-.5c-.3-1.9-2-5.39998-3.1-5.69998-.6-.1-1.3-.20002-2.1-.20002h-2.8v12.80005h1.9c1.4 0 2.1-.8 2.4-1.3.4-.6.8-3.0001.9-4.10005h.6v11.80005h-.6c0-1.2-.6-3.8001-.9-4.3001-.3-.6-1-1.2999-2.4-1.2999h-1.9v10.5c0 3.5.5 3.4 3 3.4 2.8 0 3.4-.1001 4-1.1001.6-.9 2-4.6999 2.5-6.2999h.5l-.4 8.1h-16.9v-.4c.6-.1 2.8-.9 3.3-1.1.7-.3 1-.5 1-1.4v-22.90005c0-.9-.3-1.1-1-1.4-.5-.2-2.6-1-3.3-1.1v-.5h15.8z"></path><path d="m131.9 19.1c-.6-.3-2-.9-2.8-1.1v-.5h9.7v.5c-.7.3-1.4.7-2.1 1s-.9.8-.9 1.7v10.3l-.3.2-1.4-2.6c-.8 1-2.2 2.3-4.7 2.3-5.2 0-8.6-5-8.6-14.6 0-9.30004 3.1-15.700024 8.9-15.700024 2.5 0 3.7 1.600004 4.1 2.600004l1.2-2.300017h.5l.1 10.200037h-.7c-.9-4.60002-1.7-9.80004-5.3-9.80004-4.5 0-5.5 5.60002-5.5 14.80004 0 8.4 1.1 14.1 5.5 14.1 2.4 0 3.2-2.5 3.2-4.1v-5.4c.1-1 0-1.2-.9-1.6z"></path><path d="m155 7.80005h-.5c-.3-1.9-2-5.39998-3.1-5.69998-.6-.1-1.3-.20002-2.1-.20002h-2.8v12.80005h1.9c1.4 0 2.1-.8 2.4-1.3.4-.6.8-3.0001.9-4.10005h.6v11.80005h-.6c0-1.2-.6-3.8001-.9-4.3001-.3-.6-1-1.2999-2.4-1.2999h-1.9v10.5c0 3.5.5 3.4 3 3.4 2.8 0 3.4-.1001 4-1.1001.6-.9 2-4.6999 2.5-6.2999h.5l-.4 8.1h-16.9v-.4c.6-.1 2.8-.9 3.3-1.1.7-.3 1-.5 1-1.4v-22.90005c0-.9-.3-1.1-1-1.4-.5-.2-2.6-1-3.3-1.1v-.5h15.8z"></path><path d="m172.8 27.6c-1.3 2-3.1 3.3-5.7 3.3-2.3 0-4.2-1.2-5.5-3.2-1.7-2.6-2.7-7-2.7-11.7s.9-9.00001 2.5-11.70001c1.4-2.3 3.3-3.79999 5.8-3.79999 2.4 0 4.2 1.19999 5.8 3.79999 1.5 2.5 2.5 7.00001 2.5 11.20001 0 4.5-.8 9.2-2.7 12.1zm-5.5-26.30001c-3.6 0-4.8 4.9-4.8 14.60001 0 9.5 1 14.4 4.8 14.4 3.7 0 4.8-5.1 4.8-14.5-.1-9.60001-1.1-14.50001-4.8-14.50001z"></path><path d="m193.8 8.29993c0 4.59997-3 6.09997-5.6 6.99997v.1c1.6.3 3.8 1.5 4.3 4.6.3 2.1.5 4.5.8 6.4.3 1.7.8 1.8001 1.3 1.8001.6 0 1.4-1.1001 1.4-3.9001v-.5999h.7v.5999c0 3.9-.8 6.2-2.9 6.3-2.3.1-3.3-2-3.8-7.2-.3-3.3-.5-7.6-3.9-7.6h-2v11.3c0 .9.3 1 1 1.4.6.3 2.3 1.1001 3.1 1.2001v.3999h-11.1v-.3999c.6-.1 2.5-.9001 3.1-1.2001s1-.5 1-1.4v-22.89995c0-.9-.3-1.10002-1-1.40002-.6-.3-2.4-1.09998-3.1-1.19998v-.4h10c3.1.1 6.7 2.49998 6.7 7.09998zm-9.7-6.29999v13.09996h2c2.2 0 4.3-1.5999 4.3-6.39995 0-4.8-2.2-6.6-4.7-6.6h-1.6z"></path><path d="m210 19.1c-.6-.3-2-.9-2.8-1.1v-.5h9.7v.5c-.7.3-1.4.7-2.1 1s-.9.8-.9 1.7v10.3l-.3.2-1.4-2.6c-.8 1-2.2 2.3-4.7 2.3-5.2 0-8.6-5-8.6-14.6 0-9.30004 3.1-15.700024 8.9-15.700024 2.5 0 3.7 1.600004 4.1 2.600004l1.2-2.300017h.5l.1 10.200037h-.7c-.9-4.60002-1.7-9.80004-5.3-9.80004-4.5 0-5.5 5.60002-5.5 14.80004 0 8.4 1.1 14.1 5.5 14.1 2.4 0 3.2-2.5 3.2-4.1v-5.4c0-1-.1-1.2-.9-1.6z"></path><path d="m233.1 7.80005h-.5c-.3-1.9-2-5.39998-3.1-5.69998-.6-.1-1.3-.20002-2.1-.20002h-2.8v12.80005h1.9c1.4 0 2.1-.8 2.4-1.3.4-.6.8-3.0001.9-4.10005h.6v11.80005h-.6c0-1.2-.6-3.8001-.9-4.3001-.3-.6-1-1.2999-2.4-1.2999h-1.9v10.5c0 3.5.5 3.4 3 3.4 2.8 0 3.3-.1001 4-1.1001.6-.9 2-4.6999 2.5-6.2999h.5l-.4 8.1h-16.9v-.4c.6-.1 2.8-.9 3.4-1.1.7-.3 1-.5 1-1.4v-22.90005c0-.9-.3-1.1-1-1.4-.5-.2-2.6-1-3.4-1.1v-.5h15.8z"></path><path d="m262 8.79993c0 5.79997-4.2 8.09997-8.3 8.09997h-2.4v10.2c0 .9.3 1 1 1.4.6.3 2.3 1.1001 3.1 1.2001v.3999h-11.1v-.3999c.6-.1 2.5-.9001 3.1-1.2001s1-.5 1-1.4v-22.89995c0-.9-.3-1.10002-1-1.40002-.6-.3-2.4-1.09998-3.1-1.19998v-.4h10.1c4.8.1 7.6 3.19998 7.6 7.59998zm-8.9-6.79999h-1.7v14.09996h1.7c3.9 0 5.6-3.4 5.6-6.99995-.1-3.5-1.4-7.10001-5.6-7.10001z"></path><path d="m279 27.6c-1.3 2-3.1 3.3-5.7 3.3-2.3 0-4.2-1.2-5.5-3.2-1.7-2.6-2.7-7-2.7-11.7s.9-9.00001 2.5-11.70001c1.4-2.3 3.3-3.79999 5.8-3.79999 2.4 0 4.2 1.19999 5.8 3.79999 1.5 2.5 2.5 7.00001 2.5 11.20001 0 4.5-.8 9.2-2.7 12.1zm-5.5-26.30001c-3.6 0-4.8 4.9-4.8 14.60001 0 9.5 1 14.4 4.8 14.4 3.7 0 4.8-5.1 4.8-14.5-.1-9.60001-1.1-14.50001-4.8-14.50001z"></path><path d="m291.7 30.8c-2.3 0-3.9-1.2999-4.6-2.2999l-1.2 1.7h-.6l-.3-9.5h.5c1.3 6.4 3.3 9.4 6.1 9.4 2.3 0 3.7-2.0001 3.7-5.3001 0-2.2-1.4-4.4999-2.8-5.8999-1.2-1.3-2.5-2.5-3.6-3.5-1.9-1.8-4-4.5-4-8.30003 0-4.5 3.1-6.300021 6-6.300021 1.4 0 2.9.700001 4 2.100001l1.2-1.5h.4v8.70005h-.5c-1.2-5.10003-2.4-8.50003-5.1-8.50003-2 0-3.4 1.69998-3.4 4.69998 0 2.3 1.1 4.30005 2.5 5.60005 1.1 1.1 2.5 2.3999 3.5 3.3999 2.1 2.1 4.6 4.5001 4.6 8.6001.2 4.9-3.1 6.8999-6.4 6.8999z"></path><path d="m318.1 8.79993h-.5c-1.6-6.4-1.7-6.49998-3.8-6.69998-.5 0-1.1-.10001-2-.10001h-.7v25.09996c0 .9.3 1 1 1.4.6.3 2.4 1.1001 3.1 1.2001v.3999h-11.1v-.3999c.6-.1 2.4-.8001 3.1-1.2001.6-.3 1-.5 1-1.4v-25.09996h-.6c-.9 0-1.5.00001-2 .10001-2.1.2-2.2.29998-3.8 6.69998h-.5v-7.59998h16.8z"></path></g></svg>