<svg xmlns:xlink="http://www.w3.org/1999/xlink" xmlns="http://www.w3.org/2000/svg" aria-labelledby="bkrLogo" class="header-logo-image logo-bkr" role="img" viewBox="0 0 683.38 79.58" width="683.38"  height="79.58" > <text id="bkrLogo">Brockville Recorder &amp; Times</text><style>.st0{fill:#277f9c}</style><path d="M54.02 79.16c-.71 0-1.78-.1-2.75-.1-9.6-.5-13.15-3.09-16.88-9.48-2.58-4.39-5.33-10.08-7.91-15.18-1.42-3-3.02-4.19-6.49-4.19h-2.04v15.08c0 8.19.8 9.08 7.64 9.78v3.19H0v-3.19c6.84-.7 7.82-1.5 7.82-9.78V26.24c0-8.19-.8-8.99-7.46-9.58v-3.29h23.9c7.29 0 11.73 1 15.28 3.59 3.55 2.7 5.95 7.09 5.95 13.28 0 8.69-5.06 13.58-11.2 16.47 1.42 3.09 4.8 9.78 7.46 14.28 3.2 5.49 5.06 8.49 7.02 10.68 2.04 2.6 3.73 3.79 5.78 4.49l-.53 3zM20.88 46.51c4.09 0 7.02-.8 9.06-2.7 3.11-2.9 4.44-6.89 4.44-12.08 0-10.68-5.69-14.68-11.37-14.68-2.31 0-3.64.5-4.27 1-.62.6-.8 1.7-.8 3.99V46.5h2.94z"></path><path d="M93.9 63.87c-.47 3.53-2.04 11.74-2.75 14.38H51.88v-2.82c6.83-.62 7.54-1.24 7.54-8.65V32.46c0-7.77-.71-8.12-6.44-8.65V20.9h36.21c.08 1.76.47 7.94.79 13.06l-2.68.44c-.71-3.35-1.65-5.91-2.91-7.59-1.26-1.68-3.38-2.29-8.25-2.29h-4.56c-2.75 0-2.98.18-2.98 3v19.15h6.05c6.75 0 7.54-.53 8.56-6.62h2.67v17.47h-2.67c-1.02-6.35-1.81-6.71-8.56-6.71H68.6v15.71c0 4.24.39 6.27 1.89 7.24 1.41.88 4.16.97 7.38.97 4.79 0 7.38-.62 9.19-2.91 1.49-1.85 2.91-4.77 4.24-8.47l2.6.52zM142.51 63.34c-1.1 4.24-3.06 10.94-4.4 13.94-2.12.53-9.11 2.29-14.61 2.29-20.34 0-29.06-15.27-29.06-29.21 0-18.35 12.49-30.8 30.87-30.8 6.36 0 12.02 1.85 14.14 2.38.63 4.85 1.18 8.82 1.73 14.03l-2.75.62c-2.36-10.06-7.93-13.41-14.84-13.41-12.02 0-18.53 12.18-18.53 25.41 0 16.24 8.01 27.18 19.16 27.18 7.15 0 11.7-4.76 15.71-13.59l2.58 1.16zM197.08 48.96c0 18.97-12.09 30.62-26.78 30.62-15.16 0-26.15-12.79-26.15-29.74 0-15.35 9.74-30.27 27.1-30.27 13.98.01 25.83 11.83 25.83 29.39zm-42.33-1.06c0 15.62 6.68 28.15 17.12 28.15 7.93 0 14.61-8.21 14.61-24.71 0-17.91-7.15-28.24-16.73-28.24-8.16.01-15 9.1-15 24.8zM246.24 79.05c-.63 0-1.57-.09-2.43-.09-8.48-.44-11.62-2.74-14.92-8.38-2.28-3.88-4.71-8.91-6.99-13.41-1.26-2.65-2.67-3.71-5.73-3.71h-1.81v13.32c0 7.24.71 8.03 6.75 8.65v2.82h-22.62v-2.82c6.05-.62 6.91-1.32 6.91-8.65v-34.5c0-7.24-.71-7.94-6.6-8.47V20.9h21.13c6.44 0 10.37.88 13.51 3.18 3.14 2.38 5.26 6.27 5.26 11.74 0 7.68-4.48 12-9.9 14.56 1.26 2.74 4.24 8.65 6.6 12.62 2.83 4.85 4.48 7.5 6.2 9.44 1.81 2.29 3.3 3.35 5.1 3.97l-.46 2.64zM216.95 50.2c3.61 0 6.2-.71 8.01-2.38 2.75-2.56 3.93-6.09 3.93-10.68 0-9.44-5.03-12.97-10.05-12.97-2.04 0-3.22.44-3.77.88-.55.53-.71 1.5-.71 3.53V50.2h2.59z"></path><path d="M268.78 20.9c9.9 0 17.44 2.29 22.38 7.59 3.93 4.15 6.83 10.5 6.83 18.88 0 10.68-3.77 18.44-9.74 23.56-5.81 5.03-13.9 7.32-23.64 7.32h-19.63v-2.82c6.44-.62 7.15-1.15 7.15-8.65V32.46c0-7.59-.71-8.12-6.44-8.65V20.9h23.09zm-7.46 45.27c0 6.44 1.73 8.47 7.23 8.47 12.02 0 19.16-10.59 19.16-25.68 0-8.74-2.59-15.79-7.15-19.85-3.38-3.27-7.62-4.85-12.96-4.85-3.06 0-4.79.62-5.42 1.24-.63.71-.86 2.03-.86 4.94v35.73zM340.87 63.87c-.47 3.53-2.04 11.74-2.75 14.38h-39.27v-2.82c6.83-.62 7.54-1.24 7.54-8.65V32.46c0-7.77-.71-8.12-6.44-8.65V20.9h36.21c.08 1.76.47 7.94.79 13.06l-2.67.44c-.71-3.35-1.65-5.91-2.91-7.59-1.26-1.68-3.38-2.29-8.25-2.29h-4.55c-2.75 0-2.98.18-2.98 3v19.15h6.05c6.75 0 7.54-.53 8.56-6.62h2.67v17.47h-2.67c-1.02-6.35-1.81-6.71-8.56-6.71h-6.05v15.71c0 4.24.39 6.27 1.88 7.24 1.41.88 4.16.97 7.38.97 4.79 0 7.38-.62 9.19-2.91 1.49-1.85 2.91-4.77 4.24-8.47l2.59.52zM388.69 79.05c-.63 0-1.57-.09-2.43-.09-8.48-.44-11.62-2.74-14.92-8.38-2.28-3.88-4.71-8.91-6.99-13.41-1.26-2.65-2.67-3.71-5.73-3.71h-1.81v13.32c0 7.24.71 8.03 6.75 8.65v2.82h-22.62v-2.82c6.05-.62 6.91-1.32 6.91-8.65v-34.5c0-7.24-.71-7.94-6.6-8.47V20.9h21.13c6.44 0 10.37.88 13.51 3.18 3.14 2.38 5.26 6.27 5.26 11.74 0 7.68-4.48 12-9.9 14.56 1.26 2.74 4.24 8.65 6.6 12.62 2.83 4.85 4.48 7.5 6.2 9.44 1.81 2.29 3.3 3.35 5.11 3.97l-.47 2.64zM359.4 50.2c3.61 0 6.2-.71 8.01-2.38 2.75-2.56 3.93-6.09 3.93-10.68 0-9.44-5.03-12.97-10.05-12.97-2.04 0-3.22.44-3.77.88-.55.53-.71 1.5-.71 3.53V50.2h2.59zM455.37 43.49c-5.03.53-6.44 1.94-9.19 6.09-2.2 3.27-4.16 6.71-6.75 10.85 4.48 4.85 10.13 12.35 13.35 18.18l-.47.97c-6.52-.09-11.15-2.12-12.09-3.26-1.02-1.24-3.69-4.59-6.44-7.77-5.18 7.68-10.29 10.94-15.63 10.94-10.37 0-16.1-8.65-16.1-16.32 0-7.59 4.4-10.94 11.31-16.33-3.38-3.62-5.42-7.41-5.42-12.44 0-7.94 6.36-14.47 13.74-14.47s12.72 5.29 12.72 12.53c0 3.27-1.41 5.65-3.3 7.41-1.57 1.59-3.69 3.27-6.36 5.29 2.43 2.29 7.3 7.06 12.57 12.88 1.57-2.74 2.91-5.29 4.16-8.56 1.65-4.06.94-5.21-4.48-6l.08-2.82h18.3v2.83zm-23.57 22.5c-5.18-6.09-9.58-10.5-16.41-17.03-3.22 3.18-4.71 6.97-4.71 10.77 0 8.38 5.42 12.44 10.6 12.44 4.16 0 8.25-3 10.52-6.18zm-16.57-34.68c0 4.41 2.2 7.5 7.3 11.91 2.67-2.29 4.63-5.82 4.63-11.03 0-4.68-2.28-9-6.2-9-3.29.01-5.73 3.62-5.73 8.12z"></path><g><path d="M514.53 29.84c-1.07-4.99-2.13-8.09-3.46-9.78-1.6-2-3.55-2.6-9.33-2.6h-4.8v47.82c0 8.29.8 9.08 8.89 9.78v3.19H478.1v-3.19c7.64-.7 8.53-1.5 8.53-9.78V17.46h-4c-7.29 0-8.97.9-10.22 2.8-1.33 1.7-2.31 4.89-3.38 9.68h-3.02c.36-6.79.89-13.88 1.07-19.07h2.04c1.33 2.3 2.49 2.5 4.98 2.5h35.54c2.31 0 3.38-.6 4.89-2.5h2.04c0 4.29.44 12.58.89 18.77l-2.93.2z"></path></g><g><path d="M518.23 78.26v-2.82c6.05-.62 6.75-1.15 6.75-8.65V32.46c0-7.5-.71-8.12-6.75-8.65V20.9h22.54v2.91c-6.05.53-6.68 1.15-6.68 8.65v34.33c0 7.41.63 8.03 6.68 8.65v2.82h-22.54zM585.14 78.26v-2.82c6.13-.71 6.44-1.32 6.44-9.88l-.24-34.68h-.31l-17.99 46.77H571l-16.57-45.8h-.24l-1.02 23.83c-.31 7.32-.31 11.29-.08 14.38.24 4.06 1.88 4.76 7.15 5.29v2.91h-18.69v-2.91c4.48-.44 5.97-1.85 6.44-5.12.47-2.91 1.02-7.24 1.65-16.5l1.18-17.74c.71-10.59.16-11.47-6.75-12.18V20.9h15.08l16.1 40.59 16.41-40.59h14.92v2.91c-6.52.71-6.91 1.15-6.75 9.18l.79 32.56c.16 8.56.47 9.18 6.91 9.88v2.82h-22.39zM650 63.87c-.47 3.53-2.04 11.74-2.75 14.38h-39.27v-2.82c6.83-.62 7.54-1.24 7.54-8.65V32.46c0-7.77-.71-8.12-6.44-8.65V20.9h36.21c.08 1.76.47 7.94.79 13.06l-2.67.44c-.71-3.35-1.65-5.91-2.91-7.59-1.26-1.68-3.38-2.29-8.25-2.29h-4.56c-2.75 0-2.98.18-2.98 3v19.15h6.05c6.75 0 7.54-.53 8.56-6.62h2.67v17.47h-2.67c-1.02-6.35-1.81-6.71-8.56-6.71h-6.05v15.71c0 4.24.39 6.27 1.88 7.24 1.41.88 4.16.97 7.38.97 4.79 0 7.38-.62 9.19-2.91 1.49-1.85 2.91-4.77 4.24-8.47l2.6.52zM678.51 34.93c-1.57-5.56-4.24-11.91-10.76-11.91-4.95 0-8.01 4.06-8.01 9 0 5.47 3.22 8.38 9.9 12.09 7.46 4.24 13.74 8.82 13.74 18 0 9.79-7.38 17.47-18.53 17.47-2.99 0-5.66-.53-7.78-1.32-2.12-.71-3.53-1.32-4.48-1.85-.71-2.12-1.73-9.53-2.28-14.47l2.67-.88c1.41 5.56 5.65 15.09 13.35 15.09 5.26 0 8.48-3.88 8.48-9.79 0-5.65-3.77-8.91-9.66-12.35-6.99-4.06-13.43-8.74-13.43-17.74 0-9.18 6.52-16.68 17.28-16.68 4.55 0 8.56 1.5 10.6 2.21.31 3.27.79 6.97 1.41 12.53l-2.5.6z"></path></g><g><path class="st0" d="M62.4 3.76c-.22-1-.47-1.63-.79-1.98-.31-.35-.78-.46-1.82-.46h-.83v9.08c0 1.63.18 1.75 1.77 1.88v.67h-5.88v-.67c1.52-.13 1.7-.25 1.7-1.88V1.32h-.61c-1.48 0-1.81.21-2.08.52-.29.33-.52.98-.76 1.94h-.65c.07-1.4.18-2.8.22-3.78h.43c.29.44.52.48 1.03.48h7.26c.49 0 .74-.12 1.05-.48h.43c.02.81.11 2.5.2 3.72l-.67.04zM76.96 1.15c-1.41.13-1.52.25-1.52 1.88v7.39c0 1.61.14 1.73 1.52 1.86v.67h-5.51v-.67c1.44-.13 1.57-.27 1.57-1.88V6.83H68.1v3.57c0 1.63.14 1.75 1.48 1.88v.67H64.2v-.67c1.32-.13 1.48-.25 1.48-1.88V3.03c0-1.63-.16-1.75-1.55-1.88V.48h5.42v.67c-1.3.13-1.44.25-1.44 1.88v2.82h4.93V3.03c0-1.63-.14-1.75-1.48-1.88V.48h5.42v.67zM87.93 9.77c-.11.86-.49 2.61-.63 3.19h-9.2v-.67c1.53-.13 1.71-.25 1.71-1.88V3.03c0-1.67-.18-1.77-1.46-1.88V.48h8.5c.02.35.11 1.69.18 2.88l-.65.1c-.18-.67-.42-1.31-.74-1.65-.31-.35-.79-.48-1.81-.48h-.87c-.67 0-.74.04-.74.67v4.07h1.21c1.52 0 1.75-.1 2-1.44h.65V8.5h-.65c-.25-1.38-.47-1.46-2-1.46h-1.21v3.32c0 .9.07 1.38.43 1.57.33.15.94.19 1.62.19.92 0 1.57-.13 2-.61.34-.42.67-1.04 1.01-1.88l.65.14z" fill="#277F9C"></path></g></svg>