<svg xmlns:xlink="http://www.w3.org/1999/xlink" aria-labelledby="bvcLogo" class="header-logo-image logo-bvc header-logo-image--size-md" viewBox="0 0 470.42 136.88" x="0" xml:space="preserve" xmlns="http://www.w3.org/2000/svg" y="0" width="470.42"  height="136.88" ><text id="bvcLogo">Bow Valley Crag &amp; Canyon</text><style>.st0{fill:#004b8c}</style><path d="M5.72 2.31H1.01V0h11.5v2.31H7.8V22.2H5.72V2.31zM14.73 0h2v8.55c.86-1.17 2.42-2.52 4.12-2.52 2.1 0 3.21 1.53 3.21 4.41V22.2h-1.98V10.95c0-1.89-.52-2.79-1.85-2.79-1.26 0-2.62 1.17-3.51 2.28V22.2h-2V0zM26.48 14.28c0-5.7 2.42-8.25 5.04-8.25 2.89 0 4.64 2.82 4.64 8.16v.6h-7.7c.07 3.72 1.26 5.7 3.14 5.7 1.53 0 2.35-1.05 3.09-2.76l1.38 1.05c-.91 2.28-2.49 3.75-4.57 3.75-2.84 0-5.02-2.73-5.02-8.25zm7.78-1.32c-.12-2.88-.99-4.86-2.77-4.86-1.46 0-2.79 1.47-3.01 4.86h5.78zM43.86 0h5.33c3.48 0 5.48 1.77 5.48 5.58 0 3.12-1.43 4.56-2.89 5.07v.06c1.85.48 3.38 1.98 3.38 5.46 0 3.9-2.12 6.03-5.55 6.03h-5.75V0zm5.21 9.75c2.32 0 3.63-1.08 3.63-3.75s-1.06-3.75-3.58-3.75h-3.21v7.5h3.16zm.5 10.26c2.52 0 3.6-1.41 3.6-4.08 0-3.03-1.51-4.08-4-4.08h-3.26v8.16h3.66zM57.24 14.28c0-5.46 2.25-8.25 5.16-8.25 2.89 0 5.14 2.79 5.14 8.25 0 5.43-2.25 8.25-5.14 8.25-2.89 0-5.16-2.82-5.16-8.25zm8.3 0c0-3.42-.96-6.15-3.14-6.15-2.1 0-3.16 2.46-3.16 6.15 0 3.45.91 6.21 3.16 6.21 2.08 0 3.14-2.46 3.14-6.21zM68.64 6.36h1.93l1.6 7.95c.32 1.56.49 2.55.81 4.41h.05c.27-1.83.47-2.88.79-4.5l1.43-7.86H77l1.46 7.8c.32 1.62.57 2.88.81 4.59h.05c.27-1.74.52-2.97.84-4.59l1.53-7.8h1.75l-3.31 15.9h-1.75l-2.3-12.09h-.05L73.7 22.26h-1.73l-3.33-15.9zM88.65 0h2.07l2.74 12c.59 2.52 1.04 4.59 1.48 6.75h.05c.44-2.19.91-4.2 1.48-6.69L99.22 0h1.95l-5.28 22.29h-1.95L88.65 0z"></path><g><path d="M100.98 18.45c0-3.15 2.2-5.46 7.28-6.69v-.96c0-1.8-.64-2.64-1.95-2.64-1.58 0-2.86.96-3.85 2.13l-1.11-1.47c1.36-1.65 3.09-2.79 5.16-2.79 2.54 0 3.7 1.71 3.7 4.77v7.5c0 1.92.07 3.09.32 3.9h-2c-.15-.63-.27-1.14-.27-2.04-1.06 1.41-2.49 2.25-4.17 2.25-1.95 0-3.11-1.47-3.11-3.96zm7.29-.09V13.5c-4.02 1.05-5.33 2.73-5.33 4.62 0 1.59.69 2.31 1.83 2.31 1.35 0 2.58-.87 3.5-2.07zM113.42 0h2v22.2h-2V0zM118.85 0h2v22.2h-2V0zM123.54 14.28c0-5.7 2.42-8.25 5.04-8.25 2.89 0 4.64 2.82 4.64 8.16v.6h-7.7c.07 3.72 1.26 5.7 3.14 5.7 1.53 0 2.35-1.05 3.09-2.76l1.38 1.05c-.91 2.28-2.49 3.75-4.57 3.75-2.84 0-5.02-2.73-5.02-8.25zm7.78-1.32c-.12-2.88-.99-4.86-2.77-4.86-1.46 0-2.79 1.47-3.01 4.86h5.78z"></path></g><g><path d="M133.97 27.87l.4-1.92c.32.09.94.24 1.58.24 1.14 0 1.58-.78 2.02-2.46l.37-1.38-4.07-15.99h2.05l1.98 8.28c.42 1.74.72 3.09 1.06 4.77h.05c.37-1.74.69-3.15 1.11-4.95l1.93-8.1h1.9l-4.49 17.58c-.77 2.91-1.6 4.29-3.85 4.29-.88 0-1.67-.21-2.04-.36z"></path></g><g><path class="st0" d="M0 74.18c0-30.36 6.73-41.47 21.43-41.47 14.59 0 20.2 6.49 20.2 33.44l-16.72.66c0-15.51-.79-18.15-3.48-18.15-3.48 0-3.37 6.16-3.37 25.52 0 20.02.11 26.07 3.48 26.07 2.92 0 3.59-1.87 3.81-17.49l16.72.66c-.79 17.27-2.92 32.23-20.64 32.23C6.73 115.65 0 104.54 0 74.18zM43.87 56.03h16.49v9.24h.11c1.91-5.5 5.5-10.01 9.99-10.01 1.01 0 1.91.22 1.91.22v15.73H70.8c-4.82 0-8.08.55-10.43 1.87v41.8h-16.5V56.03zM72.25 99.48c0-12.54 7.18-19.8 20.98-23.21v-3.63c0-3.74-.34-4.4-1.91-4.4-1.46 0-2.02.88-2.69 5.06l-14.59-1.76c2.69-13.31 9.76-16.28 19.19-16.28 11 0 15.71 4.95 15.71 16.72v28.6c0 7.04.22 11.33.9 14.3H94.02c-.56-1.54-.79-3.08-.79-6.93-2.02 4.29-4.82 7.37-9.99 7.37-5.94 0-10.99-3.96-10.99-15.84zm20.99.66V87.16c-4.04 2.09-5.16 5.61-5.16 10.01 0 2.31.79 3.85 2.47 3.85.89 0 2.01-.44 2.69-.88zM109.62 125.33c0-4.95 3.81-9.57 8.19-11.55-4.82-1.76-6.17-5.5-6.17-9.13 0-2.97 2.02-7.37 6.17-10.45-4.26-3.63-6.51-9.46-6.51-17.27 0-15.29 8.53-21.67 18.4-21.67 4.82 0 9.09 1.43 12.34 4.51 2.36-2.97 6.17-5.39 8.53-5.94v16.72h-3.03c.34 1.98.56 3.96.56 6.38 0 15.73-8.53 21.34-18.4 21.34-1.57 0-3.03-.11-4.38-.44-.34.44-.45.88-.45 1.32 0 1.32.45 1.98 2.8 2.31l5.61.77c12.9 1.76 16.72 6.05 16.72 16.61 0 10.34-8.75 18.04-22.22 18.04-13.23 0-18.16-5.39-18.16-11.55zm25.13-4.4c0-3.19-1.01-5.28-5.39-5.72l-2.36-.22c-1.68 2.42-2.24 4.95-2.24 6.93 0 3.74 1.91 5.61 4.71 5.61 3.48 0 5.28-2.2 5.28-6.6zm-2.47-44c0-8.25-.45-9.46-2.58-9.46s-2.58 1.65-2.58 9.46.56 9.68 2.58 9.68 2.58-1.87 2.58-9.68zM164.26 95.63c0-10.67 5.61-18.48 11.67-23.76-3.03-6.82-4.82-11.99-4.82-19.03 0-16.06 11.67-20.24 19.07-20.24 12.68 0 16.94 7.48 16.94 17.27 0 11.44-7.52 18.81-14.36 24.2.56 1.1 1.01 1.98 1.68 3.08 1.8 3.08 3.81 6.05 5.83 8.58.79-4.07 1.23-8.8 1.57-14.19h13.8c-.67 9.13-2.02 17.71-4.49 24.86 1.91 1.43 3.7 2.53 5.27 3.08v15.73c-4.71-.44-9.31-2.42-13.69-5.39-4.15 3.74-9.54 5.83-16.72 5.83-13.79 0-21.75-7.59-21.75-20.02zm28.61 5.39c-3.14-3.52-6.06-7.59-8.64-11.77-.56-.88-1.57-2.42-1.91-3.52-1.01 2.31-1.68 5.83-1.68 8.8 0 3.41 1.68 7.92 7.29 7.92 1.91 0 3.48-.55 4.94-1.43zm.11-49.94c0-3.3-1.23-4.73-3.03-4.73-2.36 0-3.7 2.31-3.7 5.83 0 3.85.79 7.7 1.91 11.11 2.91-3.52 4.82-8.47 4.82-12.21zM231.8 74.18c0-30.36 6.73-41.47 21.43-41.47 14.59 0 20.2 6.49 20.2 33.44l-16.72.66c0-15.51-.79-18.15-3.48-18.15-3.48 0-3.37 6.16-3.37 25.52 0 20.02.11 26.07 3.48 26.07 2.92 0 3.59-1.87 3.81-17.49l16.72.66c-.79 17.27-2.92 32.23-20.64 32.23-14.7 0-21.43-11.11-21.43-41.47zM274.1 99.48c0-12.54 7.18-19.8 20.98-23.21v-3.63c0-3.74-.34-4.4-1.91-4.4-1.46 0-2.02.88-2.69 5.06l-14.59-1.76c2.69-13.31 9.76-16.28 19.19-16.28 11 0 15.71 4.95 15.71 16.72v28.6c0 7.04.22 11.33.9 14.3h-15.82c-.56-1.54-.79-3.08-.79-6.93-2.02 4.29-4.83 7.37-9.99 7.37-5.95 0-10.99-3.96-10.99-15.84zm20.98.66V87.16c-4.04 2.09-5.16 5.61-5.16 10.01 0 2.31.79 3.85 2.47 3.85.89 0 2.01-.44 2.69-.88zM314.6 56.03h16.49v6.16c2.47-3.3 8.08-6.93 12.45-6.93 5.5 0 8.75 1.76 8.75 11.55v48.07H335.8V72.97c0-1.87-.45-2.64-1.46-2.64-1.12 0-2.58.77-3.25 1.1v43.45H314.6V56.03z" fill="#004B8C"></path><path class="st0" d="M351.18 135.89l2.36-13.53c1.46.22 2.69.33 3.7.33 4.26 0 5.95-.66 6.51-3.63l.34-1.65-11.79-61.38h17.84l1.8 24.97c.34 3.85.45 8.03.79 13.53h.22c.34-5.5.67-9.79 1.01-13.42l2.58-25.08h16.16l-12.57 62.81c-2.24 11.11-6.84 18.04-18.85 18.04-4.04 0-7.86-.33-10.1-.99z" fill="#004B8C"></path></g><g><path class="st0" d="M391.76 85.51c0-20.02 6.73-30.25 19.41-30.25 12.57 0 19.41 10.23 19.41 30.25 0 19.8-6.84 30.14-19.41 30.14-12.56 0-19.41-10.34-19.41-30.14zm22.22-.11c0-14.08-.56-16.39-2.8-16.39-2.02 0-2.92 1.21-2.92 16.39 0 14.19.79 17.16 2.92 17.16s2.8-1.76 2.8-17.16zM432.72 56.03h16.49v6.16c2.47-3.3 8.08-6.93 12.45-6.93 5.5 0 8.75 1.76 8.75 11.55v48.07h-16.49V72.97c0-1.87-.45-2.64-1.46-2.64-1.12 0-2.58.77-3.25 1.1v43.45h-16.49V56.03z" fill="#004B8C"></path></g></svg>