<svg xmlns:xlink="http://www.w3.org/1999/xlink" aria-labelledby="cdnLogo" class="header-logo-image logo-cdn" version="1.1" viewBox="0 0 734.88 75.42" x="0" xml:space="preserve" xmlns="http://www.w3.org/2000/svg" y="0" width="734.88"  height="75.42" ><text id="cdnLogo">Chatham Daily News</text><style>.st0{fill:#427c98}</style><path d="M49.47 58.13c-1.13 4.51-3.15 11.66-4.53 14.85-2.18.56-9.38 2.44-15.04 2.44C8.97 75.42 0 59.16 0 44.31c0-19.55 12.85-32.8 31.77-32.8 6.55 0 12.37 1.97 14.55 2.54.65 5.17 1.21 9.4 1.78 14.95l-2.83.66c-2.43-10.72-8.17-14.29-15.28-14.29-12.37 0-19.08 12.97-19.08 27.07 0 17.29 8.25 28.95 19.73 28.95 7.36 0 12.05-5.08 16.17-14.48l2.66 1.22z"></path><path d="M98.9 22.81c-5.64.58-6.14 1-6.14 8.05v32.45c0 6.97.57 7.47 6.14 8.05v2.66H78.06v-2.66c5.78-.58 6.35-1.08 6.35-8.05V47.46h-21.2v15.85c0 6.97.57 7.47 6.07 8.05v2.66H48.86v-2.66c5.43-.58 6.07-1.08 6.07-8.05V30.86c0-7.05-.64-7.55-6.28-8.05v-2.74h20.41v2.74c-5.28.5-5.85 1-5.85 8.05v12.61h21.2V30.86c0-7.05-.5-7.47-5.92-8.05v-2.74H98.9v2.74z"></path><path d="M124.03 74.01v-2.66c4.28-.75 4.71-1.66 3.71-5.15-.79-2.74-2-6.64-3.28-10.62h-14.2c-.93 3.07-1.93 6.22-2.78 9.54-1.21 4.48-.86 5.48 4.35 6.22V74H96.04v-2.66c4.64-.75 5.57-1.49 7.99-8.63l14.63-42.91 3.14-1c4.57 14.44 9.07 29.38 13.71 43.65 2.36 7.3 3.28 8.22 7.85 8.88v2.66h-19.33zm-6.43-41.58h-.21c-2.07 6.39-4 12.86-6 19.09h11.85l-5.64-19.09zM176.28 33.76c-.86-4.15-1.71-6.72-2.78-8.13-1.28-1.66-2.86-2.16-7.49-2.16h-3.85v39.75c0 6.89.64 7.55 7.14 8.13v2.66h-22.27v-2.66c6.14-.58 6.85-1.25 6.85-8.13V23.47h-3.21c-5.85 0-7.21.75-8.21 2.32-1.07 1.41-1.86 4.07-2.71 8.05h-2.43c.29-5.64.71-11.54.86-15.85h1.64c1.07 1.91 2 2.08 4 2.08h28.55c1.86 0 2.71-.5 3.93-2.08h1.64c0 3.57.36 10.46.71 15.6l-2.37.17zM229.02 22.81c-5.64.58-6.14 1-6.14 8.05v32.45c0 6.97.57 7.47 6.14 8.05v2.66h-20.84v-2.66c5.78-.58 6.35-1.08 6.35-8.05V47.46h-21.2v15.85c0 6.97.57 7.47 6.07 8.05v2.66h-20.41v-2.66c5.43-.58 6.07-1.08 6.07-8.05V30.86c0-7.05-.64-7.55-6.28-8.05v-2.74h20.41v2.74c-5.28.5-5.85 1-5.85 8.05v12.61h21.2V30.86c0-7.05-.5-7.47-5.92-8.05v-2.74h20.42v2.74z"></path><path d="M254.01 74.01v-2.66c4.28-.75 4.71-1.66 3.71-5.15-.79-2.74-2-6.64-3.28-10.62h-14.2c-.93 3.07-1.93 6.22-2.78 9.54-1.21 4.48-.86 5.48 4.35 6.22V74h-15.77v-2.66c4.64-.75 5.57-1.49 7.99-8.63l14.63-42.91 3.14-1c4.57 14.44 9.07 29.38 13.7 43.65 2.36 7.3 3.28 8.22 7.85 8.88v2.66h-19.34zm-6.43-41.58h-.21c-2.07 6.39-4 12.86-6 19.09h11.85l-5.64-19.09z"></path><path d="M311.47 74.01v-2.66c5.57-.66 5.85-1.25 5.85-9.29l-.21-32.62h-.29l-16.35 43.99h-1.86l-15.06-43.07h-.21l-.93 22.41c-.29 6.89-.29 10.62-.07 13.53.21 3.82 1.71 4.48 6.5 4.98v2.74h-16.99v-2.74c4.07-.42 5.42-1.74 5.85-4.81.43-2.74.93-6.81 1.5-15.52l1.07-16.68c.64-9.96.14-10.79-6.14-11.45v-2.74h13.7l14.63 38.18 14.92-38.18h13.56v2.74c-5.92.66-6.28 1.08-6.14 8.63l.71 30.62c.14 8.05.43 8.63 6.28 9.29v2.66h-20.32zM368.1 12.92c10.19 0 17.95 2.44 23.04 8.08 4.04 4.42 7.03 11.18 7.03 20.11 0 11.37-3.88 19.64-10.02 25.1-5.98 5.36-14.31 7.8-24.33 7.8h-20.21V71c6.63-.66 7.36-1.22 7.36-9.21V25.23c0-8.08-.73-8.65-6.63-9.21v-3.1h23.76zm-7.68 48.21c0 6.86 1.78 9.02 7.44 9.02 12.37 0 19.72-11.28 19.72-27.35 0-9.31-2.67-16.83-7.36-21.15-3.48-3.48-7.84-5.17-13.34-5.17-3.15 0-4.93.66-5.58 1.32-.65.75-.89 2.16-.89 5.26v38.07zM426.22 74.01v-2.66c4.28-.75 4.71-1.66 3.71-5.15-.79-2.74-2-6.64-3.28-10.62h-14.21c-.93 3.07-1.93 6.22-2.78 9.54-1.21 4.48-.86 5.48 4.35 6.22V74h-15.78v-2.66c4.64-.75 5.57-1.49 7.99-8.63l14.63-42.91 3.14-1c4.57 14.44 9.06 29.38 13.7 43.65 2.36 7.3 3.28 8.22 7.85 8.88v2.66h-19.32zm-6.43-41.58h-.21c-2.07 6.39-4 12.86-6 19.09h11.85l-5.64-19.09z"></path><path d="M445.27 74.01v-2.66c5.5-.58 6.14-1.08 6.14-8.13V30.94c0-7.05-.64-7.64-6.14-8.13v-2.74h20.49v2.74c-5.5.5-6.07 1.08-6.07 8.13v32.28c0 6.97.57 7.55 6.07 8.13v2.66h-20.49zM502.81 60.32c-.57 3.24-2 11.37-2.64 13.69h-33.83v-2.66c6.07-.58 6.78-1.16 6.78-8.22V30.86c0-7.05-.64-7.55-6.21-8.05v-2.74h20.63v2.74c-5.5.5-6.14 1-6.14 8.05v32.62c0 4.07.29 5.64 1.71 6.39 1.29.66 3.36.83 5.85.83 3.43 0 5.92-.5 7.57-2.74 1.36-1.66 2.64-4.32 3.85-8.3l2.43.66z"></path><g><path d="M539.57 22.81c-4.71.58-5.93 1.83-8.57 6.81-2.86 5.31-4.93 9.3-8.35 16.93-1 2.16-1.29 3.15-1.29 5.56v10.87c0 7.3.57 7.8 7 8.38v2.66H506.3v-2.66c6.14-.5 6.78-1.08 6.78-8.38V53.1c0-1.91-.29-2.74-1.14-4.73-2.14-4.73-4.78-10.21-8.85-18.59-2.78-5.56-3.78-6.39-7.85-6.97v-2.74h19.13v2.74c-4.78.75-4.71 1.74-3.43 4.65 2.71 6.06 5.78 12.45 8.71 18.59 2.29-4.98 6-12.86 7.78-17.93 1.36-3.65 1.21-4.65-4.14-5.31v-2.74h16.28v2.74z"></path></g><g><path d="M605.93 15.92c-4.37.28-6.14 1.6-6.55 5.83-.32 2.82-.65 7.24-.65 15.7v37.5h-3.4L561.39 27.2h-.16v22.09c0 8.37.32 12.59.57 15.42.4 4.42 1.94 5.92 7.76 6.3v3.01H550V71c4.53-.38 6.47-1.79 6.87-6.02.24-3.1.65-7.33.65-15.7V29.27c0-6.39-.08-7.71-1.62-9.87-1.62-2.35-3.31-3.1-6.95-3.48v-3.01h13.9l31.93 43.33h.24v-18.8c0-8.46-.4-12.88-.57-15.6-.49-4.04-2.18-5.55-8-5.92v-3.01h19.48v3.01z"></path></g><g><path d="M642.73 60.48c-.43 3.32-1.86 11.04-2.5 13.53h-35.69v-2.66c6.21-.58 6.85-1.16 6.85-8.13V30.94c0-7.3-.64-7.64-5.85-8.13v-2.74h32.91c.07 1.66.43 7.47.71 12.28l-2.43.41c-.64-3.15-1.5-5.56-2.64-7.14-1.14-1.58-3.07-2.16-7.49-2.16h-4.14c-2.5 0-2.71.17-2.71 2.82V44.3h5.5c6.14 0 6.85-.5 7.78-6.22h2.43v16.43h-2.43c-.93-5.97-1.64-6.31-7.78-6.31h-5.5v14.77c0 3.98.36 5.89 1.71 6.81 1.29.83 3.78.91 6.71.91 4.35 0 6.71-.58 8.35-2.74 1.36-1.74 2.64-4.48 3.85-7.97l2.36.5zM708.04 22.81c-4.78.83-5.78 1.74-7.78 8.63-1.64 5.39-5.85 20.25-11.78 43.49h-3.21c-3.93-12.78-8.06-26.06-11.99-38.51h-.14c-3.78 13.28-7.5 25.98-10.99 38.51h-3.21a6790.12 6790.12 0 00-11.49-43.9c-1.79-6.56-2.93-7.55-7.21-8.22v-2.74H660v2.74c-5.35.75-5.43 1.66-4.43 5.98 2.5 10.21 5.07 20.42 7.78 30.54h.14c3.57-12.62 7.28-25.56 10.71-38.67h3c4 13.03 8.06 25.98 12.13 38.84h.14c2.86-10.46 6.14-24.57 7.21-29.79 1-4.98.71-6.22-5-6.89v-2.74h16.35v2.73z"></path></g><g><path d="M730.45 33.26c-1.43-5.23-3.85-11.2-9.78-11.2-4.5 0-7.28 3.82-7.28 8.46 0 5.15 2.93 7.88 8.99 11.37 6.78 3.98 12.49 8.3 12.49 16.93 0 9.21-6.71 16.43-16.85 16.43-2.71 0-5.14-.5-7.07-1.25-1.93-.66-3.21-1.25-4.07-1.74-.64-1.99-1.57-8.96-2.07-13.61l2.43-.83c1.29 5.23 5.14 14.19 12.13 14.19 4.78 0 7.71-3.65 7.71-9.21 0-5.31-3.43-8.38-8.78-11.62-6.35-3.82-12.21-8.22-12.21-16.68 0-8.63 5.92-15.69 15.7-15.69 4.14 0 7.78 1.41 9.64 2.08.29 3.07.71 6.56 1.29 11.79l-2.27.58z"></path></g><g><path class="st0" d="M58.77 3.76c-.22-1-.47-1.63-.79-1.98-.31-.35-.78-.46-1.82-.46h-.83v9.08c0 1.63.18 1.75 1.77 1.88v.67h-5.9v-.67c1.52-.13 1.7-.25 1.7-1.88V1.33h-.61c-1.48 0-1.81.21-2.08.52-.29.33-.52.98-.76 1.94h-.65c.07-1.4.18-2.8.22-3.78h.43c.29.44.52.48 1.03.48h7.26c.49 0 .74-.12 1.05-.48h.43c.02.81.11 2.5.2 3.72l-.65.03zM73.33 1.15c-1.41.13-1.52.25-1.52 1.88v7.39c0 1.61.14 1.73 1.52 1.86v.67h-5.51v-.67c1.44-.13 1.57-.27 1.57-1.88V6.83h-4.93v3.57c0 1.63.14 1.75 1.48 1.88v.67h-5.38v-.67c1.32-.13 1.48-.25 1.48-1.88V3.03c0-1.63-.16-1.75-1.55-1.88V.48h5.42v.67c-1.3.13-1.44.25-1.44 1.88v2.82h4.93V3.03c0-1.63-.14-1.75-1.48-1.88V.48h5.42v.67zM84.3 9.77c-.11.86-.49 2.61-.63 3.19h-9.21v-.67c1.53-.13 1.71-.25 1.71-1.88V3.03c0-1.67-.18-1.77-1.46-1.88V.48h8.5c.02.34.11 1.69.18 2.88l-.65.1c-.18-.68-.41-1.31-.74-1.66-.31-.35-.79-.48-1.81-.48h-.87c-.67 0-.74.04-.74.67v4.07h1.21c1.52 0 1.75-.1 2-1.44h.65V8.5h-.65c-.25-1.38-.47-1.46-2-1.46h-1.21v3.32c0 .9.07 1.38.43 1.57.33.15.94.19 1.62.19.92 0 1.57-.13 2-.61.34-.42.67-1.04 1.01-1.88l.66.14z" fill="#427C98"></path></g></svg>