<svg xmlns:xlink="http://www.w3.org/1999/xlink" aria-labelledby="cbeLogo" class="header-logo-image--size-md header-logo-image logo-cbe" viewBox="0 0 368.34 116.29" x="0" xml:space="preserve" xmlns="http://www.w3.org/2000/svg" y="0" width="368.34"  height="116.29" ><text id="cbeLogo">Cochrane Times-Post</text><style>.st0{fill:#004b8c}</style><path d="M6.96 2.73H2.24V.42h11.5v2.31H9.03v19.89H6.96V2.73zM15.99.42h2v8.55c.86-1.17 2.42-2.52 4.12-2.52 2.1 0 3.21 1.53 3.21 4.41v11.76h-1.98V11.37c0-1.89-.52-2.79-1.85-2.79-1.26 0-2.62 1.17-3.51 2.28v11.76h-2V.42zM27.77 14.7c0-5.7 2.42-8.25 5.04-8.25 2.89 0 4.64 2.82 4.64 8.16v.6h-7.7c.07 3.72 1.26 5.7 3.14 5.7 1.53 0 2.35-1.05 3.09-2.76l1.38 1.05c-.91 2.28-2.49 3.75-4.57 3.75-2.85 0-5.02-2.73-5.02-8.25zm7.78-1.32c-.12-2.88-.99-4.86-2.77-4.86-1.46 0-2.79 1.47-3.01 4.86h5.78zM44.46 11.46C44.46 4.05 47.05 0 50.97 0c3.41 0 5.01 2.91 5.65 7.02l-1.92.42c-.57-3.36-1.6-5.13-3.78-5.13-2.81 0-4.39 3.42-4.39 9.12 0 6 1.58 9.33 4.44 9.33 2.15 0 3.31-1.68 3.95-5.4l1.9.39c-.72 4.26-2.49 7.26-5.88 7.26-3.99 0-6.48-3.93-6.48-11.55zM58.75 14.7c0-5.46 2.25-8.25 5.16-8.25 2.89 0 5.13 2.79 5.13 8.25 0 5.43-2.25 8.25-5.13 8.25-2.89 0-5.16-2.82-5.16-8.25zm8.29 0c0-3.42-.96-6.15-3.14-6.15-2.1 0-3.16 2.46-3.16 6.15 0 3.45.91 6.21 3.16 6.21 2.08 0 3.14-2.46 3.14-6.21zM70.97 14.7c0-5.7 2.37-8.25 5.09-8.25 2.64 0 3.75 2.16 4.37 4.71l-1.83.6c-.47-1.98-1.14-3.21-2.6-3.21-1.65 0-3.04 1.83-3.04 6.15 0 3.84 1.11 6.21 3.04 6.21 1.38 0 2.25-1.02 2.74-3.27l1.75.57c-.72 2.97-2.2 4.74-4.57 4.74-2.73 0-4.95-2.82-4.95-8.25zM82.84.42h2v8.55c.86-1.17 2.42-2.52 4.12-2.52 2.1 0 3.21 1.53 3.21 4.41v11.76H90.2V11.37c0-1.89-.52-2.79-1.85-2.79-1.26 0-2.62 1.17-3.51 2.28v11.76h-2V.42zM95.23 6.78h2v2.73h.05c.74-1.59 2.1-3.06 4.12-3.06h.27l-.12 2.28s-.37-.03-.47-.03c-1.7 0-3.09 1.35-3.85 3.24v10.68h-2V6.78z"></path><g><path d="M102.27 18.87c0-3.15 2.2-5.46 7.28-6.69v-.96c0-1.8-.64-2.64-1.95-2.64-1.58 0-2.86.96-3.85 2.13l-1.11-1.47c1.36-1.65 3.09-2.79 5.16-2.79 2.54 0 3.7 1.71 3.7 4.77v7.5c0 1.92.07 3.09.32 3.9h-2c-.15-.63-.27-1.14-.27-2.04-1.06 1.41-2.49 2.25-4.17 2.25-1.95 0-3.11-1.47-3.11-3.96zm7.28-.09v-4.86c-4.02 1.05-5.33 2.73-5.33 4.62 0 1.59.69 2.31 1.83 2.31 1.36 0 2.59-.87 3.5-2.07zM114.59 6.78h2v2.19c.86-1.17 2.42-2.52 4.12-2.52 2.1 0 3.21 1.53 3.21 4.41v11.76h-1.98V11.37c0-1.89-.52-2.79-1.85-2.79-1.26 0-2.62 1.17-3.51 2.28v11.76h-2V6.78zM126.36 14.7c0-5.7 2.42-8.25 5.04-8.25 2.89 0 4.64 2.82 4.64 8.16v.6h-7.7c.07 3.72 1.26 5.7 3.14 5.7 1.53 0 2.35-1.05 3.09-2.76l1.38 1.05c-.91 2.28-2.49 3.75-4.57 3.75-2.84 0-5.02-2.73-5.02-8.25zm7.78-1.32c-.12-2.88-.99-4.86-2.77-4.86-1.46 0-2.79 1.47-3.01 4.86h5.78z"></path></g><g><path class="st0" d="M10.32 48.86H0V33.9h38.37v14.96H28.05v66.44H10.32V48.86zM39.27 36.1h16.72v15.51H39.27V36.1zm.11 20.35h16.49v58.85H39.38V56.45zM59.24 56.45h16.49v6.16c2.47-3.3 8.08-6.93 12.45-6.93 4.49 0 7.52 1.21 8.42 7.04 2.92-3.63 8.75-7.04 12.79-7.04 5.5 0 8.75 1.76 8.75 11.55v48.07h-16.49V73.39c0-1.87-.45-2.64-1.46-2.64s-2.47.66-3.25 1.1v43.45H80.45V73.39c0-1.87-.45-2.64-1.46-2.64-1.12 0-2.58.77-3.25 1.1v43.45h-16.5V56.45zM119.72 85.93c0-20.02 6.62-30.25 19.3-30.25 16.94 0 18.4 15.95 18.4 29.7v6.27h-21.65c0 7.26.79 11.44 3.37 11.44 2.13 0 2.92-1.65 3.14-7.81l15.26.44c-1.46 12.1-5.95 20.35-18.51 20.35-12.58 0-19.31-10.34-19.31-30.14zm21.99-4.18c-.11-10.34-.45-12.54-2.69-12.54-2.02 0-3.25 2.53-3.25 12.54h5.94z" fill="#004B8C"></path><path class="st0" d="M157.08 97.26l14.36-1.76c.79 6.16 2.58 8.47 4.15 8.47 1.35 0 2.47-.44 2.47-2.53 0-3.63-3.7-5.06-7.97-8.47-5.5-4.4-11.89-10.23-11.89-20.9 0-13.09 10.21-16.83 16.72-16.83 10.88 0 17.39 4.51 18.62 17.93l-14.14 2.2c-.56-6.16-1.46-7.15-3.59-7.15-1.01 0-1.91.77-1.91 2.31 0 3.74 3.37 6.05 7.4 9.13 5.72 4.51 12.68 9.13 12.68 19.58 0 10.23-6.51 17.05-18.06 17.05-14.36 0-17.61-8.14-18.84-19.03zM195.34 74.82h25.69V88.9h-25.69V74.82zM223.83 33.9h18.51c10.77 0 22.21 3.74 22.21 27.72 0 27.17-12.23 28.82-22.66 28.82h-.67v24.86h-17.39V33.9zm18.29 42.13c2.69 0 5.16-.55 5.16-14.19 0-12.76-2.47-12.98-5.27-12.98h-.79v27.17h.9zM264.9 85.93c0-20.02 6.73-30.25 19.41-30.25 12.57 0 19.41 10.23 19.41 30.25 0 19.8-6.84 30.14-19.41 30.14s-19.41-10.34-19.41-30.14zm22.21-.11c0-14.08-.56-16.39-2.81-16.39-2.02 0-2.92 1.21-2.92 16.39 0 14.19.79 17.16 2.92 17.16 2.14 0 2.81-1.76 2.81-17.16z" fill="#004B8C"></path><path class="st0" d="M303.38 97.26l14.36-1.76c.79 6.16 2.58 8.47 4.15 8.47 1.35 0 2.47-.44 2.47-2.53 0-3.63-3.7-5.06-7.97-8.47-5.5-4.4-11.89-10.23-11.89-20.9 0-13.09 10.21-16.83 16.72-16.83 10.88 0 17.39 4.51 18.62 17.93l-14.14 2.2c-.56-6.16-1.46-7.15-3.59-7.15-1.01 0-1.91.77-1.91 2.31 0 3.74 3.37 6.05 7.4 9.13 5.72 4.51 12.68 9.13 12.68 19.58 0 10.23-6.51 17.05-18.06 17.05-14.35 0-17.6-8.14-18.84-19.03zM344.45 104.41V68.88h-4.49V56.45h4.49V36.54h16.38v19.91h7.52v12.43h-7.52v29.48c0 5.39 1.12 5.72 3.93 5.72 1.57 0 2.8-.22 3.59-.44v11.55c-1.01.33-4.49.66-9.2.66-8.53 0-14.7-1.98-14.7-11.44z" fill="#004B8C"></path></g></svg>