<svg xmlns:xlink="http://www.w3.org/1999/xlink" aria-labelledby="ecmLogo" class="header-logo-image logo-ecm header-logo-image--size-md" role="img" viewBox="0 0 471.76 136.87" x="0" xml:space="preserve" xmlns="http://www.w3.org/2000/svg" y="0" width="471.76"  height="136.87" > <text id="ecmLogo">County Market</text> <style>.st0{fill:#004b8c}</style><path class="st0" d="M0 74.17C0 43.81 6.73 32.7 21.43 32.7c14.59 0 20.2 6.49 20.2 33.44l-16.72.66c0-15.51-.79-18.15-3.48-18.15-3.48 0-3.37 6.16-3.37 25.52 0 20.02.11 26.07 3.48 26.07 2.92 0 3.59-1.87 3.81-17.49l16.72.66c-.79 17.27-2.92 32.23-20.64 32.23C6.73 115.64 0 104.53 0 74.17zM42.3 85.5c0-20.02 6.73-30.25 19.41-30.25 12.57 0 19.41 10.23 19.41 30.25 0 19.8-6.84 30.14-19.41 30.14S42.3 105.3 42.3 85.5zm22.21-.11c0-14.08-.56-16.39-2.81-16.39-2.02 0-2.92 1.21-2.92 16.39 0 14.19.79 17.16 2.92 17.16 2.14 0 2.81-1.76 2.81-17.16zm18.74 18.7V56.02h16.49v42.35c0 1.87.45 2.64 1.46 2.64 1.12 0 2.58-.22 3.25-.55V56.02h16.49v58.85h-16.49v-6.16c-2.47 3.3-8.08 6.93-12.45 6.93-5.5 0-8.75-1.76-8.75-11.55zm41.4-48.07h16.49v6.16c2.47-3.3 8.08-6.93 12.45-6.93 5.5 0 8.75 1.76 8.75 11.55v48.07h-16.49V72.96c0-1.87-.45-2.64-1.46-2.64-1.12 0-2.58.77-3.25 1.1v43.45h-16.49V56.02zm43.42 47.96V68.45h-4.49V56.02h4.49V36.11h16.38v19.91h7.52v12.43h-7.52v29.48c0 5.39 1.12 5.72 3.93 5.72 1.57 0 2.8-.22 3.59-.44v11.55c-1.01.33-4.49.66-9.2.66-8.52 0-14.7-1.98-14.7-11.44z" fill="#004B8C"></path><path class="st0" d="M189.62 135.88l2.36-13.53c1.46.22 2.69.33 3.7.33 4.26 0 5.95-.66 6.51-3.63l.34-1.65-11.78-61.38h17.84l1.79 24.97c.34 3.85.45 8.03.79 13.53h.22c.34-5.5.67-9.79 1.01-13.42l2.58-25.08h16.16l-12.57 62.81c-2.24 11.11-6.84 18.04-18.85 18.04-4.05 0-7.86-.33-10.1-.99zm56.2-102.41h20.87l4.71 43.34h.11l4.71-43.34h20.76v81.4h-16.61V86.05c0-6.49.11-13.64.11-18.26h-.22c-.56 6.93-1.12 13.31-1.79 18.15l-4.04 28.93h-8.42l-4.04-28.93c-.67-4.84-1.01-8.91-1.79-17.93h-.22c.11 2.42.11 10.89.11 18.04v28.82h-14.25v-81.4zm53.75 66c0-12.54 7.18-19.8 20.98-23.21v-3.63c0-3.74-.34-4.4-1.91-4.4-1.46 0-2.02.88-2.69 5.06l-14.59-1.76c2.69-13.31 9.76-16.28 19.19-16.28 10.99 0 15.71 4.95 15.71 16.72v28.6c0 7.04.22 11.33.9 14.3h-15.82c-.56-1.54-.79-3.08-.79-6.93-2.02 4.29-4.83 7.37-9.99 7.37-5.94 0-10.99-3.96-10.99-15.84zm20.98.66V87.15c-4.04 2.09-5.16 5.61-5.16 10.01 0 2.31.79 3.85 2.47 3.85.89 0 2.02-.44 2.69-.88zm19.41-44.11h16.49v9.24h.11c1.91-5.5 5.5-10.01 9.99-10.01 1.01 0 1.91.22 1.91.22V71.2h-1.57c-4.83 0-8.08.55-10.44 1.87v41.8h-16.49V56.02zm29.84-22.55h15.48v46.2c1.12-6.16 2.36-11.44 3.03-14.08l2.47-9.57h14.25l-7.63 21.89 8.98 36.96h-15.71l-3.81-21.67-1.57 6.27v15.4H369.8v-81.4zM406.24 85.5c0-20.02 6.62-30.25 19.3-30.25 16.94 0 18.4 15.95 18.4 29.7v6.27h-21.65c0 7.26.79 11.44 3.37 11.44 2.13 0 2.92-1.65 3.14-7.81l15.26.44c-1.46 12.1-5.95 20.35-18.51 20.35-12.58 0-19.31-10.34-19.31-30.14zm21.99-4.18c-.11-10.34-.45-12.54-2.69-12.54-2.02 0-3.25 2.53-3.25 12.54h5.94z" fill="#004B8C"></path><path class="st0" d="M447.87 103.98V68.45h-4.49V56.02h4.49V36.11h16.38v19.91h7.52v12.43h-7.52v29.48c0 5.39 1.12 5.72 3.93 5.72 1.57 0 2.8-.22 3.59-.44v11.55c-1.01.33-4.49.66-9.2.66-8.53 0-14.7-1.98-14.7-11.44z" fill="#004B8C"></path><path d="M5.72 2.31H1V0h11.5v2.31H7.79V22.2H5.72V2.31zM14.75 0h2v8.55c.86-1.17 2.42-2.52 4.12-2.52 2.1 0 3.21 1.53 3.21 4.41V22.2H22.1V10.95c0-1.89-.52-2.79-1.85-2.79-1.26 0-2.62 1.17-3.51 2.28V22.2h-2V0zm11.78 14.28c0-5.7 2.42-8.25 5.04-8.25 2.89 0 4.64 2.82 4.64 8.16v.6h-7.7c.07 3.72 1.26 5.7 3.14 5.7 1.53 0 2.35-1.05 3.09-2.76l1.38 1.05c-.91 2.28-2.49 3.75-4.57 3.75-2.85 0-5.02-2.73-5.02-8.25zm7.77-1.32c-.12-2.88-.99-4.86-2.77-4.86-1.46 0-2.79 1.47-3.01 4.86h5.78zM43.95 0h2.07v19.92h7.23v2.28h-9.31V0zM54.3 14.28c0-5.7 2.42-8.25 5.04-8.25 2.89 0 4.64 2.82 4.64 8.16v.6h-7.7c.07 3.72 1.26 5.7 3.14 5.7 1.53 0 2.35-1.05 3.09-2.76l1.38 1.05c-.91 2.28-2.49 3.75-4.57 3.75-2.85 0-5.02-2.73-5.02-8.25zm7.78-1.32c-.12-2.88-.99-4.86-2.77-4.86-1.46 0-2.79 1.47-3.01 4.86h5.78zm3.85 1.32c0-5.73 1.97-8.25 4.52-8.25 1.51 0 2.64.9 3.51 2.22V0h1.98v18.3c0 1.92.07 3.09.32 3.9H74.2c-.15-.51-.25-1.53-.25-2.07-.84 1.2-1.95 2.31-3.6 2.31-2.55 0-4.42-2.43-4.42-8.16zm8.02 3.99v-7.95c-.94-1.35-1.95-2.19-3.09-2.19-1.75 0-2.94 1.86-2.94 6.21 0 4.23 1.21 6.09 2.96 6.09 1.17 0 2.25-1.02 3.07-2.16zm5.01-.15V6.36h1.98v11.31c0 1.86.52 2.76 1.93 2.76 1.23 0 2.37-.96 3.43-2.28V6.36h2V22.2h-2v-2.19c-.99 1.32-2.4 2.52-4.12 2.52-2.11 0-3.22-1.53-3.22-4.41zm11.87-3.84c0-5.7 2.37-8.25 5.09-8.25 2.64 0 3.75 2.16 4.37 4.71l-1.83.6c-.47-1.98-1.14-3.21-2.59-3.21-1.65 0-3.04 1.83-3.04 6.15 0 3.84 1.11 6.21 3.04 6.21 1.38 0 2.25-1.02 2.74-3.27l1.75.57c-.72 2.97-2.2 4.74-4.57 4.74-2.73 0-4.96-2.82-4.96-8.25zm11.58-2.49h5.06v2.04h-5.06v-2.04zM108.24 0h1.98l1.98 11.4c.42 2.4.67 3.84 1.09 6.57h.05c.37-2.73.64-4.17 1.04-6.57L116.22 0h1.88l1.93 11.7c.4 2.28.69 3.9 1.01 6.27h.05c.32-2.25.62-3.99 1.01-6.27l2-11.7h1.85l-4.07 22.29h-1.75l-2.99-17.88h-.05l-3.01 17.88h-1.75L108.24 0zm17.95 14.28c0-5.7 2.42-8.25 5.04-8.25 2.89 0 4.64 2.82 4.64 8.16v.6h-7.7c.07 3.72 1.26 5.7 3.14 5.7 1.53 0 2.35-1.05 3.09-2.76l1.38 1.05c-.91 2.28-2.49 3.75-4.57 3.75-2.85 0-5.02-2.73-5.02-8.25zm7.77-1.32c-.12-2.88-.99-4.86-2.77-4.86-1.46 0-2.79 1.47-3.01 4.86h5.78z"></path><g><path d="M139.14 18.63V8.37h-1.93V6.36h1.93V.72h1.98v5.64h2.86v2.01h-2.86v9.72c0 1.62.35 2.34 1.73 2.34.4 0 .86-.09 1.11-.21v1.95c-.3.12-.99.21-1.56.21-2.37 0-3.26-1.02-3.26-3.75zm6.54-.18c0-3.15 2.2-5.46 7.28-6.69v-.96c0-1.8-.64-2.64-1.95-2.64-1.58 0-2.86.96-3.85 2.13l-1.11-1.47c1.36-1.65 3.09-2.79 5.16-2.79 2.54 0 3.7 1.71 3.7 4.77v7.5c0 1.92.07 3.09.32 3.9h-2c-.15-.63-.27-1.14-.27-2.04-1.06 1.41-2.49 2.25-4.17 2.25-1.94 0-3.11-1.47-3.11-3.96zm7.29-.09V13.5c-4.02 1.05-5.33 2.73-5.33 4.62 0 1.59.69 2.31 1.83 2.31 1.35 0 2.58-.87 3.5-2.07zm3.95.93l1.36-1.2c.86 1.59 2.15 2.46 3.53 2.46 1.65 0 2.59-.87 2.59-2.34 0-3.9-6.79-2.31-6.79-7.92 0-2.52 1.7-4.26 4.12-4.26 1.93 0 3.36 1.11 4.3 2.85l-1.33 1.26c-.67-1.23-1.65-2.1-2.99-2.1-1.48 0-2.17.9-2.17 2.13 0 3.93 6.74 2.16 6.74 7.92 0 2.76-2 4.44-4.49 4.44-2.26 0-3.86-1.26-4.87-3.24zM168.74 0h1.98v14.52c.27-.6 1.11-1.95 1.8-3.12l2.99-5.04h2.05l-3.53 5.79L178 22.2h-2.05l-3.16-8.07-2.07 3.33v4.74h-1.98V0zm11.46.6h2.02v2.61h-2.02V.6zm0 5.76h2V22.2h-2V6.36zm4.19 0h1.93l1.6 7.95c.32 1.56.49 2.55.82 4.41h.05c.27-1.83.47-2.88.79-4.5l1.43-7.86h1.75l1.46 7.8c.32 1.62.57 2.88.81 4.59h.05c.27-1.74.52-2.97.84-4.59l1.53-7.8h1.75l-3.31 15.9h-1.75l-2.3-12.09h-.05l-2.35 12.09h-1.73l-3.32-15.9zM201.38.6h2.02v2.61h-2.02V.6zm0 5.76h2V22.2h-2V6.36zm5.3 0h2v2.19c.86-1.17 2.42-2.52 4.12-2.52 2.1 0 3.21 1.53 3.21 4.41V22.2h-1.98V10.95c0-1.89-.52-2.79-1.85-2.79-1.26 0-2.62 1.17-3.51 2.28V22.2h-2V6.36z"></path></g></svg>