<svg xmlns:xlink="http://www.w3.org/1999/xlink" aria-labelledby="ctwLogo" class="header-logo-image logo-ctw" version="1.1" viewBox="0 0 831.02 86.28" x="0" xml:space="preserve" xmlns="http://www.w3.org/2000/svg" y="0" width="831.02"  height="86.28" ><text id="ctwLogo">Chatham This Week</text><style>.st0{fill:#004b8c}</style><path class="st0" d="M0 43.02C0 11.53 6.74 0 21.45 0c14.6 0 20.21 6.73 20.21 34.69l-16.73.68c0-16.09-.79-18.83-3.48-18.83-3.48 0-3.37 6.39-3.37 26.48 0 20.77.11 27.05 3.48 27.05 2.92 0 3.59-1.94 3.82-18.15l16.73.68c-.79 17.92-2.92 33.44-20.66 33.44C6.74 86.05 0 74.52 0 43.02zM44.8.8h16.51v29.79c2.47-3.42 8.08-7.19 12.46-7.19 5.5 0 8.76 1.83 8.76 11.98v49.87H66.02V41.77c0-1.94-.45-2.74-1.46-2.74-1.12 0-2.58.8-3.26 1.14v45.08H44.8V.8zM85.56 69.27c0-13.01 7.19-20.54 21-24.08v-3.77c0-3.88-.34-4.56-1.91-4.56-1.46 0-2.02.91-2.69 5.25l-14.6-1.83c2.7-13.81 9.77-16.89 19.2-16.89 11 0 15.72 5.14 15.72 17.35v29.67c0 7.3.22 11.75.9 14.84h-15.83c-.56-1.6-.79-3.2-.79-7.19-2.02 4.45-4.83 7.65-9.99 7.65-5.96-.01-11.01-4.11-11.01-16.44zm21 .69V56.49c-4.04 2.17-5.17 5.82-5.17 10.39 0 2.4.79 3.99 2.47 3.99.9 0 2.03-.46 2.7-.91zM129.13 73.95V37.09h-4.49v-12.9h4.49V3.54h16.39V24.2h7.52v12.9h-7.52v30.58c0 5.59 1.12 5.93 3.93 5.93 1.57 0 2.81-.23 3.59-.46v11.98c-1.01.34-4.49.68-9.21.68-8.53.01-14.7-2.05-14.7-11.86zM162.14.8h16.51v29.79c2.47-3.42 8.08-7.19 12.46-7.19 5.5 0 8.76 1.83 8.76 11.98v49.87h-16.51V41.77c0-1.94-.45-2.74-1.46-2.74-1.12 0-2.58.8-3.26 1.14v45.08h-16.51V.8zM202.9 69.27c0-13.01 7.19-20.54 21-24.08v-3.77c0-3.88-.34-4.56-1.91-4.56-1.46 0-2.02.91-2.69 5.25l-14.6-1.83c2.7-13.81 9.77-16.89 19.2-16.89 11 0 15.72 5.14 15.72 17.35v29.67c0 7.3.22 11.75.9 14.84h-15.83c-.56-1.6-.79-3.2-.79-7.19-2.02 4.45-4.83 7.65-9.99 7.65-5.96-.01-11.01-4.11-11.01-16.44zm21 .69V56.49c-4.04 2.17-5.17 5.82-5.17 10.39 0 2.4.79 3.99 2.47 3.99.9 0 2.02-.46 2.7-.91zM244.33 24.19h16.51v6.39c2.47-3.42 8.08-7.19 12.46-7.19 4.49 0 7.52 1.26 8.42 7.3 2.92-3.77 8.76-7.3 12.8-7.3 5.5 0 8.76 1.83 8.76 11.98v49.87h-16.51V41.77c0-1.94-.45-2.74-1.46-2.74s-2.47.68-3.26 1.14v45.08h-16.51V41.77c0-1.94-.45-2.74-1.46-2.74-1.12 0-2.58.8-3.26 1.14v45.08h-16.51V24.19zM307.21 43.25h25.71v14.61h-25.71V43.25zM337.3.8h17.18v33.09c1.35-6.96 2.7-12.67 4.16-17.8L362.91.8h14.93L367.4 33.44l11.79 51.81h-17.63l-6.18-32.41-.9 3.88v28.53H337.3V.8z" fill="#004B8C"></path><path class="st0" d="M378.29 54.78c0-20.77 6.62-31.38 19.31-31.38 16.96 0 18.42 16.55 18.42 30.81v6.5h-21.67c0 7.53.79 11.87 3.37 11.87 2.13 0 2.92-1.71 3.14-8.1l15.27.46c-1.46 12.55-5.95 21.11-18.53 21.11-12.57 0-19.31-10.73-19.31-31.27zm22.01-4.34c-.11-10.73-.45-13.01-2.7-13.01-2.02 0-3.26 2.62-3.26 13.01h5.96zM419.27 24.19h16.51v6.39c2.47-3.42 8.08-7.19 12.46-7.19 5.5 0 8.76 1.83 8.76 11.98v49.87h-16.5V41.77c0-1.94-.45-2.74-1.46-2.74-1.12 0-2.58.8-3.26 1.14v45.08h-16.51V24.19zM463.74 73.95V37.09h-4.49v-12.9h4.49V3.54h16.39V24.2h7.52v12.9h-7.52v30.58c0 5.59 1.12 5.93 3.93 5.93 1.57 0 2.81-.23 3.59-.46v11.98c-1.01.34-4.49.68-9.21.68-8.53.01-14.7-2.05-14.7-11.86zM511.34 16.32h-10.33V.8h38.4v15.52h-10.33v68.93h-17.74V16.32zM541.77.8h16.51v29.79c2.47-3.42 8.08-7.19 12.46-7.19 5.5 0 8.76 1.83 8.76 11.98v49.87H563V41.77c0-1.94-.45-2.74-1.46-2.74-1.12 0-2.58.8-3.26 1.14v45.08h-16.51V.8zM584.22 3.08h16.73v16.09h-16.73V3.08zm.11 21.11h16.51v61.05h-16.51V24.19zM603.76 66.53l14.37-1.83c.79 6.39 2.58 8.79 4.15 8.79 1.35 0 2.47-.46 2.47-2.62 0-3.77-3.71-5.25-7.97-8.79-5.5-4.57-11.9-10.61-11.9-21.68 0-13.58 10.22-17.46 16.73-17.46 10.89 0 17.41 4.68 18.64 18.6l-14.15 2.28c-.56-6.39-1.46-7.42-3.59-7.42-1.01 0-1.91.8-1.91 2.4 0 3.88 3.37 6.28 7.41 9.47 5.73 4.68 12.69 9.47 12.69 20.31 0 10.61-6.51 17.69-18.08 17.69-14.37.01-17.63-8.44-18.86-19.74zM654.51.8h17.29l2.25 34.46c.34 5.48.67 11.3.9 18.14 0 0 .45-6.62.11 0l1.57-18.14L680.45.8h12.02l2.92 34.12c.67 7.19 1.01 11.3 1.35 18.49h.11c.34-7.42.56-11.18 1.01-18.37L699.99.8h15.94l-10.11 84.79h-16.28l-4.27-46.79h-.22l-4.27 46.79H664.5L654.51.8zM713.91 54.78c0-20.77 6.62-31.38 19.31-31.38 16.96 0 18.42 16.55 18.42 30.81v6.5h-21.67c0 7.53.79 11.87 3.37 11.87 2.13 0 2.92-1.71 3.14-8.1l15.27.46c-1.46 12.55-5.95 21.11-18.53 21.11-12.58 0-19.31-10.73-19.31-31.27zm22-4.34c-.11-10.73-.45-13.01-2.7-13.01-2.02 0-3.26 2.62-3.26 13.01h5.96zM753.43 54.78c0-20.77 6.62-31.38 19.31-31.38 16.96 0 18.42 16.55 18.42 30.81v6.5h-21.67c0 7.53.79 11.87 3.37 11.87 2.13 0 2.92-1.71 3.14-8.1l15.27.46c-1.46 12.55-5.95 21.11-18.53 21.11-12.57 0-19.31-10.73-19.31-31.27zm22.01-4.34c-.11-10.73-.45-13.01-2.7-13.01-2.02 0-3.26 2.62-3.26 13.01h5.96zM794.41.8h15.5v47.93c1.12-6.39 2.36-11.87 3.03-14.61l2.47-9.93h14.26l-7.64 22.71 8.98 38.34H815.3l-3.82-22.48-1.57 6.5v15.98h-15.5V.8z" fill="#004B8C"></path></svg>