<svg xmlns:xlink="http://www.w3.org/1999/xlink" aria-labelledby="dvdLogo" class="header-logo-image logo-dvd" role="img" viewBox="0 0 435.24 86.1" xmlns="http://www.w3.org/2000/svg" width="435.24"  height="86.1" > <text id="dvdLogo">Devon Dispatch</text> <path d="M33.36 58.99c0 4.06-1.26 7.41-3.78 10.07-2.77 2.96-6.52 4.44-11.25 4.44H0V0h18.24c4.73 0 8.47 1.45 11.25 4.34 2.58 2.66 3.87 6.05 3.87 10.17v44.48zM18.8 60.25v-47c0-1.76-.49-2.92-1.48-3.48-.53-.28-1.48-.42-2.86-.42v54.81c1.52 0 2.47-.11 2.86-.32.99-.56 1.48-1.76 1.48-3.59zm48.01 2.01c0 4.41-1.58 7.63-4.72 9.66-2.52 1.61-6.11 2.42-10.77 2.42-4.66 0-8.25-.87-10.77-2.62-3.02-2.1-4.54-5.42-4.54-9.97v-35.6c0-4.48 1.48-7.77 4.44-9.87 2.58-1.82 6.2-2.73 10.87-2.73 4.6 0 8.19.81 10.77 2.42 3.15 1.96 4.72 5.18 4.72 9.66V48.3H49.14v13.77c0 .97.19 1.72.57 2.24.38.52.94.78 1.7.78s1.32-.26 1.7-.78c.38-.52.57-1.27.57-2.24V50.19h13.13v12.07zM53.67 39.27V25.71c0-.97-.19-1.7-.57-2.19-.38-.49-.95-.73-1.7-.73-.63 0-1.17.24-1.61.73-.44.49-.66 1.22-.66 2.19v13.56h4.54zm50.18-25.31L94.18 73.5H78.27L68.6 13.96h13.13l4.68 35.17 4.39-35.17h13.05zm32.6 48.3c0 4.48-1.51 7.7-4.54 9.66-2.46 1.61-6.02 2.42-10.68 2.42-4.73 0-8.38-.87-10.96-2.62-3.09-2.1-4.63-5.42-4.63-9.97v-35.6c0-4.48 1.54-7.77 4.63-9.87 2.65-1.82 6.3-2.73 10.96-2.73 4.28 0 7.89 1.03 10.82 3.1 2.93 2.07 4.39 5.06 4.39 8.98v36.63zm-13.14-.2V25.72c0-.98-.19-1.71-.57-2.2-.38-.49-.94-.73-1.7-.73-.63 0-1.17.24-1.61.73-.44.49-.66 1.22-.66 2.2v36.34c0 .98.19 1.73.57 2.25.38.52.94.79 1.7.79s1.32-.26 1.7-.79c.39-.52.57-1.27.57-2.25zm46.4 11.44h-13.14V25.62c0-1.82-.76-2.74-2.27-2.74-.76 0-1.32.22-1.7.66-.38.44-.57 1.13-.57 2.07V73.5H138.9V13.96h13.13v2c.76-.7 1.84-1.28 3.26-1.73 1.42-.45 3.04-.68 4.87-.68 2.77 0 5.06.82 6.85 2.47 1.8 1.65 2.69 3.66 2.69 6.04V73.5zm53.01-14.51c0 4.06-1.26 7.41-3.78 10.07-2.77 2.96-6.52 4.44-11.25 4.44h-18.33V0h18.24c4.73 0 8.47 1.45 11.25 4.34 2.58 2.66 3.87 6.05 3.87 10.17v44.48zm-14.55 1.26v-47c0-1.76-.49-2.92-1.48-3.48-.53-.28-1.48-.42-2.86-.42v54.81c1.52 0 2.47-.11 2.86-.32.99-.56 1.48-1.76 1.48-3.59zm30.43-49.54h-13.13V.11h13.13v10.6zm0 62.79h-13.13V13.96h13.13V73.5zm33.26-11.76c0 4.48-1.54 7.77-4.63 9.87-2.65 1.82-6.3 2.73-10.96 2.73-4.54 0-8.06-.81-10.58-2.42-3.09-1.96-4.63-5.18-4.63-9.66v-12.7h13.13v12.51c0 .97.19 1.72.58 2.24s.93.78 1.64.78c.71 0 1.24-.26 1.59-.78s.53-1.27.53-2.24v-4.59c0-4.03-.88-6.64-2.65-7.82-2.4-1.4-4.63-2.73-6.71-3.99-3.09-1.89-5.17-3.59-6.24-5.09-1.07-1.5-1.61-3.66-1.61-6.46v-7.98c0-4.48 1.48-7.77 4.44-9.87 2.58-1.82 6.2-2.73 10.87-2.73 4.54 0 8.03.81 10.49 2.42 2.96 1.96 4.44 5.18 4.44 9.66v11.76h-12.95V25.72c0-.91-.21-1.63-.63-2.15-.42-.52-.9-.79-1.45-.79-.6 0-1.12.25-1.54.73-.42.49-.63 1.23-.63 2.21v5.57c0 2.45.91 4.34 2.74 5.67l5.1 3.04c3.72 2.17 6.02 3.75 6.9 4.73 1.83 1.96 2.74 4.66 2.74 8.08v8.93zm33.45 4.3c0 2.31-.88 4.27-2.65 5.88-1.76 1.61-4.06 2.42-6.9 2.42-1.76 0-3.37-.21-4.82-.63-1.45-.42-2.55-.95-3.31-1.58V86.1H274.5V13.96h9.92l1.13 2.42c.88-.77 1.67-1.33 2.36-1.68 1.38-.77 3.15-1.16 5.29-1.16 3.78 0 6.8 1.09 9.07 3.25 2.01 1.89 3.02 4.06 3.02 6.51v42.74zm-13.14-3.67V25.51c0-1.82-.76-2.73-2.27-2.73-.76 0-1.32.23-1.7.68-.38.46-.57 1.14-.57 2.05v36.96c0 .84.21 1.49.62 1.94.41.46.96.68 1.65.68 1.52.01 2.27-.9 2.27-2.72zm46.97 11.13h-11.62v-2.31c-.63 1.33-1.59 2.19-2.88 2.57-1.29.38-3.13.58-5.53.58-3.91 0-6.68-.77-8.32-2.31-1.64-1.54-2.46-3.89-2.46-7.04V53.03c0-4.76 2.94-8.72 8.83-11.87 5.89-3.15 8.84-5.36 8.84-6.62v-8.82c0-.98-.19-1.71-.55-2.21-.37-.49-.93-.73-1.67-.73-.62 0-1.14.25-1.57.73-.43.49-.65 1.23-.65 2.21v11.76H308.8V25.62c0-4.41 1.61-7.63 4.82-9.66 2.58-1.61 6.2-2.42 10.87-2.42 4.66 0 8.16.88 10.49 2.63 2.77 2.03 4.16 5.36 4.16 9.97V73.5zM326 62.37V47.04c-1.76.49-2.96 1.09-3.59 1.79-.63.7-.94 1.61-.94 2.73v10.82c0 .91.2 1.59.61 2.05.41.46.99.68 1.75.68.63 0 1.15-.23 1.56-.68.41-.47.61-1.15.61-2.06zm42.15 11.13h-8.32c-5.67 0-9.15-.85-10.44-2.57-1.29-1.71-1.94-5.64-1.94-11.79V22.89h-5.86v-8.92h5.86V2h13.13v11.97h7.09v8.92h-7.09v36.23c0 1.75.54 2.98 1.61 3.67.76.49 1.92.74 3.5.74h2.46v9.97zm33.45-11.24c0 4.48-1.51 7.7-4.54 9.66-2.46 1.61-6.02 2.42-10.68 2.42-4.72 0-8.38-.87-10.96-2.62-3.09-2.1-4.63-5.42-4.63-9.97v-35.6c0-4.48 1.54-7.77 4.63-9.87 2.65-1.82 6.3-2.73 10.96-2.73 4.54 0 8.06.81 10.58 2.42 3.09 1.96 4.63 5.18 4.63 9.66v14.7h-13.13v-14.6c0-.98-.19-1.71-.57-2.21-.38-.49-.94-.73-1.7-.73-.63 0-1.17.24-1.61.73-.44.49-.66 1.22-.66 2.2v36.34c0 .98.19 1.73.57 2.25.38.52.94.79 1.7.79s1.32-.26 1.7-.78c.38-.52.57-1.27.57-2.24v-14.3h13.13v14.48zm33.64 11.24H422.1V25.51c0-1.82-.76-2.73-2.27-2.73-.76 0-1.32.21-1.7.63-.38.42-.57 1.09-.57 2V73.5h-13.13V0h13.13v15.75c.82-.77 1.9-1.33 3.26-1.68 1.35-.35 2.98-.53 4.87-.53 2.77 0 5.05.81 6.85 2.42 1.8 1.61 2.69 3.57 2.69 5.88V73.5z" fill="#26366D"></path></svg>