<svg xmlns:xlink="http://www.w3.org/1999/xlink" aria-labelledby="elsLogo" class="header-logo-image--size-md header-logo-image logo-els" viewBox="0 2 420 129" x="0" xml:space="preserve" xmlns="http://www.w3.org/2000/svg" y="0" width="420"  height="129" ><text id="elsLogo">Elliot Lake Standard</text><style>.st3{fill:#0769b2}</style><path clip-rule="evenodd" d="M227.74 2.32c.16.07.32.16.49.21 1.63.52 2.65 1.68 3.38 3.17.79 1.62 1.13 3.33 1.21 5.11.06 1.39.18 2.79.08 4.18-.14 1.95-.43 3.88-.7 5.82-.16 1.15-.41 2.3-.61 3.45-.02.11 0 .23 0 .39.41 0 .79.08 1.12-.02.32-.1.62-.36.87-.61.56-.56 1.29-.46 1.95-.47.66-.01 1.33.14 1.86.63.11.1.25.18.32.3.21.36.54.44.92.49 1.03.13 2.06.27 3.08.44 1.12.18 2.24.36 3.35.6.64.14 1.26.4 1.89.6.61.2 1.22.39 1.82.61 1.48.54 2.87 1.25 4.12 2.25.96.77 1.74 1.65 2.22 2.78.21.48.31 1.01.46 1.52v1.35c-.14.51-.21 1.06-.44 1.53-.41.86-.88 1.7-1.4 2.51-.38.61-.85 1.17-1.32 1.73-.23.27-.52.49-.8.72-1 .84-1.99 1.7-3.03 2.5-.77.59-1.62 1.06-2.42 1.61-1.64 1.13-3.4 2.02-5.21 2.83-.94.42-1.87.88-2.82 1.31-.83.38-1.68.74-2.6 1.15.51.46 1.04.91 1.54 1.38 1.37 1.29 2.74 2.56 4.08 3.88.8.79 1.59 1.62 2.29 2.5.92 1.18 1.84 2.38 2.34 3.82.23.66.5 1.4.02 2.06-.3.41-.69.83-1.13 1.05-.93.48-1.95.4-2.96.25-.45-.07-.91-.13-1.35-.23-1.04-.24-2.09-.44-3.11-.76-1.71-.54-3.41-1.1-5.09-1.74-1.38-.53-2.71-1.18-4.06-1.77-.65-.28-1.32-.53-1.96-.83-1-.46-1.99-.93-2.97-1.43-1.53-.78-3.04-1.59-4.62-2.42-.76 1.29-1.48 2.58-2.26 3.84-.45.73-.98 1.42-1.47 2.12-.93 1.34-1.82 2.72-2.8 4.02-1.36 1.79-2.77 3.55-4.23 5.27-1.05 1.23-2.17 2.4-3.32 3.53-1.13 1.1-2.34 2.1-3.65 3-1.48 1.01-2.97 1.96-4.73 2.39-1.55.38-3.11.43-4.56-.37-.8-.44-1.36-1.14-1.9-1.89-.98-1.37-1.4-2.95-1.58-4.54-.23-2.02-.28-4.09-.22-6.12.05-1.69.36-3.38.6-5.06.17-1.14.42-2.26.64-3.39.04-.23.07-.46.1-.72-.75-.05-1.45-.09-2.14-.16-1.08-.11-2.16-.25-3.24-.39-.77-.1-1.55-.2-2.32-.34-.58-.11-1.15-.27-1.73-.44-.91-.26-1.84-.47-2.71-.82-1.69-.68-3.39-1.37-4.78-2.6-1.18-1.05-2.18-2.23-2.44-3.86 0-.02-.05-.04-.08-.05v-1.87c.27-.75.5-1.52.84-2.24.33-.69.72-1.38 1.19-1.98.59-.77 1.25-1.51 1.96-2.17.87-.8 1.81-1.52 2.75-2.24.56-.43 1.13-.84 1.74-1.2 1.51-.9 3.04-1.78 4.58-2.64.8-.45 1.63-.86 2.52-1.32-.25-.24-.5-.49-.77-.73-.84-.77-1.68-1.55-2.53-2.32-.63-.58-1.28-1.15-1.9-1.74-.41-.39-.79-.81-1.17-1.22-.96-1.06-1.98-2.07-2.85-3.2-.86-1.1-1.68-2.26-1.99-3.67-.44-2.01.5-2.76 2.2-2.89 1.84-.14 3.64.14 5.4.68 1.71.53 3.41 1.08 5.1 1.67 1.1.38 2.2.81 3.27 1.28 1.19.52 2.34 1.12 3.51 1.68.7.33 1.42.64 2.12.97.94.44 1.88.87 2.8 1.36.88.46 1.73.99 2.6 1.49.23.14.39.15.51-.15.14-.34.38-.63.52-.97.09-.21.13-.47.11-.7-.11-1.2.27-2.26 1-3.17.31-.38.73-.86 1.14-.91.74-.09 1-.54 1.33-1.06.71-1.1 1.44-2.2 2.22-3.26 1-1.37 2.03-2.72 3.1-4.03 1.07-1.31 2.19-2.58 3.32-3.84 1.32-1.47 2.79-2.78 4.36-3.99 1.39-1.07 2.82-2.06 4.46-2.71.69-.27 1.39-.49 2.09-.74.82-.04 1.65-.04 2.48-.04zm-2.26 40.8c.72.57 1.52 1.2 2.33 1.83 1.09.86 2.19 1.71 3.29 2.57 1.15.9 2.29 1.83 3.45 2.71.16.12.47.17.67.11.42-.12.82-.33 1.23-.51.98-.43 1.96-.86 2.93-1.31.97-.45 1.95-.88 2.89-1.4 1.46-.8 2.92-1.62 4.33-2.53 1.21-.78 2.35-1.67 3.48-2.56 1.06-.82 1.99-1.77 2.82-2.85.88-1.13 1.55-2.32 1.9-3.71.39-1.55-.07-2.93-.93-4.17-.68-.99-1.69-1.72-2.72-2.31-1.05-.61-2.2-1.06-3.34-1.49-.88-.34-1.8-.56-2.71-.8-.77-.2-1.54-.4-2.33-.53-1.53-.24-3.06-.43-4.59-.62a.886.886 0 00-.57.14c-1.15.84-2.42.9-3.66.37-.78-.33-1.46-.9-2.38-.79a.136.136 0 01-.1-.02c-.9 3-1.73 6.01-2.72 8.97-.99 2.99-2.16 5.9-3.27 8.9zM202 28.34c.19.04.38.14.54.11.5-.09.98-.23 1.47-.36.64-.18 1.26-.4 1.91-.54 1.87-.4 3.74-.78 5.62-1.14.9-.17 1.81-.29 2.71-.42 1.11-.15 2.23-.27 3.34-.43 1.03-.15 2.04-.36 3.07-.5.84-.11 1.7-.17 2.55-.21 1.68-.08 3.36-.15 5.04-.21.59-.02 1.18.03 1.76-.01.45-.03.97 0 1.04-.68.04-.42.16-.83.22-1.25.21-1.43.43-2.85.63-4.28.15-1.15.36-2.29.39-3.44.06-1.99.08-3.98-.29-5.95-.3-1.61-.84-3.1-1.85-4.43-.9-1.17-2.21-1.37-3.46-1.73-.22-.06-.52.16-.79.18-1.12.08-2.17.43-3.15.92-.95.48-1.84 1.08-2.71 1.7-1.02.72-2.03 1.47-2.95 2.31-1.06.96-2.04 2.02-3.02 3.07-.76.82-1.5 1.67-2.19 2.54-1.06 1.33-2.12 2.67-3.11 4.05-1.08 1.5-2.09 3.04-3.12 4.57-.08.12-.11.29-.1.43.08.93-.13 1.8-.57 2.6-.4.72-.88 1.5-1.74 1.65-.56.1-.71.41-.91.8-.11.17-.2.37-.33.65zm16.01 28.04c-.18-.01-.34-.06-.47-.03-.41.09-.82.25-1.23.32-1.35.25-2.7.46-4.05.7-1.02.18-2.03.4-3.05.55-1.01.14-2.03.22-3.05.32-1.68.17-3.35.4-5.03.5-2.02.13-4.05.17-6.08.21-1.7.03-3.41.01-5.2.01-.15.76-.31 1.62-.5 2.48-.48 2.25-.8 4.52-.9 6.81-.08 1.86.01 3.75.21 5.61.17 1.62.62 3.19 1.6 4.58.93 1.32 2.13 2.1 3.75 2.11 1.13.01 2.2-.24 3.25-.75 1.57-.75 3.03-1.63 4.39-2.71 1.44-1.14 2.79-2.34 4.02-3.7.94-1.04 1.9-2.08 2.78-3.17 1.29-1.61 2.57-3.24 3.77-4.92 1.35-1.88 2.63-3.8 3.9-5.73.65-1 1.22-2.05 1.89-3.19zm-22.49-14.84c1.24.88 2.42 1.73 3.61 2.58.28.2.58.35.85.55.54.41 1.01.96 1.8.61.04-.02.1-.01.15 0 1.56.37 2.88 1.04 3.29 2.79.01.06.06.13.11.16.4.27.79.55 1.21.81.86.53 1.73 1.03 2.59 1.55 1.2.73 2.38 1.5 3.59 2.21.99.59 2.02 1.12 3.02 1.68.63.35 1.25.73 1.9 1.04.33.15.73.16.96-.22.5-.84.99-1.69 1.44-2.56.81-1.57 1.6-3.16 2.39-4.75.25-.5.48-1 .71-1.51.44-.95.86-1.9 1.3-2.84.12-.26.08-.41-.18-.58-.92-.59-1.81-1.22-2.71-1.85-1.52-1.06-3.04-2.15-4.57-3.19-.89-.6-1.82-1.14-2.73-1.72-1.44-.91-2.87-1.83-4.32-2.74-1.13-.71-2.27-1.41-3.43-2.08-1.27-.73-2.56-1.42-3.87-2.08-.66-.33-1.21-.09-1.6.57-.15.25-.29.49-.42.75-.61 1.17-1.24 2.32-1.81 3.5-.68 1.42-1.31 2.87-1.96 4.31-.43 1-.86 1.99-1.32 3.01zm-.8.26c-.52-.39-1.02-.76-1.51-1.14-1.15-.88-2.31-1.77-3.46-2.66-.83-.64-1.66-1.27-2.48-1.92-.25-.2-.45-.48-.71-.65-.27-.17-.45-.59-.92-.34-.65.34-1.34.6-1.98.95-1.4.77-2.82 1.54-4.17 2.4-1.29.82-2.52 1.73-3.74 2.64-.74.55-1.47 1.13-2.1 1.8-1.06 1.12-2.06 2.3-2.71 3.76-.58 1.32-.81 2.63-.37 3.99.31.96.87 1.78 1.63 2.51.91.87 1.94 1.58 3.05 2.07 1.56.69 3.19 1.21 4.84 1.67 1.26.36 2.58.53 3.88.74 1.07.17 2.16.3 3.24.42.67.08 1.35.13 2.12.2 1.34-5.61 3.23-11.06 5.39-16.44zm36.01-16.58c-.52.06-.87.12-1.23.13-1.65.04-3.31.07-4.96.11-.48.01-.96.06-1.43.11-1.44.13-2.89.26-4.33.41-.93.1-1.85.23-2.78.37-.55.09-1.09.26-1.64.35-1.24.2-2.49.35-3.72.57-1.05.19-2.08.45-3.13.68-1.4.31-2.8.61-4.27.93.19.16.3.29.43.37 1.58.92 3.16 1.83 4.74 2.75.98.57 1.97 1.13 2.94 1.73 1.08.67 2.13 1.37 3.19 2.05 1.65 1.06 3.31 2.11 4.95 3.19.96.64 1.89 1.33 2.83 2 .75.53 1.5 1.07 2.26 1.6.09.06.2.08.3.11 2.4-5.66 4.42-11.4 5.85-17.46zm-35.48 17c-2.14 5.22-3.96 10.5-5.23 15.97.76.06 1.41.15 2.06.15 1.53-.01 3.06-.05 4.6-.1 1.66-.05 3.33-.11 4.99-.21 1.05-.06 2.11-.2 3.16-.32 1.1-.12 2.19-.27 3.29-.4.93-.11 1.86-.2 2.78-.35 1.19-.2 2.36-.46 3.54-.69.74-.14 1.49-.28 2.3-.44-.71-.42-1.34-.8-1.96-1.17-.54-.32-1.08-.65-1.62-.98-1.45-.87-2.91-1.73-4.37-2.6-.99-.59-2-1.16-2.98-1.78-.46-.29-.89-.51-1.45-.24-.15.07-.37.02-.55.01-.67-.04-1.16-.46-1.7-.79-.82-.5-1.33-1.18-1.45-2.16-.01-.12-.13-.26-.23-.34-.63-.45-1.26-.89-1.9-1.33-1.06-.72-2.12-1.44-3.28-2.23zm5.91-13.6c-.65-.38-1.17-.72-1.71-1.01-.94-.49-1.88-.97-2.83-1.43-.67-.33-1.36-.61-2.03-.93-1.1-.53-2.19-1.11-3.3-1.63-.95-.45-1.92-.86-2.9-1.25-1.26-.5-2.52-.99-3.8-1.43-1.22-.41-2.46-.75-3.7-1.11-1.47-.42-2.98-.58-4.51-.51-1.62.08-2.11 1.14-1.63 2.43.5 1.36 1.32 2.55 2.26 3.64.65.76 1.33 1.5 2.02 2.24.67.72 1.34 1.44 2.04 2.12.62.6 1.27 1.17 1.92 1.73.94.82 1.88 1.63 2.85 2.42.12.1.39.11.54.05.84-.33 1.66-.71 2.49-1.05 1.13-.46 2.26-.92 3.41-1.34 1.32-.48 2.66-.92 4-1.35 1.43-.46 2.88-.88 4.31-1.33.18-.03.34-.14.57-.26zm17.71 27.46c.34.24.53.42.76.54 1.68.86 3.36 1.72 5.04 2.56.99.49 1.99.97 3 1.42.93.42 1.87.82 2.81 1.19 1.74.67 3.48 1.31 5.23 1.96.68.25 1.36.54 2.07.71 1.11.28 2.24.5 3.38.7 1.1.19 2.21.26 3.29-.08.4-.13.71-.39.84-.86.17-.61.03-1.15-.22-1.66-.41-.81-.82-1.63-1.35-2.36-.64-.89-1.35-1.74-2.11-2.53-1.03-1.08-2.12-2.09-3.2-3.11-1.2-1.13-2.43-2.23-3.58-3.29-5.24 1.96-10.49 3.62-15.96 4.81zm15.29-5.32c-2.96-2.45-5.93-4.79-8.96-6.96-1.92 3.86-3.79 7.65-5.66 11.43 4.93-1.16 9.82-2.6 14.62-4.47zm-33.82-21.08c-4.66 1.37-9.29 2.87-13.82 5.01 2.87 2.21 5.65 4.35 8.38 6.46 1.85-3.88 3.64-7.66 5.44-11.47z" fill-rule="evenodd"></path><path clip-rule="evenodd" d="M234.16 50.76c-4.8 1.87-9.69 3.31-14.63 4.47 1.87-3.78 3.75-7.56 5.66-11.43 3.04 2.17 6.01 4.51 8.97 6.96z" fill="#FFFFFF" fill-rule="evenodd"></path><path d="M245.43 61.62c-.58.29-1.33 0-1.92-.19l1.92.19z" fill="#FFFFFF"></path><path class="st3" d="M413.8 36.29c-.67 3.52-1.58 7.52-1.17 11.62l.42 39.04.58 22.28c.08 1.9 1.25 3.24 1.67 4.95-.92 1.43-2.83 1.33-4.08 2.29-5.09 4.19-10.17 9.33-16.09 10.95l-.5.48c-5.08 1.43-10.84 1.24-15.92 0-10.25-3.24-20-14.19-21.67-26.38-1.33-6.28-.75-13.52 1-19.33 0-.57-.42-1.14-.83-1.24-3-.1-5.58 1.43-7.42 4.19-.58 3.52-.08 7.43-.08 11.14.5 9.05-1.08 19.23.58 28.18.17.57.5 1.05.5 1.72-6.42.57-13.09.95-19.42.09l1-5.24-.35-42.22c.06-5.45.18-11.29-1.4-16.15 5.08-.57 9.92-.29 15.17-.29.75 1.14 0 3.62 1.83 3.43 3.84-5.05 9.75-4.47 14.59-7.04.92 3.52.25 7.71 1 11.33l.42.48c7.67-7.81 17.42-12.66 28.09-9.52 1 .57 2.33.86 3.42.57l.5-1.24-.25-21.04c.17-1.24-1.33-2.67-.08-3.52 6.07-.58 12.66-.58 18.49.47M382.63 79.8c-3.92 1.14-7.17 5.14-8.5 9.33-1.33 4.86-.5 10.38 2.08 14.19 2.83 5.05 8.08 6.19 12.84 5.52.58-.38 1.17.19 1.67-.48 2.25-.38 4.5-2.1 5.58-4.48.25-6.38.08-13.33-.58-19.61-3.17-4.37-8.26-5.71-13.09-4.47" fill="#0769B2"></path><path d="M413.8 36.28l.81.2c-.56 2.93-1.25 6.1-1.25 9.29 0 .67.03 1.35.1 2.02v.05l.42 39.07.58 22.28-.83.03.83-.05c.03.74.28 1.4.62 2.16.34.75.77 1.57 1.02 2.59l.11.45-.24.37c-.31.49-.71.84-1.12 1.1-.61.38-1.24.57-1.79.77-.56.19-1.05.39-1.38.65l-.46-.79.49.77c-2.52 2.07-5.07 4.42-7.76 6.46-2.69 2.04-5.52 3.79-8.62 4.65l-.19-.93.53.73-.5.48-.15.14-.19.05c-2.53.71-5.2 1.03-7.87 1.03-2.87 0-5.73-.37-8.42-1.02l-.02-.01-.02-.01c-5.29-1.67-10.41-5.31-14.43-10.09s-6.97-10.72-7.84-17.06l.82-.15-.81.22c-.52-2.44-.75-5.01-.75-7.58 0-4.27.65-8.55 1.78-12.29l.79.31h-.83l-.08-.21-.08-.09-.02-.01.03-.09-.02.09-.02-.01.03-.09-.02.09.16-.93-.02.95h-.24c-2.63.01-4.84 1.34-6.49 3.82l-.66-.58.82.18c-.2 1.22-.27 2.51-.27 3.85 0 2.29.2 4.71.2 7.11h-.83l.83-.06c.08 1.37.1 2.75.1 4.15 0 4.57-.3 9.28-.3 13.86 0 3.46.17 6.85.77 10.03l-.82.2.79-.3c.05.18.16.42.29.74.12.32.26.75.26 1.27v.88l-.77.07c-3.72.33-7.54.6-11.35.6-2.77 0-5.53-.14-8.24-.51l-.91-.12 1.18-6.16-.34-42.12v.02c.01-1.2.03-2.42.03-3.63 0-4.3-.21-8.58-1.38-12.17l-.38-1.16 1.08-.12c2.58-.29 5.09-.36 7.6-.36s5.04.07 7.65.07h.42l.25.38c.3.47.41.96.49 1.39.1.65.15 1.23.24 1.49l.05.12.02.03c.01 0 .05.03.17.03l.11-.01.08.95-.63-.62c2.07-2.73 4.71-3.92 7.33-4.74 2.62-.82 5.26-1.32 7.54-2.54l.88-.47.28 1.06c.5 1.92.55 3.93.6 5.88.04 1.95.07 3.84.41 5.5l-.81.22.59-.67.42.48-.59.67-.55-.71c6.16-6.27 13.69-10.73 22.04-10.73 2.22 0 4.5.32 6.81 1l.09.03.08.04c.61.35 1.42.59 2.13.58.26 0 .51-.03.72-.09l.19.93-.76-.4.42-1.04-.25-20.91.01-.08v-.06c.01-.14-.08-.47-.24-.88-.14-.41-.35-.88-.36-1.54 0-.3.06-.66.23-.97.16-.31.4-.56.68-.75l.17-.11.19-.02c2.61-.24 5.3-.39 8-.39 3.65 0 7.29.26 10.7.87l.87.16-.19.98-.84-.21-.13.94c-3.3-.59-6.87-.85-10.44-.85-2.64 0-5.3.14-7.86.38l-.07-.95.43.82-.09.08-.01.02-.04-.03.05.02-.01.02-.04-.03.05.02-.02-.01h.02l-.02-.01h.02v.02c-.01.07.08.4.24.81.15.42.35.93.36 1.61 0 .11-.01.23-.02.34l-.82-.14.83-.01.25 21.26-.75 1.86-.4.1c-.36.1-.73.14-1.1.14-1.01 0-2.02-.3-2.88-.78l.37-.85-.21.92c-2.18-.64-4.31-.94-6.39-.94-7.81 0-14.98 4.19-20.93 10.25l-.59.6-1.14-1.3-.05-.26c-.4-1.95-.42-3.96-.46-5.9-.04-1.93-.11-3.78-.53-5.38l.8-.27.35.86c-2.56 1.36-5.29 1.85-7.8 2.65-2.51.79-4.75 1.84-6.51 4.16l-.22.29-.33.04-.27.01c-.29 0-.57-.05-.82-.18-.46-.22-.77-.67-.92-1.07-.23-.61-.26-1.17-.33-1.65-.06-.48-.15-.82-.23-.93l.67-.57v.95c-2.64 0-5.16-.07-7.65-.07s-4.94.07-7.44.35l-.08-.95.78-.33c1.29 3.98 1.48 8.47 1.49 12.84 0 1.23-.02 2.46-.03 3.66l-.83-.01.83-.01.35 42.32-1.02 5.34-.81-.2.1-.95c2.63.36 5.32.5 8.04.5 3.74 0 7.51-.27 11.22-.59l.06.95h-.83c0-.15-.03-.29-.12-.51-.08-.22-.22-.51-.34-.9l-.01-.05-.01-.05c-.63-3.38-.8-6.9-.8-10.43 0-4.67.3-9.38.3-13.86 0-1.37-.03-2.72-.1-4.03v-.06c0-2.28-.2-4.7-.2-7.11 0-1.41.07-2.82.3-4.2l.04-.22.12-.18c1.91-2.89 4.67-4.58 7.82-4.57H357.34l.07.02c.47.12.81.42 1.06.78.25.37.44.83.44 1.39v.16l-.04.15c-1.06 3.52-1.69 7.61-1.68 11.67 0 2.43.22 4.85.71 7.13l.01.04.01.04c.8 5.86 3.56 11.48 7.39 16.03 3.83 4.55 8.72 8.01 13.68 9.57l-.22.92.17-.93c2.58.63 5.33.98 8.08.98 2.55 0 5.1-.3 7.47-.97l.2.93-.53-.73.5-.48.15-.14.19-.05c2.82-.77 5.48-2.4 8.09-4.38 2.6-1.98 5.14-4.3 7.71-6.42l.01-.01.02-.01c.8-.6 1.67-.81 2.38-1.08.35-.13.67-.26.92-.42.25-.16.43-.33.58-.55l.67.56-.8.25c-.17-.7-.52-1.41-.9-2.22-.37-.81-.75-1.77-.8-2.93v-.01l-.58-22.3-.42-39.04.83-.01-.83.11c-.08-.75-.11-1.5-.11-2.24 0-3.5.75-6.8 1.29-9.69l.74.14-.13.94.13-.94zM382.63 79.8l.21.92c-1.79.52-3.46 1.71-4.84 3.28-1.38 1.57-2.46 3.5-3.09 5.46l-.78-.33.8.28c-.4 1.45-.59 2.96-.59 4.46 0 3.24.9 6.45 2.54 8.86l.02.03.02.04c1.09 1.93 2.54 3.23 4.21 4.06 1.67.83 3.58 1.19 5.5 1.19.78 0 1.55-.06 2.32-.16l.1.94-.41-.83c.35-.23.71-.27.96-.27.2 0 .34.02.42.02h.08l.02.08-.04-.07.02-.01.02.08-.04-.07.02-.02.2-.27.31-.05c.98-.17 2-.63 2.88-1.33.88-.69 1.62-1.61 2.09-2.64l.74.44-.83-.04c.07-1.84.11-3.73.11-5.65 0-4.65-.22-9.4-.69-13.81l.83-.12-.64.61c-2.24-3.1-5.52-4.57-9.01-4.57-1.08 0-2.17.14-3.25.42l-.21-.93.21.92-.21-.92-.18-.93c1.2-.31 2.41-.46 3.61-.46 3.89 0 7.7 1.67 10.3 5.26l.16.22.03.28c.48 4.5.7 9.32.7 14.04 0 1.94-.04 3.86-.11 5.73l-.01.21-.08.19a8.944 8.944 0 01-2.62 3.33c-1.08.85-2.32 1.43-3.58 1.65l-.12-.94.63.62c-.19.26-.44.46-.69.56-.25.11-.48.12-.65.12-.19 0-.33-.02-.42-.02-.11 0-.12.01-.13.02l-.14.09-.17.02c-.83.12-1.67.18-2.52.18-2.1 0-4.23-.39-6.17-1.35-1.94-.96-3.68-2.51-4.95-4.78l.7-.51-.66.58c-1.89-2.79-2.88-6.38-2.89-10.02 0-1.69.22-3.39.67-5.03v-.02l.01-.02c.71-2.24 1.92-4.39 3.48-6.16 1.56-1.76 3.47-3.15 5.6-3.77h.02l.18.91z"></path><path class="st3" d="M195.26 68.66c.17-.67.42.29.67.48 0 .19-.08.67.25.57.42.1.33.95.75 1.24 2.75 4 4.75 8.28 5.33 13.33l.25.28c1.17 12.19.33 24.95.75 37.51.08 1.62.92 2.95 1.17 4.29-5.83 1.14-12.42.38-18.42.57l-2.25-.38v-.29c1-.19 1.17-1.52 1.5-2.48 1.25-11.42.08-22.85.17-34.75.17-3.24-1.92-5.43-3.58-7.81-2.83-2.86-7.83-2.29-10.92-.57-4.92 1.81-3.25 7.52-3.58 12l.33 29.52c0 1.62 1.58 2.86.83 4.38-6.5-.1-12.75.67-19.25-.29l1.42-5.33-.5-41.04c-.5-1.71-1.17-3.33-2-4.76l.08-.57c6.83-1.62 11.09-10.19 17.67-12.47 9.82-4.85 21.99-2.28 29.33 6.57" fill="#0769B2"></path><path d="M195.26 68.66l-.8-.26c.04-.14.08-.29.19-.48.06-.09.14-.2.27-.29.13-.09.31-.16.48-.15.25 0 .43.11.53.19.18.15.25.27.31.36.09.14.15.26.19.33l.04.06-.31.29.22-.38.09.08-.31.29.22-.38.37.28v.51c0 .16-.01.22-.01.25v.01l-.5.03.41-.29c.09.18.08.25.08.26l-.5.03.41-.29-.58.42.33-.69c.11.07.2.18.25.27l-.58.42.33-.69-.32.66v-.76c.08 0 .21.02.32.1l-.32.66v-.76.58l-.12-.56.12-.02v.58l-.12-.56.18-.05.18.04c.17.04.34.13.47.24.23.2.34.43.41.6.1.26.15.44.18.53l.02.05v.01l-.2.15.12-.23.08.08-.2.15.12-.23.13.09.09.14c2.81 4.08 4.9 8.53 5.51 13.79l-.83.12.59-.67.25.29.21.24.03.33c.56 5.84.66 11.79.66 17.77 0 3.53-.04 7.08-.04 10.62 0 3.07.03 6.14.13 9.19l-.83.04.83-.06c.03.64.22 1.27.46 1.95.24.68.53 1.38.69 2.19l.18.97-.86.17c-2.73.54-5.6.66-8.46.66-2.65 0-5.31-.11-7.87-.11-.74 0-1.48.01-2.2.03h-.07l-3.03-.51V125.42l.7-.13c.1-.02.13-.04.19-.1.08-.08.21-.3.32-.63.11-.33.21-.74.36-1.16l.77.35-.83-.12c.44-3.98.58-7.98.58-12.01 0-6.98-.42-14.07-.42-21.37v-1.26.01-.02c.01-.1.01-.21.01-.31 0-1.27-.41-2.36-1.06-3.48-.64-1.11-1.53-2.19-2.36-3.37l.65-.6-.55.71c-1.2-1.22-2.96-1.76-4.81-1.76-1.85 0-3.77.54-5.19 1.33l-.05.03-.06.02c-.7.26-1.22.59-1.61.97-.58.57-.92 1.26-1.14 2.11-.21.86-.28 1.87-.27 2.97 0 1.13.07 2.34.07 3.54 0 .53-.01 1.05-.05 1.58l-.83-.08.83-.01.33 29.52v.01c-.01.36.16.81.43 1.38.13.29.27.59.39.94s.22.75.22 1.21c0 .43-.1.89-.31 1.32l-.24.49-.5-.01c-.4 0-.79-.01-1.19-.01-3.49 0-6.94.21-10.44.21-2.54 0-5.1-.11-7.72-.49l-.98-.14 1.67-6.27-.5-40.89.83-.01-.79.3c-.48-1.64-1.12-3.19-1.9-4.53l-.18-.31.14-.94.09-.64.56-.13c3.16-.74 5.83-3.15 8.56-5.78 2.73-2.61 5.51-5.44 9.04-6.67l.24.91-.33-.87a24.3 24.3 0 0110.75-2.5c7.25 0 14.47 3.2 19.52 9.29l-.56.64-.8-.26.8.26-.61.65c-4.7-5.67-11.49-8.7-18.31-8.7-3.45 0-6.9.77-10.09 2.35l-.04.02-.05.02c-3.06 1.05-5.7 3.66-8.45 6.3-2.75 2.63-5.62 5.31-9.3 6.19l-.17-.93.82.16-.08.57-.82-.16.69-.53c.88 1.51 1.58 3.2 2.1 4.99l.04.14.5 41.33-1.45 5.47-.8-.28.11-.94c2.52.37 5.01.48 7.5.48 3.44 0 6.89-.21 10.44-.21.4 0 .81 0 1.21.01l-.01.95-.73-.47c.08-.16.09-.26.09-.38 0-.13-.03-.29-.1-.51-.11-.33-.32-.74-.52-1.23s-.41-1.08-.41-1.79h.83l-.83.01-.33-29.56v-.05c.03-.45.05-.92.05-1.42 0-1.12-.07-2.33-.07-3.54 0-1.56.1-3.15.7-4.59.3-.72.72-1.39 1.3-1.95.58-.56 1.3-1.01 2.18-1.33l.25.91-.36-.86c1.67-.92 3.79-1.52 5.92-1.52 2.12 0 4.29.6 5.92 2.24l.05.05.05.06c.77 1.11 1.69 2.22 2.44 3.51.75 1.28 1.34 2.77 1.34 4.53 0 .14 0 .28-.01.42l-.83-.06.83.01v1.25c0 7.22.42 14.3.42 21.37 0 4.08-.14 8.16-.59 12.25l-.01.12-.04.11c-.14.39-.27.99-.53 1.6-.13.3-.31.62-.58.9-.26.28-.63.49-1.03.56l-.14-.94h.83v.29h-.83l.12-.94 2.25.38-.12.94-.02-.95c.74-.02 1.49-.03 2.25-.03 2.6 0 5.26.11 7.87.11 2.82 0 5.6-.13 8.18-.63l.14.94-.81.2c-.09-.52-.34-1.15-.6-1.88-.26-.73-.53-1.57-.58-2.55v-.02c-.1-3.08-.13-6.18-.13-9.26 0-3.55.04-7.1.04-10.62 0-5.95-.1-11.84-.65-17.57l.83-.1-.59.67-.25-.29-.2-.23-.04-.32c-.56-4.83-2.47-8.94-5.16-12.87l.66-.59-.43.82c-.28-.19-.44-.46-.54-.67-.15-.32-.2-.57-.24-.65l-.01-.02.29-.19-.21.28-.08-.1.29-.19-.21.28.32-.43-.1.56-.23-.13.32-.43-.1.56.16-.93.2.92c-.08.02-.18.04-.28.04-.17 0-.38-.05-.55-.19-.27-.2-.37-.49-.42-.67-.04-.19-.05-.32-.05-.43l.01-.2V69.09l.16.01h-.16v-.01l.16.01h-.16.83l-.46.79c-.2-.16-.28-.3-.36-.41-.1-.17-.17-.31-.21-.37l-.01-.02.33-.31-.26.38-.08-.08.33-.31-.26.38.44-.66v.82c-.24 0-.38-.11-.44-.16l.44-.66v.82-.87l.4.74c-.1.08-.26.13-.4.13v-.87l.4.74-.35-.65.59.37c-.03.05-.08.17-.24.28l-.35-.65.59.37-.33-.2.35.15-.02.05-.33-.2.35.15-.08-.03.08.03-.08-.03.08.03v.01l-.4 1.6-1-1.21.63-.59z"></path><path class="st3" d="M323 71.64c1.42 1.43 3.25 1.71 5 2.47-.25 1.72-1.17 3.14-1.5 4.76-.75 4.28-.42 9.24-.33 13.81l.08 28.66.92 4.57c-5.08.67-10.17.76-15.34.38-.42-.76-.92-2.29-2.08-1.52-1.33 1.05-2.75 2-4.25 2.38-9.17 3.81-19.84.57-27.17-6.29-1.42-1.43-2.16-2.28-3.25-3.59-.47-.53-1.45-1.99-1.75-2.6-3.92-6-5.49-13.41-5.82-21.03-.03-1.33.07-1.82.16-2.58 1.08-11.81 7.5-23.9 17.59-28.56 6.25-3.52 14.84-4 21.5-1.81 6.32 1.62 10.82 6.76 16.24 10.95m-20.97 8.16c-5.92-1.62-12 .57-15.42 6.38-.48 1.05-.67 1.71-.67 1.71-1.17 2.28-1.43 4.75-1.08 7.9.31 3.76 1.58 7.04 3.83 9.71l2.59 2.02 2.91 1.59c2.66.43 8.58.57 11.67-2.19 1.04-1.11 2.92-2.67 3-4.66 0-5.43.42-11.71-.42-17.05-1.49-2.74-4-4.17-6.41-5.41" fill="#0769B2"></path><path d="M323 71.63l.55-.71c.59.6 1.29.98 2.1 1.3.81.33 1.71.59 2.64 1l.64.28-.11.77c-.15 1-.48 1.86-.78 2.65-.31.78-.59 1.49-.73 2.17l-.81-.22.82.19c-.36 2.05-.46 4.3-.46 6.61 0 2.31.1 4.69.15 6.99v.01l.08 28.56 1.11 5.5-.93.12c-3.16.41-6.32.61-9.5.61-1.99 0-3.98-.08-5.99-.22l-.43-.03-.23-.41c-.2-.38-.38-.78-.54-1.03-.08-.12-.16-.21-.2-.23l-.04-.02c-.01 0-.06 0-.19.08l-.41-.83.47.78c-1.37 1.07-2.86 2.09-4.54 2.53l-.18-.93.28.9c-2.77 1.15-5.66 1.68-8.55 1.68-7.05 0-14.09-3.12-19.44-8.12l-.01-.01-.01-.01c-1.43-1.44-2.21-2.34-3.3-3.65l.6-.66-.59.67c-.29-.33-.65-.83-1.01-1.36-.36-.53-.68-1.05-.88-1.44l.72-.47-.67.57c-4.05-6.21-5.65-13.82-5.99-21.55v-.02c0-.18-.01-.34-.01-.49 0-1.06.1-1.62.17-2.24l.83.12-.83-.1c.56-6.06 2.48-12.18 5.56-17.39 3.08-5.21 7.33-9.54 12.55-11.95l.31.88-.37-.85c3.9-2.2 8.61-3.23 13.24-3.23 3.08 0 6.12.46 8.86 1.36l-.23.91.18-.93c3.31.85 6.12 2.61 8.76 4.65 2.64 2.05 5.11 4.38 7.78 6.44l.04.03.04.04-.52.7-.47.79c-2.75-2.13-5.23-4.46-7.78-6.44-2.55-1.98-5.16-3.6-8.18-4.37l-.02-.01-.02-.01c-2.58-.85-5.47-1.29-8.4-1.29-4.41 0-8.89 1-12.5 3.03l-.03.02-.03.01c-4.87 2.25-8.87 6.3-11.79 11.25s-4.75 10.78-5.28 16.53v.02c-.08.72-.15 1.07-.16 2 0 .13 0 .28.01.44l-.83.03.83-.05c.33 7.5 1.88 14.72 5.66 20.51l.03.05.03.05c.11.22.43.74.75 1.22.33.49.69.97.87 1.18l.01.01.01.01c1.09 1.3 1.79 2.12 3.2 3.53l-.55.71.53-.74c5.05 4.73 11.77 7.69 18.38 7.69 2.71 0 5.41-.5 7.98-1.56l.05-.02.05-.01c1.32-.33 2.66-1.21 3.96-2.24l.03-.02.03-.02c.32-.21.66-.33 1.01-.33.37 0 .71.15.97.35.38.3.61.68.8 1.01.18.33.32.65.42.82l-.71.5.05-.95c1.97.14 3.93.22 5.88.22 3.12 0 6.21-.19 9.31-.6l.1.95-.81.21-.94-4.67-.08-28.77h.83l-.83.02c-.04-2.27-.15-4.65-.15-7.03s.1-4.75.5-6.98v-.04c.2-.94.54-1.75.83-2.51.3-.76.56-1.47.66-2.18l.82.16-.33.89c-.82-.36-1.7-.62-2.61-.98-.9-.36-1.83-.84-2.65-1.67l.56-.72-.47.79.47-.79zm-20.97 8.17l-.19.93c-1.2-.33-2.41-.49-3.59-.49-4.37.01-8.41 2.19-10.94 6.48l-.69-.53.74.44c-.23.5-.39.9-.48 1.17-.05.14-.08.24-.1.31l-.02.07v.01l-.07-.03.07.03-.07-.03.07.03-.03.1-.05.09c-.77 1.52-1.11 3.1-1.11 5.04 0 .71.04 1.46.13 2.27v.03c.3 3.57 1.49 6.63 3.6 9.14l-.6.66.47-.79 2.54 1.98 2.85 1.56-.36.86.12-.94c.78.13 1.88.23 3.11.23 1.37 0 2.89-.13 4.31-.48 1.41-.35 2.7-.92 3.62-1.75l.51.75-.57-.7c.56-.59 1.26-1.24 1.81-1.94.27-.35.51-.71.67-1.06.16-.35.25-.68.26-1.02l.83.04h-.83c0-2.74.1-5.67.1-8.56 0-2.89-.1-5.75-.51-8.32l.82-.17-.71.5c-.67-1.24-1.57-2.19-2.62-3-1.04-.8-2.23-1.45-3.43-2.06l.34-.85-.19.93.19-.93.34-.87c1.22.63 2.49 1.31 3.68 2.22 1.18.91 2.28 2.05 3.11 3.57l.08.15.03.18c.43 2.76.53 5.71.53 8.66 0 2.94-.1 5.87-.1 8.56v.04c-.03.67-.2 1.27-.45 1.81-.37.81-.9 1.47-1.42 2.05-.52.58-1.04 1.07-1.4 1.45l-.03.03-.03.03c-1.21 1.08-2.73 1.72-4.3 2.11-1.57.39-3.2.52-4.66.52-1.31 0-2.48-.11-3.35-.25l-.13-.02-3.08-1.69-2.72-2.12-.06-.07c-2.38-2.82-3.74-6.34-4.06-10.28l.83-.09-.83.12c-.1-.87-.15-1.7-.15-2.5 0-2.19.4-4.17 1.34-6l.72.48-.79-.29c.01-.04.21-.75.72-1.87l.02-.05.03-.04c2.85-4.85 7.47-7.33 12.32-7.32 1.32 0 2.65.18 3.98.54l.08.02.07.04-.32.88z"></path><path class="st3" d="M143.23 80.84l-.33 37.04c.08 2.48.5 4.86.83 7.05.42.09 1 .38.67.95-5 .76-10.59.57-15.59.57-1.83-4.19-4.67 1.43-7.25 1.33-5.5 2-12.67 1.52-17.75-.86-10.34-3.9-18.84-16.38-19.92-28.66-.33-5.71 0-11.62 1.67-16.57.25-.76-.25-1.24-.67-1.52-2.12.08-4.62.03-6.83.09l-.58.95.08 41.23c-.08 1.52 1.67 3.24.33 4.19l-18.87-.01c-.25-1.33.79-2.84.95-4.18l.08-4.38-.33-35.99c-.17-.67-.5-1.52-1.25-1.71l-7-.1-.67.86c3.58 7.24 5.33 16.38 3.08 24.95-2 10.09-10.84 19.71-19.59 21.52-6.5 2-12.5-.67-18.75-1.33-1.92-.38-3.25.76-4.83 1.33-.5-9.05-.42-18.66.25-27.61h.42c4.58 5.81 10.34 10.09 17 8.67 3.33-.57 6.75-3.9 7.58-7.71 1.17-3.14.25-6.76-1.25-9.43-2-3.14-5.09-5.24-7.5-7.52-6.84-4.09-14.59-11.43-16-20.47-1.92-9.43.33-18.57 6.75-24.85 5.25-4.09 11.67-6.29 18.42-4.76 3 .76 6.75 1.9 9.67.38l.33.29c.08 7.71.33 15.52-.17 22.85-4.25-2.86-9.42-7.52-14.5-3.9-1.25.95-1.75 2.38-2.17 3.81.08 6.09 6.17 7.71 9.42 10.86 3.08 3.04 6.5 5.52 9.5 9.04l.92-.29c5.25-6 9.67-12.57 14.42-18.66l2.92-3.71c3.08-3.9 6-8.09 9.34-11.71.75-.29.58.67.75 1.14-.03 5.7.02 9.82.05 15.38-.08.95.61 2.04 1.53 2.33 3.21.19 6.49-.1 9.15.09l.27.86c.17 3.71-.08 7.81.58 11.14l.17.09c8.59-12.28 21.25-17.23 34.51-13.81 1.27.29 2.42.86 2.42.86 7.54 2.77 12 10.38 18.92 12.47.34.04.5.29.67.48l-1.85 6.94m-25.41-1.04c-5.58-1.24-11.17.95-14.34 6.19-3 4.38-2.83 11.62-.33 16.28 1.61 2.32 2.4 3.83 5.17 5.52 3.58 2.29 9.09 2.1 12.67.1 2.25-1.62 5.33-3.91 4.92-7.52l-.17-14.66c-1.75-3.15-4.83-5.15-7.92-5.91" fill="#0769B2"></path><path d="M143.23 80.83l.83.01-.33 37.04-.83-.01.83-.04c.08 2.38.48 4.71.82 6.92l-.82.16.16-.93c.23.06.49.14.78.33.14.1.29.23.42.43.13.2.24.5.24.81 0 .33-.1.62-.24.85l-.21.36-.37.06c-3.39.52-7.01.6-10.53.6-1.77 0-3.5-.02-5.17-.02h-.52l-.23-.53c-.21-.48-.41-.75-.56-.87a.598.598 0 00-.39-.16c-.19 0-.51.1-.9.34-.58.35-1.28.95-2.03 1.49-.75.53-1.58 1.05-2.57 1.06h-.1l.03-.95.25.91c-2.44.88-5.15 1.29-7.87 1.29-3.69 0-7.4-.75-10.45-2.18l.32-.88-.26.9c-5.35-2.02-10.18-6.23-13.82-11.5-3.64-5.27-6.1-11.61-6.67-17.97v-.04c-.08-1.3-.12-2.62-.12-3.93 0-4.53.5-9.05 1.84-13.04v.01l.01-.06h.02-.02.02-.02.01-.01.01-.01l-.08-.11c-.06-.06-.15-.14-.25-.21l.43-.81.03.95c-2.15.08-4.65.03-6.84.09l-.02-.95.68.55-.43.71.08 40.96v.08c-.01.25.13.71.35 1.24.1.26.22.55.31.85.09.31.18.64.18 1.04 0 .31-.06.67-.22.98-.16.32-.4.58-.67.77l-.2.14-19.79-.01-.14-.75a3.44 3.44 0 01-.06-.63c.01-.86.27-1.59.5-2.25.24-.65.45-1.23.5-1.63l.83.13-.83-.02.08-4.36-.33-35.98.83-.01-.8.26c-.07-.28-.17-.57-.29-.75-.12-.19-.21-.26-.34-.3l.18-.93-.01.95-6.62-.09-.42.53-.62-.63.73-.47c2.55 5.14 4.2 11.22 4.2 17.44 0 2.75-.32 5.52-1.04 8.25l-.8-.27.81.21c-1.05 5.28-3.85 10.34-7.5 14.34s-8.17 6.95-12.75 7.9l-.15-.94.22.92c-1.8.55-3.56.76-5.28.76-4.8-.01-9.29-1.6-13.77-2.07h-.03l-.03-.01c-.22-.04-.42-.06-.62-.06-.62 0-1.18.18-1.8.46-.61.27-1.27.63-2.02.91l-1.02.37-.07-1.21c-.22-3.9-.32-7.91-.32-11.92 0-5.34.19-10.69.57-15.83l.06-.87H11.73l.25.31c1.95 2.47 4.1 4.64 6.41 6.18 2.31 1.54 4.77 2.45 7.39 2.45.79 0 1.6-.08 2.42-.26h.03c1.47-.25 3.04-1.14 4.3-2.42 1.27-1.27 2.23-2.92 2.6-4.59l.02-.07.03-.07c.32-.86.46-1.77.46-2.7 0-2.01-.69-4.14-1.65-5.84l.7-.51-.67.56c-1.86-2.94-4.86-5-7.36-7.35l.53-.73-.39.84c-3.48-2.09-7.19-4.99-10.24-8.56-3.04-3.56-5.44-7.81-6.19-12.59l.82-.17-.81.22c-.45-2.23-.68-4.45-.68-6.63-.01-7.31 2.58-14.15 7.7-19.16l.03-.03.04-.03c4.23-3.3 9.22-5.41 14.56-5.41 1.48 0 2.98.16 4.49.5h.02c1.94.49 4.12 1.11 6.09 1.11 1.11 0 2.14-.19 3.05-.66l.45-.24.73.62.33.28.01.47c.04 4.11.14 8.25.14 12.35 0 3.58-.07 7.13-.31 10.59L46.94 59l-1.15-.77c-1.61-1.08-3.29-2.37-5.01-3.38-1.72-1.01-3.45-1.72-5.12-1.71-1.17 0-2.32.33-3.51 1.18l-.44-.81.46.79c-.51.39-.85.85-1.14 1.41-.28.56-.5 1.21-.7 1.9l-.79-.3.83-.02c.02 1.34.35 2.38.9 3.3.82 1.38 2.2 2.5 3.72 3.54 1.52 1.05 3.17 2.02 4.5 3.3l.01.01c3.02 2.99 6.46 5.48 9.55 9.1l-.6.67-.22-.92.92-.29.22.92-.59-.67c5.2-5.94 9.61-12.49 14.39-18.62l.01-.01 2.91-3.71c3.06-3.87 5.99-8.08 9.38-11.76l.14-.15.18-.07c.16-.06.32-.1.51-.1.16 0 .33.04.5.12.29.15.48.43.57.65.13.33.15.57.18.76l.03.22.01.05.06.17v.19c-.01 1.24-.01 2.4-.01 3.52 0 4.02.04 7.49.06 11.84v.16c0 .19.08.48.26.73s.43.45.66.52l-.22.92.04-.95c.84.05 1.7.06 2.55.06 1.44 0 2.87-.04 4.23-.04.82 0 1.62.02 2.38.07l.54.04.5 1.58.01.14c.16 3.79-.07 7.85.56 10.98l-.81.21.37-.85.17.1-.37.85-.65-.59c6.95-9.95 16.58-15.23 27.03-15.22 2.73 0 5.51.36 8.32 1.08l-.18.93.17-.93c1.37.32 2.55.9 2.58.92l-.33.88.25-.91c3.94 1.45 7.02 4.13 9.94 6.63 2.92 2.51 5.68 4.84 8.94 5.82l-.21.92.08-.95c.33.03.63.2.82.37.19.17.3.32.35.38l.35.4-1.98 7.5-.82-.27.83.01-.83-.01-.8-.27 1.83-6.95.8.27-.59.67c-.11-.13-.17-.2-.19-.21l.04-.07-.01.08-.03-.01.04-.07-.01.08-.07-.01-.06-.02c-3.66-1.11-6.59-3.64-9.51-6.14-2.92-2.52-5.85-5.02-9.45-6.34l-.04-.01-.04-.02-.04-.02c-.21-.1-1.19-.55-2.21-.78h-.02a31.52 31.52 0 00-7.95-1.04c-9.95.01-19.06 4.98-25.72 14.51l-.42.6-.77-.44-.35-.2-.09-.44c-.7-3.54-.43-7.67-.6-11.3l.83-.05-.78.33-.27-.86.78-.32-.05.95c-.71-.05-1.47-.07-2.27-.07-1.33 0-2.76.05-4.23.05-.87 0-1.75-.02-2.63-.07l-.09-.01-.09-.03c-.63-.2-1.15-.63-1.53-1.17-.37-.54-.62-1.2-.63-1.92l.01-.25.83.1h-.83c-.02-4.35-.06-7.82-.06-11.86 0-1.12 0-2.29.01-3.54l.83.01-.77.36c-.08-.24-.1-.42-.13-.57-.02-.11-.03-.21-.04-.27l-.02-.08.19-.07-.17.11-.02-.04.19-.07-.17.11.43-.28-.26.47a.658.658 0 01-.17-.2l.43-.28-.26.47.26-.47v.56l-.26-.09.26-.47v.56-.25l.04.25h-.04v-.25l.04.25-.02.01-.26-.9.57.69c-3.28 3.56-6.18 7.72-9.29 11.66l-2.92 3.71c-4.72 6.06-9.15 12.65-14.45 18.7l-.16.18-1.6.5-.34-.4c-2.91-3.42-6.3-5.89-9.45-8.99l.54-.72-.54.73c-1.48-1.45-3.81-2.64-5.84-4.27-1.01-.82-1.96-1.76-2.68-2.95-.72-1.19-1.17-2.64-1.19-4.35v-.16l.04-.15c.21-.73.46-1.51.84-2.26.38-.75.91-1.47 1.65-2.04l.01-.01.01-.01c1.44-1.03 2.94-1.47 4.4-1.46 2.08 0 4.05.85 5.88 1.92 1.83 1.08 3.55 2.4 5.09 3.43l-.42.82-.83-.07c.23-3.38.3-6.88.3-10.44 0-4.07-.09-8.2-.14-12.33l.83-.01-.5.76-.33-.29.5-.76.35.87c-1.19.62-2.47.84-3.74.84-2.27 0-4.55-.67-6.45-1.15l.18-.93-.16.93c-1.41-.32-2.8-.47-4.17-.47-4.95 0-9.62 1.96-13.62 5.08l-.47-.79.54.72c-4.76 4.67-7.12 10.91-7.12 17.71 0 2.03.21 4.1.64 6.2v.04c.67 4.26 2.85 8.21 5.75 11.59 2.89 3.38 6.47 6.19 9.82 8.2l.08.04.07.06c2.34 2.23 5.5 4.35 7.64 7.7l.01.02.01.02c1.09 1.95 1.91 4.36 1.91 6.87 0 1.15-.18 2.33-.59 3.45l-.77-.37.81.23c-.47 2.14-1.63 4.06-3.11 5.55-1.48 1.49-3.3 2.55-5.16 2.87l-.12-.94.15.94c-.93.2-1.84.29-2.73.29-2.96 0-5.72-1.04-8.23-2.71-2.51-1.67-4.78-3.97-6.81-6.55l.62-.64v.95h-.42v-.95l.83.08c-.38 5.08-.57 10.38-.57 15.67 0 3.97.11 7.94.32 11.8l-.83.06-.25-.91c.61-.22 1.23-.56 1.92-.87.7-.31 1.49-.58 2.4-.58.29 0 .59.03.91.09l-.14.94.08-.95c4.71.51 9.15 2.07 13.62 2.06 1.6 0 3.21-.2 4.84-.7l.03-.01.04-.01c4.17-.86 8.45-3.62 11.9-7.4 3.45-3.78 6.08-8.57 7.03-13.39l.01-.03.01-.03c.66-2.53.97-5.12.97-7.7 0-5.83-1.56-11.61-3.98-16.5l-.29-.59 1.32-1.69 7.47.1.08.02c.62.15 1.07.61 1.34 1.06.28.46.43.93.53 1.32l.03.12.33 36.14-.08 4.45-.01.06c-.1.79-.39 1.47-.61 2.09-.23.61-.38 1.16-.38 1.52l.02.23-.81.2v-.95l18.87.01v.95l-.44-.81c.09-.07.11-.1.11-.1v-.04c0-.06-.02-.2-.08-.4-.09-.3-.26-.7-.43-1.14-.16-.45-.33-.97-.33-1.58v-.17l.83.06h-.83l-.08-41.53.98-1.59.42-.01c2.24-.07 4.74-.02 6.83-.09l.25-.01.21.14c.21.15.46.34.69.64.23.3.45.76.44 1.3 0 .24-.04.49-.12.73v.01c-1.24 3.69-1.73 7.99-1.73 12.36 0 1.27.04 2.54.11 3.8l-.83.06.83-.1c.52 5.92 2.85 11.96 6.32 16.98 3.46 5.02 8.06 9 13.04 10.87l.03.01.03.01c2.8 1.31 6.33 2.04 9.82 2.04 2.58 0 5.13-.39 7.37-1.21l.14-.05.15.01h.03c.27 0 .63-.12 1.04-.35.62-.35 1.31-.94 2.03-1.47.36-.27.73-.52 1.13-.72.39-.2.82-.35 1.29-.35.47 0 .98.18 1.4.54.42.37.75.88 1.04 1.54l-.75.43v-.95c1.68 0 3.42.02 5.17.02 3.49 0 7.04-.08 10.31-.58l.11.94-.69-.53.15.12-.17-.07.02-.05.15.12-.17-.07.4.16h-.43l.02-.16.4.16h-.43.48l-.38.33a.684.684 0 01-.09-.33h.48l-.38.33.2-.17-.15.24-.05-.06.2-.17-.15.24-.02-.01-.22-.08-.56-.13-.1-.64c-.33-2.17-.76-4.6-.85-7.17v-.02l.33-37.2.03-.13.79.27zm-25.4-1.03l-.16.93c-.97-.21-1.93-.32-2.88-.32-4.26 0-8.18 2.11-10.61 6.12l-.01.02-.02.02c-1.38 2.01-2.05 4.76-2.05 7.58 0 2.73.63 5.5 1.77 7.62l-.71.5.65-.59c.82 1.18 1.41 2.11 2.09 2.92.69.81 1.49 1.54 2.81 2.35h.02c1.61 1.03 3.72 1.54 5.85 1.54 2.18 0 4.37-.53 6.04-1.46l.37.86-.44-.8c1.05-.75 2.24-1.63 3.12-2.65.44-.51.81-1.05 1.06-1.61s.39-1.15.39-1.8c0-.17-.01-.35-.03-.53l-.01-.06-.17-14.72.83-.01-.7.51c-1.59-2.87-4.48-4.77-7.39-5.48l.18-.94-.16.93.16-.93.18-.93c3.26.81 6.53 2.9 8.45 6.32l.13.23.17 14.94-.83.01.83-.12c.03.26.04.52.04.78 0 .97-.22 1.87-.57 2.66-.53 1.19-1.34 2.14-2.2 2.96-.86.81-1.79 1.48-2.58 2.06l-.04.03-.04.02c-1.96 1.09-4.36 1.65-6.77 1.66-2.36 0-4.73-.54-6.67-1.78l.41-.83-.39.84c-1.44-.88-2.42-1.76-3.22-2.7-.8-.95-1.41-1.93-2.2-3.07l-.03-.05-.03-.05c-1.32-2.47-2.02-5.55-2.02-8.61 0-3.15.74-6.32 2.41-8.75l.66.58-.69-.54c2.75-4.56 7.24-6.94 11.98-6.94 1.06 0 2.13.12 3.2.36h.02l-.2.92z"></path><path class="st3" d="M105.98 14l.67-.64.35.46.43 8.49c1.38.9 3.63.46 5.13.27l.39-.87c-.21-4.21.18-9.05-.65-12.93 2.65-.61 5.65-.68 8.39-.59.34.07.82.21.97.68l.57 12.39c1.12 1.38 2.66-.3 4.16-.1 5.52-.37 10.77 3.1 13.13 8.5 2.44 6.73.79 13.28 1.27 20.75.09 1.4.66 2.64.62 3.96l-1.16.26c-2.86.15-5.93.22-8.67-.18.29-6.48.39-11.9 0-18.6-.1-1.64-1.01-3.1-2.26-4-1.52-1.06-3.83-.61-5.25.36-1.08.88-1.94 2.23-1.7 3.86-.16 6.09.12 10.41.17 16.57.01.78.78 1.7.18 2.26-3.07.31-6.54.47-9.56.15-.42-.85.31-1.72.23-2.66l-.34-18.59c-.79-2.01-3.09-1.17-4.6-1.29-.68.09-.87.88-1 1.5l.21 18.83c.01.78.57 1.47.38 2.33l-.95.26-8.95-.25c-.7-.84.51-1.96.21-3.2.08-6.63.12-11.97-.21-18.59-1.46-1.6-4.1-.14-5.76-1.11l-.01-.47L105.98 14" fill="#0769B2"></path><path d="M105.98 13.99l-.53-.73.67-.64.63-.6 1.07 1.41.44 8.81-.83.05.41-.83c.43.29 1.12.43 1.9.42.9 0 1.89-.17 2.72-.27l.09.95-.74-.44.39-.87.74.44-.83.06c-.11-2.16-.06-4.43-.1-6.63-.03-2.2-.14-4.32-.53-6.13l-.2-.96.85-.2c2.15-.49 4.47-.64 6.7-.64.64 0 1.26.01 1.88.03h.06l.06.01c.2.04.48.11.78.28.15.09.31.2.46.37.15.17.28.39.36.65l.04.13.57 12.53-.83.05.61-.65c.09.11.16.16.23.19s.14.05.25.05c.24.01.64-.12 1.12-.29.48-.16 1.04-.37 1.69-.37.12 0 .23.01.35.02l-.09.95-.05-.95c.28-.02.57-.03.85-.03 5.54 0 10.68 3.57 13.07 9.05l.01.03.01.03c1.18 3.24 1.44 6.42 1.44 9.59 0 2.78-.2 5.55-.2 8.4 0 1.01.02 2.02.09 3.05.04.55.17 1.13.32 1.76.14.63.3 1.33.3 2.12v.18l-.02.75-1.86.42h-.06a73.2 73.2 0 01-3.96.12c-1.65 0-3.3-.08-4.86-.31l-.77-.11.04-.88c.15-3.46.26-6.61.26-9.81 0-2.78-.08-5.59-.26-8.68-.07-1.26-.81-2.49-1.87-3.26l.45-.8-.43.81c-.45-.31-1.04-.47-1.69-.47-.95 0-2 .35-2.7.83l-.43-.82.49.77c-.41.34-.77.74-1.02 1.18-.25.44-.38.89-.38 1.37 0 .12.01.25.03.38l.03.14v.09c-.04 1.31-.05 2.54-.05 3.72 0 4.27.18 7.96.22 12.82l-.83.01.83-.02c-.01.03.04.25.15.54.09.3.25.65.26 1.19 0 .21-.03.45-.13.69-.09.23-.24.44-.41.6l-.2.18-.25.03c-1.91.19-3.98.33-6.01.33-1.26 0-2.51-.05-3.7-.18l-.43-.05-.21-.43c-.17-.34-.25-.73-.24-1.06 0-.53.14-.92.22-1.24.09-.32.14-.55.14-.68v-.1l-.35-18.63.83-.02-.76.39c-.15-.36-.3-.49-.55-.62-.25-.12-.64-.18-1.09-.18-.56 0-1.21.08-1.85.09-.13 0-.27 0-.4-.02l.06-.95.1.95-.03.01s-.05.05-.11.2c-.05.14-.1.34-.14.56l-.83-.22.83-.01.21 18.83v-.01c0 .11.05.33.17.66.1.32.26.76.26 1.33 0 .19-.02.39-.06.59l-.12.56-1.55.42-9.4-.27-.24-.29c-.3-.35-.46-.86-.45-1.28.01-.59.19-1 .3-1.36.12-.35.19-.63.19-.81l-.02-.17-.03-.13v-.13c.03-2.55.06-4.91.06-7.22 0-3.69-.06-7.25-.26-11.3l.83-.05-.58.69c-.19-.21-.4-.33-.69-.42-.28-.09-.63-.12-1.03-.12-.53 0-1.12.06-1.75.06-.68 0-1.4-.07-2.1-.47l-.44-.26-.02-1.03-.01-.37 13.86-18.13.05-.05.53.73.63.63-13.39 17.52v.1l-.83.02.38-.85c.31.19.77.26 1.34.26.52 0 1.12-.06 1.75-.06.47 0 .96.03 1.45.18s.99.42 1.41.89l.24.26.02.37c.2 4.09.27 7.7.27 11.41 0 2.33-.02 4.7-.06 7.25l-.83-.01.8-.25c.05.23.08.45.08.66 0 .62-.17 1.11-.3 1.48-.13.37-.2.65-.19.68l-.1.02.09-.05.01.03-.1.02.09-.05-.6.66.02-.95 8.84.25.85-.23.19.93-.81-.23.01-.13c0-.13-.05-.35-.16-.66-.1-.31-.25-.73-.27-1.28l-.21-18.94.02-.11c.07-.33.15-.77.39-1.23.12-.23.28-.46.51-.65.23-.19.51-.32.82-.36l.08-.01.08.01c.09.01.18.01.28.01.5 0 1.16-.08 1.85-.09.56 0 1.15.05 1.73.33.58.27 1.13.82 1.43 1.6l.07.18.35 18.78-.83.02.83-.1.01.25c0 .53-.13.95-.22 1.27-.1.32-.15.55-.14.65l.02.11-.72.47.08-.95c1.12.12 2.32.17 3.54.17 1.97 0 3.99-.13 5.86-.32l.07.95-.53-.74.13.18-.18-.1.05-.09.13.18-.18-.1.2.1h-.22l.02-.1.2.1h-.22v-.03c-.01-.08-.08-.3-.18-.58-.09-.28-.21-.62-.23-1.09v-.02c-.04-4.8-.22-8.5-.22-12.83 0-1.2.01-2.44.05-3.77l.83.03-.82.16c-.03-.23-.05-.47-.05-.69 0-.9.26-1.73.65-2.41.39-.68.9-1.24 1.44-1.69l.03-.02.03-.02c.99-.67 2.26-1.1 3.55-1.1.88 0 1.77.2 2.56.75l.01.01h.01c1.42 1.04 2.52 2.73 2.64 4.74.19 3.14.26 6 .26 8.81 0 3.24-.1 6.43-.26 9.9l-.83-.05.11-.94c1.46.21 3.04.29 4.64.29 1.3 0 2.61-.05 3.89-.12l.04.95-.16-.93 1.16-.26.16.93-.83-.03v-.11c0-.48-.11-1.02-.25-1.64-.14-.62-.31-1.31-.37-2.11-.07-1.09-.1-2.15-.1-3.2 0-2.95.2-5.73.2-8.4 0-3.05-.26-5.94-1.32-8.86l.77-.36-.75.42c-2.08-4.8-6.67-8-11.58-8-.25 0-.5.01-.75.02h-.07l-.07-.01-.17-.01c-.32 0-.74.12-1.2.29-.47.16-.99.37-1.61.37-.28 0-.59-.05-.89-.19-.3-.14-.58-.37-.82-.66l-.21-.25-.58-12.73.83-.05-.78.32.14-.06-.11.12-.03-.07.14-.06-.11.12.01-.01-.01.02.01-.01-.01.02c-.01-.02-.18-.1-.37-.13l.15-.94-.02.95c-.6-.02-1.21-.03-1.83-.03-2.16 0-4.39.15-6.37.6l-.17-.93.81-.22c.44 2.06.54 4.3.57 6.55.03 2.25-.01 4.5.09 6.55l.01.26-.71 1.55-.44.06c-.78.1-1.84.28-2.91.29-.92 0-1.88-.13-2.72-.67l-.39-.26-.44-8.68-.16-.21.63-.62.53.73-.67.64-.51-.73.63.63-.63-.63z"></path><path class="st3" d="M157.29 21.87c8.64-.7 12.19 6.33 12.19 6.33l.89 1.4.89 1.4c-2.15 2.63-4.45 4.69-6.78 6.75-2.33 2.06-4.69 4.12-6.97 6.75-.16.19-.12.4-.01.58.11.18.31.32.47.35.86.05 1.81-.02 2.95-.26 1.15-.24 2.5-.66 4.17-1.3l1.67-.69 1.67-.69.2.47.2.47s-.1 1.33-1.81 5.28-4.84 4.94-4.84 4.94c-3.33 1.01-5.14 1.11-7.77.58-2.63-.54-5.1-1.8-7.14-3.83-2.07-2.02-3.49-4.01-4.32-6.28-.83-2.27-1.07-4.82-.78-7.95.09-4.6 2.36-8.02 5.27-10.5.03-.02 3.58-3.3 9.85-3.8m-1.44 8.71c-2.5 1.55-3.75 4.38-3.85 7.36.09.61.11 1.75.95 1.47l5.97-4.96c1.12-1.43 3.26-2.18 3.22-4.2-1.79-1.09-4.63-.85-6.29.33" fill="#0769B2"></path><path d="M157.29 21.86l-.06-.95c.43-.03.84-.05 1.25-.05 4.09 0 7.04 1.69 8.93 3.39 1.89 1.7 2.76 3.39 2.79 3.46l-.72.48.67-.56.89 1.4 1.3 2.04-.47.57c-2.2 2.7-4.54 4.79-6.88 6.85-2.33 2.06-4.66 4.09-6.88 6.67l-.59-.67.6.66-.35-.38h.48c.01.14-.07.32-.13.38l-.35-.38h.48-.37l.31-.25c.01.02.06.09.06.25h-.37l.31-.25-.06.05.05-.06.01.01-.06.05.05-.06.01.01-.09.2.03-.22.06.02-.09.2.03-.22-.15.94.04-.95c.16.01.33.02.5.02.66 0 1.39-.08 2.26-.26 1.1-.23 2.41-.63 4.05-1.27l.27.9-.28-.89 1.67-.69 2.38-.99.53 1.24.2.47.1.24-.02.26c-.02.19-.16 1.61-1.89 5.62-.93 2.16-2.26 3.52-3.35 4.33-1.09.81-1.96 1.09-2.01 1.11h-.01c-2.07.63-3.62.93-5.16.93-.97 0-1.92-.12-2.97-.34-2.76-.56-5.38-1.9-7.54-4.05v.01c-2.13-2.08-3.66-4.19-4.55-6.64-.65-1.78-.96-3.72-.96-5.89 0-.81.04-1.65.12-2.53l.83.1-.83-.02c.05-2.48.69-4.66 1.7-6.53s2.39-3.42 3.9-4.72l.5.76-.52-.74c.08-.07 3.78-3.47 10.29-3.99l.06.93.06.95c-3.02.24-5.38 1.15-6.97 2-.8.42-1.41.83-1.81 1.12-.2.15-.35.27-.45.35l-.11.09-.02.02-.18-.26.18.26-.18-.26.18.26-.01.01-.01.01c-1.39 1.18-2.61 2.58-3.48 4.19a12.01 12.01 0 00-1.45 5.57v.08c-.08.82-.12 1.59-.12 2.33 0 1.97.27 3.63.83 5.16.77 2.09 2.08 3.96 4.1 5.93 1.92 1.9 4.25 3.1 6.74 3.61.99.2 1.83.31 2.68.31 1.34 0 2.72-.26 4.73-.87l.21.92-.22-.92.04.18-.05-.18.04.18-.05-.18c.03-.01.75-.26 1.64-.94.89-.68 1.93-1.78 2.68-3.51.84-1.94 1.28-3.22 1.5-3.99.11-.39.17-.65.2-.8l.03-.15h.02-.02.02-.02l.83.08-.75.42-.2-.47-.2-.47.75-.42.28.9-1.67.69-1.68.7h-.01c-1.69.65-3.08 1.08-4.28 1.33-.95.2-1.79.29-2.56.29-.2 0-.4-.01-.59-.02h-.05l-.05-.01c-.23-.05-.4-.14-.56-.26-.16-.12-.31-.27-.44-.47-.13-.21-.26-.49-.26-.87-.01-.33.13-.7.34-.94v-.01c2.32-2.69 4.72-4.78 7.05-6.84 2.33-2.06 4.59-4.08 6.68-6.64l.61.65-.67.56-.89-1.4-.92-1.44-.02-.04.22-.15-.22.15.22-.15-.22.15c-.01-.03-.79-1.52-2.46-2.99-1.67-1.47-4.2-2.91-7.83-2.92-.37 0-.74.02-1.13.05l-.05-.93zm-1.44 8.72l.4.84c-1.11.69-1.93 1.65-2.5 2.78-.56 1.13-.87 2.43-.92 3.78l-.83-.04.82-.16c.04.33.08.66.12.81l.02.06-.11.07.09-.09.01.02-.11.07.09-.09-.25.25.14-.34.11.09-.25.25.14-.34-.14.33v-.37l.14.04-.14.33v-.37.11l-.02-.11h.02v.11l-.02-.11.02-.01.24.91-.49-.77 5.97-4.96.49.77-.62-.64c.69-.86 1.53-1.41 2.13-1.97.3-.27.53-.54.67-.78.14-.25.21-.46.21-.76v-.04l.83-.01-.4.84c-.62-.38-1.48-.59-2.37-.59-1.14 0-2.32.34-3.08.89l-.02.02-.02.01-.37-.83-.44-.81c1.11-.78 2.54-1.17 3.96-1.17 1.11 0 2.21.24 3.16.82l.43.27.01.56v.06c0 .69-.2 1.32-.48 1.81-.44.74-1.03 1.24-1.57 1.69-.55.45-1.06.86-1.38 1.28l-.06.07-6.15 5.12-.14.05c-.15.05-.31.08-.48.08-.35.01-.72-.17-.94-.43-.33-.39-.41-.79-.48-1.11-.06-.32-.08-.61-.11-.77l-.01-.1v-.1c.05-1.63.42-3.23 1.13-4.65.71-1.42 1.77-2.65 3.15-3.51l.4.84-.44-.81.44.81z"></path><path class="st3" d="M247.1 51c.05-5.79 0-10.55-.83-15.19 5.67-.48 11.17-.19 16.92-.29 1-.08 1.17.48 1.59.76l-.25 73.79c.83 1.59 1.61 2.74 2 4.76-1.08 1.24-2.75.86-3.83 1.81-8.33 7.62-17.34 13.81-28.67 12.28-3.42-.29-6.33-1.71-9.42-2.76-11.08-5.05-18.25-18.66-18.34-32.09.25-3.05.5-6 1.25-8.85.08-.57.17-1.77.83-3.05 2.67-8.66 9.42-16.85 17-19.9 2.48-1.32 2.93-.9 4.92-1.62 3.83-.86 8.58-.86 12.42 0 0 0 1.96.51 2.46.51l1.87.06.08-10.22m-6 28.9c-5.42-1.62-11.17.29-14.84 5.33l-2.08 5.33c-1.08 4.76.42 8.95 2.17 12.85 2 3.05 4.84 4.38 7.67 5.62 4.75 1.53 9.67-.29 13-4.38.33-6.67.58-13.62-.25-20.19-1.5-2.09-3.59-3.61-5.67-4.56" fill="#0769B2"></path><path d="M247.1 50.99l-.83-.01c.01-.96.01-1.89.01-2.79 0-4.54-.15-8.43-.83-12.19l-.19-1.06.95-.08c2.86-.24 5.67-.29 8.48-.29 1.87 0 3.74.02 5.63.02.95 0 1.9 0 2.86-.02l.01.95-.06-.95.24-.01c.56-.01 1.05.2 1.35.46.3.26.43.43.48.44l.41.28-.25 74.33h-.83l.72-.49c.4.77.81 1.46 1.18 2.25s.7 1.68.92 2.79l.1.51-.32.37c-.36.41-.78.69-1.18.88-.6.28-1.18.39-1.65.52-.48.13-.84.27-1.09.49l-.51-.75.52.74c-3.76 3.44-7.68 6.61-11.93 8.93-4.24 2.32-8.82 3.79-13.83 3.79-1.15 0-2.33-.08-3.53-.24l.1-.94-.06.95c-3.59-.31-6.57-1.78-9.59-2.8l-.04-.01-.04-.02c-5.73-2.61-10.42-7.41-13.69-13.27-3.27-5.86-5.13-12.79-5.17-19.69v-.1c.25-3.05.5-6.06 1.28-9.04l.8.27-.82-.16c.04-.24.08-.74.21-1.33.13-.6.34-1.31.73-2.05l.72.49-.79-.32c1.38-4.48 3.8-8.8 6.84-12.4 3.05-3.6 6.73-6.5 10.67-8.08l.28.9-.36-.84c1.28-.69 2.12-.95 2.83-1.11.72-.16 1.25-.22 2.19-.56l.04-.02.05-.01c1.98-.44 4.17-.66 6.37-.66s4.39.22 6.37.66h.02l.31.08c.28.07.72.18 1.12.26l.55.11c.15.03.28.04.29.04h.01l1.04.04.08-9.26h.83l.83.01-.09 11.21-2.73-.09.02-.95v.95c-.23 0-.45-.04-.73-.09-.8-.15-1.91-.44-1.91-.44l.18-.93-.16.93c-1.86-.42-3.95-.63-6.05-.63-2.1 0-4.2.21-6.05.63l-.16-.93.25.91c-1.06.38-1.74.47-2.37.61-.62.14-1.25.33-2.45.97l-.04.02-.04.02c-3.65 1.46-7.13 4.19-10.02 7.61-2.89 3.42-5.18 7.53-6.47 11.71l-.03.09-.04.08a6 6 0 00-.54 1.53c-.1.47-.14.85-.18 1.19l-.01.06-.02.06c-.72 2.74-.97 5.62-1.22 8.67l-.83-.09.83-.01c.04 6.52 1.81 13.12 4.91 18.68 3.11 5.57 7.54 10.09 12.9 12.53l-.31.88.24-.91c3.15 1.08 6 2.46 9.24 2.73h.04c1.13.15 2.25.23 3.33.23 4.73 0 9.04-1.38 13.11-3.6 4.07-2.23 7.89-5.31 11.61-8.71l.01-.01c.76-.66 1.58-.79 2.24-.97.33-.08.63-.17.88-.29.25-.12.45-.26.63-.46l.59.67-.81.2a9.13 9.13 0 00-.76-2.3c-.32-.68-.72-1.36-1.15-2.18l-.12-.23.25-74.06h.83l-.43.82c-.35-.25-.49-.46-.58-.52-.09-.06-.11-.1-.38-.11l-.13.01h-.04c-.97.02-1.93.02-2.89.02-1.9 0-3.77-.02-5.63-.02-2.79 0-5.56.05-8.36.28l-.06-.95.82-.19c.71 3.96.87 7.99.87 12.57 0 .91-.01 1.85-.02 2.82l-.8-.03zm-6 28.9l-.21.92c-1.19-.36-2.4-.53-3.59-.53-3.94 0-7.74 1.9-10.39 5.55l-.64-.61.76.39-2.09 5.33-.76-.39.81.24a13.32 13.32 0 00-.34 3.02c0 3.19 1.11 6.21 2.44 9.16l-.74.43.67-.57c.92 1.4 2.03 2.41 3.27 3.23 1.24.82 2.62 1.45 4.03 2.07l-.3.89.22-.92c1.05.34 2.12.5 3.16.5 3.36 0 6.61-1.67 9-4.61l.61.65-.83-.05c.17-3.33.31-6.71.31-10.07 0-3.36-.15-6.7-.55-9.93l.83-.14-.65.6c-1.38-1.94-3.35-3.39-5.33-4.29l.31-.87-.21.92.21-.92.31-.88c2.19 1 4.39 2.6 6 4.85l.15.2.03.26c.42 3.35.57 6.77.57 10.2 0 3.42-.15 6.84-.31 10.18l-.02.34-.21.25c-2.69 3.3-6.37 5.22-10.22 5.22-1.2 0-2.41-.19-3.61-.57l-.04-.01-.04-.02c-1.42-.62-2.88-1.28-4.27-2.2-1.38-.91-2.69-2.09-3.77-3.74l-.04-.07-.03-.07c-1.35-3.02-2.62-6.32-2.62-10.03 0-1.13.12-2.3.39-3.5l.02-.08 2.16-5.52.07-.1c2.97-4.1 7.26-6.24 11.67-6.24 1.34 0 2.69.2 4.02.59l.05.02.05.02-.31.9z"></path></svg>