<svg xmlns:xlink="http://www.w3.org/1999/xlink" aria-labelledby="fmtLogo" class="header-logo-image logo-fmt" role="img" viewBox="0 0 526.06 206.75" x="0" xmlns="http://www.w3.org/2000/svg" y="0" width="526.06"  height="206.75" ><defs><linearGradient gradientTransform="matrix(308.881 0 0 -308.881 40512.926 165706.39)" gradientUnits="userSpaceOnUse" id="SVGID_1_" x1="-131.163" x2="-129.455" y1="536.139" y2="536.139"><stop offset="0" stop-color="#010101"></stop><stop offset=".029" stop-color="#232323"></stop><stop offset=".095" stop-color="#646362"></stop><stop offset=".16" stop-color="#c2c1c1"></stop><stop offset=".189" stop-color="#b0afaf"></stop><stop offset=".245" stop-color="#8a8988"></stop><stop offset=".323" stop-color="#565454"></stop><stop offset=".417" stop-color="#191a19"></stop><stop offset=".442" stop-color="#010101"></stop><stop offset=".449" stop-color="#0d0d0d"></stop><stop offset=".516" stop-color="#504f4e"></stop><stop offset=".571" stop-color="#878585"></stop><stop offset=".61" stop-color="#afaeae"></stop><stop offset=".63" stop-color="#c2c1c1"></stop><stop offset=".834" stop-color="#c2c1c1"></stop><stop offset=".851" stop-color="#b0afaf"></stop><stop offset=".884" stop-color="#8a8988"></stop><stop offset=".93" stop-color="#565454"></stop><stop offset=".985" stop-color="#191a19"></stop><stop offset="1" stop-color="#010101"></stop></linearGradient><linearGradient gradientTransform="matrix(308.881 0 0 -308.881 40512.926 165706.39)" gradientUnits="userSpaceOnUse" id="SVGID_1_" x1="-131.163" x2="-129.455" y1="536.139" y2="536.139"><stop offset="0" stop-color="#010101"></stop><stop offset=".029" stop-color="#232323"></stop><stop offset=".095" stop-color="#646362"></stop><stop offset=".16" stop-color="#c2c1c1"></stop><stop offset=".189" stop-color="#b0afaf"></stop><stop offset=".245" stop-color="#8a8988"></stop><stop offset=".323" stop-color="#565454"></stop><stop offset=".417" stop-color="#191a19"></stop><stop offset=".442" stop-color="#010101"></stop><stop offset=".449" stop-color="#0d0d0d"></stop><stop offset=".516" stop-color="#504f4e"></stop><stop offset=".571" stop-color="#878585"></stop><stop offset=".61" stop-color="#afaeae"></stop><stop offset=".63" stop-color="#c2c1c1"></stop><stop offset=".834" stop-color="#c2c1c1"></stop><stop offset=".851" stop-color="#b0afaf"></stop><stop offset=".884" stop-color="#8a8988"></stop><stop offset=".93" stop-color="#565454"></stop><stop offset=".985" stop-color="#191a19"></stop><stop offset="1" stop-color="#010101"></stop></linearGradient></defs> <text id="fmtLogo">Fort McMurray Today</text><style>.st2{fill:#fff}</style><path d="M22.21 1.71s-20.5 0-20.5 20.5v162.32s0 20.5 20.5 20.5h481.63s20.5 0 20.5-20.5V22.21s0-20.5-20.5-20.5H22.21z" fill="#00548F"></path><linearGradient gradientTransform="matrix(308.881 0 0 -308.881 40512.926 165706.39)" gradientUnits="userSpaceOnUse" id="SVGID_1_" x1="-131.163" x2="-129.455" y1="536.139" y2="536.139"><stop offset="0" stop-color="#010101"></stop><stop offset=".029" stop-color="#232323"></stop><stop offset=".095" stop-color="#646362"></stop><stop offset=".16" stop-color="#c2c1c1"></stop><stop offset=".189" stop-color="#b0afaf"></stop><stop offset=".245" stop-color="#8a8988"></stop><stop offset=".323" stop-color="#565454"></stop><stop offset=".417" stop-color="#191a19"></stop><stop offset=".442" stop-color="#010101"></stop><stop offset=".449" stop-color="#0d0d0d"></stop><stop offset=".516" stop-color="#504f4e"></stop><stop offset=".571" stop-color="#878585"></stop><stop offset=".61" stop-color="#afaeae"></stop><stop offset=".63" stop-color="#c2c1c1"></stop><stop offset=".834" stop-color="#c2c1c1"></stop><stop offset=".851" stop-color="#b0afaf"></stop><stop offset=".884" stop-color="#8a8988"></stop><stop offset=".93" stop-color="#565454"></stop><stop offset=".985" stop-color="#191a19"></stop><stop offset="1" stop-color="#010101"></stop></linearGradient><path d="M22.21 1.71v1.71c-.02.1-18.78-.1-18.8 18.79v162.32c.1.02-.1 18.78 18.8 18.8h481.63c.02-.1 18.78.1 18.8-18.8V22.21c-.1-.02.1-18.78-18.8-18.79H22.21V0h481.63c22.11.13 22.19 22.2 22.21 22.21v162.32c-.13 22.11-22.2 22.19-22.21 22.21H22.21C.1 206.62.02 184.54 0 184.53V22.21C.13.1 22.2.02 22.21 0v1.71z" fill="url(&quot;#SVGID_1_&quot;)"></path><g><path class="st2" d="M19.7 31.26h-3.47v-5.39h3.47v-2.03c0-3.8 1.02-7.11 9.87-7.11 1.97 0 3.89.09 4.3.13v5.65c-.42-.04-1.26-.09-1.79-.09-1.67 0-2.63.31-2.63 1.99v1.46h4.31v5.39h-4.31V49.5H19.7V31.26zM34.3 37.62c0-8.65 5.44-12.1 12.56-12.1 7 0 12.56 3.44 12.56 12.1 0 8.52-5.56 12.19-12.56 12.19-7.06 0-12.56-3.66-12.56-12.19zm15.3 0c0-5.12-.6-6.58-2.75-6.58-2.03 0-2.81 1.1-2.81 6.58 0 5.08.66 6.89 2.81 6.89 2.04 0 2.75-1.37 2.75-6.89zM61.81 25.88h9.81v3.71h.06c1.14-2.03 3.29-4.06 6.82-4.06.36 0 .78.04.78.04v6.8c-.36-.04-1.08-.13-1.55-.13-2.87 0-5.14.66-6.1 1.19V49.5h-9.81V25.88zM83.4 44.16v-12.9h-3.41v-5.39h3.41v-7.99h9.75v7.99h5.38v5.39h-5.38v10.6c0 2.3.72 2.56 2.87 2.56.84 0 2.03-.13 2.21-.18v5.12c-.54.13-3.17.31-5.62.31-6.64.01-9.21-1.49-9.21-5.51zM112.29 25.88h9.81v2.87c1.32-1.41 4.48-3.22 7.71-3.22 3.35 0 5.26.84 5.92 3.27 1.49-1.55 4.72-3.27 7.83-3.27 4.13 0 6.28 1.5 6.28 5.52V49.5h-9.81V33.47c0-1.02-.3-1.55-1.38-1.55-.96 0-1.85.53-2.69.93V49.5h-9.81V33.47c0-1.02-.3-1.55-1.32-1.55s-2.03.53-2.75.93V49.5h-9.81V25.88zM152.36 37.71c0-8.66 5.62-12.19 12.5-12.19 7.59 0 10.46 3.49 11.42 8.7l-9.03.97c-.36-2.83-.9-4.15-2.45-4.15-1.91 0-2.69 1.19-2.69 6.67 0 5.3.6 6.84 2.63 6.84 1.67 0 2.51-1.24 2.87-4.5l8.73.88c-.84 5.17-4.13 8.92-11.66 8.92-6.94 0-12.32-3.62-12.32-12.14zM178.61 25.88h9.81v2.87c1.32-1.41 4.49-3.22 7.71-3.22 3.35 0 5.26.84 5.92 3.27 1.5-1.55 4.72-3.27 7.83-3.27 4.13 0 6.28 1.5 6.28 5.52V49.5h-9.81V33.47c0-1.02-.3-1.55-1.38-1.55-.96 0-1.85.53-2.69.93V49.5h-9.81V33.47c0-1.02-.3-1.55-1.32-1.55s-2.03.53-2.75.93V49.5h-9.81V25.88z" fill="#FFFFFF"></path><g><path class="st2" d="M219.76 44.47V25.88h9.75V42c0 1.02.42 1.55 1.43 1.55 1.08 0 2.15-.53 2.93-.93V25.88h9.81V49.5h-9.81v-2.91c-1.38 1.41-4.49 3.22-7.95 3.22-3.65 0-6.16-1.06-6.16-5.34zM247.39 25.88h9.81v3.71h.06c1.14-2.03 3.29-4.06 6.82-4.06.36 0 .78.04.78.04v6.8c-.36-.04-1.08-.13-1.55-.13-2.87 0-5.14.66-6.1 1.19V49.5h-9.81V25.88z" fill="#FFFFFF"></path></g><g><path class="st2" d="M266.41 25.88h9.81v3.71h.06c1.14-2.03 3.29-4.06 6.82-4.06.36 0 .78.04.78.04v6.8c-.36-.04-1.08-.13-1.55-.13-2.87 0-5.14.66-6.1 1.19V49.5h-9.81V25.88zM284.29 43.32c0-5.21 6.64-8.39 14.05-9.49v-.62c0-1.33-.3-1.77-1.97-1.77-2.21 0-5.14 1.32-6.52 2.16l-4.54-4.59c3.47-2.3 8.19-3.49 12.86-3.49 7.06 0 9.57 2.43 9.57 7.33v10.91c0 2.83.18 4.55.66 5.74h-9.57c-.3-.75-.48-1.63-.48-3.14-1.55 2.03-3.77 3.36-7.18 3.36-3.65 0-6.88-1.63-6.88-6.4zm14.05-.18v-4.5c-2.87.71-4.66 1.81-4.66 3.49 0 1.15.72 1.81 1.85 1.81 1.26 0 2.27-.53 2.81-.8z" fill="#FFFFFF"></path></g><g><path class="st2" d="M307.73 57.8l1.62-5.83c.84.13 1.97.31 3.41.31 1.97 0 2.63-.4 3.05-1.55l.42-1.15-7.96-23.71h10.17l1.91 9.89c.36 1.94.48 2.91.9 6.23h.24c.42-3.05.6-4.33 1.02-6.18l2.15-9.94h9.33l-8.97 25.61c-1.61 4.64-4.07 6.93-10.35 6.93-3.35.01-5.56-.3-6.94-.61z" fill="#FFFFFF"></path></g></g><g><path class="st2" d="M43.21 85.33H17.13V62.85h88.04v22.49H79.09v91.49H43.21v-91.5zM105.58 119.83c0-42.2 21.49-58.37 52.16-58.37 30.46 0 51.95 16.17 51.95 58.37 0 42.2-21.49 58.22-51.95 58.22-30.67.01-52.16-16.01-52.16-58.22zm67.8 0c0-24.49-3.75-34.96-15.65-34.96-12.1 0-15.85 10.47-15.85 34.96 0 24.49 3.75 35.58 15.85 35.58 11.89.01 15.65-11.08 15.65-35.58zM218.23 62.85h36.72c35.88 0 61.75 8.47 61.75 56.68 0 48.67-26.49 57.3-61.75 57.3h-36.72V62.85zm41.1 91.95c17.32 0 21.07-7.55 21.07-35.27 0-27.42-3.75-34.19-21.28-34.19h-5.01v69.46h5.22zM343.82 176.82h-30.88l33.38-114.44h35.88l33.38 114.44h-35.05l-4.8-21.41h-27.12l-4.79 21.41zm26.91-42.97c-2.92-12.63-5.42-20.64-8.14-39.28h-.83c-2.5 18.64-5.01 26.18-7.93 38.66l-1.04 4.31h18.78l-.84-3.69z"></path><g><path class="st2" d="M432.9 137.24l-33.8-74.39h36.3l16.69 45.44h.83l16.69-45.44h33.38l-34.21 74.39v39.58H432.9v-39.58z"></path></g></g></svg>