<svg xmlns:xlink="http://www.w3.org/1999/xlink" aria-labelledby="gbwLogo" class="header-logo-image logo-gbw" version="1.1" viewBox="0 0 344.89 86.05" x="0" xml:space="preserve" xmlns="http://www.w3.org/2000/svg" y="0" width="344.89"  height="86.05" ><text id="gbwLogo">Grey Bruce This Week</text><style>.st1,.st2{fillRule:evenodd;clipRule:evenodd}.st2{fill:#e0324f}</style><path d="M109.48 45.25c3.93.02 7.1-3.25 7.1-7.33 0-4.03-2.94-7.21-6.64-7.19-3.79.02-6.87 3.3-6.96 7.42-.07 3.75 2.98 7.09 6.5 7.1z" fill="#FFFFFF"></path><path class="st1" d="M193.67 34.42v6.02c-3.04.92-3.32 1.32-2.58 4.32 1.9 7.75 3.86 15.5 5.8 23.24.05.19.14.37.32.81.3-.87.55-1.51.75-2.17 1.46-4.77 2.93-9.54 4.36-14.33.14-.46.19-1.04.05-1.49-.69-2.17-1.46-4.31-2.19-6.46-.72-2.14-1.74-3.92-4.43-3.79V34.4h22.11v6.18c-.56.05-1.07.12-1.58.14-2.72.14-3.64 1.36-2.95 4.02 1.09 4.21 2.21 8.42 3.31 12.63.91 3.48 1.81 6.96 2.71 10.44.1.37.22.74.59 1.15.25-.8.53-1.59.76-2.39 1.91-6.85 3.81-13.69 5.7-20.54.11-.38.22-.77.29-1.16.35-1.92-.37-3.23-2.26-3.77-1.21-.34-2.5-.43-3.84-.65v-6.06h21.28v6.13c-.33.06-.61.13-.88.14-3.43.08-5.58 1.84-6.66 5.03-.72 2.12-1.44 4.23-2.14 6.35-.09.28-.09.59-.16 1.09.33-.25.5-.34.62-.48 4.15-4.48 9.33-6.19 15.33-5.85 4.41.25 8.27 1.68 11.39 4.86 2.99 3.04 4.23 6.79 4.4 10.96.04 1 .01 1.99.01 3.15H240.9c-.02 3.58.39 6.88 2.47 9.71 2.34 3.18 6.82 3.95 10.17 1.57 1.65-1.17 2.9-2.92 4.3-4.42.29-.31.48-.72.79-1.18 2.01 1.06 3.97 2.1 5.93 3.14-3.73 7.94-10.04 12.17-19.59 11.37-7.32-.61-16.32-5.54-17.19-19.42-.46 1.42-.84 2.53-1.19 3.64-1.45 4.73-2.91 9.47-4.32 14.21-.23.76-.53 1.09-1.39 1.07-2.79-.06-5.59-.02-8.43-.02l-6.38-22.53c-.08-.01-.17-.03-.25-.04-.45 1.45-.92 2.89-1.36 4.34-1.74 5.77-3.49 11.54-5.18 17.33-.22.74-.54.93-1.25.92-2.44-.04-4.88-.04-7.32 0-.74.01-1.04-.24-1.24-.94-2.9-9.76-5.82-19.51-8.75-29.26-.96-3.21-1.93-6.42-2.9-9.63-.83-2.74-2.22-4.9-5.48-5.04v-6.16c7.11-.01 14.16-.01 21.33-.01zm57.78 25.04c.16-2.65-1.83-5-4.31-5.15-3.07-.19-5.61 2.04-5.79 5.15h10.1zM6.68 29.97C4.6 28.87 2.6 27.78.57 26.75c-.61-.31-.65-.66-.48-1.25C2.45 17.42 4.81 9.34 7.12 1.24c.21-.74.57-.9 1.26-.9 16.48.02 32.95.01 49.43.01.63 0 1.09.01 1.32.82 2.33 8.17 4.72 16.33 7.09 24.5.05.19.09.38.16.69-2.24 1.19-4.49 2.39-6.8 3.62-.98-2.05-1.91-4.07-2.9-6.07-1.74-3.51-3.9-6.7-6.95-9.22-1.84-1.52-3.82-2.79-6.31-2.89-1.6-.06-2 .35-2 1.94.02 10.36.05 20.71.07 31.07.02 7.76 0 15.51.06 23.27.04 4.68 2.2 6.95 6.86 7.4.59.06 1.18.1 1.82.15V85.7H16.09V75.65c.86-.1 1.68-.16 2.5-.29 3.96-.61 5.77-2.54 6.09-6.48.07-.88.09-1.76.09-2.63V15.5c0-.8.05-1.59.02-2.39-.03-.94-.63-1.48-1.49-1.3-1.54.33-3.18.58-4.52 1.33-3.96 2.22-6.58 5.76-8.65 9.71-1.2 2.31-2.27 4.68-3.45 7.12z"></path><path class="st1" d="M79.43 85.33c0-1.89-.03-3.69.03-5.48.01-.3.4-.74.7-.85 2.48-.9 3.09-1.53 3.12-4.18.08-5.56.08-11.12.02-16.67-.02-2.25-.89-2.98-3.13-2.94-2.62.05-4.89 1.06-6.94 2.62-.25.19-.49.58-.49.88.04 5.71.12 11.43.2 17.14.03 1.72.87 2.77 2.63 2.99.91.11 1.24.57 1.19 1.52-.09 1.63-.02 3.26-.02 4.99h-21.1c0-1.92-.02-3.86.04-5.79.01-.19.49-.45.79-.52 3.94-.85 4.39-1.57 4.37-5.61-.05-9.48-.01-18.95.04-28.43.02-2.99-.74-3.93-3.75-4.27-.59-.07-1.18-.14-1.9-.23v-3-3.04c2.1-.32 4.17-.52 6.17-.98 1.98-.45 3.96-1 5.81-1.82 1.79-.79 3.55-.62 5.48-.6v19.23c.84-.43 1.49-.78 2.14-1.11 3.83-1.94 7.83-3.08 12.14-2.09 5.09 1.17 8.27 5.27 8.29 10.5.02 5.32.02 10.64.05 15.96.01.88.09 1.76.24 2.62.33 1.91 2.12 2.99 4.63 2.86 3.16-.16 4.44-1.52 4.44-4.7v-13.2c0-3.69-.94-4.75-4.61-5.15-.19-.02-.38-.05-.71-.09 0-1.94-.02-3.85.03-5.76.01-.21.44-.57.7-.6 5.06-.62 10.04-1.99 15.19-1.87.43.01.85 0 1.39 0v25.93c0 .44.01.88.04 1.32.21 2.73.95 3.61 3.64 4.04.91.15 1.2.47 1.16 1.37-.07 1.63-.02 3.27-.02 5.01h-42zM318.61 62.22c.26-.28.53-.55.77-.85 1.38-1.66 2.78-3.3 4.11-5 .95-1.21.58-2.17-.96-2.3-1.06-.09-1.2-.55-1.17-1.44.06-1.55.02-3.11.02-4.77h20.51c0 1.85.02 3.68-.03 5.51-.01.21-.42.58-.67.59-2.86.2-5.14 1.6-7.27 3.36-1.63 1.34-3.3 2.63-5.03 4 1.43 2.11 2.78 4.13 4.14 6.14 1.75 2.58 3.5 5.16 5.24 7.74 1.58 2.34 3.62 3.91 6.62 4.05v5.99h-21.07v-5.87c.03-.03.06-.11.12-.13 2.47-.76 2.62-1.17 1.24-3.38-1.51-2.44-3.03-4.87-4.54-7.3-3.23 1.99-2.43 4.98-2.07 7.76.24 1.85 1.65 2.73 3.52 2.96v6.01h-20.87v-6.04c.94-.24 1.91-.46 2.86-.74 1.66-.49 2.33-1.29 2.36-3.03.06-3.44.04-6.88.06-10.32.03-6.48.05-12.95.07-19.43 0-.2-.01-.4-.02-.6-.25-3.77-.78-4.3-4.61-4.58-.28-.02-.55-.05-1.02-.1V37.5v-3.06c1.32-.17 2.61-.21 3.82-.52 3.08-.8 6.1-1.81 9.19-2.57 1.35-.34 2.8-.3 4.4-.46v31.23c.1.04.19.07.28.1z"></path><path class="st1" d="M277.65 65.71c-.01 3.19.32 6.07 1.76 8.71 2.07 3.79 6.46 5.12 10.3 3.14 2.17-1.12 3.69-2.89 5-4.88.24-.36.47-.73.75-1.16 1.97 1.05 3.9 2.07 5.92 3.15-3.11 5.86-7.34 10.09-14.15 11.07-3.17.46-6.31.31-9.37-.62-5.58-1.71-9.61-5.26-11.58-10.77-2.47-6.9-2.23-13.71 1.96-19.96 3.35-5 8.29-7.32 14.24-7.6 3.63-.17 7.11.44 10.27 2.28 5.34 3.1 7.6 7.97 7.81 13.96.03.83 0 1.67 0 2.67-7.65.01-15.21.01-22.91.01zm10.77-6.2c-.52-3.76-2.56-5.6-5.65-5.21-2.64.33-4.81 2.8-4.57 5.21h10.22zM144.47 49.36c1.11-2.82 3.41-1.08 5.31-1.76.47 3.81.91 7.43 1.37 11.15-1.77.29-3.41.6-5.06.79-.36.04-.9-.26-1.14-.57-1.28-1.67-2.72-3.15-4.61-4.13-2.21-1.14-4.5-1.35-6.85-.51-1.1.39-2.07 1.03-2.14 2.32-.07 1.34.81 2.2 1.96 2.59 1.54.52 3.14.87 4.74 1.22 2.22.5 4.45.94 6.68 1.4 4.31.88 7.44 3.2 8.56 7.57 1.19 4.65.04 8.81-3.45 12.18-3.02 2.91-6.79 4.12-10.89 4.34-3.48.19-6.85-.32-10.06-2-1.21 2.58-3.48 1.01-5.27 1.37-.12.03-.43-.33-.48-.55-.91-3.84-1.79-7.69-2.71-11.68 1.83-.3 3.58-.63 5.34-.82.32-.04.74.47 1.06.77 1.58 1.51 2.96 3.31 4.75 4.5 2.92 1.94 6.19 1.93 9.4.55 1.23-.53 2.24-1.35 2.12-2.88-.12-1.46-1.21-2.18-2.46-2.44-2.65-.57-5.33-.99-8-1.45-3.02-.51-5.99-1.15-8.35-3.29-3.62-3.3-4.38-9.4-1.8-14.05 2.66-4.78 6.91-6.88 12.21-7.19 3.47-.19 6.63.83 9.77 2.57zM109.48 45.25c-3.52-.02-6.57-3.36-6.49-7.1.09-4.12 3.16-7.39 6.96-7.42 3.7-.02 6.63 3.16 6.64 7.19-.01 4.08-3.19 7.35-7.11 7.33z"></path><g><path class="st2" d="M123.93 3.74V.8c.48-.02.91-.07 1.33-.07 6.44 0 12.88.02 19.32-.03.96-.01 1.4.3 1.75 1.17.99 2.39 2.08 4.74 3.17 7.17-.8.44-1.53.84-2.32 1.27-.69-.85-1.31-1.72-2.03-2.51-2.73-2.99-6.11-4.06-10.09-3.33-.92.17-1.48.66-1.5 1.58-.04 1.82-.01 3.65-.01 5.83 1.38-.22 3.05-.01 3.96-.75.91-.74 1.05-2.43 1.58-3.82h2.34v12.42c-.7 0-1.38.08-2.02-.03-.32-.06-.66-.43-.82-.74-.2-.38-.19-.85-.31-1.27-.58-1.93-2.4-2.94-4.33-2.36-.23.07-.5.5-.5.77-.03 2.24-.04 4.48.04 6.72.05 1.44.66 2 2.23 2.1 3.38.21 6.45-.64 8.9-3.06 1.27-1.25 2.36-2.69 3.62-4.14l2.33 1.23c-.48 1.11-.93 2.16-1.38 3.2-.78 1.8-1.58 3.58-2.32 5.39-.28.68-.65.95-1.42.95-9.48-.03-18.96 0-28.43-.05-.51 0-1.2-.42-1.51-.85-2.29-3.23-4.5-6.51-6.74-9.77-1.04-1.51-1.17-1.57-3.28-1.13.1 2.22.14 4.48.33 6.73.09 1.04.93 1.53 1.92 1.7.47.08.93.16 1.56.27 0 .82.05 1.66-.03 2.48-.02.22-.43.58-.67.58-4.16.02-8.32 0-12.47-.02-.07 0-.14-.07-.27-.13v-2.81c.07-.06.12-.14.18-.15 2.79-.52 3.06-.84 3.06-3.69V7.61c0-3.01-.21-3.28-3.3-3.88V2.34.8c.5-.03.93-.07 1.35-.07 5.12.01 10.24 0 15.36.06 1.11.01 2.23.19 3.32.41 3.55.73 5.67 2.99 5.89 6.16.25 3.65-1.67 6.67-5 7.89-.37.13-.73.27-1.27.46.8 1.1 1.51 2.1 2.23 3.09 1.13 1.55 2.17 3.18 3.43 4.62.64.74 1.59 1.35 2.52 1.66 1.57.53 2.98-.47 3.17-2.12.15-1.3.17-2.63.18-3.94.02-3.56.01-7.12.01-10.68-.01-3.34-.01-3.34-3.06-4.6zm-18.36 5.2v.36c0 3.58 0 3.6 3.62 3.46 1.72-.07 3.3-.55 4.48-1.91 1.13-1.3 1.24-2.85.31-4.29-1.25-1.96-4.02-2.81-6.84-2.16-1.06.24-1.57.84-1.56 1.92 0 .87-.01 1.75-.01 2.62zM211.28 3.77V.82c.42-.03.81-.08 1.19-.08 5.16.01 10.32-.02 15.48.07 1.46.03 2.96.27 4.37.67 3.05.86 4.84 3.35 4.87 6.5.03 3.3-2.01 6.25-5.05 7.29-.37.13-.74.25-1.26.42 1.03 1.45 1.97 2.77 2.92 4.09.63.88 1.3 1.73 1.9 2.62 1.06 1.6 2.33 2.86 4.45 2.91v3.16c-2.78 0-5.53.03-8.28-.04-.32-.01-.71-.47-.94-.81-2.23-3.22-4.5-6.42-6.62-9.71-.79-1.22-1.66-1.73-3.36-1.23.11 2.27.12 4.65.44 6.99.08.56 1.14 1.04 1.83 1.43.39.22.92.19 1.57.3 0 .81.04 1.64-.03 2.46-.02.22-.36.58-.56.58-4.27.03-8.54.03-12.88.03v-3.05c3.06-.71 3.25-.96 3.25-4.13V7.61c0-.44 0-.88-.06-1.32-.23-1.67-.56-2.01-2.2-2.36-.33-.04-.64-.09-1.03-.16zm9.74 5.21v.24c0 3.74 0 3.75 3.78 3.53 1.55-.09 2.97-.53 4.1-1.69 1.37-1.42 1.53-3.05.42-4.66-1.37-1.98-5.32-2.96-7.46-1.74-.42.24-.73.93-.8 1.45-.13.95-.04 1.92-.04 2.87z" fill="#E0324F"></path><path class="st2" d="M206.12 13.61c2.5.99 4.03 2.57 4.64 5.03 1.12 4.55-1.89 9.12-6.55 9.63-2.34.25-4.71.2-7.06.23-3.52.03-7.04-.03-10.56.03-.98.02-1.3-.33-1.2-1.24.04-.36.03-.72 0-1.08-.05-.63.22-.9.85-1.05 1.95-.48 2.24-.88 2.25-2.91.01-5 0-10 0-15 0-2.33-.23-2.61-2.48-3.24-.19-.05-.36-.16-.54-.24V.78h2.57c4.28 0 8.56-.04 12.84.02 1.31.02 2.63.2 3.91.48 2.69.6 4.31 2.37 4.86 5.03.57 2.73-.4 4.94-2.6 6.63-.24.19-.5.36-.93.67zm-11.08 5.86v3.36c0 .93.45 1.53 1.35 1.72 1.92.42 3.82.39 5.6-.54 1.62-.85 2.36-2.78 2.02-5-.29-1.86-1.34-3.1-3.23-3.36-1.65-.23-3.34-.21-5.01-.21-.24 0-.67.5-.69.8-.1 1.07-.05 2.16-.04 3.23zm2.57-7.51c1.02-.13 2.07-.18 3.07-.4 1.78-.4 2.74-1.54 2.79-3.12.06-1.77-.79-3.2-2.54-3.58-1.53-.32-3.15-.26-4.72-.25-.79.01-1.15.65-1.16 1.42-.01 1.08-.01 2.16-.01 3.23-.01 2.6-.01 2.6 2.57 2.7zM316.85 17.76c.64.34 1.4.75 2.28 1.21-1.01 2.34-2.15 4.58-2.96 6.93-.7 2.04-1.75 2.72-3.97 2.65-6.15-.19-12.31-.09-18.47-.04-1.07.01-1.32-.32-1.35-1.36-.03-1.24.17-1.96 1.55-2.28.58-.13 1.11-1.04 1.4-1.71.25-.59.16-1.34.16-2.01.01-4.56.01-9.12 0-13.68 0-2.59-.13-2.76-2.58-3.53-.15-.05-.28-.13-.42-.2V.79c.45-.02.84-.06 1.23-.06 6.48 0 12.96.02 19.43-.03.97-.01 1.4.32 1.76 1.18.97 2.36 2.05 4.68 3.14 7.14-.78.44-1.53.86-2.21 1.24-1.16-1.25-2.17-2.55-3.39-3.62-2.55-2.25-5.59-2.75-8.87-2.16-.91.17-1.46.68-1.47 1.61-.03 1.79-.01 3.58-.01 5.48 1.36.19 2.98.68 3.96-.37.86-.92 1.06-2.45 1.61-3.87h2.28v12.31h-2.57c-.3-.94-.53-1.91-.93-2.8-.56-1.24-2.9-2.07-4.06-1.47-.21.11-.38.51-.38.78 0 2.28.06 4.56.06 6.83 0 1.28.76 1.8 1.87 1.91 3.24.32 6.25-.36 8.7-2.56 1.49-1.36 2.74-2.97 4.21-4.57zM84.08 17.43v-2.94h12.04v2.87c.01-.01-.03.08-.09.1-2.75.88-2.77.9-2.77 3.87v7.49c-1.28 0-2.46.04-3.63-.03-.23-.01-.49-.44-.65-.73-.24-.44-.4-.93-.66-1.55-.64.39-1.17.72-1.71 1.03-4.5 2.59-10.61 1.96-14.17-1.48-1.68-1.62-2.78-3.61-3.41-5.83-.99-3.49-1.08-7.03-.12-10.54 2.23-8.11 9.89-11.75 17.6-8.4.36.16.72.33 1.06.49.4-.37.71-.87 1.13-1 1.37-.44 1.99-.02 2.35 1.41.63 2.55 1.26 5.1 1.91 7.75-.86.33-1.62.63-2.43.94-.71-1.04-1.31-2.07-2.06-2.99-1.54-1.91-3.36-3.41-5.88-3.84-2.22-.38-3.95.41-5.11 2.29-1.93 3.12-2.27 6.61-2.03 10.16.15 2.25.63 4.44 1.98 6.32 2.25 3.14 6.78 3.23 9.02.16.43-.59.78-1.34.89-2.06.33-2.18-.61-3.16-3.26-3.49zM239.14 3.71V.88h12.74v2.81c-.03.03-.08.11-.15.12-2.62.61-2.93.97-2.94 3.63-.01 4.04-.05 8.08.03 12.11.02 1.12.25 2.34.75 3.33 1.01 2.02 3.08 2.73 5.56 2.18 2.27-.5 3.71-1.96 3.83-4.3.18-3.31.15-6.63.2-9.94.02-1.28.04-2.56-.01-3.84-.09-2.06-.52-2.56-2.5-3.07-.23-.06-.46-.11-.73-.17V.88h10.05v2.84c-3.12.91-3.22 1.05-3.22 4.32 0 4.04.02 8.07-.02 12.11-.06 5.44-2.87 8.5-8.32 8.84-2.05.13-4.18.01-6.17-.44-3.88-.87-6-3.75-6.03-7.73-.02-4.2-.01-8.39 0-12.59.02-3.72 0-3.56-3.07-4.52zM148.16 3.83V.84h14.21v2.88c-.72.13-1.4.2-2.04.38-.66.18-1.07.64-.72 1.35 1.17 2.35 2.37 4.69 3.71 7.32.77-1.38 1.39-2.52 2.02-3.65.56-1.01 1.15-2.01 1.68-3.04.75-1.45.44-2.01-1.2-2.22-.35-.04-.7-.06-1.19-.09V2.31.84h11.36v2.95c-1.89.34-3.64 1.16-4.73 2.92-2.01 3.22-3.97 6.46-5.93 9.71-.17.29-.23.68-.23 1.03-.02 1.56-.03 3.12 0 4.68.04 2.27.58 2.84 2.87 3.16.19.03.38.07.62.11.03.32.06.59.07.86.01.67 0 1.35 0 2.13h-13.5v-2.88c.05-.05.1-.13.17-.14 2.94-.52 3.18-1.08 3.35-4.03.17-3.03-.62-5.6-2.34-8.04-1.17-1.66-2.13-3.47-3.15-5.23-1.18-2.04-2.49-3.87-5.03-4.24z" fill="#E0324F"></path><path class="st2" d="M285.68 1.23c.63-.16 1.26-.35 1.9-.48.66-.14.99.19 1.21.83.97 2.87 2 5.72 3.03 8.66-.93.36-1.81.7-2.74 1.07-.73-1.2-1.3-2.46-2.17-3.48-1.04-1.23-2.18-2.5-3.54-3.32-2.9-1.76-6.12-1-7.76 1.95-2.81 5.06-2.93 10.37-.11 15.45 2.25 4.04 7.24 4.5 10.78 1.19 1.27-1.19 2.27-2.65 3.53-4.15.76.42 1.71.95 2.74 1.52-1.77 4.52-4.9 7.36-9.54 8.33-8.29 1.73-15.25-3.31-16.39-11.79-.58-4.31.07-8.4 2.63-12 3.33-4.69 9.67-6.29 15.25-3.97.4.17.8.35 1.19.52 0-.1-.01-.22-.01-.33zM185.34 15.66c-.57 1.32-1.01 2.43-1.52 3.5-.13.28-.47.64-.72.65-3.14.04-6.28.03-9.62.03.59-1.37 1.07-2.56 1.62-3.73.1-.21.48-.42.73-.42 3.11-.04 6.21-.03 9.51-.03z" fill="#E0324F"></path></g></svg>