<svg xmlns:xlink="http://www.w3.org/1999/xlink" aria-labelledby="gssLogo" class="header-logo-image logo-gss header-logo-image--size-md" role="img" viewBox="0 0 370.37 137.3" x="0" xml:space="preserve" xmlns="http://www.w3.org/2000/svg" y="0" width="370.37"  height="137.3" > <text id="gssLogo">Goderich Signal Star</text> <style>.st0{fill:#004b8c}</style><path d="M2.06 11.46C2.06 4.26 4.51 0 8.58 0c3.26 0 4.91 2.67 5.63 7.02l-1.88.45c-.62-3.48-1.7-5.16-3.8-5.16-2.67 0-4.39 3.09-4.39 9.09 0 6.27 1.65 9.36 4.49 9.36 2.42 0 3.83-2.22 3.9-6.6H9.05V12h5.33v10.62h-1.65v-3.03h-.03c-.59 1.68-2 3.42-4.3 3.42-4.04 0-6.34-4.2-6.34-11.55zm14.91 3.24c0-5.46 2.25-8.25 5.16-8.25 2.89 0 5.13 2.79 5.13 8.25 0 5.43-2.25 8.25-5.13 8.25s-5.16-2.82-5.16-8.25zm8.3 0c0-3.42-.96-6.15-3.14-6.15-2.1 0-3.16 2.46-3.16 6.15 0 3.45.91 6.21 3.16 6.21 2.08 0 3.14-2.46 3.14-6.21zm3.95 0c0-5.73 1.97-8.25 4.52-8.25 1.51 0 2.64.9 3.51 2.22V.42h1.98v18.3c0 1.92.07 3.09.32 3.9H37.5c-.15-.51-.25-1.53-.25-2.07-.84 1.2-1.95 2.31-3.6 2.31-2.56 0-4.43-2.43-4.43-8.16zm8.02 3.99v-7.95c-.94-1.35-1.95-2.19-3.09-2.19-1.75 0-2.94 1.86-2.94 6.21 0 4.23 1.21 6.09 2.96 6.09 1.17 0 2.26-1.02 3.07-2.16zm4.49-3.99c0-5.7 2.42-8.25 5.04-8.25 2.89 0 4.64 2.82 4.64 8.16v.6h-7.7c.07 3.72 1.26 5.7 3.14 5.7 1.53 0 2.35-1.05 3.09-2.76l1.38 1.05c-.91 2.28-2.49 3.75-4.57 3.75-2.84 0-5.02-2.73-5.02-8.25zm7.78-1.32c-.12-2.88-.99-4.86-2.77-4.86-1.46 0-2.79 1.47-3.01 4.86h5.78zm4.44-6.6h2v2.73H56c.74-1.59 2.1-3.06 4.12-3.06h.27l-.12 2.28s-.37-.03-.47-.03c-1.7 0-3.09 1.35-3.85 3.24v10.68h-2V6.78zm8.64-5.76h2.02v2.61h-2.02V1.02zm0 5.76h2v15.84h-2V6.78zm4.69 7.92c0-5.7 2.37-8.25 5.09-8.25 2.64 0 3.75 2.16 4.37 4.71l-1.83.6c-.47-1.98-1.14-3.21-2.59-3.21-1.65 0-3.04 1.83-3.04 6.15 0 3.84 1.11 6.21 3.04 6.21 1.38 0 2.25-1.02 2.74-3.27l1.75.57c-.72 2.97-2.2 4.74-4.57 4.74-2.74 0-4.96-2.82-4.96-8.25zM79.16.42h2v8.55c.86-1.17 2.42-2.52 4.12-2.52 2.1 0 3.21 1.53 3.21 4.41v11.76h-1.98V11.37c0-1.89-.52-2.79-1.85-2.79-1.26 0-2.62 1.17-3.51 2.28v11.76h-2V.42z"></path><path class="st0" d="M0 88.57l16.38-1.1c.79 11.66 1.46 14.3 4.94 14.3 2.36 0 3.59-1.87 3.59-5.61 0-6.16-4.94-10.23-10.43-15.84C8.19 73.83 1.23 66.9 1.23 54.36c0-12.98 6.51-21.23 19.63-21.23 15.6 0 20.08 9.13 20.64 26.07l-16.49 1.32c-.34-12.1-1.57-12.54-3.82-12.54-1.91 0-2.58 1.98-2.58 4.51 0 7.48 4.6 11.44 9.87 16.5 6.51 6.38 13.8 12.54 13.8 26.18 0 13.53-7.29 20.9-21.09 20.9-18.05 0-20.4-11.88-21.19-27.5zM44.54 36.1h16.72v15.51H44.54V36.1zm.12 20.35h16.49v58.85H44.66V56.45zm17.05 69.3c0-4.95 3.81-9.57 8.19-11.55-4.82-1.76-6.17-5.5-6.17-9.13 0-2.97 2.02-7.37 6.17-10.45-4.26-3.63-6.51-9.46-6.51-17.27 0-15.29 8.53-21.67 18.4-21.67 4.82 0 9.09 1.43 12.34 4.51 2.36-2.97 6.17-5.39 8.53-5.94v16.72h-3.03c.34 1.98.56 3.96.56 6.38 0 15.73-8.53 21.34-18.4 21.34-1.57 0-3.03-.11-4.38-.44-.34.44-.45.88-.45 1.32 0 1.32.45 1.98 2.8 2.31l5.61.77c12.9 1.76 16.72 6.05 16.72 16.61 0 10.34-8.75 18.04-22.22 18.04-13.22 0-18.16-5.39-18.16-11.55zm25.13-4.4c0-3.19-1.01-5.28-5.39-5.72l-2.36-.22c-1.68 2.42-2.24 4.95-2.24 6.93 0 3.74 1.91 5.61 4.71 5.61 3.49 0 5.28-2.2 5.28-6.6zm-2.47-44c0-8.25-.45-9.46-2.58-9.46s-2.58 1.65-2.58 9.46.56 9.68 2.58 9.68 2.58-1.87 2.58-9.68zm19.41-20.9h16.49v6.16c2.47-3.3 8.08-6.93 12.45-6.93 5.5 0 8.75 1.76 8.75 11.55v48.07h-16.49V73.39c0-1.87-.45-2.64-1.46-2.64-1.12 0-2.58.77-3.25 1.1v43.45h-16.49V56.45zm39.5 43.45c0-12.54 7.18-19.8 20.98-23.21v-3.63c0-3.74-.34-4.4-1.91-4.4-1.46 0-2.02.88-2.69 5.06l-14.59-1.76c2.69-13.31 9.76-16.28 19.19-16.28 11 0 15.71 4.95 15.71 16.72V101c0 7.04.22 11.33.9 14.3h-15.82c-.56-1.54-.79-3.08-.79-6.93-2.02 4.29-4.82 7.37-9.99 7.37-5.94 0-10.99-3.96-10.99-15.84zm20.98.66V87.58c-4.04 2.09-5.16 5.61-5.16 10.01 0 2.31.79 3.85 2.47 3.85.89 0 2.01-.44 2.69-.88zm19.41-66.66h16.49v81.4h-16.49V33.9zm19.52 40.92h25.69V88.9h-25.69V74.82zM230 88.57l16.38-1.1c.79 11.66 1.46 14.3 4.94 14.3 2.36 0 3.59-1.87 3.59-5.61 0-6.16-4.94-10.23-10.43-15.84-6.28-6.49-13.24-13.42-13.24-25.96 0-12.98 6.51-21.23 19.63-21.23 15.6 0 20.08 9.13 20.64 26.07l-16.49 1.32c-.34-12.1-1.57-12.54-3.82-12.54-1.91 0-2.58 1.98-2.58 4.51 0 7.48 4.6 11.44 9.87 16.5 6.51 6.38 13.8 12.54 13.8 26.18 0 13.53-7.29 20.9-21.09 20.9-18.05 0-20.41-11.88-21.2-27.5zm46.57 15.84V68.88h-4.49V56.45h4.49V36.54h16.38v19.91h7.52v12.43h-7.52v29.48c0 5.39 1.12 5.72 3.93 5.72 1.57 0 2.8-.22 3.59-.44v11.55c-1.01.33-4.49.66-9.2.66-8.53 0-14.7-1.98-14.7-11.44zm24.57-4.51c0-12.54 7.18-19.8 20.98-23.21v-3.63c0-3.74-.34-4.4-1.91-4.4-1.46 0-2.02.88-2.69 5.06l-14.59-1.76c2.69-13.31 9.76-16.28 19.19-16.28 11 0 15.71 4.95 15.71 16.72V101c0 7.04.22 11.33.9 14.3H322.9c-.56-1.54-.79-3.08-.79-6.93-2.02 4.29-4.83 7.37-9.99 7.37-5.93 0-10.98-3.96-10.98-15.84zm20.98.66V87.58c-4.04 2.09-5.16 5.61-5.16 10.01 0 2.31.79 3.85 2.47 3.85.89 0 2.02-.44 2.69-.88zM341.87 56.45h16.49v9.24h.11c1.91-5.5 5.5-10.01 9.99-10.01 1.01 0 1.91.22 1.91.22v15.73h-1.57c-4.82 0-8.08.55-10.43 1.87v41.8h-16.49V56.45z" fill="#004B8C"></path></svg>