<svg xmlns:xlink="http://www.w3.org/1999/xlink" aria-labelledby="hnpLogo" class="header-logo-image logo-hnp" role="img" viewBox="0 0 244.32 56.64" xmlns="http://www.w3.org/2000/svg" width="244.32"  height="56.64" > <text id="hnpLogo">Hanover Post</text> <path d="M0 0h244.32v56.64H0z" fill="#0A62AB"></path><path d="M32.1 46.24v-1.89h-4.25V10.74h7c3.88 0 3.75 7.79 3.75 7.79h3.25l-.88-9.2H7.6l-.88 9.2h3.25s-.12-7.79 3.75-7.79h7v33.62h-4.25v1.89H32.1zm199.35.07v-1.58h-3.55v-28.1h5.85c3.24 0 3.13 6.51 3.13 6.51h2.72l-.73-7.69h-27.89l-.73 7.69h2.72s-.1-6.51 3.13-6.51h5.85v28.1h-3.55v1.58h13.05zM67.01 31.03v13.33h-3.37v1.88h12.5v-1.88h-3.38V16.99h3.38v-1.54h-12.5v1.54h3.37v12.5H53.1v-12.5h3.37v-1.54h-12.5v1.54h3.38v27.37h-3.38v1.88h12.5v-1.88H53.1V31.03zm32.05 5.11h-2.08v-1.26c0-3.46-1.63-4.03-1.63-4.03h-5.87v13.74h10.96c3.79 0 3.48-5.23 3.48-5.23v-1.65h2.85v8.53H79.64v-1.65h3.83V17.11h-3.83v-1.65h25.75v6.76h-2.17V20.1s.34-3.38-4.17-3.38h-9.58v12.37h5.87s1.63-.57 1.63-4.03V23.8h2.08v12.34zm22.66-26.82h20.25s9.5.24 9.5 9.32-8 10.62-12.62 10.62h-5.62v14.86h4.75v2.12h-16.25v-2.12h4.25v-32.8h-4.25v-2zm11.5 1.89v15.57s11.88 1.89 11.88-7.79-11.88-7.78-11.88-7.78zm23.99 7.57c3.07-2.77 6.84-4.16 11.32-4.16 4.49 0 8.27 1.39 11.34 4.18 3.33 3.02 4.99 7.04 4.99 12.06 0 5.1-1.72 9.16-5.16 12.17-3.08 2.69-6.81 4.04-11.17 4.04-4.67 0-8.55-1.49-11.63-4.48-3.13-3.05-4.7-6.96-4.7-11.73-.01-5.02 1.67-9.05 5.01-12.08zm4.16 22.72c1.94 2.3 4.33 3.45 7.17 3.45 2.77 0 5.14-1.12 7.11-3.36 1.97-2.24 2.95-5.81 2.95-10.73 0-4.98-.99-8.58-2.99-10.79-1.99-2.21-4.35-3.32-7.08-3.32-2.82 0-5.21 1.15-7.16 3.44-1.95 2.3-2.93 5.85-2.93 10.67.01 4.8.98 8.35 2.93 10.64zm43.73-26.03h2.07v7.95h-1.82s-1.11-7.01-8.08-7.02c-1.55 0-2.77.48-3.66 1.43-.89.96-1.33 2.08-1.33 3.37 0 2.05 1.53 3.87 4.6 5.47l4.4 2.37c4.73 2.58 7.09 5.58 7.09 9.01 0 2.62-.98 4.77-2.94 6.44-1.96 1.67-4.53 2.5-7.7 2.5-1.33 0-2.84-.22-4.52-.67-1.69-.44-2.68-.67-2.99-.67-.27 0-.5.09-.7.28-.2.19-.36.42-.47.68h-.87V37.1h1.73c.51 2.54.57 3.24 1.43 4.59 1.55 2.49 3.82 3.74 6.81 3.74 1.66 0 2.97-.46 3.94-1.38.96-.92 1.44-2.12 1.44-3.59 0-.93-.28-1.83-.83-2.7-.55-.87-1.53-1.71-2.93-2.54l-3.73-2.13c-2.73-1.47-4.74-2.95-6.03-4.44-1.29-1.49-1.93-3.25-1.93-5.27 0-2.49.89-4.54 2.67-6.14 1.78-1.6 4.01-2.4 6.69-2.4 1.18 0 2.47.22 3.88.67 1.41.44 2.2.67 2.38.67 0-.01 1.33.36 1.4-.71z" opacity=".4"></path><path d="M31.1 45.24v-1.89h-4.25V9.74h7c3.88 0 3.75 7.79 3.75 7.79h3.25l-.88-9.2H6.6l-.88 9.2h3.25s-.12-7.79 3.75-7.79h7v33.62h-4.25v1.89H31.1zm199.35.07v-1.58h-3.55v-28.1h5.85c3.24 0 3.13 6.51 3.13 6.51h2.72l-.73-7.69h-27.89l-.73 7.69h2.72s-.1-6.51 3.13-6.51h5.85v28.1h-3.55v1.58h13.05zM66.01 30.03v13.33h-3.37v1.88h12.5v-1.88h-3.38V15.99h3.38v-1.54h-12.5v1.54h3.37v12.5H52.1v-12.5h3.37v-1.54h-12.5v1.54h3.38v27.37h-3.38v1.88h12.5v-1.88H52.1V30.03zm32.04 5.11h-2.08v-1.26c0-3.46-1.63-4.03-1.63-4.03h-5.87v13.74h10.96c3.79 0 3.48-5.23 3.48-5.23v-1.65h2.85v8.53H78.64v-1.65h3.83V16.11h-3.83v-1.65h25.75v6.76h-2.17V19.1s.34-3.38-4.17-3.38h-9.58v12.37h5.87s1.63-.57 1.63-4.03V22.8h2.08v12.34zm22.67-26.82h20.25s9.5.24 9.5 9.32-8 10.62-12.62 10.62h-5.62v14.86h4.75v2.12h-16.25v-2.12h4.25v-32.8h-4.25v-2zm11.5 1.89v15.57s11.88 1.89 11.88-7.79c0-9.67-11.88-7.78-11.88-7.78zm23.99 7.57c3.07-2.77 6.84-4.16 11.32-4.16 4.49 0 8.27 1.39 11.34 4.18 3.33 3.02 4.99 7.04 4.99 12.06 0 5.1-1.72 9.16-5.16 12.17-3.08 2.69-6.81 4.04-11.17 4.04-4.67 0-8.55-1.49-11.63-4.48-3.13-3.05-4.7-6.96-4.7-11.73-.01-5.03 1.66-9.05 5.01-12.08zm4.16 22.72c1.94 2.3 4.33 3.45 7.17 3.45 2.77 0 5.14-1.12 7.11-3.36 1.97-2.24 2.95-5.81 2.95-10.73 0-4.98-.99-8.58-2.99-10.79-1.99-2.21-4.35-3.32-7.08-3.32-2.82 0-5.21 1.15-7.16 3.44-1.95 2.3-2.93 5.85-2.93 10.67.01 4.8.98 8.34 2.93 10.64zm43.73-26.03h2.07v7.95h-1.82s-1.11-7.01-8.08-7.02c-1.55 0-2.77.48-3.66 1.43-.89.96-1.33 2.08-1.33 3.37 0 2.05 1.53 3.87 4.6 5.47l4.4 2.37c4.73 2.58 7.09 5.58 7.09 9.01 0 2.62-.98 4.77-2.94 6.44-1.96 1.67-4.53 2.5-7.7 2.5-1.33 0-2.84-.22-4.52-.67-1.69-.44-2.68-.67-2.99-.67-.27 0-.5.09-.7.28-.2.19-.36.42-.47.68h-.87V36.1h1.73c.51 2.54.57 3.24 1.43 4.59 1.55 2.49 3.82 3.74 6.81 3.74 1.66 0 2.97-.46 3.94-1.38.96-.92 1.44-2.12 1.44-3.59 0-.93-.28-1.83-.83-2.7-.55-.87-1.53-1.71-2.93-2.54l-3.73-2.13c-2.73-1.47-4.74-2.95-6.03-4.44-1.29-1.49-1.93-3.25-1.93-5.27 0-2.49.89-4.54 2.67-6.14 1.78-1.6 4.01-2.4 6.69-2.4 1.18 0 2.47.22 3.88.67 1.41.44 2.2.67 2.38.67 0-.01 1.33.36 1.4-.71z" fill="#FFFFFF"></path></svg>