<svg xmlns:xlink="http://www.w3.org/1999/xlink" aria-labelledby="hnhLogo" class="header-logo-image logo-hnh" role="img" viewBox="0 0 372.59 74.34" x="0" xmlns="http://www.w3.org/2000/svg" y="0" width="372.59"  height="74.34" > <text id="hnhLogo">Hanna Herald</text><style>.st0{fill:#26366d}</style><path class="st0" d="M32.98 73.5H18.52V38.22h-4.06V73.5H0V0h14.46v29.19h4.06V0h14.46v73.5zM66.81 73.5H55.18v-2.31c-.63 1.33-1.59 2.19-2.88 2.57-1.29.38-3.13.58-5.53.58-3.91 0-6.68-.77-8.32-2.31C36.82 70.49 36 68.14 36 65V53.03c0-4.76 2.94-8.72 8.84-11.87 5.89-3.15 8.84-5.36 8.84-6.62v-8.82c0-.98-.19-1.71-.56-2.21-.37-.49-.93-.73-1.67-.73-.62 0-1.14.25-1.57.73-.43.49-.65 1.23-.65 2.21v11.76H36.47V25.62c0-4.41 1.61-7.63 4.82-9.66 2.58-1.61 6.2-2.42 10.87-2.42 4.66 0 8.16.88 10.49 2.63 2.77 2.03 4.16 5.36 4.16 9.97V73.5zM53.67 62.37V47.04c-1.76.49-2.96 1.09-3.59 1.79-.63.7-.95 1.61-.95 2.73v10.82c0 .91.2 1.59.61 2.05.41.46.99.68 1.75.68.63 0 1.15-.23 1.56-.68.42-.47.62-1.15.62-2.06zM100.83 73.5H87.69V25.62c0-1.82-.76-2.74-2.27-2.74-.76 0-1.32.22-1.7.66-.38.44-.57 1.13-.57 2.07V73.5H70.02V13.96h13.13v2c.76-.7 1.84-1.28 3.26-1.73 1.42-.45 3.04-.68 4.87-.68 2.77 0 5.06.82 6.85 2.47 1.8 1.65 2.69 3.66 2.69 6.04V73.5zM134.46 73.5h-13.14V25.62c0-1.82-.76-2.74-2.27-2.74-.76 0-1.32.22-1.7.66-.38.44-.57 1.13-.57 2.07V73.5h-13.13V13.96h13.13v2c.76-.7 1.84-1.28 3.26-1.73 1.42-.45 3.04-.68 4.87-.68 2.77 0 5.06.82 6.85 2.47 1.8 1.65 2.69 3.66 2.69 6.04V73.5zM168.2 73.5h-11.62v-2.31c-.63 1.33-1.59 2.19-2.88 2.57-1.29.38-3.13.58-5.53.58-3.91 0-6.68-.77-8.32-2.31-1.64-1.54-2.46-3.89-2.46-7.04V53.03c0-4.76 2.94-8.72 8.84-11.87 5.89-3.15 8.84-5.36 8.84-6.62v-8.82c0-.98-.19-1.71-.56-2.21-.37-.49-.93-.73-1.67-.73-.62 0-1.14.25-1.57.73-.43.49-.65 1.23-.65 2.21v11.76h-12.76V25.62c0-4.41 1.61-7.63 4.82-9.66 2.58-1.61 6.2-2.42 10.87-2.42 4.66 0 8.16.88 10.49 2.63 2.77 2.03 4.16 5.36 4.16 9.97V73.5zm-13.14-11.13V47.04c-1.76.49-2.96 1.09-3.59 1.79-.63.7-.95 1.61-.95 2.73v10.82c0 .91.2 1.59.61 2.05.41.46.99.68 1.75.68.63 0 1.15-.23 1.56-.68.42-.47.62-1.15.62-2.06zM221.21 73.5h-14.46V38.22h-4.06V73.5h-14.46V0h14.46v29.19h4.06V0h14.46v73.5zM254.85 62.26c0 4.41-1.58 7.63-4.72 9.66-2.52 1.61-6.11 2.42-10.77 2.42-4.66 0-8.25-.87-10.77-2.62-3.02-2.1-4.54-5.42-4.54-9.97v-35.6c0-4.48 1.48-7.77 4.44-9.87 2.58-1.82 6.2-2.73 10.87-2.73 4.6 0 8.19.81 10.77 2.42 3.15 1.96 4.72 5.18 4.72 9.66V48.3h-17.67v13.77c0 .97.19 1.72.57 2.24.38.52.94.78 1.7.78s1.32-.26 1.7-.78c.38-.52.57-1.27.57-2.24V50.19h13.13v12.07zm-13.14-22.99V25.71c0-.97-.19-1.71-.57-2.19-.38-.49-.95-.73-1.7-.73-.63 0-1.17.24-1.61.73-.44.49-.66 1.22-.66 2.19v13.56h4.54zM288.77 38.64h-13.14v-13c0-1.83-.76-2.75-2.27-2.75-.76 0-1.32.21-1.7.63-.38.42-.57 1.09-.57 2V73.5h-13.13V13.96h13.13v1.97c.76-.69 1.84-1.26 3.26-1.71 1.42-.45 3.04-.68 4.87-.68 2.77 0 5.06.82 6.85 2.47 1.79 1.65 2.69 3.66 2.69 6.04v16.59zM322.41 73.5h-11.62v-2.31c-.63 1.33-1.59 2.19-2.88 2.57-1.29.38-3.13.58-5.53.58-3.91 0-6.68-.77-8.31-2.31-1.64-1.54-2.46-3.89-2.46-7.04V53.03c0-4.76 2.94-8.72 8.83-11.87 5.89-3.15 8.84-5.36 8.84-6.62v-8.82c0-.98-.19-1.71-.55-2.21-.37-.49-.93-.73-1.67-.73-.62 0-1.14.25-1.57.73-.43.49-.65 1.23-.65 2.21v11.76h-12.76V25.62c0-4.41 1.61-7.63 4.82-9.66 2.58-1.61 6.2-2.42 10.87-2.42 4.66 0 8.16.88 10.49 2.63 2.77 2.03 4.16 5.36 4.16 9.97V73.5zm-13.13-11.13V47.04c-1.76.49-2.96 1.09-3.59 1.79-.63.7-.94 1.61-.94 2.73v10.82c0 .91.2 1.59.61 2.05.41.46.99.68 1.75.68.63 0 1.15-.23 1.56-.68.4-.47.61-1.15.61-2.06zM338.76 73.5h-13.13V0h13.13v73.5zM372.59 73.5h-9.92l-1.13-2c-1.26 1.05-2.02 1.65-2.27 1.79-1.32.7-3.12 1.05-5.38 1.05-3.84 0-6.82-.98-8.93-2.94-2.11-1.96-3.17-4.23-3.17-6.83V21.84c0-2.31.88-4.27 2.64-5.88 1.76-1.61 4.06-2.42 6.9-2.42 1.76 0 3.37.21 4.82.63 1.45.42 2.55.95 3.31 1.58V0h13.13v73.5zm-13.14-11.13V25.41c0-.84-.21-1.49-.61-1.94-.41-.46-.96-.68-1.65-.68-1.51 0-2.27.91-2.27 2.73v36.86c0 .91.19 1.59.57 2.05.38.46.95.68 1.7.68.76 0 1.32-.23 1.7-.68.37-.47.56-1.15.56-2.06z" fill="#26366D"></path></svg>