<svg xmlns:xlink="http://www.w3.org/1999/xlink" aria-labelledby="hrtLogo" class="header-logo-image--size-md header-logo-image logo-hrt" viewBox="0 0 542.25 136.87" x="0" xml:space="preserve" xmlns="http://www.w3.org/2000/svg" y="0" width="542.25"  height="136.87" ><text id="hrtLogo">High River Times</text><style>.st0{fill:#004b8c}</style><path class="st0" d="M.46 33.47h17.73v31.35h6.06V33.47h17.73v81.4H24.24V78.68h-6.06v36.19H.46v-81.4zM46.12 35.67h16.72v15.51H46.12V35.67zm.11 20.35h16.49v58.85H46.23V56.02zM63.51 125.32c0-4.95 3.81-9.57 8.19-11.55-4.82-1.76-6.17-5.5-6.17-9.13 0-2.97 2.02-7.37 6.17-10.45-4.26-3.63-6.51-9.46-6.51-17.27 0-15.29 8.53-21.67 18.4-21.67 4.82 0 9.09 1.43 12.34 4.51 2.36-2.97 6.17-5.39 8.53-5.94v16.72h-3.03c.34 1.98.56 3.96.56 6.38 0 15.73-8.53 21.34-18.4 21.34-1.57 0-3.03-.11-4.38-.44-.34.44-.45.88-.45 1.32 0 1.32.45 1.98 2.8 2.31l5.61.77c12.9 1.76 16.72 6.05 16.72 16.61 0 10.34-8.75 18.04-22.22 18.04-13.22 0-18.16-5.39-18.16-11.55zm25.14-4.4c0-3.19-1.01-5.28-5.39-5.72l-2.36-.22c-1.68 2.42-2.24 4.95-2.24 6.93 0 3.74 1.91 5.61 4.71 5.61 3.48 0 5.28-2.2 5.28-6.6zm-2.47-44c0-8.25-.45-9.46-2.58-9.46s-2.58 1.65-2.58 9.46.56 9.68 2.58 9.68 2.58-1.87 2.58-9.68zM105.81 33.47h16.49v28.71c2.47-3.3 8.08-6.93 12.45-6.93 5.5 0 8.75 1.76 8.75 11.55v48.07h-16.49V72.96c0-1.87-.45-2.64-1.46-2.64-1.12 0-2.58.77-3.25 1.1v43.45h-16.49v-81.4zM163.71 33.47h18.74c12.01 0 21.88 7.7 21.88 27.17 0 10.34-2.81 17.49-6.96 21.12l8.19 33.11h-17.28l-6.17-27.17h-1.23v27.17h-17.17v-81.4zm18.62 41.58c2.36 0 4.38-2.42 4.38-14.19 0-11.11-2.02-12.43-4.49-12.43h-1.35v26.62h1.46zM206.34 35.67h16.72v15.51h-16.72V35.67zm.11 20.35h16.49v58.85h-16.49V56.02zM223.4 56.02h16.38l2.02 22c.67 6.05 1.12 10.89 1.79 17.6h.22c.67-6.71 1.23-11.55 1.79-17.71l1.91-21.89h15.26l-9.31 59.18h-20.64l-9.42-59.18zM261.54 85.5c0-20.02 6.62-30.25 19.3-30.25 16.94 0 18.4 15.95 18.4 29.7v6.27h-21.65c0 7.26.79 11.44 3.37 11.44 2.13 0 2.92-1.65 3.14-7.81l15.26.44c-1.46 12.1-5.95 20.35-18.51 20.35-12.58 0-19.31-10.34-19.31-30.14zm21.99-4.18c-.11-10.34-.45-12.54-2.69-12.54-2.02 0-3.25 2.53-3.25 12.54h5.94z" fill="#004B8C"></path><g><path class="st0" d="M302.28 56.02h16.49v9.24h.11c1.91-5.5 5.5-10.01 9.99-10.01 1.01 0 1.91.22 1.91.22V71.2h-1.57c-4.82 0-8.08.55-10.43 1.87v41.8h-16.49V56.02z" fill="#004B8C"></path></g><g><path class="st0" d="M356.59 48.43h-10.32V33.47h38.37v14.96h-10.32v66.44h-17.73V48.43zM385.87 35.67h16.72v15.51h-16.72V35.67zm.11 20.35h16.49v58.85h-16.49V56.02zM406.18 56.02h16.49v6.16c2.47-3.3 8.08-6.93 12.45-6.93 4.49 0 7.52 1.21 8.41 7.04 2.92-3.63 8.75-7.04 12.79-7.04 5.5 0 8.75 1.76 8.75 11.55v48.07h-16.49V72.96c0-1.87-.45-2.64-1.46-2.64s-2.47.66-3.25 1.1v43.45h-16.49V72.96c0-1.87-.45-2.64-1.46-2.64-1.12 0-2.58.77-3.25 1.1v43.45h-16.49V56.02zM466.99 85.5c0-20.02 6.62-30.25 19.3-30.25 16.94 0 18.4 15.95 18.4 29.7v6.27h-21.65c0 7.26.79 11.44 3.37 11.44 2.13 0 2.92-1.65 3.14-7.81l15.26.44c-1.46 12.1-5.95 20.35-18.51 20.35-12.58 0-19.31-10.34-19.31-30.14zm21.99-4.18c-.11-10.34-.45-12.54-2.69-12.54-2.02 0-3.25 2.53-3.25 12.54h5.94z" fill="#004B8C"></path></g><g><path class="st0" d="M505.34 96.83l14.36-1.76c.79 6.16 2.58 8.47 4.15 8.47 1.35 0 2.47-.44 2.47-2.53 0-3.63-3.7-5.06-7.97-8.47-5.5-4.4-11.89-10.23-11.89-20.9 0-13.09 10.21-16.83 16.72-16.83 10.88 0 17.39 4.51 18.62 17.93l-14.14 2.2c-.56-6.16-1.46-7.15-3.59-7.15-1.01 0-1.91.77-1.91 2.31 0 3.74 3.37 6.05 7.41 9.13 5.72 4.51 12.68 9.13 12.68 19.58 0 10.23-6.51 17.05-18.06 17.05-14.37 0-17.62-8.14-18.85-19.03z" fill="#004B8C"></path></g><g><path d="M4.72 2.31H0V0h11.5v2.31H6.79V22.2H4.72V2.31zM13.75 0h2v8.55c.86-1.17 2.42-2.52 4.12-2.52 2.1 0 3.21 1.53 3.21 4.41V22.2H21.1V10.95c0-1.89-.52-2.79-1.85-2.79-1.26 0-2.62 1.17-3.51 2.28V22.2h-2V0zM25.52 14.28c0-5.7 2.42-8.25 5.04-8.25 2.89 0 4.64 2.82 4.64 8.16v.6h-7.7c.07 3.72 1.26 5.7 3.14 5.7 1.53 0 2.35-1.05 3.09-2.76l1.38 1.05c-.91 2.28-2.49 3.75-4.57 3.75-2.84 0-5.02-2.73-5.02-8.25zm7.78-1.32c-.12-2.88-.99-4.86-2.77-4.86-1.46 0-2.79 1.47-3.01 4.86h5.78z"></path></g></svg>