<svg xmlns:xlink="http://www.w3.org/1999/xlink" aria-labelledby="ktwLogo" class="header-logo-image logo-ktw" role="img" viewBox="0 0 628.15 103.4" x="0" xmlns="http://www.w3.org/2000/svg" y="0" width="628.15"  height="103.4" > <text id="ktwLogo">Kingston/Frontenac This Week</text><style>.st0{fill:#004b8c}</style><path class="st0" d="M0 0h17.17v31.9c1.35-6.71 2.69-12.21 4.15-17.16L25.58 0H40.5L30.07 31.46 41.85 81.4H24.23l-6.17-31.24-.9 3.74v27.5H0V0z" fill="#004B8C"></path><path class="st0" d="M41.51 2.2h16.72v15.51H41.51V2.2zm.12 20.35h16.49V81.4H41.63V22.55zM62.04 22.55h16.49v6.16c2.47-3.3 8.08-6.93 12.45-6.93 5.5 0 8.75 1.76 8.75 11.55V81.4H83.25V39.49c0-1.87-.45-2.64-1.46-2.64-1.12 0-2.58.77-3.25 1.1V81.4h-16.5V22.55zM100.19 91.85c0-4.95 3.81-9.57 8.19-11.55-4.82-1.76-6.17-5.5-6.17-9.13 0-2.97 2.02-7.37 6.17-10.45-4.26-3.63-6.51-9.46-6.51-17.27 0-15.29 8.53-21.67 18.4-21.67 4.82 0 9.09 1.43 12.34 4.51 2.36-2.97 6.17-5.39 8.53-5.94v16.72h-3.03c.34 1.98.56 3.96.56 6.38 0 15.73-8.53 21.34-18.4 21.34-1.57 0-3.03-.11-4.38-.44-.34.44-.45.88-.45 1.32 0 1.32.45 1.98 2.8 2.31l5.61.77c12.9 1.76 16.72 6.05 16.72 16.61 0 10.34-8.75 18.04-22.22 18.04-13.22 0-18.16-5.39-18.16-11.55zm25.14-4.4c0-3.19-1.01-5.28-5.39-5.72l-2.36-.22c-1.68 2.42-2.24 4.95-2.24 6.93 0 3.74 1.91 5.61 4.71 5.61 3.48 0 5.28-2.2 5.28-6.6zm-2.47-44c0-8.25-.45-9.46-2.58-9.46s-2.58 1.65-2.58 9.46c0 7.81.56 9.68 2.58 9.68s2.58-1.87 2.58-9.68z" fill="#004B8C"></path><path class="st0" d="M140.47 63.36l14.36-1.76c.79 6.16 2.58 8.47 4.15 8.47 1.35 0 2.47-.44 2.47-2.53 0-3.63-3.7-5.06-7.97-8.47-5.5-4.4-11.89-10.23-11.89-20.9 0-13.09 10.21-16.83 16.72-16.83 10.88 0 17.39 4.51 18.62 17.93l-14.14 2.2c-.56-6.16-1.46-7.15-3.59-7.15-1.01 0-1.91.77-1.91 2.31 0 3.74 3.37 6.05 7.4 9.13 5.72 4.51 12.68 9.13 12.68 19.58 0 10.23-6.51 17.05-18.06 17.05-14.35 0-17.6-8.14-18.84-19.03zM182.1 70.51V34.98h-4.49V22.55h4.49V2.64h16.38v19.91H206v12.43h-7.52v29.48c0 5.39 1.12 5.72 3.93 5.72 1.57 0 2.8-.22 3.59-.44v11.55c-1.01.33-4.49.66-9.2.66-8.53 0-14.7-1.98-14.7-11.44z" fill="#004B8C"></path><g><path class="st0" d="M205.49 52.03c0-20.02 6.73-30.25 19.41-30.25 12.57 0 19.41 10.23 19.41 30.25 0 19.8-6.84 30.14-19.41 30.14-12.56 0-19.41-10.34-19.41-30.14zm22.22-.11c0-14.08-.56-16.39-2.81-16.39-2.02 0-2.92 1.21-2.92 16.39 0 14.19.79 17.16 2.92 17.16 2.14 0 2.81-1.76 2.81-17.16zM247.57 22.55h16.49v6.16c2.47-3.3 8.08-6.93 12.45-6.93 5.5 0 8.75 1.76 8.75 11.55V81.4h-16.49V39.49c0-1.87-.45-2.64-1.46-2.64-1.12 0-2.58.77-3.25 1.1V81.4h-16.49V22.55zM313.32 14.96H303V0h38.37v14.96h-10.32V81.4h-17.73V14.96z" fill="#004B8C"></path></g><g><path class="st0" d="M341.17 0h16.49v28.71c2.47-3.3 8.08-6.93 12.45-6.93 5.5 0 8.75 1.76 8.75 11.55V81.4h-16.49V39.49c0-1.87-.45-2.64-1.46-2.64-1.12 0-2.58.77-3.25 1.1V81.4h-16.49V0zM383.25 2.2h16.72v15.51h-16.72V2.2zm.11 20.35h16.49V81.4h-16.49V22.55zM402.43 63.36l14.36-1.76c.79 6.16 2.58 8.47 4.15 8.47 1.35 0 2.47-.44 2.47-2.53 0-3.63-3.7-5.06-7.97-8.47-5.5-4.4-11.89-10.23-11.89-20.9 0-13.09 10.21-16.83 16.72-16.83 10.88 0 17.39 4.51 18.62 17.93l-14.14 2.2c-.56-6.16-1.46-7.15-3.59-7.15-1.01 0-1.91.77-1.91 2.31 0 3.74 3.37 6.05 7.41 9.13 5.72 4.51 12.68 9.13 12.68 19.58 0 10.23-6.51 17.05-18.06 17.05-14.36 0-17.61-8.14-18.85-19.03zM455.16 0h17.28l2.24 33.22c.34 5.28.67 10.89.9 17.49 0 0 .45-6.38.11 0l1.57-17.49L481.08 0h12L496 32.89c.67 6.93 1.01 10.89 1.35 17.82h.11c.34-7.15.56-10.78 1.01-17.71l2.13-33h15.93l-10.1 81.73h-16.27l-4.26-45.1h-.22l-4.26 45.1h-16.27L455.16 0z" fill="#004B8C"></path></g><g><path class="st0" d="M512.87 52.03c0-20.02 6.62-30.25 19.3-30.25 16.94 0 18.4 15.95 18.4 29.7v6.27h-21.65c0 7.26.79 11.44 3.37 11.44 2.13 0 2.92-1.65 3.14-7.81l15.26.44c-1.46 12.1-5.95 20.35-18.51 20.35-12.58 0-19.31-10.34-19.31-30.14zm21.99-4.18c-.11-10.34-.45-12.54-2.69-12.54-2.02 0-3.25 2.53-3.25 12.54h5.94zM551.35 52.03c0-20.02 6.62-30.25 19.3-30.25 16.94 0 18.4 15.95 18.4 29.7v6.27H567.4c0 7.26.79 11.44 3.37 11.44 2.13 0 2.92-1.65 3.14-7.81l15.26.44c-1.46 12.1-5.95 20.35-18.51 20.35-12.58 0-19.31-10.34-19.31-30.14zm21.99-4.18c-.11-10.34-.45-12.54-2.69-12.54-2.02 0-3.25 2.53-3.25 12.54h5.94z" fill="#004B8C"></path></g><g><path class="st0" d="M591.57 0h15.48v46.2c1.12-6.16 2.36-11.44 3.03-14.08l2.47-9.57h14.25l-7.63 21.89 8.98 36.96h-15.71l-3.81-21.67-1.58 6.27v15.4h-15.48V0z" fill="#004B8C"></path></g></svg>