<svg xmlns:xlink="http://www.w3.org/1999/xlink" aria-labelledby="lusLogo" class="header-logo-image logo-lus" role="img" viewBox="0 0 568.06 115.65" x="0" xml:space="preserve" xmlns="http://www.w3.org/2000/svg" y="0" width="568.06"  height="115.65" > <text id="lusLogo">Lucknow Sentinel</text> <style>.st0{fill:#004b8c}</style><path d="M4.72 2.31H0V0h11.5v2.31H6.79V22.2H4.72V2.31zM13.75 0h2v8.55c.86-1.17 2.42-2.52 4.12-2.52 2.1 0 3.21 1.53 3.21 4.41V22.2H21.1V10.95c0-1.89-.52-2.79-1.85-2.79-1.26 0-2.62 1.17-3.51 2.28V22.2h-2V0zm11.77 14.28c0-5.7 2.42-8.25 5.04-8.25 2.89 0 4.64 2.82 4.64 8.16v.6h-7.7c.07 3.72 1.26 5.7 3.14 5.7 1.53 0 2.35-1.05 3.09-2.76l1.38 1.05c-.91 2.28-2.49 3.75-4.57 3.75-2.84 0-5.02-2.73-5.02-8.25zm7.78-1.32c-.12-2.88-.99-4.86-2.77-4.86-1.46 0-2.79 1.47-3.01 4.86h5.78z"></path><path class="st0" d="M.45 33.48h17.73v66.99h13.8v14.41H.45v-81.4zm32.87 70.62V56.03h16.49v42.35c0 1.87.45 2.64 1.46 2.64 1.12 0 2.58-.22 3.25-.55V56.03h16.49v58.85H54.53v-6.16c-2.47 3.3-8.08 6.93-12.45 6.93-5.5 0-8.76-1.76-8.76-11.55zm39.83-18.59c0-20.02 6.73-30.25 19.41-30.25 12.57 0 17.5 8.58 18.51 23.1l-16.04.77c-.22-6.93-.22-10.12-2.47-10.12-2.02 0-2.92 1.54-2.92 16.39 0 14.19.79 17.16 2.92 17.16s2.69-2.86 2.69-11.44l15.82.44c-.56 14.96-5.95 24.09-18.51 24.09-12.56 0-19.41-10.34-19.41-30.14zm39.72-52.03h15.48v46.2c1.12-6.16 2.36-11.44 3.03-14.08l2.47-9.57h14.25l-7.63 21.89 8.98 36.96h-15.71l-3.82-21.67-1.57 6.27v15.4h-15.48v-81.4zm37.14 22.55h16.49v6.16c2.47-3.3 8.08-6.93 12.45-6.93 5.5 0 8.75 1.76 8.75 11.55v48.07h-16.49V72.97c0-1.87-.45-2.64-1.46-2.64-1.12 0-2.58.77-3.25 1.1v43.45h-16.49V56.03zm39.72 29.48c0-20.02 6.73-30.25 19.41-30.25 12.57 0 19.41 10.23 19.41 30.25 0 19.8-6.84 30.14-19.41 30.14s-19.41-10.34-19.41-30.14zm22.21-.11c0-14.08-.56-16.39-2.81-16.39-2.02 0-2.92 1.21-2.92 16.39 0 14.19.79 17.16 2.92 17.16 2.14 0 2.81-1.76 2.81-17.16zM227.32 56.03h16.38l1.91 23.87c.22 3.19.22 6.05.45 12.21h.22c.45-5.83.79-9.02 1.23-12.21l3.7-23.87h8.86l3.7 23.87c.45 3.19.9 7.26 1.23 12.21h.22c.11-5.17.22-9.02.45-12.21l1.91-23.87h15.26L275 115.21h-15.93l-3.93-27.94h-.22l-3.93 27.94h-15.82l-7.85-59.18zM298.79 88.15l16.38-1.1c.79 11.66 1.46 14.3 4.94 14.3 2.36 0 3.59-1.87 3.59-5.61 0-6.16-4.94-10.23-10.43-15.84-6.28-6.49-13.24-13.42-13.24-25.96 0-12.98 6.51-21.23 19.63-21.23 15.6 0 20.08 9.13 20.64 26.07l-16.49 1.32c-.34-12.1-1.57-12.54-3.81-12.54-1.91 0-2.58 1.98-2.58 4.51 0 7.48 4.6 11.44 9.87 16.5 6.51 6.38 13.8 12.54 13.8 26.18 0 13.53-7.29 20.9-21.09 20.9-18.07 0-20.43-11.88-21.21-27.5zm43.08-2.64c0-20.02 6.62-30.25 19.3-30.25 16.94 0 18.4 15.95 18.4 29.7v6.27h-21.65c0 7.26.79 11.44 3.37 11.44 2.13 0 2.92-1.65 3.14-7.81l15.26.44c-1.46 12.1-5.95 20.35-18.51 20.35-12.57 0-19.31-10.34-19.31-30.14zm21.99-4.18c-.11-10.34-.45-12.54-2.69-12.54-2.02 0-3.25 2.53-3.25 12.54h5.94zm17.84-25.3h16.49v6.16c2.47-3.3 8.08-6.93 12.45-6.93 5.5 0 8.75 1.76 8.75 11.55v48.07H402.9V72.97c0-1.87-.45-2.64-1.46-2.64-1.12 0-2.58.77-3.25 1.1v43.45H381.7V56.03zm43.31 47.96V68.46h-4.49V56.03h4.49V36.12h16.38v19.91h7.52v12.43h-7.52v29.48c0 5.39 1.12 5.72 3.93 5.72 1.57 0 2.8-.22 3.59-.44v11.55c-1.01.33-4.49.66-9.2.66-8.53 0-14.7-1.98-14.7-11.44zm26.37-68.31h16.72v15.51h-16.72V35.68zm.11 20.35h16.49v58.85h-16.49V56.03zm20.31 0h16.49v6.16c2.47-3.3 8.08-6.93 12.45-6.93 5.5 0 8.75 1.76 8.75 11.55v48.07H493V72.97c0-1.87-.45-2.64-1.46-2.64-1.12 0-2.58.77-3.25 1.1v43.45H471.8V56.03zm39.72 29.48c0-20.02 6.62-30.25 19.3-30.25 16.94 0 18.4 15.95 18.4 29.7v6.27h-21.65c0 7.26.79 11.44 3.37 11.44 2.13 0 2.92-1.65 3.14-7.81l15.26.44c-1.46 12.1-5.95 20.35-18.51 20.35-12.58 0-19.31-10.34-19.31-30.14zm21.99-4.18c-.11-10.34-.45-12.54-2.69-12.54-2.02 0-3.25 2.53-3.25 12.54h5.94zm18.06-47.85h16.49v81.4h-16.49v-81.4z" fill="#004B8C"></path></svg>