<svg xmlns:xlink="http://www.w3.org/1999/xlink" aria-labelledby="myfLogo" class="header-logo-image logo-myf" role="img" viewBox="0 0 591.28 100.8" xml:space="preserve" xmlns="http://www.w3.org/2000/svg" width="591.28"  height="100.8" > <text id="myfLogo">Mayerthorpe Freelancer</text><path d="M42.32 90.07H31.58V54.91l-6.2 35.16h-8.22l-7.13-35.16v35.16H.62V27.44H16.1l5.41 32.47 4.86-32.47h15.95v62.63zM70.4 90.07h-9.57V88.1c-.52 1.13-1.31 1.86-2.37 2.19-1.06.33-2.58.49-4.55.49-3.22 0-5.5-.66-6.85-1.97-1.35-1.31-2.02-3.31-2.02-5.99v-10.2c0-4.05 2.42-7.42 7.27-10.11 4.85-2.68 7.27-4.56 7.27-5.64v-7.51c0-.83-.15-1.46-.46-1.88-.31-.42-.76-.63-1.37-.63-.51 0-.94.21-1.3.63-.35.42-.53 1.04-.53 1.88v10.02h-10.5V49.27c0-3.76 1.32-6.5 3.97-8.23 2.13-1.37 5.11-2.06 8.95-2.06 3.84 0 6.72.75 8.64 2.24 2.28 1.73 3.42 4.56 3.42 8.5v40.35zm-10.81-9.49V67.52c-1.45.42-2.44.92-2.96 1.52s-.78 1.37-.78 2.33v9.21c0 .78.17 1.36.51 1.74.34.39.82.58 1.44.58.52 0 .95-.19 1.28-.58.34-.38.51-.96.51-1.74zM101.52 39.34L93.1 89.71c-.62 3.6-1.09 5.83-1.41 6.67-.57 1.44-1.77 2.67-3.59 3.7-.57.3-1.2.5-1.87.59-.68.09-1.67.13-2.97.13h-7.34v-6.89h3.75c.94 0 1.6-.3 1.99-.89.39-.59.59-1.4.59-2.41 0-.59-.08-1.16-.23-1.7L71.95 39.34h10.81l4.55 26.79 3.54-26.79h10.67zM128.35 80.49c0 3.76-1.3 6.5-3.89 8.23-2.07 1.37-5.03 2.06-8.87 2.06-3.84 0-6.79-.75-8.87-2.24-2.49-1.79-3.73-4.62-3.73-8.5V49.72c0-3.82 1.22-6.62 3.66-8.41 2.13-1.55 5.11-2.33 8.95-2.33 3.79 0 6.74.69 8.87 2.06 2.59 1.67 3.89 4.41 3.89 8.23V68.6h-14.55v11.74c0 .83.16 1.47.47 1.91.31.44.78.67 1.4.67.62 0 1.09-.22 1.4-.67.31-.44.47-1.08.47-1.91V70.21h10.81v10.28zM117.54 60.9V49.35c0-.83-.16-1.45-.47-1.87-.31-.41-.78-.62-1.4-.62-.52 0-.96.21-1.32.62-.36.42-.54 1.04-.54 1.87V60.9h3.73zM156.28 60.37h-10.81V49.29c0-1.56-.62-2.34-1.87-2.34-.62 0-1.09.18-1.4.54-.31.36-.47.93-.47 1.7v40.88h-10.81V39.34h10.81v1.68c.62-.59 1.52-1.08 2.68-1.46 1.17-.38 2.5-.58 4.01-.58 2.28 0 4.16.7 5.64 2.1 1.48 1.4 2.22 3.12 2.22 5.14v14.15zM179.77 90.07h-6.85c-4.67 0-7.53-.73-8.6-2.19-1.06-1.46-1.59-4.81-1.59-10.04V46.95h-4.82v-7.6h4.82v-10.2h10.81v10.2h5.83v7.6h-5.83v30.86c0 1.49.44 2.54 1.32 3.13.62.42 1.58.63 2.88.63h2.02v8.5zM207.31 90.07H196.5V49.18c0-1.55-.62-2.33-1.87-2.33-.62 0-1.09.18-1.4.54-.31.36-.47.93-.47 1.7v40.97h-10.81V27.44h10.81v13.42c.67-.66 1.57-1.13 2.68-1.43 1.11-.3 2.45-.45 4.01-.45 2.28 0 4.16.69 5.64 2.06 1.48 1.37 2.22 3.04 2.22 5.01v44.02zM235.24 80.49c0 3.82-1.24 6.56-3.73 8.23-2.02 1.37-4.95 2.06-8.79 2.06-3.89 0-6.9-.75-9.02-2.24-2.54-1.79-3.81-4.62-3.81-8.5V49.72c0-3.82 1.27-6.62 3.81-8.41 2.18-1.55 5.19-2.33 9.02-2.33 3.53 0 6.5.88 8.91 2.64 2.41 1.76 3.62 4.31 3.62 7.65v31.22zm-10.82-.17V49.36c0-.83-.16-1.46-.47-1.88-.31-.42-.78-.62-1.4-.62-.52 0-.96.21-1.32.62-.36.42-.54 1.04-.54 1.88v30.97c0 .83.16 1.47.47 1.92.31.45.78.67 1.4.67.62 0 1.09-.22 1.4-.67.31-.46.46-1.09.46-1.93zM262.7 60.37h-10.81V49.29c0-1.56-.62-2.34-1.87-2.34-.62 0-1.09.18-1.4.54-.31.36-.47.93-.47 1.7v40.88h-10.81V39.34h10.81v1.68c.62-.59 1.52-1.08 2.68-1.46 1.17-.38 2.5-.58 4.01-.58 2.28 0 4.16.7 5.64 2.1 1.48 1.4 2.22 3.12 2.22 5.14v14.15zM290.23 83.71c0 1.97-.73 3.64-2.18 5.01-1.45 1.37-3.34 2.06-5.68 2.06-1.45 0-2.77-.18-3.97-.54-1.19-.36-2.1-.8-2.72-1.34v11.9h-10.81V39.34h8.17l.93 2.06c.73-.66 1.37-1.13 1.94-1.43 1.14-.66 2.59-.98 4.36-.98 3.11 0 5.6.92 7.47 2.77 1.66 1.61 2.49 3.46 2.49 5.55v36.4zm-10.81-3.13v-31.4c0-1.55-.62-2.33-1.87-2.33-.62 0-1.09.19-1.4.58-.31.39-.47.97-.47 1.74v31.49c0 .72.17 1.27.51 1.66.34.39.79.58 1.36.58 1.25.01 1.87-.77 1.87-2.32zM317.93 80.49c0 3.76-1.3 6.5-3.89 8.23-2.08 1.37-5.03 2.06-8.87 2.06-3.84 0-6.79-.75-8.87-2.24-2.49-1.79-3.73-4.62-3.73-8.5V49.72c0-3.82 1.22-6.62 3.66-8.41 2.12-1.55 5.11-2.33 8.95-2.33 3.79 0 6.74.69 8.87 2.06 2.59 1.67 3.89 4.41 3.89 8.23V68.6h-14.55v11.74c0 .83.16 1.47.47 1.91.31.44.78.67 1.4.67.62 0 1.09-.22 1.4-.67.31-.44.47-1.08.47-1.91V70.21h10.81v10.28zM307.11 60.9V49.35c0-.83-.16-1.45-.47-1.87-.31-.41-.78-.62-1.4-.62-.52 0-.96.21-1.32.62-.36.42-.54 1.04-.54 1.87V60.9h3.73zM356.04 35.41h-10.5v16.91h9.41v7.69h-9.41v30.06h-11.9V27.44h22.4v7.97zM383.42 60.37h-10.81V49.29c0-1.56-.62-2.34-1.87-2.34-.62 0-1.09.18-1.4.54-.31.36-.47.93-.47 1.7v40.88h-10.81V39.34h10.81v1.68c.62-.59 1.52-1.08 2.68-1.46 1.17-.38 2.5-.58 4.01-.58 2.28 0 4.16.7 5.64 2.1 1.48 1.4 2.22 3.12 2.22 5.14v14.15zM410.96 80.49c0 3.76-1.3 6.5-3.89 8.23-2.08 1.37-5.03 2.06-8.87 2.06-3.84 0-6.79-.75-8.87-2.24-2.49-1.79-3.73-4.62-3.73-8.5V49.72c0-3.82 1.22-6.62 3.66-8.41 2.13-1.55 5.11-2.33 8.95-2.33 3.79 0 6.74.69 8.87 2.06 2.59 1.67 3.89 4.41 3.89 8.23V68.6h-14.55v11.74c0 .83.16 1.47.47 1.91.31.44.78.67 1.4.67.62 0 1.09-.22 1.4-.67.31-.44.47-1.08.47-1.91V70.21h10.81v10.28zM400.15 60.9V49.35c0-.83-.16-1.45-.47-1.87-.31-.41-.78-.62-1.4-.62-.52 0-.96.21-1.32.62-.36.42-.54 1.04-.54 1.87V60.9h3.73zM438.73 80.49c0 3.76-1.3 6.5-3.89 8.23-2.08 1.37-5.03 2.06-8.87 2.06-3.84 0-6.79-.75-8.87-2.24-2.49-1.79-3.73-4.62-3.73-8.5V49.72c0-3.82 1.22-6.62 3.66-8.41 2.13-1.55 5.11-2.33 8.95-2.33 3.79 0 6.74.69 8.87 2.06 2.59 1.67 3.89 4.41 3.89 8.23V68.6h-14.55v11.74c0 .83.16 1.47.47 1.91.31.44.78.67 1.4.67.62 0 1.09-.22 1.4-.67.31-.44.47-1.08.47-1.91V70.21h10.81v10.28zM427.92 60.9V49.35c0-.83-.16-1.45-.47-1.87-.31-.41-.78-.62-1.4-.62-.52 0-.96.21-1.32.62-.36.42-.54 1.04-.54 1.87V60.9h3.73zM452.04 90.07h-10.81V27.44h10.81v62.63zM480.04 90.07h-9.57V88.1c-.52 1.13-1.31 1.86-2.37 2.19-1.06.33-2.58.49-4.55.49-3.22 0-5.5-.66-6.85-1.97-1.35-1.31-2.02-3.31-2.02-5.99v-10.2c0-4.05 2.42-7.42 7.27-10.11 4.85-2.68 7.27-4.56 7.27-5.64v-7.51c0-.83-.15-1.46-.46-1.88-.31-.42-.76-.63-1.37-.63-.51 0-.94.21-1.3.63-.35.42-.53 1.04-.53 1.88v10.02h-10.5V49.27c0-3.76 1.32-6.5 3.97-8.23 2.13-1.37 5.11-2.06 8.95-2.06 3.84 0 6.72.75 8.63 2.24 2.28 1.73 3.42 4.56 3.42 8.5v40.35zm-10.81-9.49V67.52c-1.45.42-2.44.92-2.96 1.52s-.78 1.37-.78 2.33v9.21c0 .78.17 1.36.51 1.74.34.39.82.58 1.44.58.52 0 .95-.19 1.28-.58.34-.38.51-.96.51-1.74zM508.05 90.07h-10.81V49.28c0-1.55-.62-2.33-1.87-2.33-.62 0-1.09.19-1.4.56-.31.37-.47.96-.47 1.77v40.79h-10.81V39.34h10.81v1.7c.62-.6 1.52-1.09 2.68-1.48 1.17-.39 2.5-.58 4.01-.58 2.28 0 4.16.7 5.64 2.1 1.48 1.4 2.22 3.12 2.22 5.14v43.85zM535.66 80.49c0 3.82-1.24 6.56-3.73 8.23-2.02 1.37-4.95 2.06-8.79 2.06-3.89 0-6.9-.75-9.02-2.24-2.54-1.79-3.81-4.62-3.81-8.5V49.72c0-3.82 1.27-6.62 3.81-8.41 2.18-1.55 5.18-2.33 9.02-2.33 3.73 0 6.64.69 8.71 2.06 2.54 1.67 3.81 4.41 3.81 8.23V61.8h-10.81V49.36c0-.83-.16-1.46-.47-1.88-.31-.42-.78-.63-1.4-.63-.52 0-.96.21-1.32.62-.36.42-.54 1.04-.54 1.88v30.97c0 .83.16 1.47.47 1.92.31.45.78.67 1.4.67.62 0 1.09-.22 1.4-.67.31-.45.47-1.08.47-1.91V68.15h10.81v12.34zM563.35 80.49c0 3.76-1.3 6.5-3.89 8.23-2.08 1.37-5.03 2.06-8.87 2.06-3.84 0-6.79-.75-8.87-2.24-2.49-1.79-3.73-4.62-3.73-8.5V49.72c0-3.82 1.22-6.62 3.66-8.41 2.13-1.55 5.11-2.33 8.95-2.33 3.79 0 6.74.69 8.87 2.06 2.59 1.67 3.89 4.41 3.89 8.23V68.6h-14.55v11.74c0 .83.16 1.47.47 1.91.31.44.78.67 1.4.67.62 0 1.09-.22 1.4-.67.31-.44.47-1.08.47-1.91V70.21h10.81v10.28zM552.54 60.9V49.35c0-.83-.16-1.45-.47-1.87-.31-.41-.78-.62-1.4-.62-.52 0-.96.21-1.32.62-.36.42-.54 1.04-.54 1.87V60.9h3.73zM591.28 60.37h-10.81V49.29c0-1.56-.62-2.34-1.87-2.34-.62 0-1.09.18-1.4.54-.31.36-.47.93-.47 1.7v40.88h-10.81V39.34h10.81v1.68c.62-.59 1.52-1.08 2.68-1.46 1.17-.38 2.5-.58 4.01-.58 2.28 0 4.16.7 5.64 2.1 1.48 1.4 2.22 3.12 2.22 5.14v14.15z" fill="#004B8C"></path> <path d="M5.73 2.31H0V0h13.98v2.31H8.25V22.2H5.73V2.31zM16.71 0h2.43v8.55c1.05-1.17 2.94-2.52 5.01-2.52 2.55 0 3.9 1.53 3.9 4.41V22.2h-2.4V10.95c0-1.89-.63-2.79-2.25-2.79-1.53 0-3.18 1.17-4.26 2.28V22.2h-2.43V0zM31.02 14.28c0-5.7 2.94-8.25 6.12-8.25 3.51 0 5.64 2.82 5.64 8.16v.6h-9.36c.09 3.72 1.53 5.7 3.81 5.7 1.86 0 2.85-1.05 3.75-2.76l1.68 1.05c-1.11 2.28-3.03 3.75-5.55 3.75-3.45 0-6.09-2.73-6.09-8.25zm9.45-1.32c-.15-2.88-1.2-4.86-3.36-4.86-1.77 0-3.39 1.47-3.66 4.86h7.02z"></path> </svg>