<svg xmlns:xlink="http://www.w3.org/1999/xlink" aria-labelledby="mtaLogo" class="header-logo-image logo-mta" role="img" viewBox="0 0 576.43 115.65" x="0" xml:space="preserve" xmlns="http://www.w3.org/2000/svg" y="0" width="576.43"  height="115.65" > <text id="mtaLogo">Mitchell Advocate</text> <style>.st0{fill:#004b8c}</style><path d="M4.72 2.31H0V0h11.5v2.31H6.79V22.2H4.72V2.31zM13.75 0h2v8.55c.86-1.17 2.42-2.52 4.12-2.52 2.1 0 3.21 1.53 3.21 4.41V22.2H21.1V10.95c0-1.89-.52-2.79-1.85-2.79-1.26 0-2.62 1.17-3.51 2.28V22.2h-2V0zm11.77 14.28c0-5.7 2.42-8.25 5.04-8.25 2.89 0 4.64 2.82 4.64 8.16v.6h-7.7c.07 3.72 1.26 5.7 3.14 5.7 1.53 0 2.35-1.05 3.09-2.76l1.38 1.05c-.91 2.28-2.49 3.75-4.57 3.75-2.84 0-5.02-2.73-5.02-8.25zm7.78-1.32c-.12-2.88-.99-4.86-2.77-4.86-1.46 0-2.79 1.47-3.01 4.86h5.78z"></path><path class="st0" d="M.45 33.48h20.87l4.71 43.34h.11l4.71-43.34h20.76v81.4h-16.6V86.06c0-6.49.11-13.64.11-18.26h-.22c-.56 6.93-1.12 13.31-1.8 18.15l-4.04 28.93h-8.42L16.6 85.95c-.67-4.84-1.01-8.91-1.79-17.93h-.22c.11 2.42.11 10.89.11 18.04v28.82H.45v-81.4zm55.2 2.2h16.72v15.51H55.65V35.68zm.11 20.35h16.49v58.85H55.76V56.03zM77.82 103.99V68.46h-4.49V56.03h4.49V36.12H94.2v19.91h7.52v12.43H94.2v29.48c0 5.39 1.12 5.72 3.93 5.72 1.57 0 2.8-.22 3.59-.44v11.55c-1.01.33-4.49.66-9.2.66-8.53 0-14.7-1.98-14.7-11.44z" fill="#004B8C"></path><path class="st0" d="M101.27 85.51c0-20.02 6.73-30.25 19.41-30.25 12.57 0 17.5 8.58 18.51 23.1l-16.04.77c-.22-6.93-.22-10.12-2.47-10.12-2.02 0-2.92 1.54-2.92 16.39 0 14.19.79 17.16 2.92 17.16s2.69-2.86 2.69-11.44l15.82.44c-.56 14.96-5.95 24.09-18.51 24.09-12.57 0-19.41-10.34-19.41-30.14zM141.21 33.48h16.49v28.71c2.47-3.3 8.08-6.93 12.45-6.93 5.5 0 8.75 1.76 8.75 11.55v48.07h-16.49V72.97c0-1.87-.45-2.64-1.46-2.64-1.12 0-2.58.77-3.25 1.1v43.45h-16.49v-81.4zm39.49 52.03c0-20.02 6.62-30.25 19.3-30.25 16.94 0 18.4 15.95 18.4 29.7v6.27h-21.65c0 7.26.79 11.44 3.37 11.44 2.13 0 2.92-1.65 3.14-7.81l15.26.44c-1.46 12.1-5.95 20.35-18.51 20.35-12.58 0-19.31-10.34-19.31-30.14zm21.99-4.18c-.11-10.34-.45-12.54-2.69-12.54-2.02 0-3.25 2.53-3.25 12.54h5.94zm17.84-47.85h16.49v81.4h-16.49v-81.4zm20.31 0h16.49v81.4h-16.49v-81.4zm44.43-.33h18.51l13.35 81.73h-17.84l-1.68-15.18h-7.63l-1.57 15.18h-16.6l13.46-81.73zm11.55 55c-.67-6.49-1.46-14.52-2.02-19.8-.34-2.75-.56-5.39-.79-7.92h-.22c-.22 2.53-.56 5.17-.79 7.92-.56 5.39-1.35 13.31-2.13 19.8h5.95zm19.19-2.64c0-22.22 4.82-30.25 12.34-30.25 4.26 0 7.74 2.86 9.76 7.26V33.48h16.49v67.1c0 7.04.22 11.33 1.01 14.3h-16.83c-.34-2.09-.67-6.38-.67-6.38-1.57 2.97-5.05 6.93-9.87 6.93-7.52 0-12.23-7.7-12.23-29.92zm22.1 14.52V70.88c-.67-.33-1.35-.77-2.69-.77-1.8 0-2.47 1.1-2.47 15.29 0 13.97.56 15.51 2.58 15.51 1.35 0 2.02-.44 2.58-.88z" fill="#004B8C"></path><g><path class="st0" d="M358.77 56.03h16.38l2.02 22c.67 6.05 1.12 10.89 1.8 17.6h.22c.67-6.71 1.23-11.55 1.8-17.71l1.91-21.89h15.26l-9.31 59.18h-20.64l-9.44-59.18zm38.14 29.48c0-20.02 6.73-30.25 19.41-30.25 12.57 0 19.41 10.23 19.41 30.25 0 19.8-6.84 30.14-19.41 30.14-12.56 0-19.41-10.34-19.41-30.14zm22.22-.11c0-14.08-.56-16.39-2.8-16.39-2.02 0-2.92 1.21-2.92 16.39 0 14.19.79 17.16 2.92 17.16s2.8-1.76 2.8-17.16z" fill="#004B8C"></path><path class="st0" d="M435.62 85.51c0-20.02 6.73-30.25 19.41-30.25 12.57 0 17.5 8.58 18.51 23.1l-16.04.77c-.22-6.93-.22-10.12-2.47-10.12-2.02 0-2.92 1.54-2.92 16.39 0 14.19.79 17.16 2.92 17.16s2.69-2.86 2.69-11.44l15.82.44c-.56 14.96-5.95 24.09-18.51 24.09-12.56 0-19.41-10.34-19.41-30.14z" fill="#004B8C"></path><path class="st0" d="M472.98 99.48c0-12.54 7.18-19.8 20.98-23.21v-3.63c0-3.74-.34-4.4-1.91-4.4-1.46 0-2.02.88-2.69 5.06l-14.59-1.76c2.69-13.31 9.76-16.28 19.19-16.28 11 0 15.71 4.95 15.71 16.72v28.6c0 7.04.22 11.33.9 14.3h-15.82c-.56-1.54-.79-3.08-.79-6.93-2.02 4.29-4.83 7.37-9.99 7.37-5.94 0-10.99-3.96-10.99-15.84zm20.99.66V87.16c-4.04 2.09-5.16 5.61-5.16 10.01 0 2.31.79 3.85 2.47 3.85.89 0 2.01-.44 2.69-.88zm20.64 3.85V68.46h-4.49V56.03h4.49V36.12h16.38v19.91h7.52v12.43h-7.52v29.48c0 5.39 1.12 5.72 3.93 5.72 1.57 0 2.8-.22 3.59-.44v11.55c-1.01.33-4.49.66-9.2.66-8.53 0-14.7-1.98-14.7-11.44zm24.01-18.48c0-20.02 6.62-30.25 19.3-30.25 16.94 0 18.4 15.95 18.4 29.7v6.27h-21.65c0 7.26.79 11.44 3.37 11.44 2.13 0 2.92-1.65 3.14-7.81l15.26.44c-1.46 12.1-5.95 20.35-18.51 20.35-12.58 0-19.31-10.34-19.31-30.14zm21.99-4.18c-.11-10.34-.45-12.54-2.69-12.54-2.02 0-3.25 2.53-3.25 12.54h5.94z" fill="#004B8C"></path></g></svg>