<svg xmlns:xlink="http://www.w3.org/1999/xlink" aria-labelledby="emmLogo" class="header-logo-image--size-md header-logo-image logo-emm" viewBox="0 0 420.72 103.8" x="0" xml:space="preserve" xmlns="http://www.w3.org/2000/svg" y="0" width="420.72"  height="103.8" ><text id="emmLogo">Mid-North Monitor</text><style>.st0{fill:#ea8623}.st1{fill:#bc2026}.st4{fill:#cf2027}.st5{fill:#df1f28}.st6{fill:#9e1c20}.st10{fill:#e34326}</style><path class="st0" d="M301.97 37.66l-2.23-1.53-.26-3.27 8.23 7.97zM310.07 43.99l-4.36-.88.1-1.35z" fill="#EA8623"></path><path class="st1" d="M306.85 64.89l.17-2.16 4.58 1.44z" fill="#BC2026"></path><path d="M309.5 34.73l-1.26-3.89 1.55.12z" fill="#C52126"></path><path d="M356.36 65.25l-1.02-3.61-.79 3.46z" fill="#BE2027"></path><path class="st1" d="M307.69 49.86l-2.81.5.57-2.85z" fill="#BC2026"></path><path class="st4" d="M294.32 28.52c.42-.89 4.76-.15 4.76-.15 1.6-3.18 7.14 1.35 7.14 1.35l-.12-2.12c4.33-2.47 9.42 4.09 9.42 4.09s-1.17-1.56 2.19-1.73c3.35-.16 5.29 5.36 5.29 5.36s.14-1.58 2.3-.96c2.15.62 6.57 7.68 6.57 7.68s.03-2.34-.79-5.33c-.81-2.98 1.54-3.56 1.54-3.56s-.59-1.46.06-4.69c.66-3.22 2.38-4.29 2.38-4.29s.85-4.42 2.09-6.19c1.24-1.77 1.6 3.24 1.6 3.24l1.31-.02c2.47 1.54 3.16 7.47 3.16 7.47s1.56-.84 2.51-.81c.94.04 2.67 5.41 2.67 5.41s2.19-1.72 3.14-.33c.95 1.4-1.35 7.43-1.35 7.43s.83-.72 1.46-.24c2.21 1.67-3.5 13.24-3.5 13.24.82-2.09 3.85-3.17 3.85-3.17.96-3.67 4.89-3.73 4.89-3.73s2.23-2.71 4.01-3.39c1.77-.68.16 6.21.16 6.21l1.62-.46c2.25.02-1.18 8.57-1.18 8.57s2.41-.2 1.33 2.7c-1.07 2.9-7.17 7.41-7.17 7.41s4.31 1.24 5.37 2.04c1.06.8-3.64 3.33-3.64 3.33s1.21.58.34 2.28c-.88 1.7-7.12 1.37-7.12 1.37s1.97 3.18-.97 2.3c-2.94-.88-6.32-3.44-6.32-3.44l-1.64-.43-18.76-22.25C308.88 37 297.9 30.42 294.32 28.52" fill="#CF2027"></path><path class="st5" d="M341.13 88.63c-1.81 3.03-3.38-2.56-3.38-2.56s-.54 3.98-2.4 6.63c-1.87 2.64-2.67 1.02-2.67 1.02s-3.05 4.79-5.94 4.29c-2.42-.42-1.15-2.51-.67-3.2.12-.14.16-.23.16-.23l-.16.23c-.35.4-1.39 1.25-4.22 1.86-3.82.83-3.95-2.66-3.95-2.66s-4.2-.47-4-1.68c.2-1.2 3.74-3.93 3.74-3.93l-.69-.86c-.86-2 3.92-6.49 3.92-6.49s-.83.72-4.18.88c-3.36.16-2.74-2.08-2.74-2.08s-5.13.85-6.55.11 3.06-3.43 3.06-3.43-.73.12-2.83-.12-1.59-1.88-1.59-1.88-1.73-.3-3.05-.28c-1.31.02-3.85-3.26-3.85-3.26s-5.5.91-4.98-.74c.51-1.64 5.31-3.41 5.31-3.41s-2-.84-1.22-1.94 6.07-.81 6.07-.81l-.38-1.3c-.86-2 2.34-1.95 4.96-1.99 2.62-.04 5.88.4 5.88.4l-2.01-2.2s-5.79-2.35-7.05-3.32c-1.27-.96-.18-2.5-.18-2.5s-4.7-3.9-4.86-5.04c-.17-1.14 3.49-1.74 3.49-1.74s-.63-.48-2.95-2.24c-2.33-1.76.81-3.44.81-3.44s-.79-.26-2.69-1.7-1.3-5.05-1.3-5.05-3.39-3.92-3.77-5.22c-.03-.1.03-.18.07-.25 3.58 1.9 14.55 8.48 28.59 24.21l18.76 22.25-1.09-.29c-.02.02 2.34 10.93.53 13.96" fill="#DF1F28"></path><path class="st6" d="M358.4 97.66s-27.65-43.94-58.03-65.61c0 0 31.77 24.75 57.05 66.54l.98-.93" fill="#9E1C20"></path><path class="st6" d="M339.07 28.58s4.9 25.68.87 44.27l-.96-1.4s4.1-16.84.09-42.87" fill="#9E1C20"></path><path class="st6" d="M359.23 49.72s-8.6 16.34-19.9 22.26l.9 1.02c-.01 0 13.51-9.52 19-23.28M338.98 71.45s-14.19 1.76-36.24-2.78c0 0 16.67 6.21 36.2 3.76l.04-.98" fill="#9E1C20"></path><path class="st6" d="M340.22 73s-9.36 14.2-22.38 17.52c0 0 12.28-3.25 21.48-18.55l.9 1.03" fill="#9E1C20"></path><path class="st4" d="M319.75 94.81l-1.4-2.01 4-1.81z" fill="#CF2027"></path><path class="st1" d="M314.42 74.69l-4.86-1.19.63 1.95z" fill="#BC2026"></path><path d="M337.82 35.87l-2.66-2.65 1.3-3.15z" fill="#C32126"></path><path d="M334.48 64.02l-3.28-4.6 3.34.54z" fill="#C72128"></path><path d="M345.93 61.99l-2.94.85 1.57-6.65z" fill="#C72127"></path><path class="st10" d="M314.09 52.53l-2.94 1.94-.77-3.32zM325 81.58l-2.51-3.45 4.49.35zM330.71 92.87l-2.82.51 1.41-4.6zM325.88 48.4l-3.31-2.07 2.36-3.43zM347.01 49.33l-2.7-.93 2.53-1.25z" fill="#E34326"></path><path class="st1" d="M322.34 66.92l2.24-2-3.71-1.38zM319.97 57.33l-2.95-2.4-1.52 1.69z" fill="#BC2026"></path><path d="M316.2 38.96l-2.68-1.29 1.27-2.8z" fill="#DE1E2C"></path><path class="st5" d="M349.52 74.83l-2.68-1.29 2.33-3.07z" fill="#DF1F28"></path><path d="M177.16 33.74h8.43v9.54c3.4-3.65 7.17-6.36 11.3-8.14 4.13-1.77 8.63-2.66 13.49-2.66 4.94 0 9.33 1.01 13.16 3.03 3.82 2.02 6.65 4.74 8.47 8.16 1.82 3.42 2.73 8.74 2.73 15.97v27.35h-8.43V61.62c0-6.13-.32-10.21-.96-12.27-1-3.52-2.9-6.16-5.7-7.94-2.8-1.77-6.45-2.67-10.95-2.67-5.15 0-9.77 1.37-13.84 4.11s-6.76 6.13-8.06 10.17c-.81 2.64-1.22 7.46-1.22 14.47v19.5h-8.43V33.74M248.26 12.02c1.53 0 2.84.56 3.92 1.66 1.08 1.11 1.62 2.44 1.62 4 0 1.53-.54 2.85-1.62 3.96-1.08 1.11-2.39 1.66-3.92 1.66-1.5 0-2.79-.55-3.87-1.66-1.08-1.1-1.62-2.43-1.62-3.96 0-1.56.54-2.9 1.62-4s2.38-1.66 3.87-1.66M244.08 33.74h8.43v53.25h-8.43zM272.11 13.9h8.42v19.84h13.35v7.29h-13.35v45.96h-8.42V41.03h-11.48v-7.29h11.48zM368.49 33.74h8.43v7.78c2.6-3.07 5.34-5.34 8.23-6.82 2.89-1.48 5.89-2.22 9.02-2.22 2.35 0 4.88.6 7.56 1.81l-4.42 5.8c-1.79-.62-3.3-.93-4.52-.93-2.85 0-5.6.94-8.24 2.81-2.65 1.87-4.66 4.77-6.04 8.71-1.06 3.03-1.59 9.14-1.59 18.35v17.96h-8.43V33.74"></path><path class="st5" d="M10.04 86.99L22.81 2.61h1.52l35.93 69.22L96.32 2.61h1.42l12.73 84.38h-8.57l-8.87-60.41-31.71 60.41h-2.35L27.48 26.34l-8.83 60.65z" fill="#DF1F28"></path><path d="M125.48 24.34l2.25-16.43h.29l6.35 13.48 6.38-13.48h.27l2.25 16.43h-1.51l-1.58-11.8-5.62 11.8h-.42l-5.58-11.84L127 24.34zM146.63 7.19c.35 0 .65.13.9.38s.38.56.38.91-.13.65-.38.9-.55.38-.9.38-.64-.12-.89-.38c-.25-.25-.37-.55-.37-.9 0-.36.12-.66.37-.91s.55-.38.89-.38m-.74 5.01h1.49v12.14h-1.49V12.2zM162.05 7.48v16.86h-1.49v-2.09c-.62.8-1.33 1.39-2.1 1.79-.78.4-1.63.6-2.55.6-1.64 0-3.04-.62-4.21-1.86-1.16-1.24-1.74-2.75-1.74-4.53 0-1.74.59-3.23 1.76-4.47 1.17-1.24 2.58-1.86 4.23-1.86.95 0 1.82.21 2.59.64.77.43 1.45 1.06 2.03 1.91V7.48h1.48m-5.98 5.95c-.83 0-1.59.21-2.29.64-.7.43-1.26 1.02-1.67 1.79-.42.77-.62 1.58-.62 2.44 0 .85.21 1.67.63 2.44.41.78.98 1.38 1.68 1.81.7.43 1.46.65 2.27.65s1.58-.21 2.31-.64a4.39 4.39 0 001.68-1.74c.39-.73.59-1.56.59-2.47 0-1.4-.44-2.57-1.32-3.51-.89-.94-1.97-1.41-3.26-1.41M164.48 17.52h5.89v1.35h-5.89zM173 24.34V7.91h.34l10.43 12.47V7.91h1.58v16.43h-.36l-10.37-12.4v12.4zM193.66 11.91c1.8 0 3.29.67 4.47 2.02 1.07 1.23 1.61 2.69 1.61 4.37 0 1.69-.57 3.17-1.7 4.43-1.14 1.26-2.6 1.9-4.38 1.9-1.79 0-3.26-.63-4.39-1.9-1.14-1.27-1.71-2.74-1.71-4.43 0-1.68.54-3.13 1.61-4.36 1.19-1.35 2.69-2.03 4.49-2.03m0 1.52c-1.25 0-2.32.48-3.21 1.44-.9.96-1.34 2.12-1.34 3.49 0 .88.21 1.7.62 2.46.41.76.96 1.35 1.65 1.76.7.42 1.46.62 2.29.62.83 0 1.6-.21 2.29-.62.7-.41 1.25-1 1.65-1.76.41-.76.61-1.58.61-2.46 0-1.36-.45-2.53-1.35-3.49-.9-.96-1.97-1.44-3.21-1.44M141.92 31.05c8.36 0 15.28 3.14 20.79 9.4 4.99 5.72 7.49 12.5 7.49 20.32 0 7.86-2.64 14.73-7.92 20.61-5.28 5.87-12.07 8.81-20.37 8.81-8.32 0-15.13-2.94-20.41-8.81-5.28-5.88-7.92-12.75-7.92-20.61 0-7.79 2.5-14.54 7.5-20.26 5.5-6.31 12.45-9.46 20.84-9.46m-.02 7.05c-5.79 0-10.77 2.23-14.94 6.71-4.17 4.47-6.25 9.88-6.25 16.22 0 4.09.95 7.9 2.85 11.44 1.9 3.53 4.46 6.26 7.69 8.18 3.24 1.93 6.78 2.89 10.65 2.89s7.42-.95 10.65-2.89c3.23-1.92 5.8-4.65 7.69-8.18 1.9-3.54 2.85-7.35 2.85-11.44 0-6.34-2.09-11.75-6.26-16.22-4.2-4.48-9.16-6.71-14.93-6.71M201.91 12.2h1.49v1.78c.46-.7.95-1.22 1.46-1.56.51-.34 1.05-.51 1.6-.51.42 0 .87.14 1.34.41l-.78 1.32c-.32-.14-.59-.21-.8-.21-.51 0-.99.21-1.46.64-.47.43-.83 1.09-1.07 1.99-.19.69-.28 2.09-.28 4.19v4.1h-1.49V12.2M210.44 7.65h1.49v4.55h2.38v1.35h-2.38v10.79h-1.49V13.55h-2.06V12.2h2.06zM216.29 7.48h1.49v6.92c.61-.83 1.28-1.46 2.01-1.87.73-.41 1.52-.62 2.37-.62.87 0 1.64.23 2.32.69.68.46 1.17 1.08 1.49 1.86.32.78.48 1.99.48 3.65v6.24h-1.49v-5.78c0-1.4-.05-2.33-.16-2.8-.19-.8-.53-1.41-1.02-1.81-.49-.4-1.13-.61-1.93-.61-.91 0-1.72.31-2.44.94a4.4 4.4 0 00-1.42 2.32c-.14.59-.21 1.69-.21 3.3v4.45h-1.49V7.48M108.29 9.67h-2.14v-.81h5.22v.81h-2.16v6.57h-.92zM112.06 8.46h.92v3.31h.02c.15-.27.38-.53.66-.68.27-.18.6-.27.94-.27.68 0 1.77.44 1.77 2.27v3.15h-.92V13.2c0-.86-.3-1.58-1.17-1.58-.6 0-1.06.44-1.24.96-.05.13-.06.27-.06.46v3.2h-.92V8.46M118.39 13.75c.02 1.3.81 1.84 1.73 1.84.66 0 1.07-.12 1.4-.26l.17.68c-.33.15-.89.34-1.7.34-1.55 0-2.49-1.08-2.49-2.67 0-1.61.91-2.87 2.39-2.87 1.65 0 2.09 1.52 2.09 2.5 0 .2-.01.35-.03.46l-3.56-.02m2.7-.69c.01-.6-.24-1.56-1.27-1.56-.94 0-1.34.9-1.42 1.56h2.69z"></path></svg>