<svg xmlns:xlink="http://www.w3.org/1999/xlink" aria-labelledby="klnLogo" class=".header-logo-image--size-up header-logo-image logo-kln" viewBox="0 0 606.29 81.23" x="0" xml:space="preserve" xmlns="http://www.w3.org/2000/svg" y="0" width="606.29"  height="81.23" ><text id="klnLogo">Northern News</text><style>.st0{fill:#277f9c}.st1{fill:#fff}</style><path d="M59.78 15.13c-4.59.28-6.45 1.48-6.88 5.63-.34 2.86-.68 7.11-.68 15.41v36.92h-3.57L12.99 26.2h-.17v21.6c0 8.31.34 12.46.59 15.23.42 4.34 2.12 5.81 8.15 6.18v2.95H1.1v-2.95c4.76-.37 6.79-1.75 7.13-5.91.35-3.04.77-7.19.77-15.5V28.23c0-6.37-.17-7.57-1.7-9.69-1.7-2.31-3.57-3.05-7.3-3.42v-2.95h14.52l33.54 42.64h.25V36.17c0-8.21-.42-12.55-.59-15.23-.42-4.06-2.29-5.45-8.41-5.81v-2.95h20.46v2.95z"></path><path d="M105.85 45.08c0 17.62-11.56 28.3-25.51 28.3-14.48 0-25.06-11.75-25.06-27.41 0-14.26 9.3-27.97 25.96-27.97 13.36 0 24.61 10.93 24.61 27.08zm-40.44-.98c0 14.44 6.38 26.02 16.36 26.02 7.58 0 13.96-7.59 13.96-22.76 0-16.64-6.83-26.1-15.98-26.1-7.81 0-14.34 8.32-14.34 22.84zM152.83 72.9c-.6 0-1.43-.08-2.33-.08-8.1-.41-11.03-2.53-14.26-7.75-2.18-3.59-4.43-8.24-6.6-12.4-1.28-2.37-2.55-3.43-5.55-3.43h-1.73v12.32c0 6.77.68 7.42 6.45 8v2.61h-21.54v-2.61c5.78-.57 6.53-1.22 6.53-8V29.67c0-6.69-.68-7.34-6.23-7.91v-2.61h20.11c6.23 0 9.98.73 12.91 2.94 3 2.2 5.03 5.79 5.03 10.85 0 7.1-4.2 11.17-9.46 13.54 1.2 2.53 4.13 7.91 6.38 11.66 2.63 4.41 4.2 6.85 5.85 8.73 1.73 2.04 3.15 3.02 4.88 3.59l-.44 2.44zm-27.92-26.67c3.38 0 5.85-.57 7.65-2.2 2.63-2.37 3.75-5.63 3.75-9.87 0-8.81-4.88-11.99-9.61-11.99-2.03 0-3.15.33-3.68.82-.53.49-.68 1.39-.68 3.26v19.99h2.57zM189.9 32.6c-.9-4.08-1.8-6.61-3-7.99-1.28-1.63-2.93-2.2-7.8-2.2h-4.05v39.24c0 6.69.68 7.34 7.5 7.91v2.61h-23.41v-2.61c6.53-.57 7.2-1.14 7.2-7.91V22.41h-3.3c-6.23 0-7.65.82-8.71 2.37-1.13 1.39-1.95 4-2.85 7.91h-2.55c.3-5.63.75-11.34.9-15.58h1.73c1.13 1.88 2.1 2.04 4.2 2.04h30.02c1.95 0 2.85-.49 4.13-2.04h1.73c0 3.51.38 10.28.75 15.34l-2.49.15zM246.11 21.75c-5.93.57-6.45 1.06-6.45 7.91v31.98c0 6.85.6 7.34 6.45 7.91v2.61H224.2v-2.61c6.15-.57 6.75-1.06 6.75-7.91V46.06h-22.36v15.58c0 6.85.6 7.34 6.38 7.91v2.61h-21.39v-2.61c5.63-.57 6.3-1.06 6.3-7.91V29.67c0-6.85-.68-7.34-6.6-7.91v-2.61h21.46v2.61c-5.55.57-6.15 1.06-6.15 7.91v12.48h22.36V29.67c0-6.85-.6-7.34-6.3-7.91v-2.61h21.46v2.6zM287.38 58.87c-.45 3.34-1.95 10.85-2.63 13.3h-37.52v-2.61c6.53-.57 7.2-1.14 7.2-8V29.83c0-7.18-.68-7.59-6.23-8.08v-2.61h34.67c.08 1.63.45 7.26.75 12.07l-2.55.41c-.68-3.1-1.58-5.47-2.78-7.02-1.2-1.63-3.23-2.2-7.88-2.2h-4.43c-2.63 0-2.85.16-2.85 2.77v17.87h5.78c6.6 0 7.35-.49 8.33-6.2h2.48V53h-2.48c-.98-5.79-1.8-6.2-8.25-6.2h-5.85v14.52c0 3.92.38 5.87 1.8 6.69 1.43.81 4.05.9 7.2.9 4.58 0 6.98-.57 8.7-2.69 1.43-1.71 2.78-4.41 4.05-7.83l2.49.48zM333.08 72.9c-.6 0-1.43-.08-2.33-.08-8.11-.41-11.03-2.53-14.26-7.75-2.18-3.59-4.43-8.24-6.6-12.4-1.28-2.37-2.55-3.43-5.55-3.43h-1.73v12.32c0 6.77.67 7.42 6.45 8v2.61h-21.54v-2.61c5.78-.57 6.53-1.22 6.53-8V29.67c0-6.69-.68-7.34-6.23-7.91v-2.61h20.11c6.23 0 9.98.73 12.91 2.94 3 2.2 5.03 5.79 5.03 10.85 0 7.1-4.2 11.17-9.46 13.54 1.2 2.53 4.13 7.91 6.38 11.66 2.63 4.41 4.2 6.85 5.85 8.73 1.73 2.04 3.15 3.02 4.88 3.59l-.44 2.44zm-27.92-26.67c3.38 0 5.85-.57 7.65-2.2 2.63-2.37 3.75-5.63 3.75-9.87 0-8.81-4.88-11.99-9.61-11.99-2.03 0-3.15.33-3.68.82-.53.49-.67 1.39-.67 3.26v19.99h2.56z"></path><path d="M383.73 21.75c-4.05.24-5.7 1.31-6.08 4.98-.3 2.53-.6 6.28-.6 13.62v32.63h-3.15l-31.52-41.44h-.15v19.09c0 7.34.3 11.01.53 13.46.38 3.83 1.88 5.14 7.2 5.47v2.61h-18.08v-2.61c4.2-.33 6-1.55 6.3-5.22.3-2.69.68-6.36.68-13.7v-17.3c0-5.63-.15-6.69-1.5-8.57-1.5-2.04-3.15-2.69-6.45-3.02v-2.61h12.83l29.64 37.69h.22V40.35c0-7.26-.38-11.09-.53-13.46-.38-3.59-2.03-4.81-7.43-5.14v-2.61h18.08v2.61z"></path><g><path d="M451.42 15.13c-4.58.28-6.45 1.48-6.88 5.63-.34 2.86-.68 7.11-.68 15.41v36.92h-3.57L404.63 26.2h-.17v21.6c0 8.31.34 12.46.59 15.23.42 4.34 2.12 5.81 8.15 6.18v2.95h-20.46v-2.95c4.75-.37 6.79-1.75 7.13-5.91.34-3.04.76-7.2.76-15.5V28.23c0-6.37-.17-7.57-1.7-9.69-1.7-2.31-3.57-3.05-7.3-3.42v-2.95h14.52l33.54 42.64h.26V36.17c0-8.21-.43-12.55-.6-15.23-.42-4.06-2.29-5.45-8.41-5.81v-2.95h20.46v2.95z"></path></g><g><path d="M490.96 58.87c-.45 3.34-1.95 10.85-2.63 13.3h-37.52v-2.61c6.53-.57 7.2-1.14 7.2-8V29.83c0-7.18-.68-7.59-6.23-8.08v-2.61h34.67c.08 1.63.45 7.26.75 12.07l-2.55.41c-.68-3.1-1.58-5.47-2.78-7.02-1.2-1.63-3.23-2.2-7.88-2.2h-4.43c-2.63 0-2.85.16-2.85 2.77v17.87h5.78c6.6 0 7.35-.49 8.33-6.2h2.48V53h-2.48c-.97-5.79-1.8-6.2-8.25-6.2h-5.85v14.52c0 3.92.38 5.87 1.8 6.69 1.43.81 4.05.9 7.2.9 4.58 0 6.98-.57 8.7-2.69 1.43-1.71 2.78-4.41 4.05-7.83l2.49.48zM560.37 21.75c-5.03.81-6.08 1.79-8.18 8.56-1.73 5.22-6.15 19.9-12.38 42.74h-3.38c-4.13-12.48-8.48-25.61-12.61-37.85h-.15c-3.98 13.05-7.88 25.53-11.56 37.85h-3.38c-4.05-14.68-7.96-28.71-12.16-43.15-1.8-6.53-3.08-7.5-7.5-8.16v-2.61h20.79v2.61c-5.63.73-5.7 1.71-4.65 5.87 2.63 10.11 5.33 20.15 8.18 30.1h.15c3.75-12.4 7.65-25.21 11.26-38.01h3.15c4.13 12.81 8.48 25.53 12.76 38.18h.15c3-10.28 6.45-24.23 7.58-29.37 1.05-4.89.75-6.12-5.25-6.77v-2.61h17.19v2.62zM584.76 32.03c-1.43-5.14-3.98-11.01-10.21-11.01-4.8 0-7.73 3.75-7.73 8.32 0 5.06 3.08 7.75 9.46 11.26 7.13 3.83 13.13 8.16 13.13 16.64 0 9.05-7.05 16.15-17.71 16.15-2.85 0-5.4-.49-7.43-1.14-2.03-.73-3.38-1.3-4.28-1.79-.67-1.96-1.65-8.81-2.18-13.38l2.55-.82c1.35 5.14 5.4 13.95 12.76 13.95 5.03 0 8.1-3.59 8.1-9.05 0-5.22-3.6-8.24-9.23-11.5-6.68-3.67-12.83-7.99-12.83-16.31 0-8.57 6.23-15.42 16.58-15.42 4.28 0 8.18 1.31 10.06 2.04.3 2.94.75 6.36 1.43 11.5l-2.47.56z"></path></g><g><path class="st0" d="M80.87 11.8c-.72-1.05-2.1-3.12-3.29-4.97-.35-.53-.57-.64-.82-.6v3.19c0 1.53.15 1.63 1.43 1.76v.62H73.2v-.62c1.2-.12 1.37-.23 1.37-1.76V2.64c0-1.53-.15-1.63-1.4-1.76V.27h4.91v.62c-1.19.12-1.32.23-1.32 1.76v3.02c.35-.11.77-.39 1.27-.94 1.12-1.21 1.79-2.08 2.34-2.87.4-.55.37-.82-.42-.92l-.3-.04V.27h4.34v.62c-1.03.11-1.72.32-2.64 1.24-.98.96-1.69 1.81-2.44 2.63 1.07 1.7 2.3 3.5 3.5 5.11.68.92 1.13 1.21 1.8 1.31v.62h-3.34zM84.9 11.8v-.62c1.25-.12 1.4-.25 1.4-1.74v-6.8c0-1.53-.15-1.63-1.4-1.76V.27h5.02v.62c-1.25.12-1.38.23-1.38 1.76v6.8c0 1.49.13 1.61 1.38 1.74v.62H84.9zM101.5 11.96c-.1 0-.28-.02-.5-.02-2.1-.11-2.74-.6-3.42-1.72-.43-.73-.88-1.69-1.37-2.63-.27-.53-.57-.76-1.1-.76h-.31v2.59c0 1.47.15 1.63 1.42 1.76v.62h-5.04v-.62c1.25-.12 1.44-.28 1.44-1.76V2.61c0-1.42-.15-1.6-1.37-1.72V.27h4.69c1.47 0 2.3.18 2.99.66.67.48 1.12 1.26 1.12 2.36 0 1.56-.97 2.41-2.09 2.89.25.53.87 1.7 1.37 2.52.58.99.95 1.56 1.27 1.93.37.41.65.62 1.02.76l-.12.57zm-6.27-5.84c.7 0 1.27-.12 1.64-.46.57-.5.8-1.21.8-2.11 0-1.9-1.03-2.57-1.97-2.57-.42 0-.65.07-.75.18-.12.11-.15.28-.15.66v4.31h.43zM109.89 11.8c-.72-1.05-2.1-3.12-3.29-4.97-.35-.53-.57-.64-.82-.6v3.19c0 1.53.15 1.63 1.43 1.76v.62h-4.99v-.62c1.2-.12 1.37-.23 1.37-1.76V2.64c0-1.53-.15-1.63-1.4-1.76V.27h4.91v.62c-1.18.12-1.32.23-1.32 1.76v3.02c.35-.11.77-.39 1.27-.94 1.12-1.21 1.79-2.08 2.34-2.87.4-.55.37-.82-.42-.92l-.3-.04V.27h4.34v.62c-1.03.11-1.72.32-2.64 1.24-.98.96-1.69 1.81-2.44 2.63 1.07 1.7 2.3 3.5 3.5 5.11.68.92 1.13 1.21 1.8 1.31v.62h-3.34zM122.45 8.8c-.13.76-.48 2.52-.62 3h-8.13v-.62c1.45-.12 1.62-.23 1.62-1.74v-6.8c0-1.53-.17-1.63-1.44-1.76V.27h5.09v.62c-1.27.12-1.42.23-1.42 1.76v6.94c0 .83.07 1.14.4 1.3.3.12.73.16 1.25.16.72 0 1.32-.12 1.72-.6.3-.35.62-.92.92-1.83l.61.18zM129.56 11.8v-.62c.98-.16 1.07-.37.8-1.15-.17-.53-.42-1.3-.67-2h-3.2c-.18.55-.4 1.19-.6 1.9-.25.85-.2 1.1 1.02 1.26v.62h-3.74v-.62c1.1-.14 1.32-.34 1.87-1.83l3.42-9.12.85-.24c1.07 3.1 2.1 6.19 3.19 9.24.57 1.56.77 1.79 1.84 1.93v.62h-4.78zm-1.42-8.57h-.05c-.47 1.3-.88 2.59-1.32 3.85h2.6l-1.23-3.85zM146.72.87c-.9.05-1.25.3-1.34 1.1-.05.55-.15 1.38-.15 2.96v7.04h-.8l-6.94-8.84h-.05v3.98c0 1.56.08 2.36.13 2.89.08.78.37 1.12 1.6 1.17v.62h-4.09v-.62c.93-.07 1.32-.35 1.39-1.12.07-.59.17-1.38.17-2.95V3.42c0-1.17-.02-1.49-.33-1.92-.32-.43-.68-.57-1.4-.64v-.6H138l6.39 7.79h.05V4.93c0-1.58-.08-2.41-.13-2.93-.08-.76-.42-1.07-1.65-1.14v-.6h4.07v.61zM152.68.27c2.1 0 3.72.44 4.79 1.53.83.83 1.49 2.09 1.49 3.78 0 2.16-.82 3.73-2.09 4.76-1.23.99-2.99 1.47-5.06 1.47h-4.29v-.62c1.32-.12 1.48-.23 1.48-1.76V2.64c0-1.53-.17-1.63-1.33-1.76V.27h5.01zm-1.44 9.05c0 1.28.25 1.72 1.42 1.72 2.24 0 3.77-1.93 3.77-5.11 0-1.69-.48-3.03-1.25-3.83-.68-.75-1.57-1.1-2.72-1.1-.6 0-.93.12-1.05.25-.13.16-.17.46-.17.98v7.09zM172.44 8.8c-.13.76-.48 2.52-.62 3h-8.13v-.62c1.45-.12 1.62-.23 1.62-1.74v-6.8c0-1.53-.17-1.63-1.44-1.76V.27h5.09v.62c-1.27.12-1.42.23-1.42 1.76v6.94c0 .83.07 1.14.4 1.3.3.12.73.16 1.25.16.72 0 1.32-.12 1.72-.6.3-.35.62-.92.92-1.83l.61.18zM179.56 11.8v-.62c.98-.16 1.07-.37.8-1.15-.17-.53-.42-1.3-.67-2h-3.2c-.18.55-.4 1.19-.6 1.9-.25.85-.2 1.1 1.02 1.26v.62h-3.74v-.62c1.1-.14 1.32-.34 1.87-1.83l3.42-9.12.85-.24c1.07 3.1 2.1 6.19 3.19 9.24.57 1.56.77 1.79 1.84 1.93v.62h-4.78zm-1.41-8.57h-.05c-.47 1.3-.88 2.59-1.32 3.85h2.6l-1.23-3.85zM192.96 11.8c-.72-1.05-2.1-3.12-3.29-4.97-.35-.53-.57-.64-.82-.6v3.19c0 1.53.15 1.63 1.43 1.76v.62h-4.99v-.62c1.2-.12 1.37-.23 1.37-1.76V2.64c0-1.53-.15-1.63-1.4-1.76V.27h4.91v.62c-1.18.12-1.32.23-1.32 1.76v3.02c.35-.11.77-.39 1.27-.94 1.12-1.21 1.79-2.08 2.34-2.87.4-.55.37-.82-.42-.92l-.3-.04V.27h4.34v.62c-1.03.11-1.72.32-2.64 1.24-.98.96-1.68 1.81-2.44 2.63 1.07 1.7 2.3 3.5 3.5 5.11.68.92 1.13 1.21 1.8 1.31v.62h-3.34zM205.9 8.85c-.12.8-.45 2.41-.58 2.95h-8.51v-.62c1.42-.12 1.58-.23 1.58-1.74V2.63c0-1.54-.17-1.63-1.35-1.74V.27h7.86l.17 2.66-.62.09c-.15-.62-.37-1.21-.67-1.53-.28-.32-.73-.44-1.67-.44h-.8c-.62 0-.68.04-.68.62v3.76h1.12c1.4 0 1.64-.09 1.85-1.33h.6v3.57h-.6c-.22-1.28-.43-1.35-1.85-1.35h-1.12V9.4c0 .85.07 1.28.4 1.46.3.14.87.18 1.5.18.87 0 1.45-.12 1.84-.57.33-.39.63-.96.93-1.74l.6.12z" fill="#277F9C"></path></g><g><path class="st0" d="M494.02 53.43h111.47v19.01H494.02z" transform="rotate(-9.213 549.724 62.99)" fill="#277F9C"></path><path class="st1" d="M514.16 71.69c.1.61.17 1 .29 1.17.08.11.25.14.63.11l.55-.04.09.58c-.6.08-1.41.17-2.27.31-.87.13-1.67.29-2.27.4l-.09-.58.53-.13c.37-.09.53-.17.57-.3.06-.19.01-.58-.08-1.2l-1.1-7.06-1.71.27c-.39.06-.8.12-.88.27-.05.08-.09.21-.08.37l.09 1.02-.58.09c-.18-.94-.32-1.61-.55-2.29l.08-.09c1.53-.22 3.05-.43 4.53-.66 1.49-.23 3-.5 4.53-.75l.1.06c-.01.72.05 1.4.17 2.35l-.58.09-.23-.99a.639.639 0 00-.19-.33c-.12-.12-.53-.05-.92.01l-1.71.27 1.08 7.05zM521.25 66.85c.22-.02.5-.05 1.19-.15l2.13-.33c.68-.11.96-.17 1.18-.21l-.36-2.3c-.1-.61-.17-1-.29-1.17-.08-.11-.25-.14-.63-.11l-.54.04-.09-.58c.6-.08 1.41-.18 2.28-.31.86-.14 1.66-.29 2.25-.4l.09.58-.53.13c-.38.09-.52.17-.57.3-.06.19-.01.58.08 1.2l.93 5.95c.1.61.18 1 .29 1.17.08.11.25.14.63.11l.55-.04.09.58c-.6.08-1.41.18-2.27.31-.87.14-1.67.29-2.27.4l-.09-.58.53-.13c.38-.09.53-.17.57-.3.06-.19.01-.58-.08-1.2l-.43-2.77c-.22.02-.5.05-1.19.16l-2.13.33c-.69.11-.96.16-1.18.21l.43 2.77c.1.61.17 1.01.29 1.17.08.11.25.14.63.11l.55-.04.09.58c-.6.08-1.41.18-2.27.31-.87.13-1.67.29-2.27.4l-.09-.58.53-.13c.38-.09.53-.17.57-.3.06-.19.02-.59-.08-1.2l-.93-5.95c-.1-.61-.17-1-.29-1.17-.08-.11-.25-.14-.63-.11l-.54.04-.09-.58c.6-.08 1.41-.17 2.28-.31.86-.14 1.66-.29 2.25-.4l.09.58-.53.13c-.38.09-.53.17-.57.3-.06.19-.01.58.08 1.2l.36 2.29zM534.01 68.59c.1.61.17 1 .29 1.16.08.11.25.14.63.11l.55-.04.09.58c-.6.08-1.41.17-2.27.31-.88.14-1.67.29-2.27.4l-.09-.58.53-.13c.37-.09.53-.17.57-.3.06-.19.01-.58-.08-1.2l-.93-5.95c-.1-.61-.17-1-.29-1.17-.08-.11-.25-.14-.63-.11l-.55.04-.09-.58c.6-.08 1.41-.18 2.28-.31.86-.13 1.66-.29 2.25-.4l.09.58-.53.13c-.38.09-.53.17-.57.3-.06.19-.01.58.08 1.2l.94 5.96zM537.3 67.07l.3 1.27c.5.61 1.71.88 2.47.77 1.24-.19 2.19-1.01 1.99-2.28-.1-.63-.55-1.05-1.42-1.17l-2.14-.29c-1.28-.17-2.32-.89-2.52-2.15-.36-2.33 1.23-3.5 3.35-3.82.9-.14 1.89-.13 2.79.07l.1.17c-.07.49 0 1.35.12 2.1l-.6.09-.27-1.18c-.52-.43-1.38-.61-2.06-.5-1.36.21-1.88 1.1-1.72 2.08.1.66.65 1.07 1.77 1.17l1.73.18c1.4.14 2.39.85 2.59 2.17.39 2.48-1.51 3.84-3.72 4.18-1.05.17-2.15.11-3.15-.19.04-.89-.05-1.73-.18-2.56l.57-.11zM554.26 59.04c.15-.64.31-1.29.46-1.92l.66-.1c.34.63.67 1.24 1.02 1.83l2.76 4.65.03-.01.54-5.69c.02-.18.01-.31-.01-.49-.03-.18-.31-.24-.56-.21l-.68.06-.08-.54c.66-.09 1.17-.14 1.58-.2.39-.06.9-.17 1.57-.29l.08.54-.47.12c-.26.07-.39.46-.47 1.1l-.8 6.58c-.08.71-.11 1.43-.15 2.16l-1.07.17c-.27-.48-.51-.96-.79-1.44l-3.03-5.13-1.45 5.53c-.17.64-.26 1.28-.4 1.93l-1.02.16-3.4-8.46c-.17-.41-.37-.54-.63-.53l-.47.03-.08-.54c.96-.13 1.71-.22 2.28-.31.57-.09 1.29-.23 1.95-.35l.09.54-.61.14c-.19.04-.41.25-.38.4.02.1.05.24.11.4l2.05 5.36h.03l1.34-5.49zM566.27 59.89c.34-.02.66-.07.98-.12l.96-.15c.51-.08.8-.16.78-.44l-.04-.85.58-.09c.07.53.12 1.04.2 1.57.08.53.19 1.05.29 1.57l-.58.09-.2-.72c-.11-.4-.41-.49-.92-.41l-.96.15c-.32.05-.64.11-.97.2l.61 3.89c.62-.07 1.25-.15 1.87-.25.67-.11 1.73-.41 1.74-.53l.12-1.42.57-.09.2 2.33-.05.13c-.58.14-1.44.28-2.22.41-.51.08-.99.16-1.36.2-.6.08-1.2.14-1.8.24-.61.09-1.2.22-1.74.32l-.05-.34.43-.33c.21-.17.24-.42.16-.88l-1.02-6.54c-.1-.61-.17-1-.29-1.17-.1-.13-.25-.18-.64-.15l-.54.04-.08-.54c.48-.07.91-.12 1.29-.17.38-.06.72-.1.99-.14 1.37-.22 2.36-.4 3.19-.54.28-.05.53-.1.77-.14.48-.08.91-.13 1.37-.15l.1.09.12 2.1-.53.08-.29-1.08c-.07-.21-1.05-.12-1.72-.01-.63.1-1.25.21-1.86.33l.54 3.51zM575.18 58.5c.34-.02.66-.07.98-.12l.96-.15c.51-.08.8-.16.78-.44l-.04-.85.58-.09c.07.53.12 1.04.2 1.57.08.53.19 1.04.29 1.57l-.58.09-.2-.72c-.11-.4-.4-.49-.92-.41l-.96.15c-.32.05-.64.11-.97.2l.61 3.9c.62-.07 1.25-.15 1.87-.25.67-.1 1.73-.41 1.74-.53l.12-1.42.57-.09.2 2.33-.06.13c-.58.14-1.44.28-2.22.41-.51.08-.99.15-1.36.2-.6.08-1.21.14-1.8.24-.61.09-1.21.22-1.74.32l-.05-.34.43-.34c.21-.17.23-.42.16-.88l-1.02-6.53c-.1-.61-.17-1-.29-1.16-.1-.14-.25-.19-.64-.16l-.54.04-.09-.54c.48-.07.91-.13 1.29-.17.38-.06.72-.1.99-.14 1.37-.21 2.36-.4 3.19-.54.28-.04.53-.1.77-.14.48-.07.91-.13 1.37-.15l.1.09.12 2.1-.52.08-.29-1.08c-.06-.21-1.05-.12-1.72-.01-.63.1-1.25.21-1.86.33l.55 3.5zM581.66 55.04c-.1-.61-.17-1-.29-1.16-.08-.11-.25-.14-.63-.11l-.55.04-.09-.58c.6-.08 1.41-.18 2.28-.31.86-.14 1.66-.29 2.25-.4l.09.58-.53.13c-.37.09-.53.17-.57.3-.06.19-.01.58.08 1.2l.42 2.7c.01.06.07.08.15.07l2.32-3.11c.29-.4.67-.99.95-1.4.13-.2.18-.39.15-.56l-.06-.36c.44-.05.9-.1 1.33-.17.44-.07.89-.17 1.32-.25l.09.57c-.61.15-1.15.27-1.53.75l-2.77 3.53 4.59 3.96c.37.32.81.62 1.44.52l.09.6c-.5.06-.98.11-1.48.18-.5.08-.99.18-1.48.28l-3.6-3.16c-.4-.36-.99-.89-1.29-.98l-.03.01c-.09.01-.12.09-.11.15l.41 2.64c.1.61.17 1 .29 1.17.08.11.25.14.63.11l.55-.04.09.58c-.6.08-1.41.18-2.27.31-.87.14-1.67.29-2.27.4l-.09-.58.54-.13c.37-.09.52-.17.56-.3.06-.19.01-.58-.08-1.2l-.9-5.98z" fill="#FFFFFF"></path></g></svg>