<svg xmlns:xlink="http://www.w3.org/1999/xlink" aria-labelledby="rcgLogo" class="header-logo-image logo-rcg" role="img" viewBox="0 0 514.1 79.07" xml:space="preserve" xmlns="http://www.w3.org/2000/svg" width="514.1"  height="79.07" > <text id="rcgLogo">Peace River Record Gazette</text> <path d="M447.36 19.42v1.05h.24v-1.05h-.24zM21.15 68.23H17.1v-1.57h.24v-.53h.24v-.52h.24v-1.58h.24v-.52h.24v-.52h.24v-1.05h.48v-.52h.24v-1.05h.24v-1.05h.24v-.53h.72v-.52h.48v.52h.24v1.57h.24v6.82h-.24v1.05zm139.92 0h-4.05v-.53h-.24v-5.77h.24v-4.2h.24v-.53h.24v.53h.48v.52h.24v.52h.48v1.57h.48v.53h.24v1.05h.24v.52h.24v1.05h.24v.52h.24v.53h.24v.53h.24v1.05h.24v.53h.24v1.05h-.24v.53zm-13.11-25.19h1.43v.52h.48v.53h.24v.53h.72v.52h.24v.52h.48v.53h.48v.52h.24v1.05h.48v.53h.24v.52h.24v.52h.48v1.05h.24v.52h.24v1.05h.24v5.77h-.24v8.92h-.24v1.57h-3.81v.53h-.71v-.53h-1.67V47.76h-.24v-1.57h.24v-.53h.24v-2.62zM21.15 48.29h-.24v.52h-.24v.52h-.24v.53h-.48v1.05h-.72v1.05h-.24v.52h-.24V53h-.24v.53h-.24v.52h-.48v.52h-.24v.53h-.24v.53h-.21v1.05h-.24v.53h-.48v1.05h-.48v.52h-.24v.53h-.24v.52h-.48v1.05h-.24v.53h-.24v.52h-.24v.52H14v1.05h-.48v1.05h-.24v.53h-.24v.52h-.24v1.05h-.24v.52h-.24v.52h-.24v.53H6.61v-1.05h.24v-.52h.24v-1.57h.48v-.53h.23V63.5h.48v-.52h.24v-1.05H9v-.52h.24v-1.05h.48v-1.05h.24v-.53h.24v-.52h.48v-1.05h.72v-1.57h.71v-1.05h.48v-.52h.48v-.52h.24v-.53h.24v-.52H14v-.52h.24v-1.05h.72v-1.05h.48v-.53h.24v-.52h.48v-.52h.24v-.53h.71v-.53h.48v-.52h.24v-.52h.48v-.53h.24v-.52h.48v-.52h.71v-.53h.24v-.53h.71v-.52h.72v4.72h-.24v.51zm9.54 19.94h-6.44v-6.82h-.24v-7.87h.24v-2.62h.24v-.52h.24v-.52h.24v-.53h.24v-.52h.24v-.52h.24v-.53h.48v-.53h.24v-.52h.24v-.52h.71v-.53h.24v-.52h.24v-.52h.71v-1.05h.48v-.52h.48v-.52h.48v-.53h.72v1.05h.24v5.25h-.24v5.25h.24v4.72h-.24v9.94zm130.38-13.12h-.24v-1.05h-.48v-.52h-.24v-.53h-.24v-.52h-.48v-.52h-.24v-.53h-.24v-.53h-.24v-.52h-.48v-.52h-.24v-.53h-.48v-.52h-.24v-1.05h-.24v-2.1h-.24v-1.05h.24V42h.24v-.52h.48V42h.48v.53h.48v.52h.24v.52h.24v.53h.24v.53h.72v1.05h.48v.53h.24v.52h.24v.52h.48v.53h.48v.53h.24v.52h.24v.52h.48v1.05h.24v.52h.48v1.05h.24v.52h.48v.52h.24v.53h.24v.52h.48v.52h.24v1.05h.24v.52h.24v.52h.24v.53h.24v.53h.24v.52h.24v.52h.24v1.05h.24v.52h.24v.53h.24v1.05h.24v.52h.24v.53h.24v1.05h.24v1.05h.48v3.15h-2.86v-.52h-.24v-1.05h-.48v-1.57h-.48v-.53h-.24V63.5h-.24v-.52h-.24v-.53h-.24v-.52h-.24v-.52h-.24v-.53h-.24v-.53h-.24v-.52h-.24v-.52h-.24v-.53h-.24v-.52h-.24v-.52h-.24v-.53h-.48v-.53h-.24v-1.05h-.48v-.52zM30.69 35.16h-.72v.52h-.24v.52h-.48v.53h-.24v.53h-.48v.52h-.23v.52h-.72v.53h-.48v1.05h-.7v1.05h-.48v.52h-.48v.52h-.48v.53h-.71v-2.62h.24v-1.05h.24v-.53h.48v-.52h.24v-.52h.71v-.53h.95v-.53h.24v-.52h.48v-.52h.48v-.53h.24v-.52h.72v-.52h.95v-.53h.48v-.53h.71v1.05h-.48v.52h-.24v1.06zm114.18 28.87h-.24v3.67h-.24v.53h-8.1v-1.05h-.24v-4.72h.24v-.52h-.24v-3.15h.24v-2.62h-.24v-2.62h.24V30.97h.24v-.52h.95v.52h.48v.53h.24v.52h.72v.52h.48v.53h.24v.53h.95v.52h.24v.52h.72v.53h.95v.52h.48v.52h.24v.53h.71v.53h.48v.52h.24v.52h.48V59.3h-.24v4.73zM42.6 67.18h-.24v1.05h-8.82V37.79h.24v-.52h.24v-.53h.24v-.53h.48v-.52h.48v-.52h.95v-.53h.24v-.52h.48v-.52h.48v-.53h.24v-.53h.72v-.52h.71v-.52h.24v-.53H40v-.52h.48v-.52h.24v-.53h.71v-.53h1.43v14.17h-.26v4.72h.24v2.62h-.24v16.8zm84.39-43.04h2.38v.52h.72v.52h.24v.52h.95v.52h.48v.52h.48v.52h.72v2.1h.24v14.7h-.24v.53h.24v11.02h-.24v3.15h.24v3.15h-.24v.52h.24v4.2h-.24v1.57h-.72v.53H132v-.53h-3.34v.53h-.72v-.53h-.95v-1.57h-.24v-1.57h.24v-1.05h-.24v-2.1h.24v-.52h-.24v-1.05h-.24v-2.1h.24v-2.1h.24v-2.1h-.24v-5.25h.24v-3.15h-.24v-5.77h-.24v-5.25h.24v-2.1h-.24v-1.57h.24v-.52h-.24v-2.62h.24v-2.62h.24v-1.05zm17.64 7.88h-.72v-.52h-.48v-.53h-.48v-.52h-.48v-.52h-.24v-.53h-.71v-.53h-.95v-.52h-.48v-.52h-.48v-.53h-.95v-.52h-.48v-.52h-.48v-.52h-.7v-.52h-.48v-1.57h-.24v-2.1h.24v-.52h.71v.52h.72v.52h.24v.52h.95v.52h.24v.52h.71v.52h.72v.52h.72v.52h.47v.52h1.19v.52h.24v.52h.24v.52h.95v.53h.48v.52h.72v.52h.71v.53h.48v.53h.24v.52h.72v.52h.71v.53h.24v.52h.95v.52h.24v.53h.48v.53h.71v.52h.24v.52h.48v.53h.48v.52h.48v.52h.24v.53h.48v.53h.24v.52h.24v.52h.24v4.2h-.24V43h-.71v-.52h-.24v-.53h-.72v-.52h-.72v-.52h-.24v-1.05h-.71v-.52h-.24v-.52h-.48v-.53h-.48v-.52h-.24v-.52h-.24v-.53h-.71v-.53h-.48v-.52h-.24v-.52h-.48v-.53h-.24v-.52h-.48v-.52h-.71v-.53h-.72v-.53h-.48v-.5zM51.9 68.23h-3.34v.53h-.24v-.53h-2.86v-1.57h-.24v-4.72h-.24v-2.62h.24v-4.2h.24v-.53h-.24v-7.87h.24V39.9h-.24v-4.72h.24v-4.72h-.24v-3.15h.24v-1.05h.24v-.52h.24v-.52h.24v-.52h.48v-.52h.72v-.52h.71v-.52h.48v-.52h1.19v-.52h.48v-.52h.72v-.52h.48v.52h.48v.52h.24v21.52h-.26v1.05h.24v18.89h-.24v1.58h.24v2.62h-.24v.47zm71.99-1.05h-.24v1.05h-7.87v-.53h-.24v-.52h-.24v-12.6h-.24v-2.62h.24v-2.62h-.24v-2.1h.24v-1.05h-.24v-.53h.24v-1.05h-.24v-2.62h.24v-4.72h.24v-1.05h-.24V27.3h-.24v-1.57h.24v-7.35h.24v-.52h1.67v.52h.71v.52h1.43v.52h1.43v.52h.95v.52h.72v.52h.95v.52h.24v.52h.24v1.05h.24v6.3h-.24v7.35h.24v2.62h-.24v5.25h-.24v1.57h.24v14.7h.24v2.1h-.24v4.22zm-60.79.52h-.24v.53h-.72v.53h-.24v-.53H55v-4.72h-.24v-.52H55V48.81h-.24v-3.15H55V19.42h.24v-.52h.24v-.52h.24v-.52h.95v-.52h.48v-.52h.72v-.52h1.43v-.52h.95v-.52h.48v-.56h2.15v3.15h.24v5.25h-.24v5.25h.24v2.1h-.24v7.87h.24v11.02h.24v9.97h-.26v.52h.24v1.05h-.24v.53h.24v.52h-.24v5.77zm44.1.53h-1.19v-1.57h-.24v-.53h.24v-7.87h-.24v-1.05h.24v-1.57h-.24v-6.3h.24V15.22h.24v-.52h.24v-.52h2.15v.52h2.15v.52h.71v.52h.72v.52h.24v1.57h.24v1.57h-.24V32h.24v2.1h-.24v4.2h.24v2.1h-.24v12.07h-.24v1.05h.24v1.05h-.24v1.58h.24v5.77h-.24v2.62h.24v3.15h-.24v.53h-.72v.53h-.24v-.53h-1.91v.53h-.24v-.53h-1.67v.53h-.24v-.52zm-34.8 0h-.71v.53h-.72v-.53h-3.1v.53h-.95v-.53h-.95v-.53h-.24V13.65h.24v-.52h.72v-.53h2.62v-.52h2.86v1.05h.24v1.57h.24v6.82h-.25v3.67h-.24v.52h.24v7.35h.24v1.05h-.24v3.67h.24v.52h-.24v5.77h-.24v2.1h.24v9.97h.24v11.02h-.24v1.07zm30.75-1.05h-.24v1.05h-7.15v-.53h-.24v-5.25h.24V61.4h-.24V48.8h.24v-.52h-.24v-14.7h.24v-5.25h-.24v-1.57h.24v-1.57h-.24v-6.3h.24v-2.62h-.24V14.7h.24v-2.62H96v-.52h2.62v.52h1.67v.52h2.15v.52h.72v1.57h.24v5.25h-.24v2.62h.24v8.92h-.24v1.57h.24v8.92h-.24v4.2h.24v3.67h-.24v17.34zm-10.49 1.05h-.72v.53h-.48v-.53h-.72v.53h-.48v-.53h-4.05v-1.57h-.24v-1.05h.24V29.39h.24v-.53h-.24v-5.77h.24V11.55h.48v-.52h4.29v.52h1.67V67.7h-.24v.53zm-9.29-10.5h-.24v3.67h.24v6.3h-.24v.53h-.48v.53h-.48v-.53h-7.15V13.12h.24v-1.05h.24v-.52h.95v-.52h6.44v.52h.48v.52h.24v14.7h-.24v11.55h-.24v.53h.24v5.77h.24v.52h-.24v3.67h.24v.52h-.24v8.4zm39.57-41.98h-.48v-.52h-.95v-.53h-1.19v-.52h-.95v-.52h-.48v-.52h-2.38v-.54h-.71v-1.57h.24v-.53h.95v.52h.48v.52h2.62v.52h.72v.52h.71v.52h1.43v.52h1.43v.52h.72v.52h1.43v.52h.95v.52h.48v.52h1.43v.52h1.19v.52h.48v.52h1.19v.52h.24v.52h.48v1.05h.24v1.57h-.24v.52h-.24v-.52h-1.19v-.52h-.72v-.52h-.71v-.52h-.48v-.52h-.95v-.52h-.72v-.52h-.72v-.52h-.95v-.52h-.72v-.52h-.71v-.52h-1.91v-.49zm-12.4-6.3h.95v.52h.72v.52h-1.67V9.45zm-3.58-1.05h.48v.52h-.48V8.4zM324.6 68.23h-.71v-7.35h.24v-.53h1.19v1.58h.24v.52h.48v1.05h.24v.52h.24v.53h.24v1.05h.24v.52h.24v.53h.24v2.1h-2.86v-.52zm-134.68-.53h-.24v.53h-4.53v-1.57h.24v-.53h.24v-.52h.24v-1.05h.24v-.53h.48v-.52h.24v-1.05h.24v-.52h.24v-1.05h.24v-.53h.48v-1.05h.48v-.53h.24v-.52h.72v-.52h.24v.52h.24v.52h.24v2.62h-.24v.52h.24v5.25h-.24v.53zm133.96-24.66h.95v.52h.48v.53h.24v.53h.24v.52h.24v.52h.48v.53h.48v.52h.24v.52h.24v.53h.24v.53h.24v.52h.24v.52h.48v.53h.24v1.05h.71v1.05h.24v.52h.48v1.05h.48v.52h.24v.52h.24v.53h.24v.53h.24v1.05h.24v.53h.48v1.05h.48v.52h.24v1.05h.24v.52h.48v1.05h.24v.52h.24v.52h.24v1.05h.24v.52h.24v.53h.24v1.05h.24v.52h.24v.53h.24v1.57h-.72v.53h-2.14v-.53h-.48v-.51h-.24v-1.05h-.48v-.53h-.24v-1.57h-.24v-.53h-.24v-.52h-.24v-1.05h-.48v-.52h-.24v-.52h-.24v-.53h-.24v-.53h-.24V59.3h-.24v-.53h-.48v-1.05h-.48v-.53h-.48v-.53h-.24v-.52h-.24v-.52h-.24v-.53H327v-.53h-.24v-.52h-.48v-.52h-.24v-.53h-.24v-.52h-.48v-.52h-.24v-.53h-.24v-.53h-.24v-.52h-.24v-.52h-.24v-.53h-.24v-6.28zm-9.3 0h.96v.52h.48v1.05h.71v1.05h.24v.53h.48v.52h.48v.52h.24v.53h.48v.53h.24v.52h.24v.52h.48v.53h.24v.52h.48v.52h.24v.53h.24v1.05h.24v1.05h.24v3.15h-.24v3.67h.24v2.1h-.24v5.77h-.71v.53h-2.86v-.53h-.71v.53h-1.43v-.53h-.72V43.04zM199.21 56.68h-.24v2.1h.24v1.57h-.24v7.87h-6.44v-2.1h-.24v-1.05h.24v-12.6h.24v-1.05h.24v-.53h.24v-.52h.24v-.52h.24v-.53h.48v-.52h.24v-.52h.24v-.53h.48V46.7h.48v-.52h.48v-.53h.48V44.6h.72v-.53h.24v-.53h.48v-.52h.95v1.05h.24v2.1h.24v1.57h-.24v8.94zm-9.29-8.92h-.24v.53h-.24v1.05h-.48v.53h-.24v.52h-.48v.52h-.48v.53h-.48v1.05h-.24v.52h-.24v.53h-.24v.52h-.24v.52h-.24v.53h-.24v.53h-.48v.52h-.24v1.05h-.48v.53h-.24v1.05h-.72v1.57H183v.53h-.24v.53h-.24v.52h-.24v1.57h-.48v.52h-.24v.53h-.24v.53h-.48v1.57h-.72v1.05h-.24v.53h-4.77v-3.15h.71v-1.05h.24v-.52h.48V63h.24v-.53h.24v-.52h.48v-.52h.24v-.53h.26v-1.05h.24v-.52h.24v-.53h.24v-.52h.24v-.52h.24v-.53h.71v-.53h.24v-.52h.24v-.52h.48v-1.05h.24v-.52h.48v-.52h.24v-.53h.24v-.52h.48V52h.24v-.53h.21v-.53h.24v-.52h.48v-.52h.24v-.53h.72v-.52h.48v-.52h.24v-.53h.72v-.53h.48v-.52h.24v-.52h.48v-.53h.24v-.52h.48v-.52h.48v-.53h.24v-.53h.72v-.52h.48v.52h.24v3.67h-.24v.49zm9.29-12.6h-.48v.52h-.48v.52h-.24v.53h-.71v.53h-.48v.52h-.24v.52h-.48v.53h-.24v.52h-.24v.52h-.48v.53h-.48v.53h-.24v.52h-.48v.52h-.24v1.05h-1.19V40.4h.24v-1.05h.24v-.52h.24v-.53h.48v-.52h.48v-.52h.95v-.53h.72v-.53h.71v-.52h.48v-.52h.95v-.53h.48v-.52h.48v-.52h.48v1.05h-.24v.52zm112.52 33.07h-8.58V31.49h.24v-.53h.48v.53h.48v.52h.96v.52h.48v.53h.21v.53h1.19v.52h.24v.52h.71v.53h.71v.52h.24v.52h.48v.53h.71v.53h.48v.52h.24v.52h.71v.53h.24v11.55h-.24v.52h.24v4.2h-.24v.53h.24v.52h-.24v1.05h.24v3.15h-.24v7.88zm-101.79 0h-7.63v-.53h-.24v-1.57h-.24v-6.3h.24v-3.67h-.24V39.89h.24v-1.05h.24v-1.57h.24v-.53h.95v-.53h.48v-.52h.48v-.52h.48v-.53h.24v-.52h.48v-.52h.95v-.53h.24v-.53h.48v-.52h.72v-.52h.72v-.53h.48v-.52h.95v36.74h-.24v1.04zm88.91.52h-.24v-.53h-4.53v-.52h-.24v-1.05h.24v-2.62h-.24v-.52h.24v-1.57h-.24V24.67h.24v-.52h1.19v.52h.71v.52h.24v.52h1.19v.52h.71v.52h.71v.52h.96v.53h.48v40.41h-1.43v.54zm-79.61-.52h-3.81v.53h-.24v-.53h-1.91v.53h-.24v-.53h-.24v-1.57h-.24v-.53h.24v-4.2h-.24v-3.15h.24v-3.15h-.24v-9.45h.24v-1.57h-.24v-3.15h.24v-2.1h-.24v-1.05h.24v-10.5h.24v-.53h.24v-.52h.48v-.52h.48v-.52h.95v-.52h.48v-.52h.24v-.52h1.43v-.52h.72v-.52h1.43v27.82h-.24v4.2h.24v8.4h-.24v3.15h.24v.52h-.24v1.02zm92.25-35.17h-.71v-.53h-.48v-.52h-.71v-.52h-.24v-.53h-.24v-.52h-.71v-.52h-.24v-.53h-.71v-.53h-.95v-.52h-.5v-.52h-.71v-.53h-.71v-.52h-.48v-.52h-.24v-.52h-.71v-3.15h.24v-.52h1.19v.52h.95v.52h.47v.52h.71v.52h.71v.52h.48v.52h.48v.52h.95v.52h.48v.52h.48v.52h.71v.53h.48v.52h.48v.52h1.19v.53h.24v.53h.48v.52h.96v.52h.48v1.05h.71v.52h.24v.53h.48v.53h.95v.52h.48v1.05h.71v.52h.48v.52h.48v.53h.48v.53h.24v1.05h.24v.53h.24v1.57h.24v3.67h-.24v.53h-.48v-.53h-.48v-.53h-.48V43h-.48v-.52h-.48v-.53h-.48v-.52h-.48v-.52h-.24v-1.05h-.71v-.52h-.48v-.52h-.48v-.53h-.48v-.52h-.24v-.52h-.24v-.53h-.72v-.53h-.24v-.52h-.24v-.52h-.48v-.53h-.48v-.52h-.48v-.52h-.71v-.52zm-20.74 35.17h-1.19v.53h-1.43v-.53h-.24v.53h-.95v-.53h-.48v.53h-1.91v-.53h-1.67v-2.62h-.24v-.52h.24V54.06h-.24v-1.05h.24v-4.2h-.24v-8.4h-.24v-1.57h.24V22.57h-.24v-3.15h.24v-.52h.24v-.52h1.19v.52h.48v.52h1.67v.52h1.19v.52h.95v.52h1.43v.52h.48v.52h.48v.52h.24v29.92h-.24v1.57h.24v.52h-.24v1.05h.24v1.05h-.24v.53h.24v8.92h-.24v2.13zm-60.07-1.05h-.24v1.05h-.95v.53h-.48v-.53h-6.67v-1.05h-.24v-2.62h-.24v-1.05h.24v-7.35h.24v-1.58h-.24v-5.77h.24v-1.58h-.24v-1.05h.24v-6.3h-.24v-2.1h.24v-1.05h-.24v-4.2h.24v-7.87h-.24v-1.05h.24v-2.62h.24v-.52h.24v-.52h.24v-.52h1.43v-.52h.24v-.52h.71v-.52h1.91v-.52h.24v-.52h.72v-.52h2.62v26.77h-.24v1.05h.24v10.5h-.24v12.55zm46.96 1.57h-1.43v-.53h-1.43v.53h-.95v-.53h-.48v-2.1h-.24v-4.2h.24v-7.87h-.24v-3.67h.24v-4.72h-.24v-.52h.24v-8.92h-.24v-1.05h.24v-18.9h.24v-1.05h.24v-.52h.71v.52h.95v.52h1.19v.52h2.86v.52h.24v.52h.24v.52h.24v1.05h.24v1.57h-.24v18.89h-.24v11.55h-.24v10.5h.24v.52h-.24v5.25h-.24v1.05h-1.91v.55zm-37.66-1.05h-.24v.53h-1.43v.53h-.71v-.53h-3.81v-.53h-.24v-7.87h.24v-4.2h-.24v-2.62h.24v-1.05h-.24V34.64h.24v-1.57h-.24v-3.15h.24V21h-.24v-2.62h.24v-1.05h-.24v-.52h.24v-2.1h.48v-.52h.24v-.52h.48v-.52h3.58v-.55h.24v.52h.95v.52h.48v21.52H240v1.57h.24v14.7H240v1.05h.24v1.57H240V65.6h.24v.52H240v1.58zm50.05-50.91h-.48v-.52h-1.19v-.52h-.72v-.52h-.95v-.53h-1.19v-.52h-1.43v-.52h-.24v-.52h-.72v-.54h.48v-.52h1.91v.52h.71v.52h2.62v.52h.72v.52h1.19v.52h2.14v.52h.71v.52h.24v.52h1.43v.52h.95v.52h.95v.52h1.19v.52h1.19v.52h.24v.52h.48v3.67h-.71v-.52h-.96v-.52h-.24v-.52h-1.19v-.52h-1.19v-.52h-.71v-.52h-.24v-.52h-1.43v-.52h-.48v-.52h-.71v-.52h-1.19v-.52h-1.19v-.52zm-19.3 39.37h-.24v1.58h.24v1.05h-.24v1.57h.24v5.77h-.24v2.1h-.48v.53h-6.2v-.53h-.24v.53h-.95v-.53h-.48v-9.97h.24v-.52h-.24V39.36h.24v-1.05h-.24V22.57h-.24v-1.05h.24v-3.67h-.24V14.7h.24v-1.57h.24v-.53h.48v-.52h.24v.52h1.67v.52h4.05v.52h.71v.52h1.19v.52h.24v24.14h-.24v1.05h.24v5.77h-.24v1.05h.24v4.72h-.24v4.75zM259.28 67.7h-.24v.53h-.71v.53h-.24v-.53h-.72v.53h-.48v-.53h-.24v.53h-1.43v-.53h-2.15v-.53h-.24v-2.62h.24V49.33h-.24v-4.2h.24v-.52h-.24v-1.58h.24v-3.15h-.24v-1.57h.24v-12.6h-.24v-7.87h.24v-2.62h-.24v-.52h.24v-2.62h.95v-.52h2.62v.52h2.15v.52h.24v.52h.48v23.09h-.24v8.4h.24v4.2h-.24v1.57h.24V53h-.24v1.05h.24v.52h-.24V67.7zm-9.29.53h-.24v.53h-3.1v-.53h-.95v.53h-2.15v-.53h-.48v-8.92h-.24v-1.57h.24v-9.45h-.24v-2.62h.24V13.12h.72v-.52h.24v-.52h4.05v-.52h1.67v.52h.24v.52h.24v14.17h-.24v1.05h.24v29.92h-.24v1.57h.24v5.25h-.24v3.67zm28.12-57.21h.72v.52h-.72v-.52zm-1.66-1.05h.48v.52h.95v.52h-1.19v-.51h-.24v-.53zM497.18 69.8h-.71v.53h-.24v-.53h-4.05v-.52h-.24v-4.2h.24v-3.15h-.24v-3.67h.24v-.52h.24v-.53h.71v.53h.24v1.05h.71v1.57h.48v.53h.24v1.05h.48v1.05h.24v1.05h.24v.53h.24v.53h.24v.52h.24v.52h.24v.53h.24v1.05h.24v.53h.24v1.05h-.24v.5zm-139.21-1.05h-5.48v-.53h-.48v-1.05h.24v-.52h.24v-1.57h.24v-.53h.24v-.53h.24v-1.05h.24v-.53h.24v-.52h.24v-1.05h.24v-.53h.48v-1.05h.48v-.53h.24v-1.05h.24v-.53h.48v-.53h.24v-.52h.24v-.52h.24v-.53h.24v-.53h.95v.53h.24V68.2H358v.55zm131.34-1.05h-.24v2.1h-5.96v-.52h-.24v-.52h-.24V41.99h.24v-.52h.71v.52h.48v.53h.48v.52h.96v.52h.24v.53h.48v1.05h.24v.52h.48v.53h.71v.52h.24v.52h.24v.53h.48v.53h.24v.52h.24v1.05h.24v4.72h-.24v2.62h.24v4.2h.24v1.05h-.24v5.25zm7.87-10.49h-.24v-.53h-.24v-.52h-.24v-.52h-.24v-.53h-.24v-.53h-.24v-.52h-.48v-.52h-.24v-.53h-.24v-.52h-.48v-.52h-.24v-1.05h-.48v-.52h-.24v-.52h-.24v-.53h-.48v-.52h-.24v-.52h-.24v-.53h-.24v-6.3h.48v-.52h.24v.52h.71V42h.48v.53h.24v.52h.48v.52h.24v.53h.24v.53h.48v.52h.48v.52h.24v.53h.48v.52h.24v1.05h.71v1.05h.24v.52h.48v.53h.24v.52h.24v.52h.24v1.05h.24v.52h.48v1.57h.48v.52h.24v.53h.24v.53h.48v1.05h.24v.53h.48v.53h.24v.52h.24v.52h.24v.53h.24v.52h.24v.52h.24v1.05h.24v.52h.24v.52h.24v1.05h.24v.52h.24v.53h.24v1.57h.24v.53h.24v.52h.24v2.1h-1.19v.52h-2.14v-.52h-.48v-.52h-.24v-.53h-.24v-1.05h-.24v-.52h-.24v-.53h-.24v-1.05h-.48v-1.05h-.24v-.52h-.24v-.52h-.24v-1.05h-.24v-1.05h-.48v-.53h-.24v-.52h-.24v-.52h-.24v-.53h-.24v-.52h-.24v-.52h-.24v-.52zm-139.69-16.8h.24v.53h.24v.52h.24v3.67h-.24v.52h-.24v.53h-.24v.52h-.24v.52h-.24v.53h-.24v.53h-.48v.52h-.24v.52h-.24v.53h-.48v1.05h-.72v1.05h-.24v.52h-.48v1.05h-.24v.52h-.48v.52h-.24v.53h-.24v.53h-.24v.52h-.24v.52h-.24v.53h-.24v.53h-.24v.52h-.24v.52h-.24v.53h-.48v.52h-.24v.52h-.24v.53h-.24v1.05h-.24v.52h-.48v.53h-.24v1.05h-.24v.53h-.24v.53h-.24v1.57h-.24v.52h-.24v.52h-.24v.53h-.71v.53h-4.29v-.53H342v-1.57h.24v-1.05h.24v-.52h.24v-.53h.24v-1.05h.24v-.52h.24v-.53h.24v-.52h.24v-1.05h.48v-.53h.24v-1.05h.24v-.53h.48v-1.05h.24v-.53h.48v-.53h.24v-.52h.24v-.52h.24v-.53h.2v-.53h.24v-.52h.48v-.52h.48v-1.05h.71v-1.05h.48v-.53h.24v-.52h.24v-.52h.48v-.53h.48v-.52h.24v-.52h.24v-.53h.48v-.53h.48v-.52h.24v-.52h.48v-.53h.24v-.52h.24v-.52h.71v-.53h.71v-.53h.48v-.52h.71v-1.05h.48v-.52h.95v-1.04zm10.01 27.82h-.48v.53h-5.24v-.53h-.71v-5.25h-.24v-2.1h.24V47.76h.24v-.53h.24v-.52h.24v-.52h.48v-.53h.24v-.52h.48v-.52h.71v-.53h.24v-1.05h.71v-.52h.24v-.53h.48v-.52h.48v-.52h.24v-.53h.71v-.53h.71v10.5h.24v1.58h-.24v2.1h.24v.52h-.24v5.77h.24v3.15h-.24v3.15h.24v.52h-.24v1.05zm104.41-38.84h.71v.53h.71v.52h.48v.52h.24v.53h.48v.52h.96v.52h.24v.53h.24v.53h.71v.52h.24v.52h.48v.53h.95v.52h.24v.52h.48v.53h.72v1.57h.24v3.15h-.24v6.82h.24v.52h-.24v8.92h.24v2.62h-.24v9.45h-7.87v-1.57h-.24v-3.15h.24v-1.58h-.24v-4.2h.24v-1.05h-.24v-2.1h.24v-.52h-.24v-1.05h.24V43.04h-.24v-12.6h.24v-1.05zm-104.17 1.05h.48v-.52h.48v-.53h.24v.53h.24v.52h-.24v1.05h-.48v.52h-.95v1.05h-.24v.53h-.48v1.05h-.48v.53h-.95v.52h-.48v.52h-.24v.53h-.71v.53h-.24v.52h-.48v.52h-.48v.53h-.24v1.05h-1.43v-2.1h.24v-1.05h.48v-.53h.24v-.52h.48v-.52h.95v-.53h.48v-1.05h.71v-.53h.72v-.53h.24v-.52h.95v-.52h.24v-.53h.95v-.52zm10.49 37.79h-.48v.53h-.24v-.53h-.71v.53h-2.86v-.53h-.71v.53h-1.91v-.53h-.96V41.46h-.24v-1.58h.24v-4.2h.24v-.52h.47v-1.05h.48v-.52h.24v-.53h.71v-.53h.24v-.52h.95v-.52h.48v-.53h.48v-.52h.48v-.52h.24v-.53h.71v-.53h.72v-.52h.48v-.52h.48v.52h.48v23.62h.24v.52h-.24v15.75zm90.58.52h-.24v.52h-.24v.52h-5.72v-.52h-.24V44.61h-.24v-4.72h.24v-2.62h-.24V29.4h-.24v-1.05h.24v-4.2h.24V23.1h.24v-.52h1.19v.52h.48v.52h.48v.52h1.19v.52h.95v.52h.24v.52h.95v.52h.24v.52h.24v.52h.48V55.6h-.24v.52h.24v9.45h-.24v1.05h.24v1.57h-.24v.56zm10.49-37.26h-.24v-.53h-.48v-.52h-.71v-.52h-.24v-.53h-.48v-.53h-.95v-.52h-.48v-.52h-.24v-.53h-.71v-.52h-.96v-.52h-.48v-.52h-.71v-.52h-.48v-.52h-.24v-1.05h-.24v-1.57h.24v-1.05h.24v-.52h1.43v.52h1.19v.52h.48v.52h.24v.52h.71v.52h.48v.52h.24v.52h.71v.52h.71v.52h.48v.52h.96v.52h.24v.52h.48v.52h.71v.53h.48v.52h.48v.52h.95v.53h.48v.53h.24v.52h.48v.52h.48v.53h.24v.52h.48v.52h.71v.53h.48v.53h.71v.52h.24v.52h.48v.53h.48v.52h.24v.52h.24v.53h.24v3.15h.24v1.58h-.24v1.05h-.24V43h-.48v-.52h-.24v-.53h-.48v-.52h-.48v-.52h-.48v-1.05h-.71v-.52h-.24v-.52h-.48v-.53h-.48v-.52h-.24v-.52h-.24v-.53h-.48v-.53h-.48v-.52h-.24v-.52h-.71v-.53h-.48v-.52h-.24v-.52h-.71v-.53h-.48v-.53h-.48V32h-.96v-.51zm-91.53 29.92h-.24v2.1h.24v4.72h-.24v.53h-3.58v.52h-.24v-.52h-.48v.52H383v-.52h-1.43v-.53h-.48V25.72h.24v-.52h.24v-.52h.24v-.52h.71v-.52h.24v-.52h.48v-.52h.95v-.52h.48v-.52h.71v-.52h.71v-.52h.48V20h.72v.52h.24v1.05h.24v16.27h-.24v2.1h.24v8.92h.23v1.57h-.24v2.1h.24v.52h-.24v3.67h.24v2.1h-.24v2.59zm71.75 6.82h-.24v1.05h-.24v.52h-1.19v-.52h-.95v.52h-5.24v-.52h-.24v-2.62h-.24v-2.62h.24v-7.87h-.24v-3.15h.24v-.52h-.24v-1.05h.24v-6.3h-.24v-1.58h.24v-6.3h-.24v-5.25h.24V23.1h-.24v-5.77h.71v-.52h.48v.52h.48v.52h2.62v.52h.71v.52h.48v.52h1.43v.52h1.19v.52h.48v12.07h-.24v2.62h.24v3.15h-.24v1.05h.24v.52h-.24v1.05h.24v3.67h-.24v7.87h.24v1.57h-.24v4.72h.24v5.25h-.24v1.05h.24v1.05h-.24v2.14zm-60.79-23.62h-.24v5.77h.24v3.67h-.24v3.15h.24v3.67h-.24v5.25h.24v1.57h-.24v1.05h-.24v.52h-1.19v.52h-.48v-.52h-1.43v-.52h-1.91v.52h-2.38v-.52h-.48v-10.5h.24v-2.62h-.24V18.89h.24v-.52h.24v-.52h.48v-.52h.48v-.52h.48v-.52h1.43v-.52h.48v-.52h.71v-.55h1.67v-.52h.72v-.52h1.19v.52h.24v.52h.24v4.72h-.24v1.05h.24v1.57h-.24v3.67h.24v.52h-.24v2.1h.24v2.62h-.24v1.57h.24v1.05h-.24v11.04zm46.72 24.67h-.95v-.52h-.48v.52h-1.67v-.52h-.24v-.53h-.24V24.67h.24v-1.05h-.24V14.7h.24v-1.05h.24v-.52h1.67v.52h1.19v.52h1.91v.52h1.19v.52h.24v1.05h.24v2.1h-.24v2.1h.24v14.7h-.24v1.05h.24v2.1h-.24v12.6h.24v3.15h-.24v14.7h-.24v1.05h-2.86v-.53zm-37.42-.53h-.24v.52h-1.43v-.52h-.48v.52h-1.19v.52h-.24v-.52h-.48v-.52h-.95v.52h-1.19v-.52h-.24v-.53h-.24v-7.87h.24V57.2h-.24v-1.05h.24v-1.58h-.24V50.9h.24v-4.2h-.24v-.52h.24V33.06h-.24v-2.1h.24v-6.82h.24v-2.1h-.24v-1.05h.24v-8.4h.24v-.52h.48v-.52h4.05v-.52h1.19v.52h.48v47.24h-.24v.53h.24v7.35h-.24v2.08zm51.01-54.05h-1.43v-.52h-.95v-.52h-.71v-.52h-1.43v-.54h-1.19v-.52h-.24v-.52h-.71v-.52h.71v-.54h.24v.52h.72v-.52h.24v.52h.95v-.52h.24v.52h.95v.52h1.19v.52h.95v.52h1.19v.52h1.43v.52h.71v.52h.95v.52h1.91v.52h.71v.52h.71v.52h.95v.52h.48v.52h.71v.52h.71v.52h.24v1.05h-.24v2.1h-.95v-.52h-1.19v-.52h-.48v-.52h-.48v-.52h-1.19v-.52h-.48v-.52h-.24v-.52h-1.43v-.52h-.71v-.52h-.71v-.52h-.95v-.52h-.48v-.52h-.71v-.51zm-27.18-4.2h.71v.52h.95v.52h5.01v.52h.48v1.05h.24v.52h.24v8.92h-.24v1.57h-.24v4.72h.24v1.58h-.24v1.05h.24v1.05h-.24v1.05h.24v.52h-.24v3.15h.24v.52h-.24v30.97h-.72v.52h-1.43v-.52h-1.43v.52h-1.19v.52h-.48v-.52h-1.43v-.52h-.48v-.53h-.48v-7.87h.24v-3.15h-.24V43.04h.24v-.52h-.24v-1.57h.24V39.9h-.24v-5.25h.24V31.5h-.24v-4.2h.24V21h-.24v-1.57h.24v-4.2h-.24V12.6h.24v-1.05h.24V10.5zm-3.09 39.88h-.24v.52h.24V53h-.24v2.62h.24v5.77h-.24v2.1h.24v2.1h-.24v3.15h-.24v1.05h-.24v-.52h-.96v-.52h-.95v.52h-3.1v-.52h-.72v-.53h-.48v-2.1h.24v-.52h-.24V24.67h.24v-.52h-.24v-6.3h.24v-6.3h.24V10.5h.24v-.53h.96v-.52h3.57v.52h1.43v.52h.24v1.05h.24v9.45h-.24v7.87h.24v1.05h-.24v20.47zm-9.54-13.64h-.24v3.67h.24v1.05h-.24v6.3h.24v2.1h-.24v.52h.24v.52h-.24v18.37h-1.19v-.52h-.24v.52h-.95v.52h-.48v-.52h-.71v-.52h-.95v.52h-.48v.52h-1.43v-.52h-1.19v-.52h-.24v-1.58h-.24V65.6h.24v-4.72h-.24v-2.1h.24v-2.1h-.24v-5.77h.24v-1.05h-.24v-4.2h.24v-.52h-.24v-6.82h.24v-1.57h-.24v-1.57h.24V11.55h.24v-.52h.24v-.53h.24v-.53h4.05v-.52h.24v.52h2.15v-.52h.24v.52h.71v1.05h.24v8.92h-.24v1.05h.24v.52h-.24v10.5h.24v2.62h-.24v2.11zM444.74 8.4h3.57v1.57h-2.14v-.52h-.71v-.53h-.71V8.4zM0 79.07h514.1v-9.79h-.71v.52h-2.14v.53h-.48v-.53h-.48v-.52h-.24v-1.05h-.24v-.53h-.24v-1.05h-.48v-1.57h-.48v-1.05h-.24v-.52h-.24v-1.05h-.24v-.52h-.24v-.52h-.24v-.53h-.24v-.53h-.24v-1.57h-.48v-.52h-.24v-1.05h-.48v-.53h-.24v-1.05h-.48v-.53h-.24v-1.05h-.48v-1.05h-.24v-.52h-.71v-1.05h-.24v-.53h-.48v-.52h-.24v-.52h-.24v-.53h-.24v-.52h-.48v-.52h-.24v-1.05h-.24v-.52h-.48v-.52h-.24v-.53h-.48v-.52h-.24v-.52h-.48v-.53h-.24v-.53h-.24v-.52h-.24v-.52h-.48v-.53h-.24v-.52h-.48v-.52h-.24v-1.05h-.71v-.52h-.24v-.52h-.48v-.53h-.48v-.52h-.24v-1.05H494v-.53h-.24v-.52h-.48v-.52h-.48v-.53h-.24v-.52h-.24v-.52h-.48v-.53h-.24v-.53h-.48v-.52h-.71v-.52h-.24v-.53h-.24v-.52h-.71v-.52h-.48v-.53h-.48v-.53h-.71v-.52h-.24v-.52h-.48v-.53h-.71v-1.05h-.48v-.52h-.96v-.52h-.24v-.52h-.48v-.52h-.71v-.52h-.48v-.52h-.24v-.52h-.71v-.52h-.24v-.52h-.71v-.52h-.95v-.52h-.24v-.52h-.48v-.52h-.71v-.52h-.24v-.52h-.71v-.52h-.95v-.52h-.48v-.52h-.48v-.52h-.71v-.52h-.48v-.52h-.48v-.67h-1.43v-.52h-.24v-.52h-.48v-.52h-.71v-.54h-.95v-.52h-.48v-.52h-1.43v-.52H468v-.54h-1.19v-.53h-1.67v-.52h-.48v-.53h-.72V8.4h-1.19v-.53h-.71v-.52h-1.19v-.53h-1.43V6.3h-1.91v-.53h-.71v-.52h-2.14v-.53h-.48V4.2h-.96v-.53h-1.19V2.62h.24V2.1h-.24V1.05h-.24V.52h-.24v.52h-.48V2.1h-.48v.52h-.24v.52h-2.15v-.52h-.71V2.1h-3.34v-.53h-.96v-.52h-1.67V.52h-1.19v.52h-.24V.52h-5.48V0h-5.96v.52H424v.52h-.71V.52h-1.91v.52h-.24V.52h-1.67v.52h-1.19v.52h-1.43v.54h-3.34v.52h-1.91v.52h-2.38v.52h-2.15v.54h-.95v.52h-1.43v.52h-1.19v.52h-.48v-.51h-.71v.52h-.48v.53h-.71v.52h-2.14v.53h-.48v.52h-.24v.53h-2.15v.52h-.95v.52h-.95v.52h-1.67v.52h-.71V11h-1.19v.52h-2.38v.52h-.71v.52h-.96v.52h-1.91v.52h-.48v.52H383v.52h-1.19v.52h-.24v.52h-.96v.52h-1.19v.52h-.95v.52h-.48v.52h-.95v.52h-.96v.52h-.71v.52h-.95v.52h-.48v.52h-.24v.52h-1.19v.52h-.48v.52h-.24v.52h-1.43v.52h-.48v.52h-.95V24h-.71v.52h-.71v.52h-.24v.52h-.48v.52h-.71v.52h-.71v.52h-.72v.53h-.71v.52h-.48v.52h-.95v.53h-.24v.53h-.48v.52h-.71v.52h-.48v.53h-.48v.52h-.72v.52h-.48v.53h-.24v.53h-.95v.52h-.24v1.05h-.71v.52h-.48v.52h-.24v.53h-.71v.53h-.48v.52h-.71v.52h-.48v.53h-.24v.52h-.24v.52h-.71v.53h-.24v.53h-.48v.52h-.71v1.05h-.48v.52h-.48v.52h-.48v.53h-.24v.53h-.48v.52h-.24v.52h-.48V46h-.24v.52h-.24v.52h-.24v.53h-.71v.53h-.24v.52h-.24v.52h-.48v.53h-.24v.52h-.24v.52h-.24v.53h-.48v1.05h-.71v1.05h-.24v.52h-.48v.52h-.24v.53h-.24v.53h-.48v.52h-.2v.52h-.24v.53h-.48v.53h-.24v1.05h-.48v.53h-.24v1.05h-.48v.53h-.24v.53h-.71v-1.05h-.71v-1.57h-.48v-.52h-.24v-1.05h-.71v-1.05h-.24v-.52h-.48v-1.05h-.24v-.52h-.48v-.52h-.24v-.53h-.24v-.52h-.24v-.52h-.24v-.53h-.24v-.53h-.24v-.52h-.24v-.52h-.24v-.53h-.48v-.52h-.24v-.52h-.24v-.53h-.24v-.53h-.48v-.52h-.24v-.52h-.48v-.53h-.24v-.52h-.48v-.52h-.48v-.53h-.24v-.53h-.24v-.52h-.48v-.52h-.24v-.53h-.48v-.52h-.48v-.52h-.24v-.53h-.24v-.53h-.48v-.52h-.48v-.52h-.24v-.53h-.48v-.52h-.24v-.52h-.24v-.53h-.48v-.53h-.24v-.52h-.48v-.52h-.71v-1.05h-.24v-.52h-.48v-.53h-.71v-1.05h-1.19v-.52h-.24v-.53h-.24v-.52h-.48v-.52h-.48v-.53h-.24v-.53h-.95v-.52h-.48v-.52h-.24v-.53h-.95v-.52h-.24v-.52h-.24v-.52h-.95v-.52h-.24v-.52h-.48v-.52h-.71v-.52h-.24V23h-.71v-.52h-.95v-.52h-.48v-.52h-.24v-.52h-.95v-.52h-.72v-.52h-.48v-.52h-.95v-.52h-.71v-.52h-.24v-.52h-.95v-.52h-.71v-.52h-.72v-.52h-.95v-.52h-.24v-.52h-.48v-.5h-.95v-.52h-.95v-.52h-.48v-.52h-1.43v-.54h-.71v-.52h-.48v-.52h-1.67v-.52h-.95v-.54h-.71v-.53h-1.19v-.52h-.48v-.53h-.95V8.4h-2.62v-.53h-.95v-.52h-.95v-.53h-1.43V6.3h-1.91v-.53h-1.19v-.52h-1.43v-.53h-.95v.52h-.24v-.52h-1.19V4.2h-1.43v-.53h-5.01v-.52h-.72v.52h-.24v-.52h-1.19v-.53h-1.67V2.1h-.48v.52h-1.91v.52h-.24v-.52h-2.86v.52h-1.19v-.52h-.24V2.1h-.71v.52h-7.15v.52h-1.43v.52h-1.43v-.51h-.24v.52h-.48v-.52h-.24v.52h-3.58v.53h-1.19v.52h-.48V4.2h-.71v.52H243v.52h-3.34v.52h-.95v.54h-.95v.52h-2.15v.53h-.48v.52h-1.43v.53h-2.15v.52h-.71v.52h-1.19v.52h-.95v.52h-.72V11h-1.43v.52h-1.91v.52h-.95v.52h-1.19v.52h-2.38v.52h-.71v.52h-.72v.52h-.71v.52h-1.43v.52h-.72v.52h-1.91v.52h-.48v.52h-.48v.52h-2.15v.52h-.24v.52h-1.19v.52h-.71v1.05h-.95v.52h-1.67v.52h-.48v.52h-.71v.52h-.95v.52h-.48v.52h-.48v.52h-.71v.52h-.72v.52h-.24v.52h-1.19v.52h-.48v.52h-.24v.52h-.71v.53h-.72v.52h-.71v.52h-.95v.53h-.48v.53h-.24v.52h-.71v.52h-.48v.53h-.24v.52h-.95v.52h-.24v.53h-.48v.53h-.95v.52h-.24v.52h-.48V35h-.72v.52h-.24v.52h-.48v.53h-.95v.53h-.48v.52h-.24v.52h-.48v.53h-.24v.52h-.48v.52H186v.53h-.24v.53h-.72v.52h-.48v.52h-.24v.53h-.24v.52H183v1.05h-.24v.53h-.48v.52h-.48v.52h-.24v.53h-.48v.52h-.24v.52h-.24v.53h-.48v.53h-.48v.52h-.24v.52h-.24v.53h-.48v.52h-.24v.52H178v.53h-.24v.53h-.24v.52h-.24v.52h-.24v.53h-.48v.52h-.24v.52h-.24v.53h-.24v.53h-.24v.52h-.24v.52h-.24v.53h-.48v.53h-.24v1.05h-.72v1.05h-.24v.52h-.48v.53h-.24v-.53h-.48v-.52H172v-.52h-.24v-.53h-.24v-.52h-.24v-.52h-.24v-.53h-.24v-.53h-.24v-.52h-.24v-.52h-.24v-.53h-.24v-1.05h-.48v-.52h-.48v-.53h-.24v-1.05h-.24v-.53h-.24v-.53h-.24v-.52h-.24v-.52h-.24v-.53h-.24v-.52h-.48v-.52h-.24v-.53H166v-.53h-.24V46h-.71v-.53h-.24v-.52h-.24v-.52h-.48v-.53h-.24v-.53h-.24v-.52h-.72v-.52h-.24v-.53h-.24v-.52h-.48v-.52h-.48v-1.05h-.72v-.52h-.24v-.52h-.24v-.53h-.48v-.52h-.24v-.52h-.24v-.53h-.48v-.53h-.24v-.52h-.48V35h-.71v-.53h-.24v-.52h-.24v-.52h-.48v-.53h-.24v-.53h-.48v-.52h-.95v-.52h-.24v-.53h-.24v-.52h-.72v-.52h-.24v-.53h-.48v-.53h-.95v-.52h-.48v-1.05h-.95v-.52h-.48v-1.05h-.95v-.52h-.48v-.52h-.48V24h-.48v-.52h-.48v-.52h-.24v-.52h-1.19v-.52h-.24v-.52h-.48v-.52H144v-.52h-.48v-.52h-.24v-.52h-1.19v-.52h-.48v-.52h-.48v-.52h-1.19v-.52h-.48v-.52h-.24v-.52h-.72v-.52h-1.19v-.52H137v-.46h-.71v-.52h-.48v-.52h-.95v-.52h-1.19v-.54h-.71v-.52h-.48v-.52h-1.67v-.52h-.71v-.54h-.72v-.53h-1.67v-.52h-.48v-.53h-.95V8.4h-1.19v-.53h-.72v-.52h-.71v-.53h-2.15V6.3h-1.43v-.53h-1.19v-.52h-1.91v-.53h-1.19V4.2h-1.43v-.53h-2.86v-.52h-.48v-.53h-.95V2.1h-.24v.52h-1.67V2.1h-.24v.52h-.48V2.1h-2.86v-.53h-6.2v.53h-.95v-.53h-5.72v.53h-.24v-.53h-2.86v.53h-1.43v-.53h-.72v.53h-3.81v.52h-3.1v.52h-2.38v.52h-2.62v.54h-1.91v.52h-.95v.52h-1.67v.52h-1.19v.54h-1.67v.52h-1.91v.53h-.72v.52h-.95v.53h-1.19v.52h-.71v.52h-.95v.52h-1.67v.52h-.96V11h-.95v.52h-2.62v.52h-1.67v.52h-.48v.52h-1.19v.52h-.48v.52H50v.52h-2.15v.52h-1.43v.52h-.48v.52h-1.19v.52h-.72v.52h-.48v.52h-1.19v.52h-.95v.52h-.71v.52h-1.43v1.05h-.48v.52h-1.43v.52h-.48v.52h-.48v.52h-1.19v.52h-.48v.52h-.48v.52h-.72v.52h-.48v.52h-.48v.52h-.95v.52h-.48v.52h-.24v.52h-.95v.53h-.71v.52H29v.52h-.95v.53h-.24v.53h-.72v.52h-.95v.52h-.48v.53h-.24v.52h-.48v.52h-.48v.53h-.48v.53h-.95v.52h-.24v.52h-.69V35h-.48v.52h-.48v.52h-.24v.53h-.7v.53h-.24v.52h-.24v.52h-.71v.53h-.48v.52h-.24v.52h-.71v.53h-.48v1.05h-.71v.52h-.24v.53h-.48v.52h-.71v.52h-.48v.53h-.24v.53H14v.52h-.48v1.05h-.72v.52h-.48v.52h-.24v.53h-.71v.53h-.24v.52h-.23v.52h-.24v1.05h-.48v.52h-.23v.53h-.48v.53h-.24v.52h-.47v.52h-.24v.53h-.24v.52H7.8v.52h-.24v.53h-.23v.53h-.24v.52h-.24v.52h-.24v.53h-.24v.53h-.24v.52H5.9v.52h-.48v.53h-.24v.52h-.24v.52H4.7v.53h-.24v.53h-.23v1.05h-.24v.53h-.24v.52h-.24v1.05h-.24v.53H2.8v.52h-.24v.52h-.24v.53h-.24v1.05h-.24v.53H0v11.02z" fill="#7ABF6F"></path> <path class="st1" d="M168.11 76.44V28.93h12.29v6.67h.16c2.05-5.27 5.44-7.91 10.24-7.91.87 0 1.5.09 2.05.18v13.35c-1.1-.26-2.29-.35-3.55-.35-5.59 0-8.43 2.9-8.43 8.61v26.96h-12.76zm-23.25 1.23c-7.17 0-12.06-2.37-14.66-7.11-1.97-3.51-2.92-9.4-2.92-17.74 0-8.08 1.1-14.05 3.23-17.92 2.76-4.83 7.49-7.2 14.34-7.2 7.17 0 12.06 2.37 14.66 7.12 1.97 3.51 2.92 9.4 2.92 17.74 0 8.08-1.1 14.05-3.23 17.92-2.76 4.82-7.49 7.19-14.34 7.19zm4.81-24.94c0-5.01-.08-8.08-.32-9.4-.55-4.22-2.05-6.32-4.41-6.32-1.89 0-3.15 1.14-3.86 3.43-.71 2.28-1.02 6.32-1.02 12.21 0 5.88.32 9.92 1.02 12.21.71 2.37 1.97 3.51 3.86 3.51 2.36 0 3.86-2.11 4.41-6.32.24-1.33.32-4.4.32-9.32zm-26.09-5.89h-11.82c0-6.59-1.58-9.84-4.81-9.84-2.29 0-3.78 2.02-4.41 6.15-.24 1.67-.39 4.92-.39 9.57 0 4.92.08 8.08.31 9.57.63 4.04 2.13 6.06 4.49 6.06 1.81 0 3.07-.79 3.7-2.46.63-1.58 1.02-4.48 1.1-8.78h11.82c-.08 7.29-1.42 12.47-4.1 15.72-2.68 3.25-6.93 4.83-12.77 4.83-7.25 0-12.13-2.72-14.66-8.08-1.81-3.69-2.68-9.92-2.68-18.62 0-7.46 1.18-13 3.47-16.69 2.76-4.39 7.41-6.59 13.87-6.59 6.3 0 10.79 1.76 13.47 5.36 2.31 3 3.41 7.57 3.41 13.8zm-59.33-.08h9.22c0-2.99-.16-5.09-.47-6.41-.63-2.55-1.89-3.87-3.86-3.87-2.13 0-3.62 1.23-4.33 3.6-.41 1.32-.56 3.6-.56 6.68zm21.51 8.25H64.25v2.9c0 3.86.32 6.59.95 8.26.63 1.84 1.89 2.72 3.7 2.72 1.5 0 2.68-.7 3.31-2.02.71-1.32 1.1-3.6 1.26-6.67h11.82c-.24 11.68-5.67 17.48-16.55 17.48-7.17 0-12.06-2.72-14.58-8.08-1.81-3.69-2.68-9.92-2.68-18.62 0-7.46 1.18-13 3.47-16.69 2.76-4.39 7.41-6.59 13.87-6.59 7.25 0 12.06 2.55 14.42 7.55 1.65 3.6 2.52 10.19 2.52 19.76zM8.22 76.44V13.73h22.22c5.28 0 9.22 1.67 11.82 4.92 2.21 2.81 3.31 6.59 3.31 11.42 0 8.52-3.15 13.61-9.46 15.28v.18c3.86.62 6.38 2.28 7.64 5.18.87 1.93 1.34 5.45 1.42 10.45.08 6.06.32 9.92.63 11.59.24 1.49.87 2.46 1.89 2.9v.79H33.43c-.95-1.93-1.42-6.15-1.42-12.74 0-5.36-.39-8.87-1.18-10.72-.71-1.67-2.21-2.46-4.33-2.46h-5.04v25.91H8.22zM21.46 24.1v16.07h4.1c4.49 0 6.78-2.72 6.78-8.17 0-5.27-2.29-7.91-6.86-7.91h-4.02zM348.48 76.44V65.55l16.07-25.73h-15.37V28.93h30.49v10.89l-16.55 25.73h16.94v10.89h-31.58zm-27.34-14.67c0 4.04 1.26 6.06 3.7 6.06 3.39 0 5.12-2.2 5.12-6.5 0-1.49 0-3.07.08-4.92v-3.43c-1.89.79-4.18 2.02-6.94 3.51-1.33 1.16-1.96 2.91-1.96 5.28zm.23-18.26h-11.35c.08-6.06 1.66-10.37 4.81-12.74 2.68-2.02 6.62-3.07 11.9-3.07s9.06 1.05 11.5 3.25c2.44 2.2 3.62 5.8 3.62 10.8v24.42c0 5.45.47 8.87 1.5 10.28h-12.29c-.39-1.32-.63-3.16-.71-5.45h-.16c-.87 2.02-2.21 3.69-4.02 4.83-1.81 1.41-3.86 1.84-5.99 1.84-7.56 0-11.35-4.83-11.35-14.49 0-5.97 1.73-10.01 5.2-12.12 1.34-.79 3.15-1.58 5.59-2.28 1.97-.53 3.86-1.05 5.83-1.67 1.89-.53 3.07-1.05 3.54-1.49.71-.7 1.03-2.02 1.03-3.87 0-3.16-1.34-4.74-4.02-4.74-2.97 0-4.55 2.19-4.63 6.5zm-17.89-10.72h-12.77c0-6.94-1.73-10.45-5.28-10.45-2.6 0-4.25 1.76-5.04 5.18-.71 2.9-1.02 8.78-1.02 17.65 0 7.47.08 12.03.32 13.61.71 6.06 2.68 9.05 5.75 9.05 4.02 0 6.07-4.39 6.07-13.17v-2.02h-6.22V42.8h18.52v33.64h-9.06l-.31-5.97h-.16c-1.73 4.83-5.75 7.2-12.13 7.2-6.54 0-11.11-2.72-13.55-8.26-1.97-4.48-2.92-12.21-2.92-23.01 0-12.03 1.02-20.29 2.99-24.68 2.76-6.15 8.43-9.22 17.02-9.22 7.49 0 12.53 2.46 15.29 7.47 1.64 2.98 2.5 7.29 2.5 12.82zm-67.13 24.24V45.09h23.8v11.95h-23.8zm-18.68-4.04c0-5.09-.24-8.61-.71-10.63-.71-2.9-1.97-4.3-3.94-4.3-2.13 0-3.47 1.32-4.18 3.95-.47 1.84-.71 5.27-.71 10.36 0 4.92.24 8.34.71 10.36.71 3.07 2.13 4.57 4.25 4.57 2.13 0 3.55-1.93 4.18-5.8.24-1.66.4-4.47.4-8.51zm.24 23.45v-5.8h-.16c-1.34 4.65-4.41 7.03-9.22 7.03-4.41 0-7.64-1.84-9.77-5.62-2.29-3.95-3.39-10.28-3.39-18.97 0-8.34.79-14.49 2.29-18.27 1.89-4.74 5.28-7.12 10.16-7.12 4.65 0 7.8 2.11 9.61 6.41V13.73h12.77v62.71h-12.29zM484.49 46.76h9.22c0-2.99-.16-5.09-.47-6.41-.63-2.55-1.89-3.87-3.86-3.87-2.13 0-3.62 1.23-4.33 3.6-.4 1.32-.56 3.6-.56 6.68zM506 55.01h-21.51v2.9c0 3.86.32 6.59.95 8.26.63 1.84 1.89 2.72 3.71 2.72 1.5 0 2.68-.7 3.31-2.02.71-1.32 1.1-3.6 1.26-6.67h11.82c-.24 11.68-5.67 17.48-16.55 17.48-7.17 0-12.06-2.72-14.58-8.08-1.81-3.69-2.68-9.92-2.68-18.62 0-7.46 1.18-13 3.47-16.69 2.76-4.39 7.41-6.59 13.87-6.59 7.25 0 12.06 2.55 14.42 7.55 1.64 3.6 2.51 10.19 2.51 19.76zm-55.95 9.22V38.76h-5.28v-9.84h5.28V14.87h12.77v14.05h5.91v9.84h-5.91v24.07c0 1.67.31 2.81.95 3.42.55.61 1.65.97 3.15.97h1.81v9.49c-2.44.35-4.89.35-7.33.35-4.57 0-7.56-.79-8.98-2.28-1.58-1.68-2.37-5.19-2.37-10.55zm-24.82 0V38.76h-5.28v-9.84h5.28V14.87H438v14.05h5.91v9.84H438v24.07c0 1.67.31 2.81.95 3.42.55.61 1.65.97 3.15.97h1.81v9.49c-2.44.35-4.89.35-7.33.35-4.57 0-7.56-.79-8.98-2.28-1.58-1.68-2.37-5.19-2.37-10.55zm-28.29-17.47h9.22c0-2.99-.16-5.09-.47-6.41-.63-2.55-1.89-3.87-3.86-3.87-2.13 0-3.62 1.23-4.33 3.6-.4 1.32-.56 3.6-.56 6.68zm21.51 8.25h-21.51v2.9c0 3.86.31 6.59.95 8.26.63 1.84 1.89 2.72 3.7 2.72 1.5 0 2.68-.7 3.31-2.02.71-1.32 1.1-3.6 1.26-6.67h11.82c-.24 11.68-5.67 17.48-16.55 17.48-7.17 0-12.05-2.72-14.58-8.08-1.81-3.69-2.68-9.92-2.68-18.62 0-7.46 1.18-13 3.47-16.69 2.76-4.39 7.41-6.59 13.87-6.59 7.25 0 12.05 2.55 14.42 7.55 1.66 3.6 2.52 10.19 2.52 19.76z" fill="#214080"></path></svg>