<svg xmlns:xlink="http://www.w3.org/1999/xlink" aria-labelledby="sswLogo" class=".header-logo-image--size-up header-logo-image logo-ssw" viewBox="0 0 590.75 84.69" x="0" xml:space="preserve" xmlns="http://www.w3.org/2000/svg" y="0" width="590.75"  height="84.69" ><text id="sswLogo">Sault Star</text><style>.st0{fill:#427b97}</style><path d="M49.73 35.19c-1.09-4.95-2.19-8.02-3.55-9.7-1.64-1.98-3.64-2.57-9.56-2.57H31.7v47.42c0 8.22.82 9.01 9.11 9.7v3.17H12.39v-3.17c7.83-.69 8.74-1.48 8.74-9.7V22.92h-4.1c-7.47 0-9.2.89-10.47 2.77-1.37 1.68-2.37 4.85-3.46 9.6H0c.36-6.73.91-13.76 1.09-18.91h2.09c1.37 2.28 2.55 2.47 5.1 2.47h36.43c2.37 0 3.46-.59 5.01-2.47h2.09c0 4.26.46 12.47.91 18.61l-2.99.2zM110.37 28.91c-6.4.62-6.96 1.06-6.96 8.54v34.41c0 7.39.65 7.92 6.96 8.54v2.82H86.73V80.4c6.56-.62 7.21-1.14 7.21-8.54V55.05H69.89v16.81c0 7.39.65 7.92 6.88 8.54v2.82H53.61V80.4c6.15-.62 6.88-1.14 6.88-8.54V37.45c0-7.48-.73-8.01-7.12-8.54v-2.9h23.16v2.9c-5.99.53-6.64 1.06-6.64 8.54v13.38h24.05V37.45c0-7.48-.57-7.92-6.72-8.54v-2.9h23.16v2.9zM154.82 68.86c-.49 3.52-2.11 11.7-2.83 14.34H111.5v-2.82c7.04-.62 7.77-1.23 7.77-8.62V37.54c0-7.74-.73-8.1-6.64-8.62v-2.9h37.32c.08 1.76.49 7.92.81 13.02l-2.75.44c-.73-3.34-1.7-5.9-3-7.57s-3.48-2.29-8.5-2.29h-4.7c-2.83 0-3.08.18-3.08 2.99v19.1h6.23c6.96 0 7.77-.53 8.82-6.6h2.75v17.42h-2.75c-1.05-6.34-1.86-6.69-8.82-6.69h-6.23V71.5c0 4.22.4 6.25 1.94 7.22 1.46.88 4.29.97 7.61.97 4.94 0 7.61-.62 9.47-2.9 1.54-1.85 3-4.75 4.37-8.45l2.7.52zM200.77 34.6c-1.82-6.24-4.92-13.37-12.48-13.37-5.74 0-9.29 4.55-9.29 10.1 0 6.14 3.73 9.4 11.48 13.56 8.65 4.75 15.94 9.9 15.94 20.2 0 10.99-8.56 19.6-21.49 19.6-3.46 0-6.56-.59-9.02-1.48-2.46-.79-4.1-1.48-5.19-2.08-.82-2.38-2-10.69-2.64-16.24l3.1-.99c1.64 6.24 6.56 16.93 15.48 16.93 6.1 0 9.84-4.36 9.84-10.99 0-6.34-4.37-10-11.2-13.86-8.11-4.55-15.57-9.8-15.57-19.9 0-10.3 7.56-18.71 20.04-18.71 5.28 0 9.93 1.68 12.3 2.48.36 3.66.91 7.82 1.64 14.06l-2.94.69zM238.24 83.21v-2.82c4.86-.79 5.34-1.76 4.21-5.46-.89-2.9-2.27-7.04-3.72-11.26h-16.11c-1.05 3.26-2.19 6.6-3.16 10.12-1.38 4.75-.97 5.81 4.94 6.6v2.82h-17.9v-2.82c5.26-.79 6.32-1.58 9.07-9.15l16.6-45.49 3.56-1.06c5.18 15.31 10.28 31.15 15.54 46.29 2.67 7.74 3.72 8.71 8.91 9.42v2.82h-21.94zm-7.29-44.09h-.24c-2.35 6.78-4.53 13.64-6.8 20.24h13.44l-6.4-20.24zM311.18 28.91c-4.61.26-6.56 1.85-6.96 5.19-.32 2.55-.57 5.98-.57 12.94v8.71c0 9.68-1.38 17.16-5.99 22.44-3.72 4.22-9.23 6.34-14.82 6.34-5.1 0-10.04-1.23-13.84-4.4-4.61-3.96-6.88-10.47-6.88-20.77V38.15c0-8.18-.73-8.62-6.88-9.24v-2.9h23.16v2.9c-6.07.53-6.8 1.06-6.8 9.24V57.6c0 13.55 4.62 21.38 13.84 21.38 10.36 0 14.41-8.89 14.41-23.58v-8.36c0-6.86-.4-10.38-.73-13.11-.49-3.17-2.27-4.66-7.85-5.02v-2.9h19.92v2.9z"></path><path d="M351.66 68.69c-.65 3.43-2.27 12.06-3 14.52h-38.38v-2.82c6.88-.62 7.69-1.23 7.69-8.71V37.45c0-7.48-.73-8.01-7.04-8.54v-2.9h23.4v2.9c-6.23.53-6.96 1.06-6.96 8.54v34.58c0 4.31.32 5.98 1.94 6.78 1.46.7 3.81.88 6.64.88 3.89 0 6.72-.53 8.58-2.9 1.54-1.76 3-4.58 4.37-8.8l2.76.7zM389.55 40.53c-.97-4.4-1.94-7.13-3.16-8.62-1.46-1.76-3.24-2.29-8.5-2.29h-4.37v42.15c0 7.3.73 8.01 8.1 8.62v2.82h-25.26v-2.82c6.96-.62 7.77-1.32 7.77-8.62V29.62h-3.64c-6.64 0-8.18.79-9.31 2.46-1.21 1.5-2.11 4.31-3.08 8.54h-2.75c.32-5.98.81-12.23.97-16.81h1.86c1.21 2.02 2.27 2.2 4.53 2.2h32.38c2.11 0 3.08-.53 4.45-2.2h1.86c0 3.78.41 11.09.81 16.54l-2.66.18z"></path><path class="st0" d="M65.62 3.61C65.24 2.4 64.57.98 63.09.98c-1.01 0-1.75.81-1.75 1.9 0 1.06.65 1.67 2.24 2.51 1.9.98 3.19 2.05 3.19 3.95 0 2.19-1.75 3.9-4.39 3.9-.65 0-1.28-.1-1.82-.27-.51-.15-.85-.31-1.1-.42-.16-.48-.4-2.09-.52-3.26l.63-.21c.36 1.23 1.43 3.38 3.16 3.38 1.1 0 1.81-.81 1.81-2.02 0-1.13-.79-1.84-2.15-2.61-1.86-1-3.14-2.04-3.14-3.88 0-2.11 1.57-3.76 4.13-3.76 1.16 0 2.18.38 2.51.52.07.71.2 1.55.34 2.74l-.61.16zM74.6 12.96v-.67c1.07-.17 1.16-.4.87-1.25-.18-.58-.45-1.38-.72-2.17h-3.47c-.2.6-.43 1.29-.65 2.05-.25.92-.22 1.19 1.1 1.36v.67h-4.04l.02-.67c1.19-.15 1.41-.36 2-1.98l3.7-9.87.92-.25c1.16 3.36 2.27 6.7 3.45 10 .61 1.69.85 1.94 1.99 2.09v.67H74.6zM73.07 3.7h-.05c-.51 1.4-.96 2.78-1.43 4.15h2.82L73.07 3.7zM92.09 1.15c-.99.06-1.44.46-1.53 1.13-.09.6-.16 1.31-.16 2.67v2.09c0 2.03-.29 3.65-1.3 4.8-.83.92-2.06 1.4-3.34 1.4-1.19 0-2.33-.27-3.19-1-1.03-.84-1.5-2.26-1.5-4.51v-4.5c0-1.8-.18-1.94-1.52-2.07V.48h5.43v.67c-1.32.13-1.5.27-1.5 2.07v4.16c0 2.88.98 4.55 2.92 4.55 2.15 0 3.09-1.73 3.09-4.93V4.95c0-1.36-.09-2.09-.18-2.67-.09-.67-.52-1.06-1.75-1.13V.48h4.53v.67zM102.07 9.71c-.14.81-.52 2.73-.67 3.24h-8.79v-.67c1.57-.13 1.75-.27 1.75-1.88V3.05c0-1.65-.18-1.77-1.55-1.9V.48h5.52v.67c-1.39.13-1.55.25-1.55 1.9v7.49c0 .9.07 1.25.45 1.42.31.13.79.17 1.35.17.76 0 1.41-.13 1.84-.65.34-.4.67-1.02 1.01-1.98l.64.21z" fill="#427B97"></path><g><path class="st0" d="M111.47 3.76c-.22-1-.47-1.63-.79-1.98-.31-.35-.78-.46-1.82-.46h-.83v9.08c0 1.63.18 1.75 1.77 1.88v.67h-5.88v-.67c1.52-.13 1.7-.25 1.7-1.88V1.32h-.61c-1.48 0-1.81.21-2.08.52-.29.33-.52.98-.76 1.94h-.65c.07-1.4.18-2.8.22-3.78h.43c.29.44.52.48 1.03.48h7.26c.49 0 .74-.12 1.05-.48h.43c.02.81.11 2.5.2 3.72l-.67.04zM123.84 3.61c-.38-1.21-1.05-2.63-2.53-2.63-1.01 0-1.75.81-1.75 1.9 0 1.06.65 1.67 2.24 2.51 1.9.98 3.19 2.05 3.19 3.95 0 2.19-1.75 3.9-4.39 3.9-.65 0-1.28-.1-1.82-.27-.51-.15-.85-.31-1.1-.42-.16-.48-.4-2.09-.52-3.26l.63-.21c.36 1.23 1.43 3.38 3.16 3.38 1.1 0 1.81-.81 1.81-2.02 0-1.13-.79-1.84-2.15-2.61-1.86-1-3.14-2.04-3.14-3.88 0-2.11 1.57-3.76 4.13-3.76 1.16 0 2.18.38 2.51.52.07.71.2 1.55.34 2.74l-.61.16z" fill="#427B97"></path></g><g><path class="st0" d="M135.88 3.76c-.22-1-.47-1.63-.79-1.98-.31-.35-.78-.46-1.82-.46h-.83v9.08c0 1.63.18 1.75 1.77 1.88v.67h-5.88v-.67c1.52-.13 1.7-.25 1.7-1.88V1.32h-.61c-1.48 0-1.81.21-2.08.52-.29.33-.52.98-.76 1.94h-.65c.07-1.4.18-2.8.22-3.78h.43c.29.44.52.48 1.03.48h7.26c.49 0 .74-.12 1.05-.48h.43c.02.81.11 2.5.2 3.72l-.67.04zM147.28 9.77c-.11.86-.49 2.61-.63 3.19h-9.21v-.67c1.53-.13 1.71-.25 1.71-1.88V3.03c0-1.67-.18-1.77-1.46-1.88V.48h8.5c.02.35.11 1.69.18 2.88l-.65.1c-.18-.67-.42-1.31-.74-1.65-.31-.35-.79-.48-1.81-.48h-.87c-.67 0-.74.04-.74.67v4.07h1.21c1.52 0 1.75-.1 2-1.44h.65V8.5h-.65c-.25-1.38-.47-1.46-2-1.46h-1.21v3.32c0 .9.07 1.38.43 1.57.33.15.94.19 1.62.19.92 0 1.57-.13 2-.61.34-.42.67-1.04 1.01-1.88l.66.14zM148.42 11.73c0-.84.58-1.46 1.32-1.46.78 0 1.35.61 1.35 1.46 0 .86-.58 1.46-1.35 1.46-.75 0-1.32-.6-1.32-1.46zM166.14 12.96v-.67c1.35-.15 1.46-.29 1.44-2.05l-.04-7.39h-.09l-3.99 9.98h-.51l-3.68-9.79h-.07l-.22 5.01c-.07 1.59-.07 2.5 0 3.09.07.86.43 1.04 1.62 1.15v.67h-4.33v-.67c1.01-.1 1.35-.44 1.46-1.11.11-.61.25-1.61.38-3.63l.29-3.78c.14-2.19.02-2.46-1.53-2.61V.48h3.74l3.48 8.41 3.54-8.41h3.63v.67c-1.44.15-1.52.31-1.48 1.9l.16 7.18c.04 1.77.13 1.9 1.53 2.05v.67h-5.33zM179.22 12.96v-.67c1.07-.17 1.16-.4.87-1.25-.18-.58-.45-1.38-.72-2.17h-3.47c-.2.6-.43 1.29-.65 2.05-.25.92-.22 1.19 1.1 1.36v.67h-4.04l.02-.67c1.19-.15 1.41-.36 2-1.98l3.7-9.87.92-.25c1.16 3.36 2.27 6.7 3.45 10 .61 1.69.85 1.94 1.99 2.09v.67h-5.17zm-1.53-9.26h-.05c-.51 1.4-.96 2.78-1.43 4.15h2.82l-1.34-4.15zM196.53 13.13c-.11 0-.33-.02-.54-.02-2.27-.12-2.98-.65-3.7-1.86-.47-.79-.96-1.82-1.48-2.82-.29-.59-.61-.83-1.19-.84h-.34v2.8c0 1.57.18 1.77 1.53 1.9v.67h-5.45v-.67c1.35-.13 1.55-.33 1.55-1.9V3.01c0-1.54-.16-1.73-1.48-1.86V.48h5.07c1.57 0 2.49.19 3.21.73.72.5 1.23 1.36 1.23 2.55 0 1.69-1.05 2.59-2.26 3.13.25.56.94 1.84 1.46 2.73.65 1.06 1.03 1.67 1.39 2.07.4.44.69.67 1.1.83l-.1.61zm-6.79-6.3c.76 0 1.37-.13 1.77-.52.61-.54.87-1.31.87-2.28 0-2.03-1.12-2.78-2.13-2.78-.45 0-.7.08-.81.19-.13.11-.16.31-.16.71v4.68h.46zM197.3 12.96v-.67c1.34-.13 1.5-.27 1.5-1.88V3.05c0-1.63-.16-1.77-1.5-1.9V.48h5.42v.67c-1.34.13-1.5.27-1.5 1.9v7.35c0 1.61.16 1.75 1.5 1.88v.67h-5.42zM213.74 9.77c-.11.86-.49 2.61-.63 3.19h-9.21v-.67c1.53-.13 1.71-.25 1.71-1.88V3.03c0-1.67-.18-1.77-1.46-1.88V.48h8.5c.02.35.11 1.69.18 2.88l-.65.1c-.18-.67-.42-1.31-.74-1.65-.31-.35-.79-.48-1.81-.48h-.87c-.67 0-.74.04-.74.67v4.07h1.21c1.52 0 1.75-.1 2-1.44h.65V8.5h-.65c-.25-1.38-.47-1.46-2-1.46h-1.21v3.32c0 .9.07 1.38.43 1.57.33.15.94.19 1.62.19.92 0 1.57-.13 2-.61.34-.42.67-1.04 1.01-1.88l.66.14z" fill="#427B97"></path></g><g><path d="M440.75 34.6c-1.82-6.24-4.92-13.37-12.48-13.37-5.74 0-9.29 4.55-9.29 10.1 0 6.14 3.73 9.4 11.48 13.56 8.65 4.75 15.94 9.9 15.94 20.2 0 10.99-8.56 19.6-21.5 19.6-3.46 0-6.56-.59-9.02-1.48-2.46-.79-4.1-1.48-5.19-2.08-.82-2.38-2-10.69-2.64-16.24l3.1-.99c1.64 6.24 6.56 16.93 15.48 16.93 6.1 0 9.84-4.36 9.84-10.99 0-6.34-4.37-10-11.2-13.86-8.11-4.55-15.58-9.8-15.58-19.9 0-10.3 7.56-18.71 20.04-18.71 5.28 0 9.93 1.68 12.29 2.48.37 3.66.91 7.82 1.64 14.06l-2.91.69z"></path></g><g><path d="M491.41 40.53c-.97-4.4-1.94-7.13-3.16-8.62-1.46-1.76-3.24-2.29-8.5-2.29h-4.37v42.15c0 7.3.73 8.01 8.1 8.62v2.82h-25.26v-2.82c6.96-.62 7.77-1.32 7.77-8.62V29.62h-3.64c-6.64 0-8.18.79-9.31 2.46-1.21 1.5-2.11 4.31-3.08 8.54h-2.75c.32-5.98.81-12.23.97-16.81h1.86c1.21 2.02 2.27 2.2 4.53 2.2h32.38c2.11 0 3.08-.53 4.45-2.2h1.86c0 3.78.41 11.09.81 16.54l-2.66.18zM518.85 83.21v-2.82c4.86-.79 5.34-1.76 4.21-5.46-.89-2.9-2.27-7.04-3.72-11.26h-16.11c-1.05 3.26-2.19 6.6-3.16 10.12-1.38 4.75-.97 5.81 4.94 6.6v2.82h-17.89v-2.82c5.26-.79 6.32-1.58 9.07-9.15l16.6-45.49 3.56-1.06c5.18 15.31 10.28 31.15 15.54 46.29 2.67 7.74 3.72 8.71 8.91 9.42v2.82h-21.95zm-7.29-44.09h-.24c-2.35 6.78-4.53 13.64-6.8 20.24h13.44l-6.4-20.24z"></path></g><g><path d="M590.26 84c-.65 0-1.62-.09-2.51-.09-8.74-.44-11.98-2.73-15.38-8.36-2.35-3.87-4.86-8.89-7.21-13.38-1.3-2.64-2.75-3.7-5.91-3.7h-1.86v13.29c0 7.22.73 8.01 6.96 8.62v2.82h-23.32v-2.82c6.23-.62 7.12-1.32 7.12-8.62v-34.4c0-7.22-.73-7.92-6.8-8.45v-2.9h21.78c6.64 0 10.69.88 13.93 3.17 3.24 2.38 5.42 6.25 5.42 11.7 0 7.66-4.62 11.97-10.2 14.52 1.3 2.73 4.37 8.62 6.8 12.58 2.91 4.84 4.61 7.48 6.4 9.42 1.86 2.29 3.4 3.34 5.26 3.96l-.48 2.64zm-30.2-28.78c3.72 0 6.4-.7 8.26-2.38 2.83-2.55 4.05-6.07 4.05-10.65 0-9.42-5.18-12.94-10.36-12.94-2.1 0-3.32.44-3.89.88-.57.53-.73 1.5-.73 3.52v21.56h2.67z"></path></g></svg>