<svg xmlns:xlink="http://www.w3.org/1999/xlink" aria-labelledby="slwLogo" class="header-logo-image logo-slw" version="1.1" viewBox="0 0 326.23 116.29" x="0" xml:space="preserve" xmlns="http://www.w3.org/2000/svg" y="0" width="326.23"  height="116.29" ><text id="slwLogo">Sarnia &amp; Lambton County This Week</text><style>.st0{fill:#004b8c}</style><path d="M2.42 17.73l1.78-.99c.84 2.37 2.2 4.02 4.3 4.02 2.15 0 3.43-1.41 3.43-3.57 0-2.58-1.8-3.69-3.75-4.83-2.33-1.35-4.95-2.76-4.95-6.84C3.23 2.28 5.38 0 8.19 0c2.89 0 4.57 2.13 5.46 4.68l-1.78 1.05c-.67-1.86-1.73-3.51-3.7-3.51-1.73 0-2.89 1.32-2.89 3.21 0 2.58 1.78 3.69 3.68 4.83 2.35 1.35 4.99 2.79 4.99 6.87 0 3.24-2.1 5.85-5.46 5.85-3.04 0-4.94-2.04-6.07-5.25zM15.99 18.87c0-3.15 2.2-5.46 7.28-6.69v-.96c0-1.8-.64-2.64-1.95-2.64-1.58 0-2.86.96-3.85 2.13l-1.11-1.47c1.36-1.65 3.09-2.79 5.16-2.79 2.54 0 3.7 1.71 3.7 4.77v7.5c0 1.92.07 3.09.32 3.9h-2c-.15-.63-.27-1.14-.27-2.04-1.06 1.41-2.49 2.25-4.17 2.25-1.95 0-3.11-1.47-3.11-3.96zm7.29-.09v-4.86c-4.02 1.05-5.33 2.73-5.33 4.62 0 1.59.69 2.31 1.83 2.31 1.35 0 2.58-.87 3.5-2.07zM28.31 6.78h2v2.73h.05c.74-1.59 2.1-3.06 4.12-3.06h.27l-.12 2.28s-.37-.03-.47-.03c-1.7 0-3.09 1.35-3.85 3.24v10.68h-2V6.78zM36.83 6.78h2v2.19c.86-1.17 2.42-2.52 4.12-2.52 2.1 0 3.21 1.53 3.21 4.41v11.76h-1.98V11.37c0-1.89-.52-2.79-1.85-2.79-1.26 0-2.62 1.17-3.51 2.28v11.76h-2V6.78zM49.34 1.02h2.02v2.61h-2.02V1.02zm0 5.76h2v15.84h-2V6.78zM53.96 18.87c0-3.15 2.2-5.46 7.28-6.69v-.96c0-1.8-.64-2.64-1.95-2.64-1.58 0-2.86.96-3.85 2.13l-1.11-1.47c1.36-1.65 3.09-2.79 5.16-2.79 2.54 0 3.7 1.71 3.7 4.77v7.5c0 1.92.07 3.09.32 3.9h-2c-.15-.63-.27-1.14-.27-2.04-1.06 1.41-2.49 2.25-4.17 2.25-1.95 0-3.11-1.47-3.11-3.96zm7.28-.09v-4.86c-4.02 1.05-5.33 2.73-5.33 4.62 0 1.59.69 2.31 1.83 2.31 1.35 0 2.59-.87 3.5-2.07zM70.33 17.4c0-3.24 1.73-5.25 3.68-6.9-.72-1.74-1.14-3.48-1.14-5.34 0-2.94 1.36-5.16 3.88-5.16 2.42 0 3.46 1.95 3.46 4.23 0 3.06-1.8 4.92-3.85 6.63.4.84.86 1.68 1.36 2.61.84 1.44 1.68 2.88 2.52 4.02.74-1.62 1.19-3.75 1.36-6.03h1.85c-.27 2.79-.89 5.46-1.9 7.47 1.06 1.14 2.05 1.74 3.01 1.77v2.22c-1.56-.06-2.86-.75-4.2-2.13-1.16 1.41-2.67 2.25-4.62 2.25-3.61 0-5.41-2.1-5.41-5.64zm8.74 1.98c-.94-1.29-1.88-2.82-2.89-4.59-.49-.87-.96-1.68-1.38-2.55-1.43 1.32-2.44 2.94-2.44 4.98 0 2.37 1.11 3.78 3.46 3.78 1.3 0 2.41-.54 3.25-1.62zm-.7-14.97c0-1.32-.42-2.37-1.63-2.37-1.31 0-1.95 1.2-1.95 2.97 0 1.41.3 2.7.86 4.17 1.51-1.29 2.72-2.67 2.72-4.77zM91.78.42h2.07v19.92h7.23v2.28h-9.31V.42zM102.74 18.87c0-3.15 2.2-5.46 7.28-6.69v-.96c0-1.8-.64-2.64-1.95-2.64-1.58 0-2.86.96-3.85 2.13l-1.11-1.47c1.36-1.65 3.09-2.79 5.16-2.79 2.54 0 3.7 1.71 3.7 4.77v7.5c0 1.92.07 3.09.32 3.9h-2c-.15-.63-.27-1.14-.27-2.04-1.06 1.41-2.49 2.25-4.17 2.25-1.95 0-3.11-1.47-3.11-3.96zm7.28-.09v-4.86c-4.02 1.05-5.33 2.73-5.33 4.62 0 1.59.69 2.31 1.83 2.31 1.35 0 2.59-.87 3.5-2.07zM115.06 6.78h2v2.19c.94-1.23 2.37-2.52 3.97-2.52 1.78 0 2.64.9 2.96 2.52.99-1.29 2.39-2.52 4.07-2.52 2.1 0 3.16 1.53 3.16 4.41v11.76h-1.98V11.37c0-1.89-.49-2.79-1.83-2.79-1.21 0-2.35 1.02-3.28 2.13v11.91h-2V11.37c0-1.89-.4-2.79-1.75-2.79-1.11 0-2.25.93-3.33 2.25v11.79h-2V6.78zM136.29 20.73v1.89h-2V.45h2v8.37c.81-1.23 1.93-2.37 3.58-2.37 2.54 0 4.44 2.52 4.44 8.22 0 5.73-2 8.19-4.57 8.19-1.5 0-2.57-.81-3.45-2.13zm6-6.03c0-4.23-1.21-6.15-2.94-6.15-1.26 0-2.17 1.02-3.06 2.22v7.92c.94 1.38 1.93 2.16 3.09 2.16 1.72 0 2.91-1.8 2.91-6.15zM147.62 19.05V8.79h-1.93V6.78h1.93V1.14h1.98v5.64h2.86v2.01h-2.86v9.72c0 1.62.35 2.34 1.73 2.34.39 0 .86-.09 1.11-.21v1.95c-.3.12-.99.21-1.56.21-2.37 0-3.26-1.02-3.26-3.75zM154.23 14.7c0-5.46 2.25-8.25 5.16-8.25 2.89 0 5.13 2.79 5.13 8.25 0 5.43-2.25 8.25-5.13 8.25-2.89 0-5.16-2.82-5.16-8.25zm8.3 0c0-3.42-.96-6.15-3.14-6.15-2.1 0-3.16 2.46-3.16 6.15 0 3.45.91 6.21 3.16 6.21 2.08 0 3.14-2.46 3.14-6.21zM167.07 6.78h2v2.19c.86-1.17 2.42-2.52 4.12-2.52 2.1 0 3.21 1.53 3.21 4.41v11.76h-1.98V11.37c0-1.89-.52-2.79-1.85-2.79-1.26 0-2.62 1.17-3.51 2.28v11.76h-2V6.78zM183.93 11.46c0-7.41 2.59-11.46 6.52-11.46 3.41 0 5.01 2.91 5.65 7.02l-1.93.42c-.57-3.36-1.6-5.13-3.78-5.13-2.81 0-4.39 3.42-4.39 9.12 0 6 1.58 9.33 4.44 9.33 2.15 0 3.31-1.68 3.95-5.4l1.9.39c-.72 4.26-2.49 7.26-5.88 7.26-3.99 0-6.48-3.93-6.48-11.55zM198.22 14.7c0-5.46 2.25-8.25 5.16-8.25 2.89 0 5.13 2.79 5.13 8.25 0 5.43-2.25 8.25-5.13 8.25-2.89 0-5.16-2.82-5.16-8.25zm8.3 0c0-3.42-.96-6.15-3.13-6.15-2.1 0-3.16 2.46-3.16 6.15 0 3.45.91 6.21 3.16 6.21 2.07 0 3.13-2.46 3.13-6.21zM210.96 18.54V6.78h1.97v11.31c0 1.86.52 2.76 1.93 2.76 1.23 0 2.37-.96 3.43-2.28V6.78h2v15.84h-2v-2.19c-.99 1.32-2.39 2.52-4.12 2.52-2.1 0-3.21-1.53-3.21-4.41zM223.45 6.78h2v2.19c.86-1.17 2.42-2.52 4.12-2.52 2.1 0 3.21 1.53 3.21 4.41v11.76h-1.97V11.37c0-1.89-.52-2.79-1.85-2.79-1.26 0-2.62 1.17-3.51 2.28v11.76h-2V6.78zM236.63 19.05V8.79h-1.93V6.78h1.93V1.14h1.98v5.64h2.86v2.01h-2.86v9.72c0 1.62.35 2.34 1.73 2.34.4 0 .86-.09 1.11-.21v1.95c-.3.12-.99.21-1.56.21-2.37 0-3.26-1.02-3.26-3.75z"></path><g><path d="M241.77 28.29l.39-1.92c.32.09.94.24 1.58.24 1.14 0 1.58-.78 2.02-2.46l.37-1.38-4.07-15.99h2.05l1.97 8.28c.42 1.74.72 3.09 1.06 4.77h.05c.37-1.74.69-3.15 1.11-4.95l1.93-8.1h1.9l-4.49 17.58c-.76 2.91-1.6 4.29-3.85 4.29-.86 0-1.65-.21-2.02-.36z"></path></g><g><path class="st0" d="M10.32 48.86H0V33.9h38.37v14.96H28.05v66.44H10.32V48.86zM39.38 33.9h16.49v28.71c2.47-3.3 8.08-6.93 12.45-6.93 5.5 0 8.75 1.76 8.75 11.55v48.07H60.59V73.39c0-1.87-.45-2.64-1.46-2.64-1.12 0-2.58.77-3.25 1.1v43.45h-16.5V33.9zM80.45 36.1h16.72v15.51H80.45V36.1zm.11 20.35h16.49v58.85H80.56V56.45zM98.62 97.26l14.36-1.76c.79 6.16 2.58 8.47 4.15 8.47 1.35 0 2.47-.44 2.47-2.53 0-3.63-3.7-5.06-7.97-8.47-5.5-4.4-11.89-10.23-11.89-20.9 0-13.09 10.21-16.83 16.72-16.83 10.88 0 17.39 4.51 18.62 17.93l-14.14 2.2c-.56-6.16-1.46-7.15-3.59-7.15-1.01 0-1.91.77-1.91 2.31 0 3.74 3.37 6.05 7.4 9.13 5.72 4.51 12.68 9.13 12.68 19.58 0 10.23-6.51 17.05-18.06 17.05-14.35 0-17.6-8.14-18.84-19.03z" fill="#004B8C"></path></g><g><path class="st0" d="M152.42 33.9h17.28l2.24 33.22c.34 5.28.67 10.89.9 17.49 0 0 .45-6.38.11 0l1.57-17.49 3.81-33.22h12l2.92 32.89c.67 6.93 1.01 10.89 1.35 17.82h.11c.34-7.15.56-10.78 1.01-17.71l2.13-33h15.93l-10.1 81.73h-16.27l-4.26-45.1h-.22l-4.26 45.1H162.4l-9.98-81.73zM210.99 85.93c0-20.02 6.62-30.25 19.3-30.25 16.94 0 18.4 15.95 18.4 29.7v6.27h-21.65c0 7.26.79 11.44 3.37 11.44 2.13 0 2.92-1.65 3.14-7.81l15.26.44c-1.46 12.1-5.95 20.35-18.51 20.35-12.58 0-19.31-10.34-19.31-30.14zm21.99-4.18c-.11-10.34-.45-12.54-2.69-12.54-2.02 0-3.25 2.53-3.25 12.54h5.94z" fill="#004B8C"></path></g><g><path class="st0" d="M249.49 85.93c0-20.02 6.62-30.25 19.3-30.25 16.94 0 18.4 15.95 18.4 29.7v6.27h-21.65c0 7.26.79 11.44 3.37 11.44 2.13 0 2.92-1.65 3.14-7.81l15.26.44c-1.46 12.1-5.95 20.35-18.51 20.35s-19.31-10.34-19.31-30.14zm21.99-4.18c-.11-10.34-.45-12.54-2.69-12.54-2.02 0-3.25 2.53-3.25 12.54h5.94zM289.66 33.9h15.48v46.2c1.12-6.16 2.36-11.44 3.03-14.08l2.47-9.57h14.25l-7.63 21.89 8.98 36.96h-15.71l-3.82-21.67-1.57 6.27v15.4h-15.48V33.9z" fill="#004B8C"></path></g></svg>