<svg xmlns:xlink="http://www.w3.org/1999/xlink" aria-labelledby="sypLogo" class="header-logo-image logo-syp header-logo-image--size-md" role="img" viewBox="0 0 286.74 137.29" x="0" xml:space="preserve" xmlns="http://www.w3.org/2000/svg" y="0" width="286.74"  height="137.29" > <text id="sypLogo">Stony Plain Reporter</text> <style>.st0{fill:#004b8c}</style><path class="st0" d="M.46 33.89H19.2c12.01 0 21.88 7.7 21.88 27.17 0 10.34-2.81 17.49-6.96 21.12l8.19 33.11H25.03l-6.17-27.17h-1.23v27.17H.46v-81.4zm18.62 41.58c2.36 0 4.38-2.42 4.38-14.19 0-11.11-2.02-12.43-4.49-12.43h-1.35v26.62h1.46z" fill="#004B8C"></path><path class="st0" d="M41.18 85.92c0-20.02 6.62-30.25 19.3-30.25 16.94 0 18.4 15.95 18.4 29.7v6.27H57.23c0 7.26.79 11.44 3.37 11.44 2.13 0 2.92-1.65 3.14-7.81l15.26.44c-1.46 12.1-5.95 20.35-18.51 20.35-12.57 0-19.31-10.34-19.31-30.14zm21.99-4.18c-.11-10.34-.44-12.54-2.69-12.54-2.02 0-3.25 2.53-3.25 12.54h5.94zm18.22-25.3h16.49v6.16c1.57-2.97 5.05-6.93 9.87-6.93 7.52 0 12.23 7.92 12.23 30.14s-4.82 30.03-12.34 30.03c-4.26 0-7.74-2.86-9.76-7.26v28.71H81.39V56.44zm21.66 29.48c0-13.97-.56-15.18-2.58-15.18-1.12 0-2.02.44-2.58.88v29.26c.67.33 1.35.66 2.69.66 1.79 0 2.47-1.43 2.47-15.62zm18.29 0c0-20.02 6.73-30.25 19.41-30.25 12.57 0 19.41 10.23 19.41 30.25 0 19.8-6.84 30.14-19.41 30.14s-19.41-10.34-19.41-30.14zm22.21-.11c0-14.08-.56-16.39-2.81-16.39-2.02 0-2.92 1.21-2.92 16.39 0 14.19.79 17.16 2.92 17.16 2.14 0 2.81-1.76 2.81-17.16zm19.19-29.37h16.49v9.24h.11c1.91-5.5 5.5-10.01 9.99-10.01 1.01 0 1.91.22 1.91.22v15.73h-1.57c-4.83 0-8.08.55-10.44 1.87v41.8h-16.49V56.44z" fill="#004B8C"></path><path class="st0" d="M195.05 104.4V68.87h-4.49V56.44h4.49V36.53h16.38v19.91h7.52v12.43h-7.52v29.48c0 5.39 1.12 5.72 3.93 5.72 1.57 0 2.8-.22 3.59-.44v11.55c-1.01.33-4.49.66-9.2.66-8.53 0-14.7-1.98-14.7-11.44z" fill="#004B8C"></path><path class="st0" d="M218.08 85.92c0-20.02 6.62-30.25 19.3-30.25 16.94 0 18.4 15.95 18.4 29.7v6.27h-21.65c0 7.26.79 11.44 3.37 11.44 2.13 0 2.92-1.65 3.14-7.81l15.26.44c-1.46 12.1-5.95 20.35-18.51 20.35s-19.31-10.34-19.31-30.14zm21.99-4.18c-.11-10.34-.45-12.54-2.69-12.54-2.02 0-3.25 2.53-3.25 12.54h5.94zm18.17-25.3h16.49v9.24h.11c1.91-5.5 5.5-10.01 9.99-10.01 1.01 0 1.91.22 1.91.22v15.73h-1.57c-4.83 0-8.08.55-10.44 1.87v41.8h-16.49V56.44z" fill="#004B8C"></path><path d="M4.72 2.73H0V.42h11.5v2.31H6.79v19.89H4.72V2.73zM13.75.42h2v8.55c.86-1.17 2.42-2.52 4.12-2.52 2.1 0 3.21 1.53 3.21 4.41v11.76H21.1V11.37c0-1.89-.52-2.79-1.85-2.79-1.26 0-2.62 1.17-3.51 2.28v11.76h-2V.42zM25.52 14.7c0-5.7 2.42-8.25 5.04-8.25 2.89 0 4.64 2.82 4.64 8.16v.6h-7.7c.07 3.72 1.26 5.7 3.14 5.7 1.53 0 2.35-1.05 3.09-2.76l1.38 1.05c-.91 2.28-2.49 3.75-4.57 3.75-2.84 0-5.02-2.73-5.02-8.25zm7.78-1.32c-.12-2.88-.99-4.86-2.77-4.86-1.46 0-2.79 1.47-3.01 4.86h5.78zm8.59 4.35l1.78-.99c.84 2.37 2.2 4.02 4.3 4.02 2.15 0 3.43-1.41 3.43-3.57 0-2.58-1.8-3.69-3.75-4.83-2.32-1.35-4.94-2.76-4.94-6.84 0-3.24 2.15-5.52 4.96-5.52 2.89 0 4.57 2.13 5.46 4.68l-1.78 1.05c-.67-1.86-1.73-3.51-3.7-3.51-1.73 0-2.89 1.32-2.89 3.21 0 2.58 1.78 3.69 3.68 4.83 2.35 1.35 4.99 2.79 4.99 6.87 0 3.24-2.1 5.85-5.46 5.85-3.04 0-4.94-2.04-6.08-5.25zm15.06 1.32V8.79h-1.93V6.78h1.93V1.14h1.98v5.64h2.86v2.01h-2.86v9.72c0 1.62.35 2.34 1.73 2.34.4 0 .86-.09 1.11-.21v1.95c-.3.12-.99.21-1.56.21-2.37 0-3.26-1.02-3.26-3.75zm6.62-4.35c0-5.46 2.25-8.25 5.16-8.25 2.89 0 5.14 2.79 5.14 8.25 0 5.43-2.25 8.25-5.14 8.25-2.89 0-5.16-2.82-5.16-8.25zm8.29 0c0-3.42-.96-6.15-3.14-6.15-2.1 0-3.16 2.46-3.16 6.15 0 3.45.91 6.21 3.16 6.21 2.08 0 3.14-2.46 3.14-6.21zm4.54-7.92h2v2.19c.86-1.17 2.42-2.52 4.12-2.52 2.1 0 3.21 1.53 3.21 4.41v11.76h-1.98V11.37c0-1.89-.52-2.79-1.85-2.79-1.26 0-2.62 1.17-3.51 2.28v11.76h-2V6.78zm10.96 21.51l.4-1.92c.32.09.94.24 1.58.24 1.14 0 1.58-.78 2.02-2.46l.37-1.38-4.07-15.99h2.05l1.98 8.28c.42 1.74.72 3.09 1.06 4.77h.05c.37-1.74.69-3.15 1.11-4.95l1.93-8.1h1.9l-4.49 17.58c-.77 2.91-1.6 4.29-3.85 4.29-.88 0-1.67-.21-2.04-.36zM105.23.42h5.11c3.33 0 5.63 1.86 5.63 6.33 0 4.92-2.54 6.6-5.75 6.6h-2.94v9.27h-2.05V.42zm5.07 10.74c2.42 0 3.68-1.2 3.68-4.32 0-2.97-1.23-4.11-3.7-4.11h-2.99v8.43h3.01zM118.71.42h2v22.2h-2V.42zm4.62 18.45c0-3.15 2.2-5.46 7.28-6.69v-.96c0-1.8-.64-2.64-1.95-2.64-1.58 0-2.86.96-3.85 2.13l-1.11-1.47c1.36-1.65 3.09-2.79 5.16-2.79 2.54 0 3.7 1.71 3.7 4.77v7.5c0 1.92.07 3.09.32 3.9h-2c-.15-.63-.27-1.14-.27-2.04-1.06 1.41-2.49 2.25-4.17 2.25-1.95 0-3.11-1.47-3.11-3.96zm7.28-.09v-4.86c-4.02 1.05-5.33 2.73-5.33 4.62 0 1.59.69 2.31 1.83 2.31 1.35 0 2.59-.87 3.5-2.07zm5.16-17.76h2.02v2.61h-2.02V1.02zm0 5.76h2v15.84h-2V6.78zm5.31 0h2v2.19c.86-1.17 2.42-2.52 4.12-2.52 2.1 0 3.21 1.53 3.21 4.41v11.76h-1.98V11.37c0-1.89-.52-2.79-1.85-2.79-1.26 0-2.62 1.17-3.5 2.28v11.76h-2V6.78z"></path></svg>