<svg xmlns:xlink="http://www.w3.org/1999/xlink" aria-labelledby="swpLogo" class="header-logo-image logo-swp header-logo-image--size-md" role="img" viewBox="0 0 180 23" xml:space="preserve" xmlns="http://www.w3.org/2000/svg" width="224"  height="29" > <text id="swpLogo">Sherwood Park News</text> <style>.st1{fill:#312561}.st2{fill:none}</style><path d="M29.42 6.91c.02-1.37.33-1.86.96-1.86.63 0 .95.5.96 1.86h-1.92zm1.91 1.42c-.09.96-.42 1.43-.95 1.43-.5 0-.96-.49-.96-2.07v-.26h2.47V7.2c0-1.83-.45-2.67-1.46-2.67-1 0-1.56.96-1.56 2.87 0 2.07.56 2.88 1.52 2.88.85 0 1.38-.78 1.46-1.95h-.52zm-5.97 1.82h.51v-3.7c0-.85.4-1.41 1-1.41.52 0 .78.37.78 1.13v3.98h.51V6c0-1.04-.47-1.47-1.16-1.47-.54 0-.98.33-1.11.89h-.02V2.76h-.51v7.39zm-2.57 0h.55V3.32h1.57v-.56h-3.68v.56h1.57v6.83z" fill="#010101"></path><path class="st1" d="M139.53 23c1.43 0 2.55-.28 3.36-.84.95-.64 1.42-1.65 1.42-3.02v-2.73c0-1.05-.28-1.88-.84-2.48-.27-.3-.97-.78-2.11-1.45l-1.56-.93c-.56-.41-.84-.99-.84-1.74v-1.7c0-.3.06-.53.19-.68.13-.15.29-.23.47-.23.17 0 .31.08.44.24.13.16.19.38.19.66v3.57h3.97v-3.6c0-1.37-.45-2.36-1.36-2.96-.75-.49-1.82-.74-3.21-.74-1.43 0-2.54.28-3.33.84-.91.64-1.36 1.65-1.36 3.02v2.44c0 .86.16 1.52.49 1.98.33.46.96.98 1.91 1.56.64.39 1.32.79 2.06 1.22.54.36.81 1.16.81 2.4v1.41c0 .3-.05.53-.16.69-.11.16-.27.24-.49.24-.22 0-.38-.08-.5-.24-.12-.16-.18-.39-.18-.69v-3.83h-4.02v3.89c0 1.37.47 2.36 1.42 2.96.76.49 1.84.74 3.23.74M130.71 4.51l-1.38 9.9-1.24-9.9h-4.06l-1.24 9.9-1.37-9.9h-3.91l2.81 18.23h4.64l1.16-7.46 1.24 7.46h4.44l2.81-18.23zM117.28 15.02V8.08c0-1.37-.48-2.36-1.45-2.96-.79-.49-1.89-.74-3.3-.74-1.43 0-2.54.28-3.33.84-.91.64-1.36 1.65-1.36 3.02v10.9c0 1.39.46 2.41 1.39 3.06.77.54 1.87.8 3.3.8 1.43 0 2.53-.25 3.3-.74.96-.62 1.45-1.61 1.45-2.96v-3.7h-4.02v3.64c0 .3-.06.53-.17.69-.12.16-.29.24-.52.24s-.41-.08-.52-.24c-.12-.16-.17-.39-.17-.69v-4.22h5.4zm-5.42-6.92c0-.3.07-.52.2-.67.13-.15.3-.22.49-.22.23 0 .41.07.52.22.12.15.17.37.17.67v4.15h-1.39V8.1zM107.18.23h-3.71V10.5L100.92.23h-5.06v22.51h3.7V10.73l3.04 12.01h4.58z" fill="#312561"></path><path class="st2" d="M68.6 3.72V6.4c.17 0 .28-.01.33-.03.13-.06.2-.18.2-.38V4.13c0-.18-.06-.31-.19-.37-.07-.03-.18-.04-.34-.04zM72.26 8.03v1.13c0 .1.02.17.06.21.04.05.1.07.18.07.07 0 .12-.02.16-.07.04-.05.06-.12.06-.21v-1.6c-.18.05-.31.11-.38.19-.05.06-.08.16-.08.28zM59.97 5.01c-.07 0-.12.03-.17.08-.05.05-.07.13-.07.23v3.81c0 .1.02.18.06.24.04.05.1.08.18.08.08 0 .14-.03.18-.08.04-.05.06-.13.06-.24V5.32c0-.1-.02-.18-.06-.23a.22.22 0 00-.18-.08zM56.49 5.01c-.07 0-.12.03-.17.08-.05.05-.07.13-.07.23v3.81c0 .1.02.18.06.24.04.05.1.08.18.08.08 0 .14-.03.18-.08.04-.05.06-.13.06-.24V5.32c0-.1-.02-.18-.06-.23a.22.22 0 00-.18-.08zM63.45 5.01c-.16 0-.24.1-.24.29v3.86c0 .1.02.17.06.21.04.05.1.07.18.07.08 0 .14-.02.18-.07.04-.05.06-.12.06-.21V5.29c0-.09-.02-.16-.06-.2a.25.25 0 00-.18-.08zM43.52 5.01c-.07 0-.12.03-.17.08-.05.05-.07.13-.07.23v1.42h.47V5.32c0-.1-.02-.18-.06-.23-.03-.05-.09-.08-.17-.08z" fill="none"></path><path class="st1" d="M59.99 4.04c-.49 0-.87.1-1.15.29-.32.22-.49.56-.49 1.03v3.73c0 .48.16.82.49 1.04.27.18.65.27 1.15.27.49 0 .86-.08 1.12-.25.32-.21.47-.54.47-1.01V5.31c0-.41-.15-.72-.46-.94-.3-.22-.68-.33-1.13-.33zm.22 5.09c0 .1-.02.18-.06.24a.22.22 0 01-.18.08.22.22 0 01-.18-.08c-.04-.05-.06-.13-.06-.24V5.32c0-.1.02-.18.07-.23.05-.05.1-.08.17-.08.08 0 .14.03.18.08.04.05.06.13.06.23v3.81zM56.51 4.04c-.49 0-.87.1-1.15.29-.32.22-.48.56-.48 1.03v3.73c0 .48.16.82.48 1.04.27.18.65.27 1.15.27.49 0 .86-.08 1.12-.25.32-.21.47-.54.47-1.01V5.31c0-.41-.15-.72-.46-.94-.3-.22-.68-.33-1.13-.33zm.22 5.09c0 .1-.02.18-.06.24a.22.22 0 01-.18.08.22.22 0 01-.18-.08c-.04-.05-.06-.13-.06-.24V5.32c0-.1.02-.18.07-.23.05-.05.1-.08.17-.08.08 0 .14.03.18.08.04.05.06.13.06.23v3.81zM69.95 2.78c-.24-.1-.68-.15-1.34-.15h-1.48v7.7h1.47V7.49c.69.01 1.09 0 1.22-.05.12-.05.28-.16.48-.34.2-.18.3-.5.3-.97V3.99c0-.62-.22-1.03-.65-1.21zm-.83 3.21c0 .19-.07.32-.2.38-.04.02-.15.03-.32.03V3.72c.16 0 .27.01.34.04.12.06.19.18.19.37v1.86zM63.68 4.28a.95.95 0 00-.35-.17c-.15-.04-.32-.07-.5-.07-.3 0-.54.08-.72.25a.82.82 0 00-.28.62v4.47c0 .27.11.51.33.71.22.2.53.31.93.31.24 0 .43-.04.56-.11.03-.01.11-.08.24-.19l.12.21h1.04v-7.7h-1.37v1.67zm0 4.88c0 .1-.02.17-.06.21-.04.05-.1.07-.18.07-.08 0-.14-.02-.18-.07a.328.328 0 01-.06-.21V5.3c0-.19.08-.29.24-.29.07 0 .13.02.17.07.04.05.06.11.06.2v3.88zM37.14 6.18c-.24-.28-.51-.58-.78-.89-.2-.24-.3-.48-.3-.73v-.72c0-.08.02-.14.06-.18.04-.04.1-.06.19-.06.07 0 .13.02.17.06.04.04.07.1.07.17v1.43h1.38V3.94c0-.4-.12-.72-.35-.96-.27-.27-.68-.41-1.23-.41-.63 0-1.1.14-1.39.41-.25.23-.38.6-.38 1.09v.87c0 .29.12.59.35.92.05.07.3.37.74.88.27.32.51.61.75.87.09.12.13.29.13.51v.92c0 .09-.02.15-.07.2a.33.33 0 01-.21.07c-.08 0-.15-.02-.21-.07a.232.232 0 01-.09-.19V7.26h-1.38v1.76c0 .36.11.66.33.9.29.33.75.49 1.38.49.66 0 1.13-.14 1.41-.42.24-.24.36-.62.36-1.12v-.98c0-.33-.1-.65-.29-.95-.12-.14-.32-.4-.64-.76zM47.68 4.04c-.19 0-.36.02-.51.07-.15.05-.26.11-.34.18v-.2h-1.38v6.23h1.38V5.3c0-.1.02-.17.06-.21.04-.04.1-.07.18-.07.16 0 .24.1.24.29v1.36h1.38V4.94c0-.25-.09-.46-.28-.63-.2-.18-.44-.27-.73-.27zM40.59 4.04c-.2 0-.37.02-.51.05-.14.04-.26.1-.34.18V2.63h-1.38v7.7h1.38V5.29c0-.1.02-.16.06-.21.04-.04.1-.07.18-.07.16 0 .24.1.24.29v5.02h1.38V4.91c0-.24-.09-.45-.28-.62-.2-.16-.44-.25-.73-.25zM52.87 7.48l-.42-3.39h-1.39l-.42 3.39-.47-3.39h-1.34l.96 6.23h1.59l.39-2.55.43 2.55h1.52l.96-6.23h-1.34zM43.51 4.04c-.49 0-.87.1-1.14.29-.31.22-.47.57-.47 1.03v3.73c0 .48.16.82.48 1.04.26.18.64.27 1.13.27.49 0 .86-.08 1.13-.25.33-.21.49-.55.49-1.01V7.88h-1.38v1.24c0 .1-.02.18-.06.23a.22.22 0 01-.18.08.22.22 0 01-.18-.08c-.04-.05-.06-.13-.06-.24V7.68h1.85V5.31c0-.47-.17-.81-.49-1.01-.26-.17-.64-.26-1.12-.26zm.25 2.7h-.47V5.32c0-.1.02-.18.07-.23.05-.05.1-.08.17-.08.08 0 .14.03.18.08.04.05.06.13.06.23v1.42zM72.58 4.04c-.49 0-.87.08-1.14.25-.34.21-.5.55-.5 1.01v1.24h1.34V5.32c0-.1.02-.18.07-.23.04-.05.1-.08.16-.08.08 0 .14.03.17.08.04.05.06.13.06.23v.92c0 .13-.31.36-.93.69-.62.33-.92.74-.92 1.24v1.25c0 .33.09.58.26.74.17.16.46.24.87.24.25 0 .44-.02.58-.06a.47.47 0 00.3-.27v.24h1.22V5.36c0-.48-.15-.83-.44-1.04-.25-.18-.61-.28-1.1-.28zm.16 5.12c0 .1-.02.17-.06.21-.04.05-.1.07-.16.07-.08 0-.14-.02-.18-.07a.328.328 0 01-.06-.21V8.03c0-.12.03-.21.1-.29.07-.07.19-.14.38-.19v1.61zM84.77 6.35c-.28 0-.53.11-.73.34-.2.23-.31.5-.31.81 0 .32.1.59.31.81.2.22.45.33.73.33s.53-.11.73-.34c.2-.23.31-.49.31-.8 0-.31-.1-.58-.31-.81a.955.955 0 00-.73-.34zM81.46 4.09h-1.41l-.71 2V2.63h-1.38v7.69h1.38V8.07l.85 2.25h1.61l-1.33-3.5zM76.68 4.04c-.19 0-.36.02-.51.07-.15.05-.26.11-.34.18v-.2h-1.38v6.23h1.38V5.3c0-.1.02-.17.06-.21.04-.04.1-.07.18-.07.16 0 .24.1.24.29v1.36h1.38V4.94c0-.25-.09-.46-.28-.63-.2-.18-.44-.27-.73-.27z" fill="#312561"></path><path class="st2" d="M46.36 17.85v1.13c0 .1.02.17.06.21.04.05.1.07.18.07.07 0 .12-.02.16-.07.04-.05.06-.12.06-.21v-1.6c-.18.05-.31.11-.38.19-.04.07-.08.16-.08.28zM60.21 14.84c-.07 0-.12.03-.17.08-.05.05-.07.13-.07.23v3.81c0 .1.02.18.06.24.04.05.1.08.18.08.08 0 .14-.03.18-.08.04-.05.06-.13.06-.24v-3.81c0-.1-.02-.18-.06-.23-.04-.06-.1-.08-.18-.08zM66.99 17.85v1.13c0 .1.02.17.06.21.04.05.1.07.18.07.07 0 .12-.02.16-.07.04-.05.06-.12.06-.21v-1.6c-.18.05-.31.11-.38.19-.04.07-.08.16-.08.28zM76.21 14.84c-.07 0-.12.03-.17.08-.05.05-.07.13-.07.23v3.81c0 .1.02.18.06.24.04.05.1.08.18.08.08 0 .14-.03.18-.08.04-.05.06-.13.06-.24v-3.81c0-.1-.02-.18-.06-.23-.04-.06-.1-.08-.18-.08z" fill="none"></path><path class="st1" d="M87.21 19.03c-.11-.07-.17-.2-.17-.39v-3.79h.74v-.93h-.74v-1.25h-1.38v1.25h-.61v.93h.61v3.8c0 .64.07 1.06.2 1.23.13.18.5.27 1.09.27h.87V19.1h-.26c-.15 0-.27-.02-.35-.07zM83.83 13.87c-.19 0-.36.02-.51.07-.15.05-.26.11-.34.18v-.21H81.6v6.23h1.38v-5.01c0-.1.02-.17.06-.22.04-.05.1-.07.18-.07.16 0 .24.1.24.29v5.01h1.38v-5.39c0-.25-.09-.46-.28-.63-.2-.16-.44-.25-.73-.25zM79.92 18.98c0 .09-.02.16-.06.2-.04.05-.1.07-.18.07-.16 0-.24-.09-.24-.29V13.9h-1.37v5.45c0 .24.09.45.28.62.19.17.43.25.72.25.2 0 .37-.03.52-.09.15-.06.26-.13.33-.21v.21h1.38V13.9h-1.38v5.08zM67.31 13.87c-.49 0-.87.08-1.14.25-.34.21-.5.55-.5 1.01v1.24H67v-1.23c0-.1.02-.18.07-.23.05-.05.1-.08.17-.08.08 0 .14.03.17.08.04.05.06.13.06.23v.92c0 .13-.31.36-.93.69-.62.33-.92.74-.92 1.24v1.25c0 .33.09.58.26.74s.46.24.87.24c.25 0 .44-.02.58-.06.14-.04.24-.13.3-.27v.24h1.22v-4.96c0-.48-.15-.83-.44-1.04-.25-.17-.61-.26-1.1-.26zm.16 5.11c0 .1-.02.17-.06.21-.04.05-.1.07-.16.07-.08 0-.14-.02-.18-.07a.328.328 0 01-.06-.21v-1.13c0-.12.03-.21.1-.29.07-.07.19-.14.38-.19v1.61zM76.23 13.87c-.49 0-.87.1-1.15.29-.32.22-.48.56-.48 1.03v3.73c0 .48.16.82.48 1.04.27.18.65.27 1.15.27.49 0 .86-.08 1.12-.25.32-.21.48-.54.48-1.01v-3.84c0-.41-.15-.72-.46-.94-.31-.21-.69-.32-1.14-.32zm.22 5.08c0 .1-.02.18-.06.24a.22.22 0 01-.18.08.22.22 0 01-.18-.08c-.04-.05-.06-.13-.06-.24v-3.81c0-.1.02-.18.07-.23.05-.05.1-.08.17-.08.08 0 .14.03.18.08.04.05.06.13.06.23v3.81zM90.38 13.91l-.45 3.29-.58-3.29h-1.38L89.25 20c.02.07.03.14.03.21 0 .12-.03.22-.07.3-.05.07-.13.11-.25.11h-.48v.85h.93c.17 0 .29-.01.38-.02.09-.01.17-.04.24-.07.23-.13.38-.28.46-.45.04-.1.1-.38.18-.82l1.07-6.19h-1.36zM53.75 13.87c-.2 0-.37.02-.51.05-.14.04-.26.1-.34.18v-1.65h-1.38v7.7h1.38v-5.04c0-.1.02-.16.06-.21.04-.04.1-.07.18-.07.16 0 .24.1.24.29v5.02h1.38v-5.41c0-.24-.09-.45-.28-.62-.2-.16-.44-.24-.73-.24zM46.68 13.87c-.49 0-.87.08-1.14.25-.34.21-.5.55-.5 1.01v1.24h1.34v-1.23c0-.1.02-.18.07-.23.04-.05.1-.08.16-.08.08 0 .14.03.17.08.04.05.06.13.06.23v.92c0 .13-.31.36-.93.69-.62.33-.92.74-.92 1.24v1.25c0 .33.09.58.26.74.17.16.46.24.87.24.25 0 .44-.02.58-.06a.47.47 0 00.3-.27v.24h1.22v-4.96c0-.48-.15-.83-.44-1.04-.25-.17-.61-.26-1.1-.26zm.16 5.11c0 .1-.02.17-.06.21-.04.05-.1.07-.16.07-.08 0-.14-.02-.18-.07a.328.328 0 01-.06-.21v-1.13c0-.12.03-.21.1-.29.07-.07.19-.14.38-.19v1.61zM56.7 13.87c-.49 0-.87.1-1.15.29-.32.22-.48.56-.48 1.03v3.73c0 .48.16.82.48 1.04.27.18.65.27 1.15.27.49 0 .86-.08 1.12-.25.32-.21.48-.54.48-1.01v-1.52h-1.38v1.5c0 .1-.02.18-.06.24a.22.22 0 01-.18.08.22.22 0 01-.18-.08c-.04-.05-.06-.13-.06-.24v-3.81c0-.1.02-.18.07-.23.05-.05.1-.08.17-.08.08 0 .14.03.18.08.04.05.06.13.06.23v1.53h1.38v-1.54c0-.47-.16-.81-.48-1.01-.27-.17-.64-.25-1.12-.25zM50.63 19.03c-.11-.07-.17-.2-.17-.39v-3.79h.74v-.93h-.74v-1.25h-1.38v1.25h-.61v.93h.61v3.8c0 .64.07 1.06.2 1.23.14.18.5.27 1.09.27h.87V19.1h-.26c-.15 0-.27-.02-.35-.07zM64.31 13.87c-.19 0-.36.02-.51.07-.15.05-.26.11-.34.18v-.21h-1.38v6.23h1.38v-5.01c0-.1.02-.17.06-.22.04-.05.1-.07.18-.07.16 0 .24.1.24.29v5.01h1.38v-5.39c0-.25-.09-.46-.28-.63-.2-.16-.44-.25-.73-.25zM72.7 12.4c-.63 0-1.1.14-1.39.41-.25.23-.38.6-.38 1.09v4.96c0 .45.17.8.51 1.04.32.23.73.34 1.25.34.48 0 .87-.14 1.18-.41.26-.23.4-.5.4-.8v-1.96H72.9v1.91c0 .06-.02.11-.05.14-.03.03-.09.05-.17.05-.06 0-.12-.02-.16-.05a.175.175 0 01-.07-.14v-5.36c0-.07.02-.11.06-.14.04-.03.1-.04.17-.04.08 0 .13.01.17.04.03.03.05.08.05.14v1.54h1.37v-1.4c0-.4-.11-.72-.35-.96-.26-.27-.67-.4-1.22-.4zM60.23 13.87c-.49 0-.87.1-1.15.29-.32.22-.49.56-.49 1.03v3.73c0 .48.16.82.49 1.04.27.18.65.27 1.15.27.49 0 .86-.08 1.12-.25.32-.21.47-.54.47-1.01v-3.84c0-.41-.15-.72-.46-.94-.3-.21-.68-.32-1.13-.32zm.22 5.08c0 .1-.02.18-.06.24a.22.22 0 01-.18.08.22.22 0 01-.18-.08c-.04-.05-.06-.13-.06-.24v-3.81c0-.1.02-.18.07-.23.05-.05.1-.08.17-.08.08 0 .14.03.18.08.04.05.06.13.06.23v3.81zM40.54 19.03c-.11-.07-.17-.2-.17-.39v-3.79h.74v-.93h-.74v-1.25H39v1.25h-.61v.93H39v3.8c0 .64.07 1.06.2 1.23.14.18.5.27 1.09.27h.87V19.1h-.26c-.15 0-.28-.02-.36-.07zM37.24 16c-.24-.28-.51-.58-.79-.89-.2-.24-.3-.48-.3-.73v-.72c0-.08.02-.14.06-.18.04-.04.1-.06.19-.06.07 0 .13.02.17.06.04.04.07.1.07.17v1.43h1.38v-1.33c0-.4-.12-.72-.35-.96-.27-.27-.68-.41-1.23-.41-.63 0-1.1.14-1.39.41-.25.23-.38.6-.38 1.09v.87c0 .29.12.59.35.92.05.07.3.37.74.88.27.32.51.61.75.87.09.12.13.29.13.51v.92c0 .09-.02.15-.07.2a.34.34 0 01-.22.07c-.08 0-.15-.02-.21-.07a.232.232 0 01-.09-.19v-1.78h-1.38v1.76c0 .36.11.66.33.9.29.33.75.49 1.38.49.66 0 1.13-.14 1.41-.42.24-.24.36-.62.36-1.12v-.98c0-.33-.1-.65-.29-.95-.1-.13-.31-.39-.62-.76zM43.69 13.87c-.19 0-.36.02-.51.07-.15.05-.26.11-.34.18v-.21h-1.38v6.23h1.38v-5.02c0-.1.02-.17.06-.21.04-.04.1-.07.18-.07.16 0 .24.1.24.29v1.36h1.37v-1.74c0-.25-.09-.46-.28-.63-.19-.16-.43-.25-.72-.25z" fill="#312561"></path></svg>