<svg xmlns:xlink="http://www.w3.org/1999/xlink" aria-labelledby="susLogo" class="header-logo-image logo-sus" viewBox="0 0 542.23 81.32" x="0" xml:space="preserve" xmlns="http://www.w3.org/2000/svg" y="0" width="542.23"  height="81.32" ><text id="susLogo">Sudbury Star</text><style>.st0{fill:#427c98}</style><path d="M32.98 30.8c-1.84-6.29-4.96-13.48-12.59-13.48-5.79 0-9.37 4.59-9.37 10.18 0 6.19 3.77 9.49 11.57 13.68 8.73 4.79 16.08 9.98 16.08 20.37 0 11.08-8.63 19.77-21.68 19.77-3.49 0-6.61-.6-9.09-1.5-2.48-.8-4.13-1.5-5.24-2.1C1.84 75.33.64 66.94 0 61.35l3.12-1c1.65 6.29 6.61 17.07 15.62 17.07 6.15 0 9.92-4.39 9.92-11.08 0-6.39-4.41-10.08-11.3-13.98-8.17-4.59-15.71-9.88-15.71-20.07 0-10.38 7.62-18.87 20.21-18.87 5.33 0 10.01 1.7 12.4 2.5.37 3.69.92 7.89 1.65 14.18l-2.93.7zM95.73 25.37c-4.63.26-6.58 1.85-6.98 5.21-.33 2.56-.57 6-.57 12.97v8.74c0 9.71-1.38 17.21-6.01 22.5-3.73 4.24-9.25 6.35-14.86 6.35-5.11 0-10.07-1.24-13.88-4.41-4.63-3.97-6.9-10.5-6.9-20.83V34.64c0-8.21-.73-8.65-6.9-9.26v-2.91h23.22v2.91c-6.09.53-6.82 1.06-6.82 9.26v19.5c0 13.59 4.63 21.44 13.88 21.44 10.39 0 14.45-8.91 14.45-23.65v-8.38c0-6.88-.41-10.41-.73-13.15-.49-3.18-2.27-4.68-7.87-5.03v-2.91h19.97v2.91zM119.75 22.46c10.23 0 18.02 2.29 23.14 7.59 4.06 4.15 7.06 10.5 7.06 18.88 0 10.68-3.9 18.44-10.07 23.56-6.01 5.03-14.37 7.32-24.43 7.32H95.16v-2.82c6.66-.62 7.39-1.15 7.39-8.65V34.02c0-7.59-.73-8.12-6.66-8.65v-2.91h23.86zm-7.71 45.27c0 6.44 1.79 8.47 7.47 8.47 12.42 0 19.81-10.59 19.81-25.68 0-8.74-2.68-15.79-7.39-19.85-3.49-3.26-7.87-4.85-13.39-4.85-3.17 0-4.95.62-5.6 1.24-.65.71-.89 2.03-.89 4.94v35.73zM180.15 49.02c8.93 1.24 15.18 5.29 15.18 13.85 0 5.91-2.92 10.5-7.63 13.24-4.14 2.56-10.07 3.71-16.72 3.71h-19.64v-2.91c6.49-.53 7.14-1.15 7.14-8.56V33.93c0-7.41-.57-8.03-6.58-8.56v-2.91h22.65c6.17 0 10.07.97 12.99 3.09 2.92 2.03 4.71 5.74 4.71 9.97 0 8.47-6.66 11.91-12.1 13.15v.35zm-9.74-1.23c8.2 0 11.77-3.53 11.77-10.85 0-7.24-3.9-11.12-9.5-11.12-1.87 0-3.41.53-3.98 1.06-.65.53-.89 1.76-.89 3.97v16.94h2.6zm-2.6 20.38c0 6.44 1.62 8.29 6.25 8.21 5.28-.09 10.71-3.71 10.71-12.62 0-8.47-5.11-12.62-14.53-12.62h-2.44v17.03zM251.83 25.37c-4.63.26-6.57 1.85-6.98 5.21-.32 2.56-.57 6-.57 12.97v8.74c0 9.71-1.38 17.21-6.01 22.5-3.73 4.24-9.25 6.35-14.86 6.35-5.11 0-10.07-1.24-13.88-4.41-4.63-3.97-6.9-10.5-6.9-20.83V34.64c0-8.21-.73-8.65-6.9-9.26v-2.91h23.22v2.91c-6.09.53-6.82 1.06-6.82 9.26v19.5c0 13.59 4.63 21.44 13.88 21.44 10.39 0 14.45-8.91 14.45-23.65v-8.38c0-6.88-.41-10.41-.73-13.15-.49-3.18-2.27-4.68-7.87-5.03v-2.91h19.97v2.91z"></path><path d="M300.78 80.61c-.65 0-1.62-.09-2.52-.09-8.77-.44-12.01-2.74-15.42-8.38-2.35-3.88-4.87-8.91-7.22-13.41-1.3-2.65-2.76-3.71-5.93-3.71h-1.87v13.33c0 7.24.73 8.03 6.98 8.65v2.82h-23.38V77c6.25-.62 7.14-1.32 7.14-8.65v-34.5c0-7.24-.73-7.94-6.82-8.47v-2.91h21.84c6.66 0 10.72.88 13.96 3.18 3.25 2.38 5.44 6.26 5.44 11.74 0 7.68-4.63 12-10.23 14.56 1.3 2.74 4.38 8.65 6.82 12.62 2.92 4.85 4.63 7.5 6.41 9.44 1.87 2.29 3.41 3.35 5.28 3.97l-.48 2.63zM270.5 51.76c3.73 0 6.41-.71 8.28-2.38 2.84-2.56 4.06-6.09 4.06-10.68 0-9.44-5.2-12.97-10.39-12.97-2.11 0-3.33.44-3.9.88-.57.53-.73 1.5-.73 3.53v21.62h2.68zM344.53 25.37c-5.36.62-6.74 1.94-9.74 7.24-3.25 5.65-5.6 9.88-9.5 18-1.14 2.29-1.46 3.35-1.46 5.91v11.56c0 7.77.65 8.29 7.96 8.91v2.82h-25.08v-2.82c6.98-.53 7.71-1.15 7.71-8.91v-10.5c0-2.03-.32-2.91-1.3-5.03-2.44-5.03-5.44-10.85-10.07-19.77-3.17-5.91-4.3-6.79-8.93-7.41v-2.91h21.75v2.91c-5.44.79-5.36 1.85-3.9 4.94 3.08 6.44 6.58 13.24 9.9 19.77 2.6-5.29 6.82-13.68 8.85-19.06 1.54-3.88 1.38-4.94-4.71-5.65v-2.91h18.51v2.91zM391.81 30.8c-1.84-6.29-4.96-13.48-12.58-13.48-5.79 0-9.37 4.59-9.37 10.18 0 6.19 3.77 9.49 11.57 13.68 8.73 4.79 16.08 9.98 16.08 20.37 0 11.08-8.63 19.77-21.68 19.77-3.49 0-6.61-.6-9.09-1.5-2.48-.8-4.13-1.5-5.24-2.1-.83-2.4-2.02-10.78-2.66-16.37l3.12-1c1.65 6.29 6.61 17.07 15.62 17.07 6.15 0 9.92-4.39 9.92-11.08 0-6.39-4.41-10.08-11.3-13.98-8.17-4.59-15.71-9.88-15.71-20.07 0-10.38 7.62-18.87 20.21-18.87 5.33 0 10.01 1.7 12.4 2.5.37 3.69.92 7.89 1.65 14.18l-2.94.7z"></path><g><path d="M442.62 37.02c-.97-4.41-1.95-7.15-3.17-8.65-1.46-1.76-3.25-2.3-8.52-2.3h-4.38v42.27c0 7.32.73 8.03 8.12 8.65v2.82h-25.33v-2.82c6.98-.62 7.79-1.32 7.79-8.65V26.08h-3.65c-6.66 0-8.2.8-9.33 2.47-1.22 1.5-2.11 4.32-3.08 8.56h-2.76c.33-6 .81-12.27.97-16.85h1.87c1.22 2.03 2.27 2.21 4.55 2.21h32.47c2.11 0 3.08-.53 4.46-2.21h1.87c0 3.79.41 11.12.81 16.59l-2.69.17zM470.14 79.82V77c4.87-.79 5.36-1.76 4.22-5.47-.89-2.91-2.27-7.06-3.73-11.29h-16.15c-1.05 3.27-2.19 6.62-3.17 10.15-1.38 4.76-.97 5.82 4.95 6.62v2.82h-17.94v-2.82c5.28-.79 6.33-1.59 9.09-9.18l16.64-45.62 3.57-1.06c5.2 15.35 10.31 31.24 15.59 46.42 2.68 7.77 3.73 8.74 8.93 9.44v2.82h-22zm-7.3-44.21h-.24c-2.35 6.79-4.55 13.68-6.82 20.3h13.48l-6.42-20.3z"></path></g><g><path d="M541.74 80.61c-.65 0-1.62-.09-2.52-.09-8.77-.44-12.01-2.74-15.42-8.38-2.35-3.88-4.87-8.91-7.22-13.41-1.3-2.65-2.76-3.71-5.93-3.71h-1.87v13.33c0 7.24.73 8.03 6.98 8.65v2.82h-23.38V77c6.25-.62 7.14-1.32 7.14-8.65v-34.5c0-7.24-.73-7.94-6.82-8.47v-2.91h21.84c6.66 0 10.71.88 13.96 3.18 3.25 2.38 5.44 6.26 5.44 11.74 0 7.68-4.63 12-10.23 14.56 1.3 2.74 4.38 8.65 6.82 12.62 2.92 4.85 4.63 7.5 6.41 9.44 1.87 2.29 3.41 3.35 5.28 3.97l-.48 2.63zm-30.28-28.85c3.73 0 6.41-.71 8.28-2.38 2.84-2.56 4.06-6.09 4.06-10.68 0-9.44-5.2-12.97-10.39-12.97-2.11 0-3.33.44-3.9.88-.57.53-.73 1.5-.73 3.53v21.62h2.68z"></path></g><g><path class="st0" d="M53.44 3.76c-.22-1-.47-1.63-.79-1.98-.31-.35-.78-.46-1.82-.46H50v9.08c0 1.63.18 1.75 1.77 1.88v.67h-5.88v-.67c1.52-.13 1.7-.25 1.7-1.88V1.32h-.61c-1.48 0-1.8.21-2.08.52-.29.33-.52.98-.76 1.94h-.65c.07-1.4.18-2.8.22-3.78h.43c.29.44.52.48 1.03.48h7.26c.49 0 .74-.12 1.05-.48h.43c.02.81.11 2.5.2 3.72l-.67.04zM68 1.15c-1.41.13-1.52.25-1.52 1.88v7.39c0 1.61.14 1.73 1.52 1.86v.67h-5.51v-.67c1.44-.13 1.57-.27 1.57-1.88V6.83h-4.93v3.57c0 1.63.14 1.75 1.48 1.88v.67h-5.38v-.67c1.32-.13 1.48-.25 1.48-1.88V3.03c0-1.63-.16-1.75-1.55-1.88V.48h5.41v.67c-1.3.13-1.44.25-1.44 1.88v2.82h4.93V3.03c0-1.63-.14-1.75-1.48-1.88V.48H68v.67zM78.97 9.77c-.11.86-.49 2.61-.63 3.19h-9.21v-.67c1.54-.13 1.71-.25 1.71-1.88V3.03c0-1.67-.18-1.77-1.46-1.88V.48h8.5c.02.35.11 1.69.18 2.88l-.65.1c-.17-.68-.41-1.31-.73-1.66-.31-.34-.79-.48-1.81-.48H74c-.67 0-.74.04-.74.67v4.07h1.21c1.52 0 1.75-.1 2-1.44h.65V8.5h-.65c-.25-1.38-.47-1.46-2-1.46h-1.21v3.32c0 .9.07 1.38.43 1.57.33.15.94.19 1.62.19.92 0 1.57-.13 2-.61.34-.42.67-1.04 1.01-1.88l.65.14z" fill="#427C98"></path></g></svg>