<svg xmlns:xlink="http://www.w3.org/1999/xlink" aria-labelledby="tdpLogo" class="header-logo-image logo-tdp" viewBox="0 0 613.12 79.58" x="0" xml:space="preserve" xmlns="http://www.w3.org/2000/svg" y="0" width="613.12"  height="79.58" ><text id="tdpLogo">The Daily Press</text><style>.st0{fill:#427c98}</style><path d="M50.15 29.84c-1.1-4.99-2.2-8.09-3.58-9.78-1.65-2-3.67-2.6-9.65-2.6h-4.96v47.82c0 8.29.83 9.09 9.19 9.78v3.19H12.49v-3.19c7.9-.7 8.82-1.5 8.82-9.78V17.46h-4.13c-7.53 0-9.28.9-10.56 2.8-1.38 1.7-2.39 4.89-3.49 9.68H0c.37-6.79.92-13.88 1.1-19.07h2.11c1.38 2.3 2.57 2.5 5.14 2.5H45.1c2.39 0 3.49-.6 5.05-2.5h2.11c0 4.29.46 12.58.92 18.77l-3.03.2zM111.88 23.81c-6.41.62-6.98 1.06-6.98 8.56v34.5c0 7.41.65 7.94 6.98 8.56v2.82h-23.7v-2.82c6.58-.62 7.22-1.15 7.22-8.56V50.02H71.29v16.85c0 7.41.65 7.94 6.9 8.56v2.82H54.97v-2.82c6.17-.62 6.9-1.15 6.9-8.56v-34.5c0-7.5-.73-8.03-7.14-8.56V20.9h23.22v2.91c-6.01.53-6.66 1.06-6.66 8.56v13.41H95.4V32.37c0-7.5-.57-7.94-6.74-8.56V20.9h23.22v2.91zM156.44 63.87c-.49 3.53-2.11 11.74-2.84 14.38h-40.59v-2.82c7.06-.62 7.79-1.24 7.79-8.65V32.46c0-7.77-.73-8.12-6.66-8.65V20.9h37.42c.08 1.76.49 7.94.81 13.06l-2.76.44c-.73-3.35-1.7-5.91-3-7.59s-3.49-2.29-8.52-2.29h-4.71c-2.84 0-3.08.18-3.08 3v19.15h6.25c6.98 0 7.79-.53 8.85-6.62h2.76v17.47h-2.76c-1.06-6.35-1.87-6.71-8.85-6.71h-6.25v15.71c0 4.24.41 6.27 1.95 7.24 1.46.88 4.3.97 7.63.97 4.95 0 7.63-.62 9.5-2.91 1.54-1.85 3-4.77 4.38-8.47l2.68.52zM195.73 13.36c11.57 0 20.39 2.6 26.18 8.59 4.59 4.69 7.99 11.88 7.99 21.37 0 12.08-4.41 20.87-11.39 26.66-6.8 5.69-16.26 8.29-27.65 8.29H167.9v-3.19c7.53-.7 8.36-1.3 8.36-9.78V26.44c0-8.59-.83-9.18-7.53-9.78v-3.29h27zm-8.72 51.22c0 7.29 2.02 9.58 8.45 9.58 14.05 0 22.41-11.98 22.41-29.05 0-9.88-3.03-17.87-8.36-22.46-3.95-3.69-8.91-5.49-15.16-5.49-3.58 0-5.6.7-6.34 1.4-.73.8-1.01 2.3-1.01 5.59v40.43zM257.2 78.26v-2.82c4.87-.79 5.36-1.76 4.22-5.47-.89-2.91-2.27-7.06-3.73-11.29h-16.15c-1.06 3.27-2.19 6.62-3.17 10.15-1.38 4.77-.97 5.82 4.95 6.62v2.82h-17.94v-2.82c5.28-.79 6.33-1.59 9.09-9.18l16.64-45.62 3.57-1.06c5.2 15.35 10.31 31.24 15.59 46.42 2.68 7.77 3.73 8.74 8.93 9.44v2.82h-22zm-7.3-44.21h-.24c-2.35 6.79-4.55 13.68-6.82 20.3h13.47l-6.41-20.3zM279.69 78.26v-2.82c6.25-.62 6.98-1.15 6.98-8.65V32.46c0-7.5-.73-8.12-6.98-8.65V20.9h23.3v2.91c-6.25.53-6.9 1.15-6.9 8.65v34.33c0 7.41.65 8.03 6.9 8.65v2.82h-23.3zM345.93 63.7c-.65 3.44-2.27 12.09-3 14.56h-38.48v-2.82c6.9-.62 7.71-1.24 7.71-8.74V32.37c0-7.5-.73-8.03-7.06-8.56V20.9h23.46v2.91c-6.25.53-6.98 1.06-6.98 8.56v34.68c0 4.32.33 6 1.95 6.79 1.46.71 3.81.88 6.66.88 3.9 0 6.74-.53 8.61-2.91 1.54-1.77 3-4.59 4.38-8.82l2.75.71zM388.55 23.81c-5.36.62-6.74 1.94-9.74 7.24-3.25 5.65-5.6 9.88-9.5 18-1.14 2.29-1.46 3.35-1.46 5.91v11.56c0 7.77.65 8.29 7.96 8.91v2.82h-25.08v-2.82c6.98-.53 7.71-1.15 7.71-8.91v-10.5c0-2.03-.32-2.91-1.3-5.03-2.44-5.03-5.44-10.85-10.07-19.77-3.17-5.91-4.3-6.79-8.93-7.41V20.9h21.76v2.91c-5.44.79-5.36 1.85-3.9 4.94 3.08 6.44 6.58 13.24 9.9 19.77 2.6-5.29 6.82-13.68 8.85-19.06 1.54-3.88 1.38-4.94-4.71-5.65V20.9h18.51v2.91z"></path><g><path d="M427.64 13.36c6.98 0 12.22 1.1 15.89 3.99 4.04 3.1 6.43 7.99 6.43 14.48 0 13.28-9 19.37-18.46 20.67-1.38.2-2.85.2-3.86.1l-6.52-1.7v14.48c0 8.39.83 8.99 8.82 9.68v3.19h-27.19v-3.19c7.07-.7 7.9-1.4 7.9-9.78V26.44c0-8.59-.83-9.18-7.35-9.78v-3.29h24.34zm-6.52 33.85c1.19.5 3.31 1 5.6 1 4.32 0 11.67-2.9 11.67-16.07 0-11.08-6.06-15.08-12.31-15.08-2.02 0-3.49.5-4.04 1-.64.6-.92 1.7-.92 3.69v25.46z"></path></g><g><path d="M500.77 79.05c-.65 0-1.62-.09-2.52-.09-8.77-.44-12.01-2.74-15.42-8.38-2.35-3.88-4.87-8.91-7.22-13.41-1.3-2.65-2.76-3.71-5.93-3.71h-1.87v13.32c0 7.24.73 8.03 6.98 8.65v2.82h-23.38v-2.82c6.25-.62 7.14-1.32 7.14-8.65v-34.5c0-7.24-.73-7.94-6.82-8.47V20.9h21.84c6.66 0 10.71.88 13.96 3.18 3.25 2.38 5.44 6.27 5.44 11.74 0 7.68-4.63 12-10.23 14.56 1.3 2.74 4.38 8.65 6.82 12.62 2.92 4.85 4.63 7.5 6.41 9.44 1.87 2.29 3.41 3.35 5.28 3.97l-.48 2.64zM470.49 50.2c3.73 0 6.41-.71 8.28-2.38 2.84-2.56 4.06-6.09 4.06-10.68 0-9.44-5.2-12.97-10.39-12.97-2.11 0-3.33.44-3.9.88-.57.53-.73 1.5-.73 3.53V50.2h2.68z"></path><path d="M542.49 63.87c-.49 3.53-2.11 11.74-2.84 14.38h-40.59v-2.82c7.06-.62 7.79-1.24 7.79-8.65V32.46c0-7.77-.73-8.12-6.66-8.65V20.9h37.42c.08 1.76.49 7.94.81 13.06l-2.76.44c-.73-3.35-1.71-5.91-3-7.59-1.3-1.68-3.49-2.29-8.52-2.29h-4.71c-2.84 0-3.09.18-3.09 3v19.15h6.25c6.98 0 7.79-.53 8.85-6.62h2.76v17.47h-2.76c-1.05-6.35-1.87-6.71-8.85-6.71h-6.25v15.71c0 4.24.41 6.27 1.95 7.24 1.46.88 4.3.97 7.63.97 4.95 0 7.63-.62 9.5-2.91 1.54-1.85 3-4.77 4.38-8.47l2.69.52zM571.96 34.93c-1.62-5.56-4.38-11.91-11.12-11.91-5.11 0-8.28 4.06-8.28 9 0 5.47 3.33 8.38 10.23 12.09 7.71 4.24 14.2 8.82 14.2 18 0 9.79-7.63 17.47-19.16 17.47-3.08 0-5.84-.53-8.04-1.32-2.19-.71-3.65-1.32-4.63-1.85-.73-2.12-1.79-9.53-2.35-14.47l2.76-.88c1.46 5.56 5.85 15.09 13.8 15.09 5.44 0 8.77-3.88 8.77-9.79 0-5.65-3.9-8.91-9.99-12.35-7.22-4.06-13.88-8.74-13.88-17.74 0-9.18 6.74-16.68 17.86-16.68 4.71 0 8.85 1.5 10.96 2.21.32 3.27.81 6.97 1.46 12.53l-2.59.6zM608.08 34.93c-1.62-5.56-4.38-11.91-11.12-11.91-5.11 0-8.28 4.06-8.28 9 0 5.47 3.33 8.38 10.23 12.09 7.71 4.24 14.21 8.82 14.21 18 0 9.79-7.63 17.47-19.16 17.47-3.08 0-5.84-.53-8.04-1.32-2.19-.71-3.65-1.32-4.63-1.85-.73-2.12-1.79-9.53-2.35-14.47l2.76-.88c1.46 5.56 5.85 15.09 13.8 15.09 5.44 0 8.77-3.88 8.77-9.79 0-5.65-3.9-8.91-9.99-12.35-7.22-4.06-13.88-8.74-13.88-17.74 0-9.18 6.74-16.68 17.86-16.68 4.71 0 8.85 1.5 10.96 2.21.32 3.27.81 6.97 1.46 12.53l-2.6.6z"></path></g><g><path class="st0" d="M69.59 3.76c-.22-1-.47-1.63-.79-1.98-.31-.35-.78-.46-1.82-.46h-.83v9.08c0 1.63.18 1.75 1.77 1.88v.67h-5.88v-.67c1.52-.13 1.7-.25 1.7-1.88V1.32h-.61c-1.48 0-1.81.21-2.08.52-.29.33-.52.98-.76 1.94h-.65c.07-1.4.18-2.8.22-3.78h.43c.29.44.52.48 1.03.48h7.26c.49 0 .74-.12 1.05-.48h.43c.02.81.11 2.5.2 3.72l-.67.04zM71.37 12.96v-.67c1.34-.13 1.5-.27 1.5-1.88V3.05c0-1.63-.16-1.77-1.5-1.9V.48h5.42v.67c-1.34.13-1.5.27-1.5 1.9v7.35c0 1.61.16 1.75 1.5 1.88v.67h-5.42zM87.69 12.96v-.67c1.35-.15 1.46-.29 1.44-2.05l-.03-7.4h-.09l-3.99 9.98h-.51l-3.68-9.79h-.07l-.22 5.01c-.07 1.59-.07 2.5 0 3.09.07.86.43 1.04 1.62 1.15v.67h-4.33v-.67c1.01-.1 1.35-.44 1.46-1.11.11-.61.25-1.61.38-3.63l.29-3.78c.14-2.19.02-2.46-1.53-2.61V.48h3.74l3.48 8.41L89.19.48h3.63v.67c-1.44.15-1.52.31-1.48 1.9l.16 7.18c.04 1.77.13 1.9 1.53 2.05v.67h-5.34zM103.71 12.96v-.67c1.35-.15 1.46-.29 1.44-2.05l-.04-7.39h-.09l-3.99 9.98h-.51l-3.68-9.79h-.07l-.22 5.01c-.07 1.59-.07 2.5 0 3.09.07.86.43 1.04 1.62 1.15v.67h-4.33v-.67c1.01-.1 1.35-.44 1.46-1.11.11-.61.25-1.61.38-3.63l.29-3.78c.14-2.19.02-2.46-1.53-2.61V.48h3.74l3.48 8.41L105.2.48h3.63v.67c-1.44.15-1.52.31-1.48 1.9l.16 7.18c.04 1.77.13 1.9 1.53 2.05v.67h-5.33zM110.24 12.96v-.67c1.34-.13 1.5-.27 1.5-1.88V3.05c0-1.63-.16-1.77-1.5-1.9V.48h5.41v.67c-1.34.13-1.5.27-1.5 1.9v7.35c0 1.61.16 1.75 1.5 1.88v.67h-5.41zM129.44 1.15c-.97.06-1.35.31-1.44 1.19-.05.6-.16 1.5-.16 3.19v7.62h-.87l-7.51-9.56h-.05v4.32c0 1.69.09 2.53.14 3.11.09.84.4 1.21 1.73 1.27v.67h-4.42v-.67c1.01-.08 1.43-.38 1.5-1.21.07-.63.18-1.48.18-3.17V3.9c0-1.25-.04-1.61-.38-2.05-.33-.46-.74-.61-1.5-.69V.48H120l6.9 8.43h.07V5.53c0-1.69-.11-2.59-.14-3.15-.09-.83-.47-1.15-1.79-1.23V.48h4.4v.67zM137.09 3.61c-.38-1.21-1.05-2.63-2.53-2.63-1.01 0-1.75.81-1.75 1.9 0 1.06.65 1.67 2.24 2.51 1.9.98 3.19 2.05 3.19 3.95 0 2.19-1.75 3.9-4.39 3.9-.65 0-1.28-.1-1.82-.27-.51-.15-.85-.31-1.1-.42-.16-.48-.4-2.09-.52-3.26l.63-.21c.36 1.23 1.43 3.38 3.16 3.38 1.1 0 1.81-.81 1.81-2.02 0-1.13-.79-1.84-2.15-2.61-1.86-1-3.14-2.04-3.14-3.88 0-2.11 1.57-3.76 4.13-3.76 1.16 0 2.18.38 2.51.52.07.71.2 1.55.34 2.74l-.61.16z" fill="#427C98"></path></g></svg>