<svg xmlns:xlink="http://www.w3.org/1999/xlink" aria-labelledby="tbnLogo" class="header-logo-image logo-tbn" viewBox="0 0 528.49 74.72" xmlns="http://www.w3.org/2000/svg" width="528.49"  height="74.72" ><text id="tbnLogo">Tillsonburg News</text><path d="M525.93 22.71c-.68-6.31-1.2-10.52-1.54-14.22-2.23-.8-6.59-2.5-11.56-2.5-11.73 0-18.84 8.51-18.84 18.93 0 10.22 7.02 15.53 14.64 20.13 6.42 3.91 10.53 7.61 10.53 14.02 0 6.71-3.51 11.12-9.25 11.12-8.39 0-13.02-10.82-14.56-17.13l-2.91 1c.6 5.61 1.71 14.02 2.48 16.43 1.03.6 2.57 1.3 4.88 2.1 2.31.9 5.22 1.5 8.48 1.5 12.16 0 20.21-8.71 20.21-19.83 0-10.42-6.85-15.62-14.99-20.43-7.28-4.21-10.79-7.51-10.79-13.72 0-5.61 3.34-10.22 8.73-10.22 7.11 0 10.02 7.21 11.73 13.52l2.76-.7zM492.78 7.48h-19.61v3.31c6.85.8 7.19 2.3 6 8.31-1.28 6.31-5.22 23.34-8.65 35.96h-.17c-4.88-15.53-9.76-31.15-14.56-46.88h-3.6c-4.11 15.82-8.56 31.45-12.85 46.67h-.17c-3.25-12.22-6.34-24.54-9.33-36.86-1.2-5.21-1.11-6.31 5.31-7.21v-3.3h-23.72v3.31c5.14.8 6.51 2 8.65 9.92 4.71 17.83 9.16 34.96 13.79 52.98h3.85c4.2-15.12 8.65-30.45 13.19-46.48h.17c4.71 15.03 9.68 31.05 14.39 46.48h3.85c7.11-28.05 12.16-45.97 14.13-52.48 2.4-8.31 3.6-9.42 9.34-10.42V7.48zm-84.52 48.18c-1.46 4.21-3 7.51-4.62 9.62-1.97 2.6-4.79 3.31-10.02 3.31-3.51 0-6.51-.1-8.05-1.1-1.63-1.1-2.06-3.4-2.06-8.21V41.44h6.6c7.36 0 8.22.4 9.33 7.61h2.91V29.22h-2.91c-1.11 6.91-1.97 7.51-9.33 7.51h-6.6V14.99c0-3.21.26-3.41 3.26-3.41h4.97c5.31 0 7.62.7 8.99 2.6 1.37 1.9 2.4 4.81 3.17 8.61l2.91-.5c-.34-5.81-.77-12.82-.86-14.82h-39.48v3.31c6.25.6 7.02 1 7.02 9.82v38.96c0 8.41-.77 9.11-8.22 9.82v3.21h42.82c.77-3.01 2.48-12.32 3-16.33l-2.83-.6zM363.1.59h-22.82v3.55c6.82.44 8.81 2.21 9.38 6.98.19 3.21.66 8.42.66 18.39v22.15h-.28L312.62.59h-16.29v3.55c4.26.44 6.25 1.33 8.14 4.1 1.8 2.55 1.89 4.1 1.89 11.63v23.59c0 9.86-.47 14.84-.76 18.5-.47 4.98-2.75 6.65-8.05 7.09v3.54h22.92v-3.54c-6.82-.44-8.62-2.22-9.09-7.42-.28-3.32-.66-8.31-.66-18.17V17.43h.19l39.78 56.27h3.98V29.5c0-9.97.38-15.17.76-18.5.47-4.98 2.56-6.54 7.67-6.87V.59zM283.96 58.54h-12.77v1.69c4.47.45 4.68.85 4.68 4.33v4.73c0 1.49-.34 2.29-.98 2.74-.55.45-1.53.6-2.38.6-6.98 0-10.13-7.81-10.13-15.33 0-8.96 4.43-14.34 9.53-14.34 4 0 7.19 2.39 8.26 7.92l1.58-.35c-.34-3.93-.55-6.52-.68-8.26-1.53-.4-4.85-1.39-8.3-1.39-8.98 0-16.85 5.97-16.85 17.32 0 9.96 6.34 16.53 16.22 16.53 3.45 0 7.15-1.1 9.7-1.84-.21-1.29-.26-2.89-.26-4.68v-3.93c0-3.33.26-3.53 2.38-4.03v-1.71zM238 58.1V45.95c0-1.05.09-1.54.38-1.84.26-.3.85-.5 1.92-.5 2.38 0 5.02 1.94 5.02 7.22 0 2.54-.6 4.53-2.04 5.92-.94.99-2.38 1.34-4.17 1.34H238zm17.37 14.73c-.98-.4-1.66-.99-2.6-2.14-.85-1.05-1.74-2.64-3.28-5.38-1.23-2.29-2.85-5.63-3.45-7.07 2.85-1.39 5.32-3.73 5.32-8.11 0-3.09-1.19-5.33-2.9-6.62-1.7-1.39-3.87-1.89-7.57-1.89h-11.96v1.74c3.11.35 3.49.85 3.49 4.83V67.3c0 4.08-.47 4.58-3.66 4.93v1.74h12.85v-1.74c-3.19-.35-3.62-.85-3.62-4.93v-7.27h.81c1.36.05 2.13.65 2.81 2.19 1.23 2.59 2.38 5.28 3.49 7.32 1.7 3.14 3.36 4.53 8.73 4.83.51 0 1.02.05 1.28.05l.26-1.59zm-27.66-31.21h-10.68v1.74c2.89.2 3.91 1.2 4.13 2.94.21 1.49.43 3.39.43 6.92v5.33c0 8.31-2.21 12.79-7.28 12.79-4.6 0-6.9-4.33-6.9-11.8v-10.8c0-4.68.43-5.03 3.53-5.38v-1.74h-12.81v1.74c3.15.35 3.57.7 3.57 5.38v11.7c0 5.82 1.11 9.51 3.53 11.7 2.04 1.89 4.73 2.59 7.53 2.59 3.02 0 5.92-1.24 7.87-3.63 2.38-2.99 3.06-7.17 3.06-12.45v-5.43c0-3.53.17-5.38.38-6.92.21-1.74 1.28-2.79 3.62-2.94v-1.74zM181.96 57.9h.85c4.85 0 7.32 2.39 7.32 7.02 0 4.88-2.68 6.92-5.06 6.97-2.26.05-3.11-.99-3.11-4.68V57.9zm0-1.99v-9.46c0-1.05.08-1.79.38-2.14.26-.3.98-.6 1.92-.6 2.3 0 4.6 1.69 4.6 6.17 0 4.13-1.83 6.02-5.92 6.02h-.98zm6.3.49c3.06-.7 6.64-2.64 6.64-7.37 0-2.49-.94-4.48-2.51-5.68-1.62-1.24-3.74-1.74-7.02-1.74h-12.43v1.74c3.02.35 3.4.7 3.4 4.93V67.3c0 4.23-.38 4.58-3.66 4.93v1.74h10.81c3.53 0 6.81-.7 8.98-2.14 2.43-1.54 4-4.13 4-7.47 0-4.73-3.28-7.07-8.21-7.77v-.19zm-17.1-14.78h-10.39v1.74c3.11.2 4 1.05 4.21 3.19.09 1.44.34 3.78.34 8.16v8.76h-.17L148.9 41.62h-7.87v1.74c1.79.2 2.77.6 3.53 1.79.81 1.15.89 2.09.89 5.33v10.4c0 4.38-.25 6.57-.42 8.21-.17 2.14-1.15 2.94-3.53 3.14v1.74h10.43v-1.74c-3.15-.15-3.87-1.1-4.09-3.29-.13-1.49-.34-3.68-.34-8.06v-11.2h.13l17.7 24.79h2.04V54.71c0-4.38.26-6.72.38-8.26.21-2.29 1.11-2.94 3.4-3.09v-1.74zm-46.26 1.34c4.89 0 8.34 5.97 8.34 15.88 0 9.16-3.28 13.79-7.32 13.79-5.45 0-8.68-7.22-8.68-15.73 0-8.61 3.36-13.94 7.66-13.94m.76-2.09c-9.75 0-14.94 8.41-14.94 16.98 0 9.56 5.92 16.88 14.43 16.88 8 0 14.6-6.52 14.6-17.27 0-9.87-6.34-16.59-14.09-16.59m-18.76 8.47c-.34-3.09-.64-5.28-.81-7.12-.77-.35-3.19-1.34-5.92-1.34-6.04 0-9.75 4.28-9.75 9.76 0 4.78 3.02 7.47 7.4 10.05 3.19 1.99 5.07 3.83 5.07 6.77 0 3.14-1.66 5.23-4.26 5.23-4.09 0-6.6-5.58-7.45-8.76l-1.49.55c.3 3.04.85 7.22 1.24 8.46.6.3 1.4.7 2.6 1.1 1.28.45 2.77.7 4.3.7 6.21 0 10.34-4.43 10.34-10.11 0-4.93-3.07-7.72-7.53-10.26-3.74-2.19-5.28-3.78-5.28-6.52 0-2.84 1.74-4.93 4.13-4.93 3.49 0 5.06 3.68 5.96 6.82l1.45-.4zM87.11 65.02c-.81 2.49-1.57 4.08-2.38 5.13-1.02 1.34-2.55 1.69-4.34 1.69-1.32 0-2.47-.1-3.19-.45-.89-.45-1.06-1.34-1.06-3.68V48.29c0-4.28.38-4.58 3.66-4.93v-1.74H66.77v1.74c3.23.35 3.66.65 3.66 4.93v19.07c0 4.18-.43 4.53-4.13 4.88v1.74h20.73c.34-1.34 1.23-6.32 1.57-8.41l-1.49-.55zm-22.8 0c-.81 2.49-1.57 4.08-2.38 5.13-1.02 1.34-2.55 1.69-4.34 1.69-1.32 0-2.47-.1-3.19-.45-.89-.45-1.06-1.34-1.06-3.68V48.29c0-4.28.38-4.58 3.66-4.93v-1.74H43.96v1.74c3.24.35 3.66.65 3.66 4.93v19.07c0 4.18-.43 4.53-4.13 4.88v1.74h20.73c.34-1.34 1.24-6.32 1.57-8.41l-1.48-.55zm-22.9 8.96v-1.74c-3.15-.35-3.53-.7-3.53-4.88V48.29c0-4.23.38-4.58 3.53-4.93v-1.74H28.65v1.74c3.15.35 3.53.7 3.53 4.93v19.07c0 4.18-.38 4.53-3.53 4.88v1.74h12.76zM26.6 48.53c-.23-3.39-.45-8.04-.5-10.26h-1.09c-.77 1.01-1.4 1.32-2.62 1.32H4.21c-1.27 0-1.85-.11-2.58-1.32H.54C.45 40.96.18 44.83 0 48.69h1.63c.59-2.65 1.18-4.44 1.9-5.34.68-.85 1.49-1.43 5.2-1.43h1.54v25.02c0 4.5-.45 4.81-4.25 5.18v1.85h14.74v-1.85c-3.98-.37-4.43-.69-4.43-5.18V41.92h2.08c2.62 0 3.8.32 4.57 1.27.82.95 1.45 2.7 1.99 5.45l1.63-.11zM266.2 31c-3.03 0-6.02-2.38-6.02-7.46 0-2.06.68-4.28 1.9-5.82 3.85 3.91 6.15 6.24 9.5 10.21-1.18 1.64-3.35 3.07-5.38 3.07m-.5-28.99c2.31 0 3.48 2.64 3.48 5.4 0 3.23-1.08 5.34-2.26 6.51-3.08-2.8-4.3-4.6-4.3-7.2.01-2.49 1.32-4.71 3.08-4.71m20.04 10.53h-10.72v1.8c3.08.53 3.39 1.27 2.49 3.65-.72 1.69-1.45 3.17-2.22 4.55a288.12 288.12 0 00-7.06-7.41c1.45-1.11 2.71-2.17 3.62-3.12 1.22-1.16 1.95-2.49 1.95-4.34 0-4.39-3.17-7.67-7.69-7.67-4.48 0-8.23 4.13-8.23 8.84 0 3.12 1.22 5.45 3.03 7.51-4.03 3.28-6.33 5.19-6.33 9.63 0 4.55 3.3 9.84 9.45 9.84 3.03 0 5.92-2.01 8.73-6.3 1.67 1.9 2.99 3.7 3.57 4.39.59.69 3.3 1.9 7.78 1.9l.27-.64c-2.13-3.76-4.93-7.83-7.83-11.11 1.4-2.33 2.53-4.34 3.8-6.19 1.63-2.49 2.58-3.17 5.38-3.54v-1.79zm-40.83 22.53v-1.74c-1.7-.3-2.85-1.15-4.6-3.68-3.06-4.53-6.21-9.56-8.94-14.29 1.91-2.34 3.7-4.73 6.21-7.42 2.34-2.54 4.09-3.19 6.73-3.48V2.72h-11.07v1.74l.77.15c2 .3 2.09.99 1.06 2.59-1.4 2.19-3.11 4.68-5.96 8.02-1.28 1.54-2.34 2.34-3.24 2.64V9.39c0-4.23.34-4.58 3.36-4.93V2.72h-12.51v1.74c3.19.35 3.58.7 3.58 4.93V28.4c0 4.23-.43 4.58-3.49 4.93v1.74h12.73v-1.74c-3.28-.35-3.66-.7-3.66-4.93v-8.96c.64-.1 1.19.2 2.09 1.74 3.02 5.13 6.55 10.95 8.38 13.89h8.56zm-30.73-8.96c-.81 2.49-1.58 4.08-2.38 5.13-1.02 1.34-2.55 1.69-4.34 1.69-1.32 0-2.47-.1-3.19-.45-.89-.45-1.06-1.34-1.06-3.68V9.39c0-4.28.38-4.58 3.66-4.93V2.72h-13.02v1.74c3.24.35 3.66.65 3.66 4.93v19.07c0 4.18-.42 4.53-4.13 4.88v1.74h20.73c.34-1.34 1.23-6.32 1.58-8.41l-1.51-.56zM176.9 4.06c4.89 0 8.34 5.97 8.34 15.88 0 9.16-3.28 13.79-7.32 13.79-5.45 0-8.68-7.22-8.68-15.73 0-8.61 3.36-13.94 7.66-13.94m.77-2.09c-9.75 0-14.94 8.41-14.94 16.97 0 9.56 5.92 16.88 14.43 16.88 8 0 14.6-6.52 14.6-17.27 0-9.86-6.35-16.58-14.09-16.58m-17.37 8.32c-.21-2.89-.43-6.72-.47-7.57h-20.17v1.79c3.11.3 3.53.65 3.53 5.13v18.37c0 4.68-.42 4.98-3.53 5.33v1.74h13.28v-1.74c-3.7-.35-4.04-.65-4.04-5.33v-7.87h3.45c3.83 0 4.26.4 4.72 3.78h1.53v-9.91h-1.53c-.51 3.19-.89 3.63-4.72 3.63h-3.45v-11c0-1.64.17-1.74 1.66-1.74h2.13c2.38 0 3.53.35 4.43 1.44.72.95 1.23 2.39 1.7 4.28l1.48-.33zm-38.98 8.91V7.05c0-1.05.09-1.54.38-1.84.26-.3.85-.5 1.92-.5 2.38 0 5.02 1.94 5.02 7.22 0 2.54-.6 4.53-2.04 5.92-.94 1-2.38 1.34-4.17 1.34h-1.11zm17.36 14.73c-.98-.4-1.66-1-2.6-2.14-.85-1.05-1.74-2.64-3.28-5.38-1.23-2.29-2.85-5.62-3.45-7.07 2.85-1.39 5.32-3.73 5.32-8.11 0-3.09-1.19-5.33-2.89-6.62-1.7-1.39-3.87-1.89-7.58-1.89h-11.96v1.74c3.11.35 3.49.85 3.49 4.83V28.4c0 4.08-.47 4.58-3.66 4.93v1.74h12.85v-1.74c-3.19-.35-3.62-.85-3.62-4.93v-7.27h.81c1.36.05 2.13.65 2.81 2.19 1.23 2.59 2.38 5.28 3.49 7.32 1.7 3.14 3.36 4.53 8.73 4.83.51 0 1.02.05 1.28.05l.26-1.59zM95.14 4.06c4.89 0 8.34 5.97 8.34 15.88 0 9.16-3.28 13.79-7.32 13.79-5.45 0-8.68-7.22-8.68-15.73 0-8.61 3.36-13.94 7.66-13.94m.77-2.09c-9.75 0-14.94 8.41-14.94 16.97 0 9.56 5.92 16.88 14.43 16.88 8 0 14.6-6.52 14.6-17.27 0-9.86-6.34-16.58-14.09-16.58M79.15.69H68.12v1.85c3.3.21 4.25 1.11 4.48 3.39.09 1.53.36 4.02.36 8.68v9.31h-.18L55.5.69h-8.37v1.85c1.9.21 2.94.63 3.75 1.9.86 1.22.95 2.22.95 5.66v11.06c0 4.66-.27 6.98-.45 8.73-.18 2.28-1.22 3.12-3.75 3.33v1.85h11.08v-1.85c-3.35-.16-4.12-1.16-4.34-3.49-.14-1.59-.37-3.91-.37-8.57V9.26h.14L72.95 35.6h2.17v-21c0-4.66.27-7.14.41-8.78.23-2.43 1.18-3.12 3.62-3.28V.69z"></path></svg>