<svg xmlns:xlink="http://www.w3.org/1999/xlink" aria-labelledby="cwnLogo" class="header-logo-image logo-cwn" role="img" viewBox="0 0 661.71 136.88" x="0" xmlns="http://www.w3.org/2000/svg" y="0" width="661.71"  height="136.88" > <text id="cwnLogo">The County Weekly News</text><style>.st0{fill:#004b8c}</style><path d="M5.72 2.31H1.01V0h11.5v2.31H7.8V22.2H5.72V2.31zM14.76 0h2v8.55c.86-1.17 2.42-2.52 4.12-2.52 2.1 0 3.21 1.53 3.21 4.41V22.2h-1.98V10.95c0-1.89-.52-2.79-1.85-2.79-1.26 0-2.62 1.17-3.51 2.28V22.2h-2V0zM26.53 14.28c0-5.7 2.42-8.25 5.04-8.25 2.89 0 4.64 2.82 4.64 8.16v.6h-7.7c.07 3.72 1.26 5.7 3.14 5.7 1.53 0 2.35-1.05 3.09-2.76l1.38 1.05c-.91 2.28-2.49 3.75-4.57 3.75-2.84 0-5.02-2.73-5.02-8.25zm7.78-1.32c-.12-2.88-.99-4.86-2.77-4.86-1.46 0-2.79 1.47-3.01 4.86h5.78z"></path><path class="st0" d="M0 74.18c0-30.36 6.73-41.47 21.43-41.47 14.59 0 20.2 6.49 20.2 33.44l-16.72.66c0-15.51-.79-18.15-3.48-18.15-3.48 0-3.37 6.16-3.37 25.52 0 20.02.11 26.07 3.48 26.07 2.92 0 3.59-1.87 3.81-17.49l16.72.66c-.79 17.27-2.92 32.23-20.64 32.23C6.73 115.65 0 104.54 0 74.18zM42.75 85.51c0-20.02 6.73-30.25 19.41-30.25 12.57 0 19.41 10.23 19.41 30.25 0 19.8-6.84 30.14-19.41 30.14s-19.41-10.34-19.41-30.14zm22.21-.11c0-14.08-.56-16.39-2.81-16.39-2.02 0-2.92 1.21-2.92 16.39 0 14.19.79 17.16 2.92 17.16 2.14 0 2.81-1.76 2.81-17.16zM84.15 104.1V56.03h16.49v42.35c0 1.87.45 2.64 1.46 2.64 1.12 0 2.58-.22 3.25-.55V56.03h16.49v58.85h-16.49v-6.16c-2.47 3.3-8.08 6.93-12.45 6.93-5.5 0-8.75-1.76-8.75-11.55zM126 56.03h16.49v6.16c2.47-3.3 8.08-6.93 12.45-6.93 5.5 0 8.75 1.76 8.75 11.55v48.07H147.2V72.97c0-1.87-.45-2.64-1.46-2.64-1.12 0-2.58.77-3.25 1.1v43.45H126V56.03zM169.87 103.99V68.46h-4.49V56.03h4.49V36.12h16.38v19.91h7.52v12.43h-7.52v29.48c0 5.39 1.12 5.72 3.93 5.72 1.57 0 2.8-.22 3.59-.44v11.55c-1.01.33-4.49.66-9.2.66-8.53 0-14.7-1.98-14.7-11.44z" fill="#004B8C"></path><path class="st0" d="M191.86 135.89l2.36-13.53c1.46.22 2.69.33 3.7.33 4.26 0 5.95-.66 6.51-3.63l.34-1.65-11.78-61.38h17.84L212.62 81c.34 3.85.45 8.03.79 13.53h.22c.34-5.5.67-9.79 1.01-13.42l2.58-25.08h16.16l-12.57 62.81c-2.24 11.11-6.84 18.04-18.85 18.04-4.04 0-7.86-.33-10.1-.99z" fill="#004B8C"></path><g><path class="st0" d="M245.77 33.48h17.28l2.24 33.22c.34 5.28.67 10.89.9 17.49 0 0 .45-6.38.11 0l1.57-17.49 3.81-33.22h12l2.92 32.89c.67 6.93 1.01 10.89 1.35 17.82h.11c.34-7.15.56-10.78 1.01-17.71l2.13-33h15.93l-10.1 81.73h-16.27l-4.26-45.1h-.22l-4.26 45.1h-16.27l-9.98-81.73zM304.34 85.51c0-20.02 6.62-30.25 19.3-30.25 16.94 0 18.4 15.95 18.4 29.7v6.27h-21.65c0 7.26.79 11.44 3.37 11.44 2.13 0 2.92-1.65 3.14-7.81l15.26.44c-1.46 12.1-5.95 20.35-18.51 20.35-12.58 0-19.31-10.34-19.31-30.14zm21.99-4.18c-.11-10.34-.45-12.54-2.69-12.54-2.02 0-3.25 2.53-3.25 12.54h5.94z" fill="#004B8C"></path></g><g><path class="st0" d="M342.84 85.51c0-20.02 6.62-30.25 19.3-30.25 16.94 0 18.4 15.95 18.4 29.7v6.27h-21.65c0 7.26.79 11.44 3.37 11.44 2.13 0 2.92-1.65 3.14-7.81l15.26.44c-1.46 12.1-5.95 20.35-18.51 20.35s-19.31-10.34-19.31-30.14zm21.99-4.18c-.11-10.34-.45-12.54-2.69-12.54-2.02 0-3.25 2.53-3.25 12.54h5.94zM382.56 33.48h15.48v46.2c1.12-6.16 2.36-11.44 3.03-14.08l2.47-9.57h14.25l-7.63 21.89 8.98 36.96h-15.71l-3.81-21.67-1.57 6.27v15.4h-15.48v-81.4zM419.81 33.48h16.49v81.4h-16.49v-81.4z" fill="#004B8C"></path><path class="st0" d="M435.18 135.89l2.36-13.53c1.46.22 2.69.33 3.7.33 4.26 0 5.95-.66 6.51-3.63l.34-1.65-11.79-61.38h17.84l1.8 24.97c.34 3.85.45 8.03.79 13.53h.22c.34-5.5.67-9.79 1.01-13.42l2.58-25.08h16.16l-12.57 62.81c-2.24 11.11-6.84 18.04-18.85 18.04-4.04 0-7.86-.33-10.1-.99zM490.94 33.48h16.38l3.48 14.85c1.91 8.03 4.04 17.27 5.5 25.52h.22c-.56-9.02-.79-17.05-.79-24.42V33.48h15.15v81.4h-14.36l-4.15-14.19c-2.58-8.69-5.27-16.61-6.84-25.52h-.22c.67 6.27.79 19.14.79 24.75v14.96h-15.15v-81.4zM533.24 85.51c0-20.02 6.62-30.25 19.3-30.25 16.94 0 18.4 15.95 18.4 29.7v6.27h-21.65c0 7.26.79 11.44 3.37 11.44 2.13 0 2.92-1.65 3.14-7.81l15.26.44c-1.46 12.1-5.95 20.35-18.51 20.35-12.58 0-19.31-10.34-19.31-30.14zm21.99-4.18c-.11-10.34-.45-12.54-2.69-12.54-2.02 0-3.25 2.53-3.25 12.54h5.94zM570.38 56.03h16.38l1.91 23.87c.22 3.19.22 6.05.45 12.21h.22c.45-5.83.79-9.02 1.23-12.21l3.7-23.87h8.86l3.7 23.87c.45 3.19.9 7.26 1.23 12.21h.22c.11-5.17.22-9.02.45-12.21l1.91-23.87h15.26l-7.85 59.18h-15.93l-3.93-27.94h-.22l-3.93 27.94h-15.82l-7.84-59.18zM624.79 96.84l14.36-1.76c.79 6.16 2.58 8.47 4.15 8.47 1.35 0 2.47-.44 2.47-2.53 0-3.63-3.7-5.06-7.97-8.47-5.5-4.4-11.89-10.23-11.89-20.9 0-13.09 10.21-16.83 16.72-16.83 10.88 0 17.39 4.51 18.62 17.93l-14.14 2.2c-.56-6.16-1.46-7.15-3.59-7.15-1.01 0-1.91.77-1.91 2.31 0 3.74 3.37 6.05 7.41 9.13 5.72 4.51 12.68 9.13 12.68 19.58 0 10.23-6.51 17.05-18.06 17.05-14.36 0-17.61-8.14-18.85-19.03z" fill="#004B8C"></path></g></svg>