<svg xmlns:xlink="http://www.w3.org/1999/xlink" aria-labelledby="slbLogo" class="header-logo-image logo-slb" role="img" viewBox="0 38 720 110" xmlns="http://www.w3.org/2000/svg" width="720"  height="110" ><defs><linearGradient gradientTransform="matrix(1 0 0 -1 0 218)" gradientUnits="userSpaceOnUse" id="SVGID_1_" x1="38.263" x2="51.848" y1="157.811" y2="157.811"><stop offset=".456" stop-color="#ffd300"></stop><stop offset="1" stop-color="#fff100"></stop></linearGradient><linearGradient gradientTransform="matrix(1 0 0 -1 0 218)" gradientUnits="userSpaceOnUse" id="SVGID_1_" x1="38.263" x2="51.848" y1="157.811" y2="157.811"><stop offset=".456" stop-color="#ffd300"></stop><stop offset="1" stop-color="#fff100"></stop></linearGradient><linearGradient gradientTransform="matrix(1 0 0 -1 0 218)" gradientUnits="userSpaceOnUse" id="SVGID_2_" x1="35.678" x2="56.049" y1="123.203" y2="121.421"><stop offset=".138" stop-color="#fff"></stop><stop offset="1" stop-color="#4f4f4f"></stop></linearGradient><linearGradient gradientTransform="matrix(1 0 0 -1 0 218)" gradientUnits="userSpaceOnUse" id="SVGID_3_" x1="48.5" x2="49.592" y1="142.45" y2="142.45"><stop offset=".456" stop-color="#ffd300"></stop><stop offset="1" stop-color="#fff100"></stop></linearGradient></defs> <text id="slbLogo">The Shoreline Beacon</text> <style>.st0{fill:#b09268}.st8{fill:#231f20}.st11{fill:#751d37}.st12{fill:#dab467}</style><path class="st0" d="M14.2 144h331.2l94.1.8H601l114.7 1.3s-.1-.8-1.9-2-3.1-1.6-4.4-2.9-2.8-3.1-3.8-4-202.6-2.9-202.6-2.9H103.6l-93 3 3.6 6.7z" fill="#B09268"></path><linearGradient gradientTransform="matrix(1 0 0 -1 0 218)" gradientUnits="userSpaceOnUse" id="SVGID_1_" x1="38.263" x2="51.848" y1="157.811" y2="157.811"><stop offset=".456" stop-color="#ffd300"></stop><stop offset="1" stop-color="#fff100"></stop></linearGradient><path d="M39 56.8c1.3.3 12.1.4 12.1.4s1.4 2.8.3 6c-.3 1-13.2-.3-13.2-.3l.8-6.1z" fill="url(&quot;#SVGID_1_&quot;)"></path><path d="M47.7 60c0 2-.9 3.6-2.1 3.6-1.2 0-2.1-1.6-2.1-3.6s.9-3.6 2.1-3.6 2.1 1.6 2.1 3.6z" fill="#FFF100" stroke="#231F20" stroke-miterlimit="10" stroke-width="0.75px"></path><path d="M11.2 135.4l5.2-3.5 5-2 2.5.9s.8.5 2 .5 3.2-1.4 3.2-1.4l3.2-2.6 4.8.9s1.1.2 2.4 0 3-.9 3-.9 3.1-3.2 4.2-4.5 2.5-3.8 2.5-3.8 1.2-.4 3.8 0 4.1-.2 4.1-.2 2.8-3.5 3.1-3.7 2.1-2.2 2.1-2.2l4.2-1.6s2.1-.1 3.5-.6 3.2-1.6 3.2-1.6H77s2.4 2.1 3.1 3.6 2.6 5.2 2.6 5.2l4.9 1c4.9 1 15.2 4 18.2 4.9 8.8 2.4 22.1.5 28.6.3s53.2.9 63.5 1c10.6 0 28.3 1.1 35.2 0s30.3-1.2 40.3-1 49.2-.4 66.1-.2 70.1.1 70.1.1 2.2 1.2 6 1.5 25.5-2.4 29.2-2.6 28.5 1 35.2 1.2 28.6 1.2 35.6 1.4 41.2-.1 47.8 0 28-.4 34.4-.6 13.6-.9 18.9-.6 12.4.5 18.4.6 22 .6 28 .8 23.5.4 25.8 1.1 3.3 2.9 5.4 3.9 6.7 1.8 8.6 3.6 4.6 5.1 4.6 5.1-102.1 1.6-107.8-.8c-7.2-3-10.2.3-22.5.2-49.9-.2-68.2.6-72.5.4-1.5-.1.8-.6.6-1.7-.2-1-11.6 1.4-19 1.6s-33.8.2-38.6-.1c-3.2-.2-6-1.1-9.5-1-4.4.1-6.5 2.2-11.6 2.2-87 .5-82.5-4.7-87.4-1.6-1.4.9-77 .4-79.5.5-3.5.2-7.2 1.4-11 1.5s-41.4-1.8-45.2-1.5-3.4.7-8.8 1.4c-5.5.6-36.4-1.3-48.1-1.5-14-.2-67.5 1.8-67.5 1.8l-.4-1.8s-6.1.9-9.9.8-8-.9-8-.9-5.8 3-9.4 3.5-6 1.5-7.8.9-2.6-1-2.6-1-3.4.5-6 .5-12.8-.1-15.6-.9-4-1.1-5.5-2.5-2.7-4-2.7-4z" fill="#164266"></path><g fill="none" stroke-miterlimit="10"><path d="M45.6 42.6l.1 7.8" stroke="#A6A8AB" fill="none"></path><path d="M45.6 41.9v1.5" stroke="#EC1C24" fill="none"></path></g><path d="M44.9 47.2l-.5 3.2-4.5 4.8 11.6.7-4.7-5.5v-2.2z" fill="#6D6E70"></path><linearGradient gradientTransform="matrix(1 0 0 -1 0 218)" gradientUnits="userSpaceOnUse" id="SVGID_2_" x1="35.678" x2="56.049" y1="123.203" y2="121.421"><stop offset=".138" stop-color="#fff"></stop><stop offset="1" stop-color="#4f4f4f"></stop></linearGradient><path d="M40 67.2l3-2.6 8.1 1.3L54 120l-4.1 5.4H33z" fill="url(&quot;#SVGID_2_&quot;)"></path><path class="st8" d="M51.5 78.9c-.2-1.4-.4-2.6-.5-3.5.5 0 1 .1 1.7.1 1.2 0 .9-.8 0-.8-.5.1-1.2 0-1.8 0-.1-.6-.2-1.2-.3-1.7.8 0 2.2.2 2.2-.3 0-.2-.9-.3-2.2-.2-.1-.7-.2-.9-.3-1.5-.2-1.5-.1-4.8-.1-4.8l1.9-.1.6-.6h-2.3l.3-.7.9-.6s-15.6-.3-11.9-.5c3.2-.2 2.9-.1 11.9 0l-.8-.9-11.6.1.5-7.2 9.8.5 1.2 5.7v-7.1s-1.2-.1-1.9-.8-3.1-3.5-3.1-3.5-.7 1.4 0 2.6c.7 1.2.8 1.6.8 1.6h-7.1l-.8-.9v.9H37v.5s1.2.4 1.3 1.5-.6 9.3-.9 15.2c-.5-.2-.9-.3-.9-.3-.5 0 .3.7.8.9-.2 5.9-4 46.6-4 46.6l.8-1.1 3-33.5s6.1.8 7.8 1.1 3.1.5 4.1 2 4.9 29 4.9 29l1.6-1.1s-3.4-32-4-36.6zM38.9 64.4s5.1.1 6.3.7c.4.2-6.4.1-6.4.1l.1-.8zm-.1 1.8l7.9.7.6 6-9-.7h-.1l.6-6zm8.6 18c-1.8 0-5.2 0-6.9-.2s-3.4-.1-3.4-.1l1-10.8s6 .7 7.7 1.4c1.7.8 1.8 1 2 1.9.1.9.7 6.5.7 6.8 0 .8-.5 1.1-1.1 1z" fill="#231F20"></path><path class="st0" d="M49.4 116.6l-2.1 5.6-5.9 3.2 5.4-1.6-2.5 2.4 5.1-2.1 1.7-6.7-2.6 4.8zm-16.9 10.6l.5 2.8-4.9 1.1zm44.6-20.7l-8.2 6.3-7.1-1.6 7.1-.2z" fill="#B09268"></path><path class="st8" d="M9.2 134.9c1-1.3 8.1-7.8 8.6-2.9.2 1.8-.5 3.8-.8 5.6-.2 1.5 1.1 3.4 0 4.5.5-.4 1-.9 1.5-1.3-2.9.8-5.5-2.7-7.2-4.6l-1.5 1.3c2 2.1 5.2 6.4 8.2 3.7 1-.9 1.1-1.5.7-2.8-.6-1.7.1-3.7.4-5.3.2-1.4.7-3.4-.8-4.1-1.5-.7-3.7 1-4.8 1.8-2.1 1.5-4 3.4-5.7 5.4.4-.5 1-.8 1.4-1.3zm16.7-2.9c1.3-.8 2.4-1.7 3.8-2.4.4-.2 1.9 3.4 2 3.8.6 1.8 1.3 5.3-.1 6.9.5-.4 1-.9 1.5-1.3-1.3 1-3.2-.3-4.4-1-.2-.1-1.3 1.4-1.5 1.3 1.2.7 3 2 4.4 1 .6-.4 1.2-1 1.7-1.6 1.4-1.5.4-5.1 0-6.7-.4-1.4-1.2-2.6-2-3.8-.1-.2-3.4 2.2-3.8 2.4-.7.5-1.1 1.1-1.6 1.4zm13.6-3.1c1-.9 1.6-1.5 2.5-2.2.3-.2 1-.8 1.2-.5s.4.7.6 1.1c.5 1.3 1.5 3.9.4 5 .5-.4 1-.9 1.5-1.3-1.3.8-3-.6-3.7-1.7l-1.5 1.3c.7 1 2.6 2.7 3.9 1.6 1.3-1.1 2.1-1.8 1.8-3.6-.1-.9-.4-1.8-.8-2.7-.2-.4-.3-.7-.6-1.1-.2-.3-1.3.6-1.5.8-1.7 1.2-3.2 2.8-4.7 4.2-.2.2-.2.2 0 0 .2-.3.6-.6.9-.9zm-8.6-2.1c2.5.2 5.6.7 8-.3 2.9-1.2 5.3-4.2 7.3-6.4.4-.5.7-1.1 1.1-1.6-2 2.3-4.1 4.4-6.6 6.1-2.4 1.5-6 .9-8.7.7-.3-.2-.8 1.5-1.1 1.5z" fill="#231F20"></path><path class="st8" d="M19.1 129.7c2.5.1 5.3 2 7.5.1 1.4-1.3 2.3-2.6 3.3-4.2-.4.5-1.1.8-1.5 1.3-.6 1-1.1 2.1-2 2.9.5-.4.9-.8 1.4-1.3-2 1.8-5-.2-7.3-.3-.4.1-.9 1.5-1.4 1.5zm28.7-7.4c2.9 1.4 5.9 0 7.9-2.2 1.9-2.2.2-4.5-2.1-5.5-1.6-.7-2.9-.1-4.1 1-1.1 1-1.2 1.8.4 2.5 1.5.6 5-.5 6.2-1.4 2.9-2.3 4.3-5.3 6.4-8.3-.4.5-1.1.8-1.5 1.3-1.4 2-2.4 5.5-4.9 6.3-.8.3-7.4 1.8-5.9-1-.5.4-1 .9-1.5 1.3 3-2.2 8.2 2.1 5.4 5.2.5-.4 1-.9 1.5-1.3-1.8 1.5-4.3 1.9-6.4.9-.2-.3-1.2 1.3-1.4 1.2zm11.3-6.3c3.1 1.1 6.3 1.8 9.5 2.5 2.3.5 8.3 2.4 10.4.7 1.1-.9 2.8-2 .9-3-2.1-1.2-4.7-1.7-7.1-2.4-3.3-1-6.4-2.6-9.5-3.9-.3-.1-1.2 1.4-1.5 1.3 3.9 1.6 7.8 3.4 11.9 4.6.7.2 7 1.7 5.4 3.3.5-.4.9-.8 1.4-1.2-2.7 1.5-7.6-.1-10.4-.7-3.2-.7-6.4-1.5-9.5-2.5-.3-.1-1.2 1.4-1.5 1.3z" fill="#231F20"></path><path class="st8" d="M62.5 110.3c5.2 2.3 9.9-1.4 12.7-5.6-.4.5-1.1.8-1.5 1.3-2.3 3.4-5.9 4.6-9.8 2.9-.2-.1-1.2 1.5-1.4 1.4zm11.3-2.1c1.8 1.5 3.5 3.1 5.4 4.3 1.7 1.1 3.3 1 5.1 1.2.8.1.7 1.4.6 2s-.8 1-1.2 1.3c-.6.5-1.2 1.1-1.8 1.7.3-.3 1-.9 1.4-1.3-.7.7.8-.5.8-.5.3-.2.6-.5.8-.8 1-1 1.8-1.8 1.3-3.3-.2-.6-1.2-.4-1.6-.4-1.2 0-2.3-.4-3.4-.9-2.3-1.1-4.1-3-6-4.6 0-.1-1.4 1.3-1.4 1.3z" fill="#231F20"></path><path d="M52.7 56.8l1.3 1.6 20.5-11.2zm1.5 2.3l26-3.9-25.8 5.9zm0 2.8l-.8 1.9 25.1.8z" fill="#FFF100" stroke="#231F20" stroke-miterlimit="10" stroke-width="0.25px"></path><path d="M43.5 78.1l1.9-.3.8 4h-2.7zM39 94.2l3.2-.4v5.3l-3.2-.9z" fill="#FFD300" stroke="#231F20" stroke-miterlimit="10" stroke-width="0.75px"></path><path class="st8" d="M553.1 78.2s4.2-4.1 9-4.9c6-1 9.4 2.4 9.4 2.4s-.2-2.4 4-4.3c4.9-2.2 12.8 0 12.8 0s-6.3.4-9.8 1.2c-5.9 1.5-6.6 7.1-6.6 7.1s-4-4.6-8.4-4.6-10.4 3.1-10.4 3.1z" fill="#231F20"></path><path class="st11" d="M71.1 113c3.7 0 2.4 12.4 16.5 12.4 4.8 0 9.4-3.3 9.4-9.7 0-13.9-28.2-9-28.2-30.4C68.7 75 77.9 68 86.8 68c3.3 0 5.8.9 7.7 1.8 1.9 1 3.1 1.9 4.1 1.9s1.4-.9 1.6-1.8h3.7v14.9h-2.5c-5.5 0-2.1-12.2-13.3-12.2-4.2 0-8 2.9-8 7.8 0 12.8 28.2 7.1 28.2 29.1 0 12.1-10.5 20.5-21.1 20.5-7 0-10.8-3.3-12.7-3.3-1 0-1.5.8-1.6 1.8H68V113h3.1z" fill="#751D37"></path><path class="st12" d="M87.2 131.3c-4.9 0-8.3-1.5-10.5-2.5-.9-.4-1.8-.8-2.2-.8-.1 0-.3 0-.3.6-.1.7-.6 1.2-1.2 1.2h-5c-.7 0-1.2-.6-1.2-1.2V113c0-.7.6-1.2 1.2-1.2h3c2 0 3 2 3.9 4 1.7 3.6 4 8.4 12.5 8.4 4 0 8.1-2.6 8.1-8.4 0-5.4-5.1-7.7-11.1-10.3-7.4-3.4-16.9-7.5-16.9-20.2 0-8.9 7.4-18.6 19.4-18.6 3.8 0 6.5 1.1 8.2 2 .6.3 1 .6 1.5.8.8.5 1.7 1 2 1 .1 0 .3-.2.4-.8.2-.5.6-.9 1.2-.9h3.7c.7 0 1.2.6 1.2 1.2v14.9c0 .7-.6 1.2-1.2 1.2h-2.5c-3.2 0-4.2-2.8-5.1-5.3-1.3-3.3-2.5-6.8-8.2-6.8-3.4 0-6.8 2.3-6.8 6.6 0 4.4 4 6.2 10.5 8.8 7.9 3.1 17.7 7 17.7 20.3 0 10.4-8.5 21.6-22.3 21.6zm-12.8-5.7c.9 0 1.9.4 3.2 1 2.2 1 5.2 2.3 9.5 2.3 12.3 0 19.8-10 19.8-19.2 0-11.6-8.2-14.8-16.1-17.9-6.2-2.4-12.1-4.8-12.1-11.1 0-5.2 4-9.1 9.3-9.1 7.4 0 9.2 4.9 10.5 8.5 1 2.6 1.5 3.7 2.8 3.7h1.2V71.3h-1.6c-.7 1.5-1.8 1.8-2.5 1.8-1 0-2-.6-3.3-1.3-.4-.2-.9-.5-1.4-.8-1.5-.7-3.8-1.7-7.1-1.7-10.2 0-16.6 8.3-16.6 16 0 11 7.9 14.5 15.6 17.9 6.5 2.8 12.6 5.5 12.6 12.6 0 7.5-5.5 10.9-10.6 10.9-10.1 0-13-6.2-14.8-9.8-.6-1.2-1.2-2.6-1.7-2.6h-1.8v13.1h2.6c.4-1.2 1.3-1.8 2.5-1.8z" fill="#DAB467"></path><path class="st11" d="M109 128.6v-1.3c0-5.6 4.4-.8 4.4-7.5V78.3c0-6.6-4.4-1.8-4.4-7.5v-1.3l16.7-.6v22c3.3-2.8 7-4.3 11.2-4.3 8.1 0 12.6 4.5 12.6 12.6v20.6c0 6.6 4.4 1.8 4.4 7.5v1.3H133v-1.3c0-5.6 4.1-.8 4.1-7.5v-18.6c0-4.2-.5-8.7-5.4-8.7-2.1 0-4.8 1.5-6.1 3.4v23.9c0 6.6 4.1 1.8 4.1 7.5v1.3H109z" fill="#751D37"></path><path class="st12" d="M153.9 129.8H133c-.7 0-1.2-.6-1.2-1.2v-1.3c0-3.3 1.4-4.1 2.8-4.5.8-.3 1.3-.4 1.3-3v-18.6c0-5.5-1.1-7.5-4.1-7.5-1.6 0-3.7 1.1-4.8 2.6v23.4c0 2.5.5 2.7 1.3 3 1.4.5 2.8 1.2 2.8 4.5v1.3c0 .7-.6 1.2-1.2 1.2H109c-.7 0-1.2-.6-1.2-1.2v-1.3c0-3.3 1.5-4.1 2.9-4.5.9-.3 1.4-.4 1.4-3V78.3c0-2.5-.5-2.7-1.4-3-1.5-.4-2.9-1.2-2.9-4.5v-1.3c0-.7.5-1.2 1.2-1.2l16.7-.6c.3 0 .7.1.9.3.2.2.4.6.4.9v19.5c3.1-2 6.4-3 10-3 8.8 0 13.8 5 13.8 13.9v20.6c0 2.5.5 2.7 1.4 3 1.5.5 2.9 1.2 2.9 4.5v1.3c0 .6-.5 1.1-1.2 1.1zm-19.6-2.5h18.4c0-1.8-.3-1.9-1.2-2.1-1.6-.5-3.2-1.3-3.2-5.4V99.3c0-7.4-3.9-11.4-11.3-11.4-3.9 0-7.3 1.3-10.4 4-.4.3-.9.4-1.3.2s-.7-.6-.7-1.1V70.2l-14.2.5v.1c0 1.8.3 1.9 1.2 2.1 1.6.5 3.2 1.3 3.2 5.4v41.6c0 4-1.6 4.9-3.2 5.4-.8.3-1.2.4-1.2 2.1h18.4c0-1.8-.3-1.9-1.1-2.1-1.6-.5-3.1-1.3-3.1-5.3V96c0-.3.1-.5.2-.7 1.6-2.3 4.6-4 7.1-4 6.6 0 6.6 7 6.6 10v18.6c0 4-1.5 4.9-3.1 5.3-.8.2-1.1.3-1.1 2.1z" fill="#DAB467"></path><path class="st11" d="M197.6 108.4c0 12.7-9.4 21.3-20.9 21.3-11.6 0-20.5-9.2-20.5-21.8 0-12.9 9.1-21.3 20.9-21.3 12 .1 20.5 8.8 20.5 21.8zm-28.1.1c0 5.4.7 17.2 7.7 17.2 6.8 0 7.2-11.2 7.2-16.5 0-5.4-.5-18.6-7.6-18.6-6.8.1-7.3 12.8-7.3 17.9z" fill="#751D37"></path><path class="st12" d="M176.8 131c-12.4 0-21.8-9.9-21.8-23s9.3-22.6 22.1-22.6 21.8 9.5 21.8 23c0 12.9-9.5 22.6-22.1 22.6zm.3-43.1c-11.5 0-19.6 8.3-19.6 20.1 0 11.7 8.3 20.5 19.3 20.5 11.2 0 19.6-8.6 19.6-20.1 0-12.2-7.8-20.5-19.3-20.5zm.1 39.1c-5.7 0-8.9-6.6-8.9-18.5 0-15.8 4.6-19.1 8.5-19.1 4 0 8.8 3.4 8.8 19.8 0 4.4 0 17.8-8.4 17.8zm-.4-35c-5.4 0-6 11.6-6 16.6 0 4.8.6 16 6.4 16 3.9 0 5.9-5.1 5.9-15.2 0-6.6-.8-17.4-6.3-17.4z" fill="#DAB467"></path><path class="st11" d="M215.4 87.3v12.4h.2c2.3-5.2 5.6-13 12-13 3.6 0 6.4 2.8 6.4 6.6 0 3.3-2.2 6.6-5.4 6.6-1.8 0-2.7-.8-3.5-1.7-.8-.8-1.3-1.6-2.3-1.6-3.9 0-6.3 13.5-6.3 15v8.3c0 6.6 5 1.8 5 7.5v1.3h-21.8v-1.3c0-5.6 4.5-.8 4.5-7.5V96.6c0-6.6-4.6-1.8-4.6-7.5v-1.3l15.8-.5z" fill="#751D37"></path><path class="st12" d="M221.4 129.8h-21.8c-.7 0-1.2-.6-1.2-1.2v-1.3c0-3.4 1.5-4.1 3-4.5.9-.3 1.5-.4 1.5-3V96.6c0-2.5-.5-2.7-1.5-3-1.6-.4-3.1-1.2-3.1-4.5v-1.3c0-.7.5-1.2 1.2-1.2l15.9-.6c.3 0 .7.1.9.3.2.2.4.6.4.9v7.1c2.3-4.5 5.7-8.9 10.9-8.9 4.4 0 7.7 3.4 7.7 7.9 0 3.8-2.5 7.8-6.6 7.8-2.2 0-3.4-1-4.4-2.1l-.4-.4c-.5-.5-.7-.8-1-.8-.6 0-2 1.3-3.4 6.1-1.1 3.5-1.6 7.1-1.6 7.6v8.3c0 2.5.6 2.7 1.7 2.9 1.7.4 3.3 1.1 3.3 4.5v1.3c-.2.8-.8 1.3-1.5 1.3zm-20.5-2.5h19.3c0-1.7-.4-1.8-1.4-2.1-1.8-.5-3.6-1.3-3.6-5.4v-8.3c0-.2 2-16.2 7.6-16.2 1.4 0 2.2.8 2.8 1.5l.4.4c.7.8 1.3 1.3 2.6 1.3 2.5 0 4.1-2.7 4.1-5.3 0-3.1-2.2-5.4-5.2-5.4-5.5 0-8.7 7.3-10.8 12.2v.1c-.2.5-.6.8-1.1.8h-.2c-.7 0-1.2-.6-1.2-1.2V88.6l-13.4.5v.1c0 1.8.3 1.8 1.3 2.1 1.7.5 3.4 1.3 3.4 5.4V120c0 4-1.6 4.9-3.3 5.4-1 .1-1.3.2-1.3 1.9z" fill="#DAB467"></path><path class="st11" d="M247.8 107.3v1c0 7.6 2.7 16.4 11.3 16.4 4.8 0 7.8-2.8 10.9-6.5l3 2.9c-3.9 5.9-10 8.7-16.6 8.7-12.2 0-21.4-9.5-21.4-22.7 0-11.7 8-20.4 18.9-20.4 12 0 18.7 8.1 18.8 20.7h-24.9v-.1zm12.7-4.3c.1-4.5-.9-12.3-6.2-12.3-5.5 0-6.4 7.6-6.5 12.3h12.7z" fill="#751D37"></path><path class="st12" d="M256.3 131c-12.9 0-22.7-10.3-22.7-23.9 0-12.3 8.7-21.7 20.2-21.7 12.1 0 19.8 8.3 20.1 21.7v.2c0 .7-.6 1.2-1.2 1.2H249c0 3.8.9 14.9 10 14.9 4.1 0 6.8-2.2 9.9-6 .2-.3.5-.4.9-.5.3 0 .7.1.9.3l3 2.9c.4.4.5 1.1.2 1.6-3.9 6-10.2 9.3-17.6 9.3zm-2.5-43.1c-10.1 0-17.7 8.2-17.7 19.2 0 12.4 8.5 21.4 20.2 21.4 6.2 0 11.5-2.6 15-7.2l-1.3-1.2c-2.7 3.1-5.9 5.9-11 5.9-9.2 0-12.5-9.1-12.5-17.6v-1c0-.7.6-1.2 1.2-1.2h23.6c-.6-11.5-7-18.3-17.5-18.3zm6.7 16.3h-12.7c-.3 0-.7-.1-.9-.4-.2-.2-.4-.6-.4-.9.1-8.7 2.9-13.5 7.7-13.5 1.7 0 3.1.6 4.2 1.8 3 3.1 3.2 9.2 3.2 11.8.1.7-.4 1.2-1.1 1.2zm-11.4-2.5h10.1c-.1-2.4-.5-6.7-2.5-8.7-.7-.7-1.5-1-2.4-1-3.9 0-4.9 5.6-5.2 9.7z" fill="#DAB467"></path><path class="st11" d="M275.2 128.6v-1.3c0-5.6 4.5-.8 4.5-7.5V78.3c0-6.6-4.5-1.8-4.5-7.5v-1.3l16.8-.6v50.9c0 6.6 4.5 1.8 4.5 7.5v1.3h-21.3z" fill="#751D37"></path><path class="st12" d="M296.4 129.8h-21.2c-.7 0-1.2-.6-1.2-1.2v-1.3c0-3.4 1.5-4.1 3-4.5.9-.3 1.5-.4 1.5-3V78.3c0-2.5-.6-2.7-1.5-3-1.5-.4-3-1.2-3-4.5v-1.3c0-.7.5-1.2 1.2-1.2l16.8-.6c.3 0 .7.1.9.3.2.2.4.6.4.9v50.9c0 2.5.6 2.7 1.5 3 1.5.4 3 1.2 3 4.5v1.3c-.1.7-.7 1.2-1.4 1.2zm-20-2.5h18.8c0-1.8-.3-1.9-1.2-2.1-1.6-.5-3.3-1.3-3.3-5.4V70.2l-14.3.5v.1c0 1.8.3 1.9 1.2 2.1 1.6.5 3.3 1.3 3.3 5.4v41.6c0 4-1.6 4.9-3.3 5.4-.8.2-1.2.3-1.2 2z" fill="#DAB467"></path><path class="st11" d="M315.5 119.9c0 6.6 4.4 1.8 4.4 7.5v1.3h-21.2v-1.3c0-5.6 4.5-.8 4.5-7.5V96.6c0-6.6-4.5-1.8-4.5-7.5v-1.3l16.8-.6v32.7zm0-44.2c0 4.4-3 7.8-7.2 7.8-3.8 0-6.9-3.4-6.9-7.4 0-4.2 3-7.7 7.1-7.7 3.8 0 7 3.3 7 7.3z" fill="#751D37"></path><path class="st12" d="M319.9 129.8h-21.2c-.7 0-1.2-.6-1.2-1.2v-1.3c0-3.4 1.5-4.1 3-4.5.9-.3 1.5-.4 1.5-3V96.6c0-2.5-.6-2.7-1.5-3-1.5-.4-3-1.2-3-4.5v-1.3c0-.7.5-1.2 1.2-1.2l16.8-.6c.3 0 .7.1.9.3.2.2.4.6.4.9v32.6c0 2.5.5 2.7 1.4 3 1.5.5 2.9 1.2 2.9 4.5v1.3c0 .7-.5 1.2-1.2 1.2zm-19.9-2.5h18.7c0-1.8-.3-1.9-1.2-2.1-1.6-.5-3.2-1.3-3.2-5.4V88.6l-14.3.5v.1c0 1.8.3 1.9 1.2 2.1 1.6.5 3.3 1.3 3.3 5.4V120c0 4-1.6 4.9-3.3 5.4-.9.1-1.2.2-1.2 1.9zm8.3-42.6c-4.4 0-8.1-4-8.1-8.6 0-5 3.7-9 8.4-9 4.4 0 8.2 3.9 8.2 8.6-.1 5.1-3.7 9-8.5 9zm.2-15.1c-3.3 0-5.9 2.8-5.9 6.5 0 3.3 2.6 6.1 5.6 6.1 3.4 0 5.9-2.8 5.9-6.6.1-3.2-2.5-6-5.6-6z" fill="#DAB467"></path><path class="st11" d="M338.1 87.3v4.1c3.7-3.4 6.6-4.7 11.4-4.7 9.4 0 12.9 5.4 12.9 13.4v19.7c0 6.6 4.4 1.8 4.4 7.5v1.3h-20.9v-1.3c0-5.6 4.1-.8 4.1-7.5V99.4c0-3.4-.7-6.9-5.2-6.9-2 0-5 1.1-6.2 3v24.3c0 6.5 4.7 1.7 4.7 7.5v1.3H322v-1.3c0-5.6 4.4-.8 4.4-7.5V96.6c0-6.6-4.4-1.8-4.4-7.5v-1.3l16.1-.5z" fill="#751D37"></path><path class="st12" d="M366.7 129.8h-20.9c-.7 0-1.2-.6-1.2-1.2 0 .7-.6 1.2-1.2 1.2H322c-.7 0-1.2-.6-1.2-1.2v-1.3c0-3.3 1.5-4.1 2.9-4.5.9-.3 1.4-.4 1.4-3V96.6c0-2.5-.5-2.7-1.4-3-1.5-.4-2.9-1.2-2.9-4.5v-1.3c0-.7.5-1.2 1.2-1.2l16-.6c.3 0 .7.1.9.3.2.2.4.6.4.9v1.4c3.2-2.4 6.1-3.3 10.2-3.3 9.3 0 14.1 5.1 14.1 14.7v19.7c0 2.5.5 2.7 1.4 3 1.5.5 2.9 1.2 2.9 4.5v1.3c.1.8-.5 1.3-1.2 1.3zm-19.6-2.5h18.4c0-1.8-.3-1.9-1.2-2.1-1.6-.5-3.2-1.3-3.2-5.4v-19.7c0-8.2-3.8-12.2-11.6-12.2-4.3 0-7 1.1-10.6 4.4-.4.3-.9.4-1.3.2-.5-.2-.7-.6-.7-1.1v-2.8l-13.6.5v.1c0 1.8.3 1.9 1.2 2.1 1.6.5 3.2 1.3 3.2 5.4V120c0 4-1.6 4.9-3.2 5.4-.8.3-1.2.4-1.2 2.1h18.9c0-1.9-.4-2-1.3-2.3-1.7-.5-3.3-1.3-3.3-5.2V95.6c0-.2.1-.5.2-.6 1.5-2.5 5.1-3.6 7.2-3.6 4.3 0 6.4 2.7 6.4 8.1v20.4c0 4-1.5 4.9-3.1 5.3-.8.2-1.2.3-1.2 2.1zM340 96v23.9c0 2.4.5 2.5 1.5 2.8 1.6.5 3.2 1.2 3.2 4.7 0-3.3 1.4-4.1 2.8-4.5.8-.3 1.3-.4 1.3-3V99.4c0-4.7-1.6-5.6-3.9-5.6-1.6 0-4 .9-4.9 2.2z" fill="#DAB467"></path><path class="st11" d="M382.1 107.3v1c0 7.6 2.7 16.4 11.2 16.4 4.8 0 7.8-2.8 10.9-6.5l3 2.9c-3.9 5.9-10 8.7-16.6 8.7-12.2 0-21.4-9.5-21.4-22.7 0-11.7 8-20.4 18.9-20.4 12 0 18.7 8.1 18.8 20.7h-24.8v-.1zm12.8-4.3c.1-4.5-.9-12.3-6.2-12.3-5.5 0-6.4 7.6-6.5 12.3h12.7z" fill="#751D37"></path><path class="st12" d="M390.7 131c-12.9 0-22.7-10.3-22.7-23.9 0-12.3 8.7-21.7 20.2-21.7 12.1 0 19.8 8.3 20.1 21.7v.2c0 .7-.6 1.2-1.2 1.2h-23.6c0 3.8.9 14.9 10 14.9 4.1 0 6.8-2.2 9.9-6 .2-.3.5-.4.9-.5.3 0 .7.1.9.3l3 2.9c.4.4.5 1.1.2 1.6-4 6-10.3 9.3-17.7 9.3zm-2.5-43.1c-10.1 0-17.7 8.2-17.7 19.2 0 12.4 8.5 21.4 20.2 21.4 6.2 0 11.5-2.6 15-7.2l-1.3-1.2c-2.7 3.1-5.9 5.9-11 5.9-9.2 0-12.5-9.1-12.5-17.6v-1c0-.7.6-1.2 1.2-1.2h23.6c-.6-11.5-7.1-18.3-17.5-18.3zm6.7 16.3h-12.7c-.3 0-.7-.1-.9-.4-.2-.2-.4-.6-.4-.9.1-8.7 2.9-13.5 7.7-13.5 1.7 0 3.1.6 4.2 1.8 3 3.1 3.2 9.2 3.2 11.8.1.7-.4 1.2-1.1 1.2zm-11.4-2.5h10.1c-.1-2.4-.5-6.7-2.5-8.7-.7-.7-1.5-1-2.4-1-4 0-5 5.6-5.2 9.7z" fill="#DAB467"></path><path class="st11" d="M430.4 128.6v-1.5c0-5.2 4.4-.8 4.4-7.2V78.3c0-6.4-4.4-2-4.4-7.2v-1.5h27c8.4 0 17.6 3 17.6 13.8 0 8.6-7.1 13.1-14.3 13.9v.2c7.6.2 17.3 3.7 17.3 14.9 0 14.4-13 16.4-21.1 16.4h-26.5v-.2zm17.3-33.2h2.4c5.5 0 11.2-2.1 11.2-10.8s-5.7-10.3-8.5-10.3h-5.2v21.1h.1zm0 28.5h3.3c6.5 0 13.4-.8 13.4-11.8 0-10.5-8-12-12.5-12h-4.1l-.1 23.8z" fill="#751D37"></path><path class="st12" d="M456.9 129.8h-26.5c-.7 0-1.2-.6-1.2-1.2v-1.5c0-3.1 1.4-3.8 2.9-4.3.9-.3 1.5-.5 1.5-2.9V78.3c0-2.4-.6-2.6-1.5-2.9-1.5-.5-2.9-1.2-2.9-4.3v-1.5c0-.7.6-1.2 1.2-1.2h27c12 0 18.8 5.5 18.8 15 0 6.8-4.2 11.3-9.4 13.6 9 2.3 12.4 9 12.4 15.3 0 11.3-7.9 17.5-22.3 17.5zm-25.2-2.5h25.2c13.2 0 19.8-5.1 19.8-15.1 0-12.6-13.4-13.6-16-13.6-.7 0-1.2-.6-1.2-1.2v-.2c0-.6.5-1.2 1.1-1.2 6.1-.6 13.2-4.3 13.2-12.6 0-10.9-10.2-12.5-16.3-12.5h-25.8v.1c0 1.6.3 1.6 1.2 1.9 1.6.5 3.2 1.4 3.2 5.3v41.6c0 4-1.6 4.8-3.2 5.3-.9.3-1.1.3-1.1 1.9v.3h-.1zm19.3-2.2h-3.3c-.7 0-1.2-.6-1.2-1.2v-23.8c0-.7.6-1.2 1.2-1.2h4.1c4.1 0 13.8 1.3 13.8 13.3 0 12.9-9.5 12.9-14.6 12.9zm-2.1-2.5h2c6.4 0 12.1-.8 12.1-10.5 0-8.9-6.1-10.8-11.2-10.8h-2.9v21.3zm1.2-25.9h-2.4c-.7 0-1.2-.6-1.2-1.2V74.2c0-.7.6-1.2 1.2-1.2h5.2c4.5 0 9.8 3 9.8 11.6-.1 7.8-4.5 12.1-12.6 12.1zm-1.2-2.5h1.2c6.7 0 10-3.1 10-9.6 0-8.4-5.6-9.1-7.3-9.1h-3.9v18.7z" fill="#DAB467"></path><path class="st11" d="M493.1 107.3v1c0 7.6 2.7 16.4 11.2 16.4 4.8 0 7.8-2.8 10.9-6.5l3 2.9c-3.9 5.9-10 8.7-16.6 8.7-12.2 0-21.4-9.5-21.4-22.7 0-11.7 8-20.4 18.9-20.4 12 0 18.7 8.1 18.8 20.7h-24.8v-.1zm12.7-4.3c.1-4.5-.9-12.3-6.2-12.3-5.5 0-6.4 7.6-6.5 12.3h12.7z" fill="#751D37"></path><path class="st12" d="M501.6 131c-12.9 0-22.7-10.3-22.7-23.9 0-12.3 8.7-21.7 20.2-21.7 12.1 0 19.8 8.3 20.1 21.7v.2c0 .7-.6 1.2-1.2 1.2h-23.6c0 3.8.9 14.9 10 14.9 4.1 0 6.8-2.2 9.9-6 .2-.3.5-.4.9-.5.3 0 .7.1.9.3l3 2.9c.4.4.5 1.1.2 1.6-4 6-10.3 9.3-17.7 9.3zm-2.5-43.1c-10.1 0-17.7 8.2-17.7 19.2 0 12.4 8.5 21.4 20.2 21.4 6.2 0 11.5-2.6 15-7.2l-1.3-1.2c-2.7 3.1-5.9 5.9-11 5.9-9.2 0-12.5-9.1-12.5-17.6v-1c0-.7.6-1.2 1.2-1.2h23.6c-.6-11.5-7-18.3-17.5-18.3zm6.7 16.3h-12.7c-.3 0-.7-.1-.9-.4-.2-.2-.4-.6-.4-.9.1-8.7 2.9-13.5 7.7-13.5 1.7 0 3.1.6 4.2 1.8 3 3.1 3.2 9.2 3.2 11.8.1.7-.4 1.2-1.1 1.2zm-11.4-2.5h10.1c-.1-2.4-.5-6.7-2.5-8.7-.7-.7-1.5-1-2.4-1-3.9 0-5 5.6-5.2 9.7z" fill="#DAB467"></path><path class="st11" d="M537.3 90.7c-1.5 0-3.8.7-3.8 2.7 0 1 .4 1.9.4 2.9 0 3.2-2.7 5.2-5.4 5.2-2.9 0-5.9-2.2-5.9-5.5 0-7.2 9.5-9.3 15.4-9.3 2.1 0 17.9.1 17.9 17.8V116c0 1.3-.6 7.6 2 7.6.8 0 1.6-.6 2-1.3l.4.6c.4.6 1 1.3 1 2 0 2.3-4.6 4.8-6.8 4.8-4.9 0-7.3-2.5-9.1-6.5-3.5 4.7-6.9 6.5-12.4 6.5-6.7 0-13-3.9-13-11.8 0-12.3 16.2-14.4 23.3-15.9.2-4.2-.8-11.3-6-11.3zm6.3 15.5c-5.6.7-10.5 4.5-10.5 10.9 0 2.8 1.2 7.2 4.5 7.2 5.3 0 6.1-7.7 6.1-11.8l-.1-6.3z" fill="#751D37"></path><path class="st12" d="M554.6 131c-5.1 0-7.6-2.5-9.3-5.4-3.4 3.9-6.9 5.4-12.2 5.4-6.8 0-14.2-4.1-14.2-13.1 0-12.3 14.4-15.1 22.2-16.7.4-.1.7-.1 1.1-.2-.1-2.9-.7-6.3-2.3-8-.7-.7-1.5-1.1-2.6-1.1-.6 0-2.5.3-2.5 1.4 0 .4.1.8.2 1.2.1.5.2 1.1.2 1.7 0 4-3.4 6.5-6.6 6.5-3.4 0-7.1-2.6-7.1-6.8 0-3.9 3.5-10.6 16.6-10.6 9.3 0 19.1 5 19.1 19.1v12.3c-.1 3.1.1 5 .7 5.6l.1.1c.2 0 .7-.3 1-.7.2-.3.6-.6 1-.5.4 0 .8.2 1 .6l.4.6c.1.1.1.2.2.3.4.6 1 1.4 1 2.4.1 3.1-5.3 5.9-8 5.9zm-9-9c.5 0 .9.3 1.1.7 1.6 3.4 3.5 5.7 7.9 5.7 1.9 0 5.5-2.3 5.5-3.5 0-.1-.2-.4-.4-.7-.5.4-1.2.6-1.8.6-.8 0-1.4-.3-2-.8-1.4-1.4-1.5-4.4-1.4-7.4v-12.1c0-5-1.6-16.6-16.6-16.6-4.9 0-14.1 1.7-14.1 8.1 0 2.7 2.4 4.3 4.6 4.3 2 0 4.1-1.5 4.1-4 0-.4-.1-.8-.2-1.2-.1-.5-.2-1.1-.2-1.7 0-2.6 2.5-3.9 5-3.9 1.7 0 3.2.6 4.4 1.8 2.9 2.9 3.1 8.5 3.1 10.8 0 .6-.4 1.1-1 1.2s-1.3.3-2.1.4c-7.6 1.5-20.2 4-20.2 14.2 0 7.3 5.9 10.6 11.7 10.6 5.1 0 8.1-1.6 11.4-6 .4-.3.8-.5 1.2-.5zm-8.1 3.6c-4.2 0-5.7-5.2-5.7-8.5 0-7.4 5.9-11.5 11.6-12.2.4 0 .7.1 1 .3.3.2.4.6.4.9v6.3c.1 8.4-2.6 13.2-7.3 13.2zm4.9-18c-4 .9-8 3.8-8 9.4 0 2.1.9 6 3.2 6 4.5 0 4.8-8.1 4.8-10.6v-4.8z" fill="#DAB467"></path><path class="st11" d="M597 122.4c-3.1 5.2-7.8 7.4-13.4 7.4-12.2 0-22.3-8.5-22.3-22.1 0-13 9.6-21 21.2-21 5.6 0 13.7 2 13.7 9.6 0 3.3-2.5 6-5.5 6-2.5 0-5.2-2.1-5.2-5 0-2.2 1.3-3 1.3-4.3 0-1.7-1.7-2.3-3-2.3-7.7 0-9.5 10.2-9.5 16.5 0 8 2.5 17.8 11.5 17.8 3.6 0 6.5-2.4 8.6-5.3l2.6 2.7z" fill="#751D37"></path><path class="st12" d="M583.5 131c-13.6 0-23.5-9.8-23.5-23.3 0-12.9 9.4-22.2 22.4-22.2 6.9 0 14.9 2.8 14.9 10.8 0 4-3 7.2-6.8 7.2-3.1 0-6.5-2.5-6.5-6.2 0-1.6.5-2.6.9-3.3.2-.4.4-.7.4-1 0-1-1.7-1-1.7-1-8 0-8.3 13.7-8.3 15.3 0 3.9.7 16.6 10.2 16.6 3.4 0 6-2.6 7.6-4.8.2-.3.5-.5.9-.5s.7.1 1 .3l2.7 2.6c.4.4.5 1 .2 1.5-3 5.3-7.9 8-14.4 8zm-1.1-43.1c-11.7 0-19.9 8.1-19.9 19.8 0 12.1 8.8 20.8 21 20.8 5.2 0 9.1-1.9 11.8-5.9l-1-.9c-2.6 3.1-5.5 4.7-8.7 4.7-8 0-12.7-7.1-12.7-19.1 0-13.1 5.6-17.8 10.8-17.8 2.1 0 4.2 1.2 4.2 3.5 0 .9-.4 1.5-.7 2.1s-.7 1.2-.7 2.2c0 2.1 2.1 3.7 4 3.7 2.4 0 4.3-2.1 4.3-4.7.1-8-10.3-8.4-12.4-8.4z" fill="#DAB467"></path><path class="st11" d="M640.2 108.4c0 12.7-9.4 21.3-20.9 21.3-11.6 0-20.5-9.2-20.5-21.8 0-12.9 9.1-21.3 20.9-21.3 12 .1 20.5 8.8 20.5 21.8zm-28.1.1c0 5.4.7 17.2 7.7 17.2 6.8 0 7.2-11.2 7.2-16.5 0-5.4-.5-18.6-7.6-18.6-6.8.1-7.3 12.8-7.3 17.9z" fill="#751D37"></path><path class="st12" d="M619.4 131c-12.4 0-21.8-9.9-21.8-23s9.3-22.6 22.1-22.6 21.8 9.5 21.8 23c0 12.9-9.5 22.6-22.1 22.6zm.3-43.1c-11.5 0-19.6 8.3-19.6 20.1 0 11.7 8.3 20.5 19.3 20.5 11.2 0 19.6-8.6 19.6-20.1 0-12.2-7.8-20.5-19.3-20.5zm.1 39.1c-5.7 0-8.9-6.6-8.9-18.5 0-15.8 4.6-19.1 8.5-19.1 4 0 8.8 3.4 8.8 19.8 0 4.4 0 17.8-8.4 17.8zm-.4-35c-5.4 0-6 11.6-6 16.6 0 4.8.6 16 6.4 16 3.9 0 5.9-5.1 5.9-15.2 0-6.6-.8-17.4-6.3-17.4z" fill="#DAB467"></path><path class="st11" d="M658.4 87.3v4.1c3.7-3.4 6.6-4.7 11.4-4.7 9.4 0 12.9 5.4 12.9 13.4v19.7c0 6.6 4.4 1.8 4.4 7.5v1.3h-20.9v-1.3c0-5.6 4.1-.8 4.1-7.5V99.4c0-3.4-.7-6.9-5.2-6.9-2 0-5 1.1-6.2 3v24.3c0 6.5 4.7 1.7 4.7 7.5v1.3h-21.4v-1.3c0-5.6 4.4-.8 4.4-7.5V96.6c0-6.6-4.4-1.8-4.4-7.5v-1.3l16.2-.5z" fill="#751D37"></path><path class="st12" d="M687 129.8h-20.9c-.7 0-1.2-.6-1.2-1.2 0 .7-.6 1.2-1.2 1.2h-21.4c-.7 0-1.2-.6-1.2-1.2v-1.3c0-3.3 1.5-4.1 2.9-4.5.9-.3 1.4-.4 1.4-3V96.6c0-2.5-.5-2.7-1.4-3-1.5-.4-2.9-1.2-2.9-4.5v-1.3c0-.7.5-1.2 1.2-1.2l16.1-.6c.3 0 .7.1.9.3.2.2.4.6.4.9v1.4c3.2-2.4 6.1-3.3 10.2-3.3 9.3 0 14.1 5.1 14.1 14.7v19.7c0 2.5.5 2.7 1.4 3 1.5.5 2.9 1.2 2.9 4.5v1.3c0 .8-.6 1.3-1.3 1.3zm-19.6-2.5h18.4c0-1.8-.3-1.9-1.2-2.1-1.6-.5-3.2-1.3-3.2-5.4v-19.7c0-8.2-3.8-12.2-11.6-12.2-4.3 0-7 1.1-10.6 4.4-.4.3-.9.4-1.3.2-.5-.2-.7-.6-.7-1.1v-2.8l-13.6.5v.1c0 1.8.3 1.9 1.2 2.1 1.6.5 3.2 1.3 3.2 5.4V120c0 4-1.6 4.9-3.2 5.4-.8.3-1.2.4-1.2 2.1h18.9c0-1.9-.4-2-1.3-2.3-1.7-.5-3.3-1.3-3.3-5.2V95.6c0-.2.1-.5.2-.6 1.5-2.5 5.1-3.6 7.2-3.6 4.3 0 6.4 2.7 6.4 8.1v20.4c0 4-1.5 4.9-3.1 5.3-.9.2-1.2.3-1.2 2.1zM660.2 96v23.9c0 2.4.5 2.5 1.5 2.8 1.6.5 3.2 1.2 3.2 4.7 0-3.3 1.4-4.1 2.8-4.5.8-.3 1.3-.4 1.3-3V99.4c0-4.7-1.6-5.6-3.9-5.6-1.6 0-3.9.9-4.9 2.2z" fill="#DAB467"></path><linearGradient gradientTransform="matrix(1 0 0 -1 0 218)" gradientUnits="userSpaceOnUse" id="SVGID_3_" x1="48.5" x2="49.592" y1="142.45" y2="142.45"><stop offset=".456" stop-color="#ffd300"></stop><stop offset="1" stop-color="#fff100"></stop></linearGradient><path d="M48.5 73.3l.4 4.5h.7l-.4-4.5z" fill="url(&quot;#SVGID_3_&quot;)"></path><path class="st8" d="M138.1 59.1s2 .5 4.9 2.5c3.7 2.6 3.9 6.3 3.9 6.3s2-1.7 4.5-1.5c4.3.3 8.9 4.1 8.9 4.1s-1.4-3.1-4.8-5.1c-3.4-1.9-6.9-1.4-6.9-1.4s-1.6-2.6-3.3-3.6c-3.5-2-8.1-1.6-8.1-1.6l.9.3z"></path></svg>