<svg xmlns:xlink="http://www.w3.org/1999/xlink" aria-labelledby="tmtLogo" class="header-logo-image logo-tmt" viewBox="0 0 494.61 115.87" x="0" xml:space="preserve" xmlns="http://www.w3.org/2000/svg" y="0" width="494.61"  height="115.87" ><text id="tmtLogo">Timmins Times</text><style>.st0{fill:#004b8c}</style><path d="M6.96 2.31H2.24V0h11.5v2.31H9.03V22.2H6.96V2.31zM15.99 0h2v8.55c.86-1.17 2.42-2.52 4.12-2.52 2.1 0 3.21 1.53 3.21 4.41V22.2h-1.98V10.95c0-1.89-.52-2.79-1.85-2.79-1.26 0-2.62 1.17-3.51 2.28V22.2h-2V0zM27.77 14.28c0-5.7 2.42-8.25 5.04-8.25 2.89 0 4.64 2.82 4.64 8.16v.6h-7.7c.07 3.72 1.26 5.7 3.14 5.7 1.53 0 2.35-1.05 3.09-2.76l1.38 1.05c-.91 2.28-2.49 3.75-4.57 3.75-2.85 0-5.02-2.73-5.02-8.25zm7.78-1.32c-.12-2.88-.99-4.86-2.77-4.86-1.46 0-2.79 1.47-3.01 4.86h5.78z"></path><path class="st0" d="M10.32 48.44H0V33.48h38.37v14.96H28.05v66.44H10.32V48.44zM39.72 35.68h16.72v15.51H39.72V35.68zm.11 20.35h16.49v58.85H39.83V56.03zM60.14 56.03h16.49v6.16c2.47-3.3 8.08-6.93 12.45-6.93 4.49 0 7.52 1.21 8.42 7.04 2.92-3.63 8.75-7.04 12.79-7.04 5.5 0 8.75 1.76 8.75 11.55v48.07h-16.49V72.97c0-1.87-.45-2.64-1.46-2.64s-2.47.66-3.25 1.1v43.45h-16.5V72.97c0-1.87-.45-2.64-1.46-2.64-1.12 0-2.58.77-3.25 1.1v43.45H60.14V56.03zM122.52 56.03h16.49v6.16c2.47-3.3 8.08-6.93 12.45-6.93 4.49 0 7.52 1.21 8.42 7.04 2.92-3.63 8.75-7.04 12.79-7.04 5.5 0 8.75 1.76 8.75 11.55v48.07h-16.49V72.97c0-1.87-.45-2.64-1.46-2.64s-2.47.66-3.25 1.1v43.45h-16.49V72.97c0-1.87-.45-2.64-1.46-2.64-1.12 0-2.58.77-3.25 1.1v43.45h-16.49V56.03zM185.02 35.68h16.72v15.51h-16.72V35.68zm.11 20.35h16.49v58.85h-16.49V56.03zM205.43 56.03h16.49v6.16c2.47-3.3 8.08-6.93 12.45-6.93 5.5 0 8.75 1.76 8.75 11.55v48.07h-16.49V72.97c0-1.87-.45-2.64-1.46-2.64-1.12 0-2.58.77-3.25 1.1v43.45h-16.49V56.03z" fill="#004B8C"></path><g><path class="st0" d="M245 96.84l14.36-1.76c.79 6.16 2.58 8.47 4.15 8.47 1.35 0 2.47-.44 2.47-2.53 0-3.63-3.7-5.06-7.97-8.47-5.5-4.4-11.89-10.23-11.89-20.9 0-13.09 10.21-16.83 16.72-16.83 10.88 0 17.39 4.51 18.62 17.93l-14.14 2.2c-.56-6.16-1.46-7.15-3.59-7.15-1.01 0-1.91.77-1.91 2.31 0 3.74 3.37 6.05 7.41 9.13 5.72 4.51 12.68 9.13 12.68 19.58 0 10.23-6.51 17.05-18.06 17.05-14.36 0-17.62-8.14-18.85-19.03z" fill="#004B8C"></path></g><g><path class="st0" d="M308.95 48.44h-10.32V33.48H337v14.96h-10.32v66.44h-17.73V48.44zM338.23 35.68h16.72v15.51h-16.72V35.68zm.11 20.35h16.49v58.85h-16.49V56.03zM358.54 56.03h16.49v6.16c2.47-3.3 8.08-6.93 12.45-6.93 4.49 0 7.52 1.21 8.42 7.04 2.92-3.63 8.75-7.04 12.79-7.04 5.5 0 8.75 1.76 8.75 11.55v48.07h-16.49V72.97c0-1.87-.45-2.64-1.46-2.64s-2.47.66-3.25 1.1v43.45h-16.49V72.97c0-1.87-.45-2.64-1.46-2.64-1.12 0-2.58.77-3.25 1.1v43.45h-16.49V56.03zM419.35 85.51c0-20.02 6.62-30.25 19.3-30.25 16.94 0 18.4 15.95 18.4 29.7v6.27H435.4c0 7.26.79 11.44 3.37 11.44 2.13 0 2.92-1.65 3.14-7.81l15.26.44c-1.46 12.1-5.95 20.35-18.51 20.35-12.58 0-19.31-10.34-19.31-30.14zm21.99-4.18c-.11-10.34-.45-12.54-2.69-12.54-2.02 0-3.25 2.53-3.25 12.54h5.94z" fill="#004B8C"></path></g><g><path class="st0" d="M457.7 96.84l14.36-1.76c.79 6.16 2.58 8.47 4.15 8.47 1.35 0 2.47-.44 2.47-2.53 0-3.63-3.7-5.06-7.97-8.47-5.5-4.4-11.89-10.23-11.89-20.9 0-13.09 10.21-16.83 16.72-16.83 10.88 0 17.39 4.51 18.62 17.93l-14.14 2.2c-.56-6.16-1.46-7.15-3.59-7.15-1.01 0-1.91.77-1.91 2.31 0 3.74 3.37 6.05 7.41 9.13 5.72 4.51 12.68 9.13 12.68 19.58 0 10.23-6.51 17.05-18.06 17.05-14.37 0-17.62-8.14-18.85-19.03z" fill="#004B8C"></path></g></svg>