<svg xmlns:xlink="http://www.w3.org/1999/xlink" aria-labelledby="wlcLogo" class="header-logo-image logo-wlc" version="1.1" viewBox="0 0 311.32 115.65" x="0" xml:space="preserve" xmlns="http://www.w3.org/2000/svg" y="0" width="311.32"  height="115.65" ><text id="wlcLogo">The West Elgin Chronicle</text><style>.st0{fill:#004b8c}</style><path d="M1.11 0h1.98l1.98 11.4c.42 2.4.67 3.84 1.09 6.57h.05c.37-2.73.64-4.17 1.04-6.57L9.08 0h1.88l1.93 11.7c.4 2.28.69 3.9 1.01 6.27h.05c.32-2.25.62-3.99 1.01-6.27l2-11.7h1.85l-4.07 22.29h-1.75L10 4.41h-.05L6.93 22.29H5.18L1.11 0zM19.05 14.28c0-5.7 2.42-8.25 5.04-8.25 2.89 0 4.64 2.82 4.64 8.16v.6h-7.7c.07 3.72 1.26 5.7 3.14 5.7 1.53 0 2.35-1.05 3.09-2.76l1.38 1.05c-.91 2.28-2.49 3.75-4.57 3.75-2.84 0-5.02-2.73-5.02-8.25zm7.78-1.32c-.12-2.88-.99-4.86-2.77-4.86-1.46 0-2.79 1.47-3.01 4.86h5.78zM29.99 19.29l1.36-1.2c.86 1.59 2.15 2.46 3.53 2.46 1.65 0 2.59-.87 2.59-2.34 0-3.9-6.79-2.31-6.79-7.92 0-2.52 1.7-4.26 4.12-4.26 1.93 0 3.36 1.11 4.3 2.85l-1.33 1.26c-.67-1.23-1.65-2.1-2.99-2.1-1.48 0-2.17.9-2.17 2.13 0 3.93 6.74 2.16 6.74 7.92 0 2.76-2 4.44-4.49 4.44-2.26 0-3.86-1.26-4.87-3.24zM42.55 18.63V8.37h-1.93V6.36h1.93V.72h1.98v5.64h2.86v2.01h-2.86v9.72c0 1.62.35 2.34 1.73 2.34.4 0 .86-.09 1.11-.21v1.95c-.3.12-.99.21-1.56.21-2.37 0-3.26-1.02-3.26-3.75zM54.89 0h9.33v2.31h-7.26v7.02h5.31v2.28h-5.31v8.31h7.68v2.28h-9.75V0zM67.21 0h2v22.2h-2V0zM82.44 6.15v2.28c-.59 0-1.28.09-1.98.42.37.81.59 1.8.59 2.91 0 3.51-1.88 5.67-4.49 5.67-.67 0-1.26-.12-1.78-.36-.44.3-.74.69-.74 1.23 0 .6.27.87 1.51 1.08l2.02.3c3.21.45 4.47 1.62 4.47 4.05 0 2.82-2.42 4.47-5.65 4.47-3.73 0-5.14-1.44-5.14-3.81 0-1.59.82-2.79 2.12-3.54-.69-.45-1.09-1.08-1.09-1.98 0-.93.59-1.89 1.41-2.49-1.09-1.02-1.73-2.67-1.73-4.62 0-3.42 1.9-5.73 4.57-5.73 1.36 0 2.49.57 3.28 1.59.71-.72 1.77-1.29 2.63-1.47zm-9.33 17.88c0 1.62.89 2.43 3.51 2.43 2.1 0 3.58-.9 3.58-2.43 0-1.29-.64-1.98-2.94-2.31l-2.12-.33-.37-.06c-1.12.63-1.66 1.65-1.66 2.7zm6.07-12.24c0-2.37-.91-3.84-2.64-3.84-1.68 0-2.64 1.53-2.64 3.84 0 2.34.99 3.84 2.67 3.84 1.65 0 2.61-1.5 2.61-3.84zM84.71.6h2.02v2.61h-2.02V.6zm0 5.76h2V22.2h-2V6.36zM89.97 6.36h2v2.19c.86-1.17 2.42-2.52 4.12-2.52 2.1 0 3.21 1.53 3.21 4.41V22.2h-1.98V10.95c0-1.89-.52-2.79-1.85-2.79-1.26 0-2.62 1.17-3.51 2.28V22.2h-2V6.36z"></path><g><path class="st0" d="M0 74.18c0-30.36 6.73-41.47 21.43-41.47 14.59 0 20.2 6.49 20.2 33.44l-16.72.66c0-15.51-.79-18.15-3.48-18.15-3.48 0-3.37 6.16-3.37 25.52 0 20.02.11 26.07 3.48 26.07 2.92 0 3.59-1.87 3.81-17.49l16.72.66c-.79 17.27-2.92 32.23-20.64 32.23C6.73 115.65 0 104.54 0 74.18zM43.64 33.48h16.49v28.71c2.47-3.3 8.08-6.93 12.45-6.93 5.5 0 8.75 1.76 8.75 11.55v48.07H64.85V72.97c0-1.87-.45-2.64-1.46-2.64-1.12 0-2.58.77-3.25 1.1v43.45h-16.5v-81.4zM84.82 56.03h16.49v9.24h.11c1.91-5.5 5.5-10.01 9.99-10.01 1.01 0 1.91.22 1.91.22v15.73h-1.57c-4.82 0-8.08.55-10.43 1.87v41.8h-16.5V56.03zM113.1 85.51c0-20.02 6.73-30.25 19.41-30.25 12.57 0 19.41 10.23 19.41 30.25 0 19.8-6.84 30.14-19.41 30.14s-19.41-10.34-19.41-30.14zm22.21-.11c0-14.08-.56-16.39-2.81-16.39-2.02 0-2.92 1.21-2.92 16.39 0 14.19.79 17.16 2.92 17.16 2.14 0 2.81-1.76 2.81-17.16zM154.05 56.03h16.49v6.16c2.47-3.3 8.08-6.93 12.46-6.93 5.5 0 8.75 1.76 8.75 11.55v48.07h-16.49V72.97c0-1.87-.45-2.64-1.46-2.64-1.12 0-2.58.77-3.25 1.1v43.45h-16.49V56.03zM195.34 35.68h16.72v15.51h-16.72V35.68zm.11 20.35h16.49v58.85h-16.49V56.03zM214.3 85.51c0-20.02 6.73-30.25 19.41-30.25 12.57 0 17.5 8.58 18.51 23.1l-16.04.77c-.22-6.93-.22-10.12-2.47-10.12-2.02 0-2.92 1.54-2.92 16.39 0 14.19.79 17.16 2.92 17.16s2.69-2.86 2.69-11.44l15.82.44c-.56 14.96-5.95 24.09-18.51 24.09s-19.41-10.34-19.41-30.14zM254.24 33.48h16.49v81.4h-16.49v-81.4z" fill="#004B8C"></path></g><g><path class="st0" d="M273.51 85.51c0-20.02 6.62-30.25 19.3-30.25 16.94 0 18.4 15.95 18.4 29.7v6.27h-21.65c0 7.26.79 11.44 3.37 11.44 2.13 0 2.92-1.65 3.14-7.81l15.26.44c-1.46 12.1-5.95 20.35-18.51 20.35s-19.31-10.34-19.31-30.14zm21.99-4.18c-.11-10.34-.45-12.54-2.69-12.54-2.02 0-3.25 2.53-3.25 12.54h5.94z" fill="#004B8C"></path></g></svg>