<svg xmlns:xlink="http://www.w3.org/1999/xlink" aria-labelledby="sobLogo" class="header-logo-image logo-sob" version="1.1" viewBox="0 0 525.28 75.23" x="0" xml:space="preserve" xmlns="http://www.w3.org/2000/svg" y="0" width="525.28"  height="75.23" ><text id="sobLogo">The Sarnia Observer</text><style>.st0{fill:#427c98}</style><path d="M47.22 28.23c-1.04-4.7-2.08-7.61-3.37-9.21-1.56-1.88-3.46-2.44-9.08-2.44H30.1V61.6c0 7.8.78 8.55 8.65 9.21v3.01H11.76v-3.01c7.44-.66 8.3-1.41 8.3-9.21V16.58h-3.89c-7.09 0-8.74.85-9.95 2.63-1.3 1.6-2.25 4.61-3.29 9.12H0c.35-6.39.87-13.06 1.04-17.95h1.99c1.3 2.16 2.42 2.35 4.84 2.35h34.59c2.25 0 3.29-.56 4.76-2.35h1.99c0 4.04.43 11.84.86 17.67l-2.85.18zM105.28 22.61c-6.03.58-6.57 1-6.57 8.05v32.45c0 6.97.61 7.47 6.57 8.05v2.66h-22.3v-2.66c6.18-.58 6.8-1.08 6.8-8.05V47.26H67.1v15.85c0 6.97.61 7.47 6.49 8.05v2.66H51.75v-2.66c5.8-.58 6.49-1.08 6.49-8.05V30.66c0-7.05-.69-7.55-6.72-8.05v-2.74h21.84v2.74c-5.65.5-6.26 1-6.26 8.05v12.61h22.68V30.66c0-7.05-.53-7.47-6.34-8.05v-2.74h21.84v2.74zM148.04 60.29c-.46 3.32-1.99 11.04-2.67 13.53h-38.18v-2.66c6.64-.58 7.33-1.16 7.33-8.13V30.75c0-7.3-.69-7.64-6.26-8.13v-2.74h35.2c.08 1.66.46 7.47.76 12.28l-2.6.42c-.69-3.15-1.6-5.56-2.83-7.14-1.22-1.58-3.28-2.16-8.02-2.16h-4.43c-2.67 0-2.9.17-2.9 2.82v18.01h5.88c6.57 0 7.33-.5 8.32-6.22h2.6v16.43h-2.6c-.99-5.98-1.76-6.31-8.32-6.31h-5.88v14.77c0 3.98.38 5.89 1.83 6.81 1.37.83 4.05.91 7.18.91 4.66 0 7.18-.58 8.93-2.74 1.45-1.74 2.83-4.48 4.12-7.97l2.54.5zM221.81 42.61c0 20.21-13.32 32.62-29.49 32.62-16.69 0-28.8-13.63-28.8-31.68 0-16.35 10.72-32.24 29.84-32.24 15.39 0 28.45 12.6 28.45 31.3zm-46.61-1.12c0 16.64 7.35 29.98 18.85 29.98 8.73 0 16.09-8.74 16.09-26.32 0-19.08-7.87-30.08-18.42-30.08-9 0-16.52 9.69-16.52 26.42zM251.76 44.86c8.4 1.16 14.28 4.98 14.28 13.03 0 5.56-2.75 9.88-7.18 12.45-3.89 2.41-9.47 3.49-15.73 3.49h-18.48v-2.74c6.11-.5 6.72-1.08 6.72-8.05V30.66c0-6.97-.53-7.55-6.18-8.05v-2.74h21.3c5.8 0 9.47.91 12.22 2.9 2.75 1.91 4.43 5.39 4.43 9.38 0 7.97-6.26 11.2-11.38 12.37v.34zm-9.17-1.17c7.71 0 11.07-3.32 11.07-10.21 0-6.81-3.66-10.46-8.93-10.46-1.76 0-3.21.5-3.74 1-.61.5-.84 1.66-.84 3.73v15.93h2.44zm-2.44 19.18c0 6.06 1.53 7.8 5.88 7.72 4.96-.08 10.08-3.49 10.08-11.87 0-7.97-4.81-11.87-13.67-11.87h-2.29v16.02zM296.66 33.07c-1.53-5.23-4.12-11.2-10.46-11.2-4.81 0-7.79 3.82-7.79 8.46 0 5.15 3.13 7.88 9.62 11.37 7.25 3.98 13.36 8.3 13.36 16.93 0 9.21-7.18 16.43-18.02 16.43-2.9 0-5.5-.5-7.56-1.25-2.06-.66-3.44-1.25-4.35-1.74-.69-1.99-1.68-8.96-2.21-13.61l2.6-.83c1.37 5.23 5.5 14.19 12.98 14.19 5.12 0 8.25-3.65 8.25-9.21 0-5.31-3.67-8.38-9.39-11.62-6.8-3.82-13.06-8.22-13.06-16.68 0-8.63 6.34-15.69 16.8-15.69 4.43 0 8.32 1.41 10.31 2.07.31 3.07.76 6.56 1.38 11.79l-2.46.59zM342.78 60.29c-.46 3.32-1.99 11.04-2.67 13.53h-38.18v-2.66c6.64-.58 7.33-1.16 7.33-8.13V30.75c0-7.3-.69-7.64-6.26-8.13v-2.74h35.2c.08 1.66.46 7.47.76 12.28l-2.6.42c-.69-3.15-1.6-5.56-2.83-7.14-1.22-1.58-3.28-2.16-8.02-2.16h-4.43c-2.67 0-2.9.17-2.9 2.82v18.01h5.88c6.57 0 7.33-.5 8.32-6.22h2.6v16.43h-2.6c-.99-5.98-1.76-6.31-8.32-6.31h-5.88v14.77c0 3.98.38 5.89 1.83 6.81 1.37.83 4.05.91 7.18.91 4.66 0 7.18-.58 8.93-2.74 1.45-1.74 2.83-4.48 4.12-7.97l2.54.5zM390.04 74.57c-.61 0-1.53-.08-2.37-.08-8.25-.42-11.3-2.57-14.51-7.88-2.21-3.65-4.58-8.38-6.79-12.62-1.22-2.49-2.6-3.49-5.57-3.49h-1.76v12.53c0 6.81.69 7.55 6.57 8.13v2.66h-21.99v-2.66c5.88-.58 6.72-1.25 6.72-8.13V30.58c0-6.81-.69-7.47-6.41-7.97v-2.74h20.54c6.26 0 10.08.83 13.13 2.99 3.05 2.24 5.12 5.89 5.12 11.04 0 7.22-4.35 11.29-9.62 13.69 1.22 2.57 4.12 8.13 6.41 11.87 2.75 4.56 4.35 7.05 6.03 8.88 1.76 2.16 3.21 3.15 4.96 3.73l-.46 2.5zm-28.48-27.14c3.51 0 6.03-.66 7.79-2.24 2.67-2.41 3.82-5.73 3.82-10.04 0-8.88-4.89-12.2-9.77-12.2-1.99 0-3.13.41-3.67.83-.53.5-.69 1.41-.69 3.32v20.33h2.52z"></path><g><path d="M436.78 22.61c-5.04.66-6.34 1.58-9.32 9.3-2.37 6.06-9.7 25.64-15.58 42.82h-3.28c-5.19-15.19-12.06-34.44-15.65-44.32-2.29-6.31-3.51-7.3-8.17-7.8v-2.74h21.3v2.74c-5.57.83-5.65 1.66-4.43 5.23 2.14 6.39 7.94 22.91 11.61 33.03h.15c4.12-11.45 8.25-23.4 10.46-31.04 1.68-5.39 1.45-6.39-4.73-7.22v-2.74h17.64v2.74zM477.55 60.29c-.46 3.32-1.99 11.04-2.67 13.53H436.7v-2.66c6.64-.58 7.33-1.16 7.33-8.13V30.75c0-7.3-.69-7.64-6.26-8.13v-2.74h35.2c.08 1.66.46 7.47.76 12.28l-2.6.42c-.69-3.15-1.6-5.56-2.83-7.14-1.22-1.58-3.28-2.16-8.02-2.16h-4.43c-2.67 0-2.9.17-2.9 2.82v18.01h5.88c6.57 0 7.33-.5 8.32-6.22h2.6v16.43h-2.6c-.99-5.98-1.76-6.31-8.32-6.31h-5.88v14.77c0 3.98.38 5.89 1.83 6.81 1.37.83 4.05.91 7.18.91 4.66 0 7.18-.58 8.93-2.74 1.45-1.74 2.83-4.48 4.12-7.97l2.54.5zM524.82 74.57c-.61 0-1.53-.08-2.37-.08-8.25-.42-11.3-2.57-14.51-7.88-2.21-3.65-4.58-8.38-6.79-12.62-1.22-2.49-2.6-3.49-5.57-3.49h-1.76v12.53c0 6.81.69 7.55 6.57 8.13v2.66H478.4v-2.66c5.88-.58 6.72-1.25 6.72-8.13V30.58c0-6.81-.69-7.47-6.41-7.97v-2.74h20.54c6.26 0 10.08.83 13.13 2.99 3.05 2.24 5.12 5.89 5.12 11.04 0 7.22-4.35 11.29-9.62 13.69 1.22 2.57 4.12 8.13 6.41 11.87 2.75 4.56 4.35 7.05 6.03 8.88 1.76 2.16 3.21 3.15 4.96 3.73l-.46 2.5zm-28.48-27.14c3.51 0 6.03-.66 7.79-2.24 2.67-2.41 3.82-5.73 3.82-10.04 0-8.88-4.89-12.2-9.77-12.2-1.99 0-3.13.41-3.67.83-.53.5-.69 1.41-.69 3.32v20.33h2.52z"></path></g><g><path class="st0" d="M59.51 3.42C59.13 2.21 58.46.79 56.98.79c-1.01 0-1.75.81-1.75 1.9 0 1.06.65 1.67 2.24 2.51 1.9.98 3.19 2.05 3.19 3.95 0 2.19-1.75 3.9-4.39 3.9-.65 0-1.28-.1-1.82-.27-.51-.15-.85-.31-1.1-.42-.16-.48-.4-2.09-.52-3.26l.63-.21c.36 1.23 1.43 3.38 3.16 3.38 1.1 0 1.81-.81 1.81-2.02 0-1.13-.79-1.84-2.15-2.61-1.86-1-3.14-2.04-3.14-3.88 0-2.11 1.57-3.76 4.13-3.76 1.16 0 2.18.38 2.51.52.07.71.2 1.55.34 2.74l-.61.16zM68.5 12.77v-.67c1.07-.17 1.16-.4.87-1.25-.18-.58-.45-1.38-.72-2.17h-3.47c-.2.6-.43 1.29-.65 2.05-.25.92-.22 1.19 1.1 1.36v.67h-4.04l.02-.67c1.19-.15 1.41-.36 2-1.98l3.7-9.87.92-.24c1.16 3.36 2.27 6.7 3.45 10 .61 1.69.85 1.94 1.99 2.09v.67H68.5zm-1.54-9.26h-.05c-.51 1.4-.96 2.78-1.43 4.15h2.82l-1.34-4.15zM85.8 12.94c-.11 0-.33-.02-.54-.02-2.27-.11-2.98-.65-3.7-1.86-.47-.79-.96-1.82-1.48-2.82-.29-.59-.61-.83-1.19-.84h-.34v2.8c0 1.57.18 1.77 1.53 1.9v.67h-5.45v-.67c1.35-.13 1.55-.33 1.55-1.9V2.82c0-1.54-.16-1.73-1.48-1.86V.29h5.07c1.57 0 2.49.19 3.21.73.72.5 1.23 1.36 1.23 2.55 0 1.69-1.05 2.59-2.26 3.13.25.56.94 1.84 1.46 2.73.65 1.06 1.03 1.67 1.39 2.07.4.44.69.67 1.1.83l-.1.61zm-6.78-6.3c.76 0 1.37-.13 1.77-.52.61-.54.87-1.31.87-2.28 0-2.03-1.12-2.78-2.13-2.78-.45 0-.7.08-.81.19-.13.12-.16.31-.16.71v4.68h.46zM98.96.96c-.97.06-1.35.31-1.44 1.19-.05.6-.16 1.5-.16 3.19v7.62h-.87L88.98 3.4h-.05v4.32c0 1.69.09 2.53.14 3.11.09.84.4 1.21 1.73 1.27v.67h-4.42v-.67c1.01-.08 1.43-.38 1.5-1.21.07-.63.18-1.48.18-3.17V3.7c0-1.25-.04-1.61-.38-2.05-.33-.46-.74-.61-1.5-.69V.29h3.34l6.9 8.43h.07V5.34c0-1.69-.11-2.59-.14-3.15-.09-.83-.47-1.15-1.79-1.23V.29h4.4v.67zM99.93 12.77v-.67c1.34-.13 1.5-.27 1.5-1.88V2.86c0-1.63-.16-1.77-1.5-1.9V.29h5.42v.67c-1.34.13-1.5.27-1.5 1.9v7.35c0 1.61.16 1.75 1.5 1.88v.67h-5.42z" fill="#427C98"></path></g><g><path class="st0" d="M112.61 12.77v-.67c1.07-.17 1.16-.4.87-1.25-.18-.58-.45-1.38-.72-2.17h-3.47c-.2.6-.43 1.29-.65 2.05-.25.92-.22 1.19 1.1 1.36v.67h-4.04l.02-.67c1.19-.15 1.41-.36 2-1.98l3.7-9.87.92-.24c1.16 3.36 2.27 6.7 3.45 10 .61 1.69.85 1.94 1.99 2.09v.67h-5.17zm-1.53-9.26h-.05c-.51 1.4-.96 2.78-1.43 4.15h2.82l-1.34-4.15z" fill="#427C98"></path></g></svg>