<svg xmlns:xlink="http://www.w3.org/1999/xlink" aria-labelledby="losLogo" class="header-logo-image logo-los" enable-background="new 0 0 868.5 295.39" viewBox="0 0 868.5 295.39" xmlns="http://www.w3.org/2000/svg" width="868.5"  height="295.39" ><text id="losLogo">Today's Farmer</text><style>.st0{fill:#f9f17f}.st1{fill:#c2c1c1}.st2{fill:#010101}.st3{fill:#df1f28}.st4{fill:none;stroke:#fff;stroke-width:3.5601}</style><filter id="sh"></filter><path class="st0" d="M297.69 118.98c0-.01 0 0 0 0 0-.01-.01 0 0 0l-1.95 1.09-.18.09c-.07.03-.14.07-.21.1-.19.1-.4.2-.61.3-.07.03-.14.07-.21.1-.27.13-.56.26-.85.39-.08.03-.16.07-.24.1-.24.1-.48.2-.73.31-.1.04-.2.08-.31.12-.33.13-.67.26-1.01.38-.05.02-.1.03-.15.05-.31.11-.62.21-.93.31-.11.04-.23.07-.34.1-.3.09-.61.18-.92.26l-.22.06c-.37.09-.75.17-1.13.24l-.32.06c-.3.05-.6.1-.91.13-.1.01-.21.03-.31.04-.39.04-.77.07-1.15.08h-.24c-.32 0-.63-.01-.94-.03-.11-.01-.22-.01-.32-.02-.38-.04-.76-.08-1.14-.16-6.67-1.37-23.34-4.8-35.34-.68-.67.23-1.33.47-1.98.7-.18.07-.36.13-.54.2-.53.19-1.04.39-1.56.59l-.39.15c-.61.24-1.21.48-1.81.72-.16.06-.32.13-.47.19-.46.19-.91.38-1.36.57-.16.07-.32.13-.47.2-.55.24-1.1.47-1.62.71-.11.05-.21.09-.31.14-.44.2-.87.39-1.28.58-.15.07-.31.14-.46.21l-1.27.59c-.06.03-.12.06-.18.08-.46.22-.9.43-1.33.64-.12.06-.24.12-.37.18-.33.17-.66.33-.97.48-.09.04-.17.09-.26.13-.38.19-.74.38-1.08.55-.07.04-.14.07-.21.11-.28.15-.54.28-.79.42-.07.04-.13.07-.2.11-.05.03-.11.06-.16.09l-.07.04c-1.41.75-2.21 1.23-2.21 1.23l-.34.97-.28 1.04-.18.93-.11 1-.01.77.07.77.1.46-.59-.01c-.56.23-.99.46-1.33.69-.11.08-.22.15-.31.23-.05.04-.08.08-.12.12-.06.06-.13.12-.18.19-.03.04-.06.08-.09.13-.04.06-.08.12-.11.18-.02.04-.03.09-.04.13-.02.06-.04.12-.05.18-.01.04 0 .08 0 .13 0 .06 0 .12.01.17.01.04.02.08.04.13.02.06.04.12.07.17.02.04.05.08.07.12.04.06.08.12.12.17.03.04.07.08.1.12.05.06.11.12.18.17.04.04.09.08.13.11.07.06.15.12.23.17.05.04.1.07.16.11.09.06.19.12.29.18.06.03.12.07.18.1a11.287 11.287 0 00.54.27c.13.06.28.12.42.18.06.03.12.05.18.08.17.07.34.13.52.2.05.02.1.04.15.05.22.08.45.16.69.23.01 0 .02.01.03.01.51.16 1.06.32 1.65.46h.01c.28.07.57.14.87.21.05.01.11.02.16.04.25.05.49.11.75.16.08.02.16.03.24.05.23.05.46.09.7.13.1.02.2.03.3.05.22.04.45.08.68.11.11.02.22.03.33.05.22.03.45.07.67.1.12.02.24.03.36.05.22.03.44.06.67.08.12.01.25.03.38.04.22.03.45.05.67.07.13.01.25.03.38.04l.67.06.39.03c.22.02.45.03.67.05.13.01.27.02.4.02l.67.03c.13.01.27.01.4.02.22.01.45.01.67.02.13 0 .26.01.39.01.23 0 .46.01.69.01h.36c.24 0 .49 0 .73-.01h.32c.34-.01.69-.02 1.03-.04 11.16-.54 22.85-3.28 14.35-7.1-8.5-3.82 9.56-2.18 23.38-3.82 4.75-.56 8.31-2.46 10.93-4.71 4.99-4.32 6.6-9.9 6.6-9.89zM261.71 201.25l-1.46-1.95c-2.63-3.46-6.09-7.86-8.31-10.14-4-4.11-5.33-10.28-13.33-10.97-8-.68-2.67-7.54-12-10.96l-.49-.09-.55-.03-.51.03-.57.11-.94.34-.49.28-.49.36-.73.72-.7.96-.64 1.24-.55 1.55c-.19.66-.41 1.29-.65 1.9l-.97 2.4-.17.07c-8.73 3.96-1.51 11.64 6.21 11.64s20.93-.51 17.88 6.41l-.35.69c-4.25 7.64 10.63 5.46 16.47 7.1 5.84 1.64 2.13 7.1 2.13 7.1s1.06 1.1 3.72-2.18c1.33-1.64.27-3.96-1.86-6.01l-.65-.57zM213.32 121.9c-2.61-15.51-11.53-27.65-24.24-34.79-12.71-7.14-29.21-9.29-47.01-4.83-31.87 8-57.73 34.68-64.44 63.79l-.1.51-.54 2.62a67.3 67.3 0 00-.84 6.29l-.19 3.16v.01c-.05 1.6-.12 3.19-.04 4.78 1.61 35.25 33.85 56.06 71.99 46.48 38.15-9.58 67.76-45.91 66.15-81.16l-.27-3.48-.47-3.38M77.37 109.83l-.12-.86s-6.67-8.22-20-9.6c-6.67-.68-10.67-2.4-14.17-3.51s-6.5-1.63-11.17.08l-.86.28c-9.04 2.57-17.89-6.3-20.48-1.65-.89 1.6-1.78 3.05-2.57 4.27l-.5.75.13-.12c.62-.52 1.39-.98 2.32-1.27-2.06 1.78-4.64 4.55-4.7 4.61.01-.02.3-.39.78-1.06L7.5 99.6l-.65.63c-1.15 1.27-1.6 2.58-1.61 2.59.02-.01 8.72-4.2 14.56.72 5.84 4.91 15.94 7.1 15.94 3.28s6.38-2.18 10.63 2.19c4.25 4.37 6.37-2.19 12.22 4.37 5.48 6.15 19.83 4.61 15.47.79 2.14-.65 3.49-1.99 3.31-4.34zM200.6 6.86c-.02 0-7.34.01-10.67 5.48-3.33 5.48-5.34 8.22-9.34 10.28-4 2.06-3.33-2.06-6 2.74-2.67 4.8-8.67 17.82-12 23.99l-3.73 7-4.94 9.44 7.67-.4c-.04 2.34 1.35 6.28 6.97-.66 7.97-9.83 14.88-22.39 14.34-25.12-.53-2.73-5.31-1.09-1.06-4.37 4.25-3.28 2.13-10.92 7.97-10.38l.75.04c5 .02 4.08-5.08 5.09-7.68.35-.91 1.02-2.37 1.75-3.9l3.2-6.46zm-3.72 2.79c1.88-1.83 3.66-2.76 3.71-2.79-.04.02-1.76 1.15-3.71 2.79zM60.18 159.77c-.11-.22-.25-.45-.41-.67.06-.23.11-.48.14-.78.37-3.81.53-6.98.61-9.05l.06-2.6s-3.33-4.8-13.33-2.06c-5 1.37-9 3.77-12.92 5.23-3.92 1.46-7.75 1.97-12.42-.43l-1.19-.55-1.23-.45-1.26-.35-1.29-.27-1.3-.19-1.31-.11-2.61-.04-2.55.17-2.42.33-2.23.43-1.97.47-2.11.61-.44.14v.48h.37l2 .06.98.06-.66.06-2.69.28v1.15l.16.03c2.97.45 6.71.96 8.48.96 3.19 0 9.03 1.63 11.69 8.19 2.66 6.55 17 1.09 19.13-1.64 2.12-2.73 7.44-2.73 10.63-1.09 3.19 1.64 1.6 2.73 0 3.82-1.59 1.09 5.32 1.09 9.03 3.28l.64.34c2.94 1.3 1.91-2.74.42-5.81zM67.74 189.53l-1.16.31s-4.67-6.85-12.67-3.43c-4 1.71-6.17.86-7.58.69-1.42-.17-2.08.34-3.08 4.8-2 8.91-11.34 9.59-16 16.45-4.67 6.86-10 4.11-15.33 12.34-5.33 8.22-6 8.91-6 8.91s8.11-8.89 16.06-11.66c-5.56 2.94-11.64 7.04-16.06 11.66 0 0 18.15-12.48 23.99-9.75 5.84 2.73 17.53-8.19 18.06-10.92.53-2.73-3.72-4.92 2.13-7.1 5.84-2.18 12.22-3.82 15.41-6 2.97-2.06 7.4-7.41 2.23-6.3zM104.58 80.19l-.31-1.05-.55-1.07-.67-.91-.94-.93-.91-.67-1.1-.61-1.31-.52-1.54-.41-6.34-1.23-.59-.13-.6-.12-2.21-.51-1.99-.53-.2-.05c-4.08-1.2-7.75-2.91-9.42-5.65l-.52-.67-.71-.65-.88-.63-1.03-.61-1.16-.58-1.28-.56-2.82-1.04-3.05-.94-3.14-.83-3.06-.71-2.85-.59-3.19-.6-1.54-.25-.07-.02s.02.01.03.02l-1.41-.23s6.71 3.63 13.19 7.46c4.15 2.88 7.32 5.68 5.18 6.41-4.78 1.64 5.31 6.01 6.91 7.65 1.59 1.64 9.03 6.55 11.16 4.91 2.12-1.64 9.56-1.09 8.5 1.09-1.06 2.19 1.06 3.83 3.72 1.64.04-.04.08-.08.12-.11l.39.21.88.27.29.05.66.07h.33l.67-.07.35-.06.16-.04.71-.27.64-.42.13-.1.54-.57.08-.11.38-.69.06-.14.27-.93.04-.23.1-1.17-.1-1.57zM129.92 56.88c-1.33-6.17 2-13.71-4-22.62l-.84-1.32c-4.97-8.28-3.13-14.82-2.49-21.98l.1-1.8-.02-1.63-.12-1.46-.19-1.3-.34-1.48-.39-1.2-.51-1.17-.53-.92c-.01.03-3.56 9.05-6.21 17.77-.66 2.19-1 3.99-1.07 5.63l-.01 1.2.08 1.16c.41 3.8 2.19 7.17 4.19 13.31.12.38.23.72.32 1.04-.09 1.16-.2 2.24-.33 3.29-1.15-.52-2.94-2.17-2.65 1.13.53 6.01 1.06 11.47.53 22.39a43.76 43.76 0 00-.04 3.56l.06 1.02.02.39c.5 5.59 2.61 4.87 2.61 4.87l.14-.53.07.1.19.13.22.06h.25l.28-.07.67-.37c2.22-1.52 6.92-3.26 10.65-4.5l.24-.07 5.12-1.6s-4.67-6.86-6-13.03zM120.59.01c0 .05-.03 1.64-1.68 8.86.29-1.69.59-3.3.85-4.67l.83-4.19zM238.88 30.6l5.06-7.98-.01.01v-.01s-8.67 5.48-17.34 12.34c-4.33 3.43-4.83 5.14-5.5 6.77-.67 1.63-1.5 3.17-6.5 6.25l-2.48 1.66-2.42 1.85-2.34 1.98-2.22 2.05-2.72 2.72-2.39 2.56-2.54 2.92-2.23 2.77c-1.29 2.38-1.08 3.64-.11 4.13-.46-.03-.83-.15-1.08-.4-.5-.51-1.31.09-1.89 1.07l-.12.23-.2.4c-.95 2.19-.58 5.26 5.4 3.22 2.56-.88 4.36-1.76 5.76-2.7l1.21-.92.06-.04c2.79-2.38 3.94-5.23 8.38-9.45 6.91-6.56 12.22-10.92 11.16-7.1l-.11.57.05.3.08.06h.12l.33-.18 1.03-.94 1.43-1.58 5.52-6.6 2.19-2.54c5.31-6.01-1.59-2.73 1.06-7.65.88-1.67 2.11-3.74 3.36-5.77zM220.11 102.97s4.78 8.74 10.09 4.37 2.66-2.73 13.28-8.74c10.63-6.01 14.13-10.69 10.63-11.47-3.51-.78-.53-8.19 6.37-12.02 1.3-.72 2.74-1.61 4.2-2.64l1.32-.97.15-.11c4.15-3.21 8.1-7.54 8.93-12.41l.11-.87.04-.88-.03-.88c-.07-.89-.25-1.79-.56-2.71l-.35-.92s-.05.13-.13.37c-.29-.63-.62-1.16-.9-1.56l-.66-.82s2 8.91-5.33 8.22c-4.68-.44-7.45 1.91-11.1 6.16l-5.37 6.41-.31.38c-.6.69-1.23 1.41-1.89 2.14-4.34 4.8-7 6.17-9.5 6.77-2.5.6-4.83.43-8.5 2.14-5.16 2.41-8.01 6.52-9.25 8.74l-.75 1.54-.57.77c-2.55 3.87-2.43 6.34.08 8.99zM86.24 209.25l-.56.22-.51-.05-.58.02-.55.08-.63.17-.44.19-.17-.94-.28-1.07-.31-.89-.41-.89-.38-.63-.45-.56-.52-.46-.6-.33-.5-.14-.55-.04-.6.08-.63.2-.03.01c-.91.37-1.97 1.11-3.19 2.37-3.67 3.77-6.17 7.19-7.83 10.19-1.67 3-2.5 5.57-2.83 7.62-.67 4.12.67 6.17-4.67 11.65-3.75 3.86-4.86 9.41-5.19 12.37l-.14 2.02s.15-.23.43-.63l-.07.39-.05 1.01.12.86c.12.66.31 1.42.5 2.38l.25 1.44s3.19-9.28 13.28-15.29l1.81-1.14 1.65-1.15 1.49-1.15 1.33-1.14 1.16-1.12 1-1.08.84-1.04.1-.15.58-.84.52-.91.35-.83.19-.73.03-.62-.13-.51-.29-.38-.45-.24-.62-.08-.18-.03-.44-.07c-1.44-.55-1.21-3.16.14-5.79l.3-.52.26-.46c1.22-1.95 3.04-3.77 5.23-4.59 5.49-2.06 5.83-7.46 3.22-6.78zM113.48 224.2l-.9.6s-6.67-5.48-9.34.69c-1.33 3.08-.33 5.14.08 7.62.42 2.49.25 5.4-3.42 10.19-.31.4-.6.81-.89 1.21-.07.1-.14.19-.2.29-.57.81-1.09 1.63-1.58 2.43-.05.09-.11.18-.16.26-4.86 8.17-5.84 15.68-5.84 15.68s.29-.33.79-.89c-.58.97-1.12 1.94-1.58 2.88-2.66 5.46-1.59 10.92-1.59 10.92s4.25-15.29 12.75-19.66c3.18-1.63 5.61-4.18 7.22-6.62l.02-.02c.02-.04.04-.07.07-.11.12-.19.25-.38.36-.57.05-.09.1-.18.16-.27l.24-.42.15-.27c.07-.14.14-.28.21-.41.04-.08.08-.16.12-.25.09-.18.17-.36.24-.54.02-.05.04-.11.07-.16.07-.18.14-.35.2-.52.03-.07.05-.14.07-.21.04-.12.08-.24.11-.36l.06-.21c.03-.11.06-.22.08-.33.01-.06.03-.12.04-.18.03-.15.05-.29.07-.42 0-.02 0-.04.01-.05.01-.14.02-.27.02-.39 0-.04 0-.08-.01-.12 0-.08-.01-.16-.02-.24-.01-.04-.01-.07-.02-.11-.02-.07-.04-.13-.06-.19-.01-.02-.02-.05-.03-.07a.623.623 0 00-.35-.31c-.02-.01-.04-.01-.06-.01-.06-.01-.12-.02-.19-.01-.03 0-.06 0-.09.01-.07.01-.15.03-.23.06-.03.01-.06.02-.1.03-.12.04-.24.1-.37.18-3.72 2.19.53-4.37 4.25-10.38 3.49-5.63 3.83-11.2-.36-8.75zM154.91 252.51l-.16-2.92-.25-2.95-.33-2.92-.39-2.84-.85-5.21-.82-4.24-.86-3.9s-.8-.35-1.94-.71l-.05-.02c-.02-.01-.05-.01-.08-.02-.16-.05-.33-.1-.5-.14l-.33-.09c-.19-.05-.38-.09-.58-.14-.11-.03-.21-.05-.32-.08-.24-.05-.48-.09-.73-.13-.07-.01-.14-.03-.21-.04-.31-.04-.63-.08-.94-.1h-.21a8.17 8.17 0 00-.7 0c-.11.01-.21.03-.32.04-.18.02-.37.04-.54.07-.12.02-.22.06-.33.09-.16.04-.31.09-.46.15-.11.05-.21.11-.31.17-.13.07-.26.15-.37.24-.03.03-.08.04-.11.07l-.14.15c-3.83-3.74-4.29-1.58-3.27 2.63.06.26.14.54.23.84.03.09.06.2.09.29.07.22.14.44.22.68l.12.36c.08.24.17.49.26.74.04.12.09.25.13.38.11.3.22.61.34.92.03.08.06.17.09.25.37.99.77 2.05 1.19 3.18.1.28.21.56.31.84.07.2.15.4.22.6.11.3.22.59.32.9.07.2.15.41.22.61.11.31.22.63.33.95.07.19.13.39.2.58.12.37.24.73.36 1.1l.15.45c.17.52.33 1.05.48 1.57.02.08.04.16.07.23.13.44.25.89.37 1.33.05.17.09.34.13.51.09.35.18.71.26 1.06.04.19.09.38.13.57.06.27.11.55.17.82l.11.61h.01c.19 1.06.33 2.1.39 3.1.53 8.19-4.78 2.73-2.66 16.93 2.11 14.1 9.42 25.14 9.52 25.29v.01-.01c-.06-.21-5.97-19.92 0-28.77l.68-1.22.55-1.42.43-1.6.32-1.75.22-1.88.12-1.99.04-2.08-.02-2.14zM225.92 262.71c-.11-1.02-.32-2.02-.65-2.96l-.56-1.37c-1.39-2.96-3.53-5.23-5.12-7.89l-.23-.43-.65-1.23c-1.33-2.89-1.81-6.42-.1-11.7l.4-1.57c1.78-9.75-7.5-22.46-11.4-27.29l-1.66-1.98-1.42-.95c-3.38-2.13-11.66-6.54-12.51.98l-.07 1.35c-11.71.92-.51 13.28-.51 13.28s8.52 6.7 12.31 11.95l-.75-.96.03.05c.38.57.74 1.07 1.09 1.52l.09.1-.44-.68c1.71 2.39 2.45 4.47.95 5.49-2.69 1.84-3.87 5.76-2.11 10.68l.4.97.29.71c1.62 3.42 4.6 7.24 9.39 11.13 12.75 10.38 7.44 18.57 7.44 18.57 1.2-.49 1.99-1.38 2.48-2.55l.02.33 1.06-2.51c.9-2.38 2.09-6.13 2.32-9.92l.02-2.08-.11-1.04zm-32.69-52.42c.06.11.13.23.19.35l-.18-.33-.01-.02zm2.33 3.9l-.21-.33.21.33zm-.64-1.01l-.21-.33.21.33zm-.58-.95c-.07-.11-.13-.22-.2-.33.07.11.13.22.2.33zm-.51-.86c-.07-.11-.13-.23-.19-.34.06.11.13.23.19.34zm2.23 3.57c.07.11.15.22.22.33-.07-.11-.15-.22-.22-.33zm.78 1.13l.23.32-.23-.32zm.89 1.22c.07.09.13.18.2.27-.07-.1-.14-.18-.2-.27z" fill="#F9F17F"></path><g><path class="st1" d="M115.41 47.98h12.87l2.93-14.34H86.93L84 47.98h13.15L87.9 93.25h18.27zM155.6 36.2c-12.37 0-21.13 8.44-23.49 19.99-1.12 5.49-.36 10.43 2.23 14 2.58 3.57 6.99 5.76 13.14 5.76 11.54 0 20.07-7.72 22.94-17.73l.5-2.03c2.36-11.54-2.96-19.99-15.32-19.99zm2 20.05c-.38 1.86-1.04 4.58-2.31 6.83s-3.16 4.04-6 4.04c-4.83 0-4.8-5.16-4.21-8.99l.34-1.87c.77-3.77 2.9-11.32 8.41-11.32 5.49-.01 4.54 7.54 3.77 11.31zM171.26 75.39h15.8c5.62 0 10.9-1.24 15.74-5.24 4.47-3.66 7.45-8.95 8.48-14.02 1.13-5.52.26-10.81-3.22-14.64-3.12-3.5-6.97-4.5-11.81-4.69l-2.14-.04h-14.97l-7.88 38.63zm14.3-8.89l4.28-20.95h1.42c2.84 0 4.76-.11 6.23 2.2 1.28 2.14 1.36 5.52.83 8.11-.53 2.59-1.53 5.18-3.41 7.43a9.87 9.87 0 01-1.45 1.44c-.53.42-1.11.79-1.73 1.1-.85.39-1.53.56-2.21.63l-2.18.04h-1.78zM234.62 75.39h12.72l-4.83-38.63h-13.13l-20.49 38.63H219l4.04-7.6h10.83l.75 7.6zm-7.79-16.04l5.6-11.21 1.02 11.21h-6.62zM286.77 36.77h-10.89l-9.4 12.72-4.5-12.72h-13.67l9.11 22.3-3.33 16.33h12.07l3.33-16.33zM311.05 20.22h-14.62l-2.63 12.87h5.83l-8.07 10.94h6.68l10.44-12.23zM323.64 75.96c8.4 0 18.86-3.72 20.76-13.01.86-4.22-.47-7.83-4.02-9.85-3.19-1.75-7.15-2.36-10.85-3.1-1.47-.34-4.34-.73-3.93-2.76.41-2.03 2.87-2.48 4.53-2.48 2.74 0 4.65.78 5.48 2.9l.29.99 10.9-2.98c-1.11-6.7-7.36-9.46-14.39-9.46-4.02 0-8.49.73-12.25 2.93-3.7 2.2-6.42 5.91-7.19 9.69-1.87 9.18 6.77 11.15 14.12 12.56 1.77.33 4.81.79 4.33 3.15-.22 1.07-1.14 1.66-2.2 1.99-1.07.32-2.27.38-3.07.38-3.16 0-5.44-.95-6.21-3.49l-.23-1.19-11.94 1.97c.47 8.38 7.34 11.76 15.87 11.76z" fill="#C2C1C1"></path><g><path class="st2" d="M112.89 45.95h12.88l2.93-14.34H84.41l-2.92 14.34h13.14l-9.24 45.27h18.26zM153.08 34.18c-12.36 0-21.13 8.45-23.49 19.99-1.12 5.49-.36 10.43 2.23 14 2.58 3.57 6.99 5.76 13.14 5.76 11.54 0 20.07-7.72 22.94-17.73l.5-2.03c2.36-11.55-2.95-19.99-15.32-19.99zm2 20.04c-.38 1.86-1.04 4.57-2.31 6.83-1.27 2.25-3.16 4.04-6 4.04-4.83 0-4.8-5.16-4.21-8.99l.34-1.87c.77-3.77 2.9-11.32 8.41-11.32 5.5 0 4.54 7.54 3.77 11.31zM168.74 73.37h15.8c5.62 0 10.9-1.24 15.74-5.24 4.48-3.66 7.45-8.95 8.49-14.02 1.13-5.52.26-10.81-3.22-14.64-3.12-3.5-6.97-4.5-11.81-4.69l-2.13-.04h-14.97l-7.9 38.63zm14.3-8.9l4.28-20.95h1.42c2.84 0 4.76-.11 6.23 2.2 1.28 2.14 1.36 5.52.83 8.11-.53 2.59-1.53 5.18-3.41 7.43a9.87 9.87 0 01-1.45 1.44c-.53.42-1.11.79-1.73 1.1-.85.39-1.53.56-2.21.63l-2.18.04h-1.78zM232.1 73.37h12.72l-4.83-38.63h-13.13l-20.49 38.63h10.12l4.04-7.6h10.83l.74 7.6zm-7.78-16.05l5.6-11.21 1.02 11.21h-6.62zM284.25 34.74h-10.88l-9.41 12.73-4.5-12.73H245.8l9.11 22.3-3.34 16.33h12.07l3.34-16.33zM308.53 18.19h-14.62l-2.63 12.87h5.83L289.05 42h6.68l10.44-12.22zM321.12 73.93c8.4 0 18.86-3.72 20.76-13.01.86-4.22-.47-7.83-4.02-9.85-3.19-1.74-7.15-2.36-10.84-3.1-1.47-.34-4.35-.73-3.93-2.76.41-2.03 2.87-2.48 4.53-2.48 2.74 0 4.65.78 5.48 2.89l.29.99 10.9-2.98c-1.11-6.7-7.36-9.46-14.4-9.46-4.02 0-8.49.73-12.25 2.93-3.7 2.2-6.41 5.91-7.19 9.69-1.87 9.18 6.77 11.15 14.12 12.56 1.77.34 4.81.79 4.33 3.15-.22 1.07-1.14 1.66-2.2 1.99-1.07.32-2.27.38-3.07.38-3.16 0-5.44-.95-6.21-3.49l-.23-1.19-11.94 1.97c.47 8.39 7.35 11.77 15.87 11.77z" fill="#010101"></path></g></g><g><path class="st3" d="M193.47 172.1l6.61-32.32H150.9l4.8-23.51h64.17l6.99-34.21H117.48L88.07 226.05h45.21l11.01-53.95zM276.54 226.05h39.26l-14.9-119.22h-40.54l-63.25 119.22h31.23l12.46-23.47h33.42l2.32 23.47zm-24.03-49.53l17.29-34.58 3.16 34.58h-20.45zM437.24 226.05l-12.03-51.96c16.11-6.43 25.33-15.82 28.52-31.46 2.38-11.64-.39-22.25-9.52-28.5-7.09-5.17-16.99-6.88-26.69-7.23l-4.14-.07h-63.73L325.3 226.05h38.9l9.3-45.54h12.05l8.96 45.54h42.73zm-58.53-71.08l4.65-22.77h15.52c3.65 0 7.67 0 10.64 1.56 1.72.96 2.94 2.39 3.62 4.09.68 1.69.83 3.65.42 5.65-1.83 8.97-9.94 11.03-17.57 11.4l-3.22.07h-14.06zM610.96 106.83h-50.58l-30.09 63.26h-.36l-4.97-63.26h-50.22l-24.36 119.22h28.85l17.4-85.16h.37l6.16 85.16h24.47l40.22-85.16h.36l-17.39 85.16h35.79zM706.56 197.55h-56.43l3.94-19.29h45.66l5.43-26.59h-45.65l3.55-17.38h56.42l5.61-27.46h-94.04l-24.36 119.22h94.05zM828.01 226.05l-12.03-51.96c16.1-6.43 25.33-15.82 28.52-31.46 2.38-11.64-.39-22.25-9.52-28.5-7.09-5.17-16.99-6.88-26.69-7.23l-4.14-.07h-63.73l-24.35 119.22h38.9l9.3-45.54h12.05l8.96 45.54h42.73zm-58.52-71.08l4.65-22.77h15.52c3.65 0 7.67 0 10.64 1.56 1.72.96 2.94 2.39 3.62 4.09.68 1.69.83 3.65.42 5.65-1.83 8.97-9.94 11.03-17.57 11.4l-3.22.07h-14.06z" fill="#DF1F28"></path></g><g><path class="st4" d="M274.22 202.59H240.8l-12.46 23.46h-31.23l63.25-119.22h40.54l14.91 119.22h-39.26l-2.33-23.46zm-1.25-26.07l-3.16-34.59-17.29 34.59h20.45zM586.61 226.05h-35.79l17.39-85.16h-.36l-40.22 85.16h-24.47L497 140.89h-.37l-17.4 85.16h-28.85l24.36-119.22h50.22l4.97 63.26h.36l30.09-63.26h50.58zM700.74 226.05h-94.05l24.36-119.22h94.04l-5.61 27.46h-56.42l-3.55 17.38h45.65l-5.43 26.59h-45.66l-3.94 19.29h56.43zM785.28 226.05l-8.96-45.53h-12.05l-9.3 45.53h-38.9l24.35-119.22h63.73c10.96 0 22.73 1.39 30.83 7.3 9.13 6.26 11.89 16.86 9.52 28.5-3.2 15.64-12.42 25.03-28.52 31.46l12.03 51.96h-42.73zm-1.73-71.08c8.4 0 18.69-1.22 20.79-11.47.81-4-.59-7.82-4.04-9.73-2.97-1.56-6.99-1.56-10.64-1.56h-15.52l-4.65 22.76h14.06zM394.51 226.05l-8.96-45.53H373.5l-9.3 45.53h-38.9l24.35-119.22h63.73c10.96 0 22.72 1.39 30.83 7.3 9.13 6.26 11.9 16.86 9.52 28.5-3.19 15.64-12.42 25.03-28.52 31.46l12.03 51.96h-42.73zm-1.74-71.08c8.4 0 18.69-1.22 20.79-11.47.82-4-.59-7.82-4.04-9.73-2.97-1.56-6.99-1.56-10.64-1.56h-15.52l-4.65 22.76h14.06zM193.47 172.1l6.61-32.32H150.9l4.8-23.51h64.17l6.99-34.21H117.48L88.07 226.05h45.21l11.01-53.95z" fill="none" filter="url(#sh)" stroke="#FFFFFF" stroke-width="3.5601px"></path></g></svg>