<svg xmlns:xlink="http://www.w3.org/1999/xlink" aria-labelledby="tloLogo" class="header-logo-image logo-tlo" version="1.1" viewBox="0 0 592.38 160.68" x="0" xml:space="preserve" xmlns="http://www.w3.org/2000/svg" y="0" width="592.38"  height="160.68" ><text id="tloLogo">The Londoner</text><style>.st0{fill:#332e69}</style><path class="st0" d="M0 0h34.66v131h26.99v28.18H0V0zM61.87 101.74c0-39.15 13.16-59.15 37.96-59.15 24.57 0 37.96 20 37.96 59.15 0 38.72-13.38 58.94-37.96 58.94s-37.96-20.22-37.96-58.94zm43.44-.21c0-27.53-1.1-32.05-5.49-32.05-3.95 0-5.7 2.37-5.7 32.05 0 27.75 1.54 33.56 5.7 33.56 4.17-.01 5.49-3.45 5.49-33.56zM142.17 44.1h32.25v12.05c4.83-6.45 15.8-13.55 24.35-13.55 10.75 0 17.11 3.44 17.11 22.59v94h-32.25V77.22c0-3.66-.88-5.16-2.85-5.16-2.19 0-5.05 1.5-6.36 2.15v84.96h-32.25V44.1zM220.5 101.74c0-43.45 9.43-59.15 24.13-59.15 8.34 0 15.14 5.59 19.09 14.2V0h32.25v131.21c0 13.77.44 22.16 1.97 27.96h-32.91c-.66-4.09-1.32-12.48-1.32-12.48-3.07 5.81-9.87 13.55-19.31 13.55-14.69.01-23.9-15.05-23.9-58.5zm43.22 28.4v-57c-1.32-.65-2.63-1.51-5.27-1.51-3.51 0-4.83 2.15-4.83 29.9 0 27.32 1.1 30.33 5.05 30.33 2.63 0 3.95-.86 5.05-1.72zM300.36 101.74c0-39.15 13.16-59.15 37.96-59.15 24.57 0 37.96 20 37.96 59.15 0 38.72-13.38 58.94-37.96 58.94s-37.96-20.22-37.96-58.94zm43.44-.21c0-27.53-1.1-32.05-5.49-32.05-3.95 0-5.7 2.37-5.7 32.05 0 27.75 1.54 33.56 5.7 33.56 4.17-.01 5.49-3.45 5.49-33.56zM380.66 44.1h32.25v12.05c4.83-6.45 15.8-13.55 24.35-13.55 10.75 0 17.11 3.44 17.11 22.59v94h-32.25V77.22c0-3.66-.88-5.16-2.85-5.16-2.19 0-5.04 1.5-6.36 2.15v84.96h-32.25V44.1zM458.55 101.74c0-39.15 12.94-59.15 37.74-59.15 33.13 0 35.98 31.19 35.98 58.08v12.26h-42.34c0 14.2 1.54 22.37 6.58 22.37 4.17 0 5.71-3.23 6.14-15.27l29.84.86c-2.85 23.66-11.63 39.79-36.2 39.79-24.58 0-37.74-20.22-37.74-58.94zm43-8.17c-.22-20.22-.88-24.52-5.26-24.52-3.95 0-6.36 4.95-6.36 24.52h11.62zM536.65 44.1h32.25v18.07h.22c3.73-10.75 10.75-19.57 19.53-19.57 1.97 0 3.73.43 3.73.43v30.76h-3.07c-9.43 0-15.8 1.08-20.4 3.66v81.74h-32.25V44.1z" fill="#332E69"></path></svg>