<?xml version="1.0" encoding="UTF-8"?>
<svg width="717px" height="72px" viewBox="0 0 717 72" version="1.1" xmlns="http://www.w3.org/2000/svg" xmlns:xlink="http://www.w3.org/1999/xlink">
    <!-- Generator: Sketch 52.2 (67145) - http://www.bohemiancoding.com/sketch -->
    <title>SanDiego / LOGO / logo-sdut-full-black</title>
    <desc>Created with Sketch.</desc>
    <g id="SanDiego-/-LOGO-/-logo-sdut-full-black" stroke="none" stroke-width="1" fill="none" fill-rule="evenodd">
        <g id="Logo-San-Diego-Union-Tribune-SD" fill="#000000" fill-rule="nonzero">
            <path d="M690.031742,49.5824516 C688.273548,51.5009032 685.200774,55.1636129 683.760774,56.9403871 C679.552258,55.5003871 677.041548,52.3347097 677.041548,48.4792258 L677.041548,27.9174194 C674.997677,26.6864516 671.639226,24.0735484 670.050581,22.7612903 L669.980903,22.7612903 L669.980903,47.2412903 C670.584774,48.3421935 671.96671,49.3037419 673.023484,49.3037419 C673.743484,49.3037419 674.012903,49.0993548 675.004645,48.0727742 L675.594581,48.6139355 C673.573935,50.8203871 669.927484,54.8616774 668.092645,56.8823226 C665.537806,54.5597419 662.959742,52.4926452 660.451355,50.7739355 L660.451355,50.7274839 C661.705548,50.1236129 662.053935,48.9390968 662.053935,46.9416774 L662.053935,26.3403871 C661.519742,25.388129 660.544258,24.4126452 659.87071,24.4126452 C659.290065,24.4126452 658.802323,24.7378065 658.082323,25.6203871 L657.455226,24.9003871 C660.149419,22.4384516 663.401032,19.1171613 664.91071,17.3287742 L669.997161,22.2294194 C671.321032,21.2074839 674.084903,18.7687742 675.548129,17.352 C677.801032,19.2797419 682.678452,22.6474839 686.835871,25.1326452 L686.835871,25.2023226 C685.79071,25.8294194 685.140387,26.5726452 685.140387,28.1752258 L685.140387,47.4294194 C685.140387,49.148129 686.603613,50.5184516 687.648774,50.5184516 C688.322323,50.5184516 688.856516,50.0307097 689.55329,49.148129 L690.157161,49.7055484 L690.031742,49.5824516 Z M658.514323,49.3083871 C656.012903,51.8562581 652.97729,55.0846452 651.462968,56.8730323 L646.399742,51.9886452 C645.099097,53.0175484 642.335226,55.4492903 640.872,56.8730323 C638.642323,54.9499355 633.764903,51.5821935 629.607484,49.1016774 L629.607484,49.0552258 C630.675871,48.428129 631.326194,47.6849032 631.326194,46.1055484 L631.326194,26.8513548 C631.326194,25.1326452 629.886194,23.7623226 628.841032,23.7623226 C628.19071,23.7623226 627.656516,24.2500645 626.936516,25.1326452 L626.355871,24.5984516 C628.097806,22.6939355 631.186839,19.0242581 632.626839,17.2590968 C636.853935,18.6990968 639.362323,21.8810323 639.362323,25.7132903 L639.362323,46.268129 C641.406194,47.4990968 644.773935,50.1236129 646.35329,51.4242581 L646.422968,51.4242581 L646.422968,26.4309677 C645.795871,25.299871 645.075871,24.48 644.216516,24.48 C643.626581,24.48 643.171355,24.8585806 642.451355,25.6087742 L641.824258,24.8190968 C644.19329,22.6962581 647.63071,19.2797419 649.465548,17.2707097 C651.695226,19.6815484 653.994581,22.0087742 656.340387,24.1525161 L656.340387,24.2221935 C655.016516,24.6867097 654.408,25.5692903 654.408,27.9847742 L654.408,47.7034839 C654.937548,48.6557419 655.801548,49.7009032 656.451871,49.7009032 C657.044129,49.7009032 657.445935,49.5383226 658.235613,48.7950968 L658.64671,49.2828387 L658.514323,49.3083871 Z M595.300645,7.71096774 C593.059355,9.70141935 591.010839,12.1122581 588.836903,14.3117419 C586.340129,11.763871 585.078968,10.3912258 584.029161,10.3912258 C583.309161,10.3912258 582.914323,10.5305806 582.250065,11.2157419 L581.599742,10.5189677 C583.71329,8.52154839 586.941677,5.22348387 588.079742,3.99251613 C590.332645,6.38477419 592.051355,7.82477419 592.841032,7.82477419 C593.63071,7.82477419 594.025548,7.61574194 594.699097,7.05832258 L595.372645,7.66219355 L595.300645,7.71096774 Z M599.783226,48.6162581 L592.269677,56.8730323 C589.896,54.7409032 586.602581,52.0652903 584.688774,50.7530323 L584.688774,50.688 C585.687484,50.2699355 586.198452,49.1016774 586.198452,46.6931613 L586.198452,26.4774194 C585.617806,25.1070968 584.897806,24.4869677 584.038452,24.4869677 C583.597161,24.4869677 582.99329,24.696 582.203613,25.587871 L581.483613,24.8307097 C583.806194,22.7868387 587.197161,19.5352258 589.264258,17.2823226 C590.588129,18.9313548 593.886194,22.2294194 596.115871,24.1571613 L596.115871,24.2268387 C594.931355,24.7145806 594.234581,25.5274839 594.234581,26.9907097 L594.234581,47.2900645 C595.349419,48.7997419 596.208774,49.3571613 597.207484,49.3571613 C597.741677,49.3571613 598.345548,49.3107097 599.251355,48.1261935 L599.855226,48.6836129 L599.783226,48.6162581 Z M581.520774,22.7659355 C580.073806,24.2105806 578.157677,26.6167742 576.573677,30.8810323 L576.508645,30.8810323 C575.184774,27.9940645 573.001548,24.5543226 571.608,23.1816774 L571.538323,23.1816774 L571.538323,47.5223226 C571.863484,48.3584516 573.048,49.7984516 574.302194,49.7984516 C575.324129,49.7984516 576.20671,48.6836129 577.182194,47.7313548 L577.762839,48.3584516 C575.602839,50.5649032 571.700903,54.8384516 569.912516,56.8823226 C567.938323,55.1868387 563.850581,52.0513548 561.737032,50.5649032 L561.737032,50.4952258 C563.060903,49.752 563.525419,48.4978065 563.525419,46.2449032 L563.525419,26.5726452 C563.107355,25.3416774 562.131871,24.5287742 561.411871,24.5287742 C560.808,24.5287742 560.250581,24.8074839 559.460903,25.6436129 L558.764129,24.9003871 C560.831226,23.112 564.640258,19.3261935 566.475097,17.352 L571.213161,22.3687742 L577.066065,17.2126452 C577.786065,18.3739355 579.574452,20.7894194 581.40929,22.8565161 L581.520774,22.7659355 Z M522.097548,33.9050323 C520.11871,36.1811613 517.810065,38.8567742 515.840516,41.1236129 C513.527226,39.744 508.919226,37.2030968 507.595355,37.2030968 C506.675613,37.2030968 506.07871,37.8301935 504.826839,39.1354839 L504.169548,38.5083871 C505.289032,37.2704516 509.636903,32.2513548 510.433548,31.2154839 C513.397161,32.8018065 517.619613,35.1406452 518.871484,35.1406452 C519.661161,35.1406452 520.385806,34.659871 521.435613,33.2825806 L522.097548,33.9050323 Z" id="Shape"></path>
            <path d="M506.610581,49.5824516 C504.85471,51.5009032 501.779613,55.1636129 500.339613,56.9403871 C496.126452,55.5003871 493.618065,52.3347097 493.618065,48.4792258 L493.618065,27.9174194 C491.574194,26.6864516 488.211097,24.0735484 486.627097,22.7612903 L486.569032,22.7612903 L486.569032,47.2412903 C487.163613,48.3421935 488.543226,49.3037419 489.6,49.3037419 C490.324645,49.3037419 490.591742,49.0993548 491.581161,48.0727742 L492.178065,48.6139355 C490.134194,50.8203871 486.504,54.8616774 484.662194,56.8823226 C482.091097,54.5597419 479.517677,52.4926452 477.013935,50.7739355 L477.013935,50.7274839 C478.268129,50.1236129 478.616516,48.9390968 478.616516,46.9416774 L478.616516,26.4565161 C478.082323,25.5042581 477.060387,24.4823226 476.410065,24.4823226 C475.829419,24.4823226 475.364903,24.8771613 474.575226,25.6203871 L473.924903,24.9003871 C476.572645,22.4849032 479.963613,19.1171613 481.47329,17.3287742 L486.559742,22.2294194 C487.860387,21.2074839 490.624258,18.7687742 492.11071,17.352 C494.363613,19.2797419 499.217806,22.6474839 503.398452,25.1326452 L503.398452,25.2023226 C502.35329,25.8294194 501.679742,26.5726452 501.679742,28.1752258 L501.679742,47.4294194 C501.679742,49.148129 503.142968,50.5184516 504.188129,50.5184516 C504.861677,50.5184516 505.395871,50.0539355 506.115871,49.148129 L506.696516,49.7055484 L506.610581,49.5824516 Z M444.504774,7.71096774 C442.265806,9.70141935 440.219613,12.1122581 438.048,14.3117419 C435.539613,11.763871 434.29471,10.3912258 433.23329,10.3912258 C432.536516,10.3912258 432.141677,10.5305806 431.468129,11.2157419 L430.817806,10.5189677 C432.931355,8.52154839 436.159742,5.22348387 437.274581,3.99251613 C439.527484,6.38477419 441.222968,7.82477419 442.035871,7.82477419 C442.825548,7.82477419 443.220387,7.61574194 443.893935,7.05832258 L444.567484,7.66219355 L444.504774,7.71096774 Z M447.802839,48.6162581 L440.286968,56.8730323 C437.917935,54.7409032 434.684903,52.128 432.785032,50.8250323 L432.785032,50.6856774 C433.772129,50.2722581 434.225032,49.1016774 434.225032,46.6908387 L434.225032,26.4774194 C433.635097,25.1070968 432.910452,24.4869677 432.048774,24.4869677 C431.607484,24.4869677 431.003613,24.696 430.213935,25.587871 L429.586839,24.8307097 C431.909419,22.7868387 435.207484,19.5352258 437.274581,17.2823226 C438.575226,18.9313548 441.87329,22.2294194 444.126194,24.1571613 L444.126194,24.2268387 C442.941677,24.7145806 442.221677,25.7365161 442.221677,26.9907097 L442.221677,47.2900645 C443.336516,48.7997419 444.195871,49.3571613 445.194581,49.3571613 C445.728774,49.3571613 446.402323,49.3107097 447.308129,48.1261935 L447.842323,48.6836129 L447.802839,48.6162581 Z M431.581935,49.5824516 C429.828387,51.5009032 426.750968,55.1636129 425.324903,56.9403871 C421.097806,55.5003871 418.59871,52.3347097 418.59871,48.4792258 L418.59871,27.9174194 C416.554839,26.6864516 413.191742,24.0735484 411.612387,22.7612903 L411.54271,22.7612903 L411.54271,47.2412903 C412.139613,48.3421935 413.528516,49.3037419 414.580645,49.3037419 C415.30529,49.3037419 415.57471,49.0993548 416.561806,48.0727742 L417.151742,48.6139355 C415.107871,50.8203871 411.484645,54.8616774 409.642839,56.8823226 C407.227355,54.6990968 404.533161,52.4926452 402.168774,50.8203871 L402.168774,50.6810323 C403.016516,50.3094194 403.571613,49.4732903 403.571613,47.0345806 L403.571613,26.4332903 C403.044387,25.4810323 402.085161,24.5055484 401.425548,24.5055484 C400.835613,24.5055484 400.317677,24.8307097 399.539613,25.5971613 L398.912516,24.8771613 C401.571871,22.508129 404.888516,19.0939355 406.407484,17.3055484 L411.493935,22.2061935 C412.794581,21.1842581 415.581677,18.7455484 417.044903,17.3287742 C419.297806,19.2565161 424.175226,22.6242581 428.332645,25.1094194 L428.332645,25.1790968 C427.287484,25.8061935 426.613935,26.5494194 426.613935,28.152 L426.613935,47.4061935 C426.613935,49.1249032 428.077161,50.4952258 429.145548,50.4952258 C429.795871,50.4952258 430.330065,50.0307097 431.050065,49.1249032 L431.63071,49.6823226 L431.581935,49.5824516 Z M714.026323,26.9651613 C712.047484,28.0637419 700.708645,35.6283871 699.914323,39.7463226 L699.914323,45.0418065 C699.914323,48.2794839 704.996129,50.6113548 707.629935,50.6113548 C708.749419,50.6113548 710.266065,49.1016774 711.713032,47.5223226 L712.442323,48.2887742 L703.741935,56.8823226 C696.151742,55.3726452 691.938581,50.9829677 691.938581,46.4307097 L691.938581,31.2178065 C691.938581,29.8939355 691.213935,28.755871 689.825032,28.3378065 L689.825032,28.268129 C693.648,26.0849032 700.966452,20.7894194 705.32129,17.2823226 C707.425548,19.9068387 711.58529,24.5055484 714.026323,26.9907097 L714.026323,26.9651613 Z M706.385032,30.3282581 C704.341161,28.1310968 701.379871,24.4846452 699.990968,22.6962581 L699.932903,22.6962581 L699.932903,36.4459355 L699.990968,36.4459355 C701.442581,34.1790968 704.278452,31.8425806 706.387355,30.3282581 L706.385032,30.3282581 Z M626.149161,46.1450323 C621.866323,48.96 615.604645,53.2985806 611.972129,56.9357419 C608.218839,54.2508387 603.406452,51.7749677 600.435871,50.6090323 L600.435871,50.5393548 C601.434581,50.1212903 602.038452,49.2340645 602.038452,46.7535484 L602.038452,12.9367742 C601.457806,11.5618065 600.714581,10.944 599.855226,10.944 C599.39071,10.944 598.810065,11.1530323 598.020387,12.0472258 L597.300387,11.2900645 C599.599742,9.24619355 603.013935,5.99458065 605.081032,3.74167742 C606.404903,5.39070968 609.702968,8.68877419 611.932645,10.6165161 L611.932645,10.6861935 C610.748129,11.1739355 610.028129,12.195871 610.028129,13.4500645 L610.028129,22.5778065 C611.352,21.3468387 613.674581,18.8849032 615.114581,17.2126452 C622.244903,20.8590968 624.939097,23.0655484 624.939097,28.5700645 L624.939097,43.5739355 C624.939097,45.1532903 625.612645,45.8500645 626.19329,46.1287742 L626.19329,46.1984516 L626.149161,46.1450323 Z M616.923871,51.1618065 L616.923871,29.9845161 C616.923871,27.5225806 615.072774,24.9630968 610.06529,23.04 L610.000258,23.04 L610.000258,47.1716129 C611.835097,48.0658065 615.133161,49.9285161 616.851871,51.1594839 L616.921548,51.1501935 L616.923871,51.1618065 Z M564.619355,8.39612903 C564.619355,13.4129032 561.328258,17.2637419 555.77729,17.2637419 C554.646194,17.2637419 553.524387,17.1290323 552.423484,16.892129 L552.423484,49.7496774 C556.813161,48.8578065 558.857032,46.8 561.481548,44.1661935 L562.131871,45.0185806 C558.764129,50.9783226 553.32929,57.555871 544.68929,57.555871 C533.076387,57.555871 524.715097,49.3107097 524.715097,36.6061935 C524.715097,24.9932903 532.565419,18.0487742 540.857032,13.4268387 L541.507355,14.0539355 C536.955097,17.5610323 532.728,24.7145806 532.728,34.0745806 C532.728,41.2513548 535.004129,45.1765161 538.371871,47.4294194 C540.090581,45.6874839 540.253161,43.9455484 540.253161,41.1584516 L540.253161,27.548129 C540.253161,22.5313548 544.758968,19.0242581 549.148645,16.0049032 C543.528,14.0074839 538.04671,10.4307097 531.72929,10.4307097 C525.922839,10.4307097 523.158968,12.2887742 523.158968,15.4474839 C523.158968,17.8629677 524.808,19.2332903 526.52671,19.2332903 C527.641548,19.2332903 528.500903,19.0242581 529.151226,18.5597419 L528.756387,20.4874839 C528.222194,20.6268387 527.571871,20.6965161 527.037677,20.6965161 C523.925419,20.6965161 521.835097,18.6990968 521.835097,14.6578065 C521.835097,7.78296774 526.758968,2.83587097 534.934452,2.83587097 C545.386065,2.83587097 552.168,10.755871 558.996387,10.755871 C561.829935,10.755871 563.084129,9.87329032 563.084129,7.94554839 C563.084129,6.22683871 562.015742,5.27458065 560.227355,4.78683871 L561.737032,3.69522581 C563.116645,4.392 564.500903,6.1803871 564.500903,8.52619355 L564.619355,8.39612903 Z M551.431742,49.9052903 L551.431742,16.6645161 C551.060129,16.5716129 550.688516,16.4554839 550.309935,16.344 C548.033806,18.4714839 547.546065,20.3945806 547.546065,24.2105806 L547.546065,37.9602581 C547.546065,42.6054194 544.875097,44.5215484 539.231226,47.9984516 C541.948645,49.4779355 545.223484,50.0655484 548.916387,50.0655484 C549.798968,50.0655484 550.611871,50.012129 551.401548,49.9076129 L551.431742,49.9052903 Z M473.179355,24.147871 C472.324645,24.4846452 471.725419,25.4485161 471.725419,26.8234839 L471.725419,45.9150968 C471.725419,47.0067097 472.062194,47.9821935 472.919226,48.4467097 L472.919226,48.5163871 C468.901161,49.608 463.164387,52.8363871 458.484387,56.8312258 C452.143742,53.6725161 448.729548,50.4905806 448.729548,44.9163871 L448.729548,30.5628387 C448.729548,29.448 448.265032,28.4957419 447.208258,28.008 L447.208258,27.9383226 C451.820903,25.4531613 458.412387,20.2970323 461.580387,17.1383226 C463.693935,18.8570323 469.690839,22.4338065 473.184,24.0131613 L473.184,24.0828387 L473.179355,24.147871 Z M463.754323,51.7865806 L463.754323,27.504 C461.903226,26.5424516 458.017548,24.1409032 456.768,22.968 L456.707613,22.968 L456.707613,44.0105806 C456.707613,47.6570323 460.656,50.328 463.693935,51.768 L463.754323,51.768 L463.754323,51.7865806 Z" id="Shape"></path>
            <path d="M401.372129,48.9925161 C401.372129,48.9925161 395.91871,55.1938065 394.346323,57.0750968 C391.512774,56.1785806 388.484129,54.2508387 387.355355,50.9527742 L381.096,57.3491613 C372.658065,55.0776774 366.39871,51.2245161 366.39871,43.3207742 L366.39871,13.4152258 C366.39871,10.9416774 365.404645,9.56670968 363.695226,9.56670968 C362.115871,9.56670968 360.582968,10.3099355 360.582968,12.4467097 C360.582968,13.6776774 361.001032,14.6299355 361.512,15.6054194 L360.281032,15.5357419 C359.886194,14.7692903 359.444903,13.5847742 359.444903,12.2376774 C359.444903,6.87251613 363.068129,3.92283871 368.154581,3.92283871 C372.451355,3.92283871 375.145548,7.29058065 375.145548,12.168 L375.145548,41.7344516 C375.145548,44.1731613 375.912,45.6596129 377.723613,47.1228387 L377.723613,9.63870968 C377.723613,8.18941935 377.328774,7.64825806 376.724903,7.16748387 C377.514581,6.41032258 378.048774,5.65780645 378.582968,4.55458065 L378.722323,4.55458065 L378.722323,24.9003871 C380.162323,25.5274839 381.486194,25.8061935 382.810065,25.8061935 C384.133935,25.8061935 385.71329,25.5274839 386.967484,24.9236129 L386.967484,14.1909677 C386.317161,12.8206452 385.248774,11.5780645 384.064258,11.5780645 C383.483613,11.5780645 383.135226,11.7174194 382.484903,12.3979355 L381.904258,11.9148387 L389.081032,4.07612903 L397.976516,11.8498065 L397.976516,11.9194839 C396.606194,12.4025806 395.723613,13.4291613 395.723613,15.2872258 L395.723613,45.7827097 C395.723613,48.3514839 397.512,50.0283871 398.952,50.0283871 C399.253935,50.0283871 399.718452,49.7171613 400.066839,49.3316129 L400.902968,48.4490323 L401.460387,49.0064516 L401.372129,48.9925161 Z M386.893161,31.4965161 L386.893161,25.875871 C385.755097,26.3636129 384.384774,26.6423226 382.735742,26.6423226 C381.133161,26.6423226 379.878968,26.3868387 378.648,25.8990968 L378.648,31.5429677 C379.878968,31.0784516 381.133161,30.7997419 382.735742,30.7997419 C384.384774,30.7997419 385.755097,31.0784516 386.869935,31.5661935 L386.893161,31.4965161 Z M387.148645,50.0771613 C387.00929,49.2642581 386.869935,48.1726452 386.869935,47.5455484 L386.869935,32.472 C385.615742,31.868129 384.036387,31.5894194 382.712516,31.5894194 C381.388645,31.5894194 380.064774,31.868129 378.624774,32.4952258 L378.624774,47.8939355 C378.949935,48.1261935 379.344774,48.3584516 379.739613,48.6139355 C381.737032,49.7984516 384.152516,50.4023226 385.801548,50.4023226 C386.335742,50.4023226 386.730581,50.3326452 387.125419,50.1236129 L387.148645,50.0771613 Z M264.96,8.36129032 C262.767484,10.3029677 260.77471,12.6487742 258.654194,14.7948387 C256.208516,12.3166452 254.984516,10.971871 253.955613,10.971871 C253.247226,10.971871 252.864,11.1112258 252.222968,11.780129 L251.572645,11.1065806 C253.639742,9.16722581 256.786839,5.95045161 257.878452,4.74270968 C260.084903,7.08851613 261.733935,8.49367742 262.523613,8.49367742 C263.290065,8.49367742 263.684903,8.29625806 264.335226,7.75741935 L264.985548,8.36129032 L264.96,8.36129032 Z M269.326452,48.24 L261.994065,56.2854194 C259.680774,54.2067097 256.461677,51.5938065 254.594323,50.3256774 L254.594323,50.256 C255.553548,49.8611613 256.069161,48.7230968 256.069161,46.3772903 L256.069161,26.6632258 C255.488516,25.316129 254.782452,24.7122581 253.944,24.7122581 C253.50271,24.7122581 252.922065,24.9143226 252.150968,25.7806452 L251.442581,25.0490323 C253.695484,23.04 257.04,19.8882581 259.037419,17.6771613 C260.324129,19.2797419 263.536258,22.508129 265.726452,24.3894194 L265.726452,24.4590968 C264.565161,24.9468387 263.859097,25.7365161 263.859097,27.1532903 L263.859097,46.9184516 C264.95071,48.4049032 265.786839,48.9390968 266.746065,48.9390968 C267.257032,48.9390968 267.837677,48.8694194 268.720258,47.7313548 L269.300903,48.2655484 L269.326452,48.24 Z M201.010065,49.1852903 C199.268129,51.0596129 196.318452,54.6085161 194.901677,56.3574194 C190.779097,54.9406452 188.333419,51.8632258 188.333419,48.1122581 L188.333419,28.0683871 C186.342968,26.8606452 183.061161,24.3150968 181.518968,23.04 L181.456258,23.04 L181.456258,46.8929032 C182.036903,47.9659355 183.384,48.9019355 184.405935,48.9019355 C185.118968,48.9019355 185.372129,48.6975484 186.333677,47.6941935 L186.914323,48.2283871 C184.923871,50.3698065 181.386581,54.3251613 179.584258,56.2645161 C177.075871,53.9883871 174.567484,51.9747097 172.128774,50.3070968 L172.128774,50.2443871 C173.359742,49.6405161 173.684903,48.4954839 173.684903,46.5514839 L173.684903,26.5772903 C173.173935,25.6436129 172.337806,24.6379355 171.71071,24.6379355 C171.130065,24.6379355 170.758452,24.7772903 169.968774,25.5112258 L169.597161,25.0467097 C172.035871,22.5615484 175.008774,19.412129 176.495226,17.6701935 L181.393548,22.4129032 C182.677935,21.4141935 185.379097,19.0683871 186.795871,17.6585806 C188.983742,19.539871 193.740387,22.8193548 197.800258,25.2348387 L197.800258,25.2975484 C196.771355,25.9014194 196.128,26.64 196.128,28.1775484 L196.128,46.9532903 C196.128,48.6255484 197.540129,49.9726452 198.56671,49.9726452 C199.210065,49.9726452 199.728,49.4988387 200.434065,48.6255484 L201.01471,49.1690323 L201.010065,49.1852903 Z M69.2175484,49.1852903 C67.508129,51.0503226 64.5027097,54.620129 63.1091613,56.3574194 C58.9889032,54.9406452 56.5432258,51.8632258 56.5432258,48.1122581 L56.5432258,28.0683871 C54.5458065,26.8606452 51.2709677,24.3150968 49.724129,23.04 L49.6544516,23.04 L49.6544516,46.8232258 C50.2350968,47.8916129 51.4428387,48.9019355 52.488,48.9019355 C53.3938065,48.9019355 53.5796129,48.699871 54.5550968,47.6941935 L55.1357419,48.2283871 C53.1383226,50.3070968 49.6544516,54.188129 47.7963871,56.2691613 C45.9383226,54.4645161 42.8957419,52.1117419 40.3873548,50.3070968 L40.3873548,50.2420645 C41.5486452,49.707871 41.8505806,48.4304516 41.8505806,46.4864516 L41.8505806,15.9166452 C41.8505806,9.53883871 47.9821935,5.37212903 51.9073548,3.1563871 L52.3950968,3.85316129 C50.6531613,5.15380645 49.5615484,7.66219355 49.5615484,12.0983226 L49.5615484,22.4105806 C50.8157419,21.3886452 53.5331613,19.0196129 54.9499355,17.6492903 C57.1331613,19.5305806 61.8944516,22.8054194 65.9357419,25.2209032 L65.9357419,25.2673548 C64.8905806,25.8712258 64.2634839,26.6144516 64.2634839,28.1473548 L64.2634839,46.9138065 C64.2634839,48.5860645 65.6802581,49.9331613 66.7021935,49.9331613 C67.3292903,49.9331613 67.8634839,49.4454194 68.5602581,48.5860645 L69.1409032,49.1202581 L69.2175484,49.1852903 Z M347.044645,24.380129 C346.208516,24.7122581 345.627871,25.6505806 345.627871,26.9930323 L345.627871,45.620129 C345.627871,46.6954839 345.953032,47.6314839 346.789161,48.1052903 L346.789161,48.1656774 C342.864,49.2340645 337.266581,52.3927742 332.698065,56.2714839 C326.52,53.1963871 323.175484,50.112 323.175484,44.6818065 L323.175484,30.6580645 C323.175484,29.5850323 322.724903,28.6467097 321.693677,28.1729032 L321.693677,28.1125161 C326.199484,25.6970323 332.633032,20.6686452 335.722065,17.5912258 C337.777548,19.2634839 343.635097,22.752 347.044645,24.291871 L347.044645,24.3615484 L347.044645,24.380129 Z M337.847226,51.3220645 L337.847226,27.6549677 C336.035613,26.7259355 332.249806,24.380129 331.018839,23.2350968 L330.958452,23.2350968 L330.958452,43.8131613 C330.958452,47.3550968 334.813935,49.9099355 337.770581,51.3150968 L337.840258,51.3150968 L337.847226,51.3220645 Z M319.378065,56.2854194 C319.378065,58.0970323 317.845161,59.9783226 312.496258,63.7989677 C309.284129,66.0750968 303.442839,68.4209032 302.095742,69.6983226 C300.423484,67.2131613 300.191226,66.0750968 298.402839,66.0750968 C295.499613,66.0750968 290.297032,67.2828387 289.275097,68.0725161 L288.810581,67.608 C289.971871,65.0531613 296.382194,60.291871 301.724129,60.291871 C305.115097,60.291871 308.738323,62.0338065 309.946065,63.8454194 C311.293161,62.568 312.175742,61.6854194 312.175742,59.8970323 C312.175742,56.6686452 309.992516,55.9254194 309.342194,51.6286452 L309.272516,51.6286452 C307.971871,52.6970323 305.277677,55.1125161 303.930581,56.2505806 C299.540903,52.8131613 295.615742,50.1421935 292.921548,48.6557419 L292.921548,48.5860645 C293.757677,48.1215484 294.593806,47.0996129 294.593806,45.4970323 L294.593806,30.6325161 C294.593806,29.5409032 294.12929,28.611871 293.107355,28.1473548 L293.107355,28.0776774 C297.613161,25.6621935 304.04671,20.6221935 307.135742,17.5563871 C309.179613,19.2286452 315.032516,22.7125161 318.44671,24.2454194 L318.44671,24.3150968 C317.610581,24.6402581 317.029935,25.5925161 317.029935,26.9163871 L317.029935,48.6325161 C317.029935,52.0467097 319.282839,52.4415484 319.282839,56.204129 L319.378065,56.2854194 Z M309.339871,50.9202581 L309.339871,27.648 C307.551484,26.7143226 303.749419,24.3685161 302.527742,23.2258065 L302.458065,23.2258065 L302.458065,45.8756129 C303.744774,46.5491613 306.573677,48.6929032 309.279484,50.904 L309.342194,50.904 L309.342194,50.8854194 L309.339871,50.9202581 Z M292.234065,27.1254194 C290.306323,28.1938065 279.236903,35.5796129 278.468129,39.5976774 L278.468129,44.7538065 C278.468129,47.8892903 283.415226,50.1886452 285.986323,50.1886452 C287.082581,50.1886452 288.564387,48.7021935 289.976516,47.1692903 L290.696516,47.9125161 L282.219097,56.2738065 C274.83329,54.7873548 270.722323,50.5138065 270.722323,46.0776774 L270.722323,31.2596129 C270.722323,29.9821935 270.025548,28.844129 268.655226,28.4492903 L268.655226,28.3796129 C272.394581,26.2428387 279.548129,21.0634839 283.775226,17.6492903 C285.842323,20.1809032 289.883613,24.6867097 292.275871,27.1021935 L292.234065,27.1254194 Z M284.76929,30.4002581 C282.771871,28.2402581 279.868645,24.6867097 278.521548,22.968 L278.451871,22.968 L278.451871,36.3692903 L278.498323,36.3692903 C279.915097,34.1628387 282.678968,31.8867097 284.746065,30.4002581 L284.76929,30.4002581 Z M250.418323,45.0092903 C245.331871,48.2144516 238.828645,53.1150968 235.08929,56.6686452 C232.952516,53.9744516 229.16671,50.9086452 224.010581,50.9086452 C218.808,50.9086452 215.393806,53.1615484 213.140903,56.2505806 L212.374452,55.6467097 C217.251871,49.4686452 218.993806,47.6105806 218.993806,43.3834839 L218.993806,27.0325161 C218.993806,21.9228387 222.268645,19.4376774 228.260903,15.4196129 L228.888,16.0234839 C226.495742,18.1602581 226.054452,19.971871 226.054452,23.804129 L226.054452,39.0867097 C226.054452,42.1060645 224.498323,44.5912258 222.826065,45.9847742 L222.826065,46.0544516 C224.219613,45.3576774 226.704774,44.6144516 229.375742,44.5912258 C229.979613,44.5912258 230.60671,44.684129 231.233806,44.7538065 L231.233806,13.7496774 C228.260903,14.1212903 225.102194,14.7716129 221.455742,14.7716129 C216.949935,14.7716129 213.930581,11.9612903 213.930581,7.80387097 C214.000258,3.2516129 216.764129,0.975483871 221.339613,0.836129032 L221.711226,2.57806452 C219.829935,2.32258065 216.694452,2.57806452 216.694452,4.99354839 C216.694452,6.73548387 218.157677,7.15354839 221.455742,7.15354839 C224.916387,7.15354839 230.908645,5.60670968 235.925419,5.60670968 C245.448,5.60670968 248.838968,10.8325161 248.838968,18.0557419 L248.838968,41.328 C248.838968,44.2776774 249.419613,44.7421935 250.371871,44.8815484 L250.371871,45.0209032 L250.418323,45.0092903 Z M240.315097,25.0815484 L240.315097,21.0890323 C240.315097,15.6541935 239.339613,13.5104516 235.344774,13.5104516 C234.20671,13.5104516 233.208,13.5661935 232.255742,13.6590968 L232.255742,25.1094194 C233.64929,25.7132903 234.949935,25.992 236.227355,25.992 C237.504774,25.992 239.060903,25.7365161 240.268645,25.1326452 L240.315097,25.0815484 Z M240.315097,31.5150968 L240.315097,26.0129032 C239.223484,26.4913548 237.876387,26.756129 236.250581,26.756129 C234.694452,26.756129 233.48671,26.4913548 232.255742,26.0129032 L232.255742,31.5174194 C233.463484,31.0529032 234.694452,30.7834839 236.227355,30.7834839 C237.829935,30.7834839 239.177032,31.0482581 240.268645,31.5150968 L240.315097,31.5150968 Z M240.315097,49.2131613 L240.315097,32.444129 C239.084129,31.8402581 237.528,31.5847742 236.250581,31.5847742 C234.949935,31.5847742 233.672516,31.8402581 232.255742,32.444129 L232.255742,44.9396129 C235.623484,45.6596129 238.155097,47.0531613 240.222194,49.2131613 L240.268645,49.2131613 L240.315097,49.2131613 Z M171.218323,48.1912258 C164.389935,55.6234839 163.878968,56.2273548 163.878968,56.2273548 C161.997677,54.4854194 159.373161,52.3254194 157.956387,51.3267097 C156.028645,53.208 155.308645,54.0673548 153.380903,56.204129 C147.528,55.3912258 143.997677,51.2338065 143.997677,45.8686452 C143.997677,38.3667097 150.431226,33.7912258 154.658323,31.9796129 C151.824774,28.0312258 147.899613,24.524129 145.832516,23.2699355 L145.832516,23.2258065 L151.453161,17.6283871 C152.405419,19.2309677 154.147355,20.5780645 155.564129,20.5780645 C157.608,20.5780645 159.558968,19.1705806 160.580903,17.6283871 C161.742194,18.9685161 165.667355,22.5894194 167.595097,24.264 L167.595097,24.3336774 C166.248,25.2 165.737032,25.4020645 165.737032,28.1473548 L165.737032,46.844129 C166.108645,47.3783226 167.084129,48.8415484 168.617032,48.8415484 C169.499613,48.8415484 169.894452,48.4234839 170.591226,47.6338065 L171.171871,48.168 L171.218323,48.1912258 Z M157.956387,34.4415484 L157.956387,24.9886452 L156.469935,23.4557419 C154.867355,25.128 152.335742,25.3138065 150.617032,25.3834839 L150.617032,25.4531613 C152.660903,27.1254194 156.841548,32.0260645 157.88671,34.4415484 L157.935484,34.4415484 L157.956387,34.4415484 Z M157.956387,49.7938065 L157.956387,40.0621935 C157.956387,37.7860645 157.120258,35.3009032 155.378323,33.0247742 C153.125419,34.488 150.872516,37.2983226 150.872516,42.408 C150.872516,46.8209032 153.497032,50.2350968 156.841548,50.2350968 C157.213161,50.2350968 157.538323,50.1654194 157.933161,49.7473548 L157.956387,49.7938065 Z M143.788645,33.0247742 C143.788645,41.9899355 133.615742,50.7692903 126.740903,57.1563871 C124.92929,54.9963871 120.423484,51.651871 115.731871,51.651871 C110.064774,51.651871 107.626065,53.7189677 105.303484,56.6686452 L104.838968,56.3202581 C106.511226,49.9563871 111.272516,44.9256774 117.961548,44.9256774 C124.650581,44.9256774 129.226065,47.8753548 131.478968,50.0818065 C137.331871,44.0430968 138.864774,41.4418065 138.864774,37.7489032 C138.864774,35.2869677 138.353806,32.1282581 132.826065,29.4805161 C131.107355,28.6676129 128.900903,27.8779355 126.067355,27.1114839 L125.045419,28.6443871 C128.459613,29.5501935 130.921548,30.4327742 132.68671,31.4779355 C136.124129,33.5218065 136.937032,35.9837419 136.937032,39.0495484 C136.937032,40.8611613 135.195097,43.6714839 133.708645,44.9489032 L133.638968,44.9489032 C133.453161,40.5987097 131.943484,38.4851613 121.213161,36.099871 L120.307355,35.9024516 C119.703484,36.8314839 119.122839,37.7140645 118.588645,38.5966452 C116.591226,41.8064516 113.827355,41.8250323 113.827355,41.8250323 C112.201548,41.8250323 110.924129,40.7659355 110.924129,39.4095484 C110.924129,37.6676129 112.015742,36.8547097 113.478968,36.8547097 C114.879484,36.8547097 115.940903,38.5873548 116.753806,38.5873548 C116.986065,38.5873548 117.195097,38.4944516 117.390194,38.1925161 L119.062452,35.6237419 C114.277935,34.4624516 108.587613,32.1630968 108.587613,26.1940645 C108.587613,23.6392258 109.481806,21.7741935 110.638452,20.4340645 L110.708129,20.4340645 C111.346839,24.0805161 113.690323,25.8224516 123.844645,28.3935484 L124.866581,26.8490323 L124.155871,26.6632258 C117.977806,25.1070968 111.358452,23.4348387 111.358452,15.8632258 C111.358452,8.75612903 117.536516,4.6683871 125.828129,4.6683871 C131.629935,4.6683871 135.234581,6.41032258 137.766194,8.05935484 L138.95071,6.41032258 L139.786839,7.01419355 C136.767484,11.2180645 133.841032,15.4916129 130.937806,19.7883871 C131.904,20.0670968 132.795871,20.3225806 133.632,20.6245161 C141.83071,23.4650323 143.735226,26.7096774 143.735226,33.0270968 L143.788645,33.0247742 Z M133.824774,13.7705806 C131.780903,11.448 127.530581,8.61445161 123.210581,8.61445161 C117.148645,8.61445161 115.104774,10.4260645 115.104774,12.771871 C115.104774,16.2557419 120.005419,16.9757419 127.251871,18.8105806 C128.180903,19.0428387 129.040258,19.251871 129.876387,19.484129 C131.200258,17.5099355 132.524129,15.5821935 133.778323,13.7705806 L133.824774,13.7705806 Z M92.3667097,27.0557419 C90.4389677,28.124129 79.3602581,35.5099355 78.5938065,39.528 L78.5938065,44.684129 C78.5938065,47.8428387 83.5409032,50.1189677 86.1189677,50.1189677 C87.2105806,50.1189677 88.6970323,48.6325161 90.1138065,47.0996129 L90.8105806,47.8428387 L82.3099355,56.204129 C74.9009032,54.7176774 70.7899355,50.444129 70.7899355,46.008 L70.7899355,31.2131613 C70.7899355,29.9125161 70.0699355,28.7976774 68.7228387,28.4028387 L68.7228387,28.3331613 C72.4621935,26.1963871 79.5925161,21.0170323 83.8428387,17.6028387 C85.8867097,20.1344516 89.9512258,24.6402581 92.3434839,27.0557419 L92.3667097,27.0557419 Z M84.9112258,30.3538065 C82.9138065,28.1938065 80.0105806,24.6402581 78.6634839,22.8983226 L78.5938065,22.8983226 L78.5938065,36.2996129 L78.6634839,36.2996129 C80.0802581,34.0931613 82.844129,31.7938065 84.9112258,30.3305806 L84.9112258,30.3538065 Z M41.6206452,9.15096774 C41.6206452,14.0376774 38.4619355,17.6609032 33.0572903,17.6609032 C31.9424516,17.6609032 30.8578065,17.5308387 29.7778065,17.3032258 L29.7778065,49.3362581 C35.1661935,48.3236129 37.6513548,45.3646452 39.5790968,41.9969032 L40.392,42.8005161 C37.3261935,49.6985806 32.1700645,56.9450323 22.2526452,56.9450323 C10.9416774,56.9450323 2.76619355,48.9019355 2.76619355,36.5016774 C2.76619355,25.1767742 10.4307097,18.404129 18.5365161,13.9076129 L19.1868387,14.516129 C14.7507097,17.9303226 10.6397419,24.8980645 10.6397419,34.0025806 C10.6397419,40.9796129 12.6836129,44.9883871 15.9816774,47.1901935 C17.6539355,45.4947097 17.9790968,43.6203871 17.9790968,40.9076129 L17.9790968,27.6387097 C17.9790968,22.7450323 22.392,19.3331613 26.6655484,16.3927742 C21.1842581,14.4557419 15.8190968,10.9509677 9.66425806,10.9509677 C4.0203871,10.9509677 1.30296774,12.7625806 1.30296774,15.8516129 C1.30296774,18.1927742 2.92877419,19.5329032 4.60103226,19.5329032 C5.71587097,19.5329032 6.552,19.3331613 7.17909677,18.864 L6.78425806,20.7406452 C6.27329032,20.8753548 5.64619355,20.9403871 5.13522581,20.9403871 C2.06709677,20.9450323 0,19.0033548 0,15.0456774 C0,7.86890323 4.81703226,3.5163871 12.8020645,3.5163871 C23.0098065,3.5163871 29.6175484,11.2273548 36.2833548,11.2273548 C39.0472258,11.2273548 40.2689032,10.3540645 40.2689032,8.47277419 C40.2689032,6.80051613 39.2423226,5.85987097 37.5050323,5.39535484 L38.9868387,4.31767742 C40.3385806,4.85187097 41.6252903,6.84929032 41.6252903,9.14864516 L41.6206452,9.15096774 Z M28.8232258,49.4779355 L28.8232258,17.0709677 C28.4562581,16.9780645 28.0939355,16.875871 27.7316129,16.7643871 C25.5112258,18.836129 25.0234839,20.7127742 25.0234839,24.4335484 L25.0234839,37.8348387 C25.0234839,42.3731613 22.3246452,44.3427097 16.8108387,47.7290323 C19.4353548,49.1736774 22.7566452,49.6381935 26.379871,49.6381935 C27.216,49.6381935 28.052129,49.5870968 28.8185806,49.4872258 L28.8232258,49.4779355 Z" id="Shape"></path>
        </g>
    </g>
</svg>