<svg width="24" height="25" viewBox="0 0 24 25" fill="none" xmlns="http://www.w3.org/2000/svg">
<path d="M3.90338 19.535H6.88631V12.2907L2.625 9.09473V18.2566C2.625 18.964 3.19819 19.535 3.90338 19.535Z" fill="#4285F4"/>
<path d="M17.1133 19.5349H20.0963C20.8037 19.5349 21.3747 18.9617 21.3747 18.2565V9.09448L17.1133 12.2905" fill="#34A853"/>
<path d="M17.1133 6.75085V12.2906L21.3747 9.0947V7.38995C21.3747 5.80904 19.57 4.90773 18.3065 5.85592" fill="#FBBC04"/>
<path d="M6.88672 12.2906V6.75092L12.0003 10.586L17.1139 6.75073V12.2905L12.0003 16.1258" fill="#EA4335"/>
<path d="M2.625 7.38995V9.09451L6.88631 12.2905V6.75085L5.69316 5.85592C4.42753 4.90773 2.625 5.80904 2.625 7.38995Z" fill="#C5221F"/>
</svg>
