<svg width="24" height="25" viewBox="0 0 24 25" fill="none" xmlns="http://www.w3.org/2000/svg">
<path d="M14.6133 6.45264V10.5604L16.0503 11.4641C16.1022 11.4753 16.1559 11.4753 16.2078 11.4641L22.3863 7.29864C22.3818 7.09647 22.3078 6.90202 22.1768 6.74796C22.0459 6.5939 21.8658 6.48962 21.667 6.45264H14.6133Z" fill="#0072C6"/>
<path d="M14.6127 12.0927L15.9229 12.9927C15.9842 13.0303 16.0547 13.0501 16.1265 13.0501C16.1984 13.0501 16.2689 13.0303 16.3302 12.9927C16.1052 13.1285 22.3849 8.95923 22.3849 8.95923V16.5087C22.4013 16.6617 22.3841 16.8164 22.3344 16.962C22.2847 17.1076 22.2038 17.2407 22.0974 17.3517C21.9909 17.4628 21.8615 17.5493 21.7182 17.6051C21.5748 17.661 21.421 17.6848 21.2674 17.675H14.6119L14.6127 12.0927ZM7.82967 10.199C7.61198 10.198 7.39809 10.2559 7.21061 10.3665C7.02313 10.4772 6.86905 10.6364 6.76467 10.8275C6.47972 11.334 6.34301 11.9104 6.37017 12.491C6.34056 13.0703 6.47746 13.646 6.76467 14.15C6.86855 14.3332 7.01883 14.4858 7.20039 14.5926C7.38196 14.6993 7.58842 14.7564 7.79903 14.7581C8.00965 14.7598 8.21699 14.706 8.40023 14.6021C8.58347 14.4983 8.73615 14.348 8.84292 14.1665C9.12756 13.665 9.26166 13.0922 9.22917 12.5165C9.26167 11.9228 9.13204 11.3314 8.85417 10.8057C8.7546 10.6211 8.60663 10.4671 8.42613 10.3602C8.24564 10.2533 8.03944 10.1975 7.82967 10.199Z" fill="#0072C6"/>
<path d="M1.61523 4.36625V20.4365L13.8402 23V2L1.61523 4.36625ZM9.79623 15.1182C9.56759 15.4407 9.26352 15.7023 8.91055 15.8802C8.55758 16.0581 8.16643 16.147 7.77123 16.139C7.38599 16.1458 7.0048 16.0595 6.66007 15.8874C6.31534 15.7153 6.01728 15.4625 5.79123 15.1505C5.25518 14.402 4.987 13.4947 5.02998 12.575C4.98449 11.6102 5.25751 10.6573 5.80698 9.863C6.0387 9.53459 6.34758 9.26817 6.70644 9.08716C7.06531 8.90616 7.46316 8.81613 7.86498 8.825C8.24739 8.81759 8.62578 8.90402 8.96704 9.07675C9.3083 9.24947 9.60202 9.5032 9.82248 9.81575C10.3532 10.5805 10.6168 11.499 10.5725 12.4288C10.6194 13.3866 10.3463 14.3328 9.79623 15.1182Z" fill="#0072C6"/>
</svg>
